<svg viewBox="0 0 40 40" fill="none" xmlns="http://www.w3.org/2000/svg">
    <rect width="40" height="40" rx="20" fill="#6B93C0"/>
    <path d="M21.2099 30.12V31C19.0986 31 17.1267 29.8318 15.6577 27.711C14.226 25.6467 13.4382 22.9084 13.4382 20C13.4382 17.0916 14.226 14.3533 15.6577 12.289C17.1259 10.1697 19.0978 9 21.2099 9V9.88C17.4284 9.88 14.3525 14.4201 14.3525 20C14.3525 25.5799 17.4284 30.12 21.2099 30.12ZM14.6359 11.9333H13.477C13.3892 12.0487 13.3031 12.1673 13.2187 12.289C11.7878 14.3533 11 17.0953 11 20C11 22.9047 11.7878 25.6467 13.2195 27.711C13.3038 27.8327 13.3899 27.9513 13.4778 28.0667H14.6367C12.981 26.2187 11.9143 23.2912 11.9143 20C11.9143 16.7088 12.981 13.7843 14.6359 11.9333ZM27.4951 23.6667H25.0569C24.7003 24.7461 24.1914 25.6958 23.5711 26.4533H24.6897C25.0976 25.8552 25.4361 25.2158 25.6992 24.5467H27.1568C26.1503 26.8413 24.41 28.36 22.429 28.36C19.3203 28.36 16.7907 24.6097 16.7907 20C16.7907 15.3903 19.3203 11.64 22.429 11.64C24.6516 11.64 26.577 13.5569 27.4951 16.3333H28.4483C28.1543 15.341 27.7063 14.397 27.1195 13.5335C25.8806 11.7463 24.215 10.76 22.429 10.76C20.643 10.76 18.9774 11.7449 17.7385 13.5335C16.5377 15.2685 15.8764 17.5653 15.8764 20C15.8764 22.4347 16.5377 24.7329 17.7385 26.4665C18.9767 28.2566 20.643 29.24 22.429 29.24C24.215 29.24 25.8806 28.2551 27.1195 26.4665C27.7063 25.603 28.1543 24.659 28.4483 23.6667H27.4951ZM25.0569 16.3333H26.0101C25.7173 15.3461 25.2722 14.4067 24.6897 13.5467H23.5719C24.041 14.1302 24.4272 14.7715 24.7201 15.4533H23.2618C22.9968 14.7792 22.6551 14.1353 22.2431 13.5335C22.1402 13.3868 22.0336 13.2438 21.9246 13.1067H20.7383C21.5375 13.9214 22.1859 15.0324 22.6187 16.3333H25.0569ZM20.7383 26.8933H21.9246C22.0336 26.7562 22.1402 26.6154 22.2431 26.4665C22.83 25.603 23.278 24.659 23.5719 23.6667H22.6187C22.1882 24.9691 21.5375 26.0801 20.7383 26.8933Z" fill="white"/>
</svg>
