<svg width="92" height="32" viewBox="0 0 92 32" fill="none" xmlns="http://www.w3.org/2000/svg">
<path d="M45.096 9.64C46.1733 9.64 47.016 9.93867 47.624 10.536C48.2427 11.1333 48.552 11.9707 48.552 13.048C48.552 13.9013 48.344 14.6053 47.928 15.16C47.5227 15.704 46.9467 16.0613 46.2 16.232C46.488 16.392 46.7547 16.6907 47 17.128L48.776 20.568C48.9253 20.856 48.8507 21 48.552 21H47.848C47.5813 21 47.3947 20.9787 47.288 20.936C47.1813 20.8827 47.0907 20.7813 47.016 20.632L45.56 17.704C45.3253 17.224 45.0587 16.8933 44.76 16.712C44.472 16.5307 44.0347 16.44 43.448 16.44H41.736V20.584C41.736 20.7333 41.704 20.84 41.64 20.904C41.576 20.968 41.464 21 41.304 21H40.6C40.4507 21 40.344 20.968 40.28 20.904C40.216 20.84 40.184 20.7333 40.184 20.584V10.056C40.184 9.90667 40.216 9.8 40.28 9.736C40.344 9.672 40.4507 9.64 40.6 9.64H45.096ZM46.936 13.048C46.936 12.4187 46.76 11.9333 46.408 11.592C46.0667 11.2507 45.5813 11.08 44.952 11.08H41.736V15H44.952C45.5813 15 46.0667 14.8293 46.408 14.488C46.76 14.1467 46.936 13.6667 46.936 13.048ZM49.9228 15.928C49.9228 14.84 50.2321 13.9973 50.8508 13.4C51.4694 12.8027 52.3654 12.504 53.5388 12.504C54.7228 12.504 55.6188 12.808 56.2268 13.416C56.8454 14.024 57.1548 14.824 57.1548 15.816V16.744C57.1548 17.1173 56.9574 17.304 56.5628 17.304H51.3468V18.072C51.3468 18.6907 51.5281 19.1653 51.8908 19.496C52.2641 19.8267 52.7974 19.992 53.4908 19.992C54.5361 19.992 55.2774 19.624 55.7148 18.888C55.8108 18.7493 55.9014 18.6693 55.9868 18.648C56.0828 18.6267 56.2001 18.6587 56.3388 18.744L56.7708 18.968C57.0481 19.1067 57.0961 19.3147 56.9148 19.592C56.2854 20.6907 55.1388 21.24 53.4748 21.24C52.2801 21.24 51.3894 20.9413 50.8028 20.344C50.2161 19.7467 49.9228 18.936 49.9228 17.912V15.928ZM55.7308 15.736C55.7308 15.096 55.5441 14.6 55.1708 14.248C54.7974 13.896 54.2534 13.72 53.5388 13.72C52.8241 13.72 52.2801 13.9013 51.9068 14.264C51.5334 14.616 51.3468 15.1067 51.3468 15.736V16.2H55.7308V15.736ZM68.6806 12.744C68.862 12.744 68.974 12.776 69.0166 12.84C69.0593 12.904 69.054 13.0213 69.0006 13.192L66.7286 20.696C66.6753 20.92 66.5046 21.032 66.2166 21.032H65.7846C65.5073 21.032 65.326 20.92 65.2406 20.696L63.8166 15.976C63.7633 15.784 63.7153 15.576 63.6726 15.352C63.63 15.1173 63.5926 14.9253 63.5606 14.776C63.5393 14.616 63.5233 14.52 63.5126 14.488H63.4486C63.438 14.5093 63.4166 14.6 63.3846 14.76C63.3633 14.92 63.3313 15.1173 63.2886 15.352C63.246 15.576 63.198 15.784 63.1446 15.976L61.7206 20.696C61.6566 20.92 61.4806 21.032 61.1926 21.032H60.7766C60.4886 21.032 60.3126 20.92 60.2486 20.696L58.0086 13.192C57.9446 13.0213 57.934 12.904 57.9766 12.84C58.0193 12.776 58.1366 12.744 58.3286 12.744H58.8086C59.0433 12.744 59.2033 12.7707 59.2886 12.824C59.3846 12.8667 59.4486 12.968 59.4806 13.128L60.6806 17.464C60.7446 17.7093 60.8086 18.0613 60.8726 18.52C60.9473 18.9787 60.99 19.224 61.0006 19.256H61.0646C61.0753 19.2133 61.118 18.968 61.1926 18.52C61.278 18.0613 61.358 17.704 61.4326 17.448L62.7446 13.256C62.798 13.0853 62.862 12.9787 62.9366 12.936C63.0113 12.8827 63.1606 12.856 63.3846 12.856H63.6726C63.886 12.856 64.03 12.8827 64.1046 12.936C64.1793 12.9787 64.2433 13.08 64.2966 13.24L65.6246 17.416C65.71 17.704 65.79 18.0827 65.8646 18.552C65.95 19.0107 65.9926 19.2453 65.9926 19.256H66.0726C66.0833 19.2347 66.1153 19.0053 66.1686 18.568C66.2326 18.12 66.302 17.7413 66.3766 17.432L67.5766 13.128C67.6193 12.968 67.6833 12.8667 67.7686 12.824C67.8646 12.7707 68.03 12.744 68.2646 12.744H68.6806ZM70.0664 14.184C70.6424 13.064 71.725 12.504 73.3144 12.504C74.5197 12.504 75.373 12.792 75.8744 13.368C76.3757 13.944 76.6264 14.7333 76.6264 15.736V19.912C76.6264 20.1893 76.5837 20.3867 76.4984 20.504C76.4237 20.6213 76.2744 20.728 76.0504 20.824C75.4104 21.1013 74.493 21.24 73.2984 21.24C71.965 21.24 71.0477 21.0373 70.5464 20.632C70.045 20.216 69.7944 19.5707 69.7944 18.696C69.7944 17.768 70.0664 17.1173 70.6104 16.744C71.1544 16.3707 72.0717 16.184 73.3624 16.184C73.9384 16.184 74.5464 16.2213 75.1864 16.296V15.688C75.1864 15.0693 75.0424 14.6 74.7544 14.28C74.477 13.9493 73.9864 13.784 73.2824 13.784C72.3544 13.784 71.693 14.1093 71.2984 14.76C71.2024 14.888 71.1277 14.968 71.0744 15C71.021 15.0213 70.9197 15.0053 70.7704 14.952L70.2744 14.728C70.0077 14.6213 69.9384 14.44 70.0664 14.184ZM75.1864 17.48C74.333 17.3947 73.6717 17.352 73.2024 17.352C72.4664 17.352 71.9544 17.4587 71.6664 17.672C71.3784 17.8853 71.2344 18.2267 71.2344 18.696C71.2344 19.1547 71.3677 19.496 71.6344 19.72C71.9117 19.9333 72.4237 20.04 73.1704 20.04C73.981 20.04 74.573 19.976 74.9464 19.848C75.1064 19.784 75.1864 19.6667 75.1864 19.496V17.48ZM81.9964 12.504H82.5084C82.6577 12.504 82.759 12.536 82.8124 12.6C82.8657 12.6533 82.8924 12.7493 82.8924 12.888V13.432C82.8924 13.5707 82.8657 13.672 82.8124 13.736C82.759 13.7893 82.6577 13.816 82.5084 13.816H81.9484C81.3084 13.816 80.695 13.9067 80.1084 14.088C79.959 14.1413 79.8844 14.248 79.8844 14.408V20.616C79.8844 20.7653 79.8577 20.8667 79.8044 20.92C79.751 20.9733 79.6497 21 79.5004 21H78.8284C78.6897 21 78.5937 20.9733 78.5404 20.92C78.487 20.856 78.4604 20.7547 78.4604 20.616V13.896C78.4604 13.64 78.4977 13.4533 78.5724 13.336C78.6577 13.2187 78.823 13.1067 79.0684 13C79.8684 12.6907 80.8444 12.5253 81.9964 12.504ZM83.5016 15.768C83.5016 14.712 83.7736 13.9067 84.3176 13.352C84.8616 12.7867 85.6723 12.504 86.7496 12.504C87.3683 12.504 88.115 12.6213 88.9896 12.856V9.544C88.9896 9.39467 89.0163 9.29333 89.0696 9.24C89.1336 9.18667 89.235 9.16 89.3736 9.16H90.0456C90.1843 9.16 90.2803 9.192 90.3336 9.256C90.387 9.30933 90.4136 9.40533 90.4136 9.544V19.864C90.4136 20.1307 90.371 20.3173 90.2856 20.424C90.211 20.5307 90.0456 20.6373 89.7896 20.744C88.9256 21.0747 87.971 21.24 86.9256 21.24C84.643 21.24 83.5016 20.168 83.5016 18.024V15.768ZM88.9896 14.168C88.2216 13.9333 87.5656 13.816 87.0216 13.816C85.635 13.816 84.9416 14.4827 84.9416 15.816V17.976C84.9416 19.2773 85.6456 19.928 87.0536 19.928C87.7043 19.928 88.275 19.8427 88.7656 19.672C88.915 19.6187 88.9896 19.5173 88.9896 19.368V14.168Z" fill="black"/>
<circle cx="16" cy="16" r="16" fill="#1A53F0"/>
<path d="M25.996 16.7632C25.9721 16.2093 25.4302 15.7669 24.3821 15.4482C23.5692 15.2051 22.5372 15.0576 21.4214 15.0337V10.7819C21.4174 10.7102 21.3975 10.6424 21.3616 10.5826C21.2501 10.1005 20.7121 9.70996 19.7597 9.42305C18.8631 9.15208 17.6916 9.00464 16.4603 9.00464C15.2329 9.00464 14.0733 9.15208 13.1927 9.42305C12.4714 9.6462 11.6067 10.0606 11.6067 10.7739C11.6067 10.8177 11.6107 10.8616 11.6186 10.9054L11.6625 12.7225C9.07233 12.2284 6.57382 13.9299 6.08368 16.5161C6.02789 16.811 6 17.1059 6 17.4047C6 20.0347 8.13987 22.1746 10.7699 22.1746C11.8657 22.1746 12.9257 21.8 13.7745 21.1067C14.5196 21.282 15.3963 21.3776 16.3248 21.3856C16.528 22.4894 18.9189 22.9955 21.1464 22.9955C22.3738 22.9955 23.5334 22.844 24.414 22.5691C25.1353 22.3459 26 21.9275 26 21.2142V16.8389C26 16.815 26 16.7871 25.996 16.7632ZM20.5886 12.9855C20.5886 13.0373 20.3973 13.3123 19.5326 13.5753C18.7237 13.8183 17.6039 13.9618 16.4642 13.9618C15.48 13.9618 14.5156 13.8582 13.7505 13.6629C13.7386 13.659 13.7306 13.659 13.7187 13.655C13.3401 13.3561 12.9217 13.117 12.4714 12.9496L12.4435 11.8259C12.7185 11.9654 13.0054 12.077 13.3042 12.1567C14.169 12.4077 15.2887 12.5432 16.4642 12.5432C17.6916 12.5432 18.8671 12.3958 19.7637 12.1248C20.0626 12.0371 20.3535 11.9216 20.6284 11.7781V12.8221C20.5846 12.8779 20.5886 12.9297 20.5886 12.9855ZM13.4318 10.1921C14.2367 9.94506 15.3126 9.80559 16.4603 9.80559C17.5999 9.80559 18.7197 9.94506 19.5286 10.1921C20.3933 10.4551 20.5846 10.7261 20.5846 10.7779C20.5846 10.8337 20.3893 11.1086 19.5246 11.3677C18.7157 11.6107 17.5999 11.7502 16.4603 11.7502C15.3604 11.7502 14.3164 11.6227 13.5234 11.3916C12.6667 11.1445 12.4276 10.8735 12.4077 10.7859C12.4077 10.7779 12.4037 10.7779 12.4037 10.7779C12.4077 10.7022 12.591 10.4472 13.4318 10.1921ZM13.4437 20.3455C11.8219 21.8199 9.30743 21.7044 7.83303 20.0825C6.35864 18.4607 6.4742 15.9463 8.09604 14.4719C8.82526 13.8064 9.78163 13.4398 10.7699 13.4398C11.1684 13.4398 11.5629 13.4996 11.9454 13.6151C13.3282 14.0455 14.3682 15.1931 14.6631 16.6077C14.7149 16.8707 14.7428 17.1417 14.7428 17.4087C14.7468 18.5284 14.2726 19.5924 13.4437 20.3455ZM14.4559 20.4332C14.7786 20.0387 15.0377 19.5964 15.221 19.1222C15.5597 19.1501 15.9103 19.17 16.2769 19.174V19.2457L16.3009 20.5966C15.6832 20.5886 15.0656 20.5328 14.4559 20.4332ZM15.5198 16.9345C15.7509 16.9504 15.994 16.9584 16.2411 16.9624L16.265 18.373C15.9861 18.3691 15.7111 18.3571 15.4481 18.3372C15.5079 18.0303 15.5398 17.7155 15.5398 17.4047C15.5398 17.2493 15.5318 17.0939 15.5198 16.9345ZM16.5001 16.1694C16.4881 16.1694 16.4722 16.1694 16.4603 16.1694C16.0777 16.1694 15.7071 16.1535 15.3644 16.1296C15.213 15.5956 14.9739 15.0935 14.6511 14.6472C15.2489 14.7229 15.8506 14.7628 16.4563 14.7628C17.6876 14.7628 18.8631 14.6153 19.7597 14.3443C20.0586 14.2567 20.3455 14.1411 20.6204 14.0016V15.0457C18.9109 15.0935 17.1536 15.4521 16.5001 16.1694ZM17.0261 16.803C17.0261 16.799 17.0261 16.795 17.0301 16.7871C17.066 16.6795 17.3489 16.4165 18.1737 16.1854C18.9468 15.9662 19.955 15.8466 21.0149 15.8466H21.0827C22.2224 15.8466 23.3381 15.9781 24.151 16.2252C24.9998 16.4802 25.199 16.7432 25.203 16.803V16.807C25.199 16.8668 24.9998 17.1417 24.1152 17.4047C23.2983 17.6478 22.2224 17.7793 21.0867 17.7793C19.9869 17.7793 18.9428 17.6518 18.1498 17.4246C17.2931 17.1776 17.058 16.9026 17.0341 16.8189C17.0261 16.803 17.0261 16.803 17.0261 16.803ZM24.1829 21.812C23.378 22.063 22.2981 22.2025 21.1504 22.2025C19.9988 22.2025 18.9229 22.067 18.1259 21.8239C17.2851 21.5649 17.1098 21.2979 17.1098 21.2381C17.1098 21.2342 17.1098 21.2342 17.1098 21.2302L17.0899 20.0746C17.4086 20.23 17.7394 20.3495 18.0821 20.4372C18.9189 20.6564 19.9829 20.7799 21.0747 20.7799C22.306 20.7799 23.4736 20.6325 24.3662 20.3615C24.6571 20.2738 24.936 20.1583 25.203 20.0228V21.2182H25.207C25.207 21.274 25.0237 21.549 24.1829 21.812ZM25.211 18.8791H25.207C25.207 18.919 25.1831 18.9668 25.1831 19.0106C25.1831 19.0664 24.9958 19.3374 24.1351 19.6004C23.3182 19.8474 22.2303 19.9829 21.0787 19.9829C18.8711 19.9829 17.3847 19.4848 17.0739 19.0983L17.0699 18.7636L17.054 17.847C17.3329 17.9865 17.6238 18.0981 17.9227 18.1818C18.7874 18.4328 19.9072 18.5683 21.0827 18.5683C22.2941 18.5683 23.4497 18.4248 24.3383 18.1618C24.6412 18.0782 24.9321 17.9626 25.211 17.8191V18.8791Z" fill="white"/>
</svg>
