<svg width="18" height="21" viewBox="0 0 18 21" fill="none" xmlns="http://www.w3.org/2000/svg">
<path d="M17.3397 14.8705L11.7589 20.7384C11.4273 21.0875 10.8904 21.0866 10.5588 20.7393C10.2271 20.392 10.2271 19.8282 10.5579 19.4792L14.702 15.1226H6.20522C3.02129 15.1226 0.423408 12.4028 0.412354 9.05699V0.890577C0.412354 0.398098 0.791459 3.8147e-05 1.26049 3.8147e-05C1.72951 3.8147e-05 2.10862 0.398098 2.10862 0.890577V9.05428C2.11624 11.4187 3.95418 13.3414 6.20518 13.3414H14.685L10.5571 9.00174C10.2263 8.65265 10.2263 8.08979 10.5579 7.74161C10.7233 7.56885 10.9404 7.48157 11.1576 7.48157C11.3747 7.48157 11.5927 7.56885 11.758 7.74251L17.3389 13.6113C17.6705 13.9595 17.6705 14.5232 17.3397 14.8705Z" fill="#6B93C0"/>
</svg>
