<svg viewBox="0 0 32 32" fill="none" xmlns="http://www.w3.org/2000/svg">
<circle cx="16" cy="16" r="16" fill="#0A2778"/>
<path d="M20.5938 10H11.4062C10.6308 10 10 10.6308 10 11.4062V13.2812H10.9375V11.4062C10.9375 11.1478 11.1478 10.9375 11.4062 10.9375H20.5938C20.8522 10.9375 21.0625 11.1478 21.0625 11.4062V20.5938C21.0625 20.8522 20.8522 21.0625 20.5938 21.0625H11.4062C11.1478 21.0625 10.9375 20.8522 10.9375 20.5938V18.7188H10V20.5938C10 21.3692 10.6308 22 11.4062 22H20.5938C21.3692 22 22 21.3692 22 20.5938V11.4062C22 10.6308 21.3692 10 20.5938 10Z" fill="white"/>
<path d="M15.625 13.0872L14.9621 13.7501L16.7433 15.5313H10V16.4688H16.7433L14.9621 18.2501L15.625 18.913L18.5379 16.0001L15.625 13.0872Z" fill="white"/>
</svg>
