<svg viewBox="0 0 32 32" fill="none" xmlns="http://www.w3.org/2000/svg">
<circle cx="16" cy="16" r="16" fill="#EC1EF9"/>
<path d="M12.1619 15.4063C12.2669 15.4194 12.3675 15.4238 12.4725 15.4238C13.12 15.4238 13.7413 15.205 14.2488 14.7938C14.8394 14.3169 15.2113 13.6388 15.2944 12.8819C15.3775 12.125 15.1588 11.3857 14.6819 10.795C13.6975 9.57441 11.9038 9.38191 10.6831 10.3663C10.0925 10.8432 9.72065 11.5213 9.63752 12.2782C9.5544 13.035 9.77315 13.7744 10.25 14.365C10.7313 14.9557 11.4094 15.3275 12.1619 15.4063ZM10.9456 12.4182C10.9894 12.0113 11.1906 11.6482 11.5056 11.39C11.7813 11.1669 12.1138 11.0532 12.4638 11.0532C12.5206 11.0532 12.5731 11.0575 12.63 11.0619C13.0369 11.1057 13.4 11.3069 13.6581 11.6263C13.9163 11.9457 14.03 12.3438 13.9863 12.7507C13.9425 13.1575 13.7413 13.5207 13.4263 13.7788C13.1113 14.0369 12.7088 14.1507 12.3019 14.1069C11.895 14.0632 11.5319 13.8619 11.2738 13.5425C11.02 13.2232 10.9019 12.825 10.9456 12.4182Z" fill="white"/>
<path d="M20.995 18.635C20.0106 17.4144 18.2168 17.2219 16.9962 18.2063C16.4056 18.6831 16.0337 19.3613 15.9506 20.1181C15.8675 20.875 16.0862 21.6144 16.5631 22.205C17.04 22.7956 17.7181 23.1675 18.475 23.2506C18.58 23.2638 18.6806 23.2681 18.7856 23.2681C19.4331 23.2681 20.0543 23.0494 20.5618 22.6381C21.7825 21.6494 21.9793 19.8556 20.995 18.635ZM19.7393 21.61C19.42 21.8681 19.0218 21.9819 18.615 21.9381C18.2081 21.8944 17.845 21.6931 17.5868 21.3738C17.3287 21.0544 17.215 20.6563 17.2587 20.2494C17.3025 19.8425 17.5037 19.4794 17.8187 19.2213C18.1031 18.9938 18.44 18.8844 18.7768 18.8844C19.2231 18.8844 19.6693 19.0813 19.9712 19.4531C20.5006 20.1138 20.3956 21.0806 19.7393 21.61Z" fill="white"/>
<path d="M21.4499 11.5256C21.2224 11.2412 20.8112 11.1975 20.5268 11.425L9.62432 20.21C9.33995 20.4375 9.2962 20.8487 9.5237 21.1331C9.65495 21.295 9.84307 21.3781 10.0356 21.3781C10.1799 21.3781 10.3243 21.33 10.4468 21.2337L21.3493 12.4531C21.6337 12.2212 21.6774 11.81 21.4499 11.5256Z" fill="white"/>
</svg>
