<svg width="32" height="32" viewBox="0 0 32 32" fill="none" xmlns="http://www.w3.org/2000/svg">
<circle cx="16" cy="16" r="16" fill="#A5A6F6"/>
<path d="M9.53346 16.3169H14.2001C14.9292 16.3169 15.5236 15.7225 15.5236 14.9934V10.3235C15.5236 9.59442 14.9292 9 14.2001 9H9.53346C8.80439 9 8.20997 9.59442 8.20997 10.3235V14.9901C8.20669 15.7225 8.80111 16.3169 9.53346 16.3169ZM9.01129 10.3235C9.01129 10.0378 9.24446 9.8046 9.53017 9.8046H14.1968C14.4826 9.8046 14.7157 10.0378 14.7157 10.3235V14.9901C14.7157 15.2759 14.4826 15.509 14.1968 15.509H9.53346C9.24774 15.509 9.01457 15.2759 9.01457 14.9901V10.3235H9.01129Z" fill="white"/>
<path d="M23.6747 12.3728L21.077 9.77509C20.9193 9.61745 20.6665 9.61745 20.5088 9.77509C20.3512 9.93272 20.3512 10.1856 20.5088 10.3432L22.4202 12.2546H16.811C16.5877 12.2546 16.407 12.4352 16.407 12.6585C16.407 12.8818 16.5877 13.0624 16.811 13.0624H22.4202L20.5088 14.9738C20.3512 15.1314 20.3512 15.3843 20.5088 15.5419C20.5877 15.6207 20.6895 15.6601 20.7945 15.6601C20.8996 15.6601 21.0014 15.6207 21.0803 15.5419L23.678 12.9442C23.8323 12.7833 23.8323 12.5304 23.6747 12.3728Z" fill="white"/>
<path d="M23.7929 23.6765V19.0099C23.7929 18.2808 23.1985 17.6864 22.4694 17.6864H17.7995C17.0704 17.6864 16.476 18.2808 16.476 19.0099V23.6765C16.476 24.4056 17.0704 25 17.7995 25H22.4661C23.1985 25 23.7929 24.4056 23.7929 23.6765ZM22.9883 23.6765C22.9883 23.9623 22.7551 24.1954 22.4694 24.1954H17.7995C17.5138 24.1954 17.2806 23.9623 17.2806 23.6765V19.0099C17.2806 18.7242 17.5138 18.491 17.7995 18.491H22.4661C22.7519 18.491 22.985 18.7242 22.985 19.0099V23.6765H22.9883Z" fill="white"/>
<path d="M11.2051 24.3431C11.3069 24.3431 11.412 24.3037 11.4908 24.2249C11.6484 24.0673 11.6484 23.8144 11.4908 23.6568L9.57944 21.7454H15.1886C15.412 21.7454 15.5926 21.5648 15.5926 21.3415C15.5926 21.1182 15.412 20.9375 15.1886 20.9375H9.57944L11.4908 19.0262C11.6484 18.8686 11.6484 18.6157 11.4908 18.4581C11.3331 18.3004 11.0803 18.3004 10.9226 18.4581L8.32492 21.0558C8.16729 21.2134 8.16729 21.4663 8.32492 21.6239L10.9226 24.2216C11.0014 24.3037 11.1032 24.3431 11.2051 24.3431Z" fill="white"/>
</svg>
