<svg width="32" height="32" viewBox="0 0 32 32" fill="none" xmlns="http://www.w3.org/2000/svg">
<path d="M32 16C32 7.16344 24.8366 0 16 0C7.16344 0 0 7.16344 0 16C0 24.8366 7.16344 32 16 32C24.8366 32 32 24.8366 32 16Z" fill="#D85830"/>
<path fill-rule="evenodd" clip-rule="evenodd" d="M12.5719 20.8577C12.5719 20.7061 12.6321 20.5608 12.7393 20.4536C12.8465 20.3465 12.9918 20.2863 13.1433 20.2863H23.4286C23.5801 20.2863 23.7255 20.3465 23.8327 20.4536C23.9398 20.5608 24 20.7061 24 20.8577C24 21.0092 23.9398 21.1545 23.8327 21.2617C23.7255 21.3689 23.5801 21.4291 23.4286 21.4291H13.1433C12.9918 21.4291 12.8465 21.3689 12.7393 21.2617C12.6321 21.1545 12.5719 21.0092 12.5719 20.8577ZM12.5719 16.2865C12.5719 16.1349 12.6321 15.9896 12.7393 15.8824C12.8465 15.7753 12.9918 15.7151 13.1433 15.7151H23.4286C23.5801 15.7151 23.7255 15.7753 23.8327 15.8824C23.9398 15.9896 24 16.1349 24 16.2865C24 16.438 23.9398 16.5833 23.8327 16.6905C23.7255 16.7977 23.5801 16.8579 23.4286 16.8579H13.1433C12.9918 16.8579 12.8465 16.7977 12.7393 16.6905C12.6321 16.5833 12.5719 16.438 12.5719 16.2865ZM12.5719 11.7152C12.5719 11.5637 12.6321 11.4183 12.7393 11.3112C12.8465 11.204 12.9918 11.1438 13.1433 11.1438H23.4286C23.5801 11.1438 23.7255 11.204 23.8327 11.3112C23.9398 11.4183 24 11.5637 24 11.7152C24 11.8668 23.9398 12.0121 23.8327 12.1193C23.7255 12.2264 23.5801 12.2866 23.4286 12.2866H13.1433C12.9918 12.2866 12.8465 12.2264 12.7393 12.1193C12.6321 12.0121 12.5719 11.8668 12.5719 11.7152ZM11.2623 10.1679C11.3155 10.2209 11.3577 10.284 11.3865 10.3534C11.4153 10.4229 11.4301 10.4973 11.4301 10.5724C11.4301 10.6476 11.4153 10.722 11.3865 10.7914C11.3577 10.8609 11.3155 10.9239 11.2623 10.977L9.54807 12.6912C9.495 12.7444 9.43193 12.7866 9.36253 12.8154C9.29313 12.8442 9.21867 12.8591 9.14353 12.8591C9.0684 12.8591 8.99393 12.8442 8.92453 12.8154C8.85513 12.7866 8.79207 12.7444 8.739 12.6912L8.1676 12.1198C8.11447 12.0667 8.07233 12.0036 8.04353 11.9342C8.0148 11.8647 8 11.7903 8 11.7152C8 11.6401 8.0148 11.5657 8.04353 11.4963C8.07233 11.4269 8.11447 11.3638 8.1676 11.3107C8.22067 11.2575 8.2838 11.2154 8.3532 11.1867C8.4226 11.1579 8.497 11.1431 8.57213 11.1431C8.64727 11.1431 8.72167 11.1579 8.79107 11.1867C8.86047 11.2154 8.92353 11.2575 8.97667 11.3107L9.14353 11.4787L10.4532 10.1679C10.5063 10.1147 10.5693 10.0725 10.6387 10.0437C10.7081 10.0148 10.7826 10 10.8577 10C10.9329 10 11.0073 10.0148 11.0767 10.0437C11.1461 10.0725 11.2092 10.1147 11.2623 10.1679ZM11.2623 14.7391C11.3155 14.7922 11.3577 14.8552 11.3865 14.9247C11.4153 14.9941 11.4301 15.0685 11.4301 15.1437C11.4301 15.2188 11.4153 15.2932 11.3865 15.3627C11.3577 15.4321 11.3155 15.4951 11.2623 15.5482L9.54807 17.2624C9.495 17.3156 9.43193 17.3579 9.36253 17.3867C9.29313 17.4155 9.21867 17.4303 9.14353 17.4303C9.0684 17.4303 8.99393 17.4155 8.92453 17.3867C8.85513 17.3579 8.79207 17.3156 8.739 17.2624L8.1676 16.691C8.06027 16.5837 8 16.4382 8 16.2865C8 16.1347 8.06027 15.9892 8.1676 15.8819C8.27487 15.7746 8.4204 15.7143 8.57213 15.7143C8.72387 15.7143 8.8694 15.7746 8.97667 15.8819L9.14353 16.0499L10.4532 14.7391C10.5063 14.6859 10.5693 14.6437 10.6387 14.6149C10.7081 14.5861 10.7826 14.5712 10.8577 14.5712C10.9329 14.5712 11.0073 14.5861 11.0767 14.6149C11.1461 14.6437 11.2092 14.6859 11.2623 14.7391ZM11.2623 19.3103C11.3155 19.3634 11.3577 19.4265 11.3865 19.4959C11.4153 19.5653 11.4301 19.6397 11.4301 19.7149C11.4301 19.79 11.4153 19.8645 11.3865 19.9339C11.3577 20.0033 11.3155 20.0663 11.2623 20.1194L9.54807 21.8336C9.495 21.8869 9.43193 21.9291 9.36253 21.9579C9.29313 21.9867 9.21867 22.0015 9.14353 22.0015C9.0684 22.0015 8.99393 21.9867 8.92453 21.9579C8.85513 21.9291 8.79207 21.8869 8.739 21.8336L8.1676 21.2622C8.06027 21.1549 8 21.0094 8 20.8577C8 20.7059 8.06027 20.5604 8.1676 20.4531C8.27487 20.3458 8.4204 20.2855 8.57213 20.2855C8.72387 20.2855 8.8694 20.3458 8.97667 20.4531L9.14353 20.6211L10.4532 19.3103C10.5063 19.2571 10.5693 19.2149 10.6387 19.1861C10.7081 19.1573 10.7826 19.1425 10.8577 19.1425C10.9329 19.1425 11.0073 19.1573 11.0767 19.1861C11.1461 19.2149 11.2092 19.2571 11.2623 19.3103Z" fill="white"/>
</svg>
