<svg viewBox="0 0 32 32" fill="none" xmlns="http://www.w3.org/2000/svg">
<circle cx="16" cy="16" r="16" fill="#0FB774"/>
<g >
<path d="M21.2759 9.71071L11.8338 19.2374L11.8275 16.1027C11.8267 15.7529 11.5426 15.4699 11.1928 15.4707C10.843 15.4714 10.56 15.7556 10.5607 16.1054L10.5703 20.7742C10.5702 20.7745 10.5703 20.7748 10.5703 20.7751C10.5715 21.1244 10.8567 21.4082 11.2071 21.4063C11.2074 21.4063 11.2076 21.4063 11.2079 21.4063L15.8767 21.3742C16.2264 21.3718 16.5081 21.0863 16.5057 20.7365C16.5033 20.3867 16.2178 20.1051 15.8681 20.1075L12.7335 20.129L22.1755 10.6024C22.4218 10.3539 22.42 9.95295 22.1715 9.70671C21.9231 9.46047 21.5221 9.46226 21.2759 9.71071Z" fill="white"/>
</g>
<defs>
</defs>
</svg>
