<svg viewBox="0 0 32 32" fill="none" xmlns="http://www.w3.org/2000/svg">
<circle cx="16" cy="16" r="16" fill="#6B93C0"/>
<path d="M26 20.8472V14.0417C26 13.4673 25.5327 13 24.9584 13H23.5695V13.6944H24.9584C25.1498 13.6944 25.3056 13.8502 25.3056 14.0417V20.8472C25.3056 21.0387 25.1498 21.1944 24.9584 21.1944H18.1528C17.9614 21.1944 17.8056 21.0387 17.8056 20.8472V14.0417C17.8056 13.8502 17.9614 13.6944 18.1528 13.6944H19.5417V13H18.1528C17.5784 13 17.1111 13.4673 17.1111 14.0417V20.8472C17.1111 21.4216 17.5784 21.8889 18.1528 21.8889H24.9584C25.5327 21.8889 26 21.4216 26 20.8472Z" fill="white"/>
<path d="M14.8889 20.8472V14.0417C14.8889 13.4673 14.4216 13 13.8472 13H12.4583V13.6944H13.8472C14.0387 13.6944 14.1944 13.8502 14.1944 14.0417V20.8472C14.1944 21.0387 14.0387 21.1944 13.8472 21.1944H7.04166C6.85021 21.1944 6.69444 21.0387 6.69444 20.8472V14.0417C6.69444 13.8502 6.85021 13.6944 7.04166 13.6944H8.43055V13H7.04166C6.46729 13 6 13.4673 6 14.0417V20.8472C6 21.4216 6.46729 21.8889 7.04166 21.8889H13.8472C14.4216 21.8889 14.8889 21.4216 14.8889 20.8472Z" fill="white"/>
<path d="M23.83 15.6635L23.2804 15.1139L21.8036 16.5907V11H21.0264V16.5907L19.5496 15.1139L19 15.6635L21.415 18.0785L23.83 15.6635Z" fill="white"/>
<line x1="21.4" y1="11" x2="21.4" y2="17" stroke="white" stroke-width="0.8" stroke-linejoin="round"/>
<line x1="21" y1="11.4" x2="10" y2="11.4" stroke="white" stroke-width="0.8" stroke-linejoin="round"/>
<line x1="10.4" y1="11" x2="10.4" y2="16" stroke="white" stroke-width="0.8" stroke-linejoin="round"/>
</svg>
