<svg viewBox="0 0 32 32" fill="none" xmlns="http://www.w3.org/2000/svg">
<circle cx="16" cy="16" r="16" fill="#1A53F0"/>
<path d="M24.9964 16.6868C24.9749 16.1883 24.4872 15.7902 23.5439 15.5033C22.8123 15.2845 21.8834 15.1518 20.8793 15.1303V11.3036C20.8757 11.2391 20.8577 11.1781 20.8255 11.1243C20.725 10.6904 20.2409 10.3389 19.3837 10.0807C18.5768 9.8368 17.5224 9.7041 16.4142 9.7041C15.3096 9.7041 14.266 9.8368 13.4734 10.0807C12.8243 10.2815 12.046 10.6545 12.046 11.2965C12.046 11.3359 12.0496 11.3754 12.0568 11.4148L12.0962 13.0502C9.76509 12.6055 7.51644 14.1369 7.07531 16.4644C7.0251 16.7298 7 16.9952 7 17.2642C7 19.6312 8.92588 21.5571 11.2929 21.5571C12.2791 21.5571 13.2331 21.2199 13.997 20.5959C14.6677 20.7537 15.4567 20.8398 16.2923 20.847C16.4752 21.8404 18.627 22.2959 20.6318 22.2959C21.7364 22.2959 22.78 22.1596 23.5726 21.9121C24.2218 21.7113 25 21.3347 25 20.6927V16.7549C25 16.7334 25 16.7083 24.9964 16.6868ZM20.1297 13.2869C20.1297 13.3335 19.9576 13.581 19.1793 13.8177C18.4513 14.0364 17.4435 14.1655 16.4178 14.1655C15.532 14.1655 14.6641 14.0723 13.9755 13.8966C13.9647 13.893 13.9576 13.893 13.9468 13.8894C13.6061 13.6204 13.2295 13.4052 12.8243 13.2546L12.7992 12.2433C13.0466 12.3688 13.3048 12.4692 13.5738 12.5409C14.3521 12.7669 15.3598 12.8888 16.4178 12.8888C17.5224 12.8888 18.5804 12.7561 19.3873 12.5122C19.6563 12.4333 19.9181 12.3293 20.1656 12.2002V13.1398C20.1261 13.1901 20.1297 13.2367 20.1297 13.2869ZM13.6886 10.7728C14.413 10.5505 15.3814 10.425 16.4142 10.425C17.4399 10.425 18.4477 10.5505 19.1757 10.7728C19.954 11.0095 20.1261 11.2534 20.1261 11.3C20.1261 11.3502 19.9504 11.5977 19.1721 11.8308C18.4441 12.0496 17.4399 12.1751 16.4142 12.1751C15.4244 12.1751 14.4848 12.0603 13.7711 11.8523C13 11.63 12.7848 11.3861 12.7669 11.3072C12.7669 11.3 12.7633 11.3 12.7633 11.3C12.7669 11.2319 12.9319 11.0024 13.6886 10.7728ZM13.6993 19.9109C12.2397 21.2379 9.97669 21.1339 8.64973 19.6742C7.32277 18.2146 7.42678 15.9516 8.88643 14.6246C9.54274 14.0257 10.4035 13.6957 11.2929 13.6957C11.6515 13.6957 12.0066 13.7495 12.3509 13.8535C13.5953 14.2409 14.5314 15.2737 14.7968 16.5469C14.8434 16.7836 14.8685 17.0275 14.8685 17.2678C14.8721 18.2755 14.4453 19.2331 13.6993 19.9109ZM14.6103 19.9898C14.9008 19.6348 15.1339 19.2367 15.2989 18.8099C15.6037 18.835 15.9193 18.8529 16.2493 18.8565V18.9211L16.2708 20.1369C15.7149 20.1297 15.159 20.0795 14.6103 19.9898ZM15.5678 16.841C15.7759 16.8553 15.9946 16.8625 16.217 16.8661L16.2385 18.1357C15.9874 18.1321 15.74 18.1213 15.5033 18.1034C15.5571 17.8272 15.5858 17.5439 15.5858 17.2642C15.5858 17.1243 15.5786 16.9844 15.5678 16.841ZM16.4501 16.1524C16.4393 16.1524 16.425 16.1524 16.4142 16.1524C16.0699 16.1524 15.7364 16.1381 15.428 16.1165C15.2917 15.636 15.0765 15.1841 14.786 14.7824C15.324 14.8505 15.8655 14.8864 16.4106 14.8864C17.5188 14.8864 18.5768 14.7537 19.3837 14.5098C19.6527 14.4309 19.9109 14.3269 20.1584 14.2014V15.141C18.6198 15.1841 17.0383 15.5069 16.4501 16.1524ZM16.9235 16.7226C16.9235 16.719 16.9235 16.7155 16.9271 16.7083C16.9594 16.6115 17.214 16.3748 17.9564 16.1667C18.6521 15.9695 19.5595 15.8619 20.5134 15.8619H20.5744C21.6001 15.8619 22.6043 15.9803 23.3359 16.2026C24.0998 16.4321 24.2791 16.6688 24.2827 16.7226V16.7262C24.2791 16.78 24.0998 17.0275 23.3036 17.2642C22.5684 17.4829 21.6001 17.6013 20.578 17.6013C19.5882 17.6013 18.6485 17.4865 17.9348 17.2821C17.1638 17.0598 16.9522 16.8123 16.9307 16.737C16.9235 16.7226 16.9235 16.7226 16.9235 16.7226ZM23.3646 21.2307C22.6402 21.4566 21.6683 21.5822 20.6354 21.5822C19.5989 21.5822 18.6306 21.4602 17.9133 21.2415C17.1566 21.0083 16.9988 20.7681 16.9988 20.7143C16.9988 20.7107 16.9988 20.7107 16.9988 20.7071L16.9809 19.667C17.2678 19.8069 17.5655 19.9145 17.8739 19.9934C18.627 20.1907 19.5846 20.3018 20.5672 20.3018C21.6754 20.3018 22.7262 20.1691 23.5296 19.9253C23.7914 19.8464 24.0424 19.7424 24.2827 19.6204V20.6963H24.2863C24.2863 20.7465 24.1213 20.994 23.3646 21.2307ZM24.2899 18.5911H24.2863C24.2863 18.627 24.2648 18.67 24.2648 18.7095C24.2648 18.7597 24.0962 19.0036 23.3216 19.2403C22.5864 19.4626 21.6073 19.5846 20.5708 19.5846C18.584 19.5846 17.2463 19.1363 16.9665 18.7884L16.9629 18.4871L16.9486 17.6623C17.1996 17.7878 17.4614 17.8882 17.7304 17.9635C18.5087 18.1895 19.5164 18.3114 20.5744 18.3114C21.6647 18.3114 22.7047 18.1823 23.5045 17.9456C23.777 17.8703 24.0389 17.7663 24.2899 17.6372V18.5911Z" fill="white"/>
</svg>
