<svg viewBox="0 0 32 32" fill="none" xmlns="http://www.w3.org/2000/svg">
<circle cx="16" cy="16" r="16" fill="#8676FB"/>
<path d="M15.6369 22.5247C12.2393 22.5247 9.47527 19.7607 9.47527 16.3631C9.47527 15.9557 9.14502 15.6255 8.73764 15.6255C8.33028 15.6255 8 15.9557 8 16.3631C8 20.5741 11.4259 24 15.6369 24C19.8479 24 23.2738 20.5741 23.2738 16.3631C23.2738 12.6038 20.5428 9.47221 16.961 8.84337C16.8005 8.81515 16.6696 8.66592 16.6696 8.50297V7.16253C16.6696 6.99954 16.5673 6.95107 16.4411 7.05411L13.7213 9.27705C13.5951 9.38023 13.5951 9.54733 13.7213 9.6505L16.4411 11.8734C16.5673 11.9766 16.6696 11.928 16.6696 11.7651V10.5847C16.6696 10.4218 16.8001 10.311 16.9592 10.346C19.7232 10.953 21.7986 13.4195 21.7986 16.3631C21.7985 19.7607 19.0345 22.5247 15.6369 22.5247Z" fill="white"/>
</svg>
