<svg viewBox="0 0 32 32" fill="none" xmlns="http://www.w3.org/2000/svg">
<circle cx="16" cy="16" r="16" fill="#00A3FF"/>
<path d="M15.708 10.6298V17.2465L14.4628 16.0149C14.2803 15.8343 13.9848 15.8348 13.8029 16.016C13.621 16.1972 13.6215 16.4905 13.804 16.6711L15.8646 18.7092C16.0467 18.8894 16.3413 18.8894 16.5234 18.7092L18.5839 16.6711C18.7665 16.4905 18.767 16.1972 18.5851 16.016C18.4031 15.8348 18.1076 15.8343 17.9251 16.0149L16.6413 17.2847V10.6298C16.6413 10.374 16.4324 10.1666 16.1746 10.1666C15.9169 10.1666 15.708 10.374 15.708 10.6298Z" fill="white"/>
<path d="M9.93333 17.081C9.93333 16.8252 9.7244 16.6178 9.46667 16.6178C9.20893 16.6178 9 16.8252 9 17.081V20.7867C9 21.0426 9.20893 21.25 9.46667 21.25H22.5333C22.7911 21.25 23 21.0426 23 20.7867V17.081C23 16.8252 22.7911 16.6178 22.5333 16.6178C22.2756 16.6178 22.0667 16.8252 22.0667 17.081V20.3235H9.93333V17.081Z" fill="white"/>
</svg>
