<svg viewBox="0 0 32 32" fill="none" xmlns="http://www.w3.org/2000/svg">
<circle cx="16" cy="16" r="16" fill="#756AA8"/>
<g clip-path="url(#clip0)">
<path d="M16.3792 9.06526L9.8043 17.5757L9.49049 15.0821C9.45546 14.8038 9.20149 14.6066 8.92323 14.6417C8.64495 14.6767 8.44778 14.9307 8.4828 15.2089L8.95024 18.9231C8.95025 18.9233 8.95031 18.9236 8.95034 18.9238C8.98569 19.2016 9.24056 19.3993 9.51922 19.3633C9.51945 19.3633 9.51967 19.3633 9.51988 19.3633L13.2317 18.8779C13.5098 18.8415 13.7058 18.5866 13.6694 18.3085C13.6331 18.0304 13.3782 17.8344 13.1001 17.8708L10.608 18.1967L17.1829 9.68618C17.3544 9.46423 17.3134 9.14533 17.0915 8.97386C16.8695 8.80239 16.5506 8.84331 16.3792 9.06526Z" fill="white"/>
</g>
<g clip-path="url(#clip1)">
<path d="M15.3955 23.4494L21.9704 14.9389L22.2842 17.4326C22.3193 17.7108 22.5732 17.908 22.8515 17.873C23.1298 17.838 23.3269 17.584 23.2919 17.3057L22.8245 13.5915C22.8245 13.5913 22.8244 13.5911 22.8244 13.5909C22.789 13.313 22.5342 13.1153 22.2555 13.1513C22.2553 13.1514 22.2551 13.1514 22.2548 13.1514L18.543 13.6368C18.2649 13.6731 18.0689 13.928 18.1053 14.2062C18.1416 14.4843 18.3965 14.6802 18.6746 14.6439L21.1667 14.318L14.5918 22.8285C14.4204 23.0504 14.4613 23.3693 14.6832 23.5408C14.9052 23.7123 15.2241 23.6713 15.3955 23.4494Z" fill="white"/>
</g>
<defs>
<clipPath id="clip0">
<rect width="13" height="13" fill="white" transform="translate(4 15.2875) rotate(-52.3117)"/>
</clipPath>
<clipPath id="clip1">
<rect width="13" height="13" fill="white" transform="translate(27.7747 17.2272) rotate(127.688)"/>
</clipPath>
</defs>
</svg>
