<svg viewBox="0 0 32 32" fill="none" xmlns="http://www.w3.org/2000/svg">
<circle cx="16" cy="16" r="16" fill="#0F69B2"/>
<path d="M15.552 22.1702C15.0735 22.1702 14.615 22.591 14.6371 23.0851C14.6593 23.5808 15.0391 24 15.552 24C16.0306 24 16.489 23.5792 16.4669 23.0851C16.4447 22.5893 16.0649 22.1702 15.552 22.1702Z" fill="white"/>
<path d="M15.552 8C13.042 8 11 10.042 11 12.552C11 13.0572 11.4097 13.4669 11.9149 13.4669C12.4202 13.4669 12.8298 13.0572 12.8298 12.552C12.8298 11.051 14.051 9.82983 15.552 9.82983C17.0529 9.82983 18.2741 11.051 18.2741 12.552C18.2741 14.0529 17.0529 15.2741 15.552 15.2741C15.0467 15.2741 14.6371 15.6838 14.6371 16.189V19.9206C14.6371 20.4259 15.0467 20.8355 15.552 20.8355C16.0572 20.8355 16.4669 20.4259 16.4669 19.9205V17.0115C18.5398 16.5869 20.1039 14.7487 20.1039 12.552C20.1039 10.042 18.0619 8 15.552 8Z" fill="white"/>
</svg>
