<svg viewBox="0 0 32 32" fill="none" xmlns="http://www.w3.org/2000/svg">
<circle cx="16" cy="16" r="16" fill="#6A4BFF"/>
<path d="M15.3741 10.2088C15.5432 10.0416 15.8168 10.0416 15.9859 10.2088L17.8992 12.1014C18.0688 12.269 18.0692 12.5414 17.9003 12.7097C17.7314 12.8779 17.457 12.8784 17.2875 12.7107L16.1313 11.5671L16.1313 17.7111C16.1313 17.9486 15.9373 18.1412 15.698 18.1412C15.4586 18.1412 15.2646 17.9486 15.2646 17.7111L15.2646 11.5316L14.0725 12.7107C13.903 12.8784 13.6287 12.8779 13.4597 12.7097C13.2908 12.5414 13.2913 12.269 13.4608 12.1014L15.3741 10.2088Z" fill="white"/>
<path d="M9.86667 16.5039C9.86667 16.2664 9.67266 16.0738 9.43333 16.0738C9.19401 16.0738 9 16.2664 9 16.5039V19.9449C9 20.1825 9.19401 20.375 9.43333 20.375H21.5667C21.806 20.375 22 20.1825 22 19.9449V16.5039C22 16.2664 21.806 16.0738 21.5667 16.0738C21.3273 16.0738 21.1333 16.2664 21.1333 16.5039V19.5148H9.86667V16.5039Z" fill="white"/>
</svg>
