<svg viewBox="0 0 32 32" fill="none" xmlns="http://www.w3.org/2000/svg">
<circle cx="16" cy="16" r="16" fill="#F4BD13"/>
<g clip-path="url(#clip0)">
<path d="M23.2834 13.6358L20.4539 10.8102C20.3953 10.7516 20.3159 10.7187 20.2331 10.7187H19.5565L20.3608 9.91442C20.4829 9.79235 20.4829 9.59447 20.3608 9.47253L17.9798 7.09155C17.8578 6.96948 17.6599 6.96948 17.5378 7.09155L16.5492 8.08032L13.9073 10.722C13.8933 10.7201 13.8791 10.7187 13.8646 10.7187H11.7615C11.6785 10.7187 11.599 10.7517 11.5404 10.8104L8.71655 13.636V13.6361C8.66003 13.6926 8.625 13.7707 8.625 13.857V22.6874C8.625 22.8601 8.76489 22.9999 8.9375 22.9999H23.0626C23.2352 22.9999 23.3751 22.8601 23.3751 22.6874V19.5223C23.3751 19.3497 23.2352 19.2098 23.0626 19.2098C22.89 19.2098 22.7501 19.3497 22.7501 19.5223V22.3749H9.25V14.1695H22.7501V17.0222C22.7501 17.1948 22.89 17.3347 23.0626 17.3347C23.2352 17.3347 23.3751 17.1948 23.3751 17.0222V13.857C23.3751 13.7706 23.3399 13.6925 23.2834 13.6358ZM16.9911 8.52221L17.7589 7.75439L19.6978 9.69347L17.2597 12.1316H14.6865L14.034 11.4792L16.9911 8.52221ZM9.69152 13.5445L11.8909 11.3437H13.3108C13.2547 11.4601 13.2746 11.6037 13.3711 11.7002L13.8026 12.1316H12.8174C12.6448 12.1316 12.5049 12.2716 12.5049 12.4441C12.5049 12.6167 12.6448 12.7566 12.8174 12.7566H19.1826C19.3552 12.7566 19.4951 12.6167 19.4951 12.4441C19.4951 12.2716 19.3552 12.1316 19.1826 12.1316H18.1435L18.9315 11.3437H20.1037L22.3073 13.5445H9.69152Z" fill="white"/>
<path d="M13.2501 18.2722C13.2501 19.7886 14.4837 21.0223 16.0001 21.0223C17.5164 21.0223 18.7501 19.7886 18.7501 18.2722C18.7501 16.756 17.5164 15.5222 16.0001 15.5222C14.4837 15.5222 13.2501 16.7559 13.2501 18.2722ZM18.1251 18.2722C18.1251 19.444 17.1718 20.3973 16.0001 20.3973C14.8285 20.3973 13.8751 19.444 13.8751 18.2722C13.8751 17.1006 14.8285 16.1472 16.0001 16.1472C17.1718 16.1472 18.1251 17.1005 18.1251 18.2722Z" fill="white"/>
<path d="M15.2518 17.9071C15.1297 17.785 14.9319 17.785 14.8098 17.9071C14.6878 18.0292 14.6878 18.2271 14.8098 18.349L15.4955 19.0345C15.5565 19.0956 15.6364 19.1261 15.7164 19.1261C15.7964 19.1261 15.8763 19.0956 15.9373 19.0345L17.1902 17.7817C17.3122 17.6598 17.3122 17.4619 17.1902 17.3398C17.0681 17.2178 16.8702 17.2178 16.7483 17.3398L15.7164 18.3717L15.2518 17.9071Z" fill="white"/>
<path d="M23.0626 17.9596C22.9803 17.9596 22.8997 17.993 22.8416 18.0513C22.7835 18.1094 22.7501 18.1899 22.7501 18.2721C22.7501 18.3546 22.7835 18.4349 22.8416 18.4934C22.8997 18.5515 22.9803 18.5846 23.0626 18.5846C23.1447 18.5846 23.2253 18.5515 23.2835 18.4934C23.3416 18.4349 23.3751 18.3544 23.3751 18.2721C23.3751 18.1899 23.3416 18.1096 23.2835 18.0513C23.2253 17.993 23.1447 17.9596 23.0626 17.9596Z" fill="white"/>
</g>
<defs>
<clipPath id="clip0">
<rect width="16" height="16" fill="white" transform="translate(8 7)"/>
</clipPath>
</defs>
</svg>
