<svg width="40" height="40" viewBox="0 0 40 40" fill="none" xmlns="http://www.w3.org/2000/svg">
<circle cx="20" cy="20" r="20" fill="#F0F3FD"/>
<path d="M12.2857 17.4286V27.7143H27.7143V13.5714H25.1429V14.2143C25.1429 14.3848 25.0751 14.5483 24.9546 14.6689C24.834 14.7894 24.6705 14.8571 24.5 14.8571C24.3295 14.8571 24.166 14.7894 24.0454 14.6689C23.9249 14.5483 23.8571 14.3848 23.8571 14.2143V13.5714H16.1429V14.2143C16.1429 14.3848 16.0751 14.5483 15.9546 14.6689C15.834 14.7894 15.6705 14.8571 15.5 14.8571C15.3295 14.8571 15.166 14.7894 15.0454 14.6689C14.9249 14.5483 14.8571 14.3848 14.8571 14.2143V13.5714H12.2857V16.1429H27.7143V17.4286H12.2857ZM16.1429 12.2857H23.8571V11.6429C23.8571 11.4724 23.9249 11.3088 24.0454 11.1883C24.166 11.0677 24.3295 11 24.5 11C24.6705 11 24.834 11.0677 24.9546 11.1883C25.0751 11.3088 25.1429 11.4724 25.1429 11.6429V12.2857H28.3571C28.5276 12.2857 28.6912 12.3534 28.8117 12.474C28.9323 12.5946 29 12.7581 29 12.9286V28.3571C29 28.5276 28.9323 28.6912 28.8117 28.8117C28.6912 28.9323 28.5276 29 28.3571 29H11.6429C11.4724 29 11.3088 28.9323 11.1883 28.8117C11.0677 28.6912 11 28.5276 11 28.3571V12.9286C11 12.7581 11.0677 12.5946 11.1883 12.474C11.3088 12.3534 11.4724 12.2857 11.6429 12.2857H14.8571V11.6429C14.8571 11.4724 14.9249 11.3088 15.0454 11.1883C15.166 11.0677 15.3295 11 15.5 11C15.6705 11 15.834 11.0677 15.9546 11.1883C16.0751 11.3088 16.1429 11.4724 16.1429 11.6429V12.2857ZM15.5 20H16.7857C16.9562 20 17.1197 20.0677 17.2403 20.1883C17.3608 20.3088 17.4286 20.4724 17.4286 20.6429C17.4286 20.8134 17.3608 20.9769 17.2403 21.0974C17.1197 21.218 16.9562 21.2857 16.7857 21.2857H15.5C15.3295 21.2857 15.166 21.218 15.0454 21.0974C14.9249 20.9769 14.8571 20.8134 14.8571 20.6429C14.8571 20.4724 14.9249 20.3088 15.0454 20.1883C15.166 20.0677 15.3295 20 15.5 20ZM15.5 23.8571H16.7857C16.9562 23.8571 17.1197 23.9249 17.2403 24.0454C17.3608 24.166 17.4286 24.3295 17.4286 24.5C17.4286 24.6705 17.3608 24.834 17.2403 24.9546C17.1197 25.0751 16.9562 25.1429 16.7857 25.1429H15.5C15.3295 25.1429 15.166 25.0751 15.0454 24.9546C14.9249 24.834 14.8571 24.6705 14.8571 24.5C14.8571 24.3295 14.9249 24.166 15.0454 24.0454C15.166 23.9249 15.3295 23.8571 15.5 23.8571ZM19.3571 20H20.6429C20.8134 20 20.9769 20.0677 21.0974 20.1883C21.218 20.3088 21.2857 20.4724 21.2857 20.6429C21.2857 20.8134 21.218 20.9769 21.0974 21.0974C20.9769 21.218 20.8134 21.2857 20.6429 21.2857H19.3571C19.1866 21.2857 19.0231 21.218 18.9026 21.0974C18.782 20.9769 18.7143 20.8134 18.7143 20.6429C18.7143 20.4724 18.782 20.3088 18.9026 20.1883C19.0231 20.0677 19.1866 20 19.3571 20ZM19.3571 23.8571H20.6429C20.8134 23.8571 20.9769 23.9249 21.0974 24.0454C21.218 24.166 21.2857 24.3295 21.2857 24.5C21.2857 24.6705 21.218 24.834 21.0974 24.9546C20.9769 25.0751 20.8134 25.1429 20.6429 25.1429H19.3571C19.1866 25.1429 19.0231 25.0751 18.9026 24.9546C18.782 24.834 18.7143 24.6705 18.7143 24.5C18.7143 24.3295 18.782 24.166 18.9026 24.0454C19.0231 23.9249 19.1866 23.8571 19.3571 23.8571ZM23.2143 20H24.5C24.6705 20 24.834 20.0677 24.9546 20.1883C25.0751 20.3088 25.1429 20.4724 25.1429 20.6429C25.1429 20.8134 25.0751 20.9769 24.9546 21.0974C24.834 21.218 24.6705 21.2857 24.5 21.2857H23.2143C23.0438 21.2857 22.8803 21.218 22.7597 21.0974C22.6392 20.9769 22.5714 20.8134 22.5714 20.6429C22.5714 20.4724 22.6392 20.3088 22.7597 20.1883C22.8803 20.0677 23.0438 20 23.2143 20ZM23.2143 23.8571H24.5C24.6705 23.8571 24.834 23.9249 24.9546 24.0454C25.0751 24.166 25.1429 24.3295 25.1429 24.5C25.1429 24.6705 25.0751 24.834 24.9546 24.9546C24.834 25.0751 24.6705 25.1429 24.5 25.1429H23.2143C23.0438 25.1429 22.8803 25.0751 22.7597 24.9546C22.6392 24.834 22.5714 24.6705 22.5714 24.5C22.5714 24.3295 22.6392 24.166 22.7597 24.0454C22.8803 23.9249 23.0438 23.8571 23.2143 23.8571Z" fill="#59779A"/>
</svg>
