<svg width="40" height="40" viewBox="0 0 40 40" fill="none" xmlns="http://www.w3.org/2000/svg">
<circle cx="20" cy="20" r="20" fill="#FA3B33"/>
<path d="M14.134 27.6339L20.2505 21.5174L26.367 27.6339C26.6014 27.8683 26.9194 28 27.2509 28C27.5824 28 27.9004 27.8683 28.1348 27.6339C28.3693 27.3994 28.501 27.0815 28.501 26.7499C28.501 26.4184 28.3693 26.1004 28.1349 25.866L22.0184 19.7495L27.6339 14.134C27.7499 14.0179 27.842 13.8801 27.9048 13.7285C27.9677 13.5768 28 13.4142 28 13.2501C28 13.0859 27.9676 12.9234 27.9048 12.7717C27.842 12.62 27.7499 12.4822 27.6338 12.3661C27.5178 12.2501 27.3799 12.158 27.2283 12.0952C27.0766 12.0323 26.9141 12 26.7499 12C26.5857 12 26.4232 12.0323 26.2715 12.0952C26.1198 12.158 25.982 12.2501 25.866 12.3661L20.2505 17.9816L14.635 12.3661C14.4006 12.1317 14.0826 12 13.7511 12C13.4196 12 13.1016 12.1317 12.8672 12.3661C12.6327 12.6006 12.501 12.9185 12.501 13.2501C12.501 13.5816 12.6327 13.8996 12.8671 14.134L18.4826 19.7495L12.3661 25.866C12.1317 26.1004 12 26.4184 12 26.7499C12 26.9141 12.0323 27.0766 12.0952 27.2283C12.158 27.38 12.2501 27.5178 12.3661 27.6339C12.4822 27.7499 12.62 27.842 12.7717 27.9048C12.9234 27.9677 13.0859 28 13.2501 28C13.5816 28 13.8996 27.8683 14.134 27.6339Z" fill="white"/>
</svg>
