<svg viewBox="0 0 76 76" fill="none" xmlns="http://www.w3.org/2000/svg">
    <circle opacity="0.2" cx="38" cy="38" r="38" fill="#FA3B33"/>
    <path opacity="0.5" d="M25.3971 54.2677L38 42.0347L50.6029 54.2677C51.0859 54.7366 51.7411 55 52.4242 55C53.1073 55 53.7625 54.7366 54.2456 54.2677C54.7286 53.7989 55 53.1629 55 52.4999C55 51.8368 54.7286 51.2008 54.2456 50.732L41.6427 38.499L53.2133 27.268C53.4525 27.0359 53.6422 26.7603 53.7716 26.4569C53.9011 26.1536 53.9677 25.8285 53.9677 25.5001C53.9677 25.1718 53.9011 24.8467 53.7716 24.5434C53.6422 24.24 53.4524 23.9644 53.2132 23.7323C52.9741 23.5001 52.6901 23.3159 52.3776 23.1903C52.0651 23.0647 51.7301 23 51.3919 23C51.0536 23 50.7187 23.0647 50.4062 23.1903C50.0937 23.316 49.8097 23.5001 49.5705 23.7323L38 34.9632L26.4294 23.7323C25.9464 23.2634 25.2912 23 24.6081 23C23.925 23 23.2698 23.2634 22.7868 23.7323C22.3037 24.2011 22.0323 24.8371 22.0323 25.5001C22.0323 26.1632 22.3037 26.7992 22.7867 27.268L34.3573 38.499L21.7544 50.732C21.2714 51.2008 21 51.8368 21 52.4999C21 52.8282 21.0666 53.1533 21.1961 53.4566C21.3255 53.76 21.5153 54.0356 21.7544 54.2677C21.9936 54.4999 22.2776 54.6841 22.5901 54.8097C22.9026 54.9353 23.2375 55 23.5758 55C24.2589 55 24.9141 54.7366 25.3971 54.2677Z" fill="white"/>
</svg>
