<svg width="40" height="40" viewBox="0 0 40 40" fill="none" xmlns="http://www.w3.org/2000/svg">
<circle cx="20" cy="20" r="20" fill="url(#paint0_linear_31786_470459)"/>
<path d="M15.7045 18.5415C15.8442 18.559 15.9781 18.5648 16.1178 18.5648C16.9791 18.5648 17.8056 18.2738 18.4808 17.7267C19.2665 17.0923 19.7612 16.1901 19.8718 15.1832C19.9824 14.1763 19.6914 13.1927 19.057 12.407C17.7474 10.7831 15.3611 10.527 13.7373 11.8366C12.9515 12.471 12.4568 13.3731 12.3462 14.38C12.2356 15.3869 12.5267 16.3706 13.1611 17.1563C13.8013 17.942 14.7034 18.4367 15.7045 18.5415ZM14.0865 14.5663C14.1447 14.025 14.4124 13.5419 14.8315 13.1985C15.1982 12.9017 15.6405 12.7504 16.1061 12.7504C16.1818 12.7504 16.2516 12.7562 16.3273 12.762C16.8686 12.8202 17.3516 13.0879 17.695 13.5128C18.0384 13.9377 18.1898 14.4673 18.1316 15.0086C18.0734 15.5499 17.8056 16.033 17.3866 16.3764C16.9675 16.7198 16.432 16.8711 15.8908 16.8129C15.3495 16.7547 14.8664 16.487 14.523 16.0621C14.1854 15.6372 14.0283 15.1076 14.0865 14.5663Z" fill="#59779A"/>
<path d="M27.4535 22.8364C26.1439 21.2126 23.7576 20.9565 22.1338 22.266C21.348 22.9004 20.8533 23.8026 20.7427 24.8095C20.6321 25.8164 20.9231 26.8 21.5576 27.5857C22.192 28.3715 23.0941 28.8662 24.101 28.9768C24.2407 28.9942 24.3746 29.0001 24.5142 29.0001C25.3756 29.0001 26.2021 28.709 26.8773 28.1619C28.5011 26.8466 28.763 24.4603 27.4535 22.8364ZM25.7831 26.7942C25.3582 27.1376 24.8285 27.2889 24.2873 27.2307C23.746 27.1725 23.2629 26.9048 22.9195 26.4799C22.5761 26.055 22.4248 25.5254 22.483 24.9841C22.5412 24.4428 22.8089 23.9597 23.228 23.6163C23.6063 23.3137 24.0544 23.1682 24.5026 23.1682C25.0963 23.1682 25.6899 23.4301 26.0915 23.9248C26.7958 24.8037 26.6561 26.0899 25.7831 26.7942Z" fill="#59779A"/>
<path d="M28.0595 13.3781C27.7568 12.9998 27.2097 12.9416 26.8314 13.2443L12.3274 24.9313C11.949 25.234 11.8908 25.7811 12.1935 26.1594C12.3681 26.3747 12.6184 26.4853 12.8745 26.4853C13.0665 26.4853 13.2586 26.4213 13.4216 26.2933L27.9256 14.612C28.3039 14.3036 28.3621 13.7565 28.0595 13.3781Z" fill="#59779A"/>
<defs>
<linearGradient id="paint0_linear_31786_470459" x1="40" y1="2.28787e-06" x2="-7.21628" y2="12.301" gradientUnits="userSpaceOnUse">
<stop stop-color="#F0F2FC"/>
<stop offset="1" stop-color="#EDF2FC"/>
</linearGradient>
</defs>
</svg>
