<svg width="40" height="40" viewBox="0 0 40 40" fill="none" xmlns="http://www.w3.org/2000/svg">
<circle cx="20" cy="20" r="20" fill="#F4BD13"/>
<path d="M20 10C14.4859 10 10 14.4859 10 20C10 25.5141 14.4859 30 20 30C25.5141 30 30 25.5141 30 20C30 14.4859 25.5141 10 20 10ZM20 27.8142C15.6911 27.8142 12.1858 24.3089 12.1858 20C12.1858 15.6913 15.6911 12.1858 20 12.1858C24.3089 12.1858 27.8142 15.6913 27.8142 20C27.8142 24.3089 24.3089 27.8142 20 27.8142Z" fill="white"/>
<path d="M20.8651 20.0111V15.8199C20.8651 15.3519 20.4859 14.9727 20.0181 14.9727C19.5502 14.9727 19.1709 15.3519 19.1709 15.8199V20.2817C19.1709 20.2951 19.1742 20.3076 19.1748 20.3209C19.1637 20.5512 19.243 20.7851 19.419 20.9611L22.5742 24.1161C22.9052 24.447 23.4415 24.447 23.7722 24.1161C24.1029 23.7851 24.1032 23.2488 23.7722 22.918L20.8651 20.0111Z" fill="white"/>
</svg>
