<svg width="40" height="40" viewBox="0 0 40 40" fill="none" xmlns="http://www.w3.org/2000/svg">
<circle cx="20" cy="20" r="20" fill="#0FB774"/>
<path d="M28.4856 13.4607C28.2208 13.1955 27.7912 13.195 27.5264 13.4596L19.388 21.5765L16.4516 18.3874C16.1979 18.112 15.7689 18.0941 15.4931 18.3478C15.2174 18.6016 15.1998 19.0307 15.4535 19.3064L18.8681 23.0147C18.9931 23.1506 19.1681 23.2296 19.3527 23.2334C19.3576 23.2336 19.3624 23.2336 19.3671 23.2336C19.5465 23.2336 19.719 23.1624 19.8461 23.0357L28.4843 14.4202C28.7497 14.1556 28.7502 13.726 28.4856 13.4607Z" fill="white"/>
<path d="M28.3216 19.3216C27.9469 19.3216 27.6432 19.6253 27.6432 20C27.6432 24.2146 24.2146 27.6432 20 27.6432C15.7856 27.6432 12.3568 24.2146 12.3568 20C12.3568 15.7856 15.7856 12.3568 20 12.3568C20.3747 12.3568 20.6784 12.0531 20.6784 11.6784C20.6784 11.3037 20.3747 11 20 11C15.0373 11 11 15.0373 11 20C11 24.9624 15.0373 29 20 29C24.9624 29 29 24.9624 29 20C29 19.6253 28.6963 19.3216 28.3216 19.3216Z" fill="white"/>
</svg>
