<svg width="16" height="" viewBox="0 0 16 20" fill="none" xmlns="http://www.w3.org/2000/svg">
<path d="M15.461 8.04043C15.7721 5.93809 14.1842 4.80859 12.0118 4.05559L12.7167 1.2091L10.9958 0.777006L10.3097 3.54896C9.85817 3.43525 9.39409 3.32786 8.93251 3.22173L9.62362 0.432091L7.904 0L7.1991 2.84523C6.82533 2.75932 6.45782 2.67467 6.10035 2.58497L6.10286 2.57612L3.73102 1.97979L3.27195 3.8307C3.27195 3.8307 4.54881 4.12508 4.52122 4.14403C5.21734 4.31965 5.34402 4.78332 5.3227 5.15224L3.39237 12.9501C3.30707 13.1636 3.09134 13.4833 2.60342 13.362C2.62098 13.3872 1.35291 13.0474 1.35291 13.0474L0.5 15.031L2.73889 15.5932C3.15531 15.698 3.56295 15.808 3.96432 15.9116L3.25189 18.7909L4.97025 19.223L5.67515 16.374C6.14425 16.5028 6.59956 16.6203 7.04608 16.7328L6.34368 19.5679L8.0633 20L8.77573 17.1257C11.7095 17.6854 13.9158 17.4593 14.8427 14.7871C15.5902 12.6355 14.8063 11.3936 13.2623 10.5837C14.3874 10.3234 15.234 9.57802 15.461 8.04043ZM11.5301 13.5919C10.9983 15.7435 7.40229 14.5812 6.23581 14.2893L7.17903 10.4738C8.34551 10.7669 12.0845 11.3481 11.5301 13.5919ZM12.0619 8.00884C11.5765 9.96589 8.58382 8.97157 7.61176 8.72773L8.46718 5.26848C9.43924 5.51232 12.5674 5.96715 12.0619 8.00884Z" fill="none"/>
</svg>
