<svg width="19" height="" viewBox="0 0 19 18" fill="none" xmlns="http://www.w3.org/2000/svg">
<path d="M13 15.5C11.8112 15.5011 10.6451 15.1751 9.62915 14.5578C8.61322 13.9405 7.78669 13.0556 7.24 12H13L14 10H6.58C6.53 9.67 6.5 9.34 6.5 9C6.5 8.66 6.53 8.33 6.58 8H13L14 6H7.24C7.78766 4.94519 8.61441 4.06098 9.63012 3.4438C10.6458 2.82662 11.8115 2.50015 13 2.5C14.61 2.5 16.09 3.09 17.23 4.07L19 2.3C17.3534 0.81747 15.2157 -0.00199669 13 3.65354e-06C9.08 3.65354e-06 5.76 2.51 4.52 6H1L0 8H4.06C3.97901 8.66421 3.97901 9.3358 4.06 10H1L0 12H4.52C5.76 15.49 9.08 18 13 18C15.31 18 17.41 17.13 19 15.7L17.22 13.93C16.09 14.91 14.62 15.5 13 15.5Z" fill="none"/>
</svg>
