<svg width="17" height="" viewBox="0 0 17 18" fill="none" xmlns="http://www.w3.org/2000/svg">
<path d="M13.3338 5.58665C13.3338 4.73438 13.0568 4.04403 12.5028 3.51562C11.9489 2.98722 11.2202 2.72301 10.3168 2.72301H6.22585V8.45028H10.3168C11.2202 8.45028 11.9489 8.18608 12.5028 7.65767C13.0568 7.12926 13.3338 6.43892 13.3338 5.58665ZM16.3636 5.58665C16.3636 7.23153 15.8246 8.57386 14.7464 9.61364C13.6683 10.6534 12.277 11.1733 10.5724 11.1733H6.22585V12.6818H12.6818C12.8011 12.6818 12.8991 12.7202 12.9759 12.7969C13.0526 12.8736 13.0909 12.9716 13.0909 13.0909V14.7273C13.0909 14.8466 13.0526 14.9446 12.9759 15.0213C12.8991 15.098 12.8011 15.1364 12.6818 15.1364H6.22585V17.5909C6.22585 17.7102 6.18537 17.8082 6.1044 17.8849C6.02344 17.9616 5.92756 18 5.81676 18H3.68182C3.5625 18 3.46449 17.9616 3.38778 17.8849C3.31108 17.8082 3.27273 17.7102 3.27273 17.5909V15.1364H0.409091C0.289773 15.1364 0.191761 15.098 0.115057 15.0213C0.0383523 14.9446 0 14.8466 0 14.7273V13.0909C0 12.9716 0.0383523 12.8736 0.115057 12.7969C0.191761 12.7202 0.289773 12.6818 0.409091 12.6818H3.27273V11.1733H0.409091C0.289773 11.1733 0.191761 11.1349 0.115057 11.0582C0.0383523 10.9815 0 10.8835 0 10.7642V8.85938C0 8.74858 0.0383523 8.6527 0.115057 8.57173C0.191761 8.49077 0.289773 8.45028 0.409091 8.45028H3.27273V0.409091C3.27273 0.289773 3.31108 0.191761 3.38778 0.115057C3.46449 0.0383523 3.5625 0 3.68182 0H10.5724C12.277 0 13.6683 0.519886 14.7464 1.55966C15.8246 2.59943 16.3636 3.94176 16.3636 5.58665Z" fill="none"/>
</svg>
