<svg width="12" height="" viewBox="0 0 12 20" fill="none" xmlns="http://www.w3.org/2000/svg">
<path d="M0 13.3333H2.22222C2.22222 14.5333 3.74444 15.5556 5.55556 15.5556C7.36667 15.5556 8.88889 14.5333 8.88889 13.3333C8.88889 12.1111 7.73333 11.6667 5.28889 11.0778C2.93333 10.4889 0 9.75556 0 6.66667C0 4.67778 1.63333 2.98889 3.88889 2.42222V0H7.22222V2.42222C9.47778 2.98889 11.1111 4.67778 11.1111 6.66667H8.88889C8.88889 5.46667 7.36667 4.44444 5.55556 4.44444C3.74444 4.44444 2.22222 5.46667 2.22222 6.66667C2.22222 7.88889 3.37778 8.33333 5.82222 8.92222C8.17778 9.51111 11.1111 10.2444 11.1111 13.3333C11.1111 15.3222 9.47778 17.0111 7.22222 17.5778V20H3.88889V17.5778C1.63333 17.0111 0 15.3222 0 13.3333Z" fill="none"/>
</svg>
