<svg width="50" height="50" viewBox="0 0 50 50" fill="none" xmlns="http://www.w3.org/2000/svg">
<g clip-path="url(#clip0)">
<path d="M20.8333 50C16.5272 50 13.0208 46.4958 13.0208 42.1875C13.0208 41.325 13.7207 40.625 14.5833 40.625C15.4458 40.625 16.1458 41.325 16.1458 42.1875C16.1458 44.7731 18.2499 46.875 20.8333 46.875C23.4166 46.875 25.5208 44.7731 25.5208 42.1875C25.5208 41.325 26.2207 40.625 27.0833 40.625C27.9458 40.625 28.6458 41.325 28.6458 42.1875C28.6458 46.4958 25.1397 50 20.8333 50Z" fill="white"/>
<path d="M38.0207 43.75H3.64571C1.63536 43.75 0 42.1146 0 40.1043C0 39.0373 0.46463 38.0272 1.27487 37.3333C1.32713 37.2875 1.38321 37.2459 1.44157 37.2081C4.49982 34.5394 6.25 30.6999 6.25 26.6456V20.8332C6.25 14.048 10.8479 8.22292 17.4313 6.66652C18.2728 6.47274 19.1147 6.98734 19.3127 7.82924C19.5103 8.66886 18.9896 9.51038 18.1522 9.70836C12.9833 10.9291 9.375 15.504 9.375 20.8332V26.6456C9.375 31.6791 7.16858 36.4418 3.32718 39.7102C3.2959 39.7354 3.26881 39.7583 3.23524 39.7812C3.17917 39.8521 3.125 39.9604 3.125 40.1043C3.125 40.3873 3.36266 40.625 3.64571 40.625H38.0207C38.3041 40.625 38.5418 40.3873 38.5418 40.1043C38.5418 39.9582 38.4876 39.8521 38.4293 39.7812C38.398 39.7583 38.3686 39.7354 38.3396 39.7102C36.4731 38.1187 34.9998 36.198 33.9626 34C33.5918 33.2206 33.9249 32.2895 34.7061 31.9187C35.4939 31.5479 36.4166 31.8855 36.7855 32.6645C37.6102 34.4062 38.7665 35.9356 40.229 37.2146C40.2832 37.252 40.3397 37.2917 40.3873 37.3333C41.2022 38.0272 41.6668 39.0373 41.6668 40.1043C41.6668 42.1146 40.0314 43.75 38.0207 43.75Z" fill="white"/>
<path d="M36.4582 27.0832C28.9917 27.0832 22.9167 21.0083 22.9167 13.5418C22.9167 6.07491 28.9917 0 36.4582 0C43.925 0 50 6.07491 50 13.5418C50 21.0083 43.925 27.0832 36.4582 27.0832ZM36.4582 3.125C30.7144 3.125 26.0417 7.798 26.0417 13.5418C26.0417 19.2856 30.7144 23.9582 36.4582 23.9582C42.202 23.9582 46.875 19.2856 46.875 13.5418C46.875 7.798 42.202 3.125 36.4582 3.125Z" fill="white"/>
<path d="M36.9793 19.7918C36.1168 19.7918 35.4168 19.0918 35.4168 18.2293V11.4583H34.375C33.5125 11.4583 32.8125 10.7583 32.8125 9.89575C32.8125 9.03325 33.5125 8.33325 34.375 8.33325H36.9793C37.8418 8.33325 38.5418 9.03325 38.5418 9.89575V18.2293C38.5418 19.0918 37.8418 19.7918 36.9793 19.7918Z" fill="white"/>
</g>
<defs>
<clipPath id="clip0">
<rect width="50" height="50" fill="white"/>
</clipPath>
</defs>
</svg>
