<svg width="50" height="50" viewBox="0 0 50 50" fill="none" xmlns="http://www.w3.org/2000/svg">
<path d="M48.5708 6.83565C47.8352 6.09883 46.6418 6.09756 45.9062 6.83252L23.2995 29.3796L15.143 20.5209C14.4383 19.7559 13.2467 19.7062 12.4803 20.4109C11.7146 21.1157 11.6656 22.3079 12.3704 23.0736L21.8553 33.3745C22.2027 33.752 22.6888 33.9713 23.2014 33.9819C23.2152 33.9825 23.2285 33.9825 23.2417 33.9825C23.7398 33.9825 24.219 33.7847 24.572 33.4329L48.5671 9.50078C49.3045 8.76592 49.3057 7.57246 48.5708 6.83565Z" fill="white"/>
<path d="M48.1155 23.1155C47.0747 23.1155 46.2312 23.9591 46.2312 25C46.2312 36.7073 36.7073 46.2312 25 46.2312C13.2934 46.2312 3.76885 36.7073 3.76885 25C3.76885 13.2934 13.2934 3.76885 25 3.76885C26.0408 3.76885 26.8845 2.92529 26.8845 1.88447C26.8845 0.843555 26.0408 0 25 0C11.2148 0 0 11.2148 0 25C0 38.7846 11.2148 50 25 50C38.7846 50 50 38.7846 50 25C50 23.9592 49.1564 23.1155 48.1155 23.1155Z" fill="white"/>
</svg>
