<svg width="50" height="50" viewBox="0 0 50 50" fill="none" xmlns="http://www.w3.org/2000/svg">
<path d="M25 50C29.9445 50 34.778 48.5338 38.8892 45.7867C43.0005 43.0397 46.2048 39.1352 48.097 34.5671C49.9892 29.9989 50.4843 24.9723 49.5196 20.1227C48.555 15.2732 46.174 10.8187 42.6777 7.32234C39.1813 3.82603 34.7268 1.44501 29.8773 0.480379C25.0277 -0.484251 20.0011 0.010832 15.4329 1.90302C10.8648 3.79521 6.96029 6.99952 4.21326 11.1108C1.46622 15.222 0 20.0555 0 25C0.000130925 31.6304 2.63409 37.9891 7.32247 42.6775C12.0109 47.3659 18.3696 49.9999 25 50ZM9.56 9.56001C13.1321 5.9879 17.8323 3.76489 22.8597 3.26975C27.8871 2.7746 32.9307 4.03796 37.131 6.84456C41.3314 9.65116 44.4287 13.8274 45.8951 18.6616C47.3615 23.4958 47.1064 28.6889 45.1732 33.3561C43.24 38.0233 39.7483 41.8757 35.293 44.2571C30.8378 46.6385 25.6947 47.4014 20.74 46.4158C15.7854 45.4303 11.3257 42.7573 8.12092 38.8522C4.91614 34.9472 3.16452 30.0517 3.16452 25C3.16039 22.1319 3.7233 19.2913 4.82088 16.6415C5.91845 13.9918 7.52903 11.5851 9.56 9.56001Z" fill="white"/>
<path d="M17.2583 34.662L25.0002 26.9201L32.7421 34.662C33.0388 34.9587 33.4413 35.1254 33.8609 35.1254C34.2806 35.1254 34.683 34.9587 34.9798 34.662C35.2765 34.3653 35.4432 33.9628 35.4432 33.5432C35.4432 33.1235 35.2765 32.721 34.9798 32.4243L27.2379 24.6824L34.3456 17.5746C34.4926 17.4277 34.6091 17.2532 34.6886 17.0613C34.7681 16.8693 34.8091 16.6635 34.8091 16.4557C34.8091 16.248 34.7681 16.0422 34.6886 15.8502C34.6091 15.6583 34.4925 15.4838 34.3456 15.3369C34.1987 15.19 34.0242 15.0734 33.8323 14.9939C33.6403 14.9144 33.4345 14.8735 33.2268 14.8735C33.019 14.8735 32.8132 14.9144 32.6212 14.9939C32.4293 15.0734 32.2548 15.19 32.1079 15.3369L25.0002 22.4447L17.8924 15.3369C17.5957 15.0402 17.1932 14.8735 16.7736 14.8735C16.3539 14.8735 15.9515 15.0402 15.6547 15.3369C15.358 15.6336 15.1913 16.0361 15.1913 16.4557C15.1913 16.8754 15.358 17.2779 15.6547 17.5746L22.7625 24.6824L15.0206 32.4243C14.7238 32.721 14.5571 33.1235 14.5571 33.5432C14.5571 33.7509 14.5981 33.9567 14.6776 34.1487C14.7571 34.3406 14.8736 34.5151 15.0206 34.662C15.1675 34.8089 15.3419 34.9255 15.5339 35.005C15.7259 35.0845 15.9316 35.1254 16.1394 35.1254C16.5591 35.1254 16.9615 34.9587 17.2583 34.662Z" fill="white"/>
</svg>
