<svg width="" height="93" viewBox="0 0 93 93" fill="none" xmlns="http://www.w3.org/2000/svg">
<g >
<path d="M80.9559 12.2829H73.1394V4.46659C73.1395 2.00983 71.1293 0 68.6739 0H11.7245C9.26789 0 7.25806 2.00983 7.25806 4.46659V75.9312C7.25806 78.3878 9.26789 80.3978 11.7247 80.3978H19.5411V88.2143C19.5411 90.6708 21.5501 92.6809 24.0077 92.6809H61.9723C64.4277 92.6809 67.9027 91.303 69.6905 89.6202L82.1678 77.8755C83.9577 76.1927 85.4205 72.8048 85.4205 70.3483L85.4226 16.7499C85.4224 14.2929 83.4124 12.2829 80.9559 12.2829ZM19.5408 16.7497V77.0479H11.7245C11.1193 77.0479 10.608 76.5365 10.608 75.9314V4.46659C10.608 3.86145 11.1193 3.35008 11.7245 3.35008H68.674C69.2781 3.35008 69.7906 3.86145 69.7906 4.46659V12.2831H24.0074C21.5497 12.2831 19.5408 14.2929 19.5408 16.7497ZM79.8717 75.4365L67.3944 87.1803C67.1388 87.4205 66.8059 87.656 66.4385 87.8803V77.6061C66.4385 76.839 66.7478 76.1488 67.2581 75.6352C67.7729 75.1249 68.463 74.8147 69.2301 74.8147H80.4021C80.2289 75.05 80.0515 75.2667 79.8717 75.4365ZM82.0702 70.3479C82.0702 70.6795 82.0097 71.0636 81.9183 71.4644H69.2299C65.8411 71.4711 63.0953 74.2169 63.0884 77.6059V89.1954C62.6898 89.2759 62.3057 89.3304 61.9719 89.3304H24.0074C23.401 89.3304 22.8909 88.8192 22.8909 88.2141V16.7495C22.8909 16.1444 23.4012 15.633 24.0074 15.633H80.9557C81.5608 15.633 82.0722 16.1444 82.0722 16.7495L82.0702 70.3479Z" fill="#C3CEEB"/>
<path d="M65.5148 63.9395H33.1325C32.2068 63.9395 31.4575 64.6887 31.4575 65.6144C31.4575 66.5401 32.2069 67.2893 33.1325 67.2893H65.5148C66.4394 67.2893 67.1897 66.5401 67.1897 65.6144C67.1897 64.6885 66.4394 63.9395 65.5148 63.9395Z" fill="#C3CEEB"/>
<path d="M50.9985 75.1074H33.1325C32.2067 75.1074 31.4575 75.8566 31.4575 76.7824C31.4575 77.7081 32.2067 78.4573 33.1325 78.4573H50.9985C51.9231 78.4573 52.6723 77.7081 52.6723 76.7824C52.6723 75.8566 51.9231 75.1074 50.9985 75.1074Z" fill="#C3CEEB"/>
<path d="M65.5148 52.7734H33.1325C32.2068 52.7734 31.4575 53.5227 31.4575 54.4484C31.4575 55.3741 32.2069 56.1233 33.1325 56.1233H65.5148C66.4394 56.1233 67.1897 55.3741 67.1897 54.4484C67.1897 53.5227 66.4394 52.7734 65.5148 52.7734Z" fill="#C3CEEB"/>
<path d="M43.9284 46.3967V47.3938C41.3636 47.3938 38.9626 46.0477 37.2164 43.6048C35.5247 41.2616 34.5425 38.0709 34.5425 34.7306C34.5425 31.3903 35.4701 28.2494 37.2164 25.8563C39.0172 23.4633 41.4182 22.1172 43.9284 22.1172V23.1143C39.3991 23.1143 35.6338 28.3491 35.6338 34.7306C35.6338 41.1619 39.3991 46.3967 43.9284 46.3967ZM36.0158 25.5073H34.597C34.4879 25.6071 34.3787 25.7566 34.2696 25.9062C32.5234 28.2494 31.5957 31.3903 31.5957 34.7306C31.5957 38.0709 32.5234 41.2117 34.2696 43.6048C34.3787 43.7544 34.4879 43.9039 34.597 44.0036H36.0158C33.9968 41.8599 32.7417 38.5196 32.7417 34.7306C32.6871 30.9914 33.9968 27.6013 36.0158 25.5073ZM51.5681 38.9683H49.7673H49.1125H48.6214C48.1848 40.2146 47.5846 41.3114 46.8206 42.159H48.1848C48.676 41.5109 49.0579 40.763 49.3854 39.9654H51.1316C49.9311 42.6077 47.8028 44.3526 45.4018 44.3526C41.6365 44.3526 38.5806 40.0651 38.5806 34.7306C38.5806 29.4459 41.6365 25.1085 45.4018 25.1085C48.0757 25.1085 50.4222 27.3021 51.5136 30.4929H52.6595C52.2775 29.2963 51.7319 28.1995 51.077 27.2523C49.6036 25.2581 47.5846 24.1613 45.4018 24.1613C43.219 24.1613 41.1999 25.3079 39.7266 27.352C38.2532 29.3462 37.4892 31.9885 37.4892 34.7804C37.4892 37.5723 38.3078 40.2146 39.7266 42.2088C41.1999 44.2529 43.219 45.3996 45.4018 45.3996C47.5846 45.3996 49.6036 44.2529 51.077 42.2088C51.7864 41.2616 52.3321 40.1648 52.6595 38.9683H52.0047H51.5681ZM48.6214 30.5427H48.9488H49.7673C49.3854 29.3462 48.8397 28.2992 48.1848 27.352H46.8206C47.3663 28.0001 47.8028 28.6981 48.1848 29.5456H46.4386C46.1112 28.7479 45.6746 28.0001 45.1835 27.352C45.0744 27.2024 44.9107 27.003 44.8015 26.8534H43.3827C44.365 27.8007 45.1289 29.0471 45.6746 30.5427H46.0021H46.8206H48.6214ZM43.3827 42.6575H44.8015C44.9107 42.508 45.0744 42.3584 45.1835 42.159C45.8929 41.2117 46.4386 40.1149 46.766 38.9184H45.6201C45.1289 40.4639 44.365 41.7601 43.3827 42.6575Z" fill="#C3CEEB"/>
</g>
<defs>
</defs>
</svg>
