<svg width="" height="98" viewBox="0 0 109 98" fill="none" xmlns="http://www.w3.org/2000/svg">
<path d="M86.0109 96.1655L20.4245 20.6955C19.3962 19.4957 19.5104 17.6961 20.7102 16.6678L37.9352 1.69944C39.1349 0.67108 40.9346 0.785342 41.9629 1.98509L107.549 77.4551C108.578 78.6549 108.463 80.4545 107.264 81.4828L90.0101 96.4797C88.8389 97.4795 87.0393 97.3653 86.0109 96.1655Z" fill="#C3CEEB" stroke="#C3CEEB" stroke-miterlimit="10"/>
<path d="M45.4336 20.0667C45.4336 23.703 42.4858 26.6509 38.8494 26.6509C35.213 26.6509 32.2651 23.703 32.2651 20.0667C32.2651 16.4303 35.213 13.4824 38.8494 13.4824C42.4858 13.4824 45.4336 16.4303 45.4336 20.0667Z" fill="#C3CEEB" stroke="#6B93C0"/>
<path d="M38.8489 13.0686C42.7052 13.0686 45.8474 16.2108 45.8474 20.0672C45.8474 23.9235 42.7052 27.0657 38.8489 27.0657C34.9926 27.0657 31.8503 23.9235 31.8503 20.0672C31.8503 16.2108 34.9926 13.0686 38.8489 13.0686ZM38.8489 12.9258C34.9069 12.9258 31.7075 16.1251 31.7075 20.0672C31.7075 24.0092 34.9069 27.2085 38.8489 27.2085C42.7909 27.2085 45.9903 24.0092 45.9903 20.0672C45.9903 16.1251 42.7909 12.9258 38.8489 12.9258Z" fill="#6B93C0"/>
<g style="mix-blend-mode:screen" opacity="0.5">
<path d="M69.2993 71.0861L39.5341 36.8647C39.3341 36.6362 39.3627 36.2648 39.5912 36.0649L54.7024 22.9247C54.9309 22.7248 55.3023 22.7533 55.5022 22.9819L85.2675 57.2319C85.4674 57.4604 85.4388 57.8318 85.2103 58.0317L70.0992 71.1718C69.8421 71.3718 69.4993 71.3432 69.2993 71.0861Z" fill="#6B93C0"/>
</g>
<path d="M0.142578 92.1958V63.916H88.5528C96.3511 63.916 102.693 70.2575 102.693 78.0559C102.693 85.8543 96.3511 92.1958 88.5528 92.1958H0.142578Z" fill="white"/>
<mask id="path-6-inside-1" fill="white">
<path d="M88.553 64.0571C96.2657 64.0571 102.55 70.3415 102.55 78.0542C102.55 85.7669 96.2657 92.0513 88.553 92.0513H0.285655V64.0571H88.553ZM88.553 63.7715H0V92.337H88.553C96.4371 92.337 102.836 85.9383 102.836 78.0542C102.836 70.1701 96.4371 63.7715 88.553 63.7715Z"/>
</mask>
<path d="M88.553 64.0571C96.2657 64.0571 102.55 70.3415 102.55 78.0542C102.55 85.7669 96.2657 92.0513 88.553 92.0513H0.285655V64.0571H88.553ZM88.553 63.7715H0V92.337H88.553C96.4371 92.337 102.836 85.9383 102.836 78.0542C102.836 70.1701 96.4371 63.7715 88.553 63.7715Z" fill="black"/>
<path d="M0.285655 92.0513H-0.714345V93.0513H0.285655V92.0513ZM0.285655 64.0571V63.0571H-0.714345V64.0571H0.285655ZM0 63.7715V62.7715H-1V63.7715H0ZM0 92.337H-1V93.337H0V92.337ZM88.553 65.0571C95.7134 65.0571 101.55 70.8938 101.55 78.0542H103.55C103.55 69.7893 96.818 63.0571 88.553 63.0571V65.0571ZM101.55 78.0542C101.55 85.2146 95.7134 91.0513 88.553 91.0513V93.0513C96.818 93.0513 103.55 86.3192 103.55 78.0542H101.55ZM88.553 91.0513H0.285655V93.0513H88.553V91.0513ZM1.28565 92.0513V64.0571H-0.714345V92.0513H1.28565ZM0.285655 65.0571H88.553V63.0571H0.285655V65.0571ZM88.553 62.7715H0V64.7715H88.553V62.7715ZM-1 63.7715V92.337H1V63.7715H-1ZM0 93.337H88.553V91.337H0V93.337ZM88.553 93.337C96.9894 93.337 103.836 86.4906 103.836 78.0542H101.836C101.836 85.386 95.8848 91.337 88.553 91.337V93.337ZM103.836 78.0542C103.836 69.6179 96.9894 62.7715 88.553 62.7715V64.7715C95.8848 64.7715 101.836 70.7224 101.836 78.0542H103.836Z" fill="#C3CEEB" mask="url(#path-6-inside-1)"/>
<path d="M87.1255 85.3389C90.9907 85.3389 94.124 82.2055 94.124 78.3403C94.124 74.4751 90.9907 71.3418 87.1255 71.3418C83.2603 71.3418 80.127 74.4751 80.127 78.3403C80.127 82.2055 83.2603 85.3389 87.1255 85.3389Z" fill="white"/>
<mask id="path-9-inside-2" fill="white">
<path d="M87.1253 71.4849C90.8959 71.4849 93.981 74.5699 93.981 78.3406C93.981 82.1112 90.8959 85.1963 87.1253 85.1963C83.3546 85.1963 80.2695 82.1112 80.2695 78.3406C80.2695 74.5699 83.3546 71.4849 87.1253 71.4849ZM87.1253 71.1992C83.1832 71.1992 79.9839 74.3985 79.9839 78.3406C79.9839 82.2826 83.1832 85.482 87.1253 85.482C91.0673 85.482 94.2666 82.2826 94.2666 78.3406C94.2666 74.3985 91.0673 71.1992 87.1253 71.1992Z"/>
</mask>
<path d="M87.1253 71.4849C90.8959 71.4849 93.981 74.5699 93.981 78.3406C93.981 82.1112 90.8959 85.1963 87.1253 85.1963C83.3546 85.1963 80.2695 82.1112 80.2695 78.3406C80.2695 74.5699 83.3546 71.4849 87.1253 71.4849ZM87.1253 71.1992C83.1832 71.1992 79.9839 74.3985 79.9839 78.3406C79.9839 82.2826 83.1832 85.482 87.1253 85.482C91.0673 85.482 94.2666 82.2826 94.2666 78.3406C94.2666 74.3985 91.0673 71.1992 87.1253 71.1992Z" fill="black"/>
<path d="M87.1253 72.4849C90.3436 72.4849 92.981 75.1222 92.981 78.3406H94.981C94.981 74.0177 91.4482 70.4849 87.1253 70.4849V72.4849ZM92.981 78.3406C92.981 81.5589 90.3436 84.1963 87.1253 84.1963V86.1963C91.4482 86.1963 94.981 82.6635 94.981 78.3406H92.981ZM87.1253 84.1963C83.9069 84.1963 81.2695 81.5589 81.2695 78.3406H79.2695C79.2695 82.6635 82.8023 86.1963 87.1253 86.1963V84.1963ZM81.2695 78.3406C81.2695 75.1222 83.9069 72.4849 87.1253 72.4849V70.4849C82.8023 70.4849 79.2695 74.0177 79.2695 78.3406H81.2695ZM87.1253 70.1992C82.6309 70.1992 78.9839 73.8463 78.9839 78.3406H80.9839C80.9839 74.9508 83.7355 72.1992 87.1253 72.1992V70.1992ZM78.9839 78.3406C78.9839 82.8349 82.6309 86.482 87.1253 86.482V84.482C83.7355 84.482 80.9839 81.7303 80.9839 78.3406H78.9839ZM87.1253 86.482C91.6196 86.482 95.2666 82.8349 95.2666 78.3406H93.2666C93.2666 81.7303 90.515 84.482 87.1253 84.482V86.482ZM95.2666 78.3406C95.2666 73.8463 91.6196 70.1992 87.1253 70.1992V72.1992C90.515 72.1992 93.2666 74.9508 93.2666 78.3406H95.2666Z" fill="#C3CEEB" mask="url(#path-9-inside-2)"/>
<path d="M73.061 49.0571L62.5671 36.9828C62.0962 36.441 61.2753 36.3835 60.7335 36.8544C60.1917 37.3253 60.1342 38.1463 60.6051 38.6881L71.0989 50.7624C71.5698 51.3042 72.3907 51.3617 72.9325 50.8908C73.4744 50.4199 73.5318 49.5989 73.061 49.0571Z" fill="#6B93C0"/>
<path d="M67.8468 57.2793L53.6614 40.9574C53.1905 40.4156 52.3695 40.3581 51.8277 40.829C51.2859 41.2999 51.2284 42.1209 51.6993 42.6627L65.8847 58.9845C66.3556 59.5263 67.1765 59.5838 67.7184 59.1129C68.2602 58.642 68.3177 57.8211 67.8468 57.2793Z" fill="#6B93C0"/>
<path d="M73.9838 57.1734L53.7083 33.8441C53.2374 33.3023 52.4164 33.2448 51.8746 33.7157C51.3328 34.1866 51.2753 35.0076 51.7462 35.5494L72.0217 58.8786C72.4926 59.4205 73.3136 59.478 73.8554 59.0071C74.3972 58.5362 74.4547 57.7152 73.9838 57.1734Z" fill="#6B93C0"/>
</svg>
