<svg width="" height="98" viewBox="0 0 109 98" fill="none" xmlns="http://www.w3.org/2000/svg">
<path d="M86.0107 96.1655L20.4243 20.6955C19.396 19.4957 19.5102 17.6961 20.71 16.6678L37.935 1.69944C39.1347 0.67108 40.9344 0.785342 41.9627 1.98509L107.549 77.4551C108.577 78.6549 108.463 80.4545 107.263 81.4828L90.0099 96.4797C88.8387 97.4795 87.0391 97.3653 86.0107 96.1655Z" fill="#1A53F0" stroke="#1A53F0" stroke-miterlimit="10"/>
<path d="M45.4338 20.0667C45.4338 23.703 42.486 26.6509 38.8496 26.6509C35.2132 26.6509 32.2654 23.703 32.2654 20.0667C32.2654 16.4303 35.2132 13.4824 38.8496 13.4824C42.486 13.4824 45.4338 16.4303 45.4338 20.0667Z" fill="#1A53F0" stroke="white"/>
<path d="M38.8491 13.0686C42.7055 13.0686 45.8477 16.2108 45.8477 20.0672C45.8477 23.9235 42.7055 27.0657 38.8491 27.0657C34.9928 27.0657 31.8506 23.9235 31.8506 20.0672C31.8506 16.2108 34.9928 13.0686 38.8491 13.0686ZM38.8491 12.9258C34.9071 12.9258 31.7078 16.1251 31.7078 20.0672C31.7078 24.0092 34.9071 27.2085 38.8491 27.2085C42.7912 27.2085 45.9905 24.0092 45.9905 20.0672C45.9905 16.1251 42.7912 12.9258 38.8491 12.9258Z" fill="white"/>
<g style="mix-blend-mode:screen" opacity="0.5">
<path d="M69.2993 71.0852L39.534 36.8637C39.3341 36.6352 39.3626 36.2638 39.5912 36.0639L54.7023 22.9238C54.9308 22.7238 55.3022 22.7524 55.5021 22.9809L85.2674 57.2309C85.4673 57.4594 85.4388 57.8308 85.2102 58.0307L70.0991 71.1709C69.842 71.3708 69.4992 71.3423 69.2993 71.0852Z" fill="white"/>
</g>
<path d="M0.142792 92.1949V63.915H88.553C96.3513 63.915 102.693 70.2566 102.693 78.055C102.693 85.8533 96.3513 92.1949 88.553 92.1949H0.142792Z" fill="white"/>
<mask id="path-6-inside-1_18411_435004" fill="white">
<path d="M88.553 64.0571C96.2657 64.0571 102.55 70.3415 102.55 78.0542C102.55 85.7669 96.2657 92.0513 88.553 92.0513H0.285655V64.0571H88.553ZM88.553 63.7715H0V92.337H88.553C96.4371 92.337 102.836 85.9383 102.836 78.0542C102.836 70.1701 96.4371 63.7715 88.553 63.7715Z"/>
</mask>
<path d="M88.553 64.0571C96.2657 64.0571 102.55 70.3415 102.55 78.0542C102.55 85.7669 96.2657 92.0513 88.553 92.0513H0.285655V64.0571H88.553ZM88.553 63.7715H0V92.337H88.553C96.4371 92.337 102.836 85.9383 102.836 78.0542C102.836 70.1701 96.4371 63.7715 88.553 63.7715Z" fill="black"/>
<path d="M0.285655 92.0513H-0.714345V93.0513H0.285655V92.0513ZM0.285655 64.0571V63.0571H-0.714345V64.0571H0.285655ZM0 63.7715V62.7715H-1V63.7715H0ZM0 92.337H-1V93.337H0V92.337ZM88.553 65.0571C95.7134 65.0571 101.55 70.8938 101.55 78.0542H103.55C103.55 69.7893 96.818 63.0571 88.553 63.0571V65.0571ZM101.55 78.0542C101.55 85.2146 95.7134 91.0513 88.553 91.0513V93.0513C96.818 93.0513 103.55 86.3192 103.55 78.0542H101.55ZM88.553 91.0513H0.285655V93.0513H88.553V91.0513ZM1.28565 92.0513V64.0571H-0.714345V92.0513H1.28565ZM0.285655 65.0571H88.553V63.0571H0.285655V65.0571ZM88.553 62.7715H0V64.7715H88.553V62.7715ZM-1 63.7715V92.337H1V63.7715H-1ZM0 93.337H88.553V91.337H0V93.337ZM88.553 93.337C96.9894 93.337 103.836 86.4906 103.836 78.0542H101.836C101.836 85.386 95.8848 91.337 88.553 91.337V93.337ZM103.836 78.0542C103.836 69.6179 96.9894 62.7715 88.553 62.7715V64.7715C95.8848 64.7715 101.836 70.7224 101.836 78.0542H103.836Z" fill="#1A53F0" mask="url(#path-6-inside-1_18411_435004)"/>
<path d="M87.1255 85.3389C90.9907 85.3389 94.124 82.2055 94.124 78.3403C94.124 74.4751 90.9907 71.3418 87.1255 71.3418C83.2603 71.3418 80.1269 74.4751 80.1269 78.3403C80.1269 82.2055 83.2603 85.3389 87.1255 85.3389Z" fill="white"/>
<mask id="path-9-inside-2_18411_435004" fill="white">
<path d="M87.1254 71.4849C90.896 71.4849 93.9811 74.5699 93.9811 78.3406C93.9811 82.1112 90.896 85.1963 87.1254 85.1963C83.3547 85.1963 80.2696 82.1112 80.2696 78.3406C80.2696 74.5699 83.3547 71.4849 87.1254 71.4849ZM87.1254 71.1992C83.1833 71.1992 79.984 74.3985 79.984 78.3406C79.984 82.2826 83.1833 85.482 87.1254 85.482C91.0674 85.482 94.2667 82.2826 94.2667 78.3406C94.2667 74.3985 91.0674 71.1992 87.1254 71.1992Z"/>
</mask>
<path d="M87.1254 71.4849C90.896 71.4849 93.9811 74.5699 93.9811 78.3406C93.9811 82.1112 90.896 85.1963 87.1254 85.1963C83.3547 85.1963 80.2696 82.1112 80.2696 78.3406C80.2696 74.5699 83.3547 71.4849 87.1254 71.4849ZM87.1254 71.1992C83.1833 71.1992 79.984 74.3985 79.984 78.3406C79.984 82.2826 83.1833 85.482 87.1254 85.482C91.0674 85.482 94.2667 82.2826 94.2667 78.3406C94.2667 74.3985 91.0674 71.1992 87.1254 71.1992Z" fill="black"/>
<path d="M87.1254 72.4849C90.3437 72.4849 92.9811 75.1222 92.9811 78.3406H94.9811C94.9811 74.0177 91.4483 70.4849 87.1254 70.4849V72.4849ZM92.9811 78.3406C92.9811 81.5589 90.3437 84.1963 87.1254 84.1963V86.1963C91.4483 86.1963 94.9811 82.6635 94.9811 78.3406H92.9811ZM87.1254 84.1963C83.907 84.1963 81.2696 81.5589 81.2696 78.3406H79.2696C79.2696 82.6635 82.8024 86.1963 87.1254 86.1963V84.1963ZM81.2696 78.3406C81.2696 75.1222 83.907 72.4849 87.1254 72.4849V70.4849C82.8024 70.4849 79.2696 74.0177 79.2696 78.3406H81.2696ZM87.1254 70.1992C82.631 70.1992 78.984 73.8463 78.984 78.3406H80.984C80.984 74.9508 83.7356 72.1992 87.1254 72.1992V70.1992ZM78.984 78.3406C78.984 82.8349 82.631 86.482 87.1254 86.482V84.482C83.7356 84.482 80.984 81.7303 80.984 78.3406H78.984ZM87.1254 86.482C91.6197 86.482 95.2667 82.8349 95.2667 78.3406H93.2667C93.2667 81.7303 90.5151 84.482 87.1254 84.482V86.482ZM95.2667 78.3406C95.2667 73.8463 91.6197 70.1992 87.1254 70.1992V72.1992C90.5151 72.1992 93.2667 74.9508 93.2667 78.3406H95.2667Z" fill="#1A53F0" mask="url(#path-9-inside-2_18411_435004)"/>
<path d="M73.0611 49.0571L62.5673 36.9828C62.0964 36.441 61.2754 36.3835 60.7336 36.8544C60.1918 37.3253 60.1343 38.1463 60.6052 38.6881L71.099 50.7624C71.5699 51.3042 72.3909 51.3617 72.9327 50.8908C73.4745 50.4199 73.532 49.5989 73.0611 49.0571Z" fill="white"/>
<path d="M67.8468 57.2803L53.6614 40.9584C53.1905 40.4166 52.3696 40.3591 51.8278 40.83C51.286 41.3009 51.2285 42.1218 51.6993 42.6637L65.8847 58.9855C66.3556 59.5273 67.1766 59.5848 67.7184 59.1139C68.2602 58.643 68.3177 57.8221 67.8468 57.2803Z" fill="white"/>
<path d="M73.9836 57.1734L53.7081 33.8441C53.2372 33.3023 52.4162 33.2448 51.8744 33.7157C51.3326 34.1866 51.2751 35.0076 51.746 35.5494L72.0215 58.8786C72.4924 59.4205 73.3134 59.478 73.8552 59.0071C74.397 58.5362 74.4545 57.7152 73.9836 57.1734Z" fill="white"/>
</svg>
