<svg width="" height="98" viewBox="0 0 109 98" fill="none" xmlns="http://www.w3.org/2000/svg">
<path d="M86.0109 96.1655L20.4245 20.6955C19.3962 19.4957 19.5104 17.6961 20.7102 16.6678L37.9352 1.69944C39.1349 0.67108 40.9346 0.785342 41.9629 1.98509L107.549 77.4551C108.578 78.6549 108.463 80.4545 107.264 81.4828L90.0101 96.4797C88.8389 97.4795 87.0393 97.3653 86.0109 96.1655Z" fill="#E8F7FF" stroke="#1A53F0" stroke-miterlimit="10"/>
<path d="M45.4336 20.0667C45.4336 23.703 42.4858 26.6509 38.8494 26.6509C35.213 26.6509 32.2651 23.703 32.2651 20.0667C32.2651 16.4303 35.213 13.4824 38.8494 13.4824C42.4858 13.4824 45.4336 16.4303 45.4336 20.0667Z" fill="#E8F7FF" stroke="#1A53F0"/>
<mask id="path-3-inside-1" fill="white">
<path d="M38.8489 13.0686C42.7052 13.0686 45.8474 16.2108 45.8474 20.0672C45.8474 23.9235 42.7052 27.0657 38.8489 27.0657C34.9926 27.0657 31.8503 23.9235 31.8503 20.0672C31.8503 16.2108 34.9926 13.0686 38.8489 13.0686ZM38.8489 12.9258C34.9069 12.9258 31.7075 16.1251 31.7075 20.0672C31.7075 24.0092 34.9069 27.2085 38.8489 27.2085C42.7909 27.2085 45.9903 24.0092 45.9903 20.0672C45.9903 16.1251 42.7909 12.9258 38.8489 12.9258Z"/>
</mask>
<path d="M38.8489 13.0686C42.7052 13.0686 45.8474 16.2108 45.8474 20.0672C45.8474 23.9235 42.7052 27.0657 38.8489 27.0657C34.9926 27.0657 31.8503 23.9235 31.8503 20.0672C31.8503 16.2108 34.9926 13.0686 38.8489 13.0686ZM38.8489 12.9258C34.9069 12.9258 31.7075 16.1251 31.7075 20.0672C31.7075 24.0092 34.9069 27.2085 38.8489 27.2085C42.7909 27.2085 45.9903 24.0092 45.9903 20.0672C45.9903 16.1251 42.7909 12.9258 38.8489 12.9258Z" fill="#1A53F0"/>
<path d="M38.8489 14.0686C42.1529 14.0686 44.8474 16.7631 44.8474 20.0672H46.8474C46.8474 15.6585 43.2575 12.0686 38.8489 12.0686V14.0686ZM44.8474 20.0672C44.8474 23.3712 42.1529 26.0657 38.8489 26.0657V28.0657C43.2575 28.0657 46.8474 24.4758 46.8474 20.0672H44.8474ZM38.8489 26.0657C35.5448 26.0657 32.8503 23.3712 32.8503 20.0672H30.8503C30.8503 24.4758 34.4403 28.0657 38.8489 28.0657V26.0657ZM32.8503 20.0672C32.8503 16.7631 35.5448 14.0686 38.8489 14.0686V12.0686C34.4403 12.0686 30.8503 15.6585 30.8503 20.0672H32.8503ZM38.8489 11.9258C34.3546 11.9258 30.7075 15.5728 30.7075 20.0672H32.7075C32.7075 16.6774 35.4591 13.9258 38.8489 13.9258V11.9258ZM30.7075 20.0672C30.7075 24.5615 34.3546 28.2085 38.8489 28.2085V26.2085C35.4591 26.2085 32.7075 23.4569 32.7075 20.0672H30.7075ZM38.8489 28.2085C43.3432 28.2085 46.9903 24.5615 46.9903 20.0672H44.9903C44.9903 23.4569 42.2386 26.2085 38.8489 26.2085V28.2085ZM46.9903 20.0672C46.9903 15.5728 43.3432 11.9258 38.8489 11.9258V13.9258C42.2386 13.9258 44.9903 16.6774 44.9903 20.0672H46.9903Z" fill="#1A53F0" mask="url(#path-3-inside-1)"/>
<g style="mix-blend-mode:screen" opacity="0.5">
<path d="M69.694 70.7792L69.6856 70.7684L69.6766 70.758L39.9114 36.5366L39.9104 36.5354C39.9079 36.5326 39.8986 36.5186 39.9007 36.4906C39.9027 36.4625 39.9144 36.4466 39.9203 36.4413C39.9204 36.4413 39.9204 36.4412 39.9205 36.4411L55.0305 23.302L55.0316 23.301C55.0344 23.2986 55.0485 23.2892 55.0765 23.2913C55.1046 23.2933 55.1204 23.305 55.1258 23.3109C55.1258 23.311 55.1259 23.3111 55.1259 23.3111L84.8901 57.5599L84.8912 57.5611C84.8936 57.5639 84.903 57.578 84.9009 57.606C84.8988 57.6341 84.8872 57.65 84.8813 57.6553C84.8812 57.6553 84.8811 57.6554 84.8811 57.6554L69.7847 70.7827C69.7553 70.8032 69.7346 70.8036 69.7276 70.8029C69.7231 70.8024 69.7193 70.8012 69.7153 70.799C69.7116 70.7969 69.7038 70.7918 69.694 70.7792Z" fill="#6B93C0"/>
<path d="M69.694 70.7792L69.6856 70.7684L69.6766 70.758L39.9114 36.5366L39.9104 36.5354C39.9079 36.5326 39.8986 36.5186 39.9007 36.4906C39.9027 36.4625 39.9144 36.4466 39.9203 36.4413C39.9204 36.4413 39.9204 36.4412 39.9205 36.4411L55.0305 23.302L55.0316 23.301C55.0344 23.2986 55.0485 23.2892 55.0765 23.2913C55.1046 23.2933 55.1204 23.305 55.1258 23.3109C55.1258 23.311 55.1259 23.3111 55.1259 23.3111L84.8901 57.5599L84.8912 57.5611C84.8936 57.5639 84.903 57.578 84.9009 57.606C84.8988 57.6341 84.8872 57.65 84.8813 57.6553C84.8812 57.6553 84.8811 57.6554 84.8811 57.6554L69.7847 70.7827C69.7553 70.8032 69.7346 70.8036 69.7276 70.8029C69.7231 70.8024 69.7193 70.8012 69.7153 70.799C69.7116 70.7969 69.7038 70.7918 69.694 70.7792Z" stroke="#1A53F0"/>
</g>
<path d="M0.642578 91.6958V64.416H88.5528C96.075 64.416 102.193 70.5337 102.193 78.0559C102.193 85.5782 96.075 91.6958 88.5528 91.6958H0.642578Z" fill="white" stroke="#1A53F0"/>
<mask id="path-7-inside-2" fill="white">
<path d="M88.553 64.0571C96.2657 64.0571 102.55 70.3415 102.55 78.0542C102.55 85.7669 96.2657 92.0513 88.553 92.0513H0.285655V64.0571H88.553ZM88.553 63.7715H0V92.337H88.553C96.4371 92.337 102.836 85.9383 102.836 78.0542C102.836 70.1701 96.4371 63.7715 88.553 63.7715Z"/>
</mask>
<path d="M88.553 64.0571C96.2657 64.0571 102.55 70.3415 102.55 78.0542C102.55 85.7669 96.2657 92.0513 88.553 92.0513H0.285655V64.0571H88.553ZM88.553 63.7715H0V92.337H88.553C96.4371 92.337 102.836 85.9383 102.836 78.0542C102.836 70.1701 96.4371 63.7715 88.553 63.7715Z" fill="black"/>
<path d="M0.285655 92.0513H-0.714345V93.0513H0.285655V92.0513ZM0.285655 64.0571V63.0571H-0.714345V64.0571H0.285655ZM0 63.7715V62.7715H-1V63.7715H0ZM0 92.337H-1V93.337H0V92.337ZM88.553 65.0571C95.7134 65.0571 101.55 70.8938 101.55 78.0542H103.55C103.55 69.7893 96.818 63.0571 88.553 63.0571V65.0571ZM101.55 78.0542C101.55 85.2146 95.7134 91.0513 88.553 91.0513V93.0513C96.818 93.0513 103.55 86.3192 103.55 78.0542H101.55ZM88.553 91.0513H0.285655V93.0513H88.553V91.0513ZM1.28565 92.0513V64.0571H-0.714345V92.0513H1.28565ZM0.285655 65.0571H88.553V63.0571H0.285655V65.0571ZM88.553 62.7715H0V64.7715H88.553V62.7715ZM-1 63.7715V92.337H1V63.7715H-1ZM0 93.337H88.553V91.337H0V93.337ZM88.553 93.337C96.9894 93.337 103.836 86.4906 103.836 78.0542H101.836C101.836 85.386 95.8848 91.337 88.553 91.337V93.337ZM103.836 78.0542C103.836 69.6179 96.9894 62.7715 88.553 62.7715V64.7715C95.8848 64.7715 101.836 70.7224 101.836 78.0542H103.836Z" fill="#1A53F0" mask="url(#path-7-inside-2)"/>
<path d="M93.624 78.3403C93.624 81.9294 90.7145 84.8389 87.1255 84.8389C83.5365 84.8389 80.627 81.9294 80.627 78.3403C80.627 74.7513 83.5365 71.8418 87.1255 71.8418C90.7145 71.8418 93.624 74.7513 93.624 78.3403Z" fill="white" stroke="#1A53F0"/>
<mask id="path-10-inside-3" fill="white">
<path d="M87.1253 71.4849C90.8959 71.4849 93.981 74.5699 93.981 78.3406C93.981 82.1112 90.8959 85.1963 87.1253 85.1963C83.3546 85.1963 80.2695 82.1112 80.2695 78.3406C80.2695 74.5699 83.3546 71.4849 87.1253 71.4849ZM87.1253 71.1992C83.1832 71.1992 79.9839 74.3985 79.9839 78.3406C79.9839 82.2826 83.1832 85.482 87.1253 85.482C91.0673 85.482 94.2666 82.2826 94.2666 78.3406C94.2666 74.3985 91.0673 71.1992 87.1253 71.1992Z"/>
</mask>
<path d="M87.1253 71.4849C90.8959 71.4849 93.981 74.5699 93.981 78.3406C93.981 82.1112 90.8959 85.1963 87.1253 85.1963C83.3546 85.1963 80.2695 82.1112 80.2695 78.3406C80.2695 74.5699 83.3546 71.4849 87.1253 71.4849ZM87.1253 71.1992C83.1832 71.1992 79.9839 74.3985 79.9839 78.3406C79.9839 82.2826 83.1832 85.482 87.1253 85.482C91.0673 85.482 94.2666 82.2826 94.2666 78.3406C94.2666 74.3985 91.0673 71.1992 87.1253 71.1992Z" fill="black"/>
<path d="M87.1253 72.4849C90.3436 72.4849 92.981 75.1222 92.981 78.3406H94.981C94.981 74.0177 91.4482 70.4849 87.1253 70.4849V72.4849ZM92.981 78.3406C92.981 81.5589 90.3436 84.1963 87.1253 84.1963V86.1963C91.4482 86.1963 94.981 82.6635 94.981 78.3406H92.981ZM87.1253 84.1963C83.9069 84.1963 81.2695 81.5589 81.2695 78.3406H79.2695C79.2695 82.6635 82.8023 86.1963 87.1253 86.1963V84.1963ZM81.2695 78.3406C81.2695 75.1222 83.9069 72.4849 87.1253 72.4849V70.4849C82.8023 70.4849 79.2695 74.0177 79.2695 78.3406H81.2695ZM87.1253 70.1992C82.6309 70.1992 78.9839 73.8463 78.9839 78.3406H80.9839C80.9839 74.9508 83.7355 72.1992 87.1253 72.1992V70.1992ZM78.9839 78.3406C78.9839 82.8349 82.6309 86.482 87.1253 86.482V84.482C83.7355 84.482 80.9839 81.7303 80.9839 78.3406H78.9839ZM87.1253 86.482C91.6196 86.482 95.2666 82.8349 95.2666 78.3406H93.2666C93.2666 81.7303 90.515 84.482 87.1253 84.482V86.482ZM95.2666 78.3406C95.2666 73.8463 91.6196 70.1992 87.1253 70.1992V72.1992C90.515 72.1992 93.2666 74.9508 93.2666 78.3406H95.2666Z" fill="#1A53F0" mask="url(#path-10-inside-3)"/>
<path d="M62.1897 37.3108L72.6836 49.3851C72.9733 49.7185 72.9379 50.2236 72.6045 50.5134C72.2712 50.8031 71.766 50.7677 71.4763 50.4344L60.9825 38.3601C60.6927 38.0267 60.7281 37.5215 61.0615 37.2318C61.3949 36.9421 61.9 36.9774 62.1897 37.3108Z" fill="#1A53F0" stroke="#1A53F0"/>
<path d="M53.284 41.2854L67.4694 57.6073C67.7591 57.9407 67.7237 58.4458 67.3904 58.7355C67.057 59.0253 66.5518 58.9899 66.2621 58.6565L52.0767 42.3347C51.787 42.0013 51.8223 41.4962 52.1557 41.2064C52.4891 40.9167 52.9942 40.9521 53.284 41.2854Z" fill="#1A53F0" stroke="#1A53F0"/>
<path d="M53.3309 34.1721L73.6064 57.5014C73.8961 57.8348 73.8608 58.3399 73.5274 58.6297C73.194 58.9194 72.6889 58.884 72.3991 58.5506L52.1236 35.2214C51.8338 34.888 51.8692 34.3829 52.2026 34.0931C52.536 33.8034 53.0411 33.8388 53.3309 34.1721Z" fill="#1A53F0" stroke="#1A53F0"/>
</svg>
