<svg width="92" height="92" viewBox="0 0 92 92" fill="none" xmlns="http://www.w3.org/2000/svg">
<path d="M43.2964 59.1363C42.4788 58.3146 41.1574 58.3146 40.3398 59.1321L32.5888 66.8894H27.1817C26.0254 66.8894 25.0908 67.8261 25.0908 68.9824V73.1663H20.909C19.7527 73.1663 18.8181 74.103 18.8181 75.2593V79.4431H14.6364C13.4823 79.4431 12.5456 80.3798 12.5456 81.5361V86.9474L11.68 87.8131H4.18187V80.311L39.1126 45.351C39.9302 44.5356 39.9302 43.2099 39.1147 42.3925L38.5022 41.7778C37.9439 41.2216 37.6386 40.4813 37.6386 39.693V39.6846C37.6386 38.5283 36.704 37.5957 35.5478 37.5957C34.3915 37.5957 33.4569 38.5365 33.4569 39.6928C33.4569 41.1837 33.9106 42.6054 34.7534 43.7973L0.612555 77.9648C0.219578 78.358 0 78.889 0 79.4453V89.9081C0 91.0623 0.936711 91.999 2.09084 91.999H12.5454C13.0996 91.999 13.6327 91.7774 14.0237 91.3864L16.1146 89.2934C16.5077 88.9002 16.7271 88.3693 16.7271 87.8151V83.6313H20.909C22.0653 83.6313 22.9998 82.6946 22.9998 81.5383V77.3544H27.1817C28.338 77.3544 29.2725 76.4177 29.2725 75.2614V71.0776H33.4544C34.0105 71.0776 34.5417 70.856 34.9327 70.465L43.2962 62.0952C44.114 61.2773 44.114 59.9537 43.2964 59.1363Z" fill="#C3CEEB"/>
<path d="M75.7059 24.6106L67.3423 16.2408C64.8791 13.7713 60.5762 13.7713 58.113 16.2408C55.5685 18.7875 55.5685 22.9316 58.113 25.4763L66.4766 33.8462C67.7081 35.0797 69.3474 35.7593 71.0911 35.7593C72.835 35.7593 74.4743 35.0797 75.7057 33.8462C78.2504 31.2995 78.2504 27.1553 75.7059 24.6106ZM72.7493 30.8855C71.8627 31.772 70.3197 31.772 69.4331 30.8855L61.0696 22.5156C60.158 21.6019 60.158 20.1132 61.0696 19.1973C61.5129 18.754 62.1005 18.5095 62.7277 18.5095C63.355 18.5095 63.9426 18.754 64.3859 19.1973L72.7495 27.5672C73.663 28.4809 73.663 29.9718 72.7493 30.8855Z" fill="#C3CEEB"/>
<path d="M89.9092 26.2679L65.6839 2.02378C62.9845 -0.673514 58.2884 -0.67567 55.5891 2.02378L35.5455 22.0819C34.1969 23.4305 33.4546 25.2245 33.4546 27.1335C33.4546 29.0425 34.1969 30.8365 35.5455 32.185L55.5889 52.2432L54.3595 53.4748C53.8034 54.0309 53.063 54.3384 52.2769 54.3384H52.2748C51.4865 54.3384 50.7442 54.0309 50.1859 53.4728L44.3417 47.6245C43.5242 46.8069 42.2027 46.8069 41.3852 47.6245L29.8852 59.133C29.0676 59.9505 29.0676 61.2741 29.8852 62.0915C30.2929 62.4992 30.8282 62.7041 31.3634 62.7041C31.8987 62.7041 32.434 62.4992 32.8417 62.0915L42.8634 52.0635L47.2293 56.4314C48.5779 57.7799 50.3677 58.5222 52.2767 58.5222C52.2789 58.5222 52.2809 58.5222 52.283 58.5222C54.1857 58.52 55.9734 57.7758 57.3159 56.4314L60.0236 53.7215C60.8412 52.9039 60.8412 51.5803 60.0236 50.7629L38.5021 29.2245C37.9416 28.6662 37.6365 27.9239 37.6365 27.1337C37.6365 26.3432 37.9418 25.6011 38.5021 25.0407L58.5455 4.98449C59.664 3.86378 61.6086 3.86593 62.7274 4.98449L86.9526 29.2286C87.5131 29.7869 87.8184 30.5292 87.8184 31.3195C87.8184 32.1098 87.5131 32.852 86.9526 33.4125L66.9092 53.4685C66.3488 54.0289 65.6087 54.3362 64.8184 54.3362C63.6621 54.3362 62.7275 55.2729 62.7275 56.4292C62.7275 57.5855 63.6621 58.5222 64.8184 58.5222C66.7233 58.5222 68.5173 57.7799 69.8658 56.4292L89.9092 36.371C91.2578 35.0225 92.0001 33.2285 92.0001 31.3195C92.0001 29.4085 91.2578 27.6145 89.9092 26.2679Z" fill="#C3CEEB"/>
</svg>
