<svg viewBox="0 0 92 92" fill="none" xmlns="http://www.w3.org/2000/svg">
<g>
<path d="M43.2964 59.1373C42.4788 58.3155 41.1574 58.3155 40.3398 59.1331L32.5888 66.8904H27.1817C26.0254 66.8904 25.0908 67.8271 25.0908 68.9834V73.1673H20.909C19.7527 73.1673 18.8181 74.104 18.8181 75.2603V79.4441H14.6364C13.4823 79.4441 12.5456 80.3808 12.5456 81.5371V86.9484L11.68 87.8141H4.18187V80.312L39.1126 45.352C39.9302 44.5366 39.9302 43.2108 39.1147 42.3934L38.5022 41.7787C37.9439 41.2226 37.6386 40.4823 37.6386 39.694V39.6855C37.6386 38.5293 36.704 37.5967 35.5478 37.5967C34.3915 37.5967 33.4569 38.5375 33.4569 39.6938C33.4569 41.1847 33.9106 42.6064 34.7534 43.7982L0.612555 77.9658C0.219578 78.359 0 78.8899 0 79.4463V89.9091C0 91.0632 0.936711 91.9999 2.09084 91.9999H12.5454C13.0996 91.9999 13.6327 91.7784 14.0237 91.3874L16.1146 89.2944C16.5077 88.9012 16.7271 88.3703 16.7271 87.8161V83.6323H20.909C22.0653 83.6323 22.9998 82.6955 22.9998 81.5393V77.3554H27.1817C28.338 77.3554 29.2725 76.4187 29.2725 75.2624V71.0786H33.4544C34.0105 71.0786 34.5417 70.857 34.9327 70.466L43.2962 62.0962C44.114 61.2782 44.114 59.9547 43.2964 59.1373Z" fill="#C3CEEB"/>
<path d="M75.7056 24.6096L67.3421 16.2398C64.8789 13.7703 60.5759 13.7703 58.1128 16.2398C55.5682 18.7865 55.5682 22.9306 58.1128 25.4754L66.4763 33.8452C67.7079 35.0788 69.3472 35.7583 71.0909 35.7583C72.8347 35.7583 74.474 35.0788 75.7054 33.8452C78.2502 31.2985 78.2502 27.1544 75.7056 24.6096ZM72.749 30.8845C71.8625 31.7711 70.3195 31.7711 69.4329 30.8845L61.0693 22.5146C60.1578 21.6009 60.1578 20.1122 61.0693 19.1964C61.5126 18.7531 62.1002 18.5085 62.7275 18.5085C63.3548 18.5085 63.9424 18.7531 64.3857 19.1964L72.7492 27.5662C73.6627 28.4799 73.6627 29.9708 72.749 30.8845Z" fill="#C3CEEB"/>
<path d="M89.9092 26.2679L65.6839 2.02378C62.9845 -0.673514 58.2884 -0.67567 55.5891 2.02378L35.5455 22.0819C34.1969 23.4305 33.4546 25.2245 33.4546 27.1335C33.4546 29.0425 34.1969 30.8365 35.5455 32.185L55.5889 52.2432L54.3595 53.4748C53.8034 54.0309 53.063 54.3384 52.2769 54.3384H52.2748C51.4865 54.3384 50.7442 54.0309 50.1859 53.4728L44.3417 47.6245C43.5242 46.8069 42.2027 46.8069 41.3852 47.6245L29.8852 59.133C29.0676 59.9505 29.0676 61.2741 29.8852 62.0915C30.2929 62.4992 30.8282 62.7041 31.3634 62.7041C31.8987 62.7041 32.434 62.4992 32.8417 62.0915L42.8634 52.0635L47.2293 56.4314C48.5779 57.7799 50.3677 58.5222 52.2767 58.5222C52.2789 58.5222 52.2809 58.5222 52.283 58.5222C54.1857 58.52 55.9734 57.7758 57.3159 56.4314L60.0236 53.7215C60.8412 52.9039 60.8412 51.5803 60.0236 50.7629L38.5021 29.2245C37.9416 28.6662 37.6365 27.9239 37.6365 27.1337C37.6365 26.3432 37.9418 25.6011 38.5021 25.0407L58.5455 4.98449C59.664 3.86378 61.6086 3.86593 62.7274 4.98449L86.9526 29.2286C87.5131 29.7869 87.8184 30.5292 87.8184 31.3195C87.8184 32.1098 87.5131 32.852 86.9526 33.4125L66.9092 53.4685C66.3488 54.0289 65.6087 54.3362 64.8184 54.3362C63.6621 54.3362 62.7275 55.2729 62.7275 56.4292C62.7275 57.5855 63.6621 58.5222 64.8184 58.5222C66.7233 58.5222 68.5173 57.7799 69.8658 56.4292L89.9092 36.371C91.2578 35.0225 92.0001 33.2285 92.0001 31.3195C92.0001 29.4085 91.2578 27.6145 89.9092 26.2679Z" fill="#C3CEEB"/>
</g>
<defs>
</defs>
</svg>
