<svg width="" height="94" viewBox="0 0 64 94" fill="none" xmlns="http://www.w3.org/2000/svg">
<path d="M63.3332 83.388C53.6152 86.779 43.9773 90.0103 34.4193 93.481C32.4597 94.1991 30.8601 94.1592 28.9405 93.4411C20.0624 90.1699 11.1843 87.0582 2.26616 83.9465C1.06642 83.5077 0.666504 82.9891 0.666504 81.6726C0.706495 66.8723 0.706495 52.0322 0.666504 37.2318C0.666504 35.6361 1.30637 34.6787 2.66608 34.2C3.90581 33.7213 5.18554 33.2027 6.46527 33.083C8.06493 32.8835 8.26489 32.0857 8.30488 30.6894C8.30488 25.982 7.82498 21.2348 9.42464 16.6471C12.384 7.9105 18.5027 2.64462 27.5408 0.53029C41.3778 -2.66115 56.0147 8.98761 55.8148 23.7879C55.7748 26.3012 55.7348 28.8543 55.8548 31.3676C55.8947 31.9261 56.5746 32.7239 57.0945 32.8835C63.3332 34.5989 63.3332 34.5989 63.3332 40.9419C63.3332 54.9842 63.3332 69.0665 63.3332 83.388ZM52.9754 60.1703C52.9754 56.1012 52.9754 52.072 52.9754 48.003C52.9754 44.5722 52.9754 44.3328 49.5361 44.0934C42.1777 43.5748 34.7792 43.136 27.3808 43.0961C22.3419 43.0562 17.303 43.7743 12.264 44.1732C10.4244 44.3328 9.58461 45.1706 9.6246 47.2849C9.78456 55.9816 9.70458 64.7181 9.66459 73.4148C9.66459 74.7712 10.0245 75.3696 11.3442 75.8483C17.7029 78.0424 23.9815 80.3961 30.3402 82.5902C31.14 82.8694 32.1798 82.8295 32.9796 82.5503C39.0583 80.3961 45.097 78.0823 51.1758 75.9281C52.4955 75.4493 53.0154 74.8509 52.9754 73.3749C52.8954 68.9468 52.9754 64.5586 52.9754 60.1703ZM45.8969 31.2878C45.8969 28.3357 46.1368 25.3437 45.8569 22.4315C45.177 15.4902 39.6182 10.344 32.6997 9.98493C25.9011 9.62589 19.7025 14.1338 18.5027 20.9156C17.9028 24.3065 18.3827 27.857 18.3827 31.2878C27.5008 31.2878 36.6588 31.2878 45.8969 31.2878Z" fill="#1A53F0"/>
</svg>
