<svg width="" height="94" viewBox="0 0 64 94" fill="none" xmlns="http://www.w3.org/2000/svg">
<path d="M63.3334 83.388C53.6155 86.779 43.9775 90.0103 34.4196 93.481C32.46 94.1991 30.8603 94.1592 28.9407 93.4411C20.0626 90.1699 11.1845 87.0582 2.26641 83.9465C1.06666 83.5077 0.666748 82.9891 0.666748 81.6726C0.70674 66.8723 0.70674 52.0322 0.666748 37.2318C0.666748 35.6361 1.30661 34.6787 2.66632 34.2C3.90606 33.7213 5.18579 33.2027 6.46551 33.083C8.06517 32.8835 8.26513 32.0857 8.30512 30.6894C8.30512 25.982 7.82522 21.2348 9.42488 16.6471C12.3843 7.9105 18.503 2.64462 27.541 0.53029C41.3781 -2.66115 56.015 8.98761 55.815 23.7879C55.775 26.3012 55.735 28.8543 55.855 31.3676C55.895 31.9261 56.5748 32.7239 57.0947 32.8835C63.3334 34.5989 63.3334 34.5989 63.3334 40.9419C63.3334 54.9842 63.3334 69.0665 63.3334 83.388ZM52.9756 60.1703C52.9756 56.1012 52.9756 52.072 52.9756 48.003C52.9756 44.5722 52.9756 44.3328 49.5364 44.0934C42.1779 43.5748 34.7795 43.136 27.3811 43.0961C22.3421 43.0562 17.3032 43.7743 12.2643 44.1732C10.4247 44.3328 9.58485 45.1706 9.62484 47.2849C9.78481 55.9816 9.70482 64.7181 9.66483 73.4148C9.66483 74.7712 10.0248 75.3696 11.3445 75.8483C17.7031 78.0424 23.9818 80.3961 30.3404 82.5902C31.1403 82.8694 32.18 82.8295 32.9799 82.5503C39.0586 80.3961 45.0973 78.0823 51.176 75.9281C52.4957 75.4493 53.0156 74.8509 52.9756 73.3749C52.8956 68.9468 52.9756 64.5586 52.9756 60.1703ZM45.8971 31.2878C45.8971 28.3357 46.1371 25.3437 45.8571 22.4315C45.1773 15.4902 39.6185 10.344 32.6999 9.98493C25.9014 9.62589 19.7027 14.1338 18.503 20.9156C17.9031 24.3065 18.383 27.857 18.383 31.2878C27.501 31.2878 36.6591 31.2878 45.8971 31.2878Z" fill="#C3CEEB"/>
</svg>
