<svg width="" height="76" viewBox="0 0 83 76" fill="none" xmlns="http://www.w3.org/2000/svg">
<path d="M3.91428 1.22501L1.08326 8.65644C0.377073 10.5102 0.238172 12.5321 0.684227 14.465L1.5 18L5.82474 36.7405C5.9412 37.2452 6 37.7615 6 38.2794C6 39.0868 5.85714 39.8878 5.57804 40.6453L2.76949 48.2685C2.5901 48.7554 2.44888 49.2556 2.34712 49.7644L1.47988 54.1006C1.16461 55.677 1.23402 57.3061 1.68222 58.8499L5.21495 71.0182C5.39344 71.633 5.86257 72.1209 6.4699 72.3233C6.81632 72.4388 7.18821 72.4546 7.54317 72.3689L20.6401 69.2076C21.2113 69.0697 21.797 69 22.3846 69C22.7942 69 23.203 69.0338 23.607 69.1012L23.8829 69.1471C25.2784 69.3797 26.6087 69.9058 27.7859 70.6906L34.4052 75.1035C34.8 75.3666 35.2281 75.576 35.6782 75.7261C36.2225 75.9075 36.7925 76 37.3663 76H46.1863C46.7252 76 47.2607 75.9131 47.772 75.7427C48.2545 75.5818 48.7098 75.3485 49.1221 75.0507L57.3386 69.1166C57.446 69.039 57.5596 68.9702 57.6781 68.9109C58.2081 68.646 58.816 68.5816 59.3898 68.7296L73.3228 72.3252C73.7725 72.4413 74.235 72.5 74.6994 72.5H75.5941C75.861 72.5 76.1243 72.4379 76.363 72.3185C76.7709 72.1146 77.081 71.757 77.2252 71.3244L81.6911 57.9268C81.8957 57.3129 82 56.6701 82 56.0231C82 55.3459 81.8857 54.6735 81.662 54.0344L78.5 45L77.4575 40.4827C77.1556 39.1743 77.1203 37.8185 77.3536 36.4962L78.5 30L81.5 17.5L82.1883 13.7142C82.3946 12.58 82.4031 11.4186 82.2136 10.2814L82.198 10.1881C82.0665 9.39889 81.8407 8.62831 81.5255 7.8929L79 2L78.5 1L78.3646 0.729184C78.1411 0.282292 77.6844 0 77.1847 0C77.0622 0 76.9402 0.0170824 76.8224 0.0507541L73.5 1L66 4L59.5 6.5L55.1603 8.26395C53.9644 8.75005 52.6857 9 51.3948 9H31.3133C30.1142 9 28.9249 8.78433 27.8021 8.36329L25.5 7.5L20 5.5L12 2.5L8.90931 1.34099C8.30453 1.1142 7.67919 0.946532 7.04207 0.840345L5.08213 0.513689C5.02747 0.504579 4.97215 0.5 4.91673 0.5C4.6499 0.5 4.394 0.605998 4.20532 0.794675L4.17026 0.829736C4.05802 0.941976 3.97079 1.07668 3.91428 1.22501Z" fill="#C3CEEB"/>
<path d="M3 12.5L5.69887 3.95358C5.87813 3.38593 6.40471 3 7 3C7.65075 3 8.28562 3.20099 8.81781 3.57549L33.5708 20.9943C34.3924 21.5724 34.6677 22.6645 34.2184 23.5631C34.0749 23.8503 33.8652 24.0993 33.6068 24.2898L25.7714 30.0632C24.929 30.6839 23.9944 31.1685 23.0017 31.4994L21.5 32L10.8636 34.9008C10.6223 34.9666 10.3732 35 10.1231 35C8.8664 35 7.76198 34.1669 7.41675 32.9586L7 31.5L3.02754 16.4929C2.68148 15.1856 2.67201 13.812 3 12.5Z" fill="white"/>
<path d="M67.5 8L49.1273 20.9106C49.0426 20.9701 48.9632 21.0368 48.89 21.11C48.1436 21.8564 48.1992 23.0827 49.0102 23.7585L55.6375 29.2813C56.2106 29.7588 56.837 30.1685 57.5042 30.5021L58.6687 31.0844C59.2217 31.3609 59.7992 31.5855 60.3936 31.7553L73.0212 35.3632C73.3292 35.4512 73.6589 35.4205 73.9454 35.2773C74.2957 35.1022 74.5465 34.7763 74.6262 34.3929L75.3316 31L78 22.5L79.5 16L79.6899 15.0504C79.8931 14.0344 79.8277 12.983 79.5 12L78 8L76.8573 4.57194C76.6439 3.93179 76.0449 3.5 75.3701 3.5C75.1267 3.5 74.8867 3.55666 74.669 3.6655L74 4L67.5 8Z" fill="white"/>
<path d="M48.5 48.5729V50.5738C48.5 50.8092 48.6908 51 48.9262 51C48.975 51 49.0235 50.9916 49.0695 50.9752L55.6473 48.626C55.8588 48.5504 56 48.3501 56 48.1255C56 48.043 56.0192 47.9616 56.0561 47.8878L56.0742 47.8515C56.2858 47.4284 56.0276 46.9213 55.5609 46.8435L53.869 46.5615C53.6252 46.5209 53.3912 46.4347 53.1793 46.3076L52.0889 45.6533C51.424 45.2544 50.5886 45.2743 49.9434 45.7044C49.6528 45.8981 49.4179 46.1643 49.2617 46.4766L48.7562 47.4875C48.5877 47.8245 48.5 48.1962 48.5 48.5729Z" fill="white"/>
<path d="M27.9755 46.6748L27.1854 46.9382C27.0635 46.9788 26.9527 47.0473 26.8618 47.1382C26.6401 47.3599 26.5626 47.6879 26.6618 47.9854L26.7764 48.3292C26.9172 48.7515 27.2485 49.0828 27.6708 49.2236L28.5 49.5L31 50L33.1086 50.4217C33.3623 50.4725 33.6256 50.4372 33.857 50.3215C34.2511 50.1245 34.5 49.7217 34.5 49.2811V48.9932C34.5 48.6716 34.4048 48.3572 34.2264 48.0896L33.7464 47.3697C33.5825 47.1238 33.3948 46.8948 33.1858 46.6858L32.5 46L32.3536 45.8536C32.1272 45.6272 31.8201 45.5 31.5 45.5H31C30.3479 45.5 29.7105 45.693 29.1679 46.0547L28.96 46.1933C28.6547 46.3969 28.3236 46.5588 27.9755 46.6748Z" fill="white"/>
<path d="M35.204 64.1839L35 65L34.6288 67.2271C34.548 67.7121 34.7064 68.2064 35.0541 68.554C35.3396 68.8396 35.7269 69 36.1307 69H36.5H45.8486C46.2733 69 46.6886 68.8743 47.042 68.6387C47.6405 68.2397 48 67.5679 48 66.8486V66.7805C48 66.5942 47.9771 66.4086 47.932 66.2279L47.5 64.5L47.2252 63.6756C47.081 63.243 46.7709 62.8854 46.363 62.6815C46.1243 62.5621 45.861 62.5 45.5941 62.5H42H41.5H37.3608C37.1218 62.5 36.8844 62.5385 36.6577 62.6141C35.9367 62.8544 35.3884 63.4465 35.204 64.1839Z" fill="white"/>
</svg>
