<svg width="83" height="76" viewBox="0 0 83 76" fill="none" xmlns="http://www.w3.org/2000/svg">
<path fill-rule="evenodd" clip-rule="evenodd" d="M1.08481 8.65644L3.91583 1.22501C3.97234 1.07668 4.05957 0.941976 4.17181 0.829736L4.20688 0.794675C4.39555 0.605998 4.65145 0.5 4.91828 0.5C4.9737 0.5 5.02902 0.504579 5.08368 0.513689L7.04362 0.840345C7.68074 0.946532 8.30608 1.1142 8.91086 1.34099L12.0016 2.5L20.0016 5.5L25.5016 7.5L27.8037 8.36329C28.9264 8.78433 30.1158 9 31.3149 9H51.3963C52.6873 9 53.966 8.75005 55.1619 8.26395L59.5016 6.5L66.0015 4L73.5015 1L76.8239 0.0507541C76.9418 0.0170824 77.0637 0 77.1863 0C77.6859 0 78.1427 0.282292 78.3661 0.729184L78.5015 1L79.0015 2L81.5271 7.8929C81.8423 8.62831 82.068 9.39889 82.1996 10.1881L82.2151 10.2814C82.4046 11.4186 82.3961 12.58 82.1899 13.7142L81.5015 17.5L78.5015 30L77.3552 36.4962C77.1218 37.8185 77.1572 39.1743 77.4591 40.4827L78.5015 45L81.6636 54.0344C81.8873 54.6735 82.0015 55.3459 82.0015 56.0231C82.0015 56.6701 81.8972 57.3129 81.6926 57.9268L77.2268 71.3244C77.0826 71.757 76.7724 72.1146 76.3646 72.3185C76.1258 72.4379 75.8626 72.5 75.5957 72.5H74.701C74.2366 72.5 73.774 72.4413 73.3243 72.3252L59.3913 68.7296C58.8176 68.5816 58.2096 68.646 57.6797 68.9109C57.5611 68.9702 57.4476 69.039 57.3401 69.1166L49.1237 75.0507C48.7113 75.3485 48.2561 75.5818 47.7735 75.7427C47.2622 75.9131 46.7268 76 46.1878 76H37.3678C36.7941 76 36.2241 75.9075 35.6797 75.7261C35.2296 75.576 34.8015 75.3666 34.4067 75.1035L27.7874 70.6906C26.6102 69.9058 25.2799 69.3797 23.8844 69.1471L23.6085 69.1012C23.2046 69.0338 22.7957 69 22.3862 69C21.7985 69 21.2129 69.0697 20.6416 69.2076L7.54472 72.3689C7.18976 72.4546 6.81787 72.4388 6.47145 72.3233C5.86412 72.1209 5.39499 71.633 5.2165 71.0182L1.68377 58.8499C1.23557 57.3061 1.16616 55.677 1.48143 54.1006L2.34867 49.7644C2.45044 49.2556 2.59165 48.7554 2.77104 48.2685L5.57959 40.6453C5.8587 39.8878 6.00155 39.0868 6.00155 38.2794C6.00155 37.7615 5.94275 37.2452 5.82629 36.7405L1.50155 18L0.685778 14.465C0.239723 12.5321 0.378624 10.5102 1.08481 8.65644ZM3.00155 12.5L5.70042 3.95358C5.87968 3.38593 6.40626 3 7.00155 3C7.6523 3 8.28717 3.20099 8.81936 3.57549L33.5724 20.9943C34.394 21.5724 34.6693 22.6645 34.22 23.5631C34.0764 23.8503 33.8668 24.0993 33.6083 24.2898L25.773 30.0632C24.9306 30.6839 23.996 31.1685 23.0033 31.4994L21.5016 32L10.8652 34.9008C10.6238 34.9666 10.3748 35 10.1246 35C8.86795 35 7.76353 34.1669 7.4183 32.9586L7.00155 31.5L3.02909 16.4929C2.68303 15.1856 2.67356 13.812 3.00155 12.5ZM67.5015 8L49.1288 20.9106C49.0441 20.9701 48.9648 21.0368 48.8916 21.11C48.1451 21.8564 48.2008 23.0827 49.0117 23.7585L55.6391 29.2813C56.2121 29.7588 56.8385 30.1685 57.5057 30.5021L58.6703 31.0844C59.2233 31.3609 59.8007 31.5855 60.3952 31.7553L73.0228 35.3632C73.3307 35.4512 73.6605 35.4205 73.9469 35.2773C74.2972 35.1022 74.548 34.7763 74.6278 34.3929L75.3331 31L78.0015 22.5L79.5015 16L79.6915 15.0504C79.8947 14.0344 79.8292 12.983 79.5015 12L78.0015 8L76.8589 4.57194C76.6455 3.93179 76.0464 3.5 75.3716 3.5C75.1283 3.5 74.8882 3.55666 74.6705 3.6655L74.0015 4L67.5015 8ZM48.5016 50.5738V48.5729C48.5016 48.1962 48.5893 47.8245 48.7578 47.4875L49.2632 46.4766C49.4194 46.1643 49.6544 45.8981 49.945 45.7044C50.5902 45.2743 51.4255 45.2544 52.0905 45.6533L53.1808 46.3076C53.3927 46.4347 53.6267 46.5209 53.8705 46.5615L55.5625 46.8435C56.0291 46.9213 56.2874 47.4284 56.0758 47.8515L56.0577 47.8878C56.0208 47.9616 56.0016 48.043 56.0016 48.1255C56.0016 48.3501 55.8604 48.5504 55.6488 48.626L49.0711 50.9752C49.0251 50.9916 48.9766 51 48.9277 51C48.6924 51 48.5016 50.8092 48.5016 50.5738ZM27.9771 46.6748L27.187 46.9382C27.065 46.9788 26.9542 47.0473 26.8634 47.1382C26.6416 47.3599 26.5642 47.6879 26.6634 47.9854L26.7779 48.3292C26.9187 48.7515 27.2501 49.0828 27.6724 49.2236L28.5016 49.5L31.0016 50L33.1102 50.4217C33.3638 50.4725 33.6272 50.4372 33.8585 50.3215C34.2526 50.1245 34.5016 49.7217 34.5016 49.2811V48.9932C34.5016 48.6716 34.4064 48.3572 34.228 48.0896L33.748 47.3697C33.5841 47.1238 33.3963 46.8948 33.1874 46.6858L32.5016 46L32.3551 45.8536C32.1287 45.6272 31.8217 45.5 31.5016 45.5H31.0016C30.3495 45.5 29.712 45.693 29.1695 46.0547L28.9615 46.1933C28.6562 46.3969 28.3252 46.5588 27.9771 46.6748ZM35.0016 65L35.2056 64.1839C35.3899 63.4465 35.9382 62.8544 36.6593 62.6141C36.886 62.5385 37.1234 62.5 37.3623 62.5H41.5016H42.0016H45.5957C45.8626 62.5 46.1258 62.5621 46.3646 62.6815C46.7724 62.8854 47.0826 63.243 47.2268 63.6756L47.5016 64.5L47.9335 66.2279C47.9787 66.4086 48.0016 66.5942 48.0016 66.7805V66.8486C48.0016 67.5679 47.6421 68.2397 47.0435 68.6387C46.6901 68.8743 46.2749 69 45.8502 69H36.5016H36.1322C35.7284 69 35.3411 68.8396 35.0556 68.554C34.7079 68.2064 34.5495 67.7121 34.6304 67.2271L35.0016 65Z" fill="#59779A"/>
</svg>
