<svg width="" height="87" viewBox="0 0 183 87" fill="none" xmlns="http://www.w3.org/2000/svg">
<rect y="13" width="57.1875" height="26.125" rx="4" fill="#DAE3FE"/>
<path d="M15.7176 21.9H15.3476C15.1876 21.9 15.1176 21.92 14.9776 22.01L12.7576 23.26C12.5876 23.36 12.5476 23.45 12.6376 23.62L12.8376 23.97C12.9276 24.14 13.0276 24.18 13.2276 24.06L15.0176 23.07V28.74C15.0176 28.93 15.0776 29 15.2776 29H15.7176C15.9176 29 15.9776 28.93 15.9776 28.74V22.16C15.9776 21.97 15.9176 21.9 15.7176 21.9ZM17.8614 27.97H17.8014C17.4114 27.97 17.2914 28.1 17.2914 28.48V28.56C17.2914 28.95 17.4114 29.06 17.8014 29.06H17.8614C18.2514 29.06 18.3714 28.94 18.3714 28.56V28.48C18.3714 28.1 18.2514 27.97 17.8614 27.97ZM26.8351 21.9H26.4651C26.1351 21.9 26.0451 21.95 25.9851 22.13L24.2651 26.94C24.1251 27.33 24.0451 27.79 24.0151 27.85H23.9751C23.9451 27.79 23.8551 27.32 23.7251 26.93L21.9851 22.13C21.9251 21.95 21.8351 21.9 21.5151 21.9H21.1251C20.9351 21.9 20.8851 21.99 20.9451 22.16L23.4451 28.79C23.5051 28.96 23.5951 29 23.7751 29H24.1851C24.3651 29 24.4451 28.96 24.5051 28.78L27.0051 22.16C27.0751 21.99 27.0251 21.9 26.8351 21.9ZM28.2239 21.95H28.1639C27.8039 21.95 27.6839 22.07 27.6839 22.43V22.51C27.6839 22.88 27.8039 22.99 28.1639 22.99H28.2239C28.5939 22.99 28.7039 22.87 28.7039 22.51V22.43C28.7039 22.07 28.5939 21.95 28.2239 21.95ZM28.4039 23.84H27.9839C27.8039 23.84 27.7439 23.9 27.7439 24.08V28.76C27.7439 28.94 27.8039 29 27.9839 29H28.4039C28.5839 29 28.6439 28.94 28.6439 28.76V24.08C28.6439 23.9 28.5839 23.84 28.4039 23.84ZM29.7226 25.61V27.24C29.7226 28.42 30.5526 29.15 31.9626 29.15C33.4026 29.15 34.2126 28.42 34.2126 27.24V25.61C34.2126 24.42 33.4026 23.69 31.9626 23.69C30.5526 23.69 29.7226 24.42 29.7226 25.61ZM33.3226 25.6V27.24C33.3226 27.93 32.8126 28.34 31.9626 28.34C31.1226 28.34 30.6126 27.93 30.6126 27.24V25.6C30.6126 24.91 31.1226 24.5 31.9626 24.5C32.8126 24.5 33.3226 24.91 33.3226 25.6ZM36.2228 28.76V21.84C36.2228 21.66 36.1628 21.6 35.9828 21.6H35.5728C35.3928 21.6 35.3328 21.66 35.3328 21.84V28.76C35.3328 28.94 35.3928 29 35.5728 29H35.9828C36.1628 29 36.2228 28.94 36.2228 28.76ZM37.9798 21.95H37.9198C37.5598 21.95 37.4398 22.07 37.4398 22.43V22.51C37.4398 22.88 37.5598 22.99 37.9198 22.99H37.9798C38.3498 22.99 38.4598 22.87 38.4598 22.51V22.43C38.4598 22.07 38.3498 21.95 37.9798 21.95ZM38.1598 23.84H37.7398C37.5598 23.84 37.4998 23.9 37.4998 24.08V28.76C37.4998 28.94 37.5598 29 37.7398 29H38.1598C38.3398 29 38.3998 28.94 38.3998 28.76V24.08C38.3998 23.9 38.3398 23.84 38.1598 23.84ZM40.0085 24.03C39.6985 24.16 39.6285 24.28 39.6285 24.59V28.76C39.6285 28.94 39.6885 29 39.8585 29H40.2785C40.4585 29 40.5185 28.94 40.5185 28.76V24.87C40.5185 24.79 40.5385 24.73 40.6385 24.69C40.9185 24.6 41.3085 24.51 41.7985 24.51C42.6585 24.51 43.0485 24.91 43.0485 25.7V28.76C43.0485 28.94 43.1085 29 43.2885 29H43.7085C43.8885 29 43.9485 28.94 43.9485 28.76V25.67C43.9485 24.43 43.3185 23.69 41.9185 23.69C40.9885 23.69 40.3985 23.87 40.0085 24.03Z" fill="#6B93C0"/>
<rect x="62.9062" y="13" width="57.1875" height="26.125" rx="4" fill="#DAE3FE"/>
<path d="M77.1859 23.39C77.1159 23.57 77.1659 23.66 77.3459 23.72L77.7759 23.88C77.9559 23.94 78.0259 23.9 78.1059 23.71C78.4259 23.01 78.9059 22.65 79.7559 22.65C80.5759 22.65 81.1259 23.25 81.1259 23.98C81.1259 25.09 80.1559 25.42 79.1759 25.8C78.1559 26.2 77.1459 26.65 77.1459 28V28.73C77.1459 28.93 77.2159 29 77.4159 29H81.7859C81.9859 29 82.0459 28.93 82.0459 28.74V28.36C82.0459 28.17 81.9859 28.1 81.7859 28.1H78.1559V27.81C78.1559 27.15 78.8559 26.91 79.4459 26.68C81.2359 25.98 82.1359 25.45 82.1359 23.94C82.1359 22.77 81.2459 21.75 79.7859 21.75C78.3859 21.75 77.6059 22.37 77.1859 23.39ZM83.6534 27.97H83.5934C83.2034 27.97 83.0834 28.1 83.0834 28.48V28.56C83.0834 28.95 83.2034 29.06 83.5934 29.06H83.6534C84.0434 29.06 84.1634 28.94 84.1634 28.56V28.48C84.1634 28.1 84.0434 27.97 83.6534 27.97ZM87.4596 24.31V26.59C87.4596 28.17 88.4596 29.15 90.2596 29.15C91.7796 29.15 92.5996 28.53 92.9596 27.43C93.0296 27.24 92.9796 27.15 92.7896 27.09L92.3796 26.94C92.1896 26.87 92.1096 26.91 92.0396 27.11C91.7896 27.86 91.2796 28.25 90.2596 28.25C89.0796 28.25 88.4296 27.64 88.4296 26.6V24.3C88.4296 23.25 89.0696 22.65 90.2596 22.65C91.2596 22.65 91.7796 23.02 92.0296 23.77C92.0996 23.96 92.1796 23.99 92.3696 23.93L92.7796 23.79C92.9696 23.72 93.0096 23.64 92.9496 23.45C92.5896 22.35 91.7596 21.75 90.2596 21.75C88.4496 21.75 87.4596 22.73 87.4596 24.31ZM93.7665 25.61V27.24C93.7665 28.42 94.5965 29.15 96.0065 29.15C97.4465 29.15 98.2565 28.42 98.2565 27.24V25.61C98.2565 24.42 97.4465 23.69 96.0065 23.69C94.5965 23.69 93.7665 24.42 93.7665 25.61ZM97.3665 25.6V27.24C97.3665 27.93 96.8565 28.34 96.0065 28.34C95.1665 28.34 94.6565 27.93 94.6565 27.24V25.6C94.6565 24.91 95.1665 24.5 96.0065 24.5C96.8565 24.5 97.3665 24.91 97.3665 25.6ZM99.1767 25.61V27.24C99.1767 28.42 100.007 29.15 101.417 29.15C102.857 29.15 103.667 28.42 103.667 27.24V25.61C103.667 24.42 102.857 23.69 101.417 23.69C100.007 23.69 99.1767 24.42 99.1767 25.61ZM102.777 25.6V27.24C102.777 27.93 102.267 28.34 101.417 28.34C100.577 28.34 100.067 27.93 100.067 27.24V25.6C100.067 24.91 100.577 24.5 101.417 24.5C102.267 24.5 102.777 24.91 102.777 25.6ZM105.677 28.76V21.84C105.677 21.66 105.617 21.6 105.437 21.6H105.027C104.847 21.6 104.787 21.66 104.787 21.84V28.76C104.787 28.94 104.847 29 105.027 29H105.437C105.617 29 105.677 28.94 105.677 28.76Z" fill="#6B93C0"/>
<rect x="125.812" y="13" width="57.1875" height="26.125" rx="4" fill="#DAE3FE"/>
<path d="M138.678 23.76C138.678 22.51 137.878 21.75 136.408 21.75C134.908 21.75 134.188 22.35 133.818 23.45C133.758 23.63 133.798 23.72 133.988 23.78L134.398 23.93C134.588 23.98 134.668 23.96 134.738 23.77C134.988 23.02 135.358 22.65 136.388 22.65C137.268 22.65 137.718 23.07 137.718 23.85C137.718 24.48 137.308 24.95 136.558 24.95H135.428C135.228 24.95 135.168 25.01 135.168 25.21V25.56C135.168 25.76 135.228 25.82 135.428 25.82H136.698C137.488 25.82 137.898 26.25 137.898 27C137.898 27.77 137.438 28.25 136.408 28.25C135.318 28.25 134.928 27.86 134.678 27.11C134.608 26.92 134.528 26.88 134.338 26.94L133.928 27.09C133.738 27.16 133.698 27.24 133.758 27.43C134.128 28.53 134.878 29.15 136.408 29.15C138.108 29.15 138.908 28.29 138.908 27.01C138.908 26.23 138.568 25.59 137.838 25.3C138.428 25.02 138.678 24.43 138.678 23.76ZM140.422 27.97H140.362C139.972 27.97 139.852 28.1 139.852 28.48V28.56C139.852 28.95 139.972 29.06 140.362 29.06H140.422C140.812 29.06 140.932 28.94 140.932 28.56V28.48C140.932 28.1 140.812 27.97 140.422 27.97ZM149.528 21.9H149.088C148.888 21.9 148.828 21.97 148.828 22.16V24.95H145.408V22.16C145.408 21.97 145.338 21.9 145.138 21.9H144.698C144.508 21.9 144.438 21.97 144.438 22.16V28.74C144.438 28.93 144.508 29 144.698 29H145.138C145.338 29 145.408 28.93 145.408 28.74V25.85H148.828V28.74C148.828 28.93 148.888 29 149.088 29H149.528C149.728 29 149.788 28.93 149.788 28.74V22.16C149.788 21.97 149.728 21.9 149.528 21.9ZM151.624 21.95H151.564C151.204 21.95 151.084 22.07 151.084 22.43V22.51C151.084 22.88 151.204 22.99 151.564 22.99H151.624C151.994 22.99 152.104 22.87 152.104 22.51V22.43C152.104 22.07 151.994 21.95 151.624 21.95ZM151.804 23.84H151.384C151.204 23.84 151.144 23.9 151.144 24.08V28.76C151.144 28.94 151.204 29 151.384 29H151.804C151.984 29 152.044 28.94 152.044 28.76V24.08C152.044 23.9 151.984 23.84 151.804 23.84ZM153.083 25.24C153.083 26.53 154.113 26.7 155.113 26.8C155.953 26.88 156.443 26.99 156.443 27.59C156.443 28.08 156.043 28.35 155.193 28.35C154.493 28.35 154.043 28.15 153.843 27.63C153.763 27.45 153.683 27.43 153.523 27.48L153.183 27.6C153.003 27.66 152.963 27.76 153.033 27.92C153.343 28.74 154.083 29.15 155.223 29.15C156.623 29.15 157.313 28.5 157.313 27.55C157.313 26.37 156.473 26.12 155.333 26.01C154.503 25.94 153.973 25.86 153.973 25.22C153.973 24.74 154.343 24.5 155.113 24.5C155.883 24.5 156.203 24.76 156.393 25.15C156.493 25.31 156.543 25.34 156.723 25.26L157.063 25.12C157.223 25.05 157.273 24.95 157.183 24.77C156.883 24.12 156.253 23.69 155.093 23.69C153.763 23.69 153.083 24.31 153.083 25.24ZM159.453 22.64H159.033C158.853 22.64 158.803 22.7 158.803 22.88V23.84H157.973C157.793 23.84 157.733 23.9 157.733 24.08V24.43C157.733 24.61 157.793 24.67 157.973 24.67H158.803V27.02C158.803 28.69 159.393 29.18 160.983 29.14C161.173 29.13 161.233 29.08 161.233 28.9V28.54C161.233 28.35 161.173 28.3 160.983 28.3C160.013 28.3 159.693 28.09 159.693 27V24.67H161.003C161.173 24.67 161.233 24.61 161.233 24.43V24.08C161.233 23.9 161.173 23.84 161.003 23.84H159.693V22.88C159.693 22.7 159.633 22.64 159.453 22.64ZM161.844 25.61V27.24C161.844 28.42 162.674 29.15 164.084 29.15C165.524 29.15 166.334 28.42 166.334 27.24V25.61C166.334 24.42 165.524 23.69 164.084 23.69C162.674 23.69 161.844 24.42 161.844 25.61ZM165.444 25.6V27.24C165.444 27.93 164.934 28.34 164.084 28.34C163.244 28.34 162.734 27.93 162.734 27.24V25.6C162.734 24.91 163.244 24.5 164.084 24.5C164.934 24.5 165.444 24.91 165.444 25.6ZM169.614 23.69C168.734 23.71 168.154 23.86 167.784 24C167.474 24.13 167.404 24.25 167.404 24.56V28.76C167.404 28.94 167.464 29 167.634 29H168.054C168.234 29 168.294 28.94 168.294 28.76V24.88C168.294 24.79 168.304 24.73 168.434 24.68C168.724 24.59 169.094 24.51 169.584 24.51H169.934C170.114 24.51 170.174 24.45 170.174 24.27V23.93C170.174 23.75 170.114 23.69 169.934 23.69H169.614ZM174.911 23.84H174.501C174.321 23.84 174.261 23.9 174.261 24.08V27.93C173.971 28.02 173.541 28.14 172.981 28.14C172.121 28.14 171.721 27.74 171.721 26.95V24.08C171.721 23.9 171.661 23.84 171.491 23.84H171.071C170.891 23.84 170.831 23.9 170.831 24.08V26.98C170.831 28.23 171.461 28.96 172.861 28.96C173.491 28.96 173.931 28.84 174.261 28.75V29.29C174.261 30.13 173.851 30.61 172.981 30.61C172.321 30.61 171.981 30.35 171.741 29.94C171.621 29.78 171.541 29.75 171.351 29.85L171.061 30.01C170.881 30.1 170.851 30.22 170.961 30.39C171.311 31.01 171.921 31.41 172.991 31.41C174.541 31.41 175.151 30.55 175.151 29.25V24.08C175.151 23.9 175.091 23.84 174.911 23.84Z" fill="#6B93C0"/>
<rect y="45.6562" width="57.1875" height="26.125" rx="4" fill="#DAE3FE"/>
<path d="M18.4838 59.34H17.6638V55.11C17.6638 54.91 17.5938 54.85 17.3938 54.85H16.9738C16.7938 54.85 16.7238 54.89 16.6038 55.04L13.1438 59.34C13.0638 59.44 13.0538 59.48 13.0538 59.66V59.94C13.0538 60.13 13.1138 60.2 13.3138 60.2H16.7638V61.74C16.7638 61.93 16.8238 62 17.0238 62H17.4038C17.5938 62 17.6638 61.93 17.6638 61.74V60.2H18.4838C18.6838 60.2 18.7438 60.13 18.7438 59.94V59.6C18.7438 59.41 18.6838 59.34 18.4838 59.34ZM16.7638 56.16V59.34H14.1838L16.7638 56.16ZM19.9575 60.97H19.8975C19.5075 60.97 19.3875 61.1 19.3875 61.48V61.56C19.3875 61.95 19.5075 62.06 19.8975 62.06H19.9575C20.3475 62.06 20.4675 61.94 20.4675 61.56V61.48C20.4675 61.1 20.3475 60.97 19.9575 60.97ZM23.7137 56.87C23.7137 58.55 25.1637 58.75 26.3937 58.88C27.3237 58.99 28.1637 59.14 28.1637 60C28.1637 60.85 27.5437 61.24 26.3637 61.24C25.4637 61.24 24.8737 60.85 24.5537 60.11C24.4737 59.92 24.3937 59.89 24.2137 59.95L23.8037 60.1C23.6137 60.17 23.5637 60.25 23.6337 60.44C24.0737 61.57 24.8637 62.15 26.3637 62.15C28.1637 62.15 29.1337 61.3 29.1337 59.98C29.1337 58.36 27.8137 58.1 26.6237 57.96C25.6237 57.85 24.7037 57.7 24.7037 56.81C24.7037 56.07 25.2837 55.68 26.3737 55.68C27.2837 55.68 27.7537 56.03 28.0937 56.69C28.1837 56.87 28.2537 56.9 28.4337 56.82L28.8537 56.63C29.0337 56.55 29.0837 56.46 28.9937 56.28C28.5037 55.26 27.7637 54.75 26.3737 54.75C24.6437 54.75 23.7137 55.62 23.7137 56.87ZM30.8127 54.6H30.3927C30.2127 54.6 30.1527 54.66 30.1527 54.84V61.76C30.1527 61.94 30.2127 62 30.3927 62H30.8127C30.9827 62 31.0427 61.94 31.0427 61.76V57.74C31.2627 57.63 31.7627 57.51 32.3227 57.51C33.1627 57.51 33.5827 57.93 33.5827 58.7V61.76C33.5827 61.94 33.6427 62 33.8227 62H34.2327C34.4127 62 34.4727 61.94 34.4727 61.76V58.67C34.4727 57.42 33.8427 56.69 32.4427 56.69C31.7927 56.69 31.2527 56.81 31.0427 56.91V54.84C31.0427 54.66 30.9827 54.6 30.8127 54.6ZM35.5101 58.61V60.24C35.5101 61.42 36.3401 62.15 37.7501 62.15C39.1901 62.15 40.0001 61.42 40.0001 60.24V58.61C40.0001 57.42 39.1901 56.69 37.7501 56.69C36.3401 56.69 35.5101 57.42 35.5101 58.61ZM39.1101 58.6V60.24C39.1101 60.93 38.6001 61.34 37.7501 61.34C36.9101 61.34 36.4001 60.93 36.4001 60.24V58.6C36.4001 57.91 36.9101 57.5 37.7501 57.5C38.6001 57.5 39.1101 57.91 39.1101 58.6ZM41.4602 56.98C41.1402 57.11 41.0702 57.22 41.0702 57.55V63.96C41.0702 64.14 41.1302 64.2 41.3002 64.2H41.7202C41.9002 64.2 41.9602 64.14 41.9602 63.96V61.88C42.2202 61.97 42.6902 62.15 43.2602 62.15C44.7102 62.15 45.3902 61.41 45.3902 60.11V58.7C45.3902 57.42 44.7302 56.69 43.3002 56.69C42.4302 56.69 41.8502 56.83 41.4602 56.98ZM44.4902 58.73V60.08C44.4902 60.91 44.0902 61.33 43.1902 61.33C42.6602 61.33 42.1902 61.15 41.9602 61.07V57.87C41.9602 57.75 41.9802 57.72 42.1102 57.66C42.3802 57.58 42.7302 57.51 43.1702 57.51C44.0502 57.51 44.4902 57.93 44.4902 58.73Z" fill="#6B93C0"/>
<rect x="62.9062" y="45.6562" width="57.1875" height="26.125" rx="4" fill="#DAE3FE"/>
<path d="M77.8957 54.9H74.3257C74.0257 54.9 73.9157 54.99 73.8857 55.29L73.5857 58.21C73.5657 58.43 73.6357 58.53 73.8657 58.53H76.0157C76.8957 58.53 77.4157 59.07 77.4157 59.84C77.4157 60.69 76.8457 61.25 75.9657 61.25C74.9957 61.25 74.4857 60.89 74.2357 60.22C74.1657 60.03 74.0857 59.99 73.9057 60.06L73.4757 60.21C73.2957 60.28 73.2557 60.36 73.3257 60.55C73.6957 61.58 74.5057 62.15 75.9757 62.15C77.5357 62.15 78.4257 61.09 78.4257 59.84C78.4257 58.63 77.6757 57.63 76.0657 57.63H74.6157L74.7957 55.8H77.8957C78.0857 55.8 78.1557 55.73 78.1557 55.54V55.16C78.1557 54.97 78.0857 54.9 77.8957 54.9ZM79.8351 60.97H79.7751C79.3851 60.97 79.2651 61.1 79.2651 61.48V61.56C79.2651 61.95 79.3851 62.06 79.7751 62.06H79.8351C80.2251 62.06 80.3451 61.94 80.3451 61.56V61.48C80.3451 61.1 80.2251 60.97 79.8351 60.97ZM88.1312 54.9H84.1112C83.9212 54.9 83.8512 54.97 83.8512 55.16V61.74C83.8512 61.93 83.9212 62 84.1112 62H88.2512C88.4512 62 88.5112 61.93 88.5112 61.74V61.36C88.5112 61.17 88.4512 61.1 88.2512 61.1H84.8212V58.85H87.6712C87.8712 58.85 87.9312 58.79 87.9312 58.59V58.22C87.9312 58.02 87.8712 57.95 87.6712 57.95H84.8212V55.8H88.1312C88.3312 55.8 88.3912 55.73 88.3912 55.54V55.16C88.3912 54.97 88.3312 54.9 88.1312 54.9ZM93.363 56.84H92.983C92.733 56.84 92.683 56.87 92.573 57.04L91.363 58.7L90.153 57.04C90.033 56.87 89.973 56.84 89.713 56.84H89.353C89.073 56.84 89.053 56.95 89.163 57.12L90.813 59.35L89.093 61.72C88.963 61.91 88.983 62 89.263 62H89.633C89.883 62 89.953 61.98 90.063 61.8L91.343 59.99L92.653 61.8C92.773 61.97 92.823 62 93.083 62H93.463C93.723 62 93.763 61.91 93.633 61.72L91.913 59.35L93.533 57.12C93.653 56.93 93.613 56.84 93.363 56.84ZM94.1572 58.61V60.24C94.1572 61.42 94.9872 62.15 96.3972 62.15C97.8372 62.15 98.6472 61.42 98.6472 60.24V58.61C98.6472 57.42 97.8372 56.69 96.3972 56.69C94.9872 56.69 94.1572 57.42 94.1572 58.61ZM97.7572 58.6V60.24C97.7572 60.93 97.2472 61.34 96.3972 61.34C95.5572 61.34 95.0472 60.93 95.0472 60.24V58.6C95.0472 57.91 95.5572 57.5 96.3972 57.5C97.2472 57.5 97.7572 57.91 97.7572 58.6ZM100.849 55.64H100.429C100.249 55.64 100.199 55.7 100.199 55.88V56.84H99.3685C99.1885 56.84 99.1285 56.9 99.1285 57.08V57.43C99.1285 57.61 99.1885 57.67 99.3685 57.67H100.199V60.02C100.199 61.69 100.789 62.18 102.379 62.14C102.569 62.13 102.629 62.08 102.629 61.9V61.54C102.629 61.35 102.569 61.3 102.379 61.3C101.409 61.3 101.089 61.09 101.089 60V57.67H102.399C102.569 57.67 102.629 57.61 102.629 57.43V57.08C102.629 56.9 102.569 56.84 102.399 56.84H101.089V55.88C101.089 55.7 101.029 55.64 100.849 55.64ZM103.879 54.95H103.819C103.459 54.95 103.339 55.07 103.339 55.43V55.51C103.339 55.88 103.459 55.99 103.819 55.99H103.879C104.249 55.99 104.359 55.87 104.359 55.51V55.43C104.359 55.07 104.249 54.95 103.879 54.95ZM104.059 56.84H103.639C103.459 56.84 103.399 56.9 103.399 57.08V61.76C103.399 61.94 103.459 62 103.639 62H104.059C104.239 62 104.299 61.94 104.299 61.76V57.08C104.299 56.9 104.239 56.84 104.059 56.84ZM105.368 58.7V60.13C105.368 61.38 106.068 62.15 107.548 62.15C108.738 62.15 109.418 61.66 109.738 60.77C109.808 60.58 109.748 60.5 109.568 60.43L109.218 60.33C109.028 60.27 108.958 60.3 108.878 60.49C108.698 61.05 108.288 61.36 107.568 61.36C106.708 61.36 106.268 60.91 106.268 60.17V58.66C106.268 57.92 106.698 57.48 107.568 57.48C108.308 57.48 108.688 57.77 108.868 58.32C108.938 58.5 109.028 58.56 109.208 58.48L109.558 58.37C109.728 58.31 109.788 58.22 109.718 58.03C109.468 57.24 108.818 56.69 107.608 56.69C106.088 56.69 105.368 57.46 105.368 58.7Z" fill="#6B93C0"/>
<rect x="125.812" y="45.6562" width="57.1875" height="26.125" rx="4" fill="#DAE3FE"/>
<path d="M142.63 57.96V57.31C142.63 56.22 143.21 55.65 144.3 55.65C145.16 55.65 145.66 56 145.92 56.63C145.99 56.82 146.07 56.86 146.25 56.79L146.66 56.64C146.84 56.57 146.9 56.49 146.82 56.31C146.44 55.31 145.64 54.75 144.3 54.75C142.58 54.75 141.66 55.69 141.66 57.32V59.58C141.66 61.17 142.57 62.15 144.3 62.15C145.94 62.15 146.93 61.3 146.93 59.92C146.93 58.45 146.12 57.7 144.39 57.7C143.49 57.7 142.88 57.88 142.63 57.96ZM142.63 59.59V58.9C142.78 58.82 143.37 58.6 144.33 58.6C145.49 58.6 145.96 59.04 145.96 59.92C145.96 60.78 145.37 61.25 144.3 61.25C143.2 61.25 142.63 60.65 142.63 59.59ZM148.4 60.97H148.34C147.95 60.97 147.83 61.1 147.83 61.48V61.56C147.83 61.95 147.95 62.06 148.34 62.06H148.4C148.79 62.06 148.91 61.94 148.91 61.56V61.48C148.91 61.1 148.79 60.97 148.4 60.97ZM159.923 54.9H159.463C159.243 54.9 159.153 54.94 159.113 55.13L158.083 59.48C158.003 59.83 157.923 60.48 157.903 60.66H157.853C157.833 60.45 157.743 59.85 157.643 59.47L156.473 55.21C156.423 55.02 156.323 54.98 156.123 54.98H155.703C155.513 54.98 155.413 55.02 155.353 55.21L154.173 59.47C154.073 59.82 153.993 60.44 153.963 60.66H153.913C153.893 60.46 153.813 59.79 153.743 59.46L152.703 55.13C152.663 54.94 152.573 54.9 152.353 54.9H151.823C151.633 54.9 151.603 54.98 151.653 55.16L153.373 61.79C153.413 61.97 153.523 62 153.703 62H154.123C154.303 62 154.403 61.97 154.453 61.78L155.663 57.34C155.753 57.02 155.823 56.65 155.853 56.3H155.913C155.943 56.65 156.013 57.04 156.093 57.34L157.293 61.79C157.333 61.96 157.443 62 157.623 62H158.043C158.233 62 158.333 61.97 158.373 61.78L160.103 55.16C160.143 54.98 160.113 54.9 159.923 54.9ZM161.419 54.95H161.359C160.999 54.95 160.879 55.07 160.879 55.43V55.51C160.879 55.88 160.999 55.99 161.359 55.99H161.419C161.789 55.99 161.899 55.87 161.899 55.51V55.43C161.899 55.07 161.789 54.95 161.419 54.95ZM161.599 56.84H161.179C160.999 56.84 160.939 56.9 160.939 57.08V61.76C160.939 61.94 160.999 62 161.179 62H161.599C161.779 62 161.839 61.94 161.839 61.76V57.08C161.839 56.9 161.779 56.84 161.599 56.84ZM163.448 57.03C163.138 57.16 163.068 57.28 163.068 57.59V61.76C163.068 61.94 163.128 62 163.298 62H163.718C163.898 62 163.958 61.94 163.958 61.76V57.87C163.958 57.79 163.978 57.73 164.078 57.69C164.358 57.6 164.748 57.51 165.238 57.51C166.098 57.51 166.488 57.91 166.488 58.7V61.76C166.488 61.94 166.548 62 166.728 62H167.148C167.328 62 167.388 61.94 167.388 61.76V58.67C167.388 57.43 166.758 56.69 165.358 56.69C164.428 56.69 163.838 56.87 163.448 57.03Z" fill="#6B93C0"/>
<circle cx="90.5" cy="43.5" r="43.5" fill="white"/>
<path d="M92.2487 67.0671V69C87.6218 69 83.2902 66.3905 80.1399 61.6548C77.0881 57.1124 75.3161 50.927 75.3161 44.4517C75.3161 37.9763 76.9896 31.8876 80.1399 27.2485C83.3886 22.6095 87.7202 20 92.2487 20V21.9329C84.0777 21.9329 77.285 32.0809 77.285 44.4517C77.285 56.9191 84.0777 67.0671 92.2487 67.0671ZM77.9741 26.572H75.4145C75.2176 26.7653 75.0207 27.0552 74.8238 27.3452C71.6736 31.8876 70 37.9763 70 44.4517C70 50.927 71.6736 57.0158 74.8238 61.6548C75.0207 61.9448 75.2176 62.2347 75.4145 62.428H77.9741C74.3316 58.2722 72.0674 51.7968 72.0674 44.4517C71.9689 37.2032 74.3316 30.6312 77.9741 26.572ZM106.031 52.6667H102.782H101.601H100.715C99.9275 55.0828 98.8446 57.2091 97.4663 58.8521H99.9275C100.813 57.5957 101.503 56.146 102.093 54.5996H105.244C103.078 59.7219 99.2383 63.1045 94.9067 63.1045C88.114 63.1045 82.601 54.7929 82.601 44.4517C82.601 34.2071 88.114 25.7988 94.9067 25.7988C99.7306 25.7988 103.964 30.0513 105.933 36.2367H108C107.311 33.9172 106.326 31.7909 105.145 29.9546C102.487 26.0888 98.8446 23.9625 94.9067 23.9625C90.9689 23.9625 87.3264 26.1854 84.6684 30.1479C82.0104 34.0138 80.6321 39.1361 80.6321 44.5483C80.6321 49.9606 82.1088 55.0828 84.6684 58.9487C87.3264 62.9112 90.9689 65.1341 94.9067 65.1341C98.8446 65.1341 102.487 62.9112 105.145 58.9487C106.425 57.1124 107.409 54.9862 108 52.6667H106.819H106.031ZM100.715 36.3333H101.306H102.782C102.093 34.0138 101.109 31.9842 99.9275 30.1479H97.4663C98.4508 31.4043 99.2383 32.7574 99.9275 34.4004H96.7772C96.1865 32.854 95.399 31.4043 94.513 30.1479C94.3161 29.858 94.0207 29.4714 93.8238 29.1815H91.2642C93.0363 31.0178 94.4145 33.4339 95.399 36.3333H95.9896H97.4663H100.715ZM91.2642 59.8185H93.8238C94.0207 59.5286 94.3161 59.2387 94.513 58.8521C95.7927 57.0158 96.7772 54.8895 97.3679 52.57H95.3005C94.4145 55.5661 93.0363 58.0789 91.2642 59.8185Z" fill="#C3CEEB"/>
</svg>
