<svg width="" height="59" viewBox="0 0 183 59" fill="none" xmlns="http://www.w3.org/2000/svg">
<rect width="57.1875" height="26.125" rx="4" fill="#D7F0FF"/>
<path d="M15.7176 8.9H15.3476C15.1876 8.9 15.1176 8.92 14.9776 9.01L12.7576 10.26C12.5876 10.36 12.5476 10.45 12.6376 10.62L12.8376 10.97C12.9276 11.14 13.0276 11.18 13.2276 11.06L15.0176 10.07V15.74C15.0176 15.93 15.0776 16 15.2776 16H15.7176C15.9176 16 15.9776 15.93 15.9776 15.74V9.16C15.9776 8.97 15.9176 8.9 15.7176 8.9ZM17.8614 14.97H17.8014C17.4114 14.97 17.2914 15.1 17.2914 15.48V15.56C17.2914 15.95 17.4114 16.06 17.8014 16.06H17.8614C18.2514 16.06 18.3714 15.94 18.3714 15.56V15.48C18.3714 15.1 18.2514 14.97 17.8614 14.97ZM26.8351 8.9H26.4651C26.1351 8.9 26.0451 8.95 25.9851 9.13L24.2651 13.94C24.1251 14.33 24.0451 14.79 24.0151 14.85H23.9751C23.9451 14.79 23.8551 14.32 23.7251 13.93L21.9851 9.13C21.9251 8.95 21.8351 8.9 21.5151 8.9H21.1251C20.9351 8.9 20.8851 8.99 20.9451 9.16L23.4451 15.79C23.5051 15.96 23.5951 16 23.7751 16H24.1851C24.3651 16 24.4451 15.96 24.5051 15.78L27.0051 9.16C27.0751 8.99 27.0251 8.9 26.8351 8.9ZM28.2239 8.95H28.1639C27.8039 8.95 27.6839 9.07 27.6839 9.43V9.51C27.6839 9.88 27.8039 9.99 28.1639 9.99H28.2239C28.5939 9.99 28.7039 9.87 28.7039 9.51V9.43C28.7039 9.07 28.5939 8.95 28.2239 8.95ZM28.4039 10.84H27.9839C27.8039 10.84 27.7439 10.9 27.7439 11.08V15.76C27.7439 15.94 27.8039 16 27.9839 16H28.4039C28.5839 16 28.6439 15.94 28.6439 15.76V11.08C28.6439 10.9 28.5839 10.84 28.4039 10.84ZM29.7226 12.61V14.24C29.7226 15.42 30.5526 16.15 31.9626 16.15C33.4026 16.15 34.2126 15.42 34.2126 14.24V12.61C34.2126 11.42 33.4026 10.69 31.9626 10.69C30.5526 10.69 29.7226 11.42 29.7226 12.61ZM33.3226 12.6V14.24C33.3226 14.93 32.8126 15.34 31.9626 15.34C31.1226 15.34 30.6126 14.93 30.6126 14.24V12.6C30.6126 11.91 31.1226 11.5 31.9626 11.5C32.8126 11.5 33.3226 11.91 33.3226 12.6ZM36.2228 15.76V8.84C36.2228 8.66 36.1628 8.6 35.9828 8.6H35.5728C35.3928 8.6 35.3328 8.66 35.3328 8.84V15.76C35.3328 15.94 35.3928 16 35.5728 16H35.9828C36.1628 16 36.2228 15.94 36.2228 15.76ZM37.9798 8.95H37.9198C37.5598 8.95 37.4398 9.07 37.4398 9.43V9.51C37.4398 9.88 37.5598 9.99 37.9198 9.99H37.9798C38.3498 9.99 38.4598 9.87 38.4598 9.51V9.43C38.4598 9.07 38.3498 8.95 37.9798 8.95ZM38.1598 10.84H37.7398C37.5598 10.84 37.4998 10.9 37.4998 11.08V15.76C37.4998 15.94 37.5598 16 37.7398 16H38.1598C38.3398 16 38.3998 15.94 38.3998 15.76V11.08C38.3998 10.9 38.3398 10.84 38.1598 10.84ZM40.0085 11.03C39.6985 11.16 39.6285 11.28 39.6285 11.59V15.76C39.6285 15.94 39.6885 16 39.8585 16H40.2785C40.4585 16 40.5185 15.94 40.5185 15.76V11.87C40.5185 11.79 40.5385 11.73 40.6385 11.69C40.9185 11.6 41.3085 11.51 41.7985 11.51C42.6585 11.51 43.0485 11.91 43.0485 12.7V15.76C43.0485 15.94 43.1085 16 43.2885 16H43.7085C43.8885 16 43.9485 15.94 43.9485 15.76V12.67C43.9485 11.43 43.3185 10.69 41.9185 10.69C40.9885 10.69 40.3985 10.87 40.0085 11.03Z" fill="#1A53F0"/>
<rect x="62.9062" width="57.1875" height="26.125" rx="4" fill="#D7F0FF"/>
<path d="M77.186 10.39C77.116 10.57 77.166 10.66 77.346 10.72L77.776 10.88C77.956 10.94 78.026 10.9 78.106 10.71C78.426 10.01 78.906 9.65 79.756 9.65C80.576 9.65 81.126 10.25 81.126 10.98C81.126 12.09 80.156 12.42 79.176 12.8C78.156 13.2 77.146 13.65 77.146 15V15.73C77.146 15.93 77.216 16 77.416 16H81.786C81.986 16 82.046 15.93 82.046 15.74V15.36C82.046 15.17 81.986 15.1 81.786 15.1H78.156V14.81C78.156 14.15 78.856 13.91 79.446 13.68C81.236 12.98 82.136 12.45 82.136 10.94C82.136 9.77 81.246 8.75 79.786 8.75C78.386 8.75 77.606 9.37 77.186 10.39ZM83.6535 14.97H83.5935C83.2035 14.97 83.0835 15.1 83.0835 15.48V15.56C83.0835 15.95 83.2035 16.06 83.5935 16.06H83.6535C84.0435 16.06 84.1635 15.94 84.1635 15.56V15.48C84.1635 15.1 84.0435 14.97 83.6535 14.97ZM87.4597 11.31V13.59C87.4597 15.17 88.4597 16.15 90.2597 16.15C91.7797 16.15 92.5997 15.53 92.9597 14.43C93.0297 14.24 92.9797 14.15 92.7897 14.09L92.3797 13.94C92.1897 13.87 92.1097 13.91 92.0397 14.11C91.7897 14.86 91.2797 15.25 90.2597 15.25C89.0797 15.25 88.4297 14.64 88.4297 13.6V11.3C88.4297 10.25 89.0697 9.65 90.2597 9.65C91.2597 9.65 91.7797 10.02 92.0297 10.77C92.0997 10.96 92.1797 10.99 92.3697 10.93L92.7797 10.79C92.9697 10.72 93.0097 10.64 92.9497 10.45C92.5897 9.35 91.7597 8.75 90.2597 8.75C88.4497 8.75 87.4597 9.73 87.4597 11.31ZM93.7667 12.61V14.24C93.7667 15.42 94.5967 16.15 96.0067 16.15C97.4467 16.15 98.2567 15.42 98.2567 14.24V12.61C98.2567 11.42 97.4467 10.69 96.0067 10.69C94.5967 10.69 93.7667 11.42 93.7667 12.61ZM97.3667 12.6V14.24C97.3667 14.93 96.8567 15.34 96.0067 15.34C95.1667 15.34 94.6567 14.93 94.6567 14.24V12.6C94.6567 11.91 95.1667 11.5 96.0067 11.5C96.8567 11.5 97.3667 11.91 97.3667 12.6ZM99.1768 12.61V14.24C99.1768 15.42 100.007 16.15 101.417 16.15C102.857 16.15 103.667 15.42 103.667 14.24V12.61C103.667 11.42 102.857 10.69 101.417 10.69C100.007 10.69 99.1768 11.42 99.1768 12.61ZM102.777 12.6V14.24C102.777 14.93 102.267 15.34 101.417 15.34C100.577 15.34 100.067 14.93 100.067 14.24V12.6C100.067 11.91 100.577 11.5 101.417 11.5C102.267 11.5 102.777 11.91 102.777 12.6ZM105.677 15.76V8.84C105.677 8.66 105.617 8.6 105.437 8.6H105.027C104.847 8.6 104.787 8.66 104.787 8.84V15.76C104.787 15.94 104.847 16 105.027 16H105.437C105.617 16 105.677 15.94 105.677 15.76Z" fill="#1A53F0"/>
<rect x="125.812" width="57.1875" height="26.125" rx="4" fill="#D7F0FF"/>
<path d="M138.678 10.76C138.678 9.51 137.878 8.75 136.408 8.75C134.908 8.75 134.188 9.35 133.818 10.45C133.758 10.63 133.798 10.72 133.988 10.78L134.398 10.93C134.588 10.98 134.668 10.96 134.738 10.77C134.988 10.02 135.358 9.65 136.388 9.65C137.268 9.65 137.718 10.07 137.718 10.85C137.718 11.48 137.308 11.95 136.558 11.95H135.428C135.228 11.95 135.168 12.01 135.168 12.21V12.56C135.168 12.76 135.228 12.82 135.428 12.82H136.698C137.488 12.82 137.898 13.25 137.898 14C137.898 14.77 137.438 15.25 136.408 15.25C135.318 15.25 134.928 14.86 134.678 14.11C134.608 13.92 134.528 13.88 134.338 13.94L133.928 14.09C133.738 14.16 133.698 14.24 133.758 14.43C134.128 15.53 134.878 16.15 136.408 16.15C138.108 16.15 138.908 15.29 138.908 14.01C138.908 13.23 138.568 12.59 137.838 12.3C138.428 12.02 138.678 11.43 138.678 10.76ZM140.422 14.97H140.362C139.972 14.97 139.852 15.1 139.852 15.48V15.56C139.852 15.95 139.972 16.06 140.362 16.06H140.422C140.812 16.06 140.932 15.94 140.932 15.56V15.48C140.932 15.1 140.812 14.97 140.422 14.97ZM149.528 8.9H149.088C148.888 8.9 148.828 8.97 148.828 9.16V11.95H145.408V9.16C145.408 8.97 145.338 8.9 145.138 8.9H144.698C144.508 8.9 144.438 8.97 144.438 9.16V15.74C144.438 15.93 144.508 16 144.698 16H145.138C145.338 16 145.408 15.93 145.408 15.74V12.85H148.828V15.74C148.828 15.93 148.888 16 149.088 16H149.528C149.728 16 149.788 15.93 149.788 15.74V9.16C149.788 8.97 149.728 8.9 149.528 8.9ZM151.625 8.95H151.565C151.205 8.95 151.085 9.07 151.085 9.43V9.51C151.085 9.88 151.205 9.99 151.565 9.99H151.625C151.995 9.99 152.105 9.87 152.105 9.51V9.43C152.105 9.07 151.995 8.95 151.625 8.95ZM151.805 10.84H151.385C151.205 10.84 151.145 10.9 151.145 11.08V15.76C151.145 15.94 151.205 16 151.385 16H151.805C151.985 16 152.045 15.94 152.045 15.76V11.08C152.045 10.9 151.985 10.84 151.805 10.84ZM153.083 12.24C153.083 13.53 154.113 13.7 155.113 13.8C155.953 13.88 156.443 13.99 156.443 14.59C156.443 15.08 156.043 15.35 155.193 15.35C154.493 15.35 154.043 15.15 153.843 14.63C153.763 14.45 153.683 14.43 153.523 14.48L153.183 14.6C153.003 14.66 152.963 14.76 153.033 14.92C153.343 15.74 154.083 16.15 155.223 16.15C156.623 16.15 157.313 15.5 157.313 14.55C157.313 13.37 156.473 13.12 155.333 13.01C154.503 12.94 153.973 12.86 153.973 12.22C153.973 11.74 154.343 11.5 155.113 11.5C155.883 11.5 156.203 11.76 156.393 12.15C156.493 12.31 156.543 12.34 156.723 12.26L157.063 12.12C157.223 12.05 157.273 11.95 157.183 11.77C156.883 11.12 156.253 10.69 155.093 10.69C153.763 10.69 153.083 11.31 153.083 12.24ZM159.453 9.64H159.033C158.853 9.64 158.803 9.7 158.803 9.88V10.84H157.973C157.793 10.84 157.733 10.9 157.733 11.08V11.43C157.733 11.61 157.793 11.67 157.973 11.67H158.803V14.02C158.803 15.69 159.393 16.18 160.983 16.14C161.173 16.13 161.233 16.08 161.233 15.9V15.54C161.233 15.35 161.173 15.3 160.983 15.3C160.013 15.3 159.693 15.09 159.693 14V11.67H161.003C161.173 11.67 161.233 11.61 161.233 11.43V11.08C161.233 10.9 161.173 10.84 161.003 10.84H159.693V9.88C159.693 9.7 159.633 9.64 159.453 9.64ZM161.844 12.61V14.24C161.844 15.42 162.674 16.15 164.084 16.15C165.524 16.15 166.334 15.42 166.334 14.24V12.61C166.334 11.42 165.524 10.69 164.084 10.69C162.674 10.69 161.844 11.42 161.844 12.61ZM165.444 12.6V14.24C165.444 14.93 164.934 15.34 164.084 15.34C163.244 15.34 162.734 14.93 162.734 14.24V12.6C162.734 11.91 163.244 11.5 164.084 11.5C164.934 11.5 165.444 11.91 165.444 12.6ZM169.614 10.69C168.734 10.71 168.154 10.86 167.784 11C167.474 11.13 167.404 11.25 167.404 11.56V15.76C167.404 15.94 167.464 16 167.634 16H168.054C168.234 16 168.294 15.94 168.294 15.76V11.88C168.294 11.79 168.304 11.73 168.434 11.68C168.724 11.59 169.094 11.51 169.584 11.51H169.934C170.114 11.51 170.174 11.45 170.174 11.27V10.93C170.174 10.75 170.114 10.69 169.934 10.69H169.614ZM174.911 10.84H174.501C174.321 10.84 174.261 10.9 174.261 11.08V14.93C173.971 15.02 173.541 15.14 172.981 15.14C172.121 15.14 171.721 14.74 171.721 13.95V11.08C171.721 10.9 171.661 10.84 171.491 10.84H171.071C170.891 10.84 170.831 10.9 170.831 11.08V13.98C170.831 15.23 171.461 15.96 172.861 15.96C173.491 15.96 173.931 15.84 174.261 15.75V16.29C174.261 17.13 173.851 17.61 172.981 17.61C172.321 17.61 171.981 17.35 171.741 16.94C171.621 16.78 171.541 16.75 171.351 16.85L171.061 17.01C170.881 17.1 170.851 17.22 170.961 17.39C171.311 18.01 171.921 18.41 172.991 18.41C174.541 18.41 175.151 17.55 175.151 16.25V11.08C175.151 10.9 175.091 10.84 174.911 10.84Z" fill="#1A53F0"/>
<rect y="32.6562" width="57.1875" height="26.125" rx="4" fill="#D7F0FF"/>
<path d="M18.484 46.34H17.664V42.11C17.664 41.91 17.594 41.85 17.394 41.85H16.974C16.794 41.85 16.724 41.89 16.604 42.04L13.144 46.34C13.064 46.44 13.054 46.48 13.054 46.66V46.94C13.054 47.13 13.114 47.2 13.314 47.2H16.764V48.74C16.764 48.93 16.824 49 17.024 49H17.404C17.594 49 17.664 48.93 17.664 48.74V47.2H18.484C18.684 47.2 18.744 47.13 18.744 46.94V46.6C18.744 46.41 18.684 46.34 18.484 46.34ZM16.764 43.16V46.34H14.184L16.764 43.16ZM19.9578 47.97H19.8978C19.5078 47.97 19.3878 48.1 19.3878 48.48V48.56C19.3878 48.95 19.5078 49.06 19.8978 49.06H19.9578C20.3478 49.06 20.4678 48.94 20.4678 48.56V48.48C20.4678 48.1 20.3478 47.97 19.9578 47.97ZM23.7139 43.87C23.7139 45.55 25.1639 45.75 26.3939 45.88C27.3239 45.99 28.1639 46.14 28.1639 47C28.1639 47.85 27.5439 48.24 26.3639 48.24C25.4639 48.24 24.8739 47.85 24.5539 47.11C24.4739 46.92 24.3939 46.89 24.2139 46.95L23.8039 47.1C23.6139 47.17 23.5639 47.25 23.6339 47.44C24.0739 48.57 24.8639 49.15 26.3639 49.15C28.1639 49.15 29.1339 48.3 29.1339 46.98C29.1339 45.36 27.8139 45.1 26.6239 44.96C25.6239 44.85 24.7039 44.7 24.7039 43.81C24.7039 43.07 25.2839 42.68 26.3739 42.68C27.2839 42.68 27.7539 43.03 28.0939 43.69C28.1839 43.87 28.2539 43.9 28.4339 43.82L28.8539 43.63C29.0339 43.55 29.0839 43.46 28.9939 43.28C28.5039 42.26 27.7639 41.75 26.3739 41.75C24.6439 41.75 23.7139 42.62 23.7139 43.87ZM30.813 41.6H30.393C30.213 41.6 30.153 41.66 30.153 41.84V48.76C30.153 48.94 30.213 49 30.393 49H30.813C30.983 49 31.043 48.94 31.043 48.76V44.74C31.263 44.63 31.763 44.51 32.323 44.51C33.163 44.51 33.583 44.93 33.583 45.7V48.76C33.583 48.94 33.643 49 33.823 49H34.233C34.413 49 34.473 48.94 34.473 48.76V45.67C34.473 44.42 33.843 43.69 32.443 43.69C31.793 43.69 31.253 43.81 31.043 43.91V41.84C31.043 41.66 30.983 41.6 30.813 41.6ZM35.5103 45.61V47.24C35.5103 48.42 36.3403 49.15 37.7503 49.15C39.1903 49.15 40.0003 48.42 40.0003 47.24V45.61C40.0003 44.42 39.1903 43.69 37.7503 43.69C36.3403 43.69 35.5103 44.42 35.5103 45.61ZM39.1103 45.6V47.24C39.1103 47.93 38.6003 48.34 37.7503 48.34C36.9103 48.34 36.4003 47.93 36.4003 47.24V45.6C36.4003 44.91 36.9103 44.5 37.7503 44.5C38.6003 44.5 39.1103 44.91 39.1103 45.6ZM41.4605 43.98C41.1405 44.11 41.0705 44.22 41.0705 44.55V50.96C41.0705 51.14 41.1305 51.2 41.3005 51.2H41.7205C41.9005 51.2 41.9605 51.14 41.9605 50.96V48.88C42.2205 48.97 42.6905 49.15 43.2605 49.15C44.7105 49.15 45.3905 48.41 45.3905 47.11V45.7C45.3905 44.42 44.7305 43.69 43.3005 43.69C42.4305 43.69 41.8505 43.83 41.4605 43.98ZM44.4905 45.73V47.08C44.4905 47.91 44.0905 48.33 43.1905 48.33C42.6605 48.33 42.1905 48.15 41.9605 48.07V44.87C41.9605 44.75 41.9805 44.72 42.1105 44.66C42.3805 44.58 42.7305 44.51 43.1705 44.51C44.0505 44.51 44.4905 44.93 44.4905 45.73Z" fill="#1A53F0"/>
<rect x="62.9062" y="32.6562" width="57.1875" height="26.125" rx="4" fill="#D7F0FF"/>
<path d="M77.8958 41.9H74.3258C74.0258 41.9 73.9158 41.99 73.8858 42.29L73.5858 45.21C73.5658 45.43 73.6358 45.53 73.8658 45.53H76.0158C76.8958 45.53 77.4158 46.07 77.4158 46.84C77.4158 47.69 76.8458 48.25 75.9658 48.25C74.9958 48.25 74.4858 47.89 74.2358 47.22C74.1658 47.03 74.0858 46.99 73.9058 47.06L73.4758 47.21C73.2958 47.28 73.2558 47.36 73.3258 47.55C73.6958 48.58 74.5058 49.15 75.9758 49.15C77.5358 49.15 78.4258 48.09 78.4258 46.84C78.4258 45.63 77.6758 44.63 76.0658 44.63H74.6158L74.7958 42.8H77.8958C78.0858 42.8 78.1558 42.73 78.1558 42.54V42.16C78.1558 41.97 78.0858 41.9 77.8958 41.9ZM79.8352 47.97H79.7752C79.3852 47.97 79.2652 48.1 79.2652 48.48V48.56C79.2652 48.95 79.3852 49.06 79.7752 49.06H79.8352C80.2252 49.06 80.3452 48.94 80.3452 48.56V48.48C80.3452 48.1 80.2252 47.97 79.8352 47.97ZM88.1314 41.9H84.1114C83.9214 41.9 83.8514 41.97 83.8514 42.16V48.74C83.8514 48.93 83.9214 49 84.1114 49H88.2514C88.4514 49 88.5114 48.93 88.5114 48.74V48.36C88.5114 48.17 88.4514 48.1 88.2514 48.1H84.8214V45.85H87.6714C87.8714 45.85 87.9314 45.79 87.9314 45.59V45.22C87.9314 45.02 87.8714 44.95 87.6714 44.95H84.8214V42.8H88.1314C88.3314 42.8 88.3914 42.73 88.3914 42.54V42.16C88.3914 41.97 88.3314 41.9 88.1314 41.9ZM93.3631 43.84H92.9831C92.7331 43.84 92.6831 43.87 92.5731 44.04L91.3631 45.7L90.1531 44.04C90.0331 43.87 89.9731 43.84 89.7131 43.84H89.3531C89.0731 43.84 89.0531 43.95 89.1631 44.12L90.8131 46.35L89.0931 48.72C88.9631 48.91 88.9831 49 89.2631 49H89.6331C89.8831 49 89.9531 48.98 90.0631 48.8L91.3431 46.99L92.6531 48.8C92.7731 48.97 92.8231 49 93.0831 49H93.4631C93.7231 49 93.7631 48.91 93.6331 48.72L91.9131 46.35L93.5331 44.12C93.6531 43.93 93.6131 43.84 93.3631 43.84ZM94.1573 45.61V47.24C94.1573 48.42 94.9873 49.15 96.3973 49.15C97.8373 49.15 98.6473 48.42 98.6473 47.24V45.61C98.6473 44.42 97.8373 43.69 96.3973 43.69C94.9873 43.69 94.1573 44.42 94.1573 45.61ZM97.7573 45.6V47.24C97.7573 47.93 97.2473 48.34 96.3973 48.34C95.5573 48.34 95.0473 47.93 95.0473 47.24V45.6C95.0473 44.91 95.5573 44.5 96.3973 44.5C97.2473 44.5 97.7573 44.91 97.7573 45.6ZM100.849 42.64H100.429C100.249 42.64 100.199 42.7 100.199 42.88V43.84H99.3686C99.1886 43.84 99.1286 43.9 99.1286 44.08V44.43C99.1286 44.61 99.1886 44.67 99.3686 44.67H100.199V47.02C100.199 48.69 100.789 49.18 102.379 49.14C102.569 49.13 102.629 49.08 102.629 48.9V48.54C102.629 48.35 102.569 48.3 102.379 48.3C101.409 48.3 101.089 48.09 101.089 47V44.67H102.399C102.569 44.67 102.629 44.61 102.629 44.43V44.08C102.629 43.9 102.569 43.84 102.399 43.84H101.089V42.88C101.089 42.7 101.029 42.64 100.849 42.64ZM103.879 41.95H103.819C103.459 41.95 103.339 42.07 103.339 42.43V42.51C103.339 42.88 103.459 42.99 103.819 42.99H103.879C104.249 42.99 104.359 42.87 104.359 42.51V42.43C104.359 42.07 104.249 41.95 103.879 41.95ZM104.059 43.84H103.639C103.459 43.84 103.399 43.9 103.399 44.08V48.76C103.399 48.94 103.459 49 103.639 49H104.059C104.239 49 104.299 48.94 104.299 48.76V44.08C104.299 43.9 104.239 43.84 104.059 43.84ZM105.368 45.7V47.13C105.368 48.38 106.068 49.15 107.548 49.15C108.738 49.15 109.418 48.66 109.738 47.77C109.808 47.58 109.748 47.5 109.568 47.43L109.218 47.33C109.028 47.27 108.958 47.3 108.878 47.49C108.698 48.05 108.288 48.36 107.568 48.36C106.708 48.36 106.268 47.91 106.268 47.17V45.66C106.268 44.92 106.698 44.48 107.568 44.48C108.308 44.48 108.688 44.77 108.868 45.32C108.938 45.5 109.028 45.56 109.208 45.48L109.558 45.37C109.728 45.31 109.788 45.22 109.718 45.03C109.468 44.24 108.818 43.69 107.608 43.69C106.088 43.69 105.368 44.46 105.368 45.7Z" fill="#1A53F0"/>
<rect x="125.812" y="32.6562" width="57.1875" height="26.125" rx="4" fill="#D7F0FF"/>
<path d="M142.63 44.96V44.31C142.63 43.22 143.21 42.65 144.3 42.65C145.16 42.65 145.66 43 145.92 43.63C145.99 43.82 146.07 43.86 146.25 43.79L146.66 43.64C146.84 43.57 146.9 43.49 146.82 43.31C146.44 42.31 145.64 41.75 144.3 41.75C142.58 41.75 141.66 42.69 141.66 44.32V46.58C141.66 48.17 142.57 49.15 144.3 49.15C145.94 49.15 146.93 48.3 146.93 46.92C146.93 45.45 146.12 44.7 144.39 44.7C143.49 44.7 142.88 44.88 142.63 44.96ZM142.63 46.59V45.9C142.78 45.82 143.37 45.6 144.33 45.6C145.49 45.6 145.96 46.04 145.96 46.92C145.96 47.78 145.37 48.25 144.3 48.25C143.2 48.25 142.63 47.65 142.63 46.59ZM148.401 47.97H148.341C147.951 47.97 147.831 48.1 147.831 48.48V48.56C147.831 48.95 147.951 49.06 148.341 49.06H148.401C148.791 49.06 148.911 48.94 148.911 48.56V48.48C148.911 48.1 148.791 47.97 148.401 47.97ZM159.923 41.9H159.463C159.243 41.9 159.153 41.94 159.113 42.13L158.083 46.48C158.003 46.83 157.923 47.48 157.903 47.66H157.853C157.833 47.45 157.743 46.85 157.643 46.47L156.473 42.21C156.423 42.02 156.323 41.98 156.123 41.98H155.703C155.513 41.98 155.413 42.02 155.353 42.21L154.173 46.47C154.073 46.82 153.993 47.44 153.963 47.66H153.913C153.893 47.46 153.813 46.79 153.743 46.46L152.703 42.13C152.663 41.94 152.573 41.9 152.353 41.9H151.823C151.633 41.9 151.603 41.98 151.653 42.16L153.373 48.79C153.413 48.97 153.523 49 153.703 49H154.123C154.303 49 154.403 48.97 154.453 48.78L155.663 44.34C155.753 44.02 155.823 43.65 155.853 43.3H155.913C155.943 43.65 156.013 44.04 156.093 44.34L157.293 48.79C157.333 48.96 157.443 49 157.623 49H158.043C158.233 49 158.333 48.97 158.373 48.78L160.103 42.16C160.143 41.98 160.113 41.9 159.923 41.9ZM161.419 41.95H161.359C160.999 41.95 160.879 42.07 160.879 42.43V42.51C160.879 42.88 160.999 42.99 161.359 42.99H161.419C161.789 42.99 161.899 42.87 161.899 42.51V42.43C161.899 42.07 161.789 41.95 161.419 41.95ZM161.599 43.84H161.179C160.999 43.84 160.939 43.9 160.939 44.08V48.76C160.939 48.94 160.999 49 161.179 49H161.599C161.779 49 161.839 48.94 161.839 48.76V44.08C161.839 43.9 161.779 43.84 161.599 43.84ZM163.448 44.03C163.138 44.16 163.068 44.28 163.068 44.59V48.76C163.068 48.94 163.128 49 163.298 49H163.718C163.898 49 163.958 48.94 163.958 48.76V44.87C163.958 44.79 163.978 44.73 164.078 44.69C164.358 44.6 164.748 44.51 165.238 44.51C166.098 44.51 166.488 44.91 166.488 45.7V48.76C166.488 48.94 166.548 49 166.728 49H167.148C167.328 49 167.388 48.94 167.388 48.76V45.67C167.388 44.43 166.758 43.69 165.358 43.69C164.428 43.69 163.838 43.87 163.448 44.03Z" fill="#1A53F0"/>
</svg>
