<svg width="148" height="143" viewBox="0 0 148 143" fill="none" xmlns="http://www.w3.org/2000/svg">
<path d="M117.496 127.682L30.1889 27.2182C28.82 25.6212 28.9721 23.2255 30.5691 21.8566L53.4987 1.93108C55.0958 0.562148 57.4914 0.714251 58.8604 2.31134L146.168 102.776C147.537 104.373 147.384 106.768 145.787 108.137L122.82 128.101C121.261 129.432 118.865 129.28 117.496 127.682Z" fill="#C3CEEB" stroke="#C3CEEB" stroke-miterlimit="10"/>
<path d="M63.646 26.3816C63.646 31.3137 59.6477 35.312 54.7156 35.312C49.7834 35.312 45.7852 31.3137 45.7852 26.3816C45.7852 21.4495 49.7834 17.4512 54.7156 17.4512C59.6477 17.4512 63.646 21.4495 63.646 26.3816Z" fill="#C3CEEB" stroke="#6B93C0"/>
<path d="M54.7149 17.0653C59.8484 17.0653 64.0313 21.2482 64.0313 26.3816C64.0313 31.5151 59.8484 35.698 54.7149 35.698C49.5815 35.698 45.3986 31.5151 45.3986 26.3816C45.3986 21.2482 49.5815 17.0653 54.7149 17.0653ZM54.7149 16.8752C49.4674 16.8752 45.2085 21.1341 45.2085 26.3816C45.2085 31.6292 49.4674 35.8881 54.7149 35.8881C59.9625 35.8881 64.2214 31.6292 64.2214 26.3816C64.2214 21.1341 59.9625 16.8752 54.7149 16.8752Z" fill="#6B93C0"/>
<g style="mix-blend-mode:screen" opacity="0.5">
<path d="M95.2501 94.2961L55.6272 48.7411C55.361 48.4369 55.3991 47.9426 55.7033 47.6764L75.8189 30.1845C76.1231 29.9184 76.6175 29.9564 76.8837 30.2606L116.507 75.8535C116.773 76.1577 116.735 76.6521 116.43 76.9183L96.3148 94.4101C95.9726 94.6763 95.5163 94.6383 95.2501 94.2961Z" fill="#6B93C0"/>
</g>
<path d="M3.18994 122.397V84.7515H120.88C131.261 84.7515 139.703 93.1932 139.703 103.574C139.703 113.955 131.261 122.397 120.88 122.397H3.18994Z" fill="white"/>
<mask id="path-6-inside-1" fill="white">
<path d="M120.88 84.941C131.147 84.941 139.513 93.3067 139.513 103.574C139.513 113.841 131.147 122.206 120.88 122.206H3.38026V84.941H120.88ZM120.88 84.5608H3V122.587H120.88C131.375 122.587 139.893 114.069 139.893 103.574C139.893 93.0786 131.375 84.5608 120.88 84.5608Z"/>
</mask>
<path d="M120.88 84.941C131.147 84.941 139.513 93.3067 139.513 103.574C139.513 113.841 131.147 122.206 120.88 122.206H3.38026V84.941H120.88ZM120.88 84.5608H3V122.587H120.88C131.375 122.587 139.893 114.069 139.893 103.574C139.893 93.0786 131.375 84.5608 120.88 84.5608Z" fill="black"/>
<path d="M3.38026 122.206H2.38026V123.206H3.38026V122.206ZM3.38026 84.941V83.941H2.38026V84.941H3.38026ZM3 84.5608V83.5608H2V84.5608H3ZM3 122.587H2V123.587H3V122.587ZM120.88 85.941C130.595 85.941 138.513 93.859 138.513 103.574H140.513C140.513 92.7544 131.699 83.941 120.88 83.941V85.941ZM138.513 103.574C138.513 113.288 130.595 121.206 120.88 121.206V123.206C131.699 123.206 140.513 114.393 140.513 103.574H138.513ZM120.88 121.206H3.38026V123.206H120.88V121.206ZM4.38026 122.206V84.941H2.38026V122.206H4.38026ZM3.38026 85.941H120.88V83.941H3.38026V85.941ZM120.88 83.5608H3V85.5608H120.88V83.5608ZM2 84.5608V122.587H4V84.5608H2ZM3 123.587H120.88V121.587H3V123.587ZM120.88 123.587C131.927 123.587 140.893 114.621 140.893 103.574H138.893C138.893 113.517 130.823 121.587 120.88 121.587V123.587ZM140.893 103.574C140.893 92.5263 131.927 83.5608 120.88 83.5608V85.5608C130.823 85.5608 138.893 93.6309 138.893 103.574H140.893Z" fill="#C3CEEB" mask="url(#path-6-inside-1)"/>
<path d="M118.98 113.271C124.125 113.271 128.296 109.1 128.296 103.954C128.296 98.809 124.125 94.6379 118.98 94.6379C113.835 94.6379 109.664 98.809 109.664 103.954C109.664 109.1 113.835 113.271 118.98 113.271Z" fill="white"/>
<mask id="path-9-inside-2" fill="white">
<path d="M118.98 94.8283C123.999 94.8283 128.106 98.935 128.106 103.954C128.106 108.974 123.999 113.081 118.98 113.081C113.96 113.081 109.853 108.974 109.853 103.954C109.853 98.935 113.96 94.8283 118.98 94.8283ZM118.98 94.448C113.732 94.448 109.473 98.7069 109.473 103.954C109.473 109.202 113.732 113.461 118.98 113.461C124.227 113.461 128.486 109.202 128.486 103.954C128.486 98.7069 124.227 94.448 118.98 94.448Z"/>
</mask>
<path d="M118.98 94.8283C123.999 94.8283 128.106 98.935 128.106 103.954C128.106 108.974 123.999 113.081 118.98 113.081C113.96 113.081 109.853 108.974 109.853 103.954C109.853 98.935 113.96 94.8283 118.98 94.8283ZM118.98 94.448C113.732 94.448 109.473 98.7069 109.473 103.954C109.473 109.202 113.732 113.461 118.98 113.461C124.227 113.461 128.486 109.202 128.486 103.954C128.486 98.7069 124.227 94.448 118.98 94.448Z" fill="black"/>
<path d="M118.98 95.8283C123.447 95.8283 127.106 99.4873 127.106 103.954H129.106C129.106 98.3828 124.551 93.8283 118.98 93.8283V95.8283ZM127.106 103.954C127.106 108.422 123.447 112.081 118.98 112.081V114.081C124.551 114.081 129.106 109.526 129.106 103.954H127.106ZM118.98 112.081C114.512 112.081 110.853 108.422 110.853 103.954H108.853C108.853 109.526 113.408 114.081 118.98 114.081V112.081ZM110.853 103.954C110.853 99.4873 114.512 95.8283 118.98 95.8283V93.8283C113.408 93.8283 108.853 98.3828 108.853 103.954H110.853ZM118.98 93.448C113.18 93.448 108.473 98.1546 108.473 103.954H110.473C110.473 99.2592 114.284 95.448 118.98 95.448V93.448ZM108.473 103.954C108.473 109.754 113.18 114.461 118.98 114.461V112.461C114.284 112.461 110.473 108.65 110.473 103.954H108.473ZM118.98 114.461C124.779 114.461 129.486 109.754 129.486 103.954H127.486C127.486 108.65 123.675 112.461 118.98 112.461V114.461ZM129.486 103.954C129.486 98.1546 124.779 93.448 118.98 93.448V95.448C123.675 95.448 127.486 99.2592 127.486 103.954H129.486Z" fill="#C3CEEB" mask="url(#path-9-inside-2)"/>
<path d="M100.258 64.9733L86.2884 48.9002C85.6615 48.179 84.5687 48.1024 83.8474 48.7293C83.1262 49.3561 83.0497 50.4489 83.6765 51.1702L97.6457 67.2432C98.2725 67.9645 99.3653 68.041 100.087 67.4142C100.808 66.7873 100.884 65.6945 100.258 64.9733Z" fill="#6B93C0"/>
<path d="M93.3162 75.9188L74.4329 54.1915C73.8061 53.4702 72.7132 53.3937 71.992 54.0205C71.2707 54.6474 71.1942 55.7402 71.821 56.4615L90.7043 78.1888C91.3312 78.91 92.424 78.9866 93.1453 78.3597C93.8665 77.7329 93.9431 76.64 93.3162 75.9188Z" fill="#6B93C0"/>
<path d="M101.486 75.7774L74.4954 44.722C73.8686 44.0007 72.7757 43.9242 72.0545 44.551C71.3332 45.1779 71.2567 46.2707 71.8835 46.992L98.8739 78.0474C99.5008 78.7687 100.594 78.8452 101.315 78.2184C102.036 77.5915 102.113 76.4987 101.486 75.7774Z" fill="#6B93C0"/>
<rect width="49.7914" height="48.3688" transform="translate(0 94)" fill="white"/>
<path d="M42.2144 94H7.57698C3.39877 94 0 97.3017 0 101.36V124.493C0 128.552 3.39877 131.854 7.57698 131.854H30.9422L41.4482 142.062C41.656 142.262 41.9331 142.369 42.2145 142.369C42.3531 142.369 42.4938 142.342 42.6281 142.289C43.0329 142.127 43.297 141.742 43.297 141.317V131.78C46.9643 131.267 49.7915 128.195 49.7915 124.493V101.36C49.7914 97.3017 46.3926 94 42.2144 94ZM47.6265 124.493C47.6265 127.393 45.1976 129.751 42.2144 129.751C41.6169 129.751 41.132 130.222 41.132 130.802V138.779L32.1565 130.058C31.9531 129.862 31.6781 129.751 31.3902 129.751H7.57698C4.59386 129.751 2.16491 127.393 2.16491 124.493V101.36C2.16491 98.4604 4.59386 96.1031 7.57698 96.1031H42.2144C45.1976 96.1031 47.6265 98.4605 47.6265 101.36V124.493Z" fill="#8B9BC7"/>
<path d="M24.8957 119.236C23.1053 119.236 21.6484 120.651 21.6484 122.39C21.6484 124.13 23.1053 125.545 24.8957 125.545C26.6861 125.545 28.143 124.13 28.143 122.39C28.143 120.651 26.6861 119.236 24.8957 119.236ZM24.8957 123.442C24.2982 123.442 23.8133 122.969 23.8133 122.39C23.8133 121.812 24.2982 121.339 24.8957 121.339C25.4932 121.339 25.9782 121.812 25.9782 122.39C25.9782 122.969 25.4932 123.442 24.8957 123.442Z" fill="#8B9BC7"/>
<path d="M28.3553 101.314C27.7426 100.675 26.8766 100.309 25.9783 100.309H23.8134C22.9151 100.309 22.0513 100.675 21.4386 101.314C20.826 101.951 20.512 102.816 20.5748 103.703L21.4905 114.065C21.6161 115.785 23.1055 117.133 24.8958 117.133C26.6709 117.133 28.1604 115.785 28.2838 114.081L29.2169 103.688C29.2818 102.818 28.9679 101.954 28.3553 101.314ZM27.0607 103.522L26.1255 113.917C26.08 114.542 25.5389 115.03 24.8785 115.03C24.2335 115.03 23.6944 114.542 23.6467 113.901L22.7331 103.539C22.7115 103.243 22.8132 102.961 23.021 102.746C23.2288 102.532 23.5102 102.412 23.8133 102.412H25.9783C26.2814 102.412 26.5628 102.532 26.7706 102.746C26.9784 102.961 27.0802 103.243 27.0607 103.522Z" fill="#8B9BC7"/>
<defs>
<clipPath id="clip0">
<rect width="49.7914" height="48.3688" fill="white" transform="translate(0 94)"/>
</clipPath>
</defs>
</svg>
