<svg width="12" height="15" viewBox="0 0 12 15" fill="none" xmlns="http://www.w3.org/2000/svg">
<path d="M11.3327 14.6666H0.666016V13.3333C0.666016 12.4492 1.01721 11.6014 1.64233 10.9763C2.26745 10.3511 3.11529 9.99996 3.99935 9.99996H7.99935C8.8834 9.99996 9.73125 10.3511 10.3564 10.9763C10.9815 11.6014 11.3327 12.4492 11.3327 13.3333V14.6666ZM5.99935 8.66663C5.47406 8.66663 4.95392 8.56316 4.46862 8.36214C3.98331 8.16113 3.54236 7.86649 3.17092 7.49505C2.79949 7.12362 2.50485 6.68266 2.30383 6.19736C2.10281 5.71206 1.99935 5.19191 1.99935 4.66663C1.99935 4.14134 2.10281 3.62119 2.30383 3.13589C2.50485 2.65059 2.79949 2.20963 3.17092 1.8382C3.54236 1.46676 3.98331 1.17213 4.46862 0.971108C4.95392 0.770089 5.47406 0.666626 5.99935 0.666626C7.06021 0.666626 8.07763 1.08805 8.82778 1.8382C9.57792 2.58834 9.99935 3.60576 9.99935 4.66663C9.99935 5.72749 9.57792 6.74491 8.82778 7.49505C8.07763 8.2452 7.06021 8.66663 5.99935 8.66663Z" fill="#8B9BC7"/>
</svg>
