<svg width="1920" height="374" viewBox="0 0 1920 374" fill="none" xmlns="http://www.w3.org/2000/svg">
<path d="M778.503 90.0309H768.371V100.163H759.55V90.0309H749.418V81.2101H759.55V71.0781H768.371V81.2101H778.503V90.0309Z" fill="#D2CCFF"/>
<path d="M952.057 94.799H941.925V104.931H933.105V94.799H922.973V85.9782H933.105V75.8462H941.925V85.9782H952.057V94.799Z" fill="#D2CCFF"/>
<path d="M1132.88 49.5031H1122.75V59.6351H1114.05V49.5031H1103.92V40.6823H1114.05V30.5503H1122.87V40.6823H1133V49.5031H1132.88Z" fill="#D2CCFF"/>
<path d="M778.503 255.361H768.371V265.493H759.55V255.361H749.418V246.54H759.55V236.408H768.371V246.54H778.503V255.361Z" fill="#D2CCFF"/>
<path d="M1161.01 237.481C1161.01 235.216 1159.58 233.786 1156.36 233.786C1152.91 233.786 1150.76 236.17 1149.57 239.15L1140.87 234.144C1143.61 227.588 1149.81 224.012 1156.84 224.012C1163.99 224.012 1171.26 228.422 1171.26 236.647C1171.26 246.064 1161.13 248.925 1161.13 253.335H1151C1150.88 245.825 1161.01 242.964 1161.01 237.481ZM1149.93 263.944C1149.93 260.606 1152.67 257.984 1155.89 257.984C1159.22 257.984 1161.85 260.725 1161.85 263.944C1161.85 267.281 1159.1 269.904 1155.89 269.904C1152.67 269.904 1149.93 267.162 1149.93 263.944Z" fill="#D2CCFF"/>
<path d="M822.488 29.2386C822.488 26.9738 821.058 25.5434 817.84 25.5434C814.383 25.5434 812.237 27.9274 811.045 30.9074L802.344 25.901C805.085 19.345 811.284 15.769 818.316 15.769C825.468 15.769 832.74 20.1794 832.74 28.4042C832.74 37.821 822.608 40.6818 822.608 45.0922H812.476C812.356 37.7018 822.488 34.841 822.488 29.2386ZM811.403 55.701C811.403 52.3634 814.144 49.741 817.363 49.741C820.7 49.741 823.323 52.4826 823.323 55.701C823.323 59.0386 820.581 61.661 817.363 61.661C814.144 61.661 811.403 59.0386 811.403 55.701Z" fill="#D2CCFF"/>
<path d="M1180.8 14.1005C1180.8 11.8357 1179.37 10.4053 1176.15 10.4053C1172.7 10.4053 1170.55 12.7893 1169.36 15.7693L1160.66 10.7629C1163.4 4.20686 1169.6 0.630859 1176.63 0.630859C1183.78 0.630859 1191.05 5.04126 1191.05 13.2661C1191.05 22.6829 1180.92 25.5437 1180.92 29.9541H1170.79C1170.79 22.5637 1180.8 19.7029 1180.8 14.1005ZM1169.83 40.5628C1169.83 37.2252 1172.58 34.6028 1175.79 34.6028C1179.13 34.6028 1181.75 37.3444 1181.75 40.5628C1181.75 43.9004 1179.01 46.5228 1175.79 46.5228C1172.46 46.642 1169.83 43.9004 1169.83 40.5628Z" fill="#D2CCFF"/>
<path d="M1190.93 91.8187L1190.1 96.8251H1196.77L1195.7 103.739H1188.91L1187.36 113.155H1180.2L1181.75 103.739H1175.91L1174.36 113.155H1167.21L1168.76 103.739H1162.09L1163.28 96.8251H1169.95L1170.79 91.8187H1163.99L1165.19 84.9051H1171.98L1173.53 75.4883H1180.68L1179.13 84.9051H1184.97L1186.52 75.4883H1193.67L1192.12 84.9051H1198.8L1197.61 91.8187H1190.93ZM1183.78 91.8187H1177.94L1177.1 96.8251H1182.95L1183.78 91.8187Z" fill="#D2CCFF"/>
<path d="M1007.6 65.595L1006.77 70.6014H1013.44L1012.37 77.515H1005.58L1004.03 86.9319H996.876L998.426 77.515H992.585L991.035 86.9319H983.883L985.433 77.515H978.758L979.95 70.6014H986.625L987.459 65.595H980.665L981.857 58.6814H988.651L990.201 49.2646H997.353L995.803 58.6814H1001.64L1003.19 49.2646H1010.35L1008.8 58.6814H1015.47L1014.28 65.595H1007.6ZM1000.45 65.595H994.611L993.777 70.6014H999.618L1000.45 65.595Z" fill="#D2CCFF"/>
<path d="M752.28 310.312L751.445 315.319H758.121L757.048 322.232H750.253L748.704 331.649H741.552L743.101 322.232H737.261L735.711 331.649H728.559L730.109 322.232H723.434L724.626 315.319H731.301L732.135 310.312H725.341L726.533 303.399H733.327L734.877 293.982H742.029L740.479 303.399H746.32L747.869 293.982H755.021L753.472 303.399H760.147L758.955 310.312H752.28ZM745.128 310.312H739.287L738.453 315.319H744.293L745.128 310.312Z" fill="#D2CCFF"/>
<path d="M1204.52 310.312L1203.69 315.319H1210.36L1209.29 322.232H1202.5L1200.95 331.649H1193.79L1195.34 322.232H1189.5L1187.95 331.649H1180.8L1182.35 322.232H1175.68L1176.87 315.319H1183.54L1184.38 310.312H1177.58L1178.77 303.399H1185.57L1187.12 293.982H1194.27L1192.72 303.399H1198.56L1200.11 293.982H1207.26L1205.71 303.399H1212.39L1211.2 310.312H1204.52ZM1197.25 310.312H1191.53L1190.69 315.319H1196.54L1197.25 310.312Z" fill="#D2CCFF"/>
<path d="M1080.08 270.381C1079.36 271.453 1077.33 271.334 1076.26 271.096C1074.95 270.857 1073.88 270.023 1072.8 269.189C1069.7 266.805 1066.49 264.301 1063.63 261.56C1062.2 260.129 1060.41 259.056 1059.22 257.507C1058.98 257.149 1059.1 255.719 1059.1 255.361C1059.1 254.646 1059.93 254.765 1060.53 254.765C1063.74 255.004 1066.72 256.792 1069.35 258.58C1070.42 259.295 1071.25 260.129 1072.21 260.725C1073.76 261.798 1075.31 262.752 1076.74 264.063C1077.81 265.017 1078.88 266.328 1079.6 267.639C1079.96 268.235 1080.43 269.189 1080.31 269.904C1080.19 270.381 1079.96 270.738 1080.08 270.381Z" fill="#EBA76C"/>
<path d="M1060.05 258.937C1059.33 258.341 1059.1 257.387 1058.86 256.434C1058.14 253.573 1058.02 250.593 1057.78 247.613C1057.55 245.229 1057.9 242.726 1057.43 240.223C1056.95 237.958 1055.88 235.693 1055.76 233.428C1055.64 232.117 1055.64 230.091 1056.35 228.66C1056.59 228.064 1057.43 228.064 1057.78 228.422C1058.02 228.66 1058.14 228.899 1058.26 229.137C1058.5 229.614 1058.5 230.567 1058.74 231.163C1059.1 232.355 1059.69 233.547 1059.93 234.739C1060.17 234.263 1060.05 233.309 1060.05 232.355C1060.05 232.117 1060.41 231.998 1060.53 232.236C1060.88 233.309 1061.24 234.739 1061.36 235.693C1061.48 236.885 1060.88 238.435 1061 239.507C1061.24 241.534 1062.08 243.083 1062.55 245.11C1063.39 248.447 1064.94 252.023 1064.58 255.48C1064.46 256.315 1064.7 257.864 1063.98 258.46C1063.27 259.175 1060.88 259.414 1060.05 258.937Z" fill="#EBA76C"/>
<path d="M1083.89 265.255C1083.18 264.659 1081.98 264.659 1081.03 264.42C1079.84 264.063 1078.53 263.467 1077.45 262.871C1076.86 262.513 1076.38 262.155 1075.67 261.798C1075.07 261.559 1074.35 261.321 1073.88 260.963C1073.4 260.606 1073.04 260.129 1072.45 260.487C1071.97 260.844 1071.49 261.44 1071.02 261.798C1070.18 262.513 1069.35 263.347 1068.87 264.42C1068.51 265.135 1068.51 265.97 1068.16 266.685C1068.87 267.043 1069.35 267.639 1069.94 268.115C1070.78 268.592 1071.73 269.069 1072.45 269.784C1073.04 270.38 1073.52 270.976 1074 271.691C1074.83 272.764 1074.59 273.718 1074.59 275.029C1074.47 277.175 1073.88 279.32 1073.88 281.347C1074.24 281.108 1074.59 280.751 1074.95 280.512C1075.55 280.155 1076.26 279.916 1076.74 279.439C1077.81 278.486 1077.81 276.698 1078.17 275.387C1078.65 273.122 1079.48 270.976 1081.03 269.188C1081.74 268.473 1082.34 267.758 1082.82 266.804C1083.18 266.208 1083.53 265.612 1083.89 265.255C1083.77 265.374 1083.65 265.612 1083.89 265.255Z" fill="#C4DFF8"/>
<path d="M825.228 226.157C825.228 225.919 825.347 225.561 825.347 225.323C825.705 223.058 825.943 220.674 826.897 218.528C827.255 217.575 827.731 216.621 828.089 215.548C828.447 214.595 828.447 213.403 828.089 212.449C827.374 213.403 827.016 214.475 826.778 215.548C826.778 213.045 826.897 210.542 827.255 208.158C827.016 208.039 826.778 208.158 826.659 208.277C825.705 208.754 824.751 209.469 824.036 210.303C823.679 210.661 823.321 211.138 823.202 211.615C822.963 212.211 822.963 212.687 823.083 213.283C823.202 214.833 823.917 216.74 823.321 218.171C823.083 218.886 823.083 219.363 822.487 220.555C821.533 222.343 820.579 224.131 819.745 226.038C818.672 228.064 816.288 232.951 817.361 235.335C817.957 236.647 818.791 237.362 820.341 237.123C821.771 236.885 822.606 235.574 823.202 234.263C823.917 232.236 824.99 228.303 825.228 226.157Z" fill="#EBA76C"/>
<path d="M818.552 260.487C818.909 259.772 819.148 259.056 819.267 258.341C821.055 251.189 822.485 243.799 822.008 236.289C822.008 235.455 821.889 234.62 821.532 233.905C821.174 233.19 820.459 232.475 819.624 232.356C818.79 232.236 817.956 232.594 817.36 233.309C816.883 233.905 816.525 234.74 816.287 235.455C814.141 241.892 812.83 248.686 812.711 255.6C812.711 257.268 812.83 258.937 813.784 260.368C814.38 261.202 815.333 262.036 816.406 262.156C817.36 262.036 818.194 261.202 818.552 260.487Z" fill="#EBA76C"/>
<path d="M819.983 259.533C820.459 258.698 820.698 257.745 821.055 256.91C821.294 256.195 821.532 255.48 821.651 254.765C821.89 254.169 822.009 253.454 822.128 252.738C822.247 252.023 822.367 251.427 822.486 250.712C822.605 249.52 822.724 248.447 822.843 247.255C818.91 245.825 814.619 245.586 810.566 246.898C810.447 248.686 810.447 250.593 810.566 252.381C810.685 254.169 810.924 255.957 811.758 257.626C812.473 259.175 813.904 260.844 815.453 261.678C817.241 262.513 819.267 260.963 819.983 259.533Z" fill="#9EBEE6"/>
<path d="M543.68 359.423C568.95 356.681 660.733 370.866 687.195 370.27C751.205 368.84 806.037 351.675 806.037 351.675" stroke="#D2CCFF" stroke-width="6.8384" stroke-miterlimit="10"/>
<g filter="url(#filter0_i_16359_427167)">
<path d="M745 168.149C676.434 168.149 629.551 132.296 563.328 128.191C497.106 124.087 395.868 187.464 305.472 197.122C215.076 206.78 87.9056 133.624 0 133.624" stroke="url(#paint0_linear_16359_427167)" stroke-width="13.6769" stroke-miterlimit="10"/>
</g>
<g filter="url(#filter1_i_16359_427167)">
<path d="M856.937 170.252L860.752 99.3281C860.752 99.3281 840.607 99.3281 828.33 99.3281C808.9 99.3281 800.199 134.611 780.888 144.863C764.796 153.445 750.731 153.564 742.625 153.564C734.401 153.564 733.805 168.583 733.805 168.583C733.805 168.583 734.401 183.603 742.625 183.603C750.85 183.603 764.916 183.841 780.888 192.304C800.199 202.555 809.019 237.839 828.33 237.839C840.607 237.839 860.752 237.839 860.752 237.839L856.58 170.133L856.937 170.252Z" fill="url(#paint1_linear_16359_427167)"/>
</g>
<g filter="url(#filter2_i_16359_427167)">
<path d="M898.656 168.584C898.656 144.267 895.199 122.453 889.716 107.196V85.2627H871.121C855.863 85.2627 843.586 122.572 843.586 168.464C843.586 214.475 855.983 251.666 871.121 251.666H889.716V229.733C895.199 214.714 898.656 192.9 898.656 168.584Z" fill="url(#paint2_linear_16359_427167)"/>
</g>
<path d="M888.406 251.785C903.613 251.785 915.941 214.534 915.941 168.583C915.941 122.632 903.613 85.3818 888.406 85.3818C873.199 85.3818 860.871 122.632 860.871 168.583C860.871 214.534 873.199 251.785 888.406 251.785Z" fill="url(#paint3_linear_16359_427167)"/>
<g filter="url(#filter3_i_16359_427167)">
<path d="M888.404 148.558C890.379 148.558 891.98 143.701 891.98 137.71C891.98 131.72 890.379 126.863 888.404 126.863C886.429 126.863 884.828 131.72 884.828 137.71C884.828 143.701 886.429 148.558 888.404 148.558Z" fill="url(#paint4_linear_16359_427167)"/>
<path d="M947.408 126.863H888.404L888.404 148.438H947.408V126.863Z" fill="url(#paint5_linear_16359_427167)"/>
<path d="M949.196 148.558C955.186 148.558 960.043 143.701 960.043 137.71C960.043 131.72 955.186 126.863 949.196 126.863C943.205 126.863 938.349 131.72 938.349 137.71C938.349 143.701 943.205 148.558 949.196 148.558Z" fill="url(#paint6_linear_16359_427167)"/>
</g>
<g filter="url(#filter4_i_16359_427167)">
<path d="M888.404 210.303C890.379 210.303 891.98 205.446 891.98 199.456C891.98 193.465 890.379 188.608 888.404 188.608C886.429 188.608 884.828 193.465 884.828 199.456C884.828 205.446 886.429 210.303 888.404 210.303Z" fill="url(#paint7_linear_16359_427167)"/>
<path d="M947.408 188.728H888.404L888.404 210.303H947.408V188.728Z" fill="url(#paint8_linear_16359_427167)"/>
<path d="M949.196 210.303C955.186 210.303 960.043 205.446 960.043 199.456C960.043 193.465 955.186 188.608 949.196 188.608C943.205 188.608 938.349 193.465 938.349 199.456C938.349 205.446 943.205 210.303 949.196 210.303Z" fill="url(#paint9_linear_16359_427167)"/>
</g>
<path d="M1124.66 359.423C1149.93 356.681 1217.75 370.27 1244.33 370.27C1302.74 370.389 1392.38 343.569 1392.38 343.569" stroke="#D2CCFF" stroke-width="6.8384" stroke-miterlimit="10"/>
<g filter="url(#filter5_i_16359_427167)">
<path d="M1177 168.153C1245.58 168.153 1311.52 203.738 1377.61 199.678C1443.7 195.618 1560.93 147.375 1651.34 156.928C1741.76 166.481 1820.89 197.648 1922 134" stroke="url(#paint10_linear_16359_427167)" stroke-width="13.6769" stroke-miterlimit="10"/>
</g>
<g filter="url(#filter6_i_16359_427167)">
<path d="M1179.37 153.564C1171.14 153.564 1157.08 153.326 1141.11 144.863C1121.8 134.611 1112.97 99.3281 1093.66 99.3281C1081.39 99.3281 1061.24 99.3281 1061.24 99.3281L1065.65 166.795H1065.18L1061.36 237.839C1061.36 237.839 1081.51 237.839 1093.78 237.839C1113.21 237.839 1121.91 202.555 1141.22 192.304C1157.32 183.722 1171.38 183.603 1179.49 183.603C1187.71 183.603 1188.31 168.583 1188.31 168.583C1188.31 168.583 1187.59 153.564 1179.37 153.564Z" fill="url(#paint11_linear_16359_427167)"/>
</g>
<g filter="url(#filter7_i_16359_427167)">
<path d="M1023.34 168.584C1023.34 144.267 1026.8 122.453 1032.28 107.196V85.2627H1050.87C1066.13 85.2627 1078.41 122.572 1078.41 168.464C1078.41 214.475 1066.01 251.666 1050.87 251.666H1032.28V229.733C1026.8 214.714 1023.34 192.9 1023.34 168.584Z" fill="url(#paint12_linear_16359_427167)"/>
</g>
<path d="M1033.59 251.784C1048.8 251.784 1061.12 214.534 1061.12 168.583C1061.12 122.632 1048.8 85.3813 1033.59 85.3813C1018.38 85.3813 1006.05 122.632 1006.05 168.583C1006.05 214.534 1018.38 251.784 1033.59 251.784Z" fill="url(#paint13_linear_16359_427167)"/>
<path d="M1033.59 148.558C1035.57 148.558 1037.17 143.701 1037.17 137.71C1037.17 131.72 1035.57 126.863 1033.59 126.863C1031.62 126.863 1030.02 131.72 1030.02 137.71C1030.02 143.701 1031.62 148.558 1033.59 148.558Z" fill="url(#paint14_linear_16359_427167)"/>
<path d="M1033.59 210.303C1035.57 210.303 1037.17 205.447 1037.17 199.456C1037.17 193.465 1035.57 188.609 1033.59 188.609C1031.62 188.609 1030.02 193.465 1030.02 199.456C1030.02 205.447 1031.62 210.303 1033.59 210.303Z" fill="url(#paint15_linear_16359_427167)"/>
<path d="M835.123 357.873C861.39 357.873 882.683 355.311 882.683 352.151C882.683 348.991 861.39 346.43 835.123 346.43C808.856 346.43 787.562 348.991 787.562 352.151C787.562 355.311 808.856 357.873 835.123 357.873Z" fill="#D2CCFF"/>
<path d="M859.798 233.309C860.036 233.071 860.274 232.951 860.394 232.713C862.062 231.163 863.85 229.614 865.281 227.707C865.877 226.872 866.354 225.919 867.069 225.084C867.784 224.25 868.618 223.535 869.691 223.415C869.334 224.488 868.618 225.442 867.784 226.276C869.81 224.965 871.837 223.415 873.744 221.747C873.982 221.866 873.982 222.104 874.102 222.343C874.221 223.415 874.221 224.607 873.982 225.68C873.863 226.157 873.625 226.753 873.386 227.111C873.029 227.587 872.552 227.945 872.075 228.183C870.764 229.018 868.857 229.375 867.903 230.687C867.426 231.283 867.069 231.521 866.354 232.713C865.4 234.501 864.327 236.289 863.374 238.077C862.301 240.103 859.559 244.752 856.937 245.229C855.506 245.467 854.434 245.11 853.838 243.799C853.242 242.487 853.838 241.176 854.553 239.865C855.506 237.719 858.248 234.739 859.798 233.309Z" fill="#EBA76C"/>
<path d="M858.009 244.156C858.009 244.275 857.89 244.394 857.89 244.514C857.532 245.229 856.936 245.825 856.34 246.302C852.765 249.401 848.95 252.142 844.897 254.407C842.99 255.48 841.083 256.434 839.057 257.268C837.626 257.864 835.957 258.46 834.289 258.102C833.335 257.864 832.143 257.268 831.666 256.314C831.189 255.48 831.666 254.407 832.143 253.692C832.62 253.096 833.216 252.619 833.812 252.142C839.772 247.732 846.089 243.679 853.241 241.295C853.957 241.057 854.791 240.818 855.625 240.818C856.46 240.818 857.413 241.295 857.771 242.01C858.248 242.726 858.248 243.56 858.009 244.156Z" fill="#EBA76C"/>
<path d="M832.502 244.395C832.145 245.229 831.549 246.063 830.714 246.302C830.476 246.302 829.642 246.302 828.807 246.183C828.569 246.183 828.45 246.183 828.211 246.063C827.377 245.944 826.662 245.706 826.423 245.587C825.827 245.229 824.874 243.56 824.874 243.322C824.874 243.322 824.874 243.203 824.754 243.083C824.635 242.964 824.635 242.726 824.516 242.607C824.158 242.13 823.801 241.414 823.801 241.057C823.801 238.196 824.993 237.481 826.066 236.17C827.138 234.739 828.688 233.786 830.238 233.309C831.072 232.951 832.145 232.713 833.098 233.07C833.933 233.309 833.814 233.905 833.814 234.62C833.933 237.958 833.933 241.295 832.502 244.395Z" fill="#EBA76C"/>
<path d="M829.997 250.712C827.971 252.858 824.753 253.931 821.773 253.215C820.938 252.977 820.104 252.739 819.27 252.619C820.462 251.904 821.058 250.474 821.296 249.043C821.654 247.494 821.534 245.825 821.177 244.395C821.057 244.037 820.342 242.726 820.7 242.487C820.938 242.249 822.488 242.964 822.965 242.964C823.441 242.964 823.918 242.845 824.395 242.607C824.514 242.607 824.514 242.487 824.633 242.487C825.11 242.249 825.587 242.011 826.183 241.891C826.302 241.891 826.421 241.772 826.541 241.891C826.66 241.891 826.66 242.011 826.779 242.011C827.494 242.607 828.09 243.203 828.805 243.799C828.567 244.514 828.448 245.11 828.329 245.825V245.944C828.209 246.54 828.209 247.255 828.209 247.971C828.209 248.209 828.209 248.328 828.209 248.567C828.209 248.805 828.329 249.043 828.329 249.282C828.448 250.116 829.163 250.593 829.997 250.712Z" fill="#EBA76C"/>
<path d="M828.209 246.063C828.09 246.659 828.09 247.374 828.09 248.09C828.09 248.328 828.09 248.447 828.09 248.686C827.851 248.566 827.732 248.328 827.613 248.209C827.255 247.97 827.017 247.613 826.778 247.374C825.944 246.421 825.467 245.348 824.99 244.156C824.871 243.798 824.752 243.56 824.633 243.202C824.633 242.964 824.633 242.845 824.633 242.606C825.348 243.441 825.944 244.275 826.778 244.99C827.255 245.348 827.732 245.706 828.209 245.944C828.209 245.944 828.328 245.944 828.328 246.063C828.447 246.182 828.566 246.182 828.805 246.302C828.566 246.182 828.328 246.063 828.209 246.063Z" fill="#E17D27"/>
<path d="M825.943 245.229C826.539 244.752 827.016 244.275 827.493 243.679C828.446 242.249 828.804 240.58 829.638 239.031C830.234 238.077 830.949 237.243 831.903 236.647C832.618 236.17 833.572 235.812 834.168 235.216C835.241 234.263 835.717 232.832 835.717 231.521C835.717 230.091 835.241 228.779 834.764 227.468C834.287 228.064 833.453 228.303 832.618 228.303C830.473 228.541 828.208 228.422 826.062 228.66C823.917 228.899 821.652 229.495 820.222 231.163C818.672 232.951 818.434 235.455 818.434 237.719C818.434 238.911 818.434 240.103 818.672 241.176C819.03 242.607 819.626 244.037 820.579 245.229C822.129 247.255 824.274 246.659 825.943 245.229Z" fill="#BE9AD0"/>
<path d="M830.118 238.554C829.999 238.315 829.76 237.958 829.403 237.839C829.045 237.719 828.688 237.719 828.449 237.958C828.211 238.196 828.211 238.435 828.211 238.673C828.211 238.911 828.33 239.15 828.449 239.388C828.807 240.223 829.164 241.057 829.76 241.772C829.88 241.891 829.999 242.011 830.118 242.011C830.237 242.011 830.237 241.891 830.356 241.772C830.356 241.534 830.595 241.176 830.714 240.938C830.833 240.58 830.833 240.342 830.833 239.984C830.833 239.984 830.833 240.103 830.833 239.984C830.476 239.746 830.356 239.031 830.118 238.554Z" fill="#EBA76C"/>
<path d="M817.48 350.244C817.361 350.84 817.361 351.555 817.48 352.032C817.838 353.224 819.268 353.82 820.46 353.701C821.652 353.582 822.844 352.986 823.917 352.271C825.705 351.198 827.374 350.125 828.923 348.695C829.519 348.218 829.996 347.622 830.354 346.907C830.711 346.191 830.711 345.357 830.354 344.642C829.758 343.569 828.327 343.331 827.135 343.688C825.943 343.927 824.99 344.642 823.917 345.238C822.486 345.953 821.533 346.43 820.102 347.026C818.314 347.741 817.718 348.456 817.48 350.244Z" fill="#6D9AD8"/>
<path d="M815.455 292.671C815.098 296.485 815.813 300.419 816.409 304.233C817.005 308.286 817.482 312.339 817.72 316.391C817.839 317.583 817.958 318.895 817.72 320.087C817.482 322.113 816.766 324.02 816.29 326.047C815.574 329.384 815.932 332.841 816.29 336.298C816.528 338.563 816.766 340.827 817.005 343.092C817.243 345.238 817.482 347.383 818.078 349.41C819.985 350.125 821.058 349.291 821.773 348.695C822.13 342.735 823.084 336.894 824.634 331.053C825.11 329.265 825.706 327.477 825.945 325.57C826.302 323.543 826.302 321.398 826.541 319.252C827.018 311.266 828.805 303.279 828.09 295.293C827.852 292.194 827.137 289.095 826.541 286.115C826.541 285.876 826.422 285.519 826.183 285.399C825.945 285.161 825.587 285.161 825.349 285.042C823.68 284.803 822.011 284.565 820.462 284.327C819.508 284.207 818.197 283.731 817.362 284.565C816.528 285.399 816.409 287.307 816.17 288.26C815.932 289.81 815.574 291.24 815.455 292.671Z" fill="#F2A71D"/>
<path d="M833.813 353.463C833.694 354.059 833.575 354.774 833.813 355.37C834.171 356.681 835.601 357.396 837.032 357.277C838.343 357.277 839.654 356.562 840.846 355.966C842.753 355.012 844.541 353.939 846.329 352.867C847.402 352.151 848.356 351.436 848.952 350.363C849.428 349.29 849.309 347.741 848.236 347.145C847.044 346.43 845.733 347.145 844.422 347.622C843.111 348.098 841.681 348.456 840.25 348.694C838.82 348.933 836.436 348.933 835.125 349.648C833.933 350.363 834.052 352.271 833.813 353.463Z" fill="#6D9AD8"/>
<path d="M825.11 299.823C825.944 301.015 826.898 302.088 827.613 303.399C828.686 305.068 829.282 306.975 829.878 308.882C831.547 314.127 833.216 319.372 833.335 324.855C833.454 328.669 832.62 332.484 832.62 336.298C832.5 338.801 832.739 341.424 832.977 343.927C833.216 346.549 833.454 349.172 833.692 351.675C835.838 351.913 837.984 351.436 839.891 350.364C839.533 343.927 840.248 337.49 841.321 331.172C841.798 328.073 842.513 325.093 842.752 321.994C843.228 316.272 842.513 310.551 841.798 304.948C840.964 297.916 840.01 290.764 837.626 284.208C837.745 284.684 825.825 285.757 824.752 285.876C820.938 286.234 822.011 290.883 822.607 293.624C822.965 295.77 823.799 297.916 825.11 299.823Z" fill="#F2A71D"/>
<path d="M822.368 316.034C822.725 317.345 823.202 318.656 823.321 319.967C823.56 321.517 823.441 323.067 823.321 324.616C823.202 326.404 822.964 328.073 822.845 329.861C822.487 334.391 822.13 338.92 821.414 343.45C821.176 345.238 821.772 346.668 821.891 348.695C823.679 342.973 824.513 337.609 825.586 331.768C826.778 325.093 827.136 318.418 827.493 311.623C827.613 309.716 827.732 307.69 827.851 305.783C827.851 304.829 827.97 303.756 827.493 302.922C827.017 302.087 826.063 301.611 825.229 301.015C823.083 299.703 821.653 297.677 819.865 296.127C819.15 297.081 819.865 299.346 819.865 300.419C819.984 302.207 820.222 303.875 820.341 305.663C820.699 309.239 821.414 312.696 822.368 316.034Z" fill="#D86F13"/>
<path d="M838.221 272.407C838.34 271.215 838.578 270.023 838.578 268.831C838.578 266.685 837.982 264.539 837.267 262.513C836.433 259.771 835.598 256.911 834.764 254.169C834.406 253.096 834.168 252.143 833.572 251.189C832.261 251.427 830.83 251.308 829.519 250.951L829.758 251.07C827.97 252.619 825.466 253.454 823.083 253.335C822.844 253.215 822.367 253.215 822.01 253.096C821.771 252.977 821.414 252.739 821.175 252.619C820.818 252.381 820.341 251.785 820.46 251.308C819.745 251.904 819.149 252.023 818.195 252.143C817.48 252.143 816.765 252.262 816.169 252.739C815.215 253.573 814.739 254.765 814.619 255.838V255.957C814.381 257.03 814.381 258.103 814.5 259.175C814.739 261.44 814.977 263.586 815.454 265.731C815.811 267.043 816.288 268.354 816.527 269.784C817.48 275.267 815.215 280.989 816.288 286.472C817.003 286.472 817.48 286.949 818.076 287.307C819.864 288.737 822.248 289.214 824.513 289.214C826.778 289.214 829.042 288.975 831.307 288.856C833.93 288.737 836.79 288.975 838.817 287.307C838.102 282.3 837.744 277.294 838.221 272.407Z" fill="#9EBEE6"/>
<path d="M833.217 252.858C832.502 252.381 831.548 252.858 831.071 253.573C830.594 254.288 830.475 255.123 830.475 255.957C830.356 260.964 831.906 265.851 832.263 270.738C832.382 271.811 832.382 272.884 832.144 273.837C831.906 274.791 831.31 275.744 831.071 276.698C830.475 278.605 830.595 280.632 830.952 282.658C831.31 284.684 831.906 286.592 832.025 288.618C834.528 288.499 836.912 288.022 839.296 287.068C839.415 287.068 839.654 286.949 839.654 286.83C839.773 286.711 839.654 286.472 839.654 286.353C838.7 281.704 838.819 276.817 839.058 272.049C839.177 270.857 839.177 269.665 839.177 268.473C839.058 267.4 838.819 266.208 838.581 265.136C837.985 262.513 837.27 259.772 835.601 257.745C835.005 257.03 834.17 256.315 833.574 255.6C832.978 254.765 832.74 253.692 833.217 252.858C833.336 253.096 833.575 253.454 833.813 253.812L833.217 252.858Z" fill="#5885C7"/>
<path d="M830.235 253.454C830.831 252.619 831.547 252.023 832.143 251.308C832.739 250.831 833.215 250.235 833.811 249.759C834.288 249.282 834.765 248.805 835.361 248.447C835.838 248.09 836.434 247.613 837.03 247.255C837.983 246.659 838.937 245.944 839.891 245.348C842.87 248.209 845.016 252.023 845.612 256.195C844.062 257.149 842.394 257.864 840.725 258.579C839.056 259.295 837.387 259.771 835.599 259.771C833.811 259.771 831.785 259.295 830.355 258.222C828.805 257.149 829.282 254.765 830.235 253.454Z" fill="#9EBEE6"/>
<path d="M828.328 248.686C828.447 248.804 828.328 248.804 828.328 248.686V248.686Z" fill="#5885C7"/>
<path d="M1088.06 365.144C1114.33 365.144 1135.62 362.583 1135.62 359.423C1135.62 356.263 1114.33 353.701 1088.06 353.701C1061.8 353.701 1040.5 356.263 1040.5 359.423C1040.5 362.583 1061.8 365.144 1088.06 365.144Z" fill="#D2CCFF"/>
<path d="M1075.91 264.539C1076.38 264.778 1076.98 264.778 1077.58 264.778C1078.65 264.778 1079.72 264.658 1080.79 264.42C1082.58 263.943 1083.89 262.87 1085.44 262.036C1085.92 261.798 1086.4 261.44 1086.75 261.202C1086.99 261.082 1087.35 260.963 1087.47 260.844C1087.11 260.606 1086.63 260.844 1086.16 260.606C1084.97 260.01 1084.25 258.818 1083.89 257.626C1083.77 257.149 1083.65 256.672 1083.42 256.195C1083.3 255.838 1083.3 255.48 1083.18 255.242C1083.18 255.122 1083.18 254.884 1083.06 254.646C1083.06 254.05 1083.06 253.334 1083.18 252.858C1083.18 252.738 1083.3 252.738 1083.3 252.619C1083.06 252.619 1082.82 252.381 1082.58 252.381C1082.22 252.381 1081.87 252.858 1081.63 252.977C1081.03 253.454 1080.44 254.05 1079.6 254.288C1078.53 254.526 1077.34 254.884 1076.14 254.765C1076.5 255.361 1076.74 256.076 1076.86 256.791C1076.86 256.91 1076.86 256.91 1076.86 257.03C1076.98 257.745 1077.1 258.341 1077.1 259.056C1077.1 259.056 1077.1 259.056 1077.1 259.175C1077.1 259.89 1076.98 260.606 1076.74 261.321C1076.74 262.274 1076.5 263.466 1075.91 264.539Z" fill="#D29026"/>
<path d="M1073.76 245.944C1073.64 246.779 1073.17 247.494 1073.17 248.328C1073.05 249.52 1073.17 250.832 1073.52 252.024C1074.24 254.288 1075.91 256.792 1077.7 258.341C1080.44 260.725 1083.06 256.196 1083.77 253.812C1084.37 251.904 1084.85 249.163 1083.77 247.375C1082.94 245.944 1081.63 244.395 1079.84 243.918C1078.65 243.56 1076.98 243.799 1075.91 244.395C1074.95 244.752 1074.36 246.064 1073.76 245.944Z" fill="#EBA76C"/>
<path d="M1082.58 249.282C1080.79 246.898 1078.17 247.732 1077.1 247.613C1075.07 247.375 1073.76 245.706 1073.52 243.799C1073.4 242.845 1073.28 241.414 1073.64 240.461C1074.48 240.699 1075.07 241.176 1076.02 240.938C1077.1 240.699 1077.81 240.342 1078.89 240.223C1080.91 240.103 1083.18 240.58 1084.49 242.13C1086.28 244.156 1087.11 246.898 1086.99 249.639C1086.99 250.474 1084.85 257.268 1083.42 256.195C1082.94 255.838 1083.18 252.977 1083.06 252.262C1083.06 251.547 1082.82 249.639 1082.58 249.282Z" fill="#1E3358"/>
<path d="M1074.72 243.56C1072.93 243.441 1071.86 245.825 1071.62 247.494C1071.5 249.044 1072.09 250.712 1072.57 252.143C1072.81 252.858 1073.17 253.692 1073.64 254.408C1073.76 254.646 1074.48 255.957 1074.84 255.957C1075.43 255.838 1074.48 254.05 1074.36 253.812C1074 252.858 1073.64 251.785 1073.52 250.712C1073.4 249.163 1073.29 247.613 1074 246.183C1074.72 244.991 1075.07 244.633 1074.72 243.56Z" fill="#1E3358"/>
<path d="M1082.58 250.355C1082.82 249.759 1082.82 249.282 1083.18 248.924C1083.54 248.686 1083.89 248.567 1084.25 248.924C1084.97 249.759 1084.01 250.832 1083.65 251.428C1083.42 251.785 1083.18 252.143 1082.94 252.5C1082.82 252.024 1082.82 251.666 1082.7 251.189C1082.82 251.07 1082.7 250.355 1082.58 250.355Z" fill="#EBA76C"/>
<path d="M1092.36 350.602C1092.83 351.555 1092.24 353.105 1092.48 354.178C1092.6 355.251 1093.43 356.085 1094.03 356.919C1094.98 358.231 1097.6 360.495 1096.77 362.283C1095.81 364.429 1093.07 363.595 1091.64 362.522C1090.21 361.449 1089.73 359.542 1088.54 358.111C1087.59 357.039 1087.59 356.085 1087.83 354.655C1088.07 353.343 1088.07 352.032 1088.19 350.602C1089.02 350.483 1090.09 350.721 1090.93 350.721C1091.4 350.84 1092.6 350.959 1092.36 350.602Z" fill="#6190D5"/>
<path d="M1080.2 350.482C1080.31 351.794 1079.96 353.105 1080.2 354.416C1080.43 355.489 1081.39 356.681 1081.15 357.992C1080.91 359.184 1079.36 359.184 1078.29 359.542C1077.22 359.899 1076.5 360.495 1075.9 361.449C1074.59 363.237 1071.26 363.714 1069.59 361.926C1068.75 361.091 1068.63 359.661 1069.47 358.946C1070.3 358.23 1071.61 358.23 1072.69 357.634C1075.31 356.085 1076.62 353.701 1076.5 350.602C1077.81 350.721 1079 350.959 1080.2 350.721C1080.08 350.721 1080.08 350.84 1080.2 350.482Z" fill="#6190D5"/>
<path d="M1089.97 289.81C1091.05 290.286 1091.64 293.147 1092.12 294.339C1092.83 296.127 1093.31 298.034 1093.55 299.822C1094.26 305.067 1093.55 310.193 1092.95 315.438C1092.71 317.464 1092.36 319.49 1092.24 321.636C1092.12 323.782 1092.71 326.523 1093.43 328.43C1094.26 330.576 1094.74 334.51 1094.5 336.774C1094.14 339.158 1094.38 339.397 1094.14 341.781C1093.91 344.046 1093.67 346.191 1093.55 348.456C1093.55 349.29 1093.43 350.125 1093.43 350.959C1093.43 351.913 1093.19 352.747 1093.19 353.582C1093.19 353.701 1093.07 353.82 1092.95 353.82C1091.05 353.82 1088.66 353.82 1086.99 353.343C1086.87 353.343 1086.87 353.224 1086.87 353.224C1086.4 349.29 1085.68 345.357 1084.85 341.542C1083.66 335.582 1082.46 329.503 1081.39 323.543C1080.32 317.941 1079.13 312.219 1078.41 306.498C1078.05 303.756 1077.93 301.134 1077.93 298.392C1077.93 297.081 1077.93 295.77 1078.05 294.458C1078.05 293.862 1077.93 292.79 1078.41 292.432C1079.01 292.074 1081.15 292.313 1081.87 292.194C1083.18 292.074 1084.37 291.955 1085.68 291.598C1087.23 291.121 1088.9 290.644 1090.45 290.167C1089.97 290.048 1089.62 290.167 1089.97 289.81Z" fill="#F2A71D"/>
<path d="M1082.34 292.313H1082.46C1082.46 292.194 1082.34 292.194 1082.34 292.313Z" fill="#4F4E4E"/>
<path d="M1068.88 309.359C1068.88 315.199 1070.07 321.04 1071.26 326.762C1072.57 332.603 1073.52 338.443 1074.36 344.284C1074.72 346.549 1074.84 348.814 1075.19 351.079C1075.31 351.436 1075.31 352.39 1075.55 352.747C1075.91 353.343 1076.86 353.105 1077.7 353.105C1078.41 353.105 1079.25 353.224 1079.96 353.224C1080.91 353.105 1081.03 352.628 1081.15 351.675C1081.63 347.979 1081.75 345.238 1081.87 342.377C1081.99 340.112 1082.23 337.967 1082.11 335.702C1082.11 335.583 1082.11 335.463 1082.11 335.225C1081.63 331.53 1081.15 327.835 1080.68 324.139C1080.44 322.59 1080.44 321.159 1080.56 319.61C1080.68 317.703 1080.91 315.915 1081.03 314.007C1081.51 307.094 1080.79 300.061 1082.11 293.267C1082.11 293.028 1082.23 292.551 1082.34 292.432C1078.65 292.432 1073.29 294.697 1070.07 292.075C1070.19 295.055 1069.23 297.796 1069.11 300.657C1068.99 303.518 1068.88 306.379 1068.88 309.359Z" fill="#F2A71D"/>
<path d="M1069.35 292.194C1069.47 289.214 1069.71 286.234 1069.71 283.373C1069.71 280.512 1069.71 277.651 1069.95 274.91C1070.07 273.718 1070.19 272.407 1069.95 271.215C1069.71 269.903 1069.59 268.711 1069.59 267.4C1069.59 266.208 1069.47 263.705 1070.78 263.228C1071.74 262.751 1072.69 262.394 1073.64 261.917C1074.72 261.44 1076.03 260.487 1077.22 260.367C1077.22 260.606 1077.22 260.844 1077.22 260.963C1077.34 262.394 1078.65 262.871 1079.84 263.109C1081.51 263.347 1082.94 262.99 1084.13 261.798C1084.61 261.321 1085.09 260.606 1085.21 260.01C1085.92 260.367 1086.64 260.487 1087.35 260.487C1087.71 260.725 1088.18 260.844 1088.54 260.963C1089.26 261.202 1089.97 261.44 1090.81 261.679C1091.4 262.155 1092.12 262.513 1092.95 262.632C1093.43 262.871 1093.91 263.228 1094.38 263.467C1094.5 263.705 1094.5 264.063 1094.62 264.301C1094.98 266.208 1095.22 267.996 1094.14 269.665C1093.67 270.38 1091.16 274.314 1091.16 274.671C1091.05 275.387 1091.16 276.34 1091.16 276.936V277.294C1091.16 278.247 1091.16 279.201 1091.16 280.035C1091.16 283.373 1091.76 286.711 1092.36 290.048C1092.6 291.24 1092.71 292.432 1093.07 293.624C1093.07 293.863 1093.19 293.982 1093.19 294.22C1093.43 294.935 1093.67 296.008 1093.55 296.843C1093.19 296.843 1092.71 296.962 1092.24 297.081C1090.57 297.439 1089.02 298.154 1087.47 298.392C1084.73 298.75 1081.99 298.869 1079.25 298.869C1076.27 298.869 1072.57 299.703 1069.95 297.796C1069.35 297.439 1069.59 296.723 1069.59 296.008C1069.47 294.697 1069.35 293.386 1069.35 292.194Z" fill="#C4DFF8"/>
<path d="M1088.66 267.638C1089.61 268.473 1091.64 267.758 1092.59 267.281C1093.79 266.685 1094.74 265.493 1095.57 264.42C1098.08 261.082 1100.58 257.745 1102.85 254.169C1103.92 252.381 1105.47 250.712 1106.18 248.805C1106.3 248.328 1105.94 247.017 1105.83 246.54C1105.71 245.825 1104.87 246.182 1104.28 246.302C1101.06 247.374 1098.67 250.116 1096.41 252.619C1095.57 253.573 1094.86 254.646 1094.02 255.599C1092.71 257.03 1091.4 258.579 1090.33 260.248C1089.5 261.559 1088.78 263.109 1088.42 264.539C1088.18 265.254 1087.95 266.327 1088.3 267.042C1088.42 267.758 1088.78 267.996 1088.66 267.638Z" fill="#EBA76C"/>
<path d="M1105.35 249.639C1106.18 249.043 1106.3 248.09 1106.54 247.136C1107.26 244.275 1107.49 241.295 1107.85 238.315C1108.09 235.931 1107.85 233.428 1108.33 230.925C1108.81 228.66 1109.88 226.395 1110.12 224.131C1110.24 222.819 1110.36 220.793 1109.64 219.363C1109.4 218.767 1108.57 218.647 1108.21 219.124C1107.97 219.363 1107.85 219.601 1107.73 219.839C1107.49 220.316 1107.38 221.27 1107.26 221.866C1106.9 223.058 1106.3 224.25 1106.06 225.442C1105.83 224.965 1105.94 224.011 1106.06 223.058C1106.06 222.819 1105.71 222.7 1105.59 222.939C1105.23 224.011 1104.87 225.442 1104.75 226.395C1104.63 227.587 1105.23 229.137 1105.11 230.21C1104.87 232.236 1104.04 233.786 1103.44 235.812C1102.49 239.15 1100.94 242.726 1101.18 246.183C1101.3 247.017 1101.06 248.567 1101.77 249.163C1102.13 249.878 1104.51 250.235 1105.35 249.639Z" fill="#EBA76C"/>
<path d="M1068.51 276.459C1068.4 276.459 1068.4 276.34 1068.51 276.459C1068.4 276.459 1068.4 276.459 1068.51 276.459Z" fill="#4F4E4E"/>
<path d="M1076.98 310.312C1077.22 313.292 1077.69 316.391 1078.65 319.252C1079.48 321.398 1079.84 323.782 1079.96 326.166C1079.96 327.119 1079.84 328.192 1079.84 329.146C1079.84 330.338 1079.96 331.411 1080.2 332.603C1080.44 333.675 1080.79 334.629 1081.15 335.702C1081.39 336.417 1081.63 337.132 1081.99 337.728C1081.99 337.013 1081.99 336.417 1081.99 335.702C1081.99 335.583 1081.99 335.463 1081.99 335.225C1081.51 331.53 1081.03 327.835 1080.56 324.139C1080.32 322.59 1080.32 321.159 1080.44 319.61C1080.2 318.418 1079.96 317.107 1079.84 315.795C1079.72 314.484 1079.48 313.292 1079.36 311.981C1079.36 310.789 1079.36 308.882 1078.89 307.809C1078.53 306.855 1077.34 306.498 1076.62 305.902C1076.5 307.213 1076.86 308.763 1076.98 310.312Z" fill="#D86F13"/>
<path d="M1100.46 257.626C1100.1 257.149 1099.51 256.672 1099.03 256.195C1098.55 255.719 1097.96 255.242 1097.48 254.646C1097.12 254.407 1096.88 254.169 1096.53 253.931C1096.17 253.692 1095.45 253.573 1095.22 253.215C1094.98 253.454 1094.26 254.169 1093.78 254.527C1093.07 255.123 1092.35 255.599 1091.64 256.315C1090.92 257.149 1089.97 257.864 1089.14 258.46C1088.06 259.295 1086.75 260.01 1085.44 260.248C1085.2 260.606 1085.08 261.083 1084.84 261.44C1084.61 261.798 1084.37 262.155 1084.01 262.513V262.632C1084.01 263.347 1083.89 263.943 1083.77 264.539C1083.65 265.255 1083.41 265.85 1083.65 266.566C1084.25 268.115 1085.32 269.188 1086.39 270.261C1087.71 271.572 1088.66 273.002 1089.73 274.433C1089.85 274.671 1089.97 274.91 1090.09 275.148C1090.21 274.552 1090.33 274.075 1090.57 273.479C1091.28 272.049 1092.47 270.499 1093.67 269.426C1093.78 269.307 1093.9 269.307 1094.02 269.188C1094.5 268.473 1094.98 267.638 1095.45 266.923C1096.29 265.612 1096.76 264.182 1097.48 262.871C1097.96 262.036 1098.55 261.202 1099.03 260.367C1099.39 259.771 1099.74 259.056 1100.1 258.46C1100.7 258.222 1100.82 258.222 1100.46 257.626Z" fill="#C4DFF8"/>
<defs>
<filter id="filter0_i_16359_427167" x="0" y="121.162" width="745" height="87.6738" filterUnits="userSpaceOnUse" color-interpolation-filters="sRGB">
<feFlood flood-opacity="0" result="BackgroundImageFix"/>
<feBlend mode="normal" in="SourceGraphic" in2="BackgroundImageFix" result="shape"/>
<feColorMatrix in="SourceAlpha" type="matrix" values="0 0 0 0 0 0 0 0 0 0 0 0 0 0 0 0 0 0 127 0" result="hardAlpha"/>
<feOffset dy="4"/>
<feGaussianBlur stdDeviation="2"/>
<feComposite in2="hardAlpha" operator="arithmetic" k2="-1" k3="1"/>
<feColorMatrix type="matrix" values="0 0 0 0 1 0 0 0 0 1 0 0 0 0 1 0 0 0 0.25 0"/>
<feBlend mode="normal" in2="shape" result="effect1_innerShadow_16359_427167"/>
</filter>
<filter id="filter1_i_16359_427167" x="733.805" y="99.3281" width="126.945" height="142.51" filterUnits="userSpaceOnUse" color-interpolation-filters="sRGB">
<feFlood flood-opacity="0" result="BackgroundImageFix"/>
<feBlend mode="normal" in="SourceGraphic" in2="BackgroundImageFix" result="shape"/>
<feColorMatrix in="SourceAlpha" type="matrix" values="0 0 0 0 0 0 0 0 0 0 0 0 0 0 0 0 0 0 127 0" result="hardAlpha"/>
<feOffset dy="4"/>
<feGaussianBlur stdDeviation="2"/>
<feComposite in2="hardAlpha" operator="arithmetic" k2="-1" k3="1"/>
<feColorMatrix type="matrix" values="0 0 0 0 1 0 0 0 0 1 0 0 0 0 1 0 0 0 0.25 0"/>
<feBlend mode="normal" in2="shape" result="effect1_innerShadow_16359_427167"/>
</filter>
<filter id="filter2_i_16359_427167" x="843.586" y="85.2627" width="56.0703" height="169.403" filterUnits="userSpaceOnUse" color-interpolation-filters="sRGB">
<feFlood flood-opacity="0" result="BackgroundImageFix"/>
<feBlend mode="normal" in="SourceGraphic" in2="BackgroundImageFix" result="shape"/>
<feColorMatrix in="SourceAlpha" type="matrix" values="0 0 0 0 0 0 0 0 0 0 0 0 0 0 0 0 0 0 127 0" result="hardAlpha"/>
<feOffset dx="1" dy="3"/>
<feGaussianBlur stdDeviation="2"/>
<feComposite in2="hardAlpha" operator="arithmetic" k2="-1" k3="1"/>
<feColorMatrix type="matrix" values="0 0 0 0 1 0 0 0 0 1 0 0 0 0 1 0 0 0 0.25 0"/>
<feBlend mode="normal" in2="shape" result="effect1_innerShadow_16359_427167"/>
</filter>
<filter id="filter3_i_16359_427167" x="884.828" y="126.863" width="75.2148" height="25.6943" filterUnits="userSpaceOnUse" color-interpolation-filters="sRGB">
<feFlood flood-opacity="0" result="BackgroundImageFix"/>
<feBlend mode="normal" in="SourceGraphic" in2="BackgroundImageFix" result="shape"/>
<feColorMatrix in="SourceAlpha" type="matrix" values="0 0 0 0 0 0 0 0 0 0 0 0 0 0 0 0 0 0 127 0" result="hardAlpha"/>
<feOffset dy="4"/>
<feGaussianBlur stdDeviation="2"/>
<feComposite in2="hardAlpha" operator="arithmetic" k2="-1" k3="1"/>
<feColorMatrix type="matrix" values="0 0 0 0 1 0 0 0 0 1 0 0 0 0 1 0 0 0 0.25 0"/>
<feBlend mode="normal" in2="shape" result="effect1_innerShadow_16359_427167"/>
</filter>
<filter id="filter4_i_16359_427167" x="884.828" y="188.608" width="75.2148" height="25.6943" filterUnits="userSpaceOnUse" color-interpolation-filters="sRGB">
<feFlood flood-opacity="0" result="BackgroundImageFix"/>
<feBlend mode="normal" in="SourceGraphic" in2="BackgroundImageFix" result="shape"/>
<feColorMatrix in="SourceAlpha" type="matrix" values="0 0 0 0 0 0 0 0 0 0 0 0 0 0 0 0 0 0 127 0" result="hardAlpha"/>
<feOffset dy="4"/>
<feGaussianBlur stdDeviation="2"/>
<feComposite in2="hardAlpha" operator="arithmetic" k2="-1" k3="1"/>
<feColorMatrix type="matrix" values="0 0 0 0 1 0 0 0 0 1 0 0 0 0 1 0 0 0 0.25 0"/>
<feBlend mode="normal" in2="shape" result="effect1_innerShadow_16359_427167"/>
</filter>
<filter id="filter5_i_16359_427167" x="1177" y="128.213" width="748.645" height="82.6245" filterUnits="userSpaceOnUse" color-interpolation-filters="sRGB">
<feFlood flood-opacity="0" result="BackgroundImageFix"/>
<feBlend mode="normal" in="SourceGraphic" in2="BackgroundImageFix" result="shape"/>
<feColorMatrix in="SourceAlpha" type="matrix" values="0 0 0 0 0 0 0 0 0 0 0 0 0 0 0 0 0 0 127 0" result="hardAlpha"/>
<feOffset dy="4"/>
<feGaussianBlur stdDeviation="2"/>
<feComposite in2="hardAlpha" operator="arithmetic" k2="-1" k3="1"/>
<feColorMatrix type="matrix" values="0 0 0 0 1 0 0 0 0 1 0 0 0 0 1 0 0 0 0.25 0"/>
<feBlend mode="normal" in2="shape" result="effect1_innerShadow_16359_427167"/>
</filter>
<filter id="filter6_i_16359_427167" x="1061.24" y="99.3281" width="127.066" height="142.51" filterUnits="userSpaceOnUse" color-interpolation-filters="sRGB">
<feFlood flood-opacity="0" result="BackgroundImageFix"/>
<feBlend mode="normal" in="SourceGraphic" in2="BackgroundImageFix" result="shape"/>
<feColorMatrix in="SourceAlpha" type="matrix" values="0 0 0 0 0 0 0 0 0 0 0 0 0 0 0 0 0 0 127 0" result="hardAlpha"/>
<feOffset dy="4"/>
<feGaussianBlur stdDeviation="2"/>
<feComposite in2="hardAlpha" operator="arithmetic" k2="-1" k3="1"/>
<feColorMatrix type="matrix" values="0 0 0 0 1 0 0 0 0 1 0 0 0 0 1 0 0 0 0.25 0"/>
<feBlend mode="normal" in2="shape" result="effect1_innerShadow_16359_427167"/>
</filter>
<filter id="filter7_i_16359_427167" x="1023.34" y="85.2627" width="56.0703" height="169.403" filterUnits="userSpaceOnUse" color-interpolation-filters="sRGB">
<feFlood flood-opacity="0" result="BackgroundImageFix"/>
<feBlend mode="normal" in="SourceGraphic" in2="BackgroundImageFix" result="shape"/>
<feColorMatrix in="SourceAlpha" type="matrix" values="0 0 0 0 0 0 0 0 0 0 0 0 0 0 0 0 0 0 127 0" result="hardAlpha"/>
<feOffset dx="1" dy="3"/>
<feGaussianBlur stdDeviation="2"/>
<feComposite in2="hardAlpha" operator="arithmetic" k2="-1" k3="1"/>
<feColorMatrix type="matrix" values="0 0 0 0 1 0 0 0 0 1 0 0 0 0 1 0 0 0 0.25 0"/>
<feBlend mode="normal" in2="shape" result="effect1_innerShadow_16359_427167"/>
</filter>
<linearGradient id="paint0_linear_16359_427167" x1="0" y1="163" x2="745" y2="163" gradientUnits="userSpaceOnUse">
<stop stop-color="#4776E6"/>
<stop offset="1" stop-color="#8E54E9"/>
</linearGradient>
<linearGradient id="paint1_linear_16359_427167" x1="733.805" y1="168.583" x2="860.752" y2="168.583" gradientUnits="userSpaceOnUse">
<stop stop-color="#4776E6"/>
<stop offset="1" stop-color="#8E54E9"/>
</linearGradient>
<linearGradient id="paint2_linear_16359_427167" x1="843.586" y1="168.464" x2="898.656" y2="168.464" gradientUnits="userSpaceOnUse">
<stop stop-color="#6A11CB"/>
<stop offset="1" stop-color="#2575FC"/>
</linearGradient>
<linearGradient id="paint3_linear_16359_427167" x1="860.871" y1="168.583" x2="915.941" y2="168.583" gradientUnits="userSpaceOnUse">
<stop stop-color="#F3E7FF"/>
<stop offset="1" stop-color="#CDE6FF"/>
</linearGradient>
<linearGradient id="paint4_linear_16359_427167" x1="884.828" y1="137.71" x2="960.043" y2="137.71" gradientUnits="userSpaceOnUse">
<stop stop-color="#6A11CB"/>
<stop offset="1" stop-color="#2575FC"/>
</linearGradient>
<linearGradient id="paint5_linear_16359_427167" x1="884.828" y1="137.71" x2="960.043" y2="137.71" gradientUnits="userSpaceOnUse">
<stop stop-color="#6A11CB"/>
<stop offset="1" stop-color="#2575FC"/>
</linearGradient>
<linearGradient id="paint6_linear_16359_427167" x1="884.828" y1="137.71" x2="960.043" y2="137.71" gradientUnits="userSpaceOnUse">
<stop stop-color="#6A11CB"/>
<stop offset="1" stop-color="#2575FC"/>
</linearGradient>
<linearGradient id="paint7_linear_16359_427167" x1="884.828" y1="199.456" x2="960.043" y2="199.456" gradientUnits="userSpaceOnUse">
<stop stop-color="#6A11CB"/>
<stop offset="1" stop-color="#2575FC"/>
</linearGradient>
<linearGradient id="paint8_linear_16359_427167" x1="884.828" y1="199.456" x2="960.043" y2="199.456" gradientUnits="userSpaceOnUse">
<stop stop-color="#6A11CB"/>
<stop offset="1" stop-color="#2575FC"/>
</linearGradient>
<linearGradient id="paint9_linear_16359_427167" x1="884.828" y1="199.456" x2="960.043" y2="199.456" gradientUnits="userSpaceOnUse">
<stop stop-color="#6A11CB"/>
<stop offset="1" stop-color="#2575FC"/>
</linearGradient>
<linearGradient id="paint10_linear_16359_427167" x1="1177" y1="167" x2="1922" y2="167" gradientUnits="userSpaceOnUse">
<stop stop-color="#4776E6"/>
<stop offset="1" stop-color="#8E54E9"/>
</linearGradient>
<linearGradient id="paint11_linear_16359_427167" x1="1061.24" y1="168.583" x2="1188.31" y2="168.583" gradientUnits="userSpaceOnUse">
<stop stop-color="#4776E6"/>
<stop offset="1" stop-color="#8E54E9"/>
</linearGradient>
<linearGradient id="paint12_linear_16359_427167" x1="1023.34" y1="168.464" x2="1078.41" y2="168.464" gradientUnits="userSpaceOnUse">
<stop stop-color="#6A11CB"/>
<stop offset="1" stop-color="#2575FC"/>
</linearGradient>
<linearGradient id="paint13_linear_16359_427167" x1="1006.05" y1="168.583" x2="1061.12" y2="168.583" gradientUnits="userSpaceOnUse">
<stop stop-color="#F3E7FF"/>
<stop offset="1" stop-color="#CDE6FF"/>
</linearGradient>
<linearGradient id="paint14_linear_16359_427167" x1="1030.02" y1="137.71" x2="1037.17" y2="137.71" gradientUnits="userSpaceOnUse">
<stop stop-color="#6A11CB"/>
<stop offset="1" stop-color="#2575FC"/>
</linearGradient>
<linearGradient id="paint15_linear_16359_427167" x1="1030.02" y1="199.456" x2="1037.17" y2="199.456" gradientUnits="userSpaceOnUse">
<stop stop-color="#6A11CB"/>
<stop offset="1" stop-color="#2575FC"/>
</linearGradient>
</defs>
</svg>
