<svg width="17" height="9" viewBox="0 0 17 9" fill="none" xmlns="http://www.w3.org/2000/svg">
<path d="M0.63854 3.53512H14.1619L11.9217 1.30577C11.6718 1.05699 11.6708 0.652683 11.9196 0.402718C12.1684 0.152721 12.5727 0.151795 12.8227 0.400547L16.1593 3.72107C16.1595 3.72126 16.1597 3.72148 16.1599 3.72167C16.4092 3.97046 16.41 4.37607 16.1599 4.62569C16.1597 4.62588 16.1595 4.6261 16.1594 4.62629L12.8227 7.94681C12.5728 8.19553 12.1685 8.19467 11.9197 7.94464C11.6709 7.69468 11.6718 7.29037 11.9218 7.04159L14.1619 4.81224H0.63854C0.285862 4.81224 -2.09808e-05 4.52636 -2.09808e-05 4.17368C-2.09808e-05 3.821 0.285862 3.53512 0.63854 3.53512Z" fill="#6A4BFF"/>
</svg>
