<svg style="opacity: 0.5"  viewBox="0 0 42 42" fill="none" xmlns="http://www.w3.org/2000/svg">
<path d="M37.0781 0.0820312H4.92188C2.20779 0.0820312 0 2.28983 0 5.00391V29.6953C0 32.4094 2.20779 34.6172 4.92188 34.6172H15.1963L21.0109 42.0519L26.7297 34.6172H37.0781C39.7922 34.6172 42 32.4094 42 29.6953V5.00391C42 2.28983 39.7922 0.0820312 37.0781 0.0820312ZM38.7188 29.6953C38.7188 30.5999 37.9827 31.3359 37.0781 31.3359H25.1141L20.9891 36.6981L16.7959 31.3359H4.92188C4.01729 31.3359 3.28125 30.5999 3.28125 29.6953V5.00391C3.28125 4.09932 4.01729 3.36328 4.92188 3.36328H37.0781C37.9827 3.36328 38.7188 4.09932 38.7188 5.00391V29.6953ZM19.2793 9.26953C19.2793 8.1368 20.1973 7.21875 21.33 7.21875C22.4625 7.21875 23.3808 8.1368 23.3808 9.26953C23.3808 10.4023 22.4625 11.3203 21.33 11.3203C20.1973 11.3203 19.2793 10.4023 19.2793 9.26953ZM23.5619 23.8189L25.0006 26.7678L23.8858 27.3116C23.3302 27.583 22.7332 27.7166 22.1391 27.7166C21.307 27.7166 20.4812 27.4545 19.7833 26.9412C18.5874 26.0616 17.9837 24.6036 18.2077 23.1363C18.2154 23.0851 18.2257 23.0341 18.2385 22.9838L19.5407 17.8037C19.5677 17.4759 19.378 17.2826 19.2578 17.1942C19.1309 17.101 18.8681 16.968 18.5384 17.1292C17.4227 17.6736 17.1929 17.7854 17.1929 17.7854L15.7561 14.8355C15.7567 14.8352 15.9874 14.7227 17.0993 14.1802C18.434 13.5291 20.0057 13.6713 21.2019 14.5509C22.3977 15.4302 23.0014 16.8882 22.7778 18.3555C22.7698 18.4067 22.7595 18.4577 22.747 18.508L21.4448 23.6881C21.4178 24.0159 21.6075 24.2092 21.7274 24.2976C21.8546 24.3912 22.117 24.5238 22.4471 24.3626L23.5619 23.8189Z" fill="#00A3FF"/>
</svg>
