<svg width="" height="16" viewBox="0 0 16 16" fill="#8496C0" xmlns="http://www.w3.org/2000/svg">
<path d="M5.63216 9.71378C5.529 9.49575 5.30944 9.35666 5.06825 9.35666H0.639406C0.294906 9.35666 0.015625 9.63594 0.015625 9.98044V10.6043C0.015625 10.9488 0.294906 11.2281 0.639406 11.2281C0.983906 11.2281 1.26319 10.9488 1.26319 10.6043L3.74928 10.6042L0.157281 14.9805C0.00425 15.1669 -0.0275938 15.4249 0.0755312 15.6429C0.178656 15.861 0.39825 16 0.639406 16H4.97469C5.31919 16 5.59847 15.7207 5.59847 15.3762V14.7524C5.59847 14.4079 5.31919 14.1287 4.97469 14.1287C4.63019 14.1287 4.35091 14.4079 4.35091 14.7524H1.95841L5.55044 10.3762C5.70347 10.1898 5.73531 9.93178 5.63216 9.71378Z" />
<path d="M12.1169 12.8343C12.4614 12.8343 12.7407 12.555 12.7407 12.2105V0.623781C12.7407 0.279281 12.4615 0 12.1169 0C11.7724 0 11.4932 0.279281 11.4932 0.623781V12.2105C11.4932 12.555 11.7724 12.8343 12.1169 12.8343Z"/>
<path d="M15.805 12.2089C15.5629 11.9637 15.168 11.9613 14.9228 12.2034L12.5613 14.5358C12.5604 14.5367 12.5595 14.5376 12.5586 14.5386C12.3154 14.7818 11.9196 14.7817 11.6766 14.5387L9.34632 12.2063C9.10285 11.9626 8.70785 11.9624 8.46416 12.2059C8.22044 12.4494 8.22025 12.8443 8.46375 13.0881L10.7943 15.4207C11.1591 15.7855 11.6383 15.9679 12.1175 15.9679C12.5961 15.9679 13.0746 15.7861 13.4392 15.4223L15.7995 13.091C16.0446 12.8489 16.0471 12.454 15.805 12.2089Z" />
<path d="M2.85384 0C1.28884 0 0.015625 1.27319 0.015625 2.83822V6.0195C0.015625 6.364 0.294906 6.64328 0.639406 6.64328C0.983906 6.64328 1.26319 6.364 1.26319 6.0195V4.74075H4.44447V6.0195C4.44447 6.364 4.72375 6.64328 5.06825 6.64328C5.41275 6.64328 5.69203 6.364 5.69203 6.0195V2.83822C5.69206 1.27319 4.41884 0 2.85384 0ZM4.4445 3.49319H1.26319V2.83822C1.26319 1.96112 1.97675 1.24756 2.85384 1.24756C3.73091 1.24756 4.4445 1.96109 4.4445 2.83822V3.49319Z" />
</svg>
