<svg width="" height="16" viewBox="0 0 16 16" fill="#8496C0" xmlns="http://www.w3.org/2000/svg">
<path d="M5.63216 0.713784C5.529 0.495753 5.30944 0.356659 5.06825 0.356659H0.639406C0.294906 0.356659 0.015625 0.63594 0.015625 0.98044V1.60428C0.015625 1.94878 0.294906 2.22807 0.639406 2.22807C0.983906 2.22807 1.26319 1.94878 1.26319 1.60428L3.74928 1.60422L0.157281 5.98047C0.00425 6.16691 -0.0275938 6.42488 0.0755312 6.64291C0.178656 6.86097 0.39825 7 0.639406 7H4.97469C5.31919 7 5.59847 6.72072 5.59847 6.37622V5.75244C5.59847 5.40794 5.31919 5.12866 4.97469 5.12866C4.63019 5.12866 4.35091 5.40794 4.35091 5.75244H1.95841L5.55044 1.37622C5.70347 1.18975 5.73531 0.931784 5.63216 0.713784Z" />
<path d="M12.1169 12.8343C12.4614 12.8343 12.7407 12.555 12.7407 12.2105V0.623781C12.7407 0.279281 12.4615 0 12.1169 0C11.7724 0 11.4932 0.279281 11.4932 0.623781V12.2105C11.4932 12.555 11.7724 12.8343 12.1169 12.8343Z"/>
<path d="M15.805 12.2089C15.5629 11.9637 15.168 11.9613 14.9228 12.2034L12.5613 14.5358C12.5604 14.5367 12.5595 14.5376 12.5586 14.5386C12.3154 14.7818 11.9196 14.7817 11.6766 14.5387L9.34632 12.2063C9.10285 11.9626 8.70785 11.9624 8.46416 12.2059C8.22044 12.4494 8.22025 12.8443 8.46375 13.0881L10.7943 15.4207C11.1591 15.7855 11.6383 15.9679 12.1175 15.9679C12.5961 15.9679 13.0746 15.7861 13.4392 15.4223L15.7995 13.091C16.0446 12.8489 16.0471 12.454 15.805 12.2089Z" />
<path d="M2.85384 9C1.28884 9 0.015625 10.2732 0.015625 11.8382V15.0195C0.015625 15.364 0.294906 15.6433 0.639406 15.6433C0.983906 15.6433 1.26319 15.364 1.26319 15.0195V13.7407H4.44447V15.0195C4.44447 15.364 4.72375 15.6433 5.06825 15.6433C5.41275 15.6433 5.69203 15.364 5.69203 15.0195V11.8382C5.69206 10.2732 4.41884 9 2.85384 9ZM4.4445 12.4932H1.26319V11.8382C1.26319 10.9611 1.97675 10.2476 2.85384 10.2476C3.73091 10.2476 4.4445 10.9611 4.4445 11.8382V12.4932Z" />
</svg>
