<svg width="" height="19" viewBox="0 0 18 19" fill="#8496C0" xmlns="http://www.w3.org/2000/svg">
<path d="M4.592 10.808C4.68267 10.808 4.744 10.8267 4.776 10.864C4.81333 10.9013 4.832 10.9653 4.832 11.056V11.448C5.2 11.5013 5.49867 11.6213 5.728 11.808C5.95733 11.9893 6.14933 12.24 6.304 12.56C6.352 12.656 6.36267 12.7333 6.336 12.792C6.31467 12.8507 6.25067 12.904 6.144 12.952L5.752 13.128C5.66133 13.1707 5.58933 13.1813 5.536 13.16C5.48267 13.1387 5.42933 13.08 5.376 12.984C5.26933 12.776 5.13867 12.6213 4.984 12.52C4.83467 12.4187 4.624 12.368 4.352 12.368C4.01067 12.368 3.76 12.4213 3.6 12.528C3.44 12.6293 3.36 12.7947 3.36 13.024C3.36 13.1733 3.416 13.2933 3.528 13.384C3.64533 13.4747 3.77333 13.536 3.912 13.568C4.05067 13.5947 4.24267 13.6213 4.488 13.648C4.712 13.6693 4.896 13.6933 5.04 13.72C5.184 13.7413 5.35467 13.7867 5.552 13.856C5.74933 13.9253 5.904 14.0133 6.016 14.12C6.13333 14.2213 6.23467 14.368 6.32 14.56C6.40533 14.752 6.448 14.976 6.448 15.232C6.448 15.6693 6.30667 16.0293 6.024 16.312C5.74667 16.5947 5.34933 16.7733 4.832 16.848V17.264C4.832 17.3547 4.81333 17.4187 4.776 17.456C4.744 17.4933 4.68267 17.512 4.592 17.512H4.152C4.06133 17.512 3.99733 17.4933 3.96 17.456C3.92267 17.4187 3.904 17.3547 3.904 17.264V16.856C3.104 16.7547 2.57067 16.344 2.304 15.624C2.24 15.448 2.30133 15.3253 2.488 15.256L2.88 15.112C2.98133 15.0747 3.05867 15.0693 3.112 15.096C3.16533 15.1227 3.21333 15.1867 3.256 15.288C3.432 15.736 3.792 15.96 4.336 15.96C5.072 15.96 5.44 15.7253 5.44 15.256C5.44 15.1333 5.41067 15.032 5.352 14.952C5.29867 14.872 5.21333 14.8107 5.096 14.768C4.97867 14.72 4.86133 14.6853 4.744 14.664C4.632 14.6427 4.48533 14.624 4.304 14.608C4.08533 14.5867 3.89867 14.5627 3.744 14.536C3.59467 14.504 3.424 14.4533 3.232 14.384C3.04 14.3093 2.88267 14.2187 2.76 14.112C2.64267 14.0053 2.54133 13.8587 2.456 13.672C2.376 13.4853 2.336 13.2693 2.336 13.024C2.336 12.592 2.46933 12.24 2.736 11.968C3.00267 11.6907 3.392 11.5173 3.904 11.448V11.056C3.904 10.9653 3.92267 10.9013 3.96 10.864C3.99733 10.8267 4.06133 10.808 4.152 10.808H4.592Z" />
<path d="M2.85763 1.808C2.94829 1.808 3.00963 1.82667 3.04163 1.864C3.07896 1.90133 3.09763 1.96533 3.09763 2.056V2.448C3.46563 2.50133 3.76429 2.62133 3.99363 2.808C4.22296 2.98933 4.41496 3.24 4.56963 3.56C4.61763 3.656 4.62829 3.73333 4.60163 3.792C4.58029 3.85067 4.51629 3.904 4.40963 3.952L4.01763 4.128C3.92696 4.17067 3.85496 4.18133 3.80163 4.16C3.74829 4.13867 3.69496 4.08 3.64163 3.984C3.53496 3.776 3.40429 3.62133 3.24963 3.52C3.10029 3.41867 2.88963 3.368 2.61762 3.368C2.27629 3.368 2.02563 3.42133 1.86563 3.528C1.70563 3.62933 1.62563 3.79467 1.62563 4.024C1.62563 4.17333 1.68163 4.29333 1.79363 4.384C1.91096 4.47467 2.03896 4.536 2.17763 4.568C2.31629 4.59467 2.50829 4.62133 2.75363 4.648C2.97763 4.66933 3.16163 4.69333 3.30563 4.72C3.44963 4.74133 3.62029 4.78667 3.81763 4.856C4.01496 4.92533 4.16963 5.01333 4.28163 5.12C4.39896 5.22133 4.50029 5.368 4.58563 5.56C4.67096 5.752 4.71363 5.976 4.71363 6.232C4.71363 6.66933 4.57229 7.02933 4.28963 7.312C4.01229 7.59467 3.61496 7.77333 3.09763 7.848V8.264C3.09763 8.35467 3.07896 8.41867 3.04163 8.456C3.00963 8.49333 2.94829 8.512 2.85763 8.512H2.41763C2.32696 8.512 2.26296 8.49333 2.22563 8.456C2.18829 8.41867 2.16963 8.35467 2.16963 8.264V7.856C1.36963 7.75467 0.836292 7.344 0.569625 6.624C0.505625 6.448 0.566958 6.32533 0.753625 6.256L1.14563 6.112C1.24696 6.07467 1.32429 6.06933 1.37763 6.096C1.43096 6.12267 1.47896 6.18667 1.52163 6.288C1.69763 6.736 2.05763 6.96 2.60163 6.96C3.33763 6.96 3.70563 6.72533 3.70563 6.256C3.70563 6.13333 3.67629 6.032 3.61763 5.952C3.56429 5.872 3.47896 5.81067 3.36163 5.768C3.24429 5.72 3.12696 5.68533 3.00963 5.664C2.89763 5.64267 2.75096 5.624 2.56963 5.608C2.35096 5.58667 2.16429 5.56267 2.00963 5.536C1.86029 5.504 1.68963 5.45333 1.49763 5.384C1.30563 5.30933 1.14829 5.21867 1.02563 5.112C0.908292 5.00533 0.806958 4.85867 0.721625 4.672C0.641625 4.48533 0.601625 4.26933 0.601625 4.024C0.601625 3.592 0.734958 3.24 1.00163 2.968C1.26829 2.69067 1.65763 2.51733 2.16963 2.448V2.056C2.16963 1.96533 2.18829 1.90133 2.22563 1.864C2.26296 1.82667 2.32696 1.808 2.41763 1.808H2.85763ZM7.592 1.808C7.68267 1.808 7.744 1.82667 7.776 1.864C7.81333 1.90133 7.832 1.96533 7.832 2.056V2.448C8.2 2.50133 8.49867 2.62133 8.728 2.808C8.95733 2.98933 9.14933 3.24 9.304 3.56C9.352 3.656 9.36267 3.73333 9.336 3.792C9.31467 3.85067 9.25067 3.904 9.144 3.952L8.752 4.128C8.66133 4.17067 8.58933 4.18133 8.536 4.16C8.48267 4.13867 8.42933 4.08 8.376 3.984C8.26933 3.776 8.13867 3.62133 7.984 3.52C7.83467 3.41867 7.624 3.368 7.352 3.368C7.01067 3.368 6.76 3.42133 6.6 3.528C6.44 3.62933 6.36 3.79467 6.36 4.024C6.36 4.17333 6.416 4.29333 6.528 4.384C6.64533 4.47467 6.77333 4.536 6.912 4.568C7.05067 4.59467 7.24267 4.62133 7.488 4.648C7.712 4.66933 7.896 4.69333 8.04 4.72C8.184 4.74133 8.35467 4.78667 8.552 4.856C8.74933 4.92533 8.904 5.01333 9.016 5.12C9.13333 5.22133 9.23467 5.368 9.32 5.56C9.40533 5.752 9.448 5.976 9.448 6.232C9.448 6.66933 9.30667 7.02933 9.024 7.312C8.74667 7.59467 8.34933 7.77333 7.832 7.848V8.264C7.832 8.35467 7.81333 8.41867 7.776 8.456C7.744 8.49333 7.68267 8.512 7.592 8.512H7.152C7.06133 8.512 6.99733 8.49333 6.96 8.456C6.92267 8.41867 6.904 8.35467 6.904 8.264V7.856C6.104 7.75467 5.57067 7.344 5.304 6.624C5.24 6.448 5.30133 6.32533 5.488 6.256L5.88 6.112C5.98133 6.07467 6.05867 6.06933 6.112 6.096C6.16533 6.12267 6.21333 6.18667 6.256 6.288C6.432 6.736 6.792 6.96 7.336 6.96C8.072 6.96 8.44 6.72533 8.44 6.256C8.44 6.13333 8.41067 6.032 8.352 5.952C8.29867 5.872 8.21333 5.81067 8.096 5.768C7.97867 5.72 7.86133 5.68533 7.744 5.664C7.632 5.64267 7.48533 5.624 7.304 5.608C7.08533 5.58667 6.89867 5.56267 6.744 5.536C6.59467 5.504 6.424 5.45333 6.232 5.384C6.04 5.30933 5.88267 5.21867 5.76 5.112C5.64267 5.00533 5.54133 4.85867 5.456 4.672C5.376 4.48533 5.336 4.26933 5.336 4.024C5.336 3.592 5.46933 3.24 5.736 2.968C6.00267 2.69067 6.392 2.51733 6.904 2.448V2.056C6.904 1.96533 6.92267 1.90133 6.96 1.864C6.99733 1.82667 7.06133 1.808 7.152 1.808H7.592Z" />
<path d="M14.1169 14.8343C14.4614 14.8343 14.7407 14.555 14.7407 14.2105V2.62378C14.7407 2.27928 14.4615 1.99999 14.1169 1.99999C13.7724 1.99999 13.4932 2.27928 13.4932 2.62378V14.2105C13.4932 14.555 13.7724 14.8343 14.1169 14.8343Z" />
<path d="M17.805 14.2089C17.5629 13.9637 17.168 13.9613 16.9228 14.2034L14.5613 16.5358C14.5604 16.5367 14.5595 16.5376 14.5586 16.5386C14.3154 16.7818 13.9196 16.7817 13.6766 16.5387L11.3463 14.2063C11.1028 13.9626 10.7078 13.9624 10.4642 14.2059C10.2204 14.4494 10.2203 14.8443 10.4638 15.0881L12.7943 17.4207C13.1591 17.7855 13.6383 17.9679 14.1175 17.9679C14.5961 17.9679 15.0746 17.786 15.4392 17.4223L17.7995 15.091C18.0446 14.8489 18.0471 14.454 17.805 14.2089Z" />
</svg>
