<svg  width="" height="20" viewBox="0 0 18 20" fill="#8496C0" xmlns="http://www.w3.org/2000/svg">
<path d="M4.592 1.808C4.68267 1.808 4.744 1.82667 4.776 1.864C4.81333 1.90133 4.832 1.96533 4.832 2.056V2.448C5.2 2.50133 5.49867 2.62133 5.728 2.808C5.95733 2.98933 6.14933 3.24 6.304 3.56C6.352 3.656 6.36267 3.73333 6.336 3.792C6.31467 3.85067 6.25067 3.904 6.144 3.952L5.752 4.128C5.66133 4.17067 5.58933 4.18133 5.536 4.16C5.48267 4.13867 5.42933 4.08 5.376 3.984C5.26933 3.776 5.13867 3.62133 4.984 3.52C4.83467 3.41867 4.624 3.368 4.352 3.368C4.01067 3.368 3.76 3.42133 3.6 3.528C3.44 3.62933 3.36 3.79467 3.36 4.024C3.36 4.17333 3.416 4.29333 3.528 4.384C3.64533 4.47467 3.77333 4.536 3.912 4.568C4.05067 4.59467 4.24267 4.62133 4.488 4.648C4.712 4.66933 4.896 4.69333 5.04 4.72C5.184 4.74133 5.35467 4.78667 5.552 4.856C5.74933 4.92533 5.904 5.01333 6.016 5.12C6.13333 5.22133 6.23467 5.368 6.32 5.56C6.40533 5.752 6.448 5.976 6.448 6.232C6.448 6.66933 6.30667 7.02933 6.024 7.312C5.74667 7.59467 5.34933 7.77333 4.832 7.848V8.264C4.832 8.35467 4.81333 8.41867 4.776 8.456C4.744 8.49333 4.68267 8.512 4.592 8.512H4.152C4.06133 8.512 3.99733 8.49333 3.96 8.456C3.92267 8.41867 3.904 8.35467 3.904 8.264V7.856C3.104 7.75467 2.57067 7.344 2.304 6.624C2.24 6.448 2.30133 6.32533 2.488 6.256L2.88 6.112C2.98133 6.07467 3.05867 6.06933 3.112 6.096C3.16533 6.12267 3.21333 6.18667 3.256 6.288C3.432 6.736 3.792 6.96 4.336 6.96C5.072 6.96 5.44 6.72533 5.44 6.256C5.44 6.13333 5.41067 6.032 5.352 5.952C5.29867 5.872 5.21333 5.81067 5.096 5.768C4.97867 5.72 4.86133 5.68533 4.744 5.664C4.632 5.64267 4.48533 5.624 4.304 5.608C4.08533 5.58667 3.89867 5.56267 3.744 5.536C3.59467 5.504 3.424 5.45333 3.232 5.384C3.04 5.30933 2.88267 5.21867 2.76 5.112C2.64267 5.00533 2.54133 4.85867 2.456 4.672C2.376 4.48533 2.336 4.26933 2.336 4.024C2.336 3.592 2.46933 3.24 2.736 2.968C3.00267 2.69067 3.392 2.51733 3.904 2.448V2.056C3.904 1.96533 3.92267 1.90133 3.96 1.864C3.99733 1.82667 4.06133 1.808 4.152 1.808H4.592Z" />
<path d="M2.85763 11.808C2.94829 11.808 3.00963 11.8267 3.04163 11.864C3.07896 11.9013 3.09763 11.9653 3.09763 12.056V12.448C3.46563 12.5013 3.76429 12.6213 3.99363 12.808C4.22296 12.9893 4.41496 13.24 4.56963 13.56C4.61763 13.656 4.62829 13.7333 4.60163 13.792C4.58029 13.8507 4.51629 13.904 4.40963 13.952L4.01763 14.128C3.92696 14.1707 3.85496 14.1813 3.80163 14.16C3.74829 14.1387 3.69496 14.08 3.64163 13.984C3.53496 13.776 3.40429 13.6213 3.24963 13.52C3.10029 13.4187 2.88963 13.368 2.61762 13.368C2.27629 13.368 2.02563 13.4213 1.86563 13.528C1.70563 13.6293 1.62563 13.7947 1.62563 14.024C1.62563 14.1733 1.68163 14.2933 1.79363 14.384C1.91096 14.4747 2.03896 14.536 2.17763 14.568C2.31629 14.5947 2.50829 14.6213 2.75363 14.648C2.97763 14.6693 3.16163 14.6933 3.30563 14.72C3.44963 14.7413 3.62029 14.7867 3.81763 14.856C4.01496 14.9253 4.16963 15.0133 4.28163 15.12C4.39896 15.2213 4.50029 15.368 4.58563 15.56C4.67096 15.752 4.71363 15.976 4.71363 16.232C4.71363 16.6693 4.57229 17.0293 4.28963 17.312C4.01229 17.5947 3.61496 17.7733 3.09763 17.848V18.264C3.09763 18.3547 3.07896 18.4187 3.04163 18.456C3.00963 18.4933 2.94829 18.512 2.85763 18.512H2.41763C2.32696 18.512 2.26296 18.4933 2.22563 18.456C2.18829 18.4187 2.16963 18.3547 2.16963 18.264V17.856C1.36963 17.7547 0.836292 17.344 0.569625 16.624C0.505625 16.448 0.566958 16.3253 0.753625 16.256L1.14563 16.112C1.24696 16.0747 1.32429 16.0693 1.37763 16.096C1.43096 16.1227 1.47896 16.1867 1.52163 16.288C1.69763 16.736 2.05763 16.96 2.60163 16.96C3.33763 16.96 3.70563 16.7253 3.70563 16.256C3.70563 16.1333 3.67629 16.032 3.61763 15.952C3.56429 15.872 3.47896 15.8107 3.36163 15.768C3.24429 15.72 3.12696 15.6853 3.00963 15.664C2.89763 15.6427 2.75096 15.624 2.56963 15.608C2.35096 15.5867 2.16429 15.5627 2.00963 15.536C1.86029 15.504 1.68963 15.4533 1.49763 15.384C1.30563 15.3093 1.14829 15.2187 1.02563 15.112C0.908292 15.0053 0.806958 14.8587 0.721625 14.672C0.641625 14.4853 0.601625 14.2693 0.601625 14.024C0.601625 13.592 0.734958 13.24 1.00163 12.968C1.26829 12.6907 1.65763 12.5173 2.16963 12.448V12.056C2.16963 11.9653 2.18829 11.9013 2.22563 11.864C2.26296 11.8267 2.32696 11.808 2.41763 11.808H2.85763ZM7.592 11.808C7.68267 11.808 7.744 11.8267 7.776 11.864C7.81333 11.9013 7.832 11.9653 7.832 12.056V12.448C8.2 12.5013 8.49867 12.6213 8.728 12.808C8.95733 12.9893 9.14933 13.24 9.304 13.56C9.352 13.656 9.36267 13.7333 9.336 13.792C9.31467 13.8507 9.25067 13.904 9.144 13.952L8.752 14.128C8.66133 14.1707 8.58933 14.1813 8.536 14.16C8.48267 14.1387 8.42933 14.08 8.376 13.984C8.26933 13.776 8.13867 13.6213 7.984 13.52C7.83467 13.4187 7.624 13.368 7.352 13.368C7.01067 13.368 6.76 13.4213 6.6 13.528C6.44 13.6293 6.36 13.7947 6.36 14.024C6.36 14.1733 6.416 14.2933 6.528 14.384C6.64533 14.4747 6.77333 14.536 6.912 14.568C7.05067 14.5947 7.24267 14.6213 7.488 14.648C7.712 14.6693 7.896 14.6933 8.04 14.72C8.184 14.7413 8.35467 14.7867 8.552 14.856C8.74933 14.9253 8.904 15.0133 9.016 15.12C9.13333 15.2213 9.23467 15.368 9.32 15.56C9.40533 15.752 9.448 15.976 9.448 16.232C9.448 16.6693 9.30667 17.0293 9.024 17.312C8.74667 17.5947 8.34933 17.7733 7.832 17.848V18.264C7.832 18.3547 7.81333 18.4187 7.776 18.456C7.744 18.4933 7.68267 18.512 7.592 18.512H7.152C7.06133 18.512 6.99733 18.4933 6.96 18.456C6.92267 18.4187 6.904 18.3547 6.904 18.264V17.856C6.104 17.7547 5.57067 17.344 5.304 16.624C5.24 16.448 5.30133 16.3253 5.488 16.256L5.88 16.112C5.98133 16.0747 6.05867 16.0693 6.112 16.096C6.16533 16.1227 6.21333 16.1867 6.256 16.288C6.432 16.736 6.792 16.96 7.336 16.96C8.072 16.96 8.44 16.7253 8.44 16.256C8.44 16.1333 8.41067 16.032 8.352 15.952C8.29867 15.872 8.21333 15.8107 8.096 15.768C7.97867 15.72 7.86133 15.6853 7.744 15.664C7.632 15.6427 7.48533 15.624 7.304 15.608C7.08533 15.5867 6.89867 15.5627 6.744 15.536C6.59467 15.504 6.424 15.4533 6.232 15.384C6.04 15.3093 5.88267 15.2187 5.76 15.112C5.64267 15.0053 5.54133 14.8587 5.456 14.672C5.376 14.4853 5.336 14.2693 5.336 14.024C5.336 13.592 5.46933 13.24 5.736 12.968C6.00267 12.6907 6.392 12.5173 6.904 12.448V12.056C6.904 11.9653 6.92267 11.9013 6.96 11.864C6.99733 11.8267 7.06133 11.808 7.152 11.808H7.592Z" />
<path d="M14.1169 14.8343C14.4614 14.8343 14.7407 14.555 14.7407 14.2105V2.62378C14.7407 2.27928 14.4615 2 14.1169 2C13.7724 2 13.4932 2.27928 13.4932 2.62378V14.2105C13.4932 14.555 13.7724 14.8343 14.1169 14.8343Z"/>
<path d="M17.805 14.2089C17.5629 13.9637 17.168 13.9613 16.9228 14.2034L14.5613 16.5358C14.5604 16.5367 14.5595 16.5376 14.5586 16.5386C14.3154 16.7818 13.9196 16.7817 13.6766 16.5387L11.3463 14.2063C11.1028 13.9626 10.7078 13.9624 10.4642 14.2059C10.2204 14.4494 10.2203 14.8443 10.4638 15.0881L12.7943 17.4207C13.1591 17.7855 13.6383 17.9679 14.1175 17.9679C14.5961 17.9679 15.0746 17.7861 15.4392 17.4223L17.7995 15.091C18.0446 14.8489 18.0471 14.454 17.805 14.2089Z" />
</svg>
