<svg viewBox="0 0 32 32" fill="none" xmlns="http://www.w3.org/2000/svg">
<path d="M29.9411 12.9069C29.5668 12.6041 28.944 12.099 28.866 11.8596C28.7867 11.611 28.9916 10.811 29.1146 10.3349C29.4095 9.18579 29.7771 7.75629 28.9533 6.63098C28.1334 5.51361 26.659 5.41573 25.4742 5.33635C24.9836 5.30198 24.1611 5.24773 23.9534 5.09698C23.7432 4.94492 23.4271 4.16604 23.2381 3.69923C22.7712 2.54217 22.2397 1.23036 20.9424 0.81248C19.6518 0.390668 18.4722 1.13779 17.4342 1.79498C16.9766 2.08323 16.2877 2.51967 15.9994 2.51967C15.7231 2.51967 15.0421 2.07667 14.5898 1.78311C13.5914 1.13379 12.3431 0.329793 11.0274 0.776793C9.73275 1.21717 9.2065 2.52098 8.73969 3.66879C8.55194 4.13161 8.23981 4.90385 8.02563 5.06123C7.81669 5.21592 6.97963 5.27148 6.47975 5.30454C5.23013 5.38917 3.81387 5.48442 3.01781 6.61104C2.23631 7.71785 2.58669 9.08254 2.89613 10.2872C3.01781 10.7659 3.22406 11.5673 3.15 11.8066C3.07069 12.0354 2.45444 12.5419 2.08681 12.8447C1.15706 13.6118 0 14.5652 0 15.9934C0 17.4122 1.13462 18.3551 2.04569 19.1115C2.44106 19.4394 3.03744 19.9353 3.11812 20.1813C3.19744 20.4246 2.99119 21.2154 2.86687 21.6875C2.56537 22.8472 2.1885 24.2912 3.04406 25.4258C3.8785 26.5287 5.34631 26.6265 6.52719 26.7059C7.01781 26.7402 7.839 26.7931 8.04794 26.9452C8.25688 27.0974 8.57163 27.8749 8.76069 28.3417C9.22881 29.4987 9.75906 30.8105 11.0576 31.2297C11.3181 31.3157 11.576 31.3527 11.8272 31.3527C12.8217 31.3527 13.7394 30.7709 14.5672 30.2499C15.0234 29.9616 15.7111 29.5252 15.9993 29.5252C16.281 29.5252 16.958 29.9563 17.405 30.2419C18.3968 30.8727 19.6345 31.6635 20.9476 31.2139C22.2409 30.7735 22.7672 29.471 23.234 28.3205C23.4217 27.859 23.7339 27.0855 23.9481 26.9281C24.1583 26.7734 24.9901 26.7179 25.4873 26.6848C26.7277 26.6002 28.1347 26.5063 28.9427 25.3968C29.7559 24.282 29.4068 22.9028 29.0987 21.6875C28.9784 21.2128 28.7774 20.4207 28.8501 20.1827C28.9294 19.9539 29.5457 19.4474 29.912 19.1446C30.8429 18.3776 32 17.4229 32 15.9947C32 14.5784 30.8575 13.6514 29.9411 12.9069ZM28.2313 17.1055C27.4577 17.7415 26.6576 18.4014 26.3429 19.3469C26.0216 20.3096 26.2834 21.341 26.5359 22.3381C26.6589 22.8247 26.8652 23.638 26.8374 23.8059C26.6364 23.9567 25.8073 24.0135 25.3114 24.0453C24.3289 24.1114 23.2155 24.1855 22.3864 24.7937C21.5652 25.3954 21.1671 26.3779 20.7823 27.3274C20.5946 27.7955 20.2772 28.5797 20.1462 28.6987C19.9056 28.6987 19.2325 28.2663 18.8292 28.0098C17.9974 27.4809 17.0546 26.8792 16.0006 26.8792C14.9454 26.8792 13.9946 27.4822 13.1536 28.0138C12.7463 28.2704 12.0639 28.704 11.9185 28.7358C11.7136 28.589 11.4014 27.8141 11.2137 27.3513C10.8249 26.3899 10.4229 25.3969 9.59381 24.8004C8.77 24.2067 7.72 24.1366 6.70312 24.0692C6.22575 24.0374 5.33581 23.9779 5.17444 23.8682C5.09244 23.6341 5.30006 22.8341 5.42569 22.358C5.67031 21.4152 5.94938 20.3467 5.63462 19.3708C5.31856 18.3962 4.47888 17.6967 3.737 17.0804C3.37469 16.7789 2.69894 16.2169 2.64206 16.0133C2.70156 15.7647 3.39581 15.1921 3.76869 14.8867C4.54225 14.2493 5.34231 13.5894 5.65706 12.6439C5.98106 11.6746 5.71394 10.6352 5.45738 9.63023C5.33306 9.14492 5.12413 8.33298 5.14 8.17829C5.34231 8.03285 6.16481 7.97729 6.65675 7.94423C7.6895 7.87548 8.75931 7.80273 9.58844 7.19579C10.4096 6.5941 10.8077 5.61292 11.1925 4.66348C11.3802 4.19404 11.699 3.41117 11.8206 3.29348C12.0653 3.29742 12.7449 3.73911 13.1509 4.00229C13.9893 4.54711 14.9414 5.16467 16.0006 5.16467C17.0546 5.16467 18.008 4.56167 18.8464 4.03142C19.2537 3.77354 19.936 3.34117 20.0815 3.30942C20.2851 3.45623 20.5986 4.2311 20.7863 4.69392C21.1751 5.65398 21.5771 6.64704 22.4062 7.24342C23.23 7.83848 24.2813 7.90854 25.2996 7.97598C25.8021 8.01035 26.6444 8.06723 26.8018 8.16242C26.8824 8.39517 26.6774 9.19917 26.5531 9.67785C26.3111 10.6247 26.0361 11.6971 26.3521 12.6757C26.6708 13.6609 27.5238 14.3524 28.2762 14.962C28.62 15.2424 29.2534 15.7542 29.3512 16.0001C29.2574 16.2579 28.5923 16.8066 28.2313 17.1055Z" fill="#1A53F0"/>
<path d="M21.9132 11.0121C21.3499 10.5413 20.518 10.618 20.0513 11.1774L14.1548 18.2269L11.6463 15.7198C11.1292 15.2027 10.2935 15.2027 9.77647 15.7198C9.25941 16.2368 9.25941 17.0726 9.77647 17.5896L13.3072 21.1203C13.5545 21.3703 13.8917 21.5078 14.2422 21.5078C14.2607 21.5078 14.2805 21.5078 14.299 21.5051C14.6719 21.4893 15.0171 21.3174 15.2551 21.0331L22.0784 12.874C22.5465 12.3133 22.4739 11.4802 21.9132 11.0121Z" fill="#1A53F0"/>
</svg>
