<svg  viewBox="0 0 154 160" fill="none" xmlns="http://www.w3.org/2000/svg">
<path d="M117.562 55.3234C118.857 55.3234 119.906 54.2743 119.906 52.9796V49.3315C119.906 48.0368 118.857 46.9878 117.562 46.9878C116.268 46.9878 115.219 48.0368 115.219 49.3315V52.9796C115.219 54.2743 116.268 55.3234 117.562 55.3234Z" fill="#00A3FF"/>
<path d="M151.227 152.073H132.553L124.563 127.393C123.504 124.12 121.735 121.145 119.4 118.665C122.304 114.33 124.105 109.43 124.659 104.331C124.666 104.324 124.675 104.317 124.683 104.311C128.691 100.846 129.135 94.766 125.67 90.7567C125.114 90.1132 124.49 89.5629 123.818 89.1045C127.356 87.6414 130.554 85.9229 133.362 83.9604C143.192 77.0911 148.388 67.1562 148.388 55.2291C148.388 49.4488 147.213 43.8244 144.961 38.5426C151.23 29.1526 152.952 17.6252 149.668 6.69121C148.623 3.21279 145.618 0.690933 142.011 0.265935C131.116 -1.01718 120.393 2.38311 112.345 9.61557C105.059 7.01777 97.15 5.65059 88.9916 5.65059C80.9092 5.65059 72.9758 7.02746 65.6574 9.63307C57.6071 2.38874 46.8725 -1.01906 35.9716 0.266248C32.3648 0.690933 29.3592 3.21311 28.3145 6.69184C25.0273 17.6346 26.7555 29.1723 33.0379 38.566C32.2714 40.3595 31.627 42.1923 31.112 44.0576C29.2529 43.1141 27.1642 42.7026 25.0367 42.8879C22.033 43.1507 19.3114 44.5676 17.3736 46.8775L3.0659 63.929C-0.935321 68.6974 -0.31095 75.8314 4.45715 79.8327L24.1033 96.3179L28.9195 100.411C28.517 102.066 28.5626 103.804 29.0733 105.476C29.8236 107.93 31.4848 109.946 33.7513 111.152C33.7735 111.163 33.7967 111.173 33.8192 111.185C32.241 111.419 30.7157 111.807 29.2711 112.356C24.3245 114.236 20.6808 117.889 19.0102 122.641C17.7518 126.222 19.6414 130.16 23.2236 131.42C23.9611 131.678 24.7289 131.81 25.5055 131.81C28.4223 131.81 31.0329 129.96 32.0007 127.207C32.1004 126.924 32.2592 126.579 32.5757 126.233C32.6339 126.18 32.6889 126.125 32.7404 126.067C33.0617 125.767 33.5129 125.474 34.1623 125.227C37.136 124.097 41.7944 124.814 45.7544 127.011C51.2362 130.052 56.6765 130.544 61.9496 128.485L65.2565 131.295C64.699 134.839 63.318 139.024 62.1321 142.378C61.2768 144.798 61.4146 147.407 62.5209 149.723C63.6274 152.039 65.5693 153.786 67.9902 154.642C69.0258 155.007 70.1033 155.193 71.1921 155.193C75.2561 155.193 78.8967 152.618 80.252 148.784C80.7104 147.488 81.1248 146.266 81.5011 145.103L88.6026 151.138C91.9351 153.935 95.9741 155.731 100.283 156.332L126.183 159.943C126.46 159.982 126.737 160.001 127.012 160.001C128.745 160.001 130.388 159.243 131.524 157.889C131.819 157.538 132.065 157.159 132.268 156.762H151.229C152.523 156.762 153.573 155.713 153.573 154.418C153.571 153.123 152.522 152.073 151.227 152.073ZM121.617 100.763C116.191 105.453 105.419 109.722 99.016 109.722H98.9775C96.2632 109.715 94.0613 107.501 94.0688 104.787C94.0763 102.087 96.2741 99.8885 98.9716 99.8785C98.9969 99.8791 99.0225 99.8785 99.0485 99.8785C102.447 99.8638 110.998 96.9285 115.181 93.3145C117.234 91.5398 120.349 91.767 122.124 93.8201C123.898 95.8741 123.671 98.9885 121.617 100.763ZM98.971 114.41H99.0156C101.147 114.41 103.609 114.044 106.188 113.396L114.407 120.381C115.347 121.17 116.199 122.047 116.957 122.995L107.645 134.093L41.8257 78.8645L51.7066 67.089L90.5926 100.141C89.826 101.515 89.3857 103.094 89.381 104.774C89.367 110.073 93.666 114.395 98.971 114.41ZM115.879 115.481L111.473 111.736C114.137 110.738 116.773 109.511 119.163 108.14C118.444 110.712 117.34 113.182 115.879 115.481ZM142.489 33.6189C139.595 28.6342 135.68 24.0414 130.828 20.0243C130.52 19.7689 130.208 19.518 129.894 19.2689C135.346 14.9112 141.304 12.7612 146.045 11.7071C146.981 16.954 147.203 25.1861 142.489 33.6189ZM141.463 4.92122C142.899 5.09059 144.138 5.9459 144.817 7.17996C139.279 8.43714 132.285 11.0434 125.977 16.4227C123.23 14.5921 120.315 12.9805 117.263 11.5996C126.746 4.18154 137.157 4.41372 141.463 4.92122ZM88.9913 10.3384C119.158 10.3384 143.7 30.4758 143.7 55.2278C143.7 65.704 139.319 74.0783 130.677 80.1167C122.678 85.7064 111.089 89.166 97.1644 90.1223C95.8729 90.211 94.8979 91.3295 94.9866 92.621C95.0713 93.8579 96.101 94.8041 97.3225 94.8041C97.3766 94.8041 97.431 94.8023 97.4853 94.7985C99.4481 94.6638 101.368 94.4791 103.244 94.2488C101.431 94.8398 99.8616 95.1907 99.0228 95.1907C99.0113 95.1904 99.0006 95.1904 98.9903 95.1907C97.0825 95.1907 95.3029 95.7535 93.8054 96.7185L63.6452 71.0836C65.2983 70.3177 66.8146 69.7162 67.7893 69.4574C69.0405 69.1252 69.7855 67.8418 69.4533 66.5909C69.1211 65.3399 67.838 64.5959 66.5868 64.9268C64.663 65.4374 61.9474 66.6527 59.7434 67.7674L53.5547 62.5071C53.5675 62.504 53.5806 62.5031 53.5934 62.5C55.9293 61.9153 62.1106 61.4628 64.7833 61.8168C66.0658 61.984 67.2443 61.0834 67.414 59.8003C67.5833 58.5172 66.6805 57.3394 65.3974 57.1697C62.0915 56.7334 55.3037 57.24 52.4565 57.9522C51.4366 58.2075 50.7412 59.0947 50.6844 60.0918L40.9479 51.9222C40.9476 51.9219 40.9472 51.9216 40.9469 51.9213C40.9466 51.9209 40.9463 51.9209 40.946 51.9206L35.1845 47.0863C37.4054 37.1704 43.7032 28.0908 53.0425 21.4008C53.0772 21.3758 53.1128 21.3521 53.1478 21.3271C53.1515 21.3246 53.1553 21.3218 53.1594 21.3189C63.1009 14.2384 75.8192 10.3384 88.9913 10.3384ZM36.5201 4.92122C40.8282 4.41341 51.2497 4.18185 60.7371 11.6143C57.6765 12.994 54.754 14.6018 52.0081 16.4255C45.6991 11.0443 38.7044 8.43776 33.1657 7.18027C33.8448 5.9459 35.0835 5.09059 36.5201 4.92122ZM31.937 11.7068C36.6791 12.7612 42.6372 14.9115 48.09 19.2696C42.8616 23.4142 38.6101 28.2923 35.5079 33.6432C30.7792 25.2024 31.0001 16.959 31.937 11.7068ZM7.46963 76.2411C4.68121 73.9015 4.31621 69.7293 6.65588 66.9412L20.9636 49.8897C22.097 48.5391 23.6886 47.7103 25.4451 47.5569C27.1992 47.4019 28.9129 47.9422 30.2636 49.076L36.1395 54.0062L13.3458 81.1711L7.46963 76.2411ZM16.9358 84.1842L39.7294 57.0197L48.1253 64.0646L36.7298 77.6452C36.7291 77.6458 36.7285 77.6461 36.7282 77.6467C36.7276 77.6474 36.7273 77.648 36.727 77.6486L25.3314 91.2292L16.9358 84.1842ZM30.987 96.0163L28.9126 94.2532L38.8126 82.4551L42.3222 85.4001C39.8198 85.6754 37.5648 86.8917 35.9607 88.8382C33.8504 91.3995 32.0964 94.1457 30.987 96.0163ZM33.5554 104.104C33.1714 102.847 33.2995 101.515 33.917 100.354C34.3338 99.5704 36.5651 95.4757 39.5785 91.8192C40.4147 90.8045 41.5957 90.176 42.9044 90.0501C43.0657 90.0345 43.2263 90.027 43.386 90.027C44.5244 90.027 45.6178 90.4176 46.5072 91.151C48.6016 92.877 48.9013 95.9854 47.1756 98.0797C45.1747 100.508 43.3632 103.559 42.6088 104.978C42.2316 105.687 41.6972 106.277 41.0616 106.716C41.0482 106.725 41.0347 106.733 41.0213 106.742C40.2204 107.284 39.2629 107.589 38.2563 107.589C37.4482 107.589 36.6726 107.395 35.9513 107.011C34.7904 106.394 33.9395 105.362 33.5554 104.104ZM27.5776 125.651C27.2686 126.53 26.4351 127.121 25.5042 127.121C25.2576 127.121 25.0123 127.078 24.7758 126.996C23.633 126.594 23.0295 125.336 23.4314 124.193C23.6402 123.599 23.8958 123.03 24.1898 122.485C25.3495 122.849 26.8501 123.5 28.0351 124.61C27.8595 124.942 27.7051 125.288 27.5776 125.651ZM48.0272 122.911C42.77 119.994 36.8188 119.202 32.4964 120.845C32.1114 120.991 31.7467 121.157 31.3992 121.34C30.1626 120.136 28.7458 119.289 27.4154 118.698C28.4489 117.896 29.6282 117.233 30.9354 116.736C36.5179 114.615 43.7041 115.486 50.1591 119.067C50.7212 119.38 51.2609 119.638 51.7972 119.856L57.6634 124.842C54.5334 125.393 51.3525 124.756 48.0272 122.911ZM75.8311 147.22C75.1367 149.184 73.2714 150.504 71.1902 150.504C70.6346 150.504 70.0821 150.409 69.5499 150.221C66.9911 149.316 65.6449 146.498 66.5496 143.939C67.5174 141.202 68.6102 137.929 69.3439 134.77L77.6205 141.804C77.1167 143.467 76.5273 145.252 75.8311 147.22ZM100.929 151.688C100.367 151.609 99.8116 151.503 99.2628 151.374L100.115 150.359C100.947 149.368 100.818 147.889 99.8263 147.057C98.8347 146.225 97.3566 146.354 96.5244 147.346L94.6294 149.604C93.5672 149.024 92.5597 148.34 91.6251 147.556L69.2552 128.542C69.2536 128.541 69.2521 128.54 69.2505 128.538L63.9071 123.997C63.9059 123.996 63.9049 123.995 63.9037 123.994L45.8063 108.612C46.1566 108.167 46.4747 107.69 46.7469 107.178C47.4194 105.913 49.0284 103.201 50.7928 101.06C52.4094 99.0982 53.1131 96.6813 52.9587 94.3251L104.632 137.684L103.087 139.524C102.255 140.516 102.384 141.994 103.376 142.826C103.815 143.195 104.35 143.375 104.881 143.375C105.55 143.375 106.214 143.09 106.678 142.538L109.728 138.902C109.729 138.902 109.729 138.902 109.729 138.901L109.73 138.9L119.506 127.25C119.728 127.768 119.929 128.296 120.104 128.836L124.043 141.004L113.596 153.454L100.929 151.688ZM127.931 154.875C127.801 155.03 127.429 155.381 126.829 155.299L119.074 154.218L125.747 146.266L128.158 153.715C128.345 154.295 128.062 154.719 127.931 154.875Z" fill="#00A3FF"/>
<path d="M95.5867 58.1246C98.4848 58.1246 101.241 56.8692 103.147 54.6811C103.998 53.7052 103.896 52.2249 102.92 51.3743C101.944 50.5237 100.464 50.6255 99.6132 51.6015C98.5967 52.768 97.1289 53.4371 95.5861 53.4371C94.0433 53.4371 92.5754 52.768 91.5586 51.6015C90.7083 50.6252 89.2277 50.524 88.252 51.3746C87.2761 52.2252 87.1749 53.7055 88.0252 54.6811C89.933 56.8699 92.6889 58.1246 95.5867 58.1246Z" fill="#00A3FF"/>
<path d="M123.383 69.4581C125.988 70.1497 131.531 72.9228 133.468 74.3531C133.887 74.6621 134.374 74.8112 134.858 74.8112C135.577 74.8112 136.286 74.4818 136.746 73.8593C137.514 72.8181 137.293 71.3509 136.252 70.5818C133.89 68.8384 127.809 65.7834 124.585 64.9275C123.332 64.5966 122.051 65.3406 121.719 66.5912C121.387 67.8425 122.132 69.1259 123.383 69.4581Z" fill="#00A3FF"/>
<path d="M73.6103 55.3234C74.905 55.3234 75.9541 54.2743 75.9541 52.9796V49.3315C75.9541 48.0368 74.905 46.9878 73.6103 46.9878C72.3157 46.9878 71.2666 48.0368 71.2666 49.3315V52.9796C71.2666 54.2743 72.3157 55.3234 73.6103 55.3234Z" fill="#00A3FF"/>
<path d="M126.389 61.8182C129.062 61.4651 135.243 61.9173 137.579 62.5013C137.77 62.5488 137.961 62.5719 138.149 62.5719C139.199 62.5719 140.155 61.8613 140.421 60.796C140.735 59.5401 139.972 58.2679 138.716 57.9535C135.869 57.2417 129.082 56.7348 125.775 57.171C124.492 57.3407 123.589 58.5182 123.759 59.8016C123.928 61.0851 125.109 61.9851 126.389 61.8182Z" fill="#00A3FF"/>
</svg>
