<svg width="657" height="365" viewBox="0 0 657 365" fill="none" xmlns="http://www.w3.org/2000/svg">
<line x1="2.12646" y1="78.5" x2="655" y2="78.5" stroke="#BCC2D8" stroke-dasharray="2.2 2.2"/>
<line x1="2.12646" y1="136.5" x2="655" y2="136.5" stroke="#BCC2D8" stroke-dasharray="2.2 2.2"/>
<line x1="2.12646" y1="194.5" x2="655" y2="194.5" stroke="#BCC2D8" stroke-dasharray="2.2 2.2"/>
<line x1="2.12646" y1="252.5" x2="655" y2="252.5" stroke="#BCC2D8" stroke-dasharray="2.2 2.2"/>
<line x1="2.12646" y1="310.5" x2="655" y2="310.5" stroke="#BCC2D8" stroke-dasharray="2.2 2.2"/>
<rect x="276" y="77" width="2" height="245" fill="#6A4BFF"/>
<circle cx="276.5" cy="184.5" r="8" fill="white" stroke="#FF5722" stroke-width="3"/>
<path d="M9.42677 334.06H3.75677C3.54677 334.06 3.47677 334.13 3.47677 334.34V343.72C3.47677 343.93 3.54677 344 3.75677 344H4.21877C4.42877 344 4.48477 343.93 4.48477 343.72V339.576H8.74077C8.93677 339.576 9.00677 339.506 9.00677 339.296V338.904C9.00677 338.694 8.93677 338.638 8.74077 338.638H4.48477V335.012H9.42677C9.62277 335.012 9.69277 334.942 9.69277 334.732V334.34C9.69277 334.13 9.62277 334.06 9.42677 334.06ZM10.3299 339.548V341.368C10.3299 343.048 11.2679 344.196 13.3679 344.196C14.9779 344.196 15.8739 343.566 16.3639 342.684C16.4759 342.502 16.4479 342.376 16.2659 342.278L15.9719 342.124C15.7899 342.026 15.6919 342.054 15.5659 342.222C15.1739 342.922 14.5159 343.384 13.3679 343.384C11.9819 343.384 11.2679 342.656 11.2679 341.466V340.654H16.1119C16.4199 340.654 16.5319 340.5 16.5319 340.262V339.492C16.5319 337.812 15.5239 336.594 13.4239 336.594C11.3939 336.594 10.3299 337.7 10.3299 339.548ZM15.5939 339.436V339.926H11.2679V339.436C11.2679 338.19 11.9959 337.406 13.4239 337.406C14.8659 337.406 15.5939 338.19 15.5939 339.436ZM18.6917 333.64H18.2437C18.0617 333.64 17.9917 333.696 17.9917 333.892V343.006C17.9917 343.468 18.0897 343.58 18.5377 343.776C19.0277 344 19.8537 344.196 20.9037 344.196C22.9477 344.196 23.9137 343.188 23.9137 341.326V339.338C23.9137 337.616 23.0737 336.594 21.1557 336.594C20.1337 336.594 19.3217 336.902 18.9437 337.028V333.892C18.9437 333.696 18.8737 333.64 18.6917 333.64ZM22.9757 339.366V341.312C22.9757 342.656 22.3037 343.342 20.8337 343.342C20.1477 343.342 19.5737 343.216 19.1957 343.062C18.9577 342.964 18.9437 342.922 18.9437 342.698V337.91C19.2797 337.77 20.0777 337.462 21.0297 337.462C22.3457 337.462 22.9757 338.148 22.9757 339.366Z" fill="#AFBCCB"/>
<path d="M10.746 351.06H10.368C10.186 351.06 10.116 351.088 9.97599 351.172L6.55999 353.09C6.37799 353.188 6.33599 353.286 6.43399 353.454L6.64399 353.832C6.74199 354.014 6.85399 354.042 7.04999 353.93L10.004 352.292V360.72C10.004 360.93 10.074 361 10.298 361H10.746C10.956 361 11.026 360.93 11.026 360.72V351.34C11.026 351.13 10.956 351.06 10.746 351.06ZM14.0687 355.554V354.392C14.0687 352.684 14.9787 351.802 16.6727 351.802C18.0027 351.802 18.7867 352.348 19.1927 353.328C19.2767 353.538 19.3467 353.58 19.5427 353.51L19.9627 353.356C20.1587 353.286 20.2147 353.202 20.1447 353.006C19.6127 351.62 18.5207 350.864 16.6727 350.864C14.3207 350.864 13.0607 352.124 13.0607 354.392V357.668C13.0607 359.852 14.3067 361.196 16.6727 361.196C18.9407 361.196 20.2847 360.062 20.2847 358.158C20.2847 356.128 19.1787 355.12 16.8127 355.12C15.3847 355.12 14.4187 355.442 14.0687 355.554ZM14.0687 357.668V356.548C14.2927 356.45 15.2447 356.072 16.7427 356.072C18.5067 356.072 19.2767 356.758 19.2767 358.158C19.2767 359.502 18.3387 360.258 16.6727 360.258C14.9647 360.258 14.0687 359.306 14.0687 357.668Z" fill="black"/>
<path d="M98.4268 334.06H92.7568C92.5468 334.06 92.4768 334.13 92.4768 334.34V343.72C92.4768 343.93 92.5468 344 92.7568 344H93.2188C93.4288 344 93.4848 343.93 93.4848 343.72V339.576H97.7408C97.9368 339.576 98.0068 339.506 98.0068 339.296V338.904C98.0068 338.694 97.9368 338.638 97.7408 338.638H93.4848V335.012H98.4268C98.6228 335.012 98.6928 334.942 98.6928 334.732V334.34C98.6928 334.13 98.6228 334.06 98.4268 334.06ZM99.3299 339.548V341.368C99.3299 343.048 100.268 344.196 102.368 344.196C103.978 344.196 104.874 343.566 105.364 342.684C105.476 342.502 105.448 342.376 105.266 342.278L104.972 342.124C104.79 342.026 104.692 342.054 104.566 342.222C104.174 342.922 103.516 343.384 102.368 343.384C100.982 343.384 100.268 342.656 100.268 341.466V340.654H105.112C105.42 340.654 105.532 340.5 105.532 340.262V339.492C105.532 337.812 104.524 336.594 102.424 336.594C100.394 336.594 99.3299 337.7 99.3299 339.548ZM104.594 339.436V339.926H100.268V339.436C100.268 338.19 100.996 337.406 102.424 337.406C103.866 337.406 104.594 338.19 104.594 339.436ZM107.692 333.64H107.244C107.062 333.64 106.992 333.696 106.992 333.892V343.006C106.992 343.468 107.09 343.58 107.538 343.776C108.028 344 108.854 344.196 109.904 344.196C111.948 344.196 112.914 343.188 112.914 341.326V339.338C112.914 337.616 112.074 336.594 110.156 336.594C109.134 336.594 108.322 336.902 107.944 337.028V333.892C107.944 333.696 107.874 333.64 107.692 333.64ZM111.976 339.366V341.312C111.976 342.656 111.304 343.342 109.834 343.342C109.148 343.342 108.574 343.216 108.196 343.062C107.958 342.964 107.944 342.922 107.944 342.698V337.91C108.28 337.77 109.078 337.462 110.03 337.462C111.346 337.462 111.976 338.148 111.976 339.366Z" fill="#AFBCCB"/>
<path d="M95.4972 353.132C95.4132 353.328 95.4692 353.412 95.6652 353.482L96.0992 353.65C96.2952 353.72 96.3652 353.678 96.4492 353.482C96.9532 352.362 97.7232 351.802 99.0672 351.802C100.369 351.802 101.237 352.74 101.237 353.902C101.237 355.596 99.8092 356.072 98.3532 356.632C96.8832 357.206 95.4412 357.822 95.4412 359.698V360.72C95.4412 360.93 95.5252 361 95.7352 361H101.937C102.147 361 102.217 360.93 102.217 360.72V360.328C102.217 360.118 102.147 360.048 101.937 360.048H96.5052V359.502C96.5052 358.368 97.6112 357.962 98.6472 357.57C100.915 356.674 102.301 355.988 102.301 353.86C102.301 352.236 101.055 350.864 99.0952 350.864C97.1912 350.864 96.1132 351.69 95.4972 353.132ZM109.817 351.06H103.643C103.433 351.06 103.377 351.13 103.377 351.34V351.732C103.377 351.942 103.433 352.012 103.643 352.012H108.921L105.029 360.72C104.959 360.888 104.973 361 105.169 361H105.617C105.967 361 106.037 360.972 106.135 360.748L110.013 352.012C110.069 351.844 110.083 351.774 110.083 351.62V351.34C110.083 351.13 110.013 351.06 109.817 351.06Z" fill="black"/>
<path d="M187.269 334.06H186.863C186.639 334.06 186.583 334.102 186.471 334.298L183.027 340.43L179.555 334.284C179.457 334.116 179.387 334.06 179.163 334.06H178.799C178.589 334.06 178.519 334.13 178.519 334.34V343.72C178.519 343.93 178.589 344 178.799 344H179.191C179.401 344 179.471 343.93 179.471 343.72V338.022C179.471 337.224 179.429 336.44 179.317 335.516H179.373C179.709 336.37 179.989 336.986 180.395 337.672L182.551 341.466C182.649 341.648 182.719 341.676 182.887 341.676H183.167C183.335 341.676 183.405 341.634 183.489 341.466L185.617 337.714C186.009 337.014 186.345 336.356 186.695 335.53H186.751C186.625 336.426 186.583 337.252 186.583 338.008L186.569 343.72C186.569 343.93 186.639 344 186.849 344H187.269C187.479 344 187.549 343.93 187.549 343.72V334.34C187.549 334.13 187.479 334.06 187.269 334.06ZM189.38 338.064C189.282 338.26 189.338 338.358 189.52 338.428L189.856 338.568C190.038 338.652 190.094 338.61 190.206 338.456C190.57 337.812 191.186 337.434 192.166 337.434C193.692 337.434 194.056 338.26 194.056 339.352V339.996C193.804 339.968 193.048 339.856 192.222 339.856C190.024 339.856 189.142 340.416 189.142 342.026C189.142 343.426 189.73 344.196 192.166 344.196C193.23 344.196 193.972 344.056 194.49 343.832C194.882 343.664 194.994 343.524 194.994 343.034V339.366C194.994 337.854 194.42 336.594 192.194 336.594C190.78 336.594 189.87 337.14 189.38 338.064ZM194.056 340.766V342.782C194.056 343.048 194 343.104 193.79 343.188C193.398 343.328 192.88 343.412 192.096 343.412C190.458 343.412 190.108 342.894 190.108 342.012C190.108 341.06 190.612 340.64 192.124 340.64C192.936 340.64 193.776 340.738 194.056 340.766ZM199.75 336.594C198.532 336.622 197.734 336.832 197.216 337.028C196.796 337.21 196.684 337.378 196.684 337.812V343.748C196.684 343.944 196.754 344 196.936 344H197.384C197.566 344 197.636 343.944 197.636 343.748V338.12C197.636 337.966 197.65 337.854 197.874 337.756C198.294 337.602 198.924 337.462 199.722 337.462H200.184C200.38 337.462 200.436 337.392 200.436 337.21V336.846C200.436 336.664 200.38 336.594 200.184 336.594H199.75Z" fill="#AFBCCB"/>
<path d="M186.465 351.06H186.087C185.905 351.06 185.835 351.088 185.695 351.172L182.279 353.09C182.097 353.188 182.055 353.286 182.153 353.454L182.363 353.832C182.461 354.014 182.573 354.042 182.769 353.93L185.723 352.292V360.72C185.723 360.93 185.793 361 186.017 361H186.465C186.675 361 186.745 360.93 186.745 360.72V351.34C186.745 351.13 186.675 351.06 186.465 351.06ZM188.737 353.132C188.653 353.328 188.709 353.412 188.905 353.482L189.339 353.65C189.535 353.72 189.605 353.678 189.689 353.482C190.193 352.362 190.963 351.802 192.307 351.802C193.609 351.802 194.477 352.74 194.477 353.902C194.477 355.596 193.049 356.072 191.593 356.632C190.123 357.206 188.681 357.822 188.681 359.698V360.72C188.681 360.93 188.765 361 188.975 361H195.177C195.387 361 195.457 360.93 195.457 360.72V360.328C195.457 360.118 195.387 360.048 195.177 360.048H189.745V359.502C189.745 358.368 190.851 357.962 191.887 357.57C194.155 356.674 195.541 355.988 195.541 353.86C195.541 352.236 194.295 350.864 192.335 350.864C190.431 350.864 189.353 351.69 188.737 353.132Z" fill="black"/>
<path d="M625.306 334.06H624.9C624.676 334.06 624.62 334.102 624.508 334.298L621.064 340.43L617.592 334.284C617.494 334.116 617.424 334.06 617.2 334.06H616.836C616.626 334.06 616.556 334.13 616.556 334.34V343.72C616.556 343.93 616.626 344 616.836 344H617.228C617.438 344 617.508 343.93 617.508 343.72V338.022C617.508 337.224 617.466 336.44 617.354 335.516H617.41C617.746 336.37 618.026 336.986 618.432 337.672L620.588 341.466C620.686 341.648 620.756 341.676 620.924 341.676H621.204C621.372 341.676 621.442 341.634 621.526 341.466L623.654 337.714C624.046 337.014 624.382 336.356 624.732 335.53H624.788C624.662 336.426 624.62 337.252 624.62 338.008L624.606 343.72C624.606 343.93 624.676 344 624.886 344H625.306C625.516 344 625.586 343.93 625.586 343.72V334.34C625.586 334.13 625.516 334.06 625.306 334.06ZM627.417 338.064C627.319 338.26 627.375 338.358 627.557 338.428L627.893 338.568C628.075 338.652 628.131 338.61 628.243 338.456C628.607 337.812 629.223 337.434 630.203 337.434C631.729 337.434 632.093 338.26 632.093 339.352V339.996C631.841 339.968 631.085 339.856 630.259 339.856C628.061 339.856 627.179 340.416 627.179 342.026C627.179 343.426 627.767 344.196 630.203 344.196C631.267 344.196 632.009 344.056 632.527 343.832C632.919 343.664 633.031 343.524 633.031 343.034V339.366C633.031 337.854 632.457 336.594 630.231 336.594C628.817 336.594 627.907 337.14 627.417 338.064ZM632.093 340.766V342.782C632.093 343.048 632.037 343.104 631.827 343.188C631.435 343.328 630.917 343.412 630.133 343.412C628.495 343.412 628.145 342.894 628.145 342.012C628.145 341.06 628.649 340.64 630.161 340.64C630.973 340.64 631.813 340.738 632.093 340.766ZM640.363 336.804H639.915C639.733 336.804 639.663 336.86 639.663 337.056V342.782C639.229 342.922 638.543 343.16 637.591 343.16C636.233 343.16 635.631 342.502 635.631 341.242V337.056C635.631 336.86 635.575 336.804 635.379 336.804H634.945C634.749 336.804 634.693 336.86 634.693 337.056V341.284C634.693 343.006 635.547 344.014 637.465 344.014C638.515 344.014 639.187 343.79 639.663 343.65V344.476C639.663 345.806 639.047 346.604 637.619 346.604C636.555 346.604 636.023 346.156 635.659 345.484C635.547 345.316 635.463 345.274 635.253 345.386L634.945 345.54C634.763 345.638 634.735 345.778 634.847 345.96C635.323 346.842 636.135 347.458 637.633 347.458C639.761 347.458 640.615 346.254 640.615 344.434V337.056C640.615 336.86 640.545 336.804 640.363 336.804Z" fill="#AFBCCB"/>
<path d="M620.937 353.132C620.853 353.328 620.909 353.412 621.105 353.482L621.539 353.65C621.735 353.72 621.805 353.678 621.889 353.482C622.393 352.362 623.163 351.802 624.507 351.802C625.809 351.802 626.677 352.74 626.677 353.902C626.677 355.596 625.249 356.072 623.793 356.632C622.323 357.206 620.881 357.822 620.881 359.698V360.72C620.881 360.93 620.965 361 621.175 361H627.377C627.587 361 627.657 360.93 627.657 360.72V360.328C627.657 360.118 627.587 360.048 627.377 360.048H621.945V359.502C621.945 358.368 623.051 357.962 624.087 357.57C626.355 356.674 627.741 355.988 627.741 353.86C627.741 352.236 626.495 350.864 624.535 350.864C622.631 350.864 621.553 351.69 620.937 353.132ZM635.844 353.636C635.844 351.9 634.78 350.864 632.75 350.864C630.65 350.864 629.684 351.69 629.194 353.258C629.124 353.454 629.18 353.538 629.362 353.608L629.796 353.762C630.006 353.818 630.09 353.79 630.16 353.594C630.538 352.376 631.14 351.802 632.722 351.802C634.122 351.802 634.836 352.488 634.836 353.734C634.836 354.686 634.262 355.456 633.1 355.456H631.196C630.986 355.456 630.916 355.526 630.916 355.736V356.114C630.916 356.31 630.986 356.38 631.196 356.38H633.226C634.458 356.38 635.102 357.094 635.102 358.242C635.102 359.488 634.374 360.258 632.75 360.258C631.07 360.258 630.454 359.628 630.076 358.424C630.006 358.214 629.908 358.172 629.712 358.242L629.278 358.396C629.096 358.466 629.04 358.55 629.11 358.76C629.6 360.314 630.594 361.196 632.75 361.196C635.088 361.196 636.152 360.034 636.152 358.256C636.152 357.122 635.648 356.212 634.584 355.834C635.466 355.456 635.844 354.602 635.844 353.636Z" fill="black"/>
<path d="M361.268 343.734L357.516 334.242C357.446 334.06 357.348 334.018 357.152 334.018H356.732C356.536 334.018 356.452 334.06 356.382 334.256L352.63 343.734C352.56 343.902 352.602 344 352.812 344H353.19C353.526 344 353.624 343.944 353.68 343.748L354.73 341.088H359.112L360.162 343.748C360.218 343.944 360.33 344 360.666 344H361.072C361.296 344 361.338 343.902 361.268 343.734ZM357.152 335.95L358.832 340.248H355.024L356.718 335.95C356.872 335.474 356.886 335.026 356.886 334.984H356.956C356.956 335.026 356.984 335.474 357.152 335.95ZM362.873 334.228H362.789C362.397 334.228 362.271 334.354 362.271 334.746V334.844C362.271 335.236 362.397 335.362 362.789 335.362H362.873C363.265 335.362 363.391 335.236 363.391 334.844V334.746C363.391 334.354 363.265 334.228 362.873 334.228ZM363.055 336.804H362.607C362.425 336.804 362.355 336.86 362.355 337.056V343.748C362.355 343.944 362.425 344 362.607 344H363.055C363.237 344 363.307 343.944 363.307 343.748V337.056C363.307 336.86 363.237 336.804 363.055 336.804ZM365.689 337C365.241 337.182 365.129 337.322 365.129 337.784V346.828C365.129 347.024 365.199 347.08 365.381 347.08H365.829C366.011 347.08 366.081 347.024 366.081 346.828V343.72C366.431 343.86 367.215 344.196 368.181 344.196C370.155 344.196 371.051 343.188 371.051 341.41V339.394C371.051 337.602 370.141 336.594 368.139 336.594C367.005 336.594 366.221 336.79 365.689 337ZM370.113 339.422V341.382C370.113 342.656 369.497 343.342 368.111 343.342C367.187 343.342 366.403 343.006 366.081 342.852V338.106C366.081 337.882 366.109 337.826 366.347 337.728C366.739 337.588 367.299 337.462 368.027 337.462C369.427 337.462 370.113 338.134 370.113 339.422ZM375.715 336.594C374.497 336.622 373.699 336.832 373.181 337.028C372.761 337.21 372.649 337.378 372.649 337.812V343.748C372.649 343.944 372.719 344 372.901 344H373.349C373.531 344 373.601 343.944 373.601 343.748V338.12C373.601 337.966 373.615 337.854 373.839 337.756C374.259 337.602 374.889 337.462 375.687 337.462H376.149C376.345 337.462 376.401 337.392 376.401 337.21V336.846C376.401 336.664 376.345 336.594 376.149 336.594H375.715Z" fill="#AFBCCB"/>
<path d="M361.712 351.06H361.334C361.152 351.06 361.082 351.088 360.942 351.172L357.526 353.09C357.344 353.188 357.302 353.286 357.4 353.454L357.61 353.832C357.708 354.014 357.82 354.042 358.016 353.93L360.97 352.292V360.72C360.97 360.93 361.04 361 361.264 361H361.712C361.922 361 361.992 360.93 361.992 360.72V351.34C361.992 351.13 361.922 351.06 361.712 351.06ZM364.041 354.112V357.948C364.041 359.95 365.343 361.196 367.611 361.196C369.879 361.196 371.181 359.95 371.181 357.948V354.112C371.181 352.11 369.879 350.864 367.611 350.864C365.343 350.864 364.041 352.11 364.041 354.112ZM370.159 354.112V357.948C370.159 359.39 369.235 360.258 367.611 360.258C365.973 360.258 365.049 359.39 365.049 357.948V354.112C365.049 352.67 365.973 351.802 367.611 351.802C369.235 351.802 370.159 352.67 370.159 354.112Z" fill="black"/>
<path d="M450.268 343.734L446.516 334.242C446.446 334.06 446.348 334.018 446.152 334.018H445.732C445.536 334.018 445.452 334.06 445.382 334.256L441.63 343.734C441.56 343.902 441.602 344 441.812 344H442.19C442.526 344 442.624 343.944 442.68 343.748L443.73 341.088H448.112L449.162 343.748C449.218 343.944 449.33 344 449.666 344H450.072C450.296 344 450.338 343.902 450.268 343.734ZM446.152 335.95L447.832 340.248H444.024L445.718 335.95C445.872 335.474 445.886 335.026 445.886 334.984H445.956C445.956 335.026 445.984 335.474 446.152 335.95ZM451.873 334.228H451.789C451.397 334.228 451.271 334.354 451.271 334.746V334.844C451.271 335.236 451.397 335.362 451.789 335.362H451.873C452.265 335.362 452.391 335.236 452.391 334.844V334.746C452.391 334.354 452.265 334.228 451.873 334.228ZM452.055 336.804H451.607C451.425 336.804 451.355 336.86 451.355 337.056V343.748C451.355 343.944 451.425 344 451.607 344H452.055C452.237 344 452.307 343.944 452.307 343.748V337.056C452.307 336.86 452.237 336.804 452.055 336.804ZM454.689 337C454.241 337.182 454.129 337.322 454.129 337.784V346.828C454.129 347.024 454.199 347.08 454.381 347.08H454.829C455.011 347.08 455.081 347.024 455.081 346.828V343.72C455.431 343.86 456.215 344.196 457.181 344.196C459.155 344.196 460.051 343.188 460.051 341.41V339.394C460.051 337.602 459.141 336.594 457.139 336.594C456.005 336.594 455.221 336.79 454.689 337ZM459.113 339.422V341.382C459.113 342.656 458.497 343.342 457.111 343.342C456.187 343.342 455.403 343.006 455.081 342.852V338.106C455.081 337.882 455.109 337.826 455.347 337.728C455.739 337.588 456.299 337.462 457.027 337.462C458.427 337.462 459.113 338.134 459.113 339.422ZM464.715 336.594C463.497 336.622 462.699 336.832 462.181 337.028C461.761 337.21 461.649 337.378 461.649 337.812V343.748C461.649 343.944 461.719 344 461.901 344H462.349C462.531 344 462.601 343.944 462.601 343.748V338.12C462.601 337.966 462.615 337.854 462.839 337.756C463.259 337.602 463.889 337.462 464.687 337.462H465.149C465.345 337.462 465.401 337.392 465.401 337.21V336.846C465.401 336.664 465.345 336.594 465.149 336.594H464.715Z" fill="#AFBCCB"/>
<path d="M447.017 353.132C446.933 353.328 446.989 353.412 447.185 353.482L447.619 353.65C447.815 353.72 447.885 353.678 447.969 353.482C448.473 352.362 449.243 351.802 450.587 351.802C451.889 351.802 452.757 352.74 452.757 353.902C452.757 355.596 451.329 356.072 449.873 356.632C448.403 357.206 446.961 357.822 446.961 359.698V360.72C446.961 360.93 447.045 361 447.255 361H453.457C453.667 361 453.737 360.93 453.737 360.72V360.328C453.737 360.118 453.667 360.048 453.457 360.048H448.025V359.502C448.025 358.368 449.131 357.962 450.167 357.57C452.435 356.674 453.821 355.988 453.821 353.86C453.821 352.236 452.575 350.864 450.615 350.864C448.711 350.864 447.633 351.69 447.017 353.132ZM459.223 351.06H458.845C458.663 351.06 458.593 351.088 458.453 351.172L455.037 353.09C454.855 353.188 454.813 353.286 454.911 353.454L455.121 353.832C455.219 354.014 455.331 354.042 455.527 353.93L458.481 352.292V360.72C458.481 360.93 458.551 361 458.775 361H459.223C459.433 361 459.503 360.93 459.503 360.72V351.34C459.503 351.13 459.433 351.06 459.223 351.06Z" fill="black"/>
<path d="M537.306 334.06H536.9C536.676 334.06 536.62 334.102 536.508 334.298L533.064 340.43L529.592 334.284C529.494 334.116 529.424 334.06 529.2 334.06H528.836C528.626 334.06 528.556 334.13 528.556 334.34V343.72C528.556 343.93 528.626 344 528.836 344H529.228C529.438 344 529.508 343.93 529.508 343.72V338.022C529.508 337.224 529.466 336.44 529.354 335.516H529.41C529.746 336.37 530.026 336.986 530.432 337.672L532.588 341.466C532.686 341.648 532.756 341.676 532.924 341.676H533.204C533.372 341.676 533.442 341.634 533.526 341.466L535.654 337.714C536.046 337.014 536.382 336.356 536.732 335.53H536.788C536.662 336.426 536.62 337.252 536.62 338.008L536.606 343.72C536.606 343.93 536.676 344 536.886 344H537.306C537.516 344 537.586 343.93 537.586 343.72V334.34C537.586 334.13 537.516 334.06 537.306 334.06ZM539.417 338.064C539.319 338.26 539.375 338.358 539.557 338.428L539.893 338.568C540.075 338.652 540.131 338.61 540.243 338.456C540.607 337.812 541.223 337.434 542.203 337.434C543.729 337.434 544.093 338.26 544.093 339.352V339.996C543.841 339.968 543.085 339.856 542.259 339.856C540.061 339.856 539.179 340.416 539.179 342.026C539.179 343.426 539.767 344.196 542.203 344.196C543.267 344.196 544.009 344.056 544.527 343.832C544.919 343.664 545.031 343.524 545.031 343.034V339.366C545.031 337.854 544.457 336.594 542.231 336.594C540.817 336.594 539.907 337.14 539.417 338.064ZM544.093 340.766V342.782C544.093 343.048 544.037 343.104 543.827 343.188C543.435 343.328 542.917 343.412 542.133 343.412C540.495 343.412 540.145 342.894 540.145 342.012C540.145 341.06 540.649 340.64 542.161 340.64C542.973 340.64 543.813 340.738 544.093 340.766ZM552.363 336.804H551.915C551.733 336.804 551.663 336.86 551.663 337.056V342.782C551.229 342.922 550.543 343.16 549.591 343.16C548.233 343.16 547.631 342.502 547.631 341.242V337.056C547.631 336.86 547.575 336.804 547.379 336.804H546.945C546.749 336.804 546.693 336.86 546.693 337.056V341.284C546.693 343.006 547.547 344.014 549.465 344.014C550.515 344.014 551.187 343.79 551.663 343.65V344.476C551.663 345.806 551.047 346.604 549.619 346.604C548.555 346.604 548.023 346.156 547.659 345.484C547.547 345.316 547.463 345.274 547.253 345.386L546.945 345.54C546.763 345.638 546.735 345.778 546.847 345.96C547.323 346.842 548.135 347.458 549.633 347.458C551.761 347.458 552.615 346.254 552.615 344.434V337.056C552.615 336.86 552.545 336.804 552.363 336.804Z" fill="#AFBCCB"/>
<path d="M537.965 351.06H537.587C537.405 351.06 537.335 351.088 537.195 351.172L533.779 353.09C533.597 353.188 533.555 353.286 533.653 353.454L533.863 353.832C533.961 354.014 534.073 354.042 534.269 353.93L537.223 352.292V360.72C537.223 360.93 537.293 361 537.517 361H537.965C538.175 361 538.245 360.93 538.245 360.72V351.34C538.245 351.13 538.175 351.06 537.965 351.06ZM540.237 353.132C540.153 353.328 540.209 353.412 540.405 353.482L540.839 353.65C541.035 353.72 541.105 353.678 541.189 353.482C541.693 352.362 542.463 351.802 543.807 351.802C545.109 351.802 545.977 352.74 545.977 353.902C545.977 355.596 544.549 356.072 543.093 356.632C541.623 357.206 540.181 357.822 540.181 359.698V360.72C540.181 360.93 540.265 361 540.475 361H546.677C546.887 361 546.957 360.93 546.957 360.72V360.328C546.957 360.118 546.887 360.048 546.677 360.048H541.245V359.502C541.245 358.368 542.351 357.962 543.387 357.57C545.655 356.674 547.041 355.988 547.041 353.86C547.041 352.236 545.795 350.864 543.835 350.864C541.931 350.864 540.853 351.69 540.237 353.132Z" fill="black"/>
<path d="M276.269 334.06H275.863C275.639 334.06 275.583 334.102 275.471 334.298L272.027 340.43L268.555 334.284C268.457 334.116 268.387 334.06 268.163 334.06H267.799C267.589 334.06 267.519 334.13 267.519 334.34V343.72C267.519 343.93 267.589 344 267.799 344H268.191C268.401 344 268.471 343.93 268.471 343.72V338.022C268.471 337.224 268.429 336.44 268.317 335.516H268.373C268.709 336.37 268.989 336.986 269.395 337.672L271.551 341.466C271.649 341.648 271.719 341.676 271.887 341.676H272.167C272.335 341.676 272.405 341.634 272.489 341.466L274.617 337.714C275.009 337.014 275.345 336.356 275.695 335.53H275.751C275.625 336.426 275.583 337.252 275.583 338.008L275.569 343.72C275.569 343.93 275.639 344 275.849 344H276.269C276.479 344 276.549 343.93 276.549 343.72V334.34C276.549 334.13 276.479 334.06 276.269 334.06ZM278.38 338.064C278.282 338.26 278.338 338.358 278.52 338.428L278.856 338.568C279.038 338.652 279.094 338.61 279.206 338.456C279.57 337.812 280.186 337.434 281.166 337.434C282.692 337.434 283.056 338.26 283.056 339.352V339.996C282.804 339.968 282.048 339.856 281.222 339.856C279.024 339.856 278.142 340.416 278.142 342.026C278.142 343.426 278.73 344.196 281.166 344.196C282.23 344.196 282.972 344.056 283.49 343.832C283.882 343.664 283.994 343.524 283.994 343.034V339.366C283.994 337.854 283.42 336.594 281.194 336.594C279.78 336.594 278.87 337.14 278.38 338.064ZM283.056 340.766V342.782C283.056 343.048 283 343.104 282.79 343.188C282.398 343.328 281.88 343.412 281.096 343.412C279.458 343.412 279.108 342.894 279.108 342.012C279.108 341.06 279.612 340.64 281.124 340.64C281.936 340.64 282.776 340.738 283.056 340.766ZM288.75 336.594C287.532 336.622 286.734 336.832 286.216 337.028C285.796 337.21 285.684 337.378 285.684 337.812V343.748C285.684 343.944 285.754 344 285.936 344H286.384C286.566 344 286.636 343.944 286.636 343.748V338.12C286.636 337.966 286.65 337.854 286.874 337.756C287.294 337.602 287.924 337.462 288.722 337.462H289.184C289.38 337.462 289.436 337.392 289.436 337.21V336.846C289.436 336.664 289.38 336.594 289.184 336.594H288.75Z" fill="#B7A8FF"/>
<path d="M275.246 351.06H274.868C274.686 351.06 274.616 351.088 274.476 351.172L271.06 353.09C270.878 353.188 270.836 353.286 270.934 353.454L271.144 353.832C271.242 354.014 271.354 354.042 271.55 353.93L274.504 352.292V360.72C274.504 360.93 274.574 361 274.798 361H275.246C275.456 361 275.526 360.93 275.526 360.72V351.34C275.526 351.13 275.456 351.06 275.246 351.06ZM283.637 356.506V357.668C283.637 359.376 282.741 360.258 281.047 360.258C279.717 360.258 278.933 359.712 278.527 358.732C278.443 358.522 278.373 358.48 278.177 358.55L277.757 358.704C277.561 358.774 277.505 358.858 277.575 359.054C278.107 360.44 279.199 361.196 281.047 361.196C283.399 361.196 284.659 359.936 284.659 357.668V354.392C284.659 352.208 283.413 350.864 281.047 350.864C278.779 350.864 277.435 351.998 277.435 353.902C277.435 355.932 278.541 356.94 280.907 356.94C282.335 356.94 283.301 356.618 283.637 356.506ZM283.637 354.392V355.512C283.427 355.61 282.461 355.988 280.977 355.988C279.213 355.988 278.443 355.302 278.443 353.902C278.443 352.558 279.381 351.802 281.047 351.802C282.755 351.802 283.637 352.754 283.637 354.392Z" fill="#1A53F0"/>
<path d="M4.312 59.038H3.878C3.682 59.038 3.626 59.108 3.626 59.29V60.172C1.68 60.298 0.728 61.306 0.728 62.916C0.728 65.044 2.492 65.324 4.088 65.478C5.404 65.618 6.608 65.744 6.608 67.144C6.608 68.362 5.782 68.95 4.102 68.95C2.674 68.95 2.016 68.306 1.54 67.172C1.456 66.962 1.358 66.934 1.162 67.004L0.77 67.144C0.56 67.228 0.504 67.326 0.588 67.536C1.106 68.866 1.988 69.734 3.626 69.874V70.77C3.626 70.952 3.682 71.022 3.878 71.022H4.312C4.494 71.022 4.564 70.952 4.564 70.77V69.86C6.594 69.72 7.63 68.74 7.63 67.116C7.63 64.918 5.852 64.666 4.27 64.512C2.968 64.386 1.764 64.232 1.764 62.902C1.764 61.726 2.478 61.11 4.004 61.11C5.432 61.11 6.02 61.684 6.552 62.748C6.65 62.944 6.748 62.958 6.93 62.888L7.322 62.706C7.546 62.608 7.588 62.51 7.476 62.314C6.86 61.054 6.118 60.312 4.564 60.172V59.29C4.564 59.108 4.494 59.038 4.312 59.038ZM12.3784 63.112V66.948C12.3784 68.95 13.6804 70.196 15.9484 70.196C18.2164 70.196 19.5184 68.95 19.5184 66.948V63.112C19.5184 61.11 18.2164 59.864 15.9484 59.864C13.6804 59.864 12.3784 61.11 12.3784 63.112ZM18.4964 63.112V66.948C18.4964 68.39 17.5724 69.258 15.9484 69.258C14.3104 69.258 13.3864 68.39 13.3864 66.948V63.112C13.3864 61.67 14.3104 60.802 15.9484 60.802C17.5724 60.802 18.4964 61.67 18.4964 63.112ZM21.4827 68.88H21.3987C20.9787 68.88 20.8387 69.006 20.8387 69.44V69.524C20.8387 69.958 20.9787 70.084 21.3987 70.084H21.4827C21.9027 70.084 22.0287 69.944 22.0287 69.524V69.44C22.0287 69.006 21.9027 68.88 21.4827 68.88ZM26.5106 60.06H26.1326C25.9506 60.06 25.8806 60.088 25.7406 60.172L22.3246 62.09C22.1426 62.188 22.1006 62.286 22.1986 62.454L22.4086 62.832C22.5066 63.014 22.6186 63.042 22.8146 62.93L25.7686 61.292V69.72C25.7686 69.93 25.8386 70 26.0626 70H26.5106C26.7206 70 26.7906 69.93 26.7906 69.72V60.34C26.7906 60.13 26.7206 60.06 26.5106 60.06ZM28.7833 62.132C28.6993 62.328 28.7553 62.412 28.9513 62.482L29.3853 62.65C29.5813 62.72 29.6513 62.678 29.7353 62.482C30.2393 61.362 31.0093 60.802 32.3533 60.802C33.6553 60.802 34.5233 61.74 34.5233 62.902C34.5233 64.596 33.0953 65.072 31.6393 65.632C30.1693 66.206 28.7273 66.822 28.7273 68.698V69.72C28.7273 69.93 28.8113 70 29.0213 70H35.2233C35.4333 70 35.5033 69.93 35.5033 69.72V69.328C35.5033 69.118 35.4333 69.048 35.2233 69.048H29.7913V68.502C29.7913 67.368 30.8973 66.962 31.9333 66.57C34.2013 65.674 35.5873 64.988 35.5873 62.86C35.5873 61.236 34.3413 59.864 32.3813 59.864C30.4773 59.864 29.3993 60.69 28.7833 62.132Z" fill="#AFBCCB"/>
<path d="M4.312 176.038H3.878C3.682 176.038 3.626 176.108 3.626 176.29V177.172C1.68 177.298 0.728 178.306 0.728 179.916C0.728 182.044 2.492 182.324 4.088 182.478C5.404 182.618 6.608 182.744 6.608 184.144C6.608 185.362 5.782 185.95 4.102 185.95C2.674 185.95 2.016 185.306 1.54 184.172C1.456 183.962 1.358 183.934 1.162 184.004L0.77 184.144C0.56 184.228 0.504 184.326 0.588 184.536C1.106 185.866 1.988 186.734 3.626 186.874V187.77C3.626 187.952 3.682 188.022 3.878 188.022H4.312C4.494 188.022 4.564 187.952 4.564 187.77V186.86C6.594 186.72 7.63 185.74 7.63 184.116C7.63 181.918 5.852 181.666 4.27 181.512C2.968 181.386 1.764 181.232 1.764 179.902C1.764 178.726 2.478 178.11 4.004 178.11C5.432 178.11 6.02 178.684 6.552 179.748C6.65 179.944 6.748 179.958 6.93 179.888L7.322 179.706C7.546 179.608 7.588 179.51 7.476 179.314C6.86 178.054 6.118 177.312 4.564 177.172V176.29C4.564 176.108 4.494 176.038 4.312 176.038ZM12.3784 180.112V183.948C12.3784 185.95 13.6804 187.196 15.9484 187.196C18.2164 187.196 19.5184 185.95 19.5184 183.948V180.112C19.5184 178.11 18.2164 176.864 15.9484 176.864C13.6804 176.864 12.3784 178.11 12.3784 180.112ZM18.4964 180.112V183.948C18.4964 185.39 17.5724 186.258 15.9484 186.258C14.3104 186.258 13.3864 185.39 13.3864 183.948V180.112C13.3864 178.67 14.3104 177.802 15.9484 177.802C17.5724 177.802 18.4964 178.67 18.4964 180.112ZM21.4827 185.88H21.3987C20.9787 185.88 20.8387 186.006 20.8387 186.44V186.524C20.8387 186.958 20.9787 187.084 21.3987 187.084H21.4827C21.9027 187.084 22.0287 186.944 22.0287 186.524V186.44C22.0287 186.006 21.9027 185.88 21.4827 185.88ZM23.3433 180.112V183.948C23.3433 185.95 24.6453 187.196 26.9133 187.196C29.1813 187.196 30.4833 185.95 30.4833 183.948V180.112C30.4833 178.11 29.1813 176.864 26.9133 176.864C24.6453 176.864 23.3433 178.11 23.3433 180.112ZM29.4613 180.112V183.948C29.4613 185.39 28.5373 186.258 26.9133 186.258C25.2753 186.258 24.3513 185.39 24.3513 183.948V180.112C24.3513 178.67 25.2753 177.802 26.9133 177.802C28.5373 177.802 29.4613 178.67 29.4613 180.112ZM33.1009 181.554V180.392C33.1009 178.684 34.0109 177.802 35.7049 177.802C37.0349 177.802 37.8189 178.348 38.2249 179.328C38.3089 179.538 38.3789 179.58 38.5749 179.51L38.9949 179.356C39.1909 179.286 39.2469 179.202 39.1769 179.006C38.6449 177.62 37.5529 176.864 35.7049 176.864C33.3529 176.864 32.0929 178.124 32.0929 180.392V183.668C32.0929 185.852 33.3389 187.196 35.7049 187.196C37.9729 187.196 39.3169 186.062 39.3169 184.158C39.3169 182.128 38.2109 181.12 35.8449 181.12C34.4169 181.12 33.4509 181.442 33.1009 181.554ZM33.1009 183.668V182.548C33.3249 182.45 34.2769 182.072 35.7749 182.072C37.5389 182.072 38.3089 182.758 38.3089 184.158C38.3089 185.502 37.3709 186.258 35.7049 186.258C33.9969 186.258 33.1009 185.306 33.1009 183.668Z" fill="#AFBCCB"/>
<path d="M4.312 118.038H3.878C3.682 118.038 3.626 118.108 3.626 118.29V119.172C1.68 119.298 0.728 120.306 0.728 121.916C0.728 124.044 2.492 124.324 4.088 124.478C5.404 124.618 6.608 124.744 6.608 126.144C6.608 127.362 5.782 127.95 4.102 127.95C2.674 127.95 2.016 127.306 1.54 126.172C1.456 125.962 1.358 125.934 1.162 126.004L0.77 126.144C0.56 126.228 0.504 126.326 0.588 126.536C1.106 127.866 1.988 128.734 3.626 128.874V129.77C3.626 129.952 3.682 130.022 3.878 130.022H4.312C4.494 130.022 4.564 129.952 4.564 129.77V128.86C6.594 128.72 7.63 127.74 7.63 126.116C7.63 123.918 5.852 123.666 4.27 123.512C2.968 123.386 1.764 123.232 1.764 121.902C1.764 120.726 2.478 120.11 4.004 120.11C5.432 120.11 6.02 120.684 6.552 121.748C6.65 121.944 6.748 121.958 6.93 121.888L7.322 121.706C7.546 121.608 7.588 121.51 7.476 121.314C6.86 120.054 6.118 119.312 4.564 119.172V118.29C4.564 118.108 4.494 118.038 4.312 118.038ZM12.3784 122.112V125.948C12.3784 127.95 13.6804 129.196 15.9484 129.196C18.2164 129.196 19.5184 127.95 19.5184 125.948V122.112C19.5184 120.11 18.2164 118.864 15.9484 118.864C13.6804 118.864 12.3784 120.11 12.3784 122.112ZM18.4964 122.112V125.948C18.4964 127.39 17.5724 128.258 15.9484 128.258C14.3104 128.258 13.3864 127.39 13.3864 125.948V122.112C13.3864 120.67 14.3104 119.802 15.9484 119.802C17.5724 119.802 18.4964 120.67 18.4964 122.112ZM21.4827 127.88H21.3987C20.9787 127.88 20.8387 128.006 20.8387 128.44V128.524C20.8387 128.958 20.9787 129.084 21.3987 129.084H21.4827C21.9027 129.084 22.0287 128.944 22.0287 128.524V128.44C22.0287 128.006 21.9027 127.88 21.4827 127.88ZM23.3433 122.112V125.948C23.3433 127.95 24.6453 129.196 26.9133 129.196C29.1813 129.196 30.4833 127.95 30.4833 125.948V122.112C30.4833 120.11 29.1813 118.864 26.9133 118.864C24.6453 118.864 23.3433 120.11 23.3433 122.112ZM29.4613 122.112V125.948C29.4613 127.39 28.5373 128.258 26.9133 128.258C25.2753 128.258 24.3513 127.39 24.3513 125.948V122.112C24.3513 120.67 25.2753 119.802 26.9133 119.802C28.5373 119.802 29.4613 120.67 29.4613 122.112ZM38.1689 124.506V125.668C38.1689 127.376 37.2729 128.258 35.5789 128.258C34.2489 128.258 33.4649 127.712 33.0589 126.732C32.9749 126.522 32.9049 126.48 32.7089 126.55L32.2889 126.704C32.0929 126.774 32.0369 126.858 32.1069 127.054C32.6389 128.44 33.7309 129.196 35.5789 129.196C37.9309 129.196 39.1909 127.936 39.1909 125.668V122.392C39.1909 120.208 37.9449 118.864 35.5789 118.864C33.3109 118.864 31.9669 119.998 31.9669 121.902C31.9669 123.932 33.0729 124.94 35.4389 124.94C36.8669 124.94 37.8329 124.618 38.1689 124.506ZM38.1689 122.392V123.512C37.9589 123.61 36.9929 123.988 35.5089 123.988C33.7449 123.988 32.9749 123.302 32.9749 121.902C32.9749 120.558 33.9129 119.802 35.5789 119.802C37.2869 119.802 38.1689 120.754 38.1689 122.392Z" fill="#AFBCCB"/>
<path d="M4.312 235.038H3.878C3.682 235.038 3.626 235.108 3.626 235.29V236.172C1.68 236.298 0.728 237.306 0.728 238.916C0.728 241.044 2.492 241.324 4.088 241.478C5.404 241.618 6.608 241.744 6.608 243.144C6.608 244.362 5.782 244.95 4.102 244.95C2.674 244.95 2.016 244.306 1.54 243.172C1.456 242.962 1.358 242.934 1.162 243.004L0.77 243.144C0.56 243.228 0.504 243.326 0.588 243.536C1.106 244.866 1.988 245.734 3.626 245.874V246.77C3.626 246.952 3.682 247.022 3.878 247.022H4.312C4.494 247.022 4.564 246.952 4.564 246.77V245.86C6.594 245.72 7.63 244.74 7.63 243.116C7.63 240.918 5.852 240.666 4.27 240.512C2.968 240.386 1.764 240.232 1.764 238.902C1.764 237.726 2.478 237.11 4.004 237.11C5.432 237.11 6.02 237.684 6.552 238.748C6.65 238.944 6.748 238.958 6.93 238.888L7.322 238.706C7.546 238.608 7.588 238.51 7.476 238.314C6.86 237.054 6.118 236.312 4.564 236.172V235.29C4.564 235.108 4.494 235.038 4.312 235.038ZM12.3784 239.112V242.948C12.3784 244.95 13.6804 246.196 15.9484 246.196C18.2164 246.196 19.5184 244.95 19.5184 242.948V239.112C19.5184 237.11 18.2164 235.864 15.9484 235.864C13.6804 235.864 12.3784 237.11 12.3784 239.112ZM18.4964 239.112V242.948C18.4964 244.39 17.5724 245.258 15.9484 245.258C14.3104 245.258 13.3864 244.39 13.3864 242.948V239.112C13.3864 237.67 14.3104 236.802 15.9484 236.802C17.5724 236.802 18.4964 237.67 18.4964 239.112ZM21.4827 244.88H21.3987C20.9787 244.88 20.8387 245.006 20.8387 245.44V245.524C20.8387 245.958 20.9787 246.084 21.3987 246.084H21.4827C21.9027 246.084 22.0287 245.944 22.0287 245.524V245.44C22.0287 245.006 21.9027 244.88 21.4827 244.88ZM23.3433 239.112V242.948C23.3433 244.95 24.6453 246.196 26.9133 246.196C29.1813 246.196 30.4833 244.95 30.4833 242.948V239.112C30.4833 237.11 29.1813 235.864 26.9133 235.864C24.6453 235.864 23.3433 237.11 23.3433 239.112ZM29.4613 239.112V242.948C29.4613 244.39 28.5373 245.258 26.9133 245.258C25.2753 245.258 24.3513 244.39 24.3513 242.948V239.112C24.3513 237.67 25.2753 236.802 26.9133 236.802C28.5373 236.802 29.4613 237.67 29.4613 239.112ZM38.7009 238.636C38.7009 236.9 37.6369 235.864 35.6069 235.864C33.5069 235.864 32.5409 236.69 32.0509 238.258C31.9809 238.454 32.0369 238.538 32.2189 238.608L32.6529 238.762C32.8629 238.818 32.9469 238.79 33.0169 238.594C33.3949 237.376 33.9969 236.802 35.5789 236.802C36.9789 236.802 37.6929 237.488 37.6929 238.734C37.6929 239.686 37.1189 240.456 35.9569 240.456H34.0529C33.8429 240.456 33.7729 240.526 33.7729 240.736V241.114C33.7729 241.31 33.8429 241.38 34.0529 241.38H36.0829C37.3149 241.38 37.9589 242.094 37.9589 243.242C37.9589 244.488 37.2309 245.258 35.6069 245.258C33.9269 245.258 33.3109 244.628 32.9329 243.424C32.8629 243.214 32.7649 243.172 32.5689 243.242L32.1349 243.396C31.9529 243.466 31.8969 243.55 31.9669 243.76C32.4569 245.314 33.4509 246.196 35.6069 246.196C37.9449 246.196 39.0089 245.034 39.0089 243.256C39.0089 242.122 38.5049 241.212 37.4409 240.834C38.3229 240.456 38.7009 239.602 38.7009 238.636Z" fill="#AFBCCB"/>
<path d="M0.812 294.112V297.948C0.812 299.95 2.114 301.196 4.382 301.196C6.65 301.196 7.952 299.95 7.952 297.948V294.112C7.952 292.11 6.65 290.864 4.382 290.864C2.114 290.864 0.812 292.11 0.812 294.112ZM6.93 294.112V297.948C6.93 299.39 6.006 300.258 4.382 300.258C2.744 300.258 1.82 299.39 1.82 297.948V294.112C1.82 292.67 2.744 291.802 4.382 291.802C6.006 291.802 6.93 292.67 6.93 294.112Z" fill="#AFBCCB"/>
<line x1="2.12646" y1="20.5" x2="655" y2="20.5" stroke="#BCC2D8" stroke-dasharray="2.2 2.2"/>
<path d="M4.312 2.038H3.878C3.682 2.038 3.626 2.108 3.626 2.29V3.172C1.68 3.298 0.728 4.306 0.728 5.916C0.728 8.044 2.492 8.324 4.088 8.478C5.404 8.618 6.608 8.744 6.608 10.144C6.608 11.362 5.782 11.95 4.102 11.95C2.674 11.95 2.016 11.306 1.54 10.172C1.456 9.962 1.358 9.934 1.162 10.004L0.77 10.144C0.56 10.228 0.504 10.326 0.588 10.536C1.106 11.866 1.988 12.734 3.626 12.874V13.77C3.626 13.952 3.682 14.022 3.878 14.022H4.312C4.494 14.022 4.564 13.952 4.564 13.77V12.86C6.594 12.72 7.63 11.74 7.63 10.116C7.63 7.918 5.852 7.666 4.27 7.512C2.968 7.386 1.764 7.232 1.764 5.902C1.764 4.726 2.478 4.11 4.004 4.11C5.432 4.11 6.02 4.684 6.552 5.748C6.65 5.944 6.748 5.958 6.93 5.888L7.322 5.706C7.546 5.608 7.588 5.51 7.476 5.314C6.86 4.054 6.118 3.312 4.564 3.172V2.29C4.564 2.108 4.494 2.038 4.312 2.038ZM12.3784 6.112V9.948C12.3784 11.95 13.6804 13.196 15.9484 13.196C18.2164 13.196 19.5184 11.95 19.5184 9.948V6.112C19.5184 4.11 18.2164 2.864 15.9484 2.864C13.6804 2.864 12.3784 4.11 12.3784 6.112ZM18.4964 6.112V9.948C18.4964 11.39 17.5724 12.258 15.9484 12.258C14.3104 12.258 13.3864 11.39 13.3864 9.948V6.112C13.3864 4.67 14.3104 3.802 15.9484 3.802C17.5724 3.802 18.4964 4.67 18.4964 6.112ZM21.4827 11.88H21.3987C20.9787 11.88 20.8387 12.006 20.8387 12.44V12.524C20.8387 12.958 20.9787 13.084 21.3987 13.084H21.4827C21.9027 13.084 22.0287 12.944 22.0287 12.524V12.44C22.0287 12.006 21.9027 11.88 21.4827 11.88ZM26.5106 3.06H26.1326C25.9506 3.06 25.8806 3.088 25.7406 3.172L22.3246 5.09C22.1426 5.188 22.1006 5.286 22.1986 5.454L22.4086 5.832C22.5066 6.014 22.6186 6.042 22.8146 5.93L25.7686 4.292V12.72C25.7686 12.93 25.8386 13 26.0626 13H26.5106C26.7206 13 26.7906 12.93 26.7906 12.72V3.34C26.7906 3.13 26.7206 3.06 26.5106 3.06ZM34.9853 3.06H29.9033C29.5673 3.06 29.4553 3.158 29.4273 3.494L29.0073 7.596C28.9793 7.834 29.0493 7.932 29.3153 7.932H32.3393C33.7953 7.932 34.5653 8.828 34.5653 10.032C34.5653 11.32 33.6833 12.258 32.2553 12.258C30.7573 12.258 29.9593 11.698 29.5813 10.662C29.4973 10.452 29.4133 10.41 29.2313 10.48L28.7693 10.648C28.5873 10.718 28.5453 10.802 28.6153 10.998C29.1333 12.412 30.2533 13.21 32.2553 13.21C34.3973 13.21 35.6433 11.754 35.6433 10.032C35.6433 8.366 34.6073 6.994 32.3953 6.994H30.0853L30.3793 4.012H34.9853C35.1953 4.012 35.2653 3.942 35.2653 3.732V3.34C35.2653 3.13 35.1953 3.06 34.9853 3.06Z" fill="#AFBCCB"/>
<path d="M57 263.567L69.2041 179.841L81.4082 283.561L93.6122 291.059L105.816 218.58L118.02 248.571L130.224 258.568L142.429 208.583L154.633 239.824L166.837 287.31L179.041 253.57L191.245 279.812L203.449 176.092L215.653 187.339L227.857 241.073L240.061 286.06L252.265 279.812L264.469 282.311L276.673 183.59L288.878 202.335L301.082 209.832L313.286 189.838L325.49 282.311L337.694 188.589L349.898 178.591L362.102 173.593L374.306 207.333L386.51 237.324L398.714 199.835L410.918 296.057L423.122 283.561L435.327 222.329L447.531 214.831L459.735 222.329L471.939 173.593L484.143 228.577L496.347 197.336L508.551 237.324L520.755 267.316L532.959 244.822L545.163 247.321L557.367 254.819L569.571 208.583L581.776 269.815L593.98 172.343L606.184 242.323L618.388 187.339L630.592 174.843L642.796 237.324L655 289.809" stroke="#FF5722" stroke-width="2"/>
<g filter="url(#filter0_dd)">
<path fill-rule="evenodd" clip-rule="evenodd" d="M235 115C231.686 115 229 117.686 229 121V159C229 162.314 231.686 165 235 165H271.423C271.512 165.326 271.684 165.633 271.939 165.889L275.536 169.485C276.317 170.266 277.583 170.266 278.364 169.485L282.01 165.839C282.253 165.596 282.42 165.307 282.512 165H316C319.314 165 322 162.314 322 159V121C322 117.686 319.314 115 316 115H235Z" fill="white"/>
</g>
<path d="M242.624 147.192V150.276C242.624 152.052 243.788 153.18 245.804 153.18C247.82 153.18 248.972 152.052 248.972 150.276V147.192C248.972 145.428 247.82 144.3 245.804 144.3C243.788 144.3 242.624 145.428 242.624 147.192ZM247.472 147.192V150.276C247.472 151.224 246.86 151.776 245.804 151.776C244.748 151.776 244.136 151.224 244.136 150.276V147.192C244.136 146.244 244.748 145.704 245.804 145.704C246.86 145.704 247.472 146.244 247.472 147.192ZM250.869 151.44H250.785C250.197 151.44 250.017 151.632 250.017 152.208V152.316C250.017 152.904 250.197 153.084 250.785 153.084H250.869C251.457 153.084 251.637 152.904 251.637 152.316V152.208C251.637 151.632 251.457 151.44 250.869 151.44ZM252.667 147.192V150.276C252.667 152.052 253.831 153.18 255.847 153.18C257.863 153.18 259.015 152.052 259.015 150.276V147.192C259.015 145.428 257.863 144.3 255.847 144.3C253.831 144.3 252.667 145.428 252.667 147.192ZM257.515 147.192V150.276C257.515 151.224 256.903 151.776 255.847 151.776C254.791 151.776 254.179 151.224 254.179 150.276V147.192C254.179 146.244 254.791 145.704 255.847 145.704C256.903 145.704 257.515 146.244 257.515 147.192ZM261.772 147.924V147.42C261.772 146.292 262.372 145.704 263.5 145.704C264.388 145.704 264.916 146.052 265.192 146.7C265.312 147 265.42 147.072 265.708 146.952L266.344 146.724C266.632 146.604 266.716 146.484 266.596 146.196C266.14 144.984 265.144 144.3 263.5 144.3C261.388 144.3 260.26 145.476 260.26 147.432V150.048C260.26 151.98 261.376 153.18 263.5 153.18C265.516 153.18 266.728 152.124 266.728 150.432C266.728 148.632 265.732 147.696 263.62 147.696C262.696 147.696 262.084 147.84 261.772 147.924ZM261.772 150.06V149.376C261.94 149.292 262.516 149.1 263.512 149.1C264.748 149.1 265.228 149.556 265.228 150.432C265.228 151.308 264.616 151.776 263.5 151.776C262.36 151.776 261.772 151.176 261.772 150.06Z" fill="#6A4BFF"/>
<path d="M271.343 150.12V144.636C271.343 144.516 271.307 144.48 271.199 144.48H270.947C270.827 144.48 270.791 144.516 270.791 144.636V150.12C270.791 151.98 271.835 153.18 273.959 153.18C276.071 153.18 277.115 151.98 277.115 150.12V144.636C277.115 144.516 277.079 144.48 276.971 144.48H276.707C276.599 144.48 276.563 144.516 276.563 144.636V150.12C276.563 151.668 275.711 152.664 273.959 152.664C272.195 152.664 271.343 151.668 271.343 150.12ZM278.695 146.7C278.695 148.56 280.327 148.812 281.827 148.992C283.135 149.148 284.383 149.328 284.383 150.744C284.383 152.016 283.495 152.64 281.767 152.64C280.423 152.64 279.571 152.076 279.055 150.864C278.995 150.744 278.959 150.732 278.851 150.768L278.623 150.852C278.503 150.9 278.491 150.948 278.539 151.068C279.115 152.496 280.087 153.168 281.767 153.168C283.855 153.168 284.935 152.28 284.935 150.72C284.935 148.872 283.411 148.62 281.947 148.452C280.591 148.308 279.259 148.08 279.259 146.664C279.259 145.512 280.159 144.84 281.707 144.84C283.051 144.84 283.807 145.344 284.347 146.412C284.407 146.52 284.443 146.52 284.539 146.484L284.779 146.376C284.875 146.34 284.911 146.28 284.851 146.172C284.227 144.9 283.315 144.312 281.707 144.312C279.811 144.312 278.695 145.236 278.695 146.7ZM289.076 144.48H286.628C286.508 144.48 286.472 144.516 286.472 144.636V152.844C286.472 152.964 286.508 153 286.628 153H289.076C291.308 153 292.556 151.788 292.556 149.832V147.648C292.556 145.692 291.308 144.48 289.076 144.48ZM292.004 147.648V149.832C292.004 151.5 290.96 152.484 289.088 152.484H287.024V144.996H289.088C290.972 144.996 292.004 145.98 292.004 147.648Z" fill="black"/>
<path d="M245.38 126.48H242.176C241.996 126.48 241.936 126.54 241.936 126.72V134.76C241.936 134.94 241.996 135 242.176 135H242.572C242.752 135 242.8 134.94 242.8 134.76V131.796H245.38C247.048 131.796 248.092 130.812 248.092 129.144C248.092 127.476 247.048 126.48 245.38 126.48ZM245.308 130.992H242.8V127.296H245.308C246.472 127.296 247.192 127.98 247.192 129.144C247.192 130.308 246.472 130.992 245.308 130.992ZM251.767 128.652C250.723 128.676 250.039 128.856 249.595 129.024C249.235 129.18 249.139 129.324 249.139 129.696V134.784C249.139 134.952 249.199 135 249.355 135H249.739C249.895 135 249.955 134.952 249.955 134.784V129.96C249.955 129.828 249.967 129.732 250.159 129.648C250.519 129.516 251.059 129.396 251.743 129.396H252.139C252.307 129.396 252.355 129.336 252.355 129.18V128.868C252.355 128.712 252.307 128.652 252.139 128.652H251.767ZM253.709 126.624H253.637C253.301 126.624 253.193 126.732 253.193 127.068V127.152C253.193 127.488 253.301 127.596 253.637 127.596H253.709C254.045 127.596 254.153 127.488 254.153 127.152V127.068C254.153 126.732 254.045 126.624 253.709 126.624ZM253.865 128.832H253.481C253.325 128.832 253.265 128.88 253.265 129.048V134.784C253.265 134.952 253.325 135 253.481 135H253.865C254.021 135 254.081 134.952 254.081 134.784V129.048C254.081 128.88 254.021 128.832 253.865 128.832ZM255.463 131.016V132.804C255.463 134.268 256.315 135.168 258.031 135.168C259.459 135.168 260.251 134.58 260.611 133.488C260.683 133.308 260.623 133.236 260.467 133.176L260.155 133.08C259.975 133.032 259.915 133.056 259.843 133.224C259.591 134.04 259.051 134.46 258.055 134.46C256.879 134.46 256.267 133.836 256.267 132.828V130.992C256.267 129.984 256.867 129.372 258.055 129.372C259.087 129.372 259.579 129.756 259.831 130.548C259.891 130.704 259.963 130.752 260.131 130.692L260.443 130.584C260.599 130.524 260.647 130.452 260.587 130.272C260.287 129.288 259.543 128.652 258.079 128.652C256.315 128.652 255.463 129.564 255.463 131.016ZM261.615 131.184V132.744C261.615 134.184 262.419 135.168 264.219 135.168C265.599 135.168 266.367 134.628 266.787 133.872C266.883 133.716 266.859 133.608 266.703 133.524L266.451 133.392C266.295 133.308 266.211 133.332 266.103 133.476C265.767 134.076 265.203 134.472 264.219 134.472C263.031 134.472 262.419 133.848 262.419 132.828V132.132H266.571C266.835 132.132 266.931 132 266.931 131.796V131.136C266.931 129.696 266.067 128.652 264.267 128.652C262.527 128.652 261.615 129.6 261.615 131.184ZM266.127 131.088V131.508H262.419V131.088C262.419 130.02 263.043 129.348 264.267 129.348C265.503 129.348 266.127 130.02 266.127 131.088Z" fill="#BDBDBD"/>
<path fill-rule="evenodd" clip-rule="evenodd" d="M279.841 204.805C279.464 204.329 279.006 203.354 278.191 202.171C277.729 201.502 276.583 200.241 276.242 199.601C275.945 199.036 275.977 198.782 276.048 198.313C276.172 197.479 277.028 196.83 277.94 196.918C278.629 196.983 279.213 197.438 279.739 197.868C280.057 198.127 280.447 198.631 280.682 198.915C280.898 199.175 280.952 199.283 281.183 199.591C281.488 199.998 281.584 200.2 281.467 199.751C281.373 199.093 281.219 197.968 280.995 196.973C280.825 196.219 280.784 196.101 280.622 195.522C280.451 194.906 280.363 194.474 280.203 193.821C280.091 193.359 279.891 192.415 279.836 191.884C279.76 191.157 279.721 189.973 280.187 189.428C280.552 189.002 281.39 188.873 281.909 189.136C282.589 189.48 282.975 190.468 283.152 190.862C283.469 191.572 283.666 192.391 283.837 193.466C284.055 194.835 284.456 196.736 284.469 197.135C284.501 196.645 284.379 195.614 284.464 195.144C284.541 194.717 284.899 194.222 285.348 194.088C285.728 193.975 286.173 193.934 286.565 194.015C286.98 194.1 287.418 194.397 287.582 194.677C288.063 195.506 288.072 197.199 288.092 197.109C288.206 196.61 288.186 195.477 288.469 195.005C288.655 194.695 289.129 194.415 289.381 194.369C289.772 194.3 290.251 194.279 290.661 194.359C290.992 194.424 291.439 194.817 291.56 195.005C291.85 195.462 292.014 196.754 292.063 197.207C292.083 197.394 292.162 196.687 292.453 196.23C292.992 195.381 294.9 195.217 294.973 197.078C295.006 197.947 294.999 197.907 294.999 198.491C294.999 199.178 294.984 199.591 294.946 200.087C294.905 200.619 294.791 201.819 294.625 202.401C294.511 202.8 294.132 203.699 293.759 204.238C293.759 204.238 292.333 205.898 292.178 206.646C292.021 207.392 292.073 207.397 292.042 207.927C292.012 208.456 292.203 209.152 292.203 209.152C292.203 209.152 291.138 209.29 290.564 209.198C290.045 209.114 289.402 208.081 289.236 207.765C289.008 207.33 288.521 207.413 288.331 207.735C288.032 208.243 287.389 209.156 286.935 209.213C286.048 209.324 284.208 209.254 282.767 209.239C282.767 209.239 283.013 207.897 282.465 207.436C282.06 207.092 281.363 206.395 280.946 206.028L279.841 204.805Z" fill="white"/>
<path fill-rule="evenodd" clip-rule="evenodd" d="M279.841 204.805C279.464 204.329 279.006 203.354 278.191 202.171C277.729 201.502 276.583 200.241 276.242 199.601C275.945 199.036 275.977 198.782 276.048 198.313C276.172 197.479 277.028 196.83 277.94 196.918C278.629 196.983 279.213 197.438 279.739 197.868C280.057 198.127 280.447 198.631 280.682 198.915C280.898 199.175 280.952 199.283 281.183 199.591C281.488 199.998 281.584 200.2 281.467 199.751C281.373 199.093 281.219 197.968 280.995 196.973C280.825 196.219 280.784 196.101 280.622 195.522C280.451 194.906 280.363 194.474 280.203 193.821C280.091 193.359 279.891 192.415 279.836 191.884C279.76 191.157 279.721 189.973 280.187 189.428C280.552 189.002 281.39 188.873 281.909 189.136C282.589 189.48 282.975 190.468 283.152 190.862C283.469 191.572 283.666 192.391 283.837 193.466C284.055 194.835 284.456 196.736 284.469 197.135C284.501 196.645 284.379 195.614 284.464 195.144C284.541 194.717 284.899 194.222 285.348 194.088C285.728 193.975 286.173 193.934 286.565 194.015C286.98 194.1 287.418 194.397 287.582 194.677C288.063 195.506 288.072 197.199 288.092 197.109C288.206 196.61 288.186 195.477 288.469 195.005C288.655 194.695 289.129 194.415 289.381 194.369C289.772 194.3 290.251 194.279 290.661 194.359C290.992 194.424 291.439 194.817 291.56 195.005C291.85 195.462 292.014 196.754 292.063 197.207C292.083 197.394 292.162 196.687 292.453 196.23C292.992 195.381 294.9 195.217 294.973 197.078C295.006 197.947 294.999 197.907 294.999 198.491C294.999 199.178 294.984 199.591 294.946 200.087C294.905 200.619 294.791 201.819 294.625 202.401C294.511 202.8 294.132 203.699 293.759 204.238C293.759 204.238 292.333 205.898 292.178 206.646C292.021 207.392 292.073 207.397 292.042 207.927C292.012 208.456 292.203 209.152 292.203 209.152C292.203 209.152 291.138 209.29 290.564 209.198C290.045 209.114 289.402 208.081 289.236 207.765C289.008 207.33 288.521 207.413 288.331 207.735C288.032 208.243 287.389 209.156 286.935 209.213C286.048 209.324 284.208 209.254 282.767 209.239C282.767 209.239 283.013 207.897 282.465 207.436C282.06 207.092 281.363 206.395 280.946 206.028L279.841 204.805Z" stroke="black" stroke-width="0.75" stroke-linecap="round" stroke-linejoin="round"/>
<path d="M290.777 205.276V200.682" stroke="black" stroke-width="0.75" stroke-linecap="round"/>
<path d="M288.101 205.291L288.08 200.68" stroke="black" stroke-width="0.75" stroke-linecap="round"/>
<path d="M285.451 200.722L285.478 205.272" stroke="black" stroke-width="0.75" stroke-linecap="round"/>
<path opacity="0.2" d="M69.0201 180.5L57 264V311H656V289L650.992 269L643.98 238.5L631.459 175.5L619.439 188L606.918 241.5L594.898 174L582.377 269L570.357 210.5L557.836 255L544.814 247.5L533.796 246L521.275 267.5L508.253 235.5L497.235 197.5L484.714 228.5L472.694 175.5H472.193L460.173 222.5L448.153 215.5L436.634 222.5L435.632 224L423.612 284.5L416.6 291.5L411.592 295.5L408.587 272L402.577 224L399.071 201.5L387.051 237L376.033 210.5L368.019 188L362.51 174L355.498 177L349.989 179.5L338.971 188L337.969 190L333.962 220L325.949 280.5L319.438 233.5L313.929 190L301.408 210.5L296.4 207.5L284.38 195.5L277.368 184L264.847 282.5L252.326 280L240.807 287L235.798 270L227.785 240.5L221.775 213.5L216.266 188L211.758 184L203.745 176.5L191.224 280L186.216 268.5L179.204 253.5L167.184 287L155.164 240.5L151.157 230.5L142.643 208L130.623 259L119.605 250L117.601 248.5L116.599 244.5L106.082 219L93.561 291.5L81.541 284L69.0201 180.5Z" fill="#FF5722" stroke="#FF5722"/>
<defs>
<filter id="filter0_dd" x="179" y="80" width="193" height="155.071" filterUnits="userSpaceOnUse" color-interpolation-filters="sRGB">
<feFlood flood-opacity="0" result="BackgroundImageFix"/>
<feColorMatrix in="SourceAlpha" type="matrix" values="0 0 0 0 0 0 0 0 0 0 0 0 0 0 0 0 0 0 127 0" result="hardAlpha"/>
<feOffset dy="10"/>
<feGaussianBlur stdDeviation="7.5"/>
<feColorMatrix type="matrix" values="0 0 0 0 0.313726 0 0 0 0 0.392157 0 0 0 0 0.486275 0 0 0 0.16 0"/>
<feBlend mode="normal" in2="BackgroundImageFix" result="effect1_dropShadow"/>
<feColorMatrix in="SourceAlpha" type="matrix" values="0 0 0 0 0 0 0 0 0 0 0 0 0 0 0 0 0 0 127 0" result="hardAlpha"/>
<feOffset dy="15"/>
<feGaussianBlur stdDeviation="25"/>
<feColorMatrix type="matrix" values="0 0 0 0 0.313726 0 0 0 0 0.392157 0 0 0 0 0.486275 0 0 0 0.1 0"/>
<feBlend mode="normal" in2="effect1_dropShadow" result="effect2_dropShadow"/>
<feBlend mode="normal" in="SourceGraphic" in2="effect2_dropShadow" result="shape"/>
</filter>
</defs>
</svg>
