<svg  viewBox="0 0 54 54" fill="none" xmlns="http://www.w3.org/2000/svg">
<g>
<path d="M6.52002 9.40809C19.0716 -5.19883 42.3454 -2.3166 51.0428 14.7473C44.9172 14.7507 35.3288 14.7439 30.1348 14.7473C26.3683 14.7473 23.9349 14.6629 21.3024 16.05C18.2076 17.6802 15.8687 20.7008 15.0553 24.2513L6.52002 9.40809Z" fill="#F44336"/>
<path d="M18.0186 27.0019C18.0186 31.953 22.0449 35.9793 26.9926 35.9793C31.9404 35.9793 35.9667 31.953 35.9667 27.0019C35.9667 22.0508 31.9404 18.0244 26.9926 18.0244C22.0415 18.021 18.0186 22.0508 18.0186 27.0019Z" fill="#2196F3"/>
<path d="M30.472 38.7534C25.4365 40.2485 19.5405 38.5914 16.314 33.0159C13.8502 28.7634 7.33652 17.4201 4.38004 12.2598C-5.9879 28.1492 2.94568 49.7997 21.7646 53.4953L30.472 38.7534Z" fill="#4CAF50"/>
<path d="M35.3253 18.021C39.5204 21.9224 40.435 28.2404 37.5933 33.1375C35.4535 36.8297 28.6192 48.362 25.3083 53.9442C44.6976 55.139 58.832 36.1378 52.4466 18.0176L35.3253 18.021Z" fill="#FFC107"/>
</g>
<defs>

</defs>
</svg>
