<svg  height="24" viewBox="0 0 171 24" fill="black" xmlns="http://www.w3.org/2000/svg">
<path d="M33.3765 17.8187C31.7995 16.324 31.0312 14.4253 31.0312 12.1631C31.0312 9.94131 31.7995 8.04266 33.3765 6.54798C34.9534 5.0533 36.9347 4.28577 39.2395 4.28577C41.3421 4.28577 43.1617 4.93211 44.6577 6.18441C46.1943 7.43671 47.0838 9.05258 47.4073 10.9512H44.5769C44.2938 9.73932 43.6873 8.7294 42.7169 7.96187C41.7464 7.19433 40.5738 6.83076 39.2395 6.83076C37.703 6.83076 36.4091 7.35592 35.3578 8.36583C34.3065 9.37575 33.7808 10.6684 33.7808 12.1631C33.7808 13.6578 34.3065 14.9505 35.3578 15.9604C36.4091 16.9703 37.703 17.4955 39.2395 17.4955C40.5738 17.4955 41.706 17.0915 42.7169 16.324C43.6873 15.5564 44.3343 14.5869 44.5769 13.375H47.4073C47.1243 15.3141 46.1943 16.8895 44.6577 18.1418C43.1212 19.3941 41.3421 20.0405 39.2395 20.0405C36.9347 20.0809 34.9534 19.3537 33.3765 17.8187Z" />
<path d="M49.9141 19.8386V4.5686H52.6232V19.8386H49.9141Z" />
<path d="M66.0882 4.5686V7.0328H61.8426V19.8386H59.1739V7.0328H54.9282V4.5686H66.0882Z" />
<path d="M77.5718 19.8386L76.3183 16.6068H69.2018L67.9079 19.8386H64.9966L71.1831 4.5686H74.3774L80.5639 19.8386H77.5718ZM70.1318 14.1426H75.3479L72.7196 7.43677L70.1318 14.1426Z" />
<path d="M88.6912 4.5686C90.996 4.5686 92.856 5.29574 94.3925 6.75003C95.929 8.20431 96.6568 10.0222 96.6568 12.2036C96.6568 14.385 95.8886 16.2029 94.3925 17.6571C92.856 19.1114 90.9555 19.8386 88.6912 19.8386H82.626V4.5686H88.6912ZM88.6508 17.334C90.1468 17.334 91.4003 16.8492 92.4112 15.8393C93.4221 14.8698 93.9073 13.6175 93.9073 12.1632C93.9073 10.7089 93.4221 9.4566 92.4112 8.48708C91.4003 7.51756 90.1468 7.0328 88.6508 7.0328H85.2947V17.334H88.6508Z" />
<path d="M101.954 17.334H108.221V19.7982H99.2446V4.5686H108.1V7.0328H101.954V10.9109H107.332V13.3751H101.954V17.334Z" />
<path d="M113.518 17.334H119.098V19.7982H110.85V4.5686H113.559V17.334H113.518Z" />
<path d="M122.737 20.0001C122.211 20.0001 121.767 19.8385 121.443 19.5153C121.12 19.1922 120.917 18.7882 120.917 18.2631C120.917 17.7783 121.079 17.3339 121.443 17.0108C121.807 16.6876 122.211 16.4856 122.737 16.4856C123.263 16.4856 123.707 16.6472 124.031 17.0108C124.395 17.3339 124.557 17.7783 124.557 18.2631C124.557 18.7882 124.395 19.1922 124.031 19.5153C123.707 19.8385 123.263 20.0001 122.737 20.0001Z" />
<path d="M133.938 20.0809C131.592 20.0809 129.611 19.3133 128.034 17.8187C126.457 16.324 125.689 14.4253 125.689 12.1631C125.689 9.94131 126.457 8.04266 128.034 6.54798C129.611 5.0533 131.592 4.28577 133.938 4.28577C136.283 4.28577 138.264 5.0533 139.801 6.54798C141.378 8.04266 142.146 9.94131 142.146 12.1631C142.146 14.4253 141.378 16.2836 139.801 17.8187C138.264 19.3537 136.283 20.0809 133.938 20.0809ZM137.86 16.0008C138.911 14.9909 139.437 13.6982 139.437 12.2035C139.437 10.7088 138.911 9.41615 137.86 8.40623C136.809 7.39631 135.515 6.87116 133.938 6.87116C132.401 6.87116 131.107 7.39631 130.056 8.40623C129.005 9.41615 128.479 10.7088 128.479 12.2035C128.479 13.6982 129.005 14.9909 130.056 16.0008C131.107 17.0107 132.401 17.5359 133.938 17.5359C135.515 17.5359 136.809 17.0107 137.86 16.0008Z" />
<path d="M155.368 4.5686H158.077V19.8386H155.327L147.483 9.05264V19.8386H144.774V4.5686H147.523L155.368 15.3545V4.5686Z" />
<path d="M164.183 17.334H170.45V19.7982H161.474V4.5686H170.288V7.0328H164.142V10.9109H169.52V13.3751H164.142V17.334H164.183Z" />
<path d="M12.3274 1.30263C16.9897 1.30263 20.9407 4.30263 22.4026 8.44737C22.5607 8.96053 22.9953 9.35526 23.5484 9.35526C24.1016 9.35526 24.6547 9.11842 24.6547 8.44737V1.61842C24.6547 0.710526 23.904 0 23.0348 0H1.61994C0.750705 0 0 0.75 0 1.61842V22.3421C0 23.25 0.750705 23.9605 1.61994 23.9605H22.9953C23.904 23.9605 24.6152 23.2105 24.6152 22.3421V15.5132C24.6152 14.8816 24.1806 14.4079 23.5484 14.4079C22.9163 14.4079 22.5212 14.8816 22.3236 15.5132C20.9407 19.6974 16.9897 22.6974 12.3274 22.6974C6.40075 22.6974 1.61994 17.9211 1.61994 12C1.61994 6.07895 6.40075 1.30263 12.3274 1.30263Z" />
</svg>
