<svg width="95" height="95" viewBox="0 0 95 95" fill="none" xmlns="http://www.w3.org/2000/svg">
<path fill-rule="evenodd" clip-rule="evenodd" d="M48 94C42.3692 94 36.8396 92.5045 31.9777 89.6668C27.1158 86.8291 23.0965 82.7511 20.3314 77.8507C17.4939 72.9411 16 67.3718 16 61.7025C16 56.0333 17.4939 50.464 20.3314 45.5544L44.6664 2.94547C44.9996 2.35512 45.4839 1.86385 46.0697 1.522C46.6554 1.18015 47.3216 1 48 1C48.6784 1 49.3446 1.18015 49.9303 1.522C50.5161 1.86385 51.0004 2.35512 51.3336 2.94547L75.6686 45.5544C78.5061 50.464 80 56.0333 80 61.7025C80 67.3718 78.5061 72.9411 75.6686 77.8507C72.9035 82.7511 68.8842 86.8291 64.0223 89.6668C59.1604 92.5045 53.6308 94 48 94ZM46.3332 14.1315L41.1448 23.2165C39.7871 26.3289 37.4982 33.0496 39.6896 39.2111C41.391 43.9934 45.5785 47.6929 52.1383 50.2083C61.6799 53.8802 67.9139 59.3081 70.671 66.3422C71.1024 67.4432 71.444 68.5773 71.6922 69.7334C72.8351 66.3418 73.242 62.746 72.886 59.185C72.5299 55.6241 71.419 52.1797 69.6272 49.0809L49.6668 14.1315C49.5002 13.8363 49.2581 13.5907 48.9652 13.4198C48.6723 13.2489 48.3392 13.1588 48 13.1588C47.6608 13.1588 47.3277 13.2489 47.0348 13.4198C46.7419 13.5907 46.4998 13.8363 46.3332 14.1315ZM26.3728 49.0809L32.2975 38.7077C32.4945 39.6647 32.7562 40.6072 33.0809 41.5289C35.4912 48.3625 41.0634 53.4975 49.641 56.7867C57.2292 59.7087 62.1039 63.7659 64.1286 68.8479C65.5735 72.8315 65.5183 77.2042 63.9734 81.1501C61.1777 83.4907 57.9004 85.1877 54.3744 86.1206C50.8484 87.0536 47.16 87.1996 43.5711 86.5482C39.9822 85.8969 36.5809 84.4643 33.6086 82.352C30.6363 80.2397 28.1659 77.4996 26.3728 74.3262C24.1546 70.4886 22.9868 66.1351 22.9868 61.7036C22.9868 57.272 24.1546 52.9186 26.3728 49.0809Z" fill="#A4DBE3"/>
</svg>
