<svg viewBox="0 0 63 95" fill="#E4C4FC" xmlns="http://www.w3.org/2000/svg">
    <path d="M45.2428 31.5357C48.2881 32.8237 51.1045 34.5157 53.6589 36.5788V21.9953C53.6589 9.86786 43.791 0 31.6636 0H31.3252C19.2087 0 9.34082 9.86786 9.34082 21.9953V36.5788C11.8951 34.5158 14.7114 32.8238 17.7569 31.5357C18.5756 31.1864 19.4161 30.8698 20.2566 30.586V21.9953C20.2566 15.8825 25.2233 10.9158 31.3361 10.9158H31.6745C37.7873 10.9158 42.754 15.8825 42.754 21.9953V30.5969C43.5835 30.8698 44.4241 31.1864 45.2428 31.5357Z" />
    <path d="M0.564453 64.0647C0.564453 81.1479 14.4166 94.9999 31.4998 94.9999C48.583 94.9999 62.4352 81.1587 62.4352 64.0647C62.4352 55.6705 59.0839 48.0512 53.6589 42.4732C50.6025 39.3405 46.8911 36.8516 42.7431 35.2252C39.261 33.8607 35.4622 33.1185 31.4999 33.1185C27.5374 33.1185 23.7388 33.8607 20.2566 35.2252C16.1086 36.8407 12.3973 39.3295 9.34085 42.4732C3.90468 48.0512 0.564453 55.6705 0.564453 64.0647ZM23.5311 57.8209C23.6403 53.5965 27.0788 50.158 31.3032 50.0596C35.7894 49.9505 39.4682 53.5637 39.4682 58.0282C39.4682 58.4976 39.4245 58.956 39.3481 59.3926C38.9549 61.6522 37.6125 63.5952 35.7348 64.7742C34.9597 65.2654 34.5669 66.1822 34.7635 67.0665L37.1323 78.2989C37.2743 78.9756 36.7612 79.6198 36.0624 79.6198H26.937C26.2384 79.6198 25.7252 78.9865 25.8672 78.2989L28.2358 67.0665C28.4214 66.1714 28.0394 65.2544 27.2644 64.7632C25.3869 63.5843 24.0443 61.6522 23.6512 59.3817C23.5639 58.8797 23.5203 58.3557 23.5311 57.8209Z" />
</svg>
