<svg width="96" height="95" viewBox="0 0 96 95" fill="none" xmlns="http://www.w3.org/2000/svg">
<path fill-rule="evenodd" clip-rule="evenodd" d="M60.8183 20.9394C60.8098 21.0753 60.7883 21.21 60.7542 21.3418C64.0414 24.8652 65.8831 29.4962 65.9135 34.3148C65.9829 44.8382 57.4748 53.697 46.9514 53.697H46.8286C36.3604 53.697 27.8131 45.0429 27.7455 34.5623C27.7099 28.5609 30.456 22.8815 35.1818 19.1823V10.9697C35.1818 10.1831 35.8195 9.54547 36.6061 9.54547C37.3926 9.54547 38.0303 10.1831 38.0303 10.9697V17.3503C40.7092 15.9551 43.6871 15.2317 46.7075 15.2424H46.8322C50.8276 15.2229 54.7266 16.4694 57.9698 18.803V12.394C57.9698 11.6074 58.6074 10.9697 59.394 10.9697C60.1806 10.9697 60.8183 11.6074 60.8183 12.394V20.9394ZM46.8266 50.8485H46.9316C55.8866 50.8485 63.1217 43.3178 63.0648 34.3664C63.0078 25.4489 55.7317 18.0909 46.8301 18.0909H46.7251C37.7737 18.0909 30.535 25.6234 30.5919 34.5747C30.6489 43.4923 37.925 50.8485 46.8266 50.8485Z" fill="#A4DBE3"/>
<path d="M60.7542 21.3418L60.609 21.3041L60.5883 21.3839L60.6445 21.4441L60.7542 21.3418ZM60.8183 20.9394L60.9683 20.9488V20.9394H60.8183ZM65.9135 34.3148L65.7635 34.3158V34.3158L65.9135 34.3148ZM27.7455 34.5623L27.5955 34.5632L27.5955 34.5633L27.7455 34.5623ZM35.1818 19.1823L35.2743 19.3004L35.3318 19.2553V19.1823H35.1818ZM38.0303 17.3503H37.8803V17.5976L38.0996 17.4834L38.0303 17.3503ZM46.7075 15.2424L46.707 15.3924H46.7075V15.2424ZM46.8322 15.2424V15.3924L46.8329 15.3924L46.8322 15.2424ZM57.9698 18.803L57.8822 18.9248L58.1198 19.0958V18.803H57.9698ZM63.0648 34.3664L63.2148 34.3655V34.3655L63.0648 34.3664ZM30.5919 34.5747L30.4419 34.5757V34.5757L30.5919 34.5747ZM60.8994 21.3794C60.9359 21.2384 60.9589 21.0942 60.968 20.9488L60.6686 20.93C60.6607 21.0564 60.6407 21.1816 60.609 21.3041L60.8994 21.3794ZM66.0635 34.3139C66.0328 29.4576 64.1767 24.7904 60.8638 21.2394L60.6445 21.4441C63.906 24.94 65.7333 29.5348 65.7635 34.3158L66.0635 34.3139ZM46.9514 53.847C57.561 53.847 66.1335 44.9174 66.0635 34.3138L65.7635 34.3158C65.8324 44.759 57.3886 53.547 46.9514 53.547V53.847ZM46.8286 53.847H46.9514V53.547H46.8286V53.847ZM27.5955 34.5633C27.6636 45.1246 36.2762 53.847 46.8286 53.847V53.547C36.4445 53.547 27.9626 44.9612 27.8955 34.5613L27.5955 34.5633ZM35.0894 19.0641C30.3269 22.792 27.5596 28.5154 27.5955 34.5632L27.8955 34.5614C27.8602 28.6065 30.585 22.971 35.2743 19.3004L35.0894 19.0641ZM35.0318 10.9697V19.1823H35.3318V10.9697H35.0318ZM36.6061 9.39547C35.7366 9.39547 35.0318 10.1003 35.0318 10.9697H35.3318C35.3318 10.266 35.9023 9.69547 36.6061 9.69547V9.39547ZM38.1803 10.9697C38.1803 10.1003 37.4755 9.39547 36.6061 9.39547V9.69547C37.3098 9.69547 37.8803 10.266 37.8803 10.9697H38.1803ZM38.1803 17.3503V10.9697H37.8803V17.3503H38.1803ZM46.7081 15.0924C43.6633 15.0816 40.6615 15.8108 37.961 17.2173L38.0996 17.4834C40.757 16.0994 43.7108 15.3818 46.707 15.3924L46.7081 15.0924ZM46.8322 15.0924H46.7075V15.3924H46.8322V15.0924ZM58.0574 18.6813C54.7885 16.3291 50.8586 15.0727 46.8314 15.0924L46.8329 15.3924C50.7967 15.3731 54.6647 16.6096 57.8822 18.9248L58.0574 18.6813ZM57.8198 12.394V18.803H58.1198V12.394H57.8198ZM59.394 10.8197C58.5246 10.8197 57.8198 11.5245 57.8198 12.394H58.1198C58.1198 11.6902 58.6903 11.1197 59.394 11.1197V10.8197ZM60.9683 12.394C60.9683 11.5245 60.2634 10.8197 59.394 10.8197V11.1197C60.0978 11.1197 60.6683 11.6902 60.6683 12.394H60.9683ZM60.9683 20.9394V12.394H60.6683V20.9394H60.9683ZM46.9316 50.6985H46.8266V50.9985H46.9316V50.6985ZM62.9148 34.3674C62.9712 43.2385 55.8004 50.6985 46.9316 50.6985V50.9985C55.9727 50.9985 63.2722 43.3971 63.2148 34.3655L62.9148 34.3674ZM46.8301 18.2409C55.6476 18.2409 62.8583 25.5307 62.9148 34.3674L63.2148 34.3655C63.1573 25.3671 55.8158 17.9409 46.8301 17.9409V18.2409ZM46.7251 18.2409H46.8301V17.9409H46.7251V18.2409ZM30.7419 34.5738C30.6855 25.7027 37.8599 18.2409 46.7251 18.2409V17.9409C37.6875 17.9409 30.3845 25.5441 30.4419 34.5757L30.7419 34.5738ZM46.8266 50.6985C38.0091 50.6985 30.7984 43.4105 30.7419 34.5738L30.4419 34.5757C30.4994 43.5741 37.8409 50.9985 46.8266 50.9985V50.6985Z" fill="#A4DBE3"/>
<path d="M46.5 28.6524C48.9583 28.6524 51.0417 30.1549 51.8125 32.2306C51.8958 32.4876 52.125 32.6853 52.4167 32.6853C52.7083 32.6853 53 32.5667 53 32.2306V28.8105C53 28.3558 52.6042 28 52.1458 28H40.8542C40.3958 28 40 28.3756 40 28.8105V39.1895C40 39.6442 40.3958 40 40.8542 40H52.125C52.6042 40 52.9792 39.6244 52.9792 39.1895V35.7694C52.9792 35.453 52.75 35.2158 52.4167 35.2158C52.0833 35.2158 51.875 35.453 51.7708 35.7694C51.0417 37.8649 48.9583 39.3674 46.5 39.3674C43.375 39.3674 40.8542 36.9753 40.8542 34.0099C40.8542 31.0445 43.375 28.6524 46.5 28.6524Z" fill="#92C9D1"/>
<path fill-rule="evenodd" clip-rule="evenodd" d="M20.7458 36.2056C20.7408 36.2857 20.728 36.3652 20.7076 36.4429C22.6701 38.5213 23.7697 41.2529 23.7878 44.0952C23.8293 50.3026 18.7497 55.528 12.467 55.528H12.3937C6.14386 55.528 1.04093 50.4233 1.00054 44.2412C0.979313 40.7012 2.61878 37.3511 5.44023 35.1691V30.3248C5.44023 29.8609 5.82093 29.4847 6.29054 29.4847C6.76016 29.4847 7.14086 29.8609 7.14086 30.3248V34.0885C8.74024 33.2655 10.5181 32.8388 12.3214 32.8452H12.3958C14.7812 32.8336 17.109 33.5689 19.0452 34.9454V31.165C19.0452 30.701 19.4259 30.3248 19.8955 30.3248C20.3652 30.3248 20.7458 30.701 20.7458 31.165V36.2056ZM12.3927 53.8478H12.4554C17.8017 53.8478 22.1213 49.4058 22.0873 44.1257C22.0533 38.8656 17.7092 34.5254 12.3948 34.5254H12.3321C6.98787 34.5254 2.66616 38.9685 2.70017 44.2486C2.73418 49.5087 7.07822 53.8478 12.3927 53.8478Z" fill="#A4DBE3"/>
<path d="M20.7076 36.4429L20.5141 36.3922L20.486 36.4995L20.5622 36.5802L20.7076 36.4429ZM20.7458 36.2056L20.9458 36.2183V36.2056H20.7458ZM23.7878 44.0952L23.5878 44.0965V44.0966L23.7878 44.0952ZM1.00054 44.2412L0.800543 44.2424L0.800544 44.2425L1.00054 44.2412ZM5.44023 35.1691L5.56258 35.3273L5.64023 35.2673V35.1691H5.44023ZM7.14086 34.0885H6.94086V34.4164L7.23236 34.2664L7.14086 34.0885ZM12.3214 32.8452L12.3207 33.0452H12.3214V32.8452ZM12.3958 32.8452V33.0452L12.3968 33.0452L12.3958 32.8452ZM19.0452 34.9454L18.9293 35.1084L19.2452 35.333V34.9454H19.0452ZM22.0873 44.1257L22.2873 44.1244V44.1244L22.0873 44.1257ZM2.70017 44.2486L2.50018 44.2498V44.2498L2.70017 44.2486ZM20.901 36.4936C20.9247 36.4035 20.9396 36.3112 20.9454 36.2182L20.5462 36.193C20.542 36.2602 20.5312 36.3269 20.5141 36.3922L20.901 36.4936ZM23.9878 44.094C23.9693 41.2007 22.8501 38.4205 20.853 36.3056L20.5622 36.5802C22.4902 38.622 23.57 41.3051 23.5878 44.0965L23.9878 44.094ZM12.467 55.728C18.8624 55.728 24.03 50.4105 23.9878 44.0939L23.5878 44.0966C23.6286 50.1946 18.6371 55.328 12.467 55.328V55.728ZM12.3937 55.728H12.467V55.328H12.3937V55.728ZM0.800544 44.2425C0.841651 50.5346 6.03388 55.728 12.3937 55.728V55.328C6.25384 55.328 1.24021 50.3121 1.20054 44.2399L0.800544 44.2425ZM5.31788 35.0109C2.44755 37.2307 0.77894 40.6395 0.800543 44.2424L1.20054 44.24C1.17969 40.7629 2.79 37.4715 5.56258 35.3273L5.31788 35.0109ZM5.24023 30.3248V35.1691H5.64023V30.3248H5.24023ZM6.29054 29.2847C5.71276 29.2847 5.24023 29.7481 5.24023 30.3248H5.64023C5.64023 29.9736 5.9291 29.6847 6.29054 29.6847V29.2847ZM7.34086 30.3248C7.34086 29.7481 6.86833 29.2847 6.29054 29.2847V29.6847C6.65198 29.6847 6.94086 29.9736 6.94086 30.3248H7.34086ZM7.34086 34.0885V30.3248H6.94086V34.0885H7.34086ZM12.3221 32.6452C10.4868 32.6387 8.67732 33.073 7.04935 33.9107L7.23236 34.2664C8.80316 33.4581 10.5494 33.0389 12.3207 33.0452L12.3221 32.6452ZM12.3958 32.6452H12.3214V33.0452H12.3958V32.6452ZM19.1611 34.7824C17.1906 33.3815 14.8219 32.6334 12.3948 32.6452L12.3968 33.0452C14.7405 33.0338 17.0274 33.7563 18.9293 35.1084L19.1611 34.7824ZM18.8452 31.165V34.9454H19.2452V31.165H18.8452ZM19.8955 30.1248C19.3177 30.1248 18.8452 30.5882 18.8452 31.165H19.2452C19.2452 30.8137 19.5341 30.5248 19.8955 30.5248V30.1248ZM20.9458 31.165C20.9458 30.5882 20.4733 30.1248 19.8955 30.1248V30.5248C20.257 30.5248 20.5458 30.8137 20.5458 31.165H20.9458ZM20.9458 36.2056V31.165H20.5458V36.2056H20.9458ZM12.4554 53.6478H12.3927V54.0478H12.4554V53.6478ZM21.8873 44.127C21.9206 49.2977 17.6891 53.6478 12.4554 53.6478V54.0478C17.9143 54.0478 22.322 49.5138 22.2873 44.1244L21.8873 44.127ZM12.3948 34.7254C17.5994 34.7254 21.854 38.9769 21.8873 44.127L22.2873 44.1244C22.2526 38.7543 17.8191 34.3254 12.3948 34.3254V34.7254ZM12.3321 34.7254H12.3948V34.3254H12.3321V34.7254ZM2.90017 44.2473C2.86686 39.0765 7.10047 34.7254 12.3321 34.7254V34.3254C6.87527 34.3254 2.46546 38.8605 2.50018 44.2498L2.90017 44.2473ZM12.3927 53.6478C7.18807 53.6478 2.93347 49.3973 2.90017 44.2473L2.50018 44.2498C2.5349 49.62 6.96837 54.0478 12.3927 54.0478V53.6478Z" fill="#A4DBE3"/>
<path d="M12.5 40.4349C14.2019 40.4349 15.6442 41.4366 16.1779 42.8204C16.2356 42.9918 16.3942 43.1236 16.5962 43.1236C16.7981 43.1236 17 43.0445 17 42.8204V40.5404C17 40.2372 16.726 40 16.4087 40H8.59135C8.27404 40 8 40.2504 8 40.5404V47.4596C8 47.7628 8.27404 48 8.59135 48H16.3942C16.726 48 16.9856 47.7496 16.9856 47.4596V45.1796C16.9856 44.9687 16.8269 44.8105 16.5962 44.8105C16.3654 44.8105 16.2212 44.9687 16.149 45.1796C15.6442 46.5766 14.2019 47.5783 12.5 47.5783C10.3365 47.5783 8.59135 45.9835 8.59135 44.0066C8.59135 42.0297 10.3365 40.4349 12.5 40.4349Z" fill="#92C9D1"/>
<path fill-rule="evenodd" clip-rule="evenodd" d="M91.958 30.5087C91.9529 30.5888 91.9401 30.6683 91.9197 30.746C93.8823 32.8244 94.9818 35.556 95 38.3983C95.0414 44.6057 89.9619 49.8311 83.6791 49.8311H83.6058C77.356 49.8311 72.2531 44.7264 72.2127 38.5443C72.1914 35.0043 73.8309 31.6542 76.6524 29.4722V24.6279C76.6524 24.164 77.0331 23.7878 77.5027 23.7878C77.9723 23.7878 78.353 24.164 78.353 24.6279V28.3916C79.9524 27.5686 81.7302 27.1419 83.5335 27.1483H83.6079C85.9933 27.1367 88.3211 27.872 90.2574 29.2485V25.4681C90.2574 25.0041 90.6381 24.6279 91.1077 24.6279C91.5773 24.6279 91.958 25.0041 91.958 25.4681V30.5087ZM83.6044 48.1509H83.6671C89.0135 48.1509 93.333 43.7088 93.299 38.4288C93.265 33.1687 88.921 28.8285 83.6065 28.8285H83.5438C78.1996 28.8285 73.8779 33.2716 73.9119 38.5516C73.9459 43.8118 78.29 48.1509 83.6044 48.1509Z" fill="#A4DBE3"/>
<path d="M91.9197 30.746L91.7263 30.6953L91.6981 30.8026L91.7743 30.8833L91.9197 30.746ZM91.958 30.5087L92.158 30.5214V30.5087H91.958ZM95 38.3983L94.8 38.3996V38.3997L95 38.3983ZM72.2127 38.5443L72.0127 38.5455L72.0127 38.5456L72.2127 38.5443ZM76.6524 29.4722L76.7747 29.6304L76.8524 29.5704V29.4722H76.6524ZM78.353 28.3916H78.153V28.7195L78.4445 28.5695L78.353 28.3916ZM83.5335 27.1483L83.5328 27.3483H83.5335V27.1483ZM83.6079 27.1483V27.3483L83.6089 27.3483L83.6079 27.1483ZM90.2574 29.2485L90.1415 29.4115L90.4574 29.6361V29.2485H90.2574ZM93.299 38.4288L93.499 38.4275V38.4275L93.299 38.4288ZM73.9119 38.5516L73.7119 38.5529V38.5529L73.9119 38.5516ZM92.1132 30.7967C92.1368 30.7066 92.1517 30.6143 92.1576 30.5213L91.7584 30.4961C91.7541 30.5633 91.7434 30.63 91.7263 30.6953L92.1132 30.7967ZM95.2 38.3971C95.1815 35.5038 94.0622 32.7236 92.0651 30.6087L91.7743 30.8833C93.7023 32.9251 94.7821 35.6082 94.8 38.3996L95.2 38.3971ZM83.6791 50.0311C90.0745 50.0311 95.2421 44.7136 95.2 38.397L94.8 38.3997C94.8407 44.4977 89.8492 49.6311 83.6791 49.6311V50.0311ZM83.6058 50.0311H83.6791V49.6311H83.6058V50.0311ZM72.0127 38.5456C72.0538 44.8377 77.246 50.0311 83.6058 50.0311V49.6311C77.466 49.6311 72.4523 44.6152 72.4127 38.543L72.0127 38.5456ZM76.53 29.314C73.6597 31.5338 71.9911 34.9426 72.0127 38.5455L72.4127 38.5431C72.3918 35.066 74.0021 31.7747 76.7747 29.6304L76.53 29.314ZM76.4524 24.6279V29.4722H76.8524V24.6279H76.4524ZM77.5027 23.5878C76.9249 23.5878 76.4524 24.0512 76.4524 24.6279H76.8524C76.8524 24.2767 77.1412 23.9878 77.5027 23.9878V23.5878ZM78.553 24.6279C78.553 24.0512 78.0805 23.5878 77.5027 23.5878V23.9878C77.8641 23.9878 78.153 24.2767 78.153 24.6279H78.553ZM78.553 28.3916V24.6279H78.153V28.3916H78.553ZM83.5342 26.9483C81.6989 26.9418 79.8895 27.3761 78.2615 28.2138L78.4445 28.5695C80.0153 27.7612 81.7615 27.342 83.5328 27.3483L83.5342 26.9483ZM83.6079 26.9483H83.5335V27.3483H83.6079V26.9483ZM90.3732 29.0855C88.4027 27.6846 86.034 26.9365 83.6069 26.9483L83.6089 27.3483C85.9526 27.3369 88.2395 28.0594 90.1415 29.4115L90.3732 29.0855ZM90.0574 25.4681V29.2485H90.4574V25.4681H90.0574ZM91.1077 24.4279C90.5299 24.4279 90.0574 24.8913 90.0574 25.4681H90.4574C90.4574 25.1168 90.7462 24.8279 91.1077 24.8279V24.4279ZM92.158 25.4681C92.158 24.8913 91.6855 24.4279 91.1077 24.4279V24.8279C91.4691 24.8279 91.758 25.1168 91.758 25.4681H92.158ZM92.158 30.5087V25.4681H91.758V30.5087H92.158ZM83.6671 47.9509H83.6044V48.3509H83.6671V47.9509ZM93.099 38.4301C93.1323 43.6008 88.9009 47.9509 83.6671 47.9509V48.3509C89.1261 48.3509 93.5337 43.8169 93.499 38.4275L93.099 38.4301ZM83.6065 29.0285C88.8111 29.0285 93.0657 33.28 93.099 38.4301L93.499 38.4275C93.4643 33.0573 89.0309 28.6285 83.6065 28.6285V29.0285ZM83.5438 29.0285H83.6065V28.6285H83.5438V29.0285ZM74.1119 38.5504C74.0786 33.3796 78.3122 29.0285 83.5438 29.0285V28.6285C78.087 28.6285 73.6772 33.1636 73.7119 38.5529L74.1119 38.5504ZM83.6044 47.9509C78.3998 47.9509 74.1452 43.7004 74.1119 38.5504L73.7119 38.5529C73.7466 43.9231 78.1801 48.3509 83.6044 48.3509V47.9509Z" fill="#A4DBE3"/>
<path d="M36.6061 1C35.8195 1 35.1818 1.63766 35.1818 2.42424V5.27273C35.1818 6.05932 35.8195 6.69697 36.6061 6.69697C37.3927 6.69697 38.0303 6.05932 38.0303 5.27273V2.42424C38.0303 1.63766 37.3927 1 36.6061 1Z" fill="#A4DBE3" stroke="#A4DBE3" stroke-width="0.3"/>
<path d="M59.3942 2.42426C58.6076 2.42426 57.9699 3.06191 57.9699 3.8485V6.69698C57.9699 7.48357 58.6076 8.12123 59.3942 8.12123C60.1807 8.12123 60.8184 7.48357 60.8184 6.69698V3.8485C60.8184 3.06191 60.1807 2.42426 59.3942 2.42426Z" fill="#A4DBE3" stroke="#A4DBE3" stroke-width="0.3"/>
<path d="M77.6245 12.3939C76.8379 12.3939 76.2003 13.0316 76.2003 13.8182V16.6666C76.2003 17.4532 76.8379 18.0909 77.6245 18.0909C78.4111 18.0909 79.0488 17.4532 79.0488 16.6666V13.8182C79.0488 13.0316 78.4111 12.3939 77.6245 12.3939Z" fill="#A4DBE3" stroke="#A4DBE3" stroke-width="0.3"/>
<ellipse cx="36.6061" cy="35.1818" rx="1.42425" ry="1.42424" fill="#A4DBE3"/>
<ellipse cx="56.5456" cy="35.1818" rx="1.42425" ry="1.42424" fill="#A4DBE3"/>
<path fill-rule="evenodd" clip-rule="evenodd" d="M9.69321 70.7879L22.3636 79.3333L46.5348 84.9066L60.8183 80.7576V75.042C60.8183 75.042 57.6296 77.9614 46.8286 76.5721C36.0275 75.1829 36.606 73.2841 26.7651 69.6359C16.9242 65.9878 9.69321 70.7879 9.69321 70.7879Z" fill="#93C9D1"/>
<path fill-rule="evenodd" clip-rule="evenodd" d="M72.2124 56.5455H87.8792C88.6658 56.5455 89.3034 57.1831 89.3034 57.9697V85.0303C89.3034 85.8169 88.6658 86.4546 87.8792 86.4546H72.2124C70.4078 86.4459 68.8032 85.3045 68.2032 83.6025H61.0731C60.6234 83.5979 60.2037 83.3765 59.9461 83.0079L47.548 85.8564C46.9081 86.0012 46.2439 86.0012 45.6039 85.8564L22.0469 80.4763C21.8844 80.4391 21.7296 80.374 21.5894 80.284L5.76775 70.0455C4.57414 69.2831 3.85087 67.9653 3.84857 66.549V63.4602C3.84755 62.1458 4.47059 60.909 5.52741 60.1274C6.62105 59.308 8.038 59.0544 9.34795 59.4438L31.1265 65.8315C31.5769 64.3973 32.6542 63.2453 34.0551 62.7L45.2069 58.2759C46.023 57.952 46.9179 57.8825 47.7741 58.0765L59.6559 60.7737C59.6799 60.008 60.3052 59.3984 61.0713 59.394H68.2014C68.8029 57.6928 70.4081 56.5528 72.2124 56.5455ZM46.9108 83.0862L59.3053 80.2378L59.3943 63.6346L47.1493 60.8574C46.8525 60.7894 46.5419 60.8137 46.2592 60.9268L35.1073 65.3544C34.3031 65.6586 33.7675 66.4245 33.7579 67.2843C33.7579 68.429 34.7424 69.3637 35.9512 69.3637H46.5761C47.3627 69.3637 48.0003 70.0013 48.0003 70.7879C48.0003 71.5745 47.3627 72.2121 46.5761 72.2121H35.9512C33.7909 72.2236 31.8622 70.8607 31.1515 68.8207L8.54156 62.1784C8.09294 62.041 7.60567 62.1271 7.23125 62.4098C6.89497 62.6531 6.69622 63.0433 6.69716 63.4584V66.5472C6.69707 66.9972 6.92578 67.4164 7.30424 67.6599L22.9176 77.7631L46.2396 83.0862C46.4604 83.1378 46.69 83.1378 46.9108 83.0862ZM67.9395 80.7576H62.2425V62.2425H67.9395V80.7576ZM72.2125 83.6061H86.4549V59.394H72.2125C71.4259 59.394 70.7882 60.0316 70.7882 60.8182V82.1818C70.7882 82.9684 71.4259 83.6061 72.2125 83.6061Z" fill="#A4DBE3"/>
<path d="M72.2124 56.5455V56.3955L72.2118 56.3955L72.2124 56.5455ZM72.2124 86.4546L72.2117 86.6046H72.2124V86.4546ZM68.2032 83.6025L68.3447 83.5526L68.3094 83.4525H68.2032V83.6025ZM61.0731 83.6025L61.0715 83.7525H61.0731V83.6025ZM59.9461 83.0079L60.0691 82.922L60.0111 82.8391L59.9125 82.8617L59.9461 83.0079ZM47.548 85.8564L47.5812 86.0027L47.5816 86.0026L47.548 85.8564ZM45.6039 85.8564L45.5705 86.0026L45.5708 86.0027L45.6039 85.8564ZM22.0469 80.4763L22.0134 80.6225L22.0135 80.6225L22.0469 80.4763ZM21.5894 80.284L21.5079 80.41L21.5084 80.4103L21.5894 80.284ZM5.76775 70.0455L5.84924 69.9196L5.8485 69.9191L5.76775 70.0455ZM3.84857 66.549H3.69857L3.69857 66.5492L3.84857 66.549ZM3.84857 63.4602H3.99857L3.99857 63.4601L3.84857 63.4602ZM5.52741 60.1274L5.6166 60.248L5.61735 60.2475L5.52741 60.1274ZM9.34795 59.4438L9.30521 59.5876L9.30573 59.5877L9.34795 59.4438ZM31.1265 65.8315L31.0843 65.9755L31.2255 66.0169L31.2696 65.8765L31.1265 65.8315ZM34.0551 62.7L34.1095 62.8398L34.1104 62.8394L34.0551 62.7ZM45.2069 58.2759L45.2623 58.4154L45.2623 58.4153L45.2069 58.2759ZM47.7741 58.0765L47.8074 57.9303L47.8073 57.9302L47.7741 58.0765ZM59.6559 60.7737L59.6227 60.92L59.8002 60.9603L59.8059 60.7784L59.6559 60.7737ZM61.0713 59.394V59.244L61.0704 59.244L61.0713 59.394ZM68.2014 59.394V59.544H68.3075L68.3428 59.444L68.2014 59.394ZM59.3053 80.2378L59.3389 80.3839L59.4547 80.3573L59.4553 80.2386L59.3053 80.2378ZM46.9108 83.0862L46.8772 82.94L46.8766 82.9402L46.9108 83.0862ZM59.3943 63.6346L59.5443 63.6355L59.545 63.515L59.4275 63.4884L59.3943 63.6346ZM47.1493 60.8574L47.1159 61.0036L47.1162 61.0037L47.1493 60.8574ZM46.2592 60.9268L46.3145 61.0662L46.3149 61.0661L46.2592 60.9268ZM35.1073 65.3544L35.1604 65.4947L35.1627 65.4938L35.1073 65.3544ZM33.7579 67.2843L33.6079 67.2826V67.2843H33.7579ZM35.9512 72.2121V72.0621L35.9504 72.0621L35.9512 72.2121ZM31.1515 68.8207L31.2931 68.7713L31.2678 68.6985L31.1938 68.6768L31.1515 68.8207ZM8.54156 62.1784L8.49764 62.3218L8.49928 62.3223L8.54156 62.1784ZM7.23125 62.4098L7.3192 62.5313L7.32164 62.5295L7.23125 62.4098ZM6.69716 63.4584H6.84716L6.84716 63.4581L6.69716 63.4584ZM6.69716 66.5472L6.84716 66.5473V66.5472H6.69716ZM7.30424 67.6599L7.38573 67.534L7.3854 67.5338L7.30424 67.6599ZM22.9176 77.7631L22.8361 77.8891L22.8583 77.9035L22.8842 77.9094L22.9176 77.7631ZM46.2396 83.0862L46.2738 82.9402L46.273 82.94L46.2396 83.0862ZM62.2425 80.7576H62.0925V80.9076H62.2425V80.7576ZM67.9395 80.7576V80.9076H68.0895V80.7576H67.9395ZM62.2425 62.2425V62.0925H62.0925V62.2425H62.2425ZM67.9395 62.2425H68.0895V62.0925H67.9395V62.2425ZM86.4549 83.6061V83.7561H86.6049V83.6061H86.4549ZM86.4549 59.394H86.6049V59.244H86.4549V59.394ZM87.8792 56.3955H72.2124V56.6955H87.8792V56.3955ZM89.4534 57.9697C89.4534 57.1003 88.7486 56.3955 87.8792 56.3955V56.6955C88.5829 56.6955 89.1534 57.266 89.1534 57.9697H89.4534ZM89.4534 85.0303V57.9697H89.1534V85.0303H89.4534ZM87.8792 86.6046C88.7486 86.6046 89.4534 85.8997 89.4534 85.0303H89.1534C89.1534 85.7341 88.5829 86.3046 87.8792 86.3046V86.6046ZM72.2124 86.6046H87.8792V86.3046H72.2124V86.6046ZM68.0617 83.6524C68.6828 85.4141 70.3438 86.5956 72.2117 86.6046L72.2132 86.3046C70.4719 86.2963 68.9236 85.1949 68.3447 83.5526L68.0617 83.6524ZM61.0731 83.7525H68.2032V83.4525H61.0731V83.7525ZM59.8232 83.0938C60.1085 83.5021 60.5735 83.7474 61.0715 83.7525L61.0746 83.4525C60.6734 83.4484 60.2989 83.2508 60.0691 82.922L59.8232 83.0938ZM47.5816 86.0026L59.9797 83.1541L59.9125 82.8617L47.5145 85.7102L47.5816 86.0026ZM45.5708 86.0027C46.2326 86.1524 46.9194 86.1524 47.5812 86.0027L47.5149 85.7101C46.8968 85.8499 46.2552 85.8499 45.6371 85.7101L45.5708 86.0027ZM22.0135 80.6225L45.5705 86.0026L45.6373 85.7101L22.0803 80.3301L22.0135 80.6225ZM21.5084 80.4103C21.6632 80.5096 21.8341 80.5814 22.0134 80.6225L22.0804 80.3301C21.9348 80.2967 21.7961 80.2384 21.6703 80.1578L21.5084 80.4103ZM5.68625 70.1714L21.5079 80.41L21.6709 80.1581L5.84924 69.9196L5.68625 70.1714ZM3.69857 66.5492C3.70095 68.0167 4.45032 69.3819 5.687 70.1719L5.8485 69.9191C4.69796 69.1842 4.00079 67.914 3.99857 66.5488L3.69857 66.5492ZM3.69857 63.4602V66.549H3.99857V63.4602H3.69857ZM5.43822 60.0068C4.34312 60.8167 3.69751 62.0983 3.69857 63.4603L3.99857 63.4601C3.99759 62.1933 4.59806 61.0013 5.61659 60.248L5.43822 60.0068ZM9.39069 59.3C8.03524 58.8971 6.56908 59.1595 5.43746 60.0074L5.61735 60.2475C6.67301 59.4565 8.04075 59.2117 9.30521 59.5876L9.39069 59.3ZM31.1687 65.6876L9.39017 59.2999L9.30573 59.5877L31.0843 65.9755L31.1687 65.6876ZM34.0007 62.5602C32.5574 63.122 31.4474 64.309 30.9834 65.7866L31.2696 65.8765C31.7063 64.4857 32.7511 63.3686 34.1095 62.8398L34.0007 62.5602ZM45.1516 58.1365L33.9998 62.5606L34.1104 62.8394L45.2623 58.4154L45.1516 58.1365ZM47.8073 57.9302C46.9215 57.7295 45.9957 57.8014 45.1516 58.1365L45.2623 58.4153C46.0502 58.1026 46.9143 58.0354 47.741 58.2228L47.8073 57.9302ZM59.6891 60.6274L47.8074 57.9303L47.7409 58.2228L59.6227 60.92L59.6891 60.6274ZM61.0704 59.244C60.2237 59.2488 59.5325 59.9227 59.506 60.769L59.8059 60.7784C59.8273 60.0933 60.3867 59.5479 61.0721 59.544L61.0704 59.244ZM68.2014 59.244H61.0713V59.544H68.2014V59.244ZM72.2118 56.3955C70.3442 56.4031 68.6825 57.5831 68.06 59.344L68.3428 59.444C68.9232 57.8025 70.4721 56.7025 72.2131 56.6955L72.2118 56.3955ZM59.2717 80.0916L46.8772 82.94L46.9444 83.2324L59.3389 80.3839L59.2717 80.0916ZM59.2443 63.6338L59.1553 80.2369L59.4553 80.2386L59.5443 63.6355L59.2443 63.6338ZM47.1162 61.0037L59.3611 63.7809L59.4275 63.4884L47.1825 60.7111L47.1162 61.0037ZM46.3149 61.0661C46.5693 60.9643 46.8488 60.9425 47.1159 61.0036L47.1828 60.7112C46.8562 60.6364 46.5145 60.6631 46.2035 60.7875L46.3149 61.0661ZM35.1627 65.4938L46.3145 61.0662L46.2038 60.7874L35.052 65.215L35.1627 65.4938ZM33.9078 67.286C33.9168 66.488 34.4139 65.777 35.1604 65.4947L35.0543 65.2141C34.1923 65.5401 33.6182 66.3611 33.6079 67.2826L33.9078 67.286ZM35.9512 69.2137C34.8176 69.2137 33.9079 68.3388 33.9079 67.2843H33.6079C33.6079 68.5192 34.6671 69.5137 35.9512 69.5137V69.2137ZM46.5761 69.2137H35.9512V69.5137H46.5761V69.2137ZM48.1503 70.7879C48.1503 69.9185 47.4455 69.2137 46.5761 69.2137V69.5137C47.2798 69.5137 47.8503 70.0842 47.8503 70.7879H48.1503ZM46.5761 72.3621C47.4455 72.3621 48.1503 71.6573 48.1503 70.7879H47.8503C47.8503 71.4916 47.2798 72.0621 46.5761 72.0621V72.3621ZM35.9512 72.3621H46.5761V72.0621H35.9512V72.3621ZM31.0098 68.87C31.7416 70.9706 33.7276 72.3739 35.952 72.3621L35.9504 72.0621C33.8542 72.0732 31.9827 70.7508 31.2931 68.7713L31.0098 68.87ZM8.49928 62.3223L31.1092 68.9646L31.1938 68.6768L8.58384 62.0344L8.49928 62.3223ZM7.32164 62.5295C7.65768 62.2758 8.09501 62.1985 8.49764 62.3218L8.58547 62.0349C8.09087 61.8835 7.55365 61.9784 7.14086 62.2901L7.32164 62.5295ZM6.84716 63.4581C6.84633 63.0912 7.02198 62.7464 7.31918 62.5313L7.14332 62.2883C6.76796 62.5599 6.54612 62.9954 6.54716 63.4587L6.84716 63.4581ZM6.84716 66.5472V63.4584H6.54716V66.5472H6.84716ZM7.3854 67.5338C7.04986 67.3179 6.84708 66.9462 6.84716 66.5473L6.54716 66.5472C6.54706 67.0482 6.80171 67.515 7.22309 67.7861L7.3854 67.5338ZM22.999 77.6372L7.38573 67.534L7.22275 67.7858L22.8361 77.8891L22.999 77.6372ZM46.273 82.94L22.9509 77.6169L22.8842 77.9094L46.2062 83.2325L46.273 82.94ZM46.8766 82.9402C46.6783 82.9865 46.472 82.9865 46.2738 82.9402L46.2055 83.2323C46.4487 83.2892 46.7017 83.2892 46.9449 83.2323L46.8766 82.9402ZM62.2425 80.9076H67.9395V80.6076H62.2425V80.9076ZM62.0925 62.2425V80.7576H62.3925V62.2425H62.0925ZM67.9395 62.0925H62.2425V62.3925H67.9395V62.0925ZM68.0895 80.7576V62.2425H67.7895V80.7576H68.0895ZM86.4549 83.4561H72.2125V83.7561H86.4549V83.4561ZM86.3049 59.394V83.6061H86.6049V59.394H86.3049ZM72.2125 59.544H86.4549V59.244H72.2125V59.544ZM70.9382 60.8182C70.9382 60.1145 71.5087 59.544 72.2125 59.544V59.244C71.343 59.244 70.6382 59.9488 70.6382 60.8182H70.9382ZM70.9382 82.1818V60.8182H70.6382V82.1818H70.9382ZM72.2125 83.4561C71.5087 83.4561 70.9382 82.8856 70.9382 82.1818H70.6382C70.6382 83.0513 71.343 83.7561 72.2125 83.7561V83.4561Z" fill="#A4DBE3"/>
<path d="M81.0125 77.9091H76.7398C75.9532 77.9091 75.3156 78.5468 75.3156 79.3334C75.3156 80.1199 75.9532 80.7576 76.7398 80.7576H81.0125C81.7991 80.7576 82.4368 80.1199 82.4368 79.3334C82.4368 78.5468 81.7991 77.9091 81.0125 77.9091Z" fill="#A4DBE3"/>
</svg>
