<svg  viewBox="0 0 8 8" fill="black" xmlns="http://www.w3.org/2000/svg">
<path d="M4.95703 3.25L7.04688 5.35938C7.20312 5.5026 7.20312 5.64583 7.04688 5.78906L6.55859 6.27734C6.41536 6.43359 6.27214 6.43359 6.12891 6.27734L4.01953 4.1875L1.91016 6.27734C1.76693 6.43359 1.6237 6.43359 1.48047 6.27734L0.992188 5.78906C0.835938 5.64583 0.835938 5.5026 0.992188 5.35938L3.08203 3.25L0.992188 1.14062C0.835938 0.997396 0.835938 0.854167 0.992188 0.710938L1.48047 0.222656C1.6237 0.0664062 1.76693 0.0664062 1.91016 0.222656L4.01953 2.3125L6.12891 0.222656C6.27214 0.0664062 6.41536 0.0664062 6.55859 0.222656L7.04688 0.710938C7.20312 0.854167 7.20312 0.997396 7.04688 1.14062L4.95703 3.25Z" />
</svg>
