<svg width="16" fill="#6B93C0" height="16" viewBox="0 0 16 16"  xmlns="http://www.w3.org/2000/svg">
<path d="M16 8C16 12.4183 12.4183 16 8 16C3.58172 16 0 12.4183 0 8C0 3.58172 3.58172 0 8 0C12.4183 0 16 3.58172 16 8Z" />
<path d="M8.95703 8.25L11.0469 10.3594C11.2031 10.5026 11.2031 10.6458 11.0469 10.7891L10.5586 11.2773C10.4154 11.4336 10.2721 11.4336 10.1289 11.2773L8.01953 9.1875L5.91016 11.2773C5.76693 11.4336 5.6237 11.4336 5.48047 11.2773L4.99219 10.7891C4.83594 10.6458 4.83594 10.5026 4.99219 10.3594L7.08203 8.25L4.99219 6.14062C4.83594 5.9974 4.83594 5.85417 4.99219 5.71094L5.48047 5.22266C5.6237 5.06641 5.76693 5.06641 5.91016 5.22266L8.01953 7.3125L10.1289 5.22266C10.2721 5.06641 10.4154 5.06641 10.5586 5.22266L11.0469 5.71094C11.2031 5.85417 11.2031 5.9974 11.0469 6.14062L8.95703 8.25Z" fill="white"/>
</svg>
