<svg width="41" height="40" viewBox="0 0 41 40" fill="none" xmlns="http://www.w3.org/2000/svg">
<path d="M20.4199 15.7812C21.3045 15.7812 22.0214 16.4807 22.0214 17.3438C22.0214 18.2068 21.3045 18.9062 20.4199 18.9062C19.5353 18.9062 18.8183 18.2068 18.8183 17.3438C18.8183 16.4807 19.5353 15.7812 20.4199 15.7812ZM26.0253 17.3438C26.0253 18.2068 26.7423 18.9062 27.6269 18.9062C28.5115 18.9062 29.2285 18.2068 29.2285 17.3438C29.2285 16.4807 28.5115 15.7812 27.6269 15.7812C26.7423 15.7812 26.0253 16.4807 26.0253 17.3438ZM11.6113 17.3438C11.6113 18.2068 12.3283 18.9062 13.2129 18.9062C14.0975 18.9062 14.8144 18.2068 14.8144 17.3438C14.8144 16.4807 14.0975 15.7812 13.2129 15.7812C12.3283 15.7812 11.6113 16.4807 11.6113 17.3438ZM39.5917 31.9971C41.466 33.8257 41.466 36.7993 39.5926 38.627C38.6561 39.5407 37.4255 39.9979 36.1952 39.9979C34.965 39.9979 33.7344 39.5407 32.7979 38.627L24.0062 30.069C23.8194 29.8871 23.6818 29.6634 23.6052 29.4168L21.6902 23.2666C21.5203 22.7213 21.6683 22.1292 22.0762 21.7212C22.4841 21.3135 23.0872 21.1548 23.6502 21.3068L30.1143 23.0536C30.3805 23.1256 30.6229 23.2632 30.8184 23.4537L39.5917 31.9971ZM26.553 28.1335L32.486 33.909L34.7513 31.6989L28.8534 25.9558L25.6015 25.0769L26.553 28.1335ZM37.3276 34.2078L37.0185 33.9066L34.7535 36.1163L35.0616 36.416C35.6873 37.0267 36.7032 37.0267 37.3276 36.4172C37.9523 35.8081 37.9523 34.8169 37.3276 34.2078ZM21.3908 32.3792C21.0949 32.3917 20.7952 32.3981 20.5 32.3981C17.9246 32.3981 15.4454 31.9302 13.1312 31.0077C12.7371 30.8508 12.2948 30.8533 11.9025 31.0147L4.61011 34.0179L7.06719 28.3395C7.30743 27.7844 7.19888 27.1436 6.78786 26.6931C4.44276 24.1229 3.20312 21.0477 3.20312 17.8006C3.20312 9.70856 10.9626 3.125 20.5 3.125C30.0374 3.125 37.7968 9.70856 37.7968 17.8006C37.7968 19.7195 37.3138 21.6461 36.361 23.5263C35.9691 24.2999 36.2941 25.2371 37.0871 25.6195C37.88 26.0019 38.8406 25.6848 39.2326 24.9112C40.4053 22.5964 40.9999 20.2042 40.9999 17.8006C40.9999 7.98523 31.8038 0 20.5 0C9.19646 0 0 7.98523 0 17.8006C0 21.5054 1.2875 25.014 3.73457 28.0063L0.12606 36.3455C-0.127311 36.9312 0.00844576 37.6083 0.469207 38.0579C0.775755 38.3569 1.18522 38.5156 1.60187 38.5156C1.81176 38.5156 2.02353 38.4753 2.22435 38.3926L12.5488 34.1406C15.0669 35.0583 17.7385 35.5231 20.5 35.5231C20.8415 35.5231 21.1884 35.5154 21.531 35.5011C22.4146 35.4633 23.0997 34.7339 23.0609 33.8718C23.0224 33.0096 22.2733 32.3392 21.3908 32.3792Z" fill="#6B93C0"/>
</svg>
