<svg width="22" height="22" viewBox="0 0 22 22" fill="none" xmlns="http://www.w3.org/2000/svg">
<path d="M19.6 0C18.2764 0 17.2 1.0764 17.2 2.4C17.2 2.814 17.3052 3.2036 17.4904 3.544L13.5588 7.4756C13.0168 7.0536 12.3384 6.8 11.6 6.8C10.8616 6.8 10.1832 7.0536 9.6408 7.4752L6.5732 4.4076C6.714 4.1696 6.8 3.896 6.8 3.6C6.8 2.7176 6.0824 2 5.2 2C4.3176 2 3.6 2.7176 3.6 3.6C3.6 4.4824 4.3176 5.2 5.2 5.2C5.496 5.2 5.7696 5.114 6.0076 4.9732L9.0752 8.0408C8.6536 8.5832 8.4 9.2616 8.4 10C8.4 10.7384 8.6536 11.4168 9.0752 11.9588L4.0096 17.0248C3.5832 16.638 3.0196 16.4 2.4 16.4C1.0764 16.4 0 17.4764 0 18.8C0 20.1236 1.0764 21.2 2.4 21.2C3.7236 21.2 4.8 20.1236 4.8 18.8C4.8 18.386 4.6948 17.9964 4.5096 17.656L9.6412 12.5244C10.0836 12.8684 10.6172 13.0988 11.2004 13.172V17.236C10.0672 17.4272 9.2004 18.4128 9.2004 19.6C9.2004 20.9236 10.2768 22 11.6004 22C12.924 22 14.0004 20.9236 14.0004 19.6C14.0004 18.4132 13.1336 17.4276 12.0004 17.236V13.172C12.5836 13.0988 13.1172 12.8684 13.5596 12.5244L16.6272 15.592C16.486 15.8304 16.4 16.104 16.4 16.4C16.4 17.2824 17.1176 18 18 18C18.8824 18 19.6 17.2824 19.6 16.4C19.6 15.5176 18.8824 14.8 18 14.8C17.704 14.8 17.4304 14.886 17.1924 15.0268L14.1248 11.9592C14.5464 11.4168 14.8 10.7384 14.8 10C14.8 9.2616 14.5464 8.5832 14.1248 8.0412L17.9908 4.1752C18.4168 4.562 18.9804 4.8 19.6 4.8C20.9236 4.8 22 3.7236 22 2.4C22 1.0764 20.9236 0 19.6 0Z" fill="white"/>
</svg>
