<svg  viewBox="0 0 20 22" fill="#6B93C0" xmlns="http://www.w3.org/2000/svg">
<g>
<path d="M12.5754 21.5385H3.7123C1.66589 21.5385 0 20.0282 0 18.1731V6.77284C0 4.91767 1.66589 3.40745 3.7123 3.40745H12.5754C14.6218 3.40745 16.2877 4.91767 16.2877 6.77284V18.1731C16.2877 20.0282 14.6218 21.5385 12.5754 21.5385ZM3.7123 5.09014C2.68677 5.09014 1.85615 5.84315 1.85615 6.77284V18.1731C1.85615 19.1028 2.68677 19.8558 3.7123 19.8558H12.5754C13.6009 19.8558 14.4316 19.1028 14.4316 18.1731V6.77284C14.4316 5.84315 13.6009 5.09014 12.5754 5.09014H3.7123ZM20 16.0697V3.36538C20 1.51022 18.3341 0 16.2877 0H5.98608C5.47564 0 5.058 0.378606 5.058 0.841346C5.058 1.30409 5.47564 1.68269 5.98608 1.68269H16.2877C17.3132 1.68269 18.1439 2.4357 18.1439 3.36538V16.0697C18.1439 16.5324 18.5615 16.9111 19.0719 16.9111C19.5824 16.9111 20 16.5324 20 16.0697Z" />
</g>
<defs>
</defs>
</svg>
