<svg width="16" height="16" viewBox="0 0 16 16" fill="#00A3FF" xmlns="http://www.w3.org/2000/svg">
<path d="M1.98864 2.35327L0.00317383 4.33874H1.98864V2.35327Z" />
<path d="M7.64831 0.00317383L5.66284 1.98864H7.64831V0.00317383Z" />
<path d="M8.58576 0V2.92609H5.65967V13.6499H15.9999V0H8.58576ZM14.0691 9.05744H7.59054V8.11994H14.0691V9.05744H14.0691ZM14.0691 7.06575H7.59054V6.12825H14.0691V7.06575H14.0691ZM14.0691 5.07403H7.59054V4.13653H14.0691V5.07403H14.0691Z" />
<path d="M4.72222 14.5875V11.4075H1.93087V10.47H4.72222V9.41585H1.93087V8.47835H4.72222V7.42413H1.93087V6.48663H4.72222V2.3501H2.92609V5.27619H0V16H10.3403V14.5875H4.72222Z" />
</svg>
