<svg  viewBox="0 0 22 20" fill="#AFBCCB"  xmlns="http://www.w3.org/2000/svg">
<path d="M11 7.87866C13.0646 7.87866 14.7383 6.20498 14.7383 4.14038C14.7383 2.07579 13.0646 0.4021 11 0.4021C8.9354 0.4021 7.26172 2.07579 7.26172 4.14038C7.26172 6.20498 8.9354 7.87866 11 7.87866Z" />
<path d="M18.5625 7.8786C19.8677 7.8786 20.9258 6.82052 20.9258 5.51532C20.9258 4.21012 19.8677 3.15204 18.5625 3.15204C17.2573 3.15204 16.1992 4.21012 16.1992 5.51532C16.1992 6.82052 17.2573 7.8786 18.5625 7.8786Z" />
<path d="M3.4375 7.8786C4.7427 7.8786 5.80078 6.82052 5.80078 5.51532C5.80078 4.21012 4.7427 3.15204 3.4375 3.15204C2.1323 3.15204 1.07422 4.21012 1.07422 5.51532C1.07422 6.82052 2.1323 7.8786 3.4375 7.8786Z" />
<path d="M5.76598 10.0009C4.8357 9.23874 3.99321 9.33963 2.91758 9.33963C1.30883 9.33963 0 10.6407 0 12.2396V16.9322C0 17.6266 0.566758 18.1912 1.26371 18.1912C4.27264 18.1912 3.91016 18.2456 3.91016 18.0614C3.91016 14.7362 3.5163 12.2977 5.76598 10.0009Z" />
<path d="M12.0231 9.35673C10.1443 9.20003 8.5113 9.35854 7.10274 10.5212C4.7456 12.4092 5.19922 14.9514 5.19922 18.0613C5.19922 18.8841 5.86868 19.5661 6.70399 19.5661C15.7739 19.5661 16.1349 19.8587 16.6727 18.6676C16.8491 18.2648 16.8008 18.3928 16.8008 14.5396C16.8008 11.4791 14.1508 9.35673 12.0231 9.35673Z" />
<path d="M19.0824 9.33958C18.0009 9.33958 17.163 9.23972 16.234 10.0009C18.4669 12.2806 18.0898 14.5528 18.0898 18.0614C18.0898 18.2467 17.7889 18.1911 20.6912 18.1911C21.413 18.1911 22 17.6063 22 16.8875V12.2395C22 10.6407 20.6912 9.33958 19.0824 9.33958Z" />
</svg>
