<svg  viewBox="0 0 24 24" fill="none" xmlns="http://www.w3.org/2000/svg">
<circle cx="12" cy="12" r="12" fill="#FA3B33"/>
<path d="M13.4355 12.375L16.5703 15.5391C16.8047 15.7539 16.8047 15.9688 16.5703 16.1836L15.8379 16.916C15.623 17.1504 15.4082 17.1504 15.1934 16.916L12.0293 13.7812L8.86523 16.916C8.65039 17.1504 8.43555 17.1504 8.2207 16.916L7.48828 16.1836C7.25391 15.9688 7.25391 15.7539 7.48828 15.5391L10.623 12.375L7.48828 9.21094C7.25391 8.99609 7.25391 8.78125 7.48828 8.56641L8.2207 7.83398C8.43555 7.59961 8.65039 7.59961 8.86523 7.83398L12.0293 10.9688L15.1934 7.83398C15.4082 7.59961 15.623 7.59961 15.8379 7.83398L16.5703 8.56641C16.8047 8.78125 16.8047 8.99609 16.5703 9.21094L13.4355 12.375Z" fill="white"/>
</svg>
