<svg width="150" height="150" viewBox="0 0 150 150" fill="none" xmlns="http://www.w3.org/2000/svg">
<path d="M111.507 138.82C110.447 139.42 109.397 140 108.307 140.55C103.327 143.08 98.0772 145.04 92.7173 146.39C91.6774 146.64 90.6174 146.88 89.5874 147.1C57.3181 153.65 24.3588 137.71 9.41916 108.351C-4.64053 80.7015 0.189363 47.1222 21.4089 24.5627C21.8489 24.9027 22.3489 25.1627 22.8889 25.3327C23.4089 25.5027 23.9288 25.5827 24.4388 25.5827C26.5588 25.5827 28.5287 24.2327 29.2187 22.1128C30.0787 19.4729 28.6287 16.6329 25.9988 15.7729C23.3589 14.913 20.5189 16.3629 19.6589 18.9929C19.2389 20.2728 19.3489 21.6328 19.9589 22.8328C20.0789 23.0828 20.2289 23.3128 20.3889 23.5328C-1.27061 46.5323 -6.2005 80.8015 8.13919 109.001C21.0789 134.45 47.2983 150 75.0777 150C79.9776 150 84.9475 149.51 89.8774 148.51C90.9374 148.29 92.0074 148.05 93.0673 147.79C98.5372 146.41 103.877 144.41 108.957 141.83C110.057 141.27 111.137 140.68 112.207 140.07C112.557 139.87 112.677 139.43 112.477 139.09C112.297 138.74 111.857 138.62 111.507 138.82ZM21.0389 19.4529C21.6489 17.5729 23.6889 16.5429 25.5588 17.1529C27.4388 17.7629 28.4687 19.7928 27.8588 21.6728C27.2488 23.5528 25.2188 24.5827 23.3389 23.9728C22.4289 23.6728 21.6889 23.0428 21.2589 22.1928C20.8189 21.3328 20.7389 20.3628 21.0389 19.4529ZM141.806 40.9924C126.557 11.053 92.9573 -5.19661 60.0881 1.49325C59.1181 1.67324 58.0881 1.90324 56.8581 2.21323C51.3582 3.5932 46.0184 5.59316 40.9785 8.1631C39.8785 8.72309 38.7685 9.32307 37.7185 9.93306C37.3686 10.1331 37.2586 10.573 37.4486 10.913C37.6485 11.263 38.0885 11.373 38.4285 11.183C39.4585 10.593 40.5385 10.0031 41.6185 9.45307C46.5584 6.94313 51.7982 4.97317 57.1981 3.6232C58.3981 3.32321 59.3981 3.10321 60.3481 2.92321C92.5974 -3.64664 125.557 12.293 140.506 41.6624C154.406 68.9818 149.796 102.331 129.067 124.851C128.647 124.541 128.177 124.291 127.657 124.131C125.017 123.271 122.177 124.721 121.317 127.351C120.457 129.99 121.907 132.83 124.547 133.69C125.057 133.86 125.587 133.94 126.097 133.94C128.217 133.94 130.187 132.59 130.877 130.47C131.406 128.84 131.057 127.141 130.097 125.871C151.266 102.891 155.986 68.8618 141.806 40.9924ZM129.517 130C128.907 131.88 126.877 132.91 124.997 132.3C123.117 131.69 122.087 129.66 122.697 127.781C123.307 125.901 125.327 124.871 127.217 125.481C129.097 126.091 130.127 128.12 129.517 130ZM138.766 62.0819C138.586 61.1419 138.376 60.212 138.146 59.282C136.946 54.5121 135.206 49.8722 132.986 45.5023C132.806 45.1423 132.366 45.0123 132.016 45.1823C131.666 45.3623 131.516 45.7923 131.697 46.1523C133.866 50.4322 135.566 54.9621 136.746 59.632C136.976 60.542 137.176 61.4419 137.356 62.3619C143.036 90.2613 129.257 118.781 103.837 131.72C80.5476 143.57 51.9482 139.81 32.4987 122.401C32.7986 121.981 33.0386 121.521 33.2086 121.001C34.0686 118.351 32.6187 115.501 29.9687 114.641C27.3288 113.781 24.4688 115.231 23.6089 117.881C22.7489 120.531 24.1988 123.381 26.8488 124.241C27.3688 124.411 27.8888 124.491 28.4087 124.491C29.5387 124.491 30.6187 124.111 31.4887 123.441C43.6384 134.34 59.2981 140.02 75.0777 140.02C85.1175 140.02 95.2073 137.72 104.477 133.01C130.477 119.771 144.576 90.6013 138.766 62.0819ZM27.2988 122.871C25.4088 122.251 24.3688 120.211 24.9888 118.331C25.4788 116.811 26.8988 115.841 28.4187 115.841C28.7887 115.841 29.1587 115.901 29.5287 116.021C31.4187 116.641 32.4587 118.681 31.8387 120.561C31.2187 122.451 29.1787 123.481 27.2988 122.871ZM122.097 36.2025C122.877 36.2025 123.657 36.0225 124.377 35.6525C125.577 35.0425 126.467 34.0025 126.887 32.7126C127.307 31.4326 127.197 30.0626 126.587 28.8626C125.977 27.6627 124.937 26.7727 123.647 26.3527C122.027 25.8227 120.337 26.1627 119.067 27.1127C99.1472 8.78309 69.6278 4.70317 45.4684 16.9929C19.4789 30.2126 5.37925 59.382 11.1691 87.9414C11.3591 88.8613 11.5691 89.7913 11.7991 90.7113C12.9891 95.4512 14.729 100.091 16.969 104.501C17.099 104.751 17.349 104.901 17.609 104.901C17.719 104.901 17.829 104.871 17.939 104.821C18.299 104.641 18.439 104.211 18.259 103.851C16.069 99.5311 14.3691 94.9912 13.1991 90.3613C12.9791 89.4613 12.7691 88.5413 12.5891 87.6514C6.91921 59.732 20.7089 31.2026 46.1184 18.2829C69.7178 6.27314 98.5672 10.2431 118.057 28.1227C117.737 28.5527 117.477 29.0426 117.297 29.5826C116.877 30.8626 116.987 32.2326 117.597 33.4325C118.207 34.6325 119.247 35.5225 120.537 35.9425C121.047 36.1125 121.577 36.2025 122.097 36.2025ZM118.667 30.0326C119.167 28.5127 120.577 27.5427 122.097 27.5427C122.467 27.5427 122.837 27.6027 123.207 27.7227C124.117 28.0227 124.867 28.6527 125.307 29.5126C125.747 30.3726 125.817 31.3426 125.517 32.2626C125.217 33.1826 124.577 33.9225 123.727 34.3625C122.867 34.8025 121.887 34.8725 120.977 34.5725C119.087 33.9625 118.047 31.9226 118.667 30.0326ZM95.6573 31.5826H52.8282C45.3384 31.5826 39.2485 37.6725 39.2485 45.1623V102.121C39.2485 109.601 45.3384 115.691 52.8282 115.691H63.658C65.9379 118.081 69.1479 119.571 72.7078 119.571H104.357C112.757 119.571 119.587 112.741 119.587 104.341C119.587 97.6412 115.247 91.9413 109.227 89.9113V45.1523C109.227 37.6725 103.147 31.5826 95.6573 31.5826ZM52.8282 114.241C46.1384 114.241 40.6985 108.801 40.6985 102.111V45.1523C40.6985 38.4624 46.1384 33.0226 52.8282 33.0226H95.6673C102.357 33.0226 107.797 38.4624 107.797 45.1523V89.4813C106.697 89.2313 105.547 89.0913 104.367 89.0913C104.267 89.0913 104.167 89.0913 104.067 89.0913C101.167 84.1214 95.8373 81.0515 90.0674 81.0515C82.1076 81.0515 75.3577 86.8214 74.0678 94.5812C66.6279 93.7612 60.208 99.6811 60.208 107.031C60.208 109.711 61.058 112.191 62.488 114.231H52.8282V114.241ZM118.147 104.331C118.147 111.931 111.957 118.121 104.357 118.121H72.7078C66.5979 118.121 61.628 113.151 61.628 107.041C61.628 100.931 66.5979 95.9612 72.7078 95.9612C73.3078 95.9612 73.9278 96.0112 74.5377 96.1212C74.7277 96.1512 74.9277 96.1012 75.0877 95.9912C75.2477 95.8712 75.3477 95.6912 75.3677 95.5012C76.2577 88.1014 82.5676 82.5115 90.0374 82.5115C95.4373 82.5115 100.397 85.4514 102.997 90.1913C103.127 90.4313 103.387 90.6113 103.667 90.5613C103.897 90.5513 104.117 90.5413 104.347 90.5413C111.957 90.5413 118.147 96.7212 118.147 104.331ZM99.8672 98.2311C100.147 98.5111 100.147 98.9711 99.8672 99.2511L89.1274 109.991C88.9874 110.131 88.7974 110.201 88.6174 110.201C88.4374 110.201 88.2474 110.131 88.1074 109.991L80.9676 102.851C80.6876 102.571 80.6876 102.111 80.9676 101.831C81.2476 101.551 81.7076 101.551 81.9876 101.831L88.6174 108.461L98.8472 98.2311C99.1272 97.9511 99.5772 97.9511 99.8672 98.2311Z" fill="url(#paint0_linear_31815_470700)"/>
<rect x="49.498" y="50.2522" width="26.2494" height="2.99993" rx="1.49997" fill="url(#paint1_linear_31815_470700)"/>
<rect x="49.498" y="66.752" width="26.2494" height="2.99993" rx="1.49997" fill="url(#paint2_linear_31815_470700)"/>
<rect x="65.998" y="58.502" width="16.4996" height="2.99993" rx="1.49997" fill="url(#paint3_linear_31815_470700)"/>
<rect x="65.998" y="75.0017" width="16.4996" height="2.99993" rx="1.49997" fill="url(#paint4_linear_31815_470700)"/>
<rect x="49.498" y="58.502" width="14.9997" height="2.99993" rx="1.49997" fill="url(#paint5_linear_31815_470700)"/>
<rect x="49.498" y="75.0017" width="14.9997" height="2.99993" rx="1.49997" fill="url(#paint6_linear_31815_470700)"/>
<rect x="77.248" y="50.2522" width="22.4995" height="2.99993" rx="1.49997" fill="url(#paint7_linear_31815_470700)"/>
<rect x="77.248" y="66.752" width="22.4995" height="2.99993" rx="1.49997" fill="url(#paint8_linear_31815_470700)"/>
<rect x="83.9971" y="58.502" width="15.7497" height="2.99993" rx="1.49997" fill="url(#paint9_linear_31815_470700)"/>
<rect x="83.9971" y="75.0017" width="15.7497" height="2.99993" rx="1.49997" fill="url(#paint10_linear_31815_470700)"/>
<defs>
<linearGradient id="paint0_linear_31815_470700" x1="0" y1="75" x2="149.919" y2="75" gradientUnits="userSpaceOnUse">
<stop stop-color="#4776E6"/>
<stop offset="1" stop-color="#8E54E9"/>
</linearGradient>
<linearGradient id="paint1_linear_31815_470700" x1="49.498" y1="51.7522" x2="75.7475" y2="51.7522" gradientUnits="userSpaceOnUse">
<stop stop-color="#4776E6"/>
<stop offset="1" stop-color="#8E54E9"/>
</linearGradient>
<linearGradient id="paint2_linear_31815_470700" x1="49.498" y1="68.2519" x2="75.7475" y2="68.2519" gradientUnits="userSpaceOnUse">
<stop stop-color="#4776E6"/>
<stop offset="1" stop-color="#8E54E9"/>
</linearGradient>
<linearGradient id="paint3_linear_31815_470700" x1="65.998" y1="60.0019" x2="82.4977" y2="60.0019" gradientUnits="userSpaceOnUse">
<stop stop-color="#4776E6"/>
<stop offset="1" stop-color="#8E54E9"/>
</linearGradient>
<linearGradient id="paint4_linear_31815_470700" x1="65.998" y1="76.5017" x2="82.4977" y2="76.5017" gradientUnits="userSpaceOnUse">
<stop stop-color="#4776E6"/>
<stop offset="1" stop-color="#8E54E9"/>
</linearGradient>
<linearGradient id="paint5_linear_31815_470700" x1="49.498" y1="60.0019" x2="64.4977" y2="60.0019" gradientUnits="userSpaceOnUse">
<stop stop-color="#4776E6"/>
<stop offset="1" stop-color="#8E54E9"/>
</linearGradient>
<linearGradient id="paint6_linear_31815_470700" x1="49.498" y1="76.5017" x2="64.4977" y2="76.5017" gradientUnits="userSpaceOnUse">
<stop stop-color="#4776E6"/>
<stop offset="1" stop-color="#8E54E9"/>
</linearGradient>
<linearGradient id="paint7_linear_31815_470700" x1="77.248" y1="51.7522" x2="99.7476" y2="51.7522" gradientUnits="userSpaceOnUse">
<stop stop-color="#4776E6"/>
<stop offset="1" stop-color="#8E54E9"/>
</linearGradient>
<linearGradient id="paint8_linear_31815_470700" x1="77.248" y1="68.2519" x2="99.7476" y2="68.2519" gradientUnits="userSpaceOnUse">
<stop stop-color="#4776E6"/>
<stop offset="1" stop-color="#8E54E9"/>
</linearGradient>
<linearGradient id="paint9_linear_31815_470700" x1="83.9971" y1="60.0019" x2="99.7467" y2="60.0019" gradientUnits="userSpaceOnUse">
<stop stop-color="#4776E6"/>
<stop offset="1" stop-color="#8E54E9"/>
</linearGradient>
<linearGradient id="paint10_linear_31815_470700" x1="83.9971" y1="76.5017" x2="99.7467" y2="76.5017" gradientUnits="userSpaceOnUse">
<stop stop-color="#4776E6"/>
<stop offset="1" stop-color="#8E54E9"/>
</linearGradient>
</defs>
</svg>
