<svg viewBox="0 0 80 80" fill="none" xmlns="http://www.w3.org/2000/svg">
<path d="M78.6667 77.3333H73.3334V40C73.3311 37.7919 71.5416 36.0023 69.3334 36V28C69.3311 25.7919 67.5416 24.0023 65.3334 24V16C65.3311 13.7919 63.5416 12.0023 61.3334 12V4C61.3311 1.79188 59.5416 0.00234375 57.3334 0H22.6667C20.4586 0.00234375 18.6691 1.79188 18.6667 4V12C16.4586 12.0023 14.6691 13.7919 14.6667 16V24C12.4586 24.0023 10.6691 25.7919 10.6667 28V36C8.45859 36.0023 6.66906 37.7919 6.66672 40V77.3333H1.33328C0.596875 77.3333 0 77.9302 0 78.6666C0 79.403 0.596875 80 1.33328 80H78.6666C79.403 80 79.9998 79.4031 79.9998 78.6667C79.9998 77.9303 79.4031 77.3333 78.6667 77.3333ZM21.3333 4C21.3338 3.26391 21.9305 2.66719 22.6666 2.66672H57.3333C58.0695 2.66719 58.6661 3.26391 58.6666 4V12H38.5319C37.8983 8.89609 35.168 6.66672 32 6.66672C28.832 6.66672 26.1017 8.89609 25.4681 12H21.3334V4H21.3333ZM35.7544 12H28.2458C28.8028 10.4031 30.3089 9.33328 32.0002 9.33328C33.6914 9.33328 35.1973 10.4031 35.7544 12ZM17.3333 16C17.3337 15.2638 17.9305 14.6672 18.6666 14.6667H61.3333C62.0695 14.6672 62.6661 15.2639 62.6666 16V24H34.5319C33.8983 20.8961 31.168 18.6667 28 18.6667C24.832 18.6667 22.1017 20.8961 21.4681 24H17.3334V16H17.3333ZM31.7544 24H24.2458C24.8028 22.4031 26.3089 21.3333 28.0002 21.3333C29.6914 21.3333 31.1973 22.4031 31.7544 24ZM13.3333 28C13.3337 27.2638 13.9305 26.6672 14.6666 26.6667H65.3333C66.0694 26.6672 66.6661 27.2639 66.6666 28V36H30.5319C29.8983 32.8961 27.168 30.6667 24 30.6667C20.832 30.6667 18.1017 32.8961 17.4681 36H13.3333V28ZM27.7544 36H20.2458C20.8028 34.4031 22.3089 33.3333 24.0002 33.3333C25.6914 33.3333 27.1973 34.4031 27.7544 36ZM70.6667 77.3333H9.33328V40C9.33375 39.2639 9.93047 38.6672 10.6666 38.6667H69.3333C70.0695 38.6672 70.6661 39.2639 70.6666 40V77.3333H70.6667Z" fill="#1A53F0"/>
<path d="M22.666 60C27.0843 60 30.666 56.4183 30.666 52C30.666 47.5817 27.0843 44 22.666 44C18.2477 44 14.666 47.5817 14.666 52C14.6709 56.4162 18.2496 59.9952 22.666 60ZM22.666 46.6667C25.6115 46.6667 27.9993 49.0545 27.9993 52C27.9993 54.9455 25.6115 57.3333 22.666 57.3333C19.7206 57.3333 17.3327 54.9455 17.3327 52C17.3355 49.0556 19.7216 46.6695 22.666 46.6667Z" fill="#1A53F0"/>
<path d="M63.9993 44H35.9993C35.2629 44 34.666 44.5969 34.666 45.3333C34.666 46.0697 35.2629 46.6666 35.9993 46.6666H63.9993C64.7357 46.6666 65.3326 46.0697 65.3326 45.3333C65.3326 44.5969 64.7357 44 63.9993 44Z" fill="#1A53F0"/>
<path d="M63.9993 50.666H35.9993C35.2629 50.666 34.666 51.263 34.666 51.9993C34.666 52.7357 35.2629 53.3326 35.9993 53.3326H63.9993C64.7357 53.3326 65.3326 52.7355 65.3326 51.9993C65.3326 51.2629 64.7357 50.666 63.9993 50.666Z" fill="#1A53F0"/>
<path d="M63.9993 57.332H35.9993C35.2629 57.332 34.666 57.9289 34.666 58.6653C34.666 59.4017 35.2629 59.9988 35.9993 59.9988H63.9993C64.7357 59.9988 65.3326 59.4019 65.3326 58.6655C65.3326 57.9291 64.7357 57.332 63.9993 57.332Z" fill="#1A53F0"/>
<path d="M63.9993 64H15.9993C15.2629 64 14.666 64.5969 14.666 65.3333C14.666 66.0697 15.2629 66.6666 15.9993 66.6666H63.9993C64.7357 66.6666 65.3326 66.0697 65.3326 65.3333C65.3326 64.5969 64.7357 64 63.9993 64Z" fill="#1A53F0"/>
<path d="M63.9993 70.666H15.9993C15.2629 70.666 14.666 71.263 14.666 71.9993C14.666 72.7355 15.2629 73.3326 15.9993 73.3326H63.9993C64.7357 73.3326 65.3326 72.7357 65.3326 71.9993C65.3326 71.2629 64.7357 70.666 63.9993 70.666Z" fill="#1A53F0"/>
</svg>
