<svg  viewBox="0 0 80 80" fill="none" xmlns="http://www.w3.org/2000/svg">
<path d="M63.75 11.3125V2.5C63.75 2.16848 63.6183 1.85054 63.3839 1.61612C63.1495 1.3817 62.8315 1.25 62.5 1.25H17.5C17.1685 1.25 16.8505 1.3817 16.6161 1.61612C16.3817 1.85054 16.25 2.16848 16.25 2.5V5.0625C15.5446 5.20753 14.9108 5.59133 14.4554 6.14919C14 6.70705 13.7509 7.40486 13.75 8.125V39.375C13.7508 40.2035 14.0803 40.9979 14.6662 41.5838C15.2521 42.1697 16.0465 42.4992 16.875 42.5H35V53.75H32.5C32.273 53.7499 32.0504 53.8117 31.8558 53.9286C31.6613 54.0455 31.5023 54.2131 31.3958 54.4136C31.2893 54.614 31.2394 54.8396 31.2514 55.0662C31.2635 55.2929 31.337 55.512 31.4641 55.7L38.9641 66.7937C39.0785 66.9632 39.2328 67.1021 39.4134 67.1981C39.5941 67.294 39.7955 67.3442 40 67.3442C40.2045 67.3442 40.4059 67.294 40.5866 67.1981C40.7672 67.1021 40.9215 66.9632 41.0359 66.7937L48.5359 55.7C48.663 55.512 48.7365 55.2929 48.7486 55.0662C48.7606 54.8396 48.7107 54.614 48.6042 54.4136C48.4977 54.2131 48.3387 54.0455 48.1442 53.9286C47.9496 53.8117 47.727 53.7499 47.5 53.75H45V42.5H63.125C63.9535 42.4992 64.7479 42.1697 65.3338 41.5838C65.9197 40.9979 66.2492 40.2035 66.25 39.375V14.375C66.2491 13.6549 66 12.9571 65.5446 12.3992C65.0892 11.8413 64.4554 11.4575 63.75 11.3125ZM18.75 3.75H61.25V11.25H35.7078L32.3219 5.60625C32.2107 5.42127 32.0536 5.26821 31.8658 5.16197C31.6779 5.05573 31.4658 4.99993 31.25 5H18.75V3.75ZM45.1469 56.25L40 63.8625L34.8531 56.25H36.25C36.5815 56.25 36.8995 56.1183 37.1339 55.8839C37.3683 55.6495 37.5 55.3315 37.5 55V33.75H42.5V55C42.5 55.3315 42.6317 55.6495 42.8661 55.8839C43.1005 56.1183 43.4185 56.25 43.75 56.25H45.1469ZM63.75 39.375C63.75 39.5408 63.6842 39.6997 63.5669 39.8169C63.4497 39.9341 63.2908 40 63.125 40H45V32.5C45 32.1685 44.8683 31.8505 44.6339 31.6161C44.3995 31.3817 44.0815 31.25 43.75 31.25H36.25C35.9185 31.25 35.6005 31.3817 35.3661 31.6161C35.1317 31.8505 35 32.1685 35 32.5V40H16.875C16.7092 40 16.5503 39.9341 16.4331 39.8169C16.3158 39.6997 16.25 39.5408 16.25 39.375V8.125C16.25 7.95924 16.3158 7.80027 16.4331 7.68306C16.5503 7.56585 16.7092 7.5 16.875 7.5H30.5422L33.9281 13.1437C34.0393 13.3287 34.1964 13.4818 34.3842 13.588C34.5721 13.6943 34.7842 13.7501 35 13.75H63.125C63.2908 13.75 63.4497 13.8158 63.5669 13.9331C63.6842 14.0503 63.75 14.2092 63.75 14.375V39.375Z" fill="#1A53F0"/>
<path d="M53.75 38.75H61.25C61.5815 38.75 61.8995 38.6183 62.1339 38.3839C62.3683 38.1495 62.5 37.8315 62.5 37.5V33.75C62.5 33.4185 62.3683 33.1005 62.1339 32.8661C61.8995 32.6317 61.5815 32.5 61.25 32.5H53.75C53.4185 32.5 53.1005 32.6317 52.8661 32.8661C52.6317 33.1005 52.5 33.4185 52.5 33.75V37.5C52.5 37.8315 52.6317 38.1495 52.8661 38.3839C53.1005 38.6183 53.4185 38.75 53.75 38.75ZM55 35H60V36.25H55V35Z" fill="#1A53F0"/>
<path d="M77.5 68.75H2.5C2.16848 68.75 1.85054 68.8817 1.61612 69.1161C1.3817 69.3505 1.25 69.6685 1.25 70V77.5C1.25 77.8315 1.3817 78.1495 1.61612 78.3839C1.85054 78.6183 2.16848 78.75 2.5 78.75H77.5C77.8315 78.75 78.1495 78.6183 78.3839 78.3839C78.6183 78.1495 78.75 77.8315 78.75 77.5V70C78.75 69.6685 78.6183 69.3505 78.3839 69.1161C78.1495 68.8817 77.8315 68.75 77.5 68.75ZM61.25 71.25H62.5V76.25H61.25V71.25ZM58.75 76.25H57.5V71.25H58.75V76.25ZM65 71.25H66.25V76.25H65V71.25ZM3.75 71.25H55V76.25H3.75V71.25ZM76.25 76.25H68.75V71.25H76.25V76.25Z" fill="#1A53F0"/>
</svg>
