<svg  viewBox="0 0 36 36" fill="none" xmlns="http://www.w3.org/2000/svg">
<path d="M18 0C8.07481 0 0 8.07481 0 18C0 27.9252 8.07481 36 18 36C27.9252 36 36 27.9252 36 18C36 8.07481 27.9253 0 18 0ZM18 34.054C13.5903 34.054 9.5906 32.2667 6.68624 29.3788C5.52644 28.2256 4.5419 26.8965 3.77531 25.4358C2.60785 23.2114 1.94597 20.6817 1.94597 18C1.94597 9.14777 9.14777 1.94597 18 1.94597C22.1988 1.94597 26.0256 3.56697 28.8893 6.21519C30.3741 7.58808 31.6002 9.2368 32.4842 11.0796C33.4901 13.1763 34.054 15.5235 34.054 18C34.054 26.8522 26.8522 34.054 18 34.054Z" fill="white"/>
<path d="M11.8473 13.9137C12.8933 13.9137 13.7443 14.7161 13.7443 15.8107H15.6903C15.6903 13.6215 13.9664 11.9678 11.8473 11.9678C9.72828 11.9678 8.00439 13.6215 8.00439 15.8107H9.95037C9.95037 14.7161 10.8015 13.9137 11.8473 13.9137Z" fill="white"/>
<path d="M24.1524 13.9137C25.1984 13.9137 26.0494 14.7161 26.0494 15.8107H27.9953C27.9953 13.6215 26.2714 11.9678 24.1524 11.9678C22.0334 11.9678 20.3095 13.6215 20.3095 15.8107H22.2554C22.2554 14.7161 23.1064 13.9137 24.1524 13.9137Z" fill="white"/>
<path d="M17.9656 27.9728C21.7303 27.9728 25.3383 26.0475 27.404 22.8509L25.7695 21.7947C23.8727 24.7301 20.4018 26.3683 16.9284 25.9673C14.2208 25.6551 11.717 24.0952 10.2304 21.7947L8.59598 22.8509C10.3948 25.6347 13.4264 27.5223 16.7053 27.9004C17.1263 27.9491 17.5466 27.9728 17.9656 27.9728Z" fill="white"/>
</svg>
