<svg width="483" height="256" viewBox="0 0 483 256" fill="none" xmlns="http://www.w3.org/2000/svg">
<g clip-path="url(#clip0)">
<path d="M373.423 245.362C369.964 249.783 365.952 253.237 366.782 254.756C366.782 254.756 368.581 256.138 373.7 256.138C382.416 256.138 390.995 255.447 389.611 254.618C387.674 253.375 382.001 252.96 376.606 251.026C375.222 250.612 379.511 247.987 378.404 247.572C375.914 246.605 373.977 245.914 373.423 245.362Z" fill="#002E4F"/>
<path d="M463.215 254.48C463.215 254.48 464.322 256.138 468.749 256.138C476.358 256.138 484.106 255.171 483 254.342C481.339 253.237 468.057 250.474 468.057 250.474L465.152 246.744L460.171 249.507L463.215 254.48Z" fill="#002E4F"/>
<path d="M439.28 143.542C433.884 143.542 429.734 142.437 429.457 142.437C426.69 141.608 425.03 138.707 425.722 135.944C426.552 133.181 429.457 131.523 432.224 132.214C432.363 132.214 444.261 135.253 451.317 129.313C456.021 125.306 457.682 117.846 456.575 106.932L456.16 103.478L466.813 97.3989C469.304 96.0174 472.624 96.8463 474.008 99.3331C475.391 101.82 474.561 105.136 472.071 106.517L467.367 109.142C468.058 121.852 465.015 131.247 458.097 137.187C452.286 142.299 445.091 143.542 439.28 143.542Z" fill="#00A4E2"/>
<path d="M457.682 114.115C457.543 121.852 455.468 127.378 451.594 130.694C443.985 137.187 430.979 133.871 430.702 133.871C427.659 133.042 424.476 134.838 423.646 138.016C422.816 141.055 424.615 144.233 427.659 145.2C428.074 145.338 432.501 147.549 438.45 147.272C461.002 146.443 474.561 127.102 474.838 115.773L457.682 114.115Z" fill="#E1F3F6"/>
<path d="M426.689 87.1752C424.614 86.2081 422.677 85.241 420.74 84.2739C402.062 94.9118 378.265 108.451 377.711 109.004C377.711 109.004 389.61 127.793 390.302 128.621C390.855 129.174 420.187 108.036 441.355 92.8395C436.513 90.9053 431.393 89.3856 426.689 87.1752Z" fill="#0A2778"/>
<path d="M426.965 86.6228C431.808 88.8333 436.927 90.353 441.908 92.2872C453.53 83.8598 462.523 77.3665 462.523 77.3665L442.738 71.8403C442.738 71.8403 433.191 77.2283 421.431 83.9979C423.23 84.965 425.028 85.7939 426.965 86.6228Z" fill="#0A2778"/>
<path d="M392.654 61.8933L404.414 93.6688L427.243 101.958L398.327 49.0449L392.654 61.8933Z" fill="#0A2778"/>
<path d="M428.488 109.833H411.608L426.689 136.082L449.656 145.891L428.488 109.833Z" fill="#006091"/>
<path d="M449.657 145.891L436.098 122.819L378.266 156.667L366.92 137.325L374.115 22.2429L400.126 7.0459L446.89 86.6228L462.663 77.3665L475.806 99.6093L460.034 108.866L473.593 131.937L449.657 145.891ZM397.22 56.5052L395.698 57.3341L391.824 118.813L423.093 100.438L397.22 56.5052Z" fill="#6A4BFF"/>
<path d="M347.827 132.075L367.058 137.325L378.403 156.667L358.065 151.555L347.827 132.075Z" fill="#0A2778"/>
<path d="M347.827 132.075L367.058 137.325L374.114 22.2427L356.543 17.96L347.827 132.075Z" fill="#0A2778"/>
<path d="M356.544 17.96L374.115 22.2427L400.126 7.04576L382.278 1.7959L356.544 17.96Z" fill="#0A2778"/>
<path d="M395.144 177.943C395.144 177.943 397.911 208.337 397.911 218.975C397.911 218.975 375.774 236.244 370.24 245.224C372.592 247.02 377.158 249.369 380.201 249.231C395.005 235.139 411.193 225.053 411.193 225.053C411.193 225.053 418.249 204.745 420.324 187.614L395.144 177.943Z" fill="#002E4F"/>
<path d="M411.055 179.324C416.036 179.324 421.155 178.495 425.444 176.147C424.06 170.068 427.104 152.108 430.978 142.575C430.978 142.575 434.022 135.944 431.947 133.872C424.06 126.273 417.281 126.964 415.206 126.826C408.011 132.904 394.452 151.003 395.006 174.765C398.603 178.634 406.213 179.324 411.055 179.324Z" fill="#E1F3F6"/>
<path d="M459.895 250.336C462.8 249.507 465.567 248.263 467.366 245.777C458.788 231.961 427.381 180.982 425.721 176.976C425.721 176.838 425.582 176.699 425.582 176.699C421.017 179.186 415.482 180.015 410.087 179.877C405.382 179.739 398.741 179.048 394.867 175.594C394.867 175.871 394.867 176.147 394.867 176.285C395.559 189.548 439.695 233.895 457.128 250.888C458.096 250.888 459.065 250.612 459.895 250.336Z" fill="#00396A"/>
<path d="M368.719 165.509C367.474 165.509 366.367 165.371 365.121 164.956C362.769 164.127 359.726 162.193 358.204 157.358C357.374 154.594 359.034 151.555 361.801 150.726C364.568 149.897 367.612 151.555 368.442 154.318C368.58 154.594 368.58 154.871 368.719 155.009C369.272 155.009 371.348 154.871 376.467 151.831C381.032 149.206 386.428 145.2 391.686 141.332C400.541 134.838 408.842 128.621 415.76 126.549C418.527 125.72 421.571 127.24 422.401 130.003C423.231 132.766 421.709 135.805 418.942 136.634C413.684 138.292 405.798 144.233 398.05 149.897C386.705 158.186 376.605 165.509 368.719 165.509Z" fill="#00A4E2"/>
<path d="M378.68 161.641C377.989 158.463 377.297 155.147 375.36 152.522C371.071 154.871 369.272 155.009 368.719 155.009C368.719 154.871 368.58 154.733 368.442 154.318C367.612 151.555 364.706 149.897 361.801 150.726C359.034 151.555 357.374 154.456 358.204 157.358C359.726 162.331 362.769 164.265 365.121 164.956C366.228 165.371 367.474 165.509 368.719 165.509C371.763 165.509 375.221 164.404 378.819 162.608C378.819 162.193 378.68 161.917 378.68 161.641Z" fill="#00A4E2"/>
<path d="M422.263 129.865C421.433 127.102 418.389 125.582 415.622 126.411C408.704 128.621 400.402 134.7 391.548 141.193C386.29 145.062 380.894 149.068 376.329 151.693C376.052 151.831 375.914 151.97 375.775 152.108C377.712 154.733 381.171 167.581 381.309 167.857C386.982 164.956 413.823 144.509 419.634 138.292C421.709 136.22 423.231 132.628 422.263 129.865Z" fill="#E1F3F6"/>
<path d="M361.247 161.226C360.97 161.226 360.555 161.088 360.278 160.95C356.128 158.048 353.914 152.246 353.914 151.97C353.637 151.141 354.052 150.312 354.882 150.035C355.713 149.759 356.543 150.174 356.819 151.003C356.819 151.003 358.756 156.114 362.077 158.463C362.769 159.015 362.907 159.983 362.492 160.673C362.215 161.088 361.662 161.226 361.247 161.226Z" fill="#00A4E2"/>
<path d="M361.246 157.496C360.693 157.496 360.278 157.219 360.001 156.805C358.064 154.042 356.404 147.272 356.265 146.581C356.127 145.753 356.542 144.924 357.372 144.647C358.202 144.509 359.032 144.924 359.309 145.753C359.724 147.687 361.246 152.937 362.63 154.871C363.183 155.561 362.906 156.529 362.214 157.081C361.938 157.357 361.523 157.496 361.246 157.496Z" fill="#00A4E2"/>
<path d="M363.462 156.529C362.908 156.529 362.216 156.114 362.078 155.562C360.694 152.108 360.141 144.786 360.003 144.371C360.003 143.542 360.556 142.713 361.386 142.713C362.216 142.575 363.046 143.266 363.046 144.095C363.185 146.029 363.738 151.694 364.845 154.318C365.122 155.147 364.845 155.976 364.015 156.391C363.738 156.529 363.6 156.529 363.462 156.529Z" fill="#00A4E2"/>
<path d="M365.674 155.838C364.982 155.838 364.29 155.423 364.152 154.733C363.183 150.864 364.013 146.996 364.152 146.858C364.29 146.029 365.259 145.476 366.089 145.753C366.919 145.891 367.472 146.72 367.196 147.687C367.196 147.825 366.504 151.002 367.196 154.042C367.472 154.871 366.919 155.7 366.089 155.976C365.95 155.838 365.812 155.838 365.674 155.838Z" fill="#00A4E2"/>
<path d="M428.35 138.293C427.658 138.293 426.967 138.154 426.275 137.878C423.784 136.773 422.678 133.734 423.923 131.247C425.168 128.622 427.382 125.997 427.658 125.721C429.457 123.648 432.639 123.372 434.714 125.168C436.79 126.964 437.067 130.142 435.268 132.214C434.576 132.905 433.469 134.562 432.916 135.668C431.947 137.326 430.149 138.293 428.35 138.293Z" fill="#00A4E2"/>
<path d="M429.042 135.806C429.595 136.497 430.287 137.049 430.84 137.602C431.67 137.049 432.362 136.358 432.777 135.53C433.331 134.424 434.438 132.905 435.129 132.076C436.928 130.003 436.651 126.826 434.576 125.03C432.501 123.234 429.318 123.51 427.52 125.582C427.381 125.721 426.966 126.135 426.551 126.826C426.551 130.141 426.828 133.457 429.042 135.806Z" fill="#0086CF"/>
<path d="M445.367 130.28C443.43 135.115 437.896 137.326 433.053 135.391C428.211 133.457 425.997 127.931 427.934 123.096L430.424 117.017C432.361 112.181 437.896 109.971 442.738 111.905C447.581 113.839 449.794 119.365 447.857 124.201L445.367 130.28Z" fill="#00A4E2"/>
<path d="M429.041 122.405C428.211 125.582 423.645 124.615 421.846 122.957C419.494 120.609 417.972 114.116 423.368 114.392C419.494 108.589 432.5 102.372 433.883 109.004C434.852 107.346 435.959 105.688 438.172 105.55C439.833 105.412 442.6 106.655 442.461 108.728C444.952 106.793 448.411 106.932 450.763 108.866C451.593 109.418 452.976 110.8 452.285 111.905C451.87 112.458 449.933 112.596 449.241 112.872C450.348 112.32 455.052 113.425 454.083 115.359C453.668 116.326 451.455 115.497 450.763 115.221C450.763 115.221 450.763 115.497 450.763 115.359C453.253 116.74 454.222 118.122 453.945 121.161C453.807 122.543 453.115 125.306 451.455 125.444C450.624 125.582 449.656 125.03 449.656 124.063C451.731 126.135 448.826 131.661 446.197 128.898C445.229 127.793 445.644 125.997 446.612 125.168C445.09 124.339 441.77 119.642 444.122 118.26C443.015 118.26 437.896 116.602 439.418 115.083C439.833 116.74 437.757 119.089 435.959 118.122C437.066 120.471 433.883 122.128 431.946 122.267C433.053 123.786 429.456 125.444 428.349 123.372L429.041 122.405Z" fill="#00396A"/>
<path d="M252.086 103.616C252.086 103.616 249.042 92.0106 264.123 89.2476L262.878 103.201L252.086 103.616Z" fill="#0A2778"/>
<path d="M191.9 132.905C188.58 132.905 185.536 132.214 182.769 130.97C169.21 124.477 167.688 105.274 167.549 104.445C167.411 101.544 169.486 99.0568 172.392 98.7804C175.297 98.6423 177.788 100.715 178.065 103.616C178.341 107.484 180.555 118.26 187.196 121.438C192.73 124.063 201.17 121.438 211.823 113.839C214.175 112.181 217.496 112.734 219.156 115.083C220.816 117.431 220.263 120.747 217.911 122.405C208.226 129.313 199.51 132.905 191.9 132.905Z" fill="#CDE5E8"/>
<path d="M220.124 142.714C221.646 138.845 223.03 134.977 224.552 131.109C223.445 130.97 222.338 130.832 221.37 130.694C216.25 129.727 211.823 127.655 208.364 124.477C204.767 121.3 202 117.293 200.063 112.32C198.126 107.484 197.019 101.82 196.742 95.6029C196.466 89.3859 196.881 82.7545 198.264 75.8468C199.648 68.8009 201.585 62.4458 204.213 56.7815C206.842 51.1172 209.886 46.4199 213.483 42.5516C217.081 38.6833 221.093 35.9202 225.659 34.2623C230.086 32.6045 234.928 32.3282 240.048 33.2953C244.06 34.1242 247.657 35.6439 250.839 37.8543C252.361 34.8149 254.022 31.9137 255.543 29.0125C257.342 25.5586 259.002 21.9666 260.663 18.5127C261.354 16.993 261.908 15.4733 262.6 13.8155C257.342 10.9142 251.531 8.70378 245.028 7.46039C235.897 5.66438 227.181 6.07885 219.156 8.42747C211.131 10.7761 203.798 14.9207 197.296 20.5851C190.793 26.2494 185.259 33.2953 180.831 41.8608C176.266 50.4264 173.083 59.959 171.008 70.4588C168.933 80.9585 168.518 91.0438 169.486 100.715C170.593 110.385 172.945 118.951 176.957 126.549C180.831 134.148 186.227 140.641 192.868 145.891C199.094 150.726 206.289 154.042 214.729 155.976C216.527 151.694 218.326 147.273 220.124 142.714Z" fill="#0A2778"/>
<path d="M291.792 63.2748C290.685 53.604 288.333 45.0384 284.321 37.4399C280.447 29.8414 275.051 23.3482 268.548 18.0983C266.75 16.7168 264.951 15.4734 262.876 14.23C262.322 15.7497 261.63 17.4075 260.939 18.9272C259.278 22.5192 257.618 25.9731 255.819 29.427C254.298 32.3282 252.637 35.3676 251.115 38.407C251.669 38.8215 252.222 39.2359 252.637 39.6504C256.235 42.8279 259.002 46.8344 260.939 51.808C263.014 56.7815 264.121 62.3077 264.397 68.3865C264.674 74.6034 264.259 81.2348 262.876 88.2807C261.492 95.1884 259.555 101.544 256.926 107.208C254.298 112.872 251.254 117.708 247.518 121.438C243.782 125.306 239.77 128.069 235.204 129.727C231.884 130.97 228.425 131.523 224.828 131.247C223.029 135.391 221.646 139.674 219.985 143.957C218.463 148.102 216.665 152.246 214.728 156.253C215.143 156.391 215.558 156.391 215.973 156.529C225.104 158.325 233.821 157.91 241.846 155.562C249.87 153.213 257.203 149.069 263.706 143.404C270.208 137.74 275.743 130.694 280.17 122.129C284.736 113.563 287.918 104.03 289.993 93.5306C292.345 82.8927 292.899 72.9456 291.792 63.2748Z" fill="#0A2778"/>
<path d="M232.577 162.055C223.446 160.259 215.559 156.805 208.918 151.556C202.277 146.306 197.02 139.951 193.146 132.214C189.272 124.616 186.781 115.912 185.674 106.379C184.568 96.7083 185.121 86.7612 187.196 76.1233C189.272 65.6236 192.454 56.0909 197.02 47.5254C201.585 38.9598 206.981 31.9139 213.484 26.2496C219.987 20.5853 227.181 16.5788 235.344 14.092C243.369 11.7434 252.085 11.3289 261.217 13.1249C270.348 14.9209 278.234 18.3748 284.875 23.6247C291.517 28.8745 296.774 35.2296 300.786 42.9663C304.66 50.5648 307.151 59.2685 308.258 68.8011C309.364 78.472 308.811 88.4191 306.736 99.0569C304.66 109.557 301.478 119.089 296.912 127.655C292.347 136.22 286.951 143.266 280.448 148.931C273.945 154.595 266.751 158.601 258.588 161.088C250.287 163.437 241.708 163.713 232.577 162.055ZM237.419 136.22C242.4 137.188 247.104 136.773 251.67 135.115C256.097 133.457 260.248 130.694 263.984 126.826C267.719 122.958 270.763 118.26 273.392 112.596C276.021 106.932 277.958 100.577 279.341 93.6689C280.725 86.6231 281.14 79.9917 280.863 73.7747C280.586 67.5578 279.341 62.0316 277.404 57.1962C275.329 52.2226 272.562 48.2161 269.103 45.0386C265.506 41.861 261.217 39.7887 256.236 38.8217C251.117 37.8546 246.274 38.1309 241.847 39.7887C237.419 41.4466 233.269 44.2097 229.672 48.078C226.074 51.9463 223.03 56.6436 220.402 62.3079C217.773 67.9722 215.836 74.3273 214.452 81.3732C213.069 88.2809 212.654 94.9123 212.93 101.129C213.207 107.346 214.314 112.872 216.251 117.846C218.188 122.681 220.955 126.826 224.552 130.004C228.011 133.181 232.3 135.253 237.419 136.22Z" fill="#6A4BFF"/>
<path d="M325.967 84.4121L326.382 103.892C326.382 103.892 320.848 108.865 315.867 103.892L317.666 82.0635L325.967 84.4121Z" fill="#00396A"/>
<path d="M303 239.421C302.724 239.145 300.51 238.178 300.233 237.901C299.127 239.697 298.296 240.664 296.913 242.046C300.372 245.085 299.403 248.677 299.403 248.677C299.403 248.677 296.913 250.75 296.083 251.164C293.039 252.684 287.505 254.756 287.505 254.756L301.617 255.861L311.994 245.224C308.258 243.151 305.353 241.355 303 239.421Z" fill="#002E4F"/>
<path d="M247.934 240.25C245.72 239.836 242.815 241.632 241.016 240.25C240.601 244.119 240.739 246.329 240.739 246.329L219.986 254.895H246.55C246.827 252.132 246.274 249.368 246.689 246.744C246.689 245.224 247.657 241.494 247.934 240.25Z" fill="#002E4F"/>
<path d="M272.146 145.891L248.625 190.514C248.625 190.514 258.172 198.527 267.58 201.291L285.151 148.654L272.146 145.891Z" fill="#CDE5E8"/>
<path d="M297.88 243.152C299.263 241.77 300.509 239.974 301.616 238.178C295.528 232.928 292.622 227.54 284.321 218.422C280.862 214.554 289.994 192.725 292.207 188.995C296.22 182.364 296.773 177.667 299.817 166.338L276.85 174.903C271.316 194.521 264.951 214.001 271.454 223.396C278.233 233.205 290.132 241.218 295.943 245.224C296.081 245.362 297.742 243.014 297.88 243.152Z" fill="#002E4F"/>
<path d="M259.14 101.405C258.864 101.405 258.449 101.267 258.172 101.129C257.48 100.576 257.342 99.6091 257.757 98.9183C259.556 96.2934 259.971 94.2211 259.971 94.2211C260.109 93.3922 260.939 92.8395 261.769 92.9777C262.599 93.1159 263.153 93.9448 263.014 94.7737C263.014 94.9119 262.461 97.5368 260.247 100.714C260.109 101.129 259.694 101.405 259.14 101.405Z" fill="#00A4E2"/>
<path d="M298.157 171.173C304.936 152.384 310.885 122.957 312.961 111.214C311.716 110.662 310.609 110.385 309.64 110.109C307.565 109.556 305.213 108.866 303.138 109.556C302.031 109.833 301.201 110.385 300.232 110.938C299.402 113.425 298.987 115.635 298.987 115.635C298.987 115.635 284.321 143.68 274.775 162.746C282.799 164.68 290.824 167.305 298.157 171.173Z" fill="#F6EE9E"/>
<path d="M274.499 163.437C273.669 165.094 272.839 166.752 272.147 168.272C270.21 171.588 268.273 174.627 266.336 177.666C247.381 206.126 240.325 228.783 239.08 239.56C240.879 240.941 247.658 241.77 250.01 242.184C253.469 224.363 262.601 213.034 278.788 199.633C284.184 195.074 288.335 189.41 291.932 184.712C294.007 181.949 296.221 177.39 298.158 171.864C290.548 167.857 282.524 165.233 274.499 163.437Z" fill="#00396A"/>
<path d="M256.097 171.311C253.883 171.311 251.808 169.93 251.116 167.719C250.148 164.956 251.67 161.917 254.437 160.95C260.801 158.739 270.763 149.897 277.404 140.503C290.824 121.437 300.371 110.8 300.786 110.385C302.723 108.175 306.044 108.036 308.257 109.971C310.471 111.905 310.609 115.22 308.672 117.431C308.534 117.569 299.126 128.069 286.12 146.582C279.618 155.838 267.996 167.443 258.034 170.897C257.204 171.173 256.651 171.311 256.097 171.311Z" fill="#00A4E2"/>
<path d="M309.226 113.01C309.088 113.01 308.95 113.01 308.811 113.01C306.044 112.872 303.969 110.385 304.245 107.622C304.522 104.721 305.629 101.543 305.629 101.129C306.459 98.5038 309.365 97.1223 311.993 98.0894C314.622 98.9183 316.006 101.82 315.037 104.444C314.761 105.412 314.207 107.208 314.069 108.451C314.069 111.076 311.855 113.01 309.226 113.01Z" fill="#00A4E2"/>
<path d="M310.747 107.76C311.577 108.727 312.546 109.694 313.653 110.523C314.068 109.833 314.206 109.142 314.344 108.451C314.483 107.208 314.898 105.412 315.313 104.445C316.143 101.82 314.759 99.0566 312.269 98.0895C310.055 97.3987 307.842 98.2277 306.596 99.8855C306.873 102.787 309.087 105.964 310.747 107.76Z" fill="#0086CF"/>
<path d="M323.614 96.9844C323.476 102.234 319.187 106.241 313.929 106.241C308.672 106.103 304.659 101.82 304.659 96.5699L304.798 90.0767C304.936 84.8268 309.225 80.8203 314.482 80.8203C319.74 80.9585 323.752 85.2413 323.752 90.4911L323.614 96.9844Z" fill="#00A4E2"/>
<path d="M248.626 169.792C246.412 169.792 243.922 169.239 241.155 167.996C240.324 167.719 240.048 166.752 240.324 165.923C240.601 165.094 241.57 164.818 242.4 165.094C246.55 166.752 249.733 167.029 251.808 165.785C252.5 165.371 253.468 165.509 253.883 166.338C254.298 167.029 254.16 167.996 253.33 168.41C252.085 169.377 250.424 169.792 248.626 169.792Z" fill="#00A4E2"/>
<path d="M250.562 172.002C248.072 172.002 246.135 171.588 243.783 171.035L243.091 170.897C242.261 170.759 241.708 169.792 241.984 168.963C242.123 168.134 243.091 167.581 243.921 167.858L244.613 167.996C248.349 168.963 250.839 169.515 256.373 168.134C257.203 167.858 258.034 168.41 258.31 169.239C258.587 170.068 258.034 170.897 257.203 171.173C254.436 171.726 252.361 172.002 250.562 172.002Z" fill="#00A4E2"/>
<path d="M248.487 166.752C243.645 166.752 240.186 163.713 240.047 163.574C239.356 163.022 239.356 162.055 239.909 161.364C240.462 160.673 241.431 160.673 242.123 161.226C242.261 161.364 245.858 164.541 250.701 163.298C251.531 163.022 252.361 163.574 252.638 164.403C252.914 165.232 252.361 166.061 251.531 166.337C250.562 166.614 249.456 166.752 248.487 166.752Z" fill="#00A4E2"/>
<path d="M251.809 165.094H251.67C246.413 164.542 244.199 160.673 244.061 160.535C243.646 159.844 243.922 158.877 244.614 158.463C245.306 158.048 246.274 158.325 246.69 159.015C246.828 159.154 248.211 161.64 251.809 162.055C252.639 162.193 253.331 162.884 253.192 163.713C253.192 164.403 252.639 165.094 251.809 165.094Z" fill="#00A4E2"/>
<path d="M270.348 103.616C270.209 103.616 270.209 103.616 270.071 103.616C267.442 103.201 260.386 102.096 258.864 102.096C258.034 102.096 257.342 101.405 257.342 100.576C257.342 99.7474 258.034 99.0566 258.864 99.0566C261.078 99.0566 269.656 100.438 270.624 100.576C271.455 100.715 272.008 101.543 271.87 102.372C271.87 103.063 271.178 103.616 270.348 103.616Z" fill="#00A4E2"/>
<path d="M269.38 106.931C269.241 106.931 269.103 106.931 268.965 106.931C268.826 106.931 261.493 104.859 258.034 104.721C257.204 104.721 256.512 103.892 256.512 103.063C256.512 102.234 257.343 101.543 258.173 101.543C261.908 101.82 269.38 103.754 269.795 103.892C270.625 104.168 271.178 104.997 270.901 105.826C270.763 106.379 270.071 106.931 269.38 106.931Z" fill="#00A4E2"/>
<path d="M268.688 110.247C268.549 110.247 268.411 110.247 268.272 110.109C261.216 107.898 259.556 107.76 258.588 107.622C258.173 107.622 257.757 107.622 257.342 107.484C256.512 107.208 255.959 106.379 256.236 105.55C256.512 104.721 257.342 104.168 258.173 104.444C258.449 104.444 258.588 104.583 258.864 104.583C259.971 104.721 261.908 104.859 269.241 107.208C270.071 107.484 270.486 108.313 270.209 109.142C269.933 109.832 269.379 110.247 268.688 110.247Z" fill="#00A4E2"/>
<path d="M265.505 112.734C258.311 112.181 258.034 108.451 258.034 108.037L261.216 107.898C261.216 107.898 261.216 107.898 261.216 107.76C261.216 107.76 261.493 109.28 265.643 109.556C266.474 109.556 267.165 110.385 267.027 111.214C267.027 112.181 266.335 112.734 265.505 112.734Z" fill="#00A4E2"/>
<path d="M259.694 110.938C259.694 110.938 258.311 110.247 256.236 110.247C254.437 110.247 252.085 107.207 252.085 104.168C252.085 104.168 251.255 95.0498 260.94 99.1945L259.694 110.938Z" fill="#00A4E2"/>
<path d="M290.271 138.154L276.712 205.021C276.712 205.021 297.742 210.133 310.748 202.672L314.068 109.694C313.93 109.833 299.403 104.721 290.271 138.154Z" fill="#CDE5E8"/>
<path d="M293.452 175.041L306.458 174.351C306.458 174.351 306.735 194.245 298.987 193.416C298.987 193.416 288.333 195.765 293.452 175.041Z" fill="#E1F3F6"/>
<path d="M309.78 108.175C308.396 106.931 306.459 106.241 304.522 106.241C302.309 106.241 300.233 107.208 298.711 108.866C298.296 109.28 288.75 119.918 275.191 139.26C274.361 140.503 273.254 141.746 272.285 143.128L270.902 144.786L272.424 146.305C274.084 147.963 275.744 149.621 277.405 151.279C278.235 152.108 279.203 153.075 280.033 153.904L281.97 155.838L283.769 153.766C285.291 151.97 286.813 150.036 288.058 148.24C301.063 129.865 310.333 119.365 310.472 119.365C313.239 116.05 312.962 111.076 309.78 108.175Z" fill="#E1F3F6"/>
<path d="M287.666 150.908L273.977 138.628L268.707 144.486L282.396 156.766L287.666 150.908Z" fill="#F8FDFF"/>
<path d="M295.252 100.714L307.289 105.411C307.289 105.411 312.408 80.6817 308.672 76.9516C308.672 76.9516 295.252 75.7082 295.252 100.714Z" fill="#00396A"/>
<path d="M309.363 81.2346C309.778 81.9253 319.048 88.0041 326.381 86.3463C326.381 86.3463 325.136 75.4321 308.118 76.9518L309.363 81.2346Z" fill="#00396A"/>
<path d="M311.3 98.2278C314.204 98.2278 316.558 95.8773 316.558 92.9779C316.558 90.0785 314.204 87.728 311.3 87.728C308.396 87.728 306.042 90.0785 306.042 92.9779C306.042 95.8773 308.396 98.2278 311.3 98.2278Z" stroke="#DDDD67" stroke-width="0.8679" stroke-miterlimit="10"/>
<path d="M323.752 98.5039C326.274 98.5039 328.318 96.4628 328.318 93.9448C328.318 91.4269 326.274 89.3857 323.752 89.3857C321.231 89.3857 319.187 91.4269 319.187 93.9448C319.187 96.4628 321.231 98.5039 323.752 98.5039Z" stroke="#DDDD67" stroke-width="0.755" stroke-miterlimit="10"/>
<path d="M316.559 92.9779C316.559 92.9779 318.22 92.2871 319.326 93.3923" stroke="#DDDD67" stroke-width="0.8679" stroke-miterlimit="10"/>
<path d="M165.06 102.096C164.921 102.096 164.783 102.096 164.645 102.096C161.878 101.958 159.802 99.4715 160.079 96.7084C160.356 93.8072 161.463 90.6296 161.463 90.2152C162.293 87.5902 165.198 86.2087 167.827 87.1758C170.456 88.0047 171.839 90.9059 170.871 93.5309C170.594 94.498 170.041 96.294 169.902 97.5374C169.764 100.024 167.55 102.096 165.06 102.096Z" fill="#0086CF"/>
<path d="M162.016 240.113C170.318 243.981 177.097 243.843 177.651 243.981C183.046 234.448 199.234 208.475 184.43 187.338L163.538 176.147C163.677 176.009 184.43 197.837 162.016 240.113Z" fill="#002E4F"/>
<path d="M172.807 248.678C172.807 248.678 174.744 244.81 176.266 242.185C175.159 242.047 170.04 241.909 167.965 241.08C166.028 245.086 161.739 250.889 158.833 254.895H186.919L172.807 248.678Z" fill="#002E4F"/>
<path d="M207.534 188.443C204.075 181.673 178.756 161.365 176.404 149.621C176.265 148.654 175.989 147.549 175.85 146.444C171.838 148.654 166.442 149.207 162.292 149.345C157.587 149.621 154.682 149.898 150.116 147.687C150.531 155.009 149.286 161.917 153.575 169.239C162.015 183.884 189.963 196.318 193.007 201.153C199.094 210.686 201.308 231.271 203.383 243.843C206.704 243.843 214.452 243.705 217.634 242.599C216.665 236.244 218.464 209.719 207.534 188.443Z" fill="#00396A"/>
<path d="M216.251 247.435C216.251 247.435 215.283 243.705 215.006 242.047C211.824 243.152 209.887 242.047 206.566 242.047C207.12 245.224 206.705 251.027 206.981 254.481H233.546L216.251 247.435Z" fill="#002E4F"/>
<path d="M162.569 153.352C166.581 153.214 175.159 152.108 178.48 148.654C177.788 143.128 175.298 134.148 176.128 126.964C179.033 102.649 167.135 95.3269 167.135 95.3269C167.135 95.3269 161.6 91.4586 157.173 96.0177C150.532 102.925 143.891 122.405 144.583 151.141C149.425 153.628 157.727 153.49 162.569 153.352Z" fill="#CDE5E8"/>
<path d="M223.584 160.95C223.169 160.95 222.754 160.95 222.339 160.812C203.107 156.391 186.92 144.924 175.298 127.655C166.581 114.668 163.676 103.063 163.537 102.649C162.846 99.8858 164.506 96.9846 167.411 96.2938C170.179 95.603 173.084 97.2609 173.776 100.162C173.776 100.438 176.543 110.8 184.291 122.267C194.391 137.326 208.088 146.858 224.691 150.727C227.596 151.417 229.256 154.18 228.703 157.082C228.288 159.292 226.074 160.95 223.584 160.95Z" fill="#00A4E2"/>
<path d="M211.962 145.062C201.447 140.089 192.454 132.076 185.259 121.438C177.649 110.109 174.882 99.7475 174.882 99.6094C174.191 96.8463 171.7 94.9121 168.795 94.9121C168.241 94.9121 167.826 94.9121 167.273 95.0503C165.613 95.4647 164.367 96.4318 163.399 97.9515C162.569 99.3331 162.292 100.991 162.707 102.649V102.787C163.537 106.379 166.858 118.813 174.606 130.556C183.875 144.51 196.604 154.871 211.132 160.674C211.27 160.674 211.408 160.674 211.547 160.674C211.685 160.674 211.962 160.674 212.1 160.535C212.377 160.397 212.515 160.121 212.515 159.706V145.753C212.515 145.615 212.238 145.2 211.962 145.062Z" fill="#E1F3F6"/>
<path d="M227.596 161.364C225.936 161.364 224.137 161.226 222.2 160.812C221.37 160.673 220.817 159.845 220.955 159.016C221.093 158.187 221.924 157.634 222.754 157.772C227.458 158.739 231.193 158.325 234.237 156.805C234.929 156.391 235.897 156.667 236.313 157.496C236.728 158.187 236.451 159.154 235.621 159.568C233.407 160.673 230.64 161.364 227.596 161.364Z" fill="#00A4E2"/>
<path d="M227.734 157.91C227.042 157.91 226.212 157.91 225.52 157.772C224.69 157.634 224.136 156.805 224.136 155.976C224.275 155.147 225.105 154.595 225.935 154.595C230.916 155.285 235.482 152.799 235.62 152.661C236.312 152.246 237.28 152.522 237.695 153.213C238.11 153.904 237.834 154.871 237.142 155.285C237.004 155.562 232.853 157.91 227.734 157.91Z" fill="#00A4E2"/>
<path d="M226.35 154.871C226.073 154.871 225.797 154.871 225.658 154.871C224.828 154.871 224.136 154.042 224.136 153.213C224.136 152.384 224.967 151.694 225.797 151.694C229.532 151.97 231.469 149.621 231.469 149.621C232.023 148.93 232.991 148.792 233.683 149.345C234.375 149.898 234.513 150.865 233.96 151.555C233.821 151.694 231.331 154.871 226.35 154.871Z" fill="#00A4E2"/>
<path d="M221.094 152.246C220.264 152.246 219.572 151.556 219.572 150.727C219.572 149.898 220.264 149.207 221.094 149.207C221.232 149.207 224.276 149.069 226.075 146.582C226.628 145.891 227.597 145.753 228.288 146.168C228.98 146.72 229.119 147.687 228.704 148.378C225.798 152.108 221.232 152.246 221.094 152.246Z" fill="#00A4E2"/>
<path d="M215.974 117.155C215.421 117.155 215.006 116.879 214.729 116.464C212.377 113.287 211.962 110.524 211.962 110.524C211.824 109.695 212.377 108.866 213.207 108.728C214.037 108.59 214.868 109.142 215.006 109.971C215.006 109.971 215.421 112.043 217.22 114.668C217.773 115.359 217.496 116.326 216.805 116.879C216.528 117.017 216.251 117.155 215.974 117.155Z" fill="#00A4E2"/>
<path d="M216.252 117.846C216.113 117.846 216.113 117.846 215.975 117.846C212.516 117.155 205.875 117.155 205.737 117.155C204.906 117.155 204.215 116.464 204.215 115.635C204.215 114.806 204.906 114.116 205.737 114.116C206.013 114.116 212.793 114.116 216.528 114.806C217.358 114.945 217.912 115.774 217.773 116.603C217.635 117.293 216.943 117.846 216.252 117.846Z" fill="#00A4E2"/>
<path d="M204.906 121.023C204.076 121.023 203.522 120.471 203.384 119.642C203.246 118.813 203.937 117.984 204.767 117.846C205.736 117.708 214.452 116.602 217.358 117.155C218.188 117.293 218.741 118.122 218.603 118.951C218.465 119.78 217.635 120.333 216.804 120.194C215.006 119.918 208.78 120.471 205.183 120.885C205.044 121.023 204.906 121.023 204.906 121.023Z" fill="#00A4E2"/>
<path d="M206.842 124.477C206.15 124.477 205.458 123.925 205.32 123.234C205.182 122.405 205.735 121.576 206.565 121.438C210.301 120.747 211.408 120.333 213.206 119.78C214.036 119.504 215.143 119.228 216.665 118.675C217.495 118.399 218.325 118.951 218.602 119.78C218.879 120.609 218.325 121.438 217.495 121.714C215.973 122.129 215.005 122.543 214.036 122.82C212.099 123.372 210.993 123.787 207.119 124.616C207.119 124.477 206.98 124.477 206.842 124.477Z" fill="#00A4E2"/>
<path d="M210.301 126.964C209.609 126.964 208.918 126.412 208.779 125.721C208.641 124.892 209.194 124.063 210.024 123.925C215.005 123.096 216.112 121.162 216.112 121.162C216.389 120.333 217.219 119.918 218.049 120.195C218.879 120.471 219.294 121.3 219.018 122.129C218.879 122.681 217.496 125.859 210.578 126.964C210.44 126.964 210.301 126.964 210.301 126.964Z" fill="#00A4E2"/>
<path d="M216.251 125.168L215.005 112.458C215.005 112.458 220.54 112.872 220.54 118.675C220.678 120.609 220.125 122.82 216.251 125.168Z" fill="#00A4E2"/>
<path d="M181.247 83.8599C182.63 89.1097 179.448 94.6359 174.191 96.0175C168.933 97.399 163.399 94.2215 162.015 88.9716L160.217 82.3402C158.833 77.0903 162.015 71.5641 167.273 70.1826C172.53 68.8011 178.065 71.9786 179.448 77.2285L181.247 83.8599Z" fill="#00A4E2"/>
<path d="M180.278 80.2681C179.586 82.3404 178.479 84.4127 176.819 85.9324C172.807 89.3863 166.719 90.3533 161.738 88.281L161.877 88.9718C163.26 94.2217 168.794 97.3992 174.052 96.0177C179.309 94.6361 182.492 89.11 181.108 83.8601L180.278 80.2681Z" fill="#00396A"/>
<path d="M161.877 88.557C158.141 86.2084 154.129 77.0902 159.94 75.0179C163.537 73.7745 162.154 84.965 162.154 88.1425L161.877 88.557Z" fill="#00396A"/>
<path d="M158.971 75.8469C154.406 72.5312 160.078 63.2749 171.285 63.2749C178.203 63.2749 178.203 68.5248 173.36 71.426C169.348 73.7746 163.26 72.3931 160.217 76.3996L158.971 75.8469Z" fill="#00396A"/>
<path d="M180.278 82.3402C178.756 79.9916 175.574 75.1562 174.329 72.3931C173.498 70.5971 172.53 67.6959 175.989 69.7682C178.894 71.5642 180.416 77.7812 180.278 80.8205V82.3402Z" fill="#00396A"/>
<path d="M101.415 104.445C99.7546 105.965 97.8176 107.484 96.2957 109.28L73.8821 156.115L90.6231 134.563L108.333 97.8135C105.981 100.162 103.767 102.373 101.415 104.445Z" fill="#0A2778"/>
<path d="M87.9948 96.7078C89.655 94.4973 91.177 91.8724 93.1139 89.5238L53.8209 70.4585L16.4648 74.1887L81.9071 104.306C83.9825 101.82 86.1961 99.3327 87.9948 96.7078Z" fill="#0A2778"/>
<path d="M93.6663 89.9385C91.591 92.5634 89.9307 95.6028 87.8553 98.0896C86.0567 100.3 84.2581 102.511 82.4595 104.583L112.206 118.26L122.998 104.168L93.6663 89.9385Z" fill="#0A2778"/>
<path d="M48.8396 144.372L60.4615 120.194L0 91.3202L9.6849 71.1497L109.163 12.5723L136.28 25.5588L96.434 108.866L112.898 116.741L101.691 140.089L85.2272 132.214L73.7436 156.253L48.8396 144.372ZM93.6669 50.9792L92.145 50.2884L38.878 81.3731L71.5299 96.9846L93.6669 50.9792Z" fill="#6A4BFF"/>
<path d="M112.899 116.74L122.999 104.168L115.113 121.576L101.416 140.779L112.899 116.74Z" fill="#0A2778"/>
<path d="M109.023 97.2606L148.317 11.3286L136.418 25.5585L96.4331 108.866C97.54 107.76 108.47 97.8132 109.023 97.2606Z" fill="#0A2778"/>
<path d="M9.68481 71.1495L27.3943 55.6762L124.658 0L109.163 12.572L9.68481 71.1495Z" fill="#0A2778"/>
<path d="M109.163 12.572L136.419 25.5586L148.318 11.3287L124.659 0L109.163 12.572Z" fill="#0A2778"/>
<path d="M75.8184 75.2943C72.4979 72.9457 70.1458 73.9127 68.6239 74.189C66.8253 74.4654 65.5801 73.4983 65.5801 73.4983C64.8883 73.0838 63.9198 73.222 63.3664 73.9127C62.9513 74.6035 63.0897 75.5706 63.7815 76.1232C63.9198 76.1232 65.165 77.0903 67.6554 77.6429C65.165 80.1297 62.3979 82.8928 62.2596 83.0309C61.7061 83.7217 61.7061 84.6888 62.3979 85.2414C62.6746 85.5177 63.0897 85.6559 63.5048 85.6559C63.9198 85.6559 64.3349 85.5177 64.6116 85.1032C64.6116 85.1032 66.5486 83.0309 68.4856 81.0968C66.5486 83.4454 64.75 85.9322 64.4733 86.4848C63.9198 87.1755 64.1966 88.1426 64.8883 88.6952C65.165 88.8334 65.4418 88.9716 65.8568 88.9716C66.2719 88.9716 66.8253 88.6953 67.102 88.2808C68.0705 86.8992 69.5924 84.9651 70.976 83.1691C70.4226 84.1362 69.8691 85.3795 68.4856 87.4519C68.0705 88.1426 68.2089 89.1097 69.039 89.6623C69.3157 89.8005 69.5924 89.9386 69.8691 89.9386C70.4226 89.9386 70.8376 89.6623 71.2527 89.2479C71.8061 88.4189 72.2212 87.7282 72.6363 87.0374C72.3595 87.7282 72.6363 88.5571 73.1897 88.9716C73.4664 89.1097 73.7431 89.2479 74.0198 89.2479C74.5732 89.2479 74.9883 88.9716 75.265 88.5571C76.7869 86.3466 77.4787 84.5506 77.7554 83.0309C78.5856 78.61 77.4787 76.5377 75.8184 75.2943ZM72.7746 86.3466C73.328 85.3795 73.6047 84.8269 74.0198 84.1362C73.7431 84.6888 73.328 85.3795 72.7746 86.3466Z" fill="#00A4E2"/>
<path d="M28.2235 92.9777C23.2427 92.7014 16.1865 102.372 23.5194 104.997C16.8783 104.859 15.2181 114.253 21.3057 116.74C10.6523 114.668 11.8975 128.483 16.8783 133.457C13.4194 132.904 9.96054 136.22 10.514 139.674C11.0674 143.266 12.4509 148.239 21.3057 150.864C30.1605 153.489 35.5563 148.516 39.9837 143.819C42.7508 149.621 56.7248 141.746 55.2029 134.977C60.4604 136.773 65.1645 130.832 65.3028 126.135C65.4412 121.438 62.1207 117.984 59.0768 114.944C61.2905 113.01 61.7056 109.28 61.1522 106.379C60.1837 101.681 54.3727 101.267 54.3727 97.5368C54.3727 96.2934 54.6494 92.1488 53.5426 90.3528C51.744 87.4515 48.7001 84.6884 44.8262 86.07C28.2235 78.3333 28.2235 92.9777 28.2235 92.9777Z" fill="#00396A"/>
<path d="M37.7714 243.981C33.344 243.152 32.5139 243.428 28.0865 242.323L17.8481 254.895H57.6946L34.4508 248.678L37.7714 243.981Z" fill="#002E4F"/>
<path d="M111.931 247.573L109.578 244.533C107.503 245.915 105.289 247.02 102.799 247.849L109.025 254.895H132.407L111.931 247.573Z" fill="#002E4F"/>
<path d="M23.7964 243.981C28.2238 245.086 32.7895 246.191 37.2169 247.02L70.1456 206.541L64.473 190.515L41.5059 163.989L48.147 201.567L23.7964 243.981Z" fill="#002E4F"/>
<path d="M68.6248 152.798C59.6316 150.45 47.318 153.489 38.6016 156.805C38.6016 156.805 43.9974 178.219 47.5947 184.574C57.833 203.225 102.522 249.645 102.522 249.645C105.012 248.816 109.716 245.362 111.792 243.98L68.6248 152.798Z" fill="#00396A"/>
<path d="M37.3564 165.095C46.0728 161.779 63.5057 156.253 72.4988 158.601C72.4988 158.601 60.6002 130.694 55.2043 124.615C51.6071 120.471 31.6838 108.728 31.6838 124.063C31.6838 144.924 37.3564 165.095 37.3564 165.095Z" fill="#CDE5E8"/>
<path d="M45.1046 122.681C44.9662 122.681 44.8279 122.819 44.6895 122.819C42.0608 123.51 39.2936 121.99 38.6019 119.365C37.9101 116.602 37.7717 113.148 37.7717 112.734C37.7717 109.971 39.9854 107.76 42.7525 107.76C45.5196 107.76 47.7333 109.971 47.7333 112.734C47.7333 113.701 47.8717 115.635 48.1484 116.878C48.9785 119.227 47.595 121.852 45.1046 122.681Z" fill="#00A4E2"/>
<path d="M48.425 117.707C48.425 117.293 48.425 117.017 48.2866 116.602C48.0099 115.497 47.8715 113.425 47.8715 112.457C47.8715 109.694 45.6578 107.484 42.8907 107.484C40.1236 107.484 37.9099 109.694 37.9099 112.457C37.9099 112.457 37.9099 112.734 37.9099 112.872C40.262 115.911 44.4126 117.155 48.425 117.707Z" fill="#0086CF"/>
<path d="M53.2662 102.925C54.9265 107.899 52.1593 113.149 47.1785 114.806C42.1977 116.464 36.9402 113.701 35.2799 108.728L33.2046 102.511C31.5443 97.5371 34.3114 92.2873 39.2923 90.6294C44.2731 88.9716 49.5306 91.7347 51.1909 96.7082L53.2662 102.925Z" fill="#00A4E2"/>
<path d="M108.747 97.8132C108.609 97.675 108.332 97.5369 108.056 97.5369C108.332 97.2606 108.471 96.9843 108.747 96.708C109.301 96.0172 109.301 95.0501 108.609 94.4975C108.471 94.3593 108.471 94.3593 108.332 94.3593C108.747 93.6686 108.747 92.8396 108.056 92.287C107.641 91.8726 106.949 91.7344 106.395 92.0107C107.087 91.3199 107.502 90.7673 107.641 90.7673C108.194 90.0765 108.194 89.1095 107.502 88.5568C106.81 88.0042 105.842 88.0042 105.289 88.695C105.289 88.695 101.83 92.5633 98.3708 94.4975C96.8489 92.1489 94.7735 91.4581 94.7735 91.3199C93.9434 91.0436 93.1132 91.4581 92.8365 92.1489C92.5598 92.9778 92.9749 93.8067 93.6667 94.2212C93.6667 94.2212 94.9119 94.7738 95.8804 96.1553C95.742 96.5698 95.6036 96.9843 95.4653 97.5369C72.7749 128.622 42.475 117.707 41.0915 117.155C38.3243 116.05 35.2805 117.431 34.312 120.194C33.2052 122.957 34.5887 125.997 37.3559 127.102C37.7709 127.24 45.1038 130.003 55.7572 130.003C57.8325 130.003 60.1846 129.865 62.5366 129.589C74.0201 128.207 90.8996 121.714 104.458 104.306C104.735 104.168 105.012 104.03 105.427 103.616C105.704 103.478 105.98 103.201 106.257 103.063C107.087 102.372 108.056 101.405 109.163 100.162C109.578 99.3329 109.439 98.3658 108.747 97.8132Z" fill="#00A4E2"/>
<path d="M66.5493 117.155L65.3041 117.431C62.1219 118.122 58.9398 118.398 55.6192 118.398C47.5946 118.398 42.0604 116.326 41.3686 116.188C40.6768 115.912 39.8467 115.773 39.1549 115.773C36.5261 115.773 34.3124 117.293 33.3439 119.78C32.7905 121.3 32.6522 123.096 33.4823 124.477C36.5261 129.865 44.8275 132.076 55.6192 132.076C57.9713 132.076 60.185 131.938 62.537 131.661C63.9206 131.523 65.3041 131.247 66.826 130.97L67.7945 130.694C67.7945 130.694 66.5493 126.826 66.2726 122.819C66.1343 121.438 66.5493 117.155 66.5493 117.155Z" fill="#E1F3F6"/>
<path d="M33.206 107.484C36.5266 105.412 37.6334 101.544 37.2183 97.6752C40.1238 99.6094 42.3375 98.366 44.1361 95.0503C49.532 102.649 57.8333 91.3201 46.6265 87.3136C37.6334 83.9979 28.7786 92.978 30.9923 101.958L33.206 107.484Z" fill="#00396A"/>
</g>
<defs>
<clipPath id="clip0">
<rect width="483" height="256" fill="white"/>
</clipPath>
</defs>
</svg>
