<svg viewBox="0 0 59 59" fill="none" xmlns="http://www.w3.org/2000/svg">
<path d="M29.5 0C13.194 0 0 13.1951 0 29.5C0 45.806 13.1951 59 29.5 59C45.806 59 59 45.8049 59 29.5C59 13.194 45.8049 0 29.5 0ZM29.5 54.3906C15.7418 54.3906 4.60938 43.2573 4.60938 29.5C4.60938 15.7418 15.7427 4.60938 29.5 4.60938C43.2582 4.60938 54.3906 15.7427 54.3906 29.5C54.3906 43.2582 43.2573 54.3906 29.5 54.3906Z" fill="#FA3B33"/>
<path d="M29.5 14.8516C28.2271 14.8516 27.1953 15.8834 27.1953 17.1562V31.9976C27.1953 33.2705 28.2271 34.3023 29.5 34.3023C30.7729 34.3023 31.8047 33.2705 31.8047 31.9976V17.1562C31.8047 15.8834 30.7729 14.8516 29.5 14.8516Z" fill="#FA3B33"/>
<path d="M29.5 43.3457C31.2183 43.3457 32.6113 41.9527 32.6113 40.2344C32.6113 38.516 31.2183 37.123 29.5 37.123C27.7817 37.123 26.3887 38.516 26.3887 40.2344C26.3887 41.9527 27.7817 43.3457 29.5 43.3457Z" fill="#FA3B33"/>
</svg>
