<svg width="20" height="20" viewBox="0 0 20 20" fill="#AFBCCB" xmlns="http://www.w3.org/2000/svg">
<g clip-path="url(#clip0_26539_43822)">
<path d="M20.0001 13.5351C20.0001 11.0533 18.5763 8.83829 16.4438 7.76086C16.3776 12.5195 12.5196 16.3775 7.76099 16.4437C8.83841 18.5761 11.0534 19.9999 13.5352 19.9999C14.6989 19.9999 15.8304 19.69 16.8247 19.1012L19.9718 19.9717L19.1013 16.8246C19.6902 15.8303 20.0001 14.6987 20.0001 13.5351Z" fill="#AFBCCB"/>
<path d="M15.2734 7.63672C15.2734 3.42575 11.8477 0 7.63672 0C3.42575 0 0 3.42575 0 7.63672C0 9.00909 0.365295 10.3453 1.05896 11.5184L0.0280762 15.2452L3.75504 14.2145C4.92813 14.9081 6.26434 15.2734 7.63672 15.2734C11.8477 15.2734 15.2734 11.8477 15.2734 7.63672ZM6.46484 5.85938H5.29297C5.29297 4.56696 6.3443 3.51562 7.63672 3.51562C8.92914 3.51562 9.98047 4.56696 9.98047 5.85938C9.98047 6.51535 9.70276 7.14584 9.21829 7.58896L8.22266 8.50021V9.41406H7.05078V7.98416L8.42712 6.7244C8.6731 6.49933 8.80859 6.19217 8.80859 5.85938C8.80859 5.21317 8.28293 4.6875 7.63672 4.6875C6.99051 4.6875 6.46484 5.21317 6.46484 5.85938ZM7.05078 10.5859H8.22266V11.7578H7.05078V10.5859Z" fill="#AFBCCB"/>
</g>
<defs>
<clipPath id="clip0_26539_43822">
<rect width="20" height="20" fill="#AFBCCB"/>
</clipPath>
</defs>
</svg>
