<svg viewBox="0 0 22 22" fill="none" xmlns="http://www.w3.org/2000/svg">
<path d="M21.9425 8.43826C21.7976 7.99279 21.4025 7.6774 20.9369 7.63527L14.5861 7.0587L12.0763 1.18263C11.891 0.75092 11.4693 0.47229 11 0.47229C10.5307 0.47229 10.1089 0.75092 9.92479 1.18263L7.41493 7.0587L1.06317 7.63527C0.597557 7.67824 0.203279 7.99363 0.0575857 8.43826C-0.0872684 8.88373 0.0465076 9.37234 0.398656 9.68118L5.19932 13.8907L3.78384 20.1249C3.68028 20.5833 3.8582 21.0574 4.23855 21.3323C4.44299 21.4808 4.68318 21.555 4.92421 21.555C5.13134 21.555 5.33863 21.5 5.52377 21.3892L11 18.1148L16.4753 21.3892C16.8769 21.6292 17.382 21.6072 17.7615 21.3323C18.1419 21.0574 18.3198 20.5833 18.2162 20.1249L16.8007 13.8907L21.6014 9.68118C21.9534 9.37234 22.0873 8.88474 21.9425 8.43826Z"/>
</svg>
