<svg viewBox="0 0 22 22" xmlns="http://www.w3.org/2000/svg">
    <path d="M21.5225 10.0137C21.9555 9.59164 22.1084 8.97226 21.9216 8.39649C21.7344 7.82071 21.2467 7.4097 20.6476 7.32248L15.3207 6.54847C15.0938 6.51543 14.8978 6.37314 14.7965 6.16741L12.415 1.34054C12.1476 0.798247 11.6048 0.461243 11 0.461243C10.3956 0.461243 9.85286 0.798247 9.58546 1.34054L7.20352 6.16741C7.1022 6.37314 6.90573 6.51543 6.67885 6.54847L1.35198 7.32292C0.753304 7.4097 0.265639 7.82071 0.0784142 8.39649C-0.10837 8.97226 0.0444935 9.59164 0.477533 10.0137L4.33172 13.7705C4.49604 13.9308 4.57137 14.1617 4.5326 14.3872L3.62291 19.6925C3.5207 20.2886 3.76079 20.8793 4.25022 21.2353C4.73921 21.5916 5.37577 21.6379 5.91189 21.3555L10.6758 18.8507C10.8789 18.7441 11.1211 18.7441 11.3242 18.8507L16.0885 21.3555C16.3211 21.478 16.5731 21.5383 16.8238 21.5383C17.1493 21.5383 17.4736 21.4366 17.7502 21.2353C18.2396 20.8793 18.4797 20.2886 18.3775 19.6925L17.4674 14.3877C17.4286 14.1617 17.504 13.9313 17.6683 13.7709L21.5225 10.0137ZM16.5996 14.5366L17.5093 19.8414C17.5551 20.1084 17.4515 20.3634 17.2322 20.5229C17.0123 20.6819 16.7388 20.7013 16.4987 20.5762L11.7344 18.0709C11.5048 17.9507 11.252 17.8899 11 17.8899C10.748 17.8899 10.4956 17.9507 10.2656 18.0714L5.5022 20.5762C5.26123 20.7013 4.98767 20.6819 4.76828 20.5229C4.5489 20.3634 4.44582 20.1088 4.49119 19.8414L5.40088 14.5366C5.48855 14.0247 5.31894 13.5022 4.94714 13.1401L1.09251 9.38283C0.898238 9.1934 0.832159 8.92644 0.9163 8.66873C1 8.41058 1.21013 8.23349 1.47841 8.19428L6.80485 7.42027C7.31894 7.34583 7.76344 7.02336 7.99295 6.55728L10.3749 1.73041C10.4947 1.48723 10.7286 1.3423 10.9996 1.3423C11.2709 1.3423 11.5044 1.48723 11.6247 1.73041L14.0066 6.55728C14.2361 7.02336 14.6802 7.34583 15.1943 7.42027L20.5211 8.19428C20.7894 8.23349 20.9996 8.41058 21.0833 8.66873C21.167 8.92644 21.1013 9.1934 20.9071 9.38283L17.0529 13.1397C16.6811 13.5022 16.5115 14.0242 16.5996 14.5366Z" fill="#1A53F0"/>
</svg>
