<svg width="64" height="64" viewBox="0 0 64 64" fill="none" xmlns="http://www.w3.org/2000/svg">
<path d="M25.9457 62.2703H23.3771C23.1477 62.2703 22.9277 62.1791 22.7655 62.0169C22.6033 61.8548 22.5122 61.6348 22.5122 61.4054C22.5122 61.176 22.6033 60.956 22.7655 60.7938C22.9277 60.6316 23.1477 60.5405 23.3771 60.5405H25.9457C26.1751 60.5405 26.3951 60.6316 26.5573 60.7938C26.7195 60.956 26.8106 61.176 26.8106 61.4054C26.8106 61.6348 26.7195 61.8548 26.5573 62.0169C26.3951 62.1791 26.1751 62.2703 25.9457 62.2703Z" fill="#C3CEEB"/>
<path d="M59.6757 62.2703H32C31.7706 62.2703 31.5507 62.1792 31.3885 62.017C31.2263 61.8548 31.1351 61.6348 31.1351 61.4054C31.1351 61.176 31.2263 60.9561 31.3885 60.7939C31.5507 60.6317 31.7706 60.5406 32 60.5406H59.6757C59.9051 60.5406 60.125 60.4494 60.2872 60.2872C60.4494 60.125 60.5406 59.9051 60.5406 59.6757V4.32433C60.5406 4.09495 60.4494 3.87497 60.2872 3.71278C60.125 3.55059 59.9051 3.45947 59.6757 3.45947H4.32433C4.09495 3.45947 3.87497 3.55059 3.71278 3.71278C3.55059 3.87497 3.45947 4.09495 3.45947 4.32433V59.6757C3.45947 59.9051 3.55059 60.125 3.71278 60.2872C3.87497 60.4494 4.09495 60.5406 4.32433 60.5406H8.76109C8.99047 60.5406 9.21045 60.6317 9.37264 60.7939C9.53483 60.9561 9.62595 61.176 9.62595 61.4054C9.62595 61.6348 9.53483 61.8548 9.37264 62.017C9.21045 62.1792 8.99047 62.2703 8.76109 62.2703H4.32433C3.6362 62.2703 2.97626 61.9969 2.48968 61.5103C2.00309 61.0238 1.72974 60.3638 1.72974 59.6757V4.32433C1.72974 3.6362 2.00309 2.97626 2.48968 2.48968C2.97626 2.00309 3.6362 1.72974 4.32433 1.72974H59.6757C60.3638 1.72974 61.0238 2.00309 61.5103 2.48968C61.9969 2.97626 62.2703 3.6362 62.2703 4.32433V59.6757C62.2703 60.3638 61.9969 61.0238 61.5103 61.5103C61.0238 61.9969 60.3638 62.2703 59.6757 62.2703Z" fill="#C3CEEB"/>
<path d="M17.3232 62.2703H14.8151C14.5857 62.2703 14.3657 62.1791 14.2035 62.0169C14.0413 61.8548 13.9502 61.6348 13.9502 61.4054C13.9502 61.176 14.0413 60.956 14.2035 60.7938C14.3657 60.6316 14.5857 60.5405 14.8151 60.5405H17.3232C17.5525 60.5405 17.7725 60.6316 17.9347 60.7938C18.0969 60.956 18.188 61.176 18.188 61.4054C18.188 61.6348 18.0969 61.8548 17.9347 62.0169C17.7725 62.1791 17.5525 62.2703 17.3232 62.2703Z" fill="#C3CEEB"/>
<path d="M61.4054 17.2973H2.5946C2.36522 17.2973 2.14524 17.2062 1.98305 17.044C1.82086 16.8818 1.72974 16.6619 1.72974 16.4325C1.72974 16.2031 1.82086 15.9831 1.98305 15.8209C2.14524 15.6587 2.36522 15.5676 2.5946 15.5676H61.4054C61.6348 15.5676 61.8548 15.6587 62.017 15.8209C62.1792 15.9831 62.2703 16.2031 62.2703 16.4325C62.2703 16.6619 62.1792 16.8818 62.017 17.044C61.8548 17.2062 61.6348 17.2973 61.4054 17.2973Z" fill="#C3CEEB"/>
<path d="M54.919 10.6482H53.9581C53.7287 10.6482 53.5088 10.5571 53.3466 10.3949C53.1844 10.2327 53.0933 10.0127 53.0933 9.78332C53.0933 9.55395 53.1844 9.33396 53.3466 9.17177C53.5088 9.00958 53.7287 8.91846 53.9581 8.91846H54.919C55.1484 8.91846 55.3683 9.00958 55.5305 9.17177C55.6927 9.33396 55.7839 9.55395 55.7839 9.78332C55.7839 10.0127 55.6927 10.2327 55.5305 10.3949C55.3683 10.5571 55.1484 10.6482 54.919 10.6482Z" fill="#C3CEEB"/>
<path d="M48.551 10.6482H47.5892C47.3599 10.6482 47.1399 10.5571 46.9777 10.3949C46.8155 10.2327 46.7244 10.0127 46.7244 9.78332C46.7244 9.55395 46.8155 9.33396 46.9777 9.17177C47.1399 9.00958 47.3599 8.91846 47.5892 8.91846H48.551C48.7803 8.91846 49.0003 9.00958 49.1625 9.17177C49.3247 9.33396 49.4158 9.55395 49.4158 9.78332C49.4158 10.0127 49.3247 10.2327 49.1625 10.3949C49.0003 10.5571 48.7803 10.6482 48.551 10.6482Z" fill="#C3CEEB"/>
<path d="M42.1822 10.6482H41.2213C40.9919 10.6482 40.772 10.5571 40.6098 10.3949C40.4476 10.2327 40.3564 10.0127 40.3564 9.78332C40.3564 9.55395 40.4476 9.33396 40.6098 9.17177C40.772 9.00958 40.9919 8.91846 41.2213 8.91846H42.1822C42.4116 8.91846 42.6315 9.00958 42.7937 9.17177C42.9559 9.33396 43.047 9.55395 43.047 9.78332C43.047 10.0127 42.9559 10.2327 42.7937 10.3949C42.6315 10.5571 42.4116 10.6482 42.1822 10.6482Z" fill="#C3CEEB"/>
<path d="M35.0704 10.6482H9.08117C8.8518 10.6482 8.63182 10.5571 8.46962 10.3949C8.30743 10.2327 8.21631 10.0127 8.21631 9.78332C8.21631 9.55395 8.30743 9.33396 8.46962 9.17177C8.63182 9.00958 8.8518 8.91846 9.08117 8.91846H35.0704C35.2997 8.91846 35.5197 9.00958 35.6819 9.17177C35.8441 9.33396 35.9352 9.55395 35.9352 9.78332C35.9352 10.0127 35.8441 10.2327 35.6819 10.3949C35.5197 10.5571 35.2997 10.6482 35.0704 10.6482Z" fill="#C3CEEB"/>
<path d="M40.6651 53.1174C40.525 53.1173 40.387 53.0832 40.263 53.018L32.0001 48.6746L23.7371 53.0162C23.5946 53.09 23.4343 53.1226 23.2743 53.1105C23.1142 53.0983 22.9607 53.0419 22.8309 52.9475C22.7011 52.853 22.6002 52.7243 22.5393 52.5758C22.4785 52.4273 22.4602 52.2647 22.4865 52.1064L24.0606 42.906L17.3769 36.391C17.2613 36.2783 17.1795 36.1356 17.1407 35.9789C17.102 35.8222 17.1079 35.6578 17.1578 35.5043C17.2076 35.3507 17.2994 35.2142 17.4228 35.1102C17.5463 35.0061 17.6963 34.9387 17.8561 34.9155L27.0937 33.5732L31.2217 25.2031C31.3011 25.0682 31.4144 24.9564 31.5503 24.8788C31.6862 24.8011 31.8401 24.7603 31.9966 24.7603C32.1531 24.7603 32.3069 24.8011 32.4428 24.8788C32.5788 24.9564 32.692 25.0682 32.7715 25.2031L36.903 33.5732L46.1406 34.9155C46.3003 34.9387 46.4504 35.0061 46.5738 35.1102C46.6972 35.2142 46.789 35.3507 46.8389 35.5043C46.8887 35.6578 46.8946 35.8222 46.8559 35.9789C46.8172 36.1356 46.7354 36.2783 46.6197 36.391L39.9395 42.906L41.5136 52.1064C41.5348 52.2305 41.5288 52.3577 41.4958 52.4792C41.4628 52.6007 41.4036 52.7136 41.3225 52.8098C41.2414 52.9061 41.1402 52.9835 41.0261 53.0367C40.9119 53.0898 40.7876 53.1174 40.6617 53.1174H40.6651ZM32.0001 46.8325C32.1402 46.8323 32.2783 46.8665 32.4022 46.9319L39.5157 50.6707L38.1579 42.7503C38.1341 42.6122 38.1443 42.4703 38.1876 42.337C38.2308 42.2036 38.3058 42.0828 38.4061 41.9849L44.1618 36.3754L36.205 35.2199C36.0662 35.1997 35.9343 35.146 35.8209 35.0634C35.7074 34.9808 35.6157 34.8719 35.5538 34.746L32.0001 27.5399L28.4437 34.746C28.3818 34.8719 28.2901 34.9808 28.1766 35.0634C28.0632 35.146 27.9313 35.1997 27.7925 35.2199L19.8357 36.3754L25.5914 41.9849C25.6917 42.0828 25.7667 42.2036 25.8099 42.337C25.8532 42.4703 25.8634 42.6122 25.8396 42.7503L24.4818 50.6707L31.5953 46.9319C31.72 46.8661 31.859 46.8319 32.0001 46.8325Z" fill="#C3CEEB"/>
</svg>
