<svg width="16" height="16" viewBox="0 0 16 16" fill="#00A3FF" xmlns="http://www.w3.org/2000/svg">
<path d="M8 0.000366211C3.5888 0.000366211 0 3.58902 0 7.99993C0 12.4109 3.5888 15.9995 8 15.9995C12.4112 15.9995 16 12.4109 16 7.99993C16 3.58902 12.4112 0.000366211 8 0.000366211ZM8 14.545C4.39084 14.545 1.45455 11.6089 1.45455 7.99998C1.45455 4.39101 4.39084 1.45491 8 1.45491C11.6092 1.45491 14.5455 4.39101 14.5455 7.99993C14.5455 11.609 11.6092 14.545 8 14.545Z" fill="#00A3FF"/>
<path d="M7.99998 6.30334C7.59833 6.30334 7.27271 6.62897 7.27271 7.03062V11.8783C7.27271 12.2799 7.59833 12.6056 7.99998 12.6056C8.40163 12.6056 8.72725 12.2799 8.72725 11.8783V7.03062C8.72725 6.62902 8.40163 6.30334 7.99998 6.30334Z" fill="#00A3FF"/>
<path d="M7.99998 3.39441C7.80846 3.39441 7.62126 3.47198 7.48555 3.60726C7.35028 3.74253 7.27271 3.93017 7.27271 4.12168C7.27271 4.3132 7.35028 4.50035 7.48555 4.63611C7.62083 4.77138 7.80846 4.84895 7.99998 4.84895C8.19149 4.84895 8.37864 4.77138 8.51435 4.63611C8.64963 4.50035 8.72725 4.3132 8.72725 4.12168C8.72725 3.93017 8.64963 3.74253 8.51435 3.60726C8.37864 3.47194 8.19149 3.39441 7.99998 3.39441Z" fill="#00A3FF"/>
</svg>
