<svg  viewBox="0 0 25 24" fill="#EEF2FC" xmlns="http://www.w3.org/2000/svg">
<path d="M24.15 10.7786L14.2078 0.770885C14.1951 0.758004 14.1818 0.745504 14.1684 0.733386C13.0828 -0.241368 11.4423 -0.244851 10.3525 0.725323C10.3389 0.737393 10.3258 0.749845 10.3129 0.762632L0.280145 10.7757C-0.0928482 11.148 -0.0934685 11.7521 0.278809 12.1251C0.651134 12.4981 1.25528 12.4987 1.62823 12.1265L2.38547 11.3707V19.6094C2.38547 21.7139 4.09767 23.4261 6.20224 23.4261H9.63732C10.1643 23.4261 10.5915 22.999 10.5915 22.472V14.6953H13.9312V22.472C13.9312 22.999 14.3584 23.4261 14.8854 23.4261H18.225C20.3296 23.4261 22.0418 21.7139 22.0418 19.6094C22.0418 19.0824 21.6146 18.6552 21.0876 18.6552C20.5606 18.6552 20.1334 19.0824 20.1334 19.6094C20.1334 20.6617 19.2773 21.5178 18.225 21.5178H15.8396V13.7411C15.8396 13.2141 15.4124 12.7869 14.8854 12.7869H9.63732C9.11032 12.7869 8.68313 13.2141 8.68313 13.7411V21.5178H6.20224C5.14995 21.5178 4.29385 20.6617 4.29385 19.6094V9.49496C4.29385 9.48542 4.29371 9.47592 4.29342 9.46648L11.6385 2.13586C11.996 1.83228 12.5204 1.83342 12.8765 2.13848L20.1334 9.44329V19.6094C20.1334 20.1364 20.5606 24.3803 21.0876 19.6094C21.6146 19.6094 22.0418 20.1364 22.0418 19.6094V11.3642L22.7962 12.1236C22.9827 12.3113 23.2278 12.4053 23.4731 12.4053C23.7163 12.4053 23.9595 12.3129 24.1456 12.128C24.5195 11.7566 24.5215 11.1524 24.15 10.7786Z" />
</svg>
