<svg  viewBox="0 0 18 20" fill="#AFBCCB" xmlns="http://www.w3.org/2000/svg">
<path d="M10.9734 13.2431C10.8041 13.2431 10.6349 13.397 10.6349 13.9124C10.6349 14.4279 10.8041 14.5818 10.9734 14.5818C11.1426 14.5818 11.3119 14.4279 11.3119 13.9124C11.3119 13.3969 11.1426 13.2431 10.9734 13.2431Z" />
<path d="M7.02661 10.7042C6.85736 10.7042 6.68811 10.8581 6.68811 11.3736C6.68811 11.889 6.85736 12.0429 7.02661 12.0429C7.19586 12.0429 7.36511 11.889 7.36511 11.3736C7.36511 10.8581 7.19586 10.7042 7.02661 10.7042Z" />
<path d="M14.8562 7.09533C13.1605 5.22246 12.1528 3.57378 11.6059 2.52047C11.0137 1.37958 10.8196 0.672117 10.8181 0.666487L10.6418 0L10.0122 0.280834C9.93861 0.313636 8.19902 1.10695 7.2243 3.05637C6.735 4.03501 6.63714 5.1246 6.64124 5.86627C6.64363 6.2979 6.33781 6.67269 5.91412 6.75741C5.61706 6.81676 5.31148 6.72441 5.09707 6.51L3.92427 5.33721L3.52083 5.89352C3.47896 5.95127 2.49301 7.31102 2.31352 7.58271C1.437 8.90954 0.979955 10.4552 0.991802 12.0525C1.00768 14.1858 1.84662 16.1845 3.35408 17.6804C4.86147 19.1762 6.86656 20 9 20C13.4158 20 17.0083 16.4075 17.0083 11.9916C17.0084 10.3906 16.2239 8.60596 14.8562 7.09533ZM10.9733 15.4126C10.1579 15.4126 9.54236 14.8741 9.54236 13.9124C9.54236 12.9585 10.1578 12.4122 10.9733 12.4122C11.7889 12.4122 12.4043 12.9584 12.4043 13.9124C12.4043 14.8741 11.7888 15.4126 10.9733 15.4126ZM10.1886 9.95031H11.4888L7.81134 15.3357H6.51117L10.1886 9.95031ZM5.59567 11.3736C5.59567 10.4196 6.21114 9.8734 7.02666 9.8734C7.84219 9.8734 8.45765 10.4196 8.45765 11.3736C8.45765 12.3353 7.84219 12.8738 7.02666 12.8738C6.21114 12.8738 5.59567 12.3353 5.59567 11.3736Z" />
</svg>
