<svg width="16" height="16" viewBox="0 0 16 16" xmlns="http://www.w3.org/2000/svg">
<path d="M15.7994 7.81264C16.0894 7.49366 16.0614 7.00475 15.7368 6.72092L8.58623 0.464096C8.26166 0.180264 7.7413 0.18621 7.42357 0.4775L0.248662 7.05451C-0.0690706 7.3458 -0.0846651 7.83408 0.214135 8.14467L0.39402 8.33201C0.692456 8.6426 1.17484 8.67963 1.47078 8.41447L2.00699 7.93427V14.9645C2.00699 15.3958 2.35648 15.745 2.7875 15.745H5.5843C6.01531 15.745 6.36481 15.3958 6.36481 14.9645V10.0462H9.93216V14.9645C9.92595 15.3955 10.2344 15.7447 10.6654 15.7447H13.6293C14.0603 15.7447 14.4098 15.3955 14.4098 14.9641V8.03326C14.4098 8.03326 14.5579 8.16303 14.7406 8.32361C14.923 8.48389 15.3061 8.35538 15.5961 8.03608L15.7994 7.81264Z"/>
</svg>
