<svg viewBox="0 0 80 80" fill="none" xmlns="http://www.w3.org/2000/svg">
<path d="M73.333 10.6667H66.6663V4C66.6663 1.79102 64.8753 0 62.6663 0H9.33301C7.12402 0 5.33301 1.79102 5.33301 4V68C5.33301 69.4726 6.52702 70.6667 7.99967 70.6667H27.9997V68H7.99967V4C7.99967 3.26367 8.59668 2.66667 9.33301 2.66667H56.2451C56.0869 3.09375 56.0042 3.54492 55.9997 4V34.6667H58.6663V24H70.6663C72.8753 24 74.6663 22.209 74.6663 20V12C74.6663 11.2637 74.0693 10.6667 73.333 10.6667ZM58.6663 4C58.6663 3.26367 59.2633 2.66667 59.9997 2.66667H62.6663C63.4027 2.66667 63.9997 3.26367 63.9997 4V20C64.0042 20.4551 64.0869 20.9062 64.2451 21.3333H58.6663V4ZM71.9997 20C71.9997 20.7363 71.4027 21.3333 70.6663 21.3333H67.9997C67.2633 21.3333 66.6663 20.7363 66.6663 20V13.3333H71.9997V20Z" fill="#FA3B33"/>
<path d="M50.6663 41.334C41.0934 41.334 33.333 49.0944 33.333 58.6673C33.333 68.2402 41.0934 76.0007 50.6663 76.0007C60.2393 76.0007 67.9997 68.2402 67.9997 58.6673C67.9886 49.099 60.2347 41.3451 50.6663 41.334ZM50.6663 73.334C42.5661 73.334 35.9997 66.7676 35.9997 58.6673C35.9997 50.5671 42.5661 44.0007 50.6663 44.0007C58.7666 44.0007 65.333 50.5671 65.333 58.6673C65.3232 66.7637 58.7627 73.3242 50.6663 73.334Z" fill="#FA3B33"/>
<path d="M50.6663 37.334C38.8844 37.334 29.333 46.8854 29.333 58.6673C29.333 70.4492 38.8844 80.0007 50.6663 80.0007C62.4482 80.0007 71.9997 70.4492 71.9997 58.6673C71.986 46.8913 62.4424 37.3477 50.6663 37.334ZM50.6663 77.334C40.3571 77.334 31.9997 68.9766 31.9997 58.6673C31.9997 48.3581 40.3571 40.0007 50.6663 40.0007C60.9756 40.0007 69.333 48.3581 69.333 58.6673C69.3219 68.972 60.971 77.3229 50.6663 77.334Z" fill="#FA3B33"/>
<path d="M55.3812 48.2969L50.6663 53.0098L45.9515 48.2969C45.4313 47.776 44.5869 47.776 44.0661 48.2969L40.2959 52.0671C39.7751 52.5879 39.7751 53.4323 40.2959 53.9525L45.0088 58.6673L40.2959 63.3822C39.7751 63.9023 39.7751 64.7467 40.2959 65.2676L44.0661 69.0378C44.5869 69.5586 45.4313 69.5586 45.9515 69.0378L50.6663 64.3249L55.3812 69.0378C55.9014 69.5586 56.7458 69.5586 57.2666 69.0378L61.0368 65.2676C61.5576 64.7467 61.5576 63.9023 61.0368 63.3822L56.3239 58.6673L61.0368 53.9525C61.5576 53.4323 61.5576 52.5879 61.0368 52.0671L57.2666 48.2969C56.7458 47.776 55.9014 47.776 55.3812 48.2969ZM53.4958 57.7246C52.9749 58.2454 52.9749 59.0892 53.4958 59.61L58.2093 64.3249L56.3239 66.2103L51.6091 61.4967C51.0882 60.9759 50.2445 60.9759 49.7236 61.4967L45.0088 66.2103L43.1234 64.3249L47.8369 59.61C48.3577 59.0892 48.3577 58.2454 47.8369 57.7246L43.1234 53.0098L45.0088 51.1243L49.7236 55.8379C50.2445 56.3587 51.0882 56.3587 51.6091 55.8379L56.3239 51.1243L58.2093 53.0098L53.4958 57.7246Z" fill="#FA3B33"/>
<path d="M50.6663 9.33333C50.6663 8.59701 50.0693 8 49.333 8H14.6663C13.93 8 13.333 8.59701 13.333 9.33333V20C13.333 20.7363 13.93 21.3333 14.6663 21.3333H49.333C50.0693 21.3333 50.6663 20.7363 50.6663 20V9.33333ZM47.9997 18.6667H15.9997V10.6667H47.9997V18.6667Z" fill="#FA3B33"/>
<path d="M13.333 26.666H21.333V29.3327H13.333V26.666Z" fill="#FA3B33"/>
<path d="M24 26.666H50.6667V29.3327H24V26.666Z" fill="#FA3B33"/>
<path d="M13.333 34.666H39.9997V37.3327H13.333V34.666Z" fill="#FA3B33"/>
<path d="M13.333 42.666H26.6663V45.3327H13.333V42.666Z" fill="#FA3B33"/>
<path d="M13.333 50.666H26.6663V53.3327H13.333V50.666Z" fill="#FA3B33"/>
<path d="M13.333 60H26.6663V62.6667H13.333V60Z" fill="#FA3B33"/>
</svg>
