<svg width="15" height="13" viewBox="0 0 15 13" fill="none" xmlns="http://www.w3.org/2000/svg">
<path d="M11.25 6.17188V11.375C11.25 11.6875 11.1406 11.9531 10.9219 12.1719C10.7031 12.3906 10.4375 12.5 10.125 12.5H1.875C1.5625 12.5 1.29688 12.3906 1.07812 12.1719C0.859375 11.9531 0.75 11.6875 0.75 11.375V3.125C0.75 2.8125 0.859375 2.54687 1.07812 2.32812C1.29688 2.10938 1.5625 2 1.875 2H9.84375C9.96875 2 10.0547 2.0625 10.1016 2.1875C10.1484 2.29688 10.125 2.39063 10.0312 2.46875L9.46875 3.03125C9.42188 3.09375 9.35938 3.125 9.28125 3.125H2.01562C1.92188 3.125 1.875 3.17188 1.875 3.26562V11.2344C1.875 11.3281 1.92188 11.375 2.01562 11.375H9.98438C10.0781 11.375 10.125 11.3281 10.125 11.2344V6.73438C10.125 6.65625 10.1562 6.58594 10.2188 6.52344L10.7812 5.96094C10.8594 5.88281 10.9531 5.86719 11.0625 5.91406C11.1875 5.96094 11.25 6.04688 11.25 6.17188ZM13.9688 0.5C14.1562 0.5 14.25 0.59375 14.25 0.78125V3.96875C14.25 4.09375 14.1875 4.17969 14.0625 4.22656C13.9531 4.27344 13.8594 4.25 13.7812 4.15625L12.6328 3.03125L6.25781 9.40625C6.13281 9.54688 6 9.54688 5.85938 9.40625L5.34375 8.89062C5.20312 8.75 5.20312 8.61719 5.34375 8.49219L11.7188 2.11719L10.5938 0.96875C10.5 0.890625 10.4766 0.796875 10.5234 0.6875C10.5703 0.5625 10.6562 0.5 10.7812 0.5H13.9688Z" fill="#1A53F0"/>
</svg>
