<svg width="390" height="315" viewBox="0 0 390 315" fill="none" xmlns="http://www.w3.org/2000/svg">
<g clip-path="url(#clip0_28906_479322)">
<path d="M91.4042 264.097C127.983 264.097 157.637 234.484 157.637 197.955C157.637 161.426 127.983 131.813 91.4042 131.813C54.8251 131.813 25.1719 161.426 25.1719 197.955C25.1719 234.484 54.8251 264.097 91.4042 264.097Z" fill="url(#paint0_linear_28906_479322)"/>
<path d="M354.288 63.7855C369.319 63.7855 381.505 51.6168 381.505 36.606C381.505 21.5951 369.319 9.42642 354.288 9.42642C339.257 9.42642 327.071 21.5951 327.071 36.606C327.071 51.6168 339.257 63.7855 354.288 63.7855Z" fill="url(#paint1_linear_28906_479322)"/>
<path d="M381.505 160.406H326.914" stroke="url(#paint2_linear_28906_479322)" stroke-width="10.9389" stroke-miterlimit="10" stroke-linecap="round" stroke-linejoin="round"/>
<path d="M312.598 306.516H218.048" stroke="url(#paint3_linear_28906_479322)" stroke-width="10.9389" stroke-miterlimit="10" stroke-linecap="round" stroke-linejoin="round"/>
<path d="M42.9484 105.89H8.65234" stroke="url(#paint4_linear_28906_479322)" stroke-width="10.9389" stroke-miterlimit="10" stroke-linecap="round" stroke-linejoin="round"/>
<path d="M263.828 45.7182H235.195" stroke="url(#paint5_linear_28906_479322)" stroke-width="10.9389" stroke-miterlimit="10" stroke-linecap="round" stroke-linejoin="round"/>
<path d="M124.756 32.8354H73.1543" stroke="black" stroke-width="1.5" stroke-miterlimit="10" stroke-linecap="round" stroke-linejoin="round"/>
<path d="M144.893 32.8354H136.24" stroke="black" stroke-width="1.5" stroke-miterlimit="10" stroke-linecap="round" stroke-linejoin="round"/>
<path d="M113.271 47.2893H33.0371" stroke="black" stroke-width="1.5" stroke-miterlimit="10" stroke-linecap="round" stroke-linejoin="round"/>
<path d="M204.518 38.6484C209.297 38.6484 213.171 34.7797 213.171 30.0075C213.171 25.2352 209.297 21.3666 204.518 21.3666C199.739 21.3666 195.865 25.2352 195.865 30.0075C195.865 34.7797 199.739 38.6484 204.518 38.6484Z" stroke="black" stroke-width="1.5" stroke-miterlimit="10" stroke-linecap="round" stroke-linejoin="round"/>
<path d="M65.9175 84.5237C69.9142 84.5237 73.1542 81.2881 73.1542 77.2968C73.1542 73.3054 69.9142 70.0698 65.9175 70.0698C61.9207 70.0698 58.6807 73.3054 58.6807 77.2968C58.6807 81.2881 61.9207 84.5237 65.9175 84.5237Z" stroke="black" stroke-width="1.5" stroke-miterlimit="10" stroke-linecap="round" stroke-linejoin="round"/>
<path d="M347.523 203.768L332.892 207.696C330.69 208.324 329.903 210.995 331.633 212.566L342.331 223.249C343.905 224.82 346.736 224.192 347.208 221.993L351.141 207.382C351.771 205.182 349.725 203.14 347.523 203.768Z" fill="url(#paint6_linear_28906_479322)"/>
<path d="M47.3535 167.476H61.6698" stroke="black" stroke-width="1.5" stroke-miterlimit="10" stroke-linecap="round" stroke-linejoin="round"/>
<path d="M54.4336 174.703V160.406" stroke="black" stroke-width="1.5" stroke-miterlimit="10" stroke-linecap="round" stroke-linejoin="round"/>
<path d="M291.045 284.993H101.787" stroke="black" stroke-width="1.5" stroke-miterlimit="10" stroke-linecap="round" stroke-linejoin="round"/>
<path d="M317.003 284.993H308.351" stroke="black" stroke-width="1.5" stroke-miterlimit="10" stroke-linecap="round" stroke-linejoin="round"/>
<path d="M173.525 270.696H345.635" stroke="black" stroke-width="1.5" stroke-miterlimit="10" stroke-linecap="round" stroke-linejoin="round"/>
<path d="M150.557 270.696H156.378" stroke="black" stroke-width="1.5" stroke-miterlimit="10" stroke-linecap="round" stroke-linejoin="round"/>
<path d="M368.604 124.586H314.014" stroke="black" stroke-width="1.5" stroke-miterlimit="10" stroke-linecap="round" stroke-linejoin="round"/>
<path d="M354.288 138.883H334.15" stroke="black" stroke-width="1.5" stroke-miterlimit="10" stroke-linecap="round" stroke-linejoin="round"/>
<path d="M152.287 55.3018H162.828" stroke="black" stroke-width="1.5" stroke-miterlimit="10" stroke-linecap="round" stroke-linejoin="round"/>
<path d="M157.636 60.6434V50.1172" stroke="black" stroke-width="1.5" stroke-miterlimit="10" stroke-linecap="round" stroke-linejoin="round"/>
<path d="M97.8537 2.67083L100.686 13.3541C101.157 14.9252 103.203 15.5536 104.304 14.2968L112.17 6.44141C113.271 5.34165 112.799 3.29926 111.226 2.82794L100.528 9.75657e-06C98.955 -0.314205 97.5391 1.09976 97.8537 2.67083Z" fill="url(#paint7_linear_28906_479322)"/>
<path d="M77.2446 293.791C81.2414 293.791 84.4814 290.555 84.4814 286.564C84.4814 282.572 81.2414 279.337 77.2446 279.337C73.2478 279.337 70.0078 282.572 70.0078 286.564C70.0078 290.555 73.2478 293.791 77.2446 293.791Z" fill="url(#paint8_linear_28906_479322)"/>
<path d="M307.092 61.9003H321.88" stroke="black" stroke-width="1.5" stroke-miterlimit="10" stroke-linecap="round" stroke-linejoin="round"/>
<path d="M332.893 61.9003H336.196" stroke="black" stroke-width="1.5" stroke-miterlimit="10" stroke-linecap="round" stroke-linejoin="round"/>
<path d="M295.607 50.4314H344.849" stroke="black" stroke-width="1.5" stroke-miterlimit="10" stroke-linecap="round" stroke-linejoin="round"/>
<path d="M11.7988 231.262H20.6088" stroke="black" stroke-width="1.5" stroke-miterlimit="10" stroke-linecap="round" stroke-linejoin="round"/>
<path d="M20.4521 242.731H49.7139" stroke="black" stroke-width="1.5" stroke-miterlimit="10" stroke-linecap="round" stroke-linejoin="round"/>
<path d="M60.5684 242.731H64.0294" stroke="black" stroke-width="1.5" stroke-miterlimit="10" stroke-linecap="round" stroke-linejoin="round"/>
<path d="M32.0938 231.262H78.3463" stroke="black" stroke-width="1.5" stroke-miterlimit="10" stroke-linecap="round" stroke-linejoin="round"/>
<path d="M245.736 259.855H274.998" stroke="black" stroke-width="1.5" stroke-miterlimit="10" stroke-linecap="round" stroke-linejoin="round"/>
<path d="M286.011 259.855H289.314" stroke="black" stroke-width="1.5" stroke-miterlimit="10" stroke-linecap="round" stroke-linejoin="round"/>
<path d="M298.281 187.115H306.934" stroke="black" stroke-width="1.5" stroke-miterlimit="10" stroke-linecap="round" stroke-linejoin="round"/>
<path d="M302.687 191.357V182.716" stroke="black" stroke-width="1.5" stroke-miterlimit="10" stroke-linecap="round" stroke-linejoin="round"/>
<path d="M207.193 94.5786H129.948C126.644 94.5786 124.127 97.2494 124.127 100.392V105.733H213.014V100.549C213.014 97.2494 210.339 94.5786 207.193 94.5786Z" fill="url(#paint9_linear_28906_479322)"/>
<path d="M264.143 132.441C274.917 132.441 283.651 123.719 283.651 112.96C283.651 102.201 274.917 93.4788 264.143 93.4788C253.369 93.4788 244.635 102.201 244.635 112.96C244.635 123.719 253.369 132.441 264.143 132.441Z" fill="#876DFF" stroke="black" stroke-width="1.5" stroke-miterlimit="10" stroke-linecap="round" stroke-linejoin="round"/>
<path d="M123.34 119.559V100.549C123.34 96.9352 126.329 93.9501 129.947 93.9501H136.869H143.477H193.663H200.27H207.192C210.811 93.9501 213.8 96.9352 213.8 100.549V164.491C213.8 168.105 210.811 171.09 207.192 171.09H164.873" stroke="black" stroke-width="1.5" stroke-miterlimit="10" stroke-linecap="round" stroke-linejoin="round"/>
<path d="M123.34 106.519H213.8" stroke="black" stroke-width="1.5" stroke-miterlimit="10" stroke-linecap="round" stroke-linejoin="round"/>
<path d="M136.87 89.7082V97.7207" stroke="black" stroke-width="1.5" stroke-miterlimit="10" stroke-linecap="round" stroke-linejoin="round"/>
<path d="M193.663 89.7082V97.7207" stroke="black" stroke-width="1.5" stroke-miterlimit="10" stroke-linecap="round" stroke-linejoin="round"/>
<path d="M181.077 127.1H184.853" stroke="black" stroke-width="1.5" stroke-miterlimit="10" stroke-linecap="round" stroke-linejoin="round"/>
<path d="M196.81 127.1H200.585" stroke="black" stroke-width="1.5" stroke-miterlimit="10" stroke-linecap="round" stroke-linejoin="round"/>
<path d="M196.81 136.997H200.585" stroke="black" stroke-width="1.5" stroke-miterlimit="10" stroke-linecap="round" stroke-linejoin="round"/>
<path d="M181.077 147.367H184.853" stroke="black" stroke-width="1.5" stroke-miterlimit="10" stroke-linecap="round" stroke-linejoin="round"/>
<path d="M196.81 147.367H200.585" stroke="black" stroke-width="1.5" stroke-miterlimit="10" stroke-linecap="round" stroke-linejoin="round"/>
<path d="M166.132 127.1H169.908" stroke="black" stroke-width="1.5" stroke-miterlimit="10" stroke-linecap="round" stroke-linejoin="round"/>
<path d="M196.81 117.202H200.585" stroke="black" stroke-width="1.5" stroke-miterlimit="10" stroke-linecap="round" stroke-linejoin="round"/>
<path d="M166.132 117.202H169.908" stroke="black" stroke-width="1.5" stroke-miterlimit="10" stroke-linecap="round" stroke-linejoin="round"/>
<path d="M136.555 117.202H140.33" stroke="black" stroke-width="1.5" stroke-miterlimit="10" stroke-linecap="round" stroke-linejoin="round"/>
<path d="M166.132 147.367H169.908" stroke="black" stroke-width="1.5" stroke-miterlimit="10" stroke-linecap="round" stroke-linejoin="round"/>
<path d="M166.132 157.736H169.908" stroke="black" stroke-width="1.5" stroke-miterlimit="10" stroke-linecap="round" stroke-linejoin="round"/>
<path d="M143.478 89.7082V97.7207" stroke="black" stroke-width="1.5" stroke-miterlimit="10" stroke-linecap="round" stroke-linejoin="round"/>
<path d="M200.271 89.7082V97.7207" stroke="black" stroke-width="1.5" stroke-miterlimit="10" stroke-linecap="round" stroke-linejoin="round"/>
<path d="M105.09 127.1C97.5389 127.1 91.4033 133.227 91.4033 140.768V168.262C91.4033 175.803 97.5389 181.93 105.09 181.93H106.978C107.607 181.93 108.237 182.559 108.237 183.187V192.613C108.237 193.713 109.653 194.342 110.439 193.556L123.654 182.402C123.812 182.244 124.284 182.087 124.598 182.087H142.218C149.77 182.087 155.905 175.96 155.905 168.419V140.768C155.905 133.227 149.77 127.1 142.218 127.1H105.09V127.1Z" fill="white" stroke="black" stroke-width="1.5" stroke-miterlimit="10" stroke-linecap="round" stroke-linejoin="round"/>
<path d="M119.737 138H112.228V165.305H119.737V152.449L129.521 165.305H138.85L127.928 150.856L137.371 138H129.066L119.737 150.287V138Z" fill="#6A4BFF"/>
<circle cx="115.982" cy="172.018" r="3.98203" fill="#6A4BFF"/>
<path d="M249.984 198.269C258.151 198.269 264.772 191.657 264.772 183.501C264.772 175.345 258.151 168.733 249.984 168.733C241.816 168.733 235.195 175.345 235.195 183.501C235.195 191.657 241.816 198.269 249.984 198.269Z" stroke="black" stroke-width="1.5" stroke-miterlimit="10" stroke-linecap="round" stroke-linejoin="round"/>
<path d="M252.501 217.594L247.624 235.032L245.421 242.888L243.376 249.801H284.909L287.111 241.945L289.157 234.718L294.033 217.594H252.501Z" fill="url(#paint10_linear_28906_479322)" stroke="black" stroke-width="1.5" stroke-miterlimit="10" stroke-linecap="round" stroke-linejoin="round"/>
<path d="M249.512 227.963H238.657C237.713 227.963 237.084 227.177 237.084 226.392V220.579" stroke="black" stroke-width="1.5" stroke-miterlimit="10" stroke-linecap="round" stroke-linejoin="round"/>
<path d="M243.376 249.8H207.821" stroke="black" stroke-width="1.5" stroke-miterlimit="10" stroke-linecap="round" stroke-linejoin="round"/>
<path d="M211.912 206.596H208.608C208.136 205.182 207.664 203.611 206.877 202.354L209.237 199.998C210.024 199.212 210.024 197.955 209.237 197.17L204.046 191.985C203.259 191.2 202 191.2 201.214 191.985L198.854 194.342C197.438 193.556 196.022 192.928 194.606 192.613V189.314C194.606 188.214 193.662 187.272 192.561 187.272H185.324C184.223 187.272 183.279 188.214 183.279 189.314V192.456C181.706 192.928 180.29 193.556 179.031 194.185L176.829 191.985C176.042 191.2 174.784 191.2 173.997 191.985L168.806 197.17C168.019 197.955 168.019 199.212 168.806 199.998L171.008 202.197C170.221 203.611 169.592 205.025 169.278 206.596H166.131C165.03 206.596 164.086 207.539 164.086 208.638V215.865C164.086 216.965 165.03 217.908 166.131 217.908H169.278C169.75 219.479 170.379 220.893 171.008 222.307L168.806 224.506C168.019 225.292 168.019 226.549 168.806 227.334L173.997 232.519C174.784 233.304 176.042 233.304 176.829 232.519L179.031 230.319C180.447 231.105 181.863 231.733 183.279 232.047V235.19C183.279 236.289 184.223 237.232 185.324 237.232H192.561C193.662 237.232 194.606 236.289 194.606 235.19V231.89C196.18 231.419 197.595 230.791 198.854 230.162L201.214 232.519C202 233.304 203.259 233.304 204.046 232.519L209.237 227.334C210.024 226.549 210.024 225.292 209.237 224.506L206.877 222.15C207.664 220.893 208.136 219.322 208.608 217.908H211.912C213.013 217.908 213.957 216.965 213.957 215.865V208.638C213.957 207.382 213.013 206.596 211.912 206.596ZM189.1 221.993C183.594 221.993 179.189 217.594 179.189 212.095C179.189 206.596 183.594 202.197 189.1 202.197C194.606 202.197 199.011 206.596 199.011 212.095C198.854 217.594 194.449 221.993 189.1 221.993Z" fill="url(#paint11_linear_28906_479322)" stroke="black" stroke-width="1.5" stroke-miterlimit="10" stroke-linecap="round" stroke-linejoin="round"/>
<path d="M158.895 236.604V232.047C158.895 231.419 158.265 230.791 157.636 230.791H155.591C155.276 229.848 154.962 228.905 154.49 228.12L155.906 226.706C156.378 226.234 156.378 225.449 155.906 224.978L152.759 221.835C152.287 221.364 151.501 221.364 151.029 221.835L149.455 223.092C148.669 222.621 147.725 222.307 146.781 221.993V219.95C146.781 219.322 146.152 218.693 145.522 218.693H140.96C140.331 218.693 139.702 219.322 139.702 219.95V221.993C138.758 222.307 137.814 222.621 137.027 223.092L135.611 221.678C135.139 221.207 134.353 221.207 133.881 221.678L130.734 224.82C130.262 225.292 130.262 226.077 130.734 226.549L132.15 227.963C131.678 228.748 131.364 229.691 131.049 230.633H129.004C128.374 230.633 127.745 231.262 127.745 231.89V236.446C127.745 237.075 128.374 237.703 129.004 237.703H131.049C131.364 238.646 131.678 239.589 132.15 240.374L130.734 241.788C130.262 242.259 130.262 243.045 130.734 243.516L133.881 246.658C134.353 247.13 135.139 247.13 135.611 246.658L137.027 245.244C137.814 245.716 138.758 246.03 139.702 246.344V248.387C139.702 249.015 140.331 249.643 140.96 249.643H145.522C146.152 249.643 146.781 249.015 146.781 248.387V246.658C147.725 246.344 148.669 246.03 149.455 245.559L150.871 246.973C151.343 247.444 152.13 247.444 152.602 246.973L155.748 243.83C156.22 243.359 156.22 242.574 155.748 242.102L154.332 240.688C154.804 239.903 155.119 238.96 155.434 238.017H157.479C158.265 237.86 158.895 237.232 158.895 236.604Z" fill="white" stroke="black" stroke-width="1.5" stroke-miterlimit="10" stroke-linecap="round" stroke-linejoin="round"/>
<path d="M143.32 240.374C146.709 240.374 149.456 237.631 149.456 234.247C149.456 230.863 146.709 228.12 143.32 228.12C139.932 228.12 137.185 230.863 137.185 234.247C137.185 237.631 139.932 240.374 143.32 240.374Z" fill="url(#paint12_linear_28906_479322)" stroke="black" stroke-width="1.5" stroke-miterlimit="10" stroke-linecap="round" stroke-linejoin="round"/>
<path d="M197.439 249.8H193.506" stroke="black" stroke-width="1.5" stroke-miterlimit="10" stroke-linecap="round" stroke-linejoin="round"/>
<path d="M264.3 93.3217V85.4663" stroke="black" stroke-width="1.5" stroke-miterlimit="10" stroke-linecap="round" stroke-linejoin="round"/>
<path d="M264.3 79.0249C266.472 79.0249 268.233 77.2665 268.233 75.0973C268.233 72.9281 266.472 71.1696 264.3 71.1696C262.128 71.1696 260.367 72.9281 260.367 75.0973C260.367 77.2665 262.128 79.0249 264.3 79.0249Z" stroke="black" stroke-width="1.5" stroke-miterlimit="10" stroke-linecap="round" stroke-linejoin="round"/>
<path d="M264.3 132.441V140.297" stroke="black" stroke-width="1.5" stroke-miterlimit="10" stroke-linecap="round" stroke-linejoin="round"/>
<path d="M244.635 112.96H236.926" stroke="black" stroke-width="1.5" stroke-miterlimit="10" stroke-linecap="round" stroke-linejoin="round"/>
<path d="M226.385 116.888C228.557 116.888 230.318 115.129 230.318 112.96C230.318 110.791 228.557 109.032 226.385 109.032C224.213 109.032 222.452 110.791 222.452 112.96C222.452 115.129 224.213 116.888 226.385 116.888Z" stroke="black" stroke-width="1.5" stroke-miterlimit="10" stroke-linecap="round" stroke-linejoin="round"/>
<path d="M283.65 112.96H291.831" stroke="black" stroke-width="1.5" stroke-miterlimit="10" stroke-linecap="round" stroke-linejoin="round"/>
<path d="M250.455 98.9776L244.949 93.4788" stroke="black" stroke-width="1.5" stroke-miterlimit="10" stroke-linecap="round" stroke-linejoin="round"/>
<path d="M278.145 126.628L283.808 132.284" stroke="black" stroke-width="1.5" stroke-miterlimit="10" stroke-linecap="round" stroke-linejoin="round"/>
<path d="M291.203 143.596C293.375 143.596 295.136 141.838 295.136 139.668C295.136 137.499 293.375 135.741 291.203 135.741C289.03 135.741 287.27 137.499 287.27 139.668C287.27 141.838 289.03 143.596 291.203 143.596Z" stroke="black" stroke-width="1.5" stroke-miterlimit="10" stroke-linecap="round" stroke-linejoin="round"/>
<path d="M250.455 126.786L244.949 132.284" stroke="black" stroke-width="1.5" stroke-miterlimit="10" stroke-linecap="round" stroke-linejoin="round"/>
<path d="M237.555 143.596C239.727 143.596 241.488 141.838 241.488 139.668C241.488 137.499 239.727 135.741 237.555 135.741C235.383 135.741 233.622 137.499 233.622 139.668C233.622 141.838 235.383 143.596 237.555 143.596Z" stroke="black" stroke-width="1.5" stroke-miterlimit="10" stroke-linecap="round" stroke-linejoin="round"/>
<path d="M278.145 99.1347L283.808 93.4788" stroke="black" stroke-width="1.5" stroke-miterlimit="10" stroke-linecap="round" stroke-linejoin="round"/>
<path d="M291.203 90.0224C293.375 90.0224 295.136 88.264 295.136 86.0948C295.136 83.9256 293.375 82.1671 291.203 82.1671C289.03 82.1671 287.27 83.9256 287.27 86.0948C287.27 88.264 289.03 90.0224 291.203 90.0224Z" stroke="black" stroke-width="1.5" stroke-miterlimit="10" stroke-linecap="round" stroke-linejoin="round"/>
<path d="M264.3 104.005V112.96H270.907" stroke="white" stroke-width="1.5" stroke-miterlimit="10" stroke-linecap="round" stroke-linejoin="round"/>
<path d="M264.3 98.3491V98.8204" stroke="white" stroke-width="1.5" stroke-miterlimit="10" stroke-linecap="round" stroke-linejoin="round"/>
<path d="M264.3 127.1V127.414" stroke="white" stroke-width="1.5" stroke-miterlimit="10" stroke-linecap="round" stroke-linejoin="round"/>
<path d="M278.459 112.96H278.931" stroke="white" stroke-width="1.5" stroke-miterlimit="10" stroke-linecap="round" stroke-linejoin="round"/>
<path d="M257.063 100.392L257.221 100.706" stroke="white" stroke-width="1.5" stroke-miterlimit="10" stroke-linecap="round" stroke-linejoin="round"/>
<path d="M271.38 125.057L271.695 125.529" stroke="white" stroke-width="1.5" stroke-miterlimit="10" stroke-linecap="round" stroke-linejoin="round"/>
<path d="M251.715 120.187L252.187 120.03" stroke="white" stroke-width="1.5" stroke-miterlimit="10" stroke-linecap="round" stroke-linejoin="round"/>
<path d="M276.571 105.89L276.886 105.733" stroke="white" stroke-width="1.5" stroke-miterlimit="10" stroke-linecap="round" stroke-linejoin="round"/>
<path d="M271.695 100.392L271.38 100.706" stroke="white" stroke-width="1.5" stroke-miterlimit="10" stroke-linecap="round" stroke-linejoin="round"/>
<path d="M257.221 125.057L257.063 125.529" stroke="white" stroke-width="1.5" stroke-miterlimit="10" stroke-linecap="round" stroke-linejoin="round"/>
<path d="M251.715 105.733L252.187 105.89" stroke="white" stroke-width="1.5" stroke-miterlimit="10" stroke-linecap="round" stroke-linejoin="round"/>
<path d="M276.571 120.03L276.886 120.187" stroke="white" stroke-width="1.5" stroke-miterlimit="10" stroke-linecap="round" stroke-linejoin="round"/>
<path d="M249.512 112.96H249.984" stroke="white" stroke-width="1.5" stroke-miterlimit="10" stroke-linecap="round" stroke-linejoin="round"/>
<path d="M297.81 112.332L300.327 114.845L304.417 110.918" stroke="black" stroke-width="1.5" stroke-miterlimit="10" stroke-linecap="round" stroke-linejoin="round"/>
<path d="M284.909 249.8H306.462" stroke="black" stroke-width="1.5" stroke-miterlimit="10" stroke-linecap="round" stroke-linejoin="round"/>
<path d="M234.881 87.3516L237.555 90.0224L241.488 85.9377" stroke="black" stroke-width="1.5" stroke-miterlimit="10" stroke-linecap="round" stroke-linejoin="round"/>
<path d="M261.311 147.838L263.985 150.509L267.918 146.424" stroke="black" stroke-width="1.5" stroke-miterlimit="10" stroke-linecap="round" stroke-linejoin="round"/>
<path d="M179.976 157.107L182.335 159.621L186.111 155.85" stroke="black" stroke-width="1.5" stroke-miterlimit="10" stroke-linecap="round" stroke-linejoin="round"/>
<path d="M164.873 136.369L167.39 138.726L171.009 135.112" stroke="black" stroke-width="1.5" stroke-miterlimit="10" stroke-linecap="round" stroke-linejoin="round"/>
<path d="M179.976 136.369L182.335 138.726L186.111 135.112" stroke="black" stroke-width="1.5" stroke-miterlimit="10" stroke-linecap="round" stroke-linejoin="round"/>
<path d="M179.976 116.731L182.335 119.087L186.111 115.474" stroke="black" stroke-width="1.5" stroke-miterlimit="10" stroke-linecap="round" stroke-linejoin="round"/>
<path d="M150.399 116.731L152.917 119.087L156.535 115.474" stroke="black" stroke-width="1.5" stroke-miterlimit="10" stroke-linecap="round" stroke-linejoin="round"/>
<path d="M272.953 211.466C270.278 207.382 265.716 204.711 260.367 204.711H239.758C231.42 204.711 224.812 211.466 224.812 219.636V231.576C224.812 236.289 228.588 240.217 233.465 240.217H246.208" stroke="black" stroke-width="1.5" stroke-miterlimit="10" stroke-linecap="round" stroke-linejoin="round"/>
</g>
<defs>
<linearGradient id="paint0_linear_28906_479322" x1="25.1719" y1="197.955" x2="157.637" y2="197.955" gradientUnits="userSpaceOnUse">
<stop stop-color="#F3E7FF"/>
<stop offset="1" stop-color="#CDE6FF"/>
</linearGradient>
<linearGradient id="paint1_linear_28906_479322" x1="327.071" y1="36.606" x2="381.505" y2="36.606" gradientUnits="userSpaceOnUse">
<stop stop-color="#F3E7FF"/>
<stop offset="1" stop-color="#CDE6FF"/>
</linearGradient>
<linearGradient id="paint2_linear_28906_479322" x1="326.914" y1="160.906" x2="381.505" y2="160.906" gradientUnits="userSpaceOnUse">
<stop stop-color="#F3E7FF"/>
<stop offset="1" stop-color="#CDE6FF"/>
</linearGradient>
<linearGradient id="paint3_linear_28906_479322" x1="218.048" y1="307.016" x2="312.598" y2="307.016" gradientUnits="userSpaceOnUse">
<stop stop-color="#F3E7FF"/>
<stop offset="1" stop-color="#CDE6FF"/>
</linearGradient>
<linearGradient id="paint4_linear_28906_479322" x1="8.65234" y1="106.39" x2="42.9484" y2="106.39" gradientUnits="userSpaceOnUse">
<stop stop-color="#F3E7FF"/>
<stop offset="1" stop-color="#CDE6FF"/>
</linearGradient>
<linearGradient id="paint5_linear_28906_479322" x1="235.195" y1="46.2182" x2="263.828" y2="46.2182" gradientUnits="userSpaceOnUse">
<stop stop-color="#F3E7FF"/>
<stop offset="1" stop-color="#CDE6FF"/>
</linearGradient>
<linearGradient id="paint6_linear_28906_479322" x1="330.69" y1="213.887" x2="351.257" y2="213.887" gradientUnits="userSpaceOnUse">
<stop stop-color="#F3E7FF"/>
<stop offset="1" stop-color="#CDE6FF"/>
</linearGradient>
<linearGradient id="paint7_linear_28906_479322" x1="97.8096" y1="7.46064" x2="112.77" y2="7.46064" gradientUnits="userSpaceOnUse">
<stop stop-color="#F3E7FF"/>
<stop offset="1" stop-color="#CDE6FF"/>
</linearGradient>
<linearGradient id="paint8_linear_28906_479322" x1="70.0078" y1="286.564" x2="84.4814" y2="286.564" gradientUnits="userSpaceOnUse">
<stop stop-color="#F3E7FF"/>
<stop offset="1" stop-color="#CDE6FF"/>
</linearGradient>
<linearGradient id="paint9_linear_28906_479322" x1="124.127" y1="100.156" x2="213.014" y2="100.156" gradientUnits="userSpaceOnUse">
<stop stop-color="#F3E7FF"/>
<stop offset="1" stop-color="#CDE6FF"/>
</linearGradient>
<linearGradient id="paint10_linear_28906_479322" x1="243.376" y1="233.697" x2="294.033" y2="233.697" gradientUnits="userSpaceOnUse">
<stop stop-color="#F3E7FF"/>
<stop offset="1" stop-color="#CDE6FF"/>
</linearGradient>
<linearGradient id="paint11_linear_28906_479322" x1="164.086" y1="212.252" x2="213.957" y2="212.252" gradientUnits="userSpaceOnUse">
<stop stop-color="#F3E7FF"/>
<stop offset="1" stop-color="#CDE6FF"/>
</linearGradient>
<linearGradient id="paint12_linear_28906_479322" x1="137.185" y1="234.247" x2="149.456" y2="234.247" gradientUnits="userSpaceOnUse">
<stop stop-color="#F3E7FF"/>
<stop offset="1" stop-color="#CDE6FF"/>
</linearGradient>
<clipPath id="clip0_28906_479322">
<rect width="390" height="315" fill="white"/>
</clipPath>
</defs>
</svg>
