<svg width="139" height="82" viewBox="0 0 139 82" fill="none" xmlns="http://www.w3.org/2000/svg">
<path fill-rule="evenodd" clip-rule="evenodd" d="M127.904 69.9759H127.905C130.966 69.9943 133.898 70.012 136.83 69.93C138.748 69.8709 139.102 70.6679 138.866 72.3505C138.04 77.9591 133.405 81.9146 127.502 81.9146C116.305 81.9343 105.122 81.9277 93.9344 81.9212C88.3389 81.9179 82.7424 81.9146 77.1425 81.9146H11.4338C5.58904 81.9146 1.04315 78.0772 0.0985465 72.5867C-0.22616 70.727 0.187103 69.8709 2.31245 69.93C5.32649 70.0408 8.34052 70.0018 11.3421 69.9631H11.3424L11.3438 69.963C12.3396 69.9502 13.334 69.9373 14.3266 69.93C14.4385 69.93 14.5503 69.896 14.8165 69.8154L14.8165 69.8153L14.8171 69.8152C14.902 69.7894 15.0025 69.759 15.1236 69.7233V67.2733V7.14354C15.1531 1.97776 17.1014 0 22.2671 0H116.727C121.864 0 123.812 1.94824 123.812 7.14354V67.0371C123.782 67.9227 123.782 68.7787 123.782 69.9595C125.188 69.9595 126.559 69.9678 127.904 69.9759ZM16.8652 69.7529H122.247C122.247 67.1835 122.251 64.6373 122.254 62.1053L122.254 62.0956V62.093C122.26 57.0661 122.267 52.0956 122.247 47.112C122.233 40.4771 122.21 33.8422 122.188 27.2074L122.188 27.1868C122.166 20.5451 122.144 13.9033 122.129 7.26162C122.129 2.86332 120.948 1.68257 116.609 1.68257H22.3852C18.0755 1.68257 16.8652 2.89284 16.8652 7.26162V67.1552V69.7529ZM137.066 71.8487H1.92871C2.60764 77.103 6.32701 80.2025 11.847 80.2025H127.177C127.708 80.2025 128.21 80.2025 128.741 80.173C133.081 79.7597 136.446 76.4831 137.066 71.8487ZM69.2613 64.4985C65.6831 64.4985 62.103 64.4948 58.522 64.4911C47.7753 64.48 37.0203 64.4689 26.2819 64.5575C24.0976 64.5575 23.5367 63.8786 23.5662 61.7827C23.7138 52.6614 23.7433 43.5401 23.7433 34.3893C23.7433 26.0945 23.6843 17.7702 23.5662 9.47546C23.5367 7.79289 23.95 7.14348 25.8097 7.14348C54.9152 7.20252 84.0207 7.20252 113.126 7.14348C114.956 7.14348 115.37 7.76337 115.37 9.47546C115.311 27.0687 115.311 44.6323 115.37 62.2255C115.37 64.1442 114.691 64.587 112.92 64.5575C101.277 64.4866 89.6351 64.4914 77.993 64.4961C75.0824 64.4973 72.1718 64.4985 69.2613 64.4985ZM25.3374 62.6093H113.539V9.0622H25.3374V62.6093ZM65.7176 76.7824C66.9591 76.7805 68.1996 76.7787 69.4383 76.7787C70.429 76.7787 71.421 76.7799 72.4138 76.7811C76.3907 76.7858 80.3828 76.7905 84.3748 76.7197C84.8107 76.7197 85.2334 76.4669 85.6605 76.2115C85.8697 76.0864 86.08 75.9607 86.2935 75.8636C86.1049 75.7828 85.9162 75.6828 85.7275 75.5828C85.2963 75.3542 84.8651 75.1257 84.4338 75.1257C74.486 75.0666 64.5677 75.0666 54.6199 75.1257C54.1869 75.1257 53.754 75.388 53.321 75.6504C53.1046 75.7816 52.8881 75.9128 52.6716 76.0112C52.8603 76.0921 53.049 76.1921 53.2376 76.2921C53.6689 76.5206 54.1001 76.7492 54.5313 76.7492C58.2518 76.7935 61.9888 76.7879 65.7176 76.7824Z" fill="#C3CEEB"/>
</svg>
