<svg width="109" height="98" viewBox="0 0 109 98" fill="none" xmlns="http://www.w3.org/2000/svg">
<path d="M86.0104 96.1655L20.424 20.6955C19.3957 19.4957 19.51 17.6961 20.7097 16.6678L37.9347 1.69944C39.1344 0.67108 40.9341 0.785342 41.9624 1.98509L107.549 77.4551C108.577 78.6549 108.463 80.4545 107.263 81.4828L90.0096 96.4797C88.8384 97.4795 87.0388 97.3653 86.0104 96.1655Z" fill="#c3ceeb" stroke="#C3CEEB" stroke-miterlimit="10"/>
<path d="M45.4341 20.0667C45.4341 23.703 42.4862 26.6509 38.8499 26.6509C35.2135 26.6509 32.2656 23.703 32.2656 20.0667C32.2656 16.4303 35.2135 13.4824 38.8499 13.4824C42.4862 13.4824 45.4341 16.4303 45.4341 20.0667Z" fill="#C3CEEB" stroke="#6B93C0"/>
<path d="M38.8494 13.0686C42.7057 13.0686 45.8479 16.2108 45.8479 20.0672C45.8479 23.9235 42.7057 27.0657 38.8494 27.0657C34.993 27.0657 31.8508 23.9235 31.8508 20.0672C31.8508 16.2108 34.993 13.0686 38.8494 13.0686ZM38.8494 12.9258C34.9073 12.9258 31.708 16.1251 31.708 20.0672C31.708 24.0092 34.9073 27.2085 38.8494 27.2085C42.7914 27.2085 45.9908 24.0092 45.9908 20.0672C45.9908 16.1251 42.7914 12.9258 38.8494 12.9258Z" fill="#6B93C0"/>
<g style="mix-blend-mode:screen" >
<path d="M69.2993 71.0861L39.5341 36.8647C39.3341 36.6362 39.3627 36.2648 39.5912 36.0649L54.7024 22.9247C54.9309 22.7248 55.3023 22.7533 55.5022 22.9819L85.2675 57.2319C85.4674 57.4604 85.4388 57.8318 85.2103 58.0317L70.0992 71.1718C69.8421 71.3718 69.4993 71.3432 69.2993 71.0861Z" fill="#d0dcf3"/>
</g>
<path d="M0.142578 92.1958V63.916H88.5528C96.3511 63.916 102.693 70.2575 102.693 78.0559C102.693 85.8543 96.3511 92.1958 88.5528 92.1958H0.142578Z" fill="white"/>
<mask id="path-6-inside-1" fill="white">
<path d="M88.553 64.0571C96.2657 64.0571 102.55 70.3415 102.55 78.0542C102.55 85.7669 96.2657 92.0513 88.553 92.0513H0.285655V64.0571H88.553ZM88.553 63.7715H0V92.337H88.553C96.4371 92.337 102.836 85.9383 102.836 78.0542C102.836 70.1701 96.4371 63.7715 88.553 63.7715Z"/>
</mask>
<path d="M88.553 64.0571C96.2657 64.0571 102.55 70.3415 102.55 78.0542C102.55 85.7669 96.2657 92.0513 88.553 92.0513H0.285655V64.0571H88.553ZM88.553 63.7715H0V92.337H88.553C96.4371 92.337 102.836 85.9383 102.836 78.0542C102.836 70.1701 96.4371 63.7715 88.553 63.7715Z" fill="black"/>
<path d="M0.285655 92.0513H-0.714345V93.0513H0.285655V92.0513ZM0.285655 64.0571V63.0571H-0.714345V64.0571H0.285655ZM0 63.7715V62.7715H-1V63.7715H0ZM0 92.337H-1V93.337H0V92.337ZM88.553 65.0571C95.7134 65.0571 101.55 70.8938 101.55 78.0542H103.55C103.55 69.7893 96.818 63.0571 88.553 63.0571V65.0571ZM101.55 78.0542C101.55 85.2146 95.7134 91.0513 88.553 91.0513V93.0513C96.818 93.0513 103.55 86.3192 103.55 78.0542H101.55ZM88.553 91.0513H0.285655V93.0513H88.553V91.0513ZM1.28565 92.0513V64.0571H-0.714345V92.0513H1.28565ZM0.285655 65.0571H88.553V63.0571H0.285655V65.0571ZM88.553 62.7715H0V64.7715H88.553V62.7715ZM-1 63.7715V92.337H1V63.7715H-1ZM0 93.337H88.553V91.337H0V93.337ZM88.553 93.337C96.9894 93.337 103.836 86.4906 103.836 78.0542H101.836C101.836 85.386 95.8848 91.337 88.553 91.337V93.337ZM103.836 78.0542C103.836 69.6179 96.9894 62.7715 88.553 62.7715V64.7715C95.8848 64.7715 101.836 70.7224 101.836 78.0542H103.836Z" fill="#C3CEEB" mask="url(#path-6-inside-1)"/>
<path d="M87.1255 85.3389C90.9907 85.3389 94.124 82.2055 94.124 78.3403C94.124 74.4751 90.9907 71.3418 87.1255 71.3418C83.2603 71.3418 80.127 74.4751 80.127 78.3403C80.127 82.2055 83.2603 85.3389 87.1255 85.3389Z" fill="white"/>
<mask id="path-9-inside-2" fill="white">
<path d="M87.1257 71.4849C90.8964 71.4849 93.9815 74.5699 93.9815 78.3406C93.9815 82.1112 90.8964 85.1963 87.1257 85.1963C83.3551 85.1963 80.27 82.1112 80.27 78.3406C80.27 74.5699 83.3551 71.4849 87.1257 71.4849ZM87.1257 71.1992C83.1837 71.1992 79.9844 74.3985 79.9844 78.3406C79.9844 82.2826 83.1837 85.482 87.1257 85.482C91.0678 85.482 94.2671 82.2826 94.2671 78.3406C94.2671 74.3985 91.0678 71.1992 87.1257 71.1992Z"/>
</mask>
<path d="M87.1257 71.4849C90.8964 71.4849 93.9815 74.5699 93.9815 78.3406C93.9815 82.1112 90.8964 85.1963 87.1257 85.1963C83.3551 85.1963 80.27 82.1112 80.27 78.3406C80.27 74.5699 83.3551 71.4849 87.1257 71.4849ZM87.1257 71.1992C83.1837 71.1992 79.9844 74.3985 79.9844 78.3406C79.9844 82.2826 83.1837 85.482 87.1257 85.482C91.0678 85.482 94.2671 82.2826 94.2671 78.3406C94.2671 74.3985 91.0678 71.1992 87.1257 71.1992Z" fill="black"/>
<path d="M87.1257 72.4849C90.3441 72.4849 92.9815 75.1222 92.9815 78.3406H94.9815C94.9815 74.0177 91.4487 70.4849 87.1257 70.4849V72.4849ZM92.9815 78.3406C92.9815 81.5589 90.3441 84.1963 87.1257 84.1963V86.1963C91.4487 86.1963 94.9815 82.6635 94.9815 78.3406H92.9815ZM87.1257 84.1963C83.9074 84.1963 81.27 81.5589 81.27 78.3406H79.27C79.27 82.6635 82.8028 86.1963 87.1257 86.1963V84.1963ZM81.27 78.3406C81.27 75.1222 83.9074 72.4849 87.1257 72.4849V70.4849C82.8028 70.4849 79.27 74.0177 79.27 78.3406H81.27ZM87.1257 70.1992C82.6314 70.1992 78.9844 73.8463 78.9844 78.3406H80.9844C80.9844 74.9508 83.736 72.1992 87.1257 72.1992V70.1992ZM78.9844 78.3406C78.9844 82.8349 82.6314 86.482 87.1257 86.482V84.482C83.736 84.482 80.9844 81.7303 80.9844 78.3406H78.9844ZM87.1257 86.482C91.6201 86.482 95.2671 82.8349 95.2671 78.3406H93.2671C93.2671 81.7303 90.5155 84.482 87.1257 84.482V86.482ZM95.2671 78.3406C95.2671 73.8463 91.6201 70.1992 87.1257 70.1992V72.1992C90.5155 72.1992 93.2671 74.9508 93.2671 78.3406H95.2671Z" fill="#C3CEEB" mask="url(#path-9-inside-2)"/>
<path d="M75.054 61.4369L70.9851 61.2289C70.8197 61.2198 70.7458 61.1374 70.7635 60.9816L70.779 60.4431C70.7967 60.2873 70.8791 60.2134 71.0262 60.2214L74.3228 60.3873L74.5163 57.0922C74.5244 56.9451 74.6068 56.8713 74.7636 56.8706L75.3006 56.9137C75.4574 56.913 75.5313 56.9954 75.5223 57.1609L75.2867 61.2283C75.2786 61.3754 75.2011 61.4449 75.054 61.4369Z" fill="#6B93C0"/>
<path d="M49.6472 32.4498L53.716 32.6579C53.8815 32.6669 53.9554 32.7493 53.9377 32.9051L53.9222 33.4436C53.9044 33.5994 53.822 33.6733 53.6749 33.6653L50.3783 33.4994L50.1848 36.7945C50.1768 36.9416 50.0944 37.0155 49.9376 37.0161L49.4005 36.973C49.2438 36.9737 49.1699 36.8913 49.1789 36.7258L49.4145 32.6584C49.4225 32.5113 49.5001 32.4418 49.6472 32.4498Z" fill="#6B93C0"/>
<path d="M66.8826 49.3202C67.7765 48.3638 67.3674 47.2353 66.5303 46.0929L67.8845 44.8973L67.1637 44.0756L65.8452 45.24C65.6562 45.0242 65.4587 44.8073 65.262 44.5918L66.5892 43.4202L65.8691 42.599L64.5154 43.7939C64.3561 43.6195 64.1995 43.4479 64.0498 43.2772L64.0542 43.2736L63.0611 42.1407L62.1802 42.9179C62.1802 42.9179 62.7241 43.5143 62.7035 43.5142C62.9948 43.847 62.8966 44.1263 62.7566 44.3058L59.0473 47.5813C58.9293 47.6596 58.708 47.746 58.5032 47.5137C58.5033 47.5326 57.9797 46.9163 57.9797 46.9163L56.8528 47.6227L57.7904 48.6918C57.9647 48.8907 58.1328 49.0892 58.2999 49.2823L56.9304 50.4919L57.6499 51.3127L59.0049 50.1158C59.1975 50.3454 59.3871 50.5644 59.5739 50.7778L58.225 51.9685L58.9451 52.7897L60.3128 51.5827C61.6035 52.8938 62.8007 53.5519 64.2063 52.5225C65.3387 51.694 65.3764 50.7901 64.8776 49.8389C65.5389 50.1011 66.229 50.0199 66.8826 49.3202ZM62.9463 50.7566C61.9232 51.6607 60.508 49.8122 60.0191 49.2558L61.8334 47.6526C62.3219 48.2097 64.0131 49.8138 62.9463 50.7566ZM65.1711 48.1137C64.2397 48.9354 63.0714 47.3834 62.6643 46.9194L64.3093 45.466C64.7165 45.93 66.1424 47.2561 65.1711 48.1137Z" fill="#6B93C0"/>
</svg>
