<svg width="40" height="40" viewBox="0 0 40 40" fill="none" xmlns="http://www.w3.org/2000/svg">
<path d="M40 20C40 24.423 38.5339 28.7211 35.831 32.2221C33.1281 35.7231 29.341 38.2294 25.062 39.3488C20.7831 40.4683 16.2538 40.1378 12.1827 38.409C8.11165 36.6802 4.72845 33.6507 2.56244 29.7945C0.396422 25.9382 -0.430211 21.4727 0.21186 17.0967C0.853931 12.7206 2.92849 8.68076 6.11096 5.60924C9.29344 2.53773 13.4043 0.607783 17.8004 0.12135C22.1965 -0.365083 26.6299 0.619437 30.4069 2.92088L29.083 5.09352C25.7865 3.08484 21.9171 2.22556 18.0802 2.65011C14.2433 3.07467 10.6554 4.7591 7.87778 7.43989C5.10015 10.1207 3.2895 13.6466 2.7291 17.466C2.16871 21.2854 2.89019 25.1828 4.78066 28.5485C6.67114 31.9142 9.62396 34.5584 13.1772 36.0672C16.7304 37.576 20.6835 37.8645 24.4181 36.8875C28.1527 35.9104 31.4581 33.723 33.8171 30.6673C36.1762 27.6117 37.4558 23.8603 37.4558 20H40Z" fill="#59779A"/>
<path fill-rule="evenodd" clip-rule="evenodd" d="M37.4558 20C37.4558 23.8603 36.1762 27.6117 33.8171 30.6673C31.4581 33.723 28.1527 35.9104 24.4181 36.8875C20.6835 37.8645 16.7304 37.576 13.1772 36.0672C9.62396 34.5584 6.67114 31.9142 4.78066 28.5485C2.89019 25.1828 2.16871 21.2854 2.7291 17.466C3.2895 13.6466 5.10015 10.1207 7.87778 7.43989C10.6554 4.7591 14.2433 3.07467 18.0802 2.65011C21.9171 2.22556 25.7865 3.08484 29.083 5.09352L30.4069 2.92088C29.8344 2.57209 29.2469 2.25354 28.6468 1.96578C25.2869 0.354807 21.5303 -0.291362 17.8004 0.12135C13.4043 0.607783 9.29344 2.53773 6.11096 5.60924C2.92849 8.68076 0.853931 12.7206 0.21186 17.0967C-0.430211 21.4727 0.396422 25.9382 2.56244 29.7945C4.72845 33.6507 8.11165 36.6802 12.1827 38.409C16.2538 40.1378 20.7831 40.4683 25.062 39.3488C29.341 38.2294 33.1281 35.7231 35.831 32.2221C38.1242 29.2517 39.5272 25.7075 39.8998 22C39.9663 21.3378 40 20.6703 40 20H37.4558Z" fill="#6B93C0"/>
<path d="M11.0225 24.4046C10.0484 22.4193 9.75992 20.167 10.2021 18.0002C10.6444 15.8334 11.7924 13.8743 13.4666 12.4294C15.1408 10.9845 17.2467 10.1354 19.4548 10.0148C21.663 9.89417 23.8489 10.509 25.6705 11.7629C27.4921 13.0169 28.8466 14.8393 29.5221 16.9451C30.1977 19.0508 30.1562 21.3211 29.4041 23.4008C28.652 25.4804 27.2318 27.2521 25.3656 28.4386C23.4994 29.6252 21.2925 30.1596 19.0902 29.9584L19.3312 27.3209C20.9502 27.4688 22.5726 27.0759 23.9445 26.2036C25.3165 25.3313 26.3605 24.0289 26.9134 22.5C27.4663 20.9712 27.4969 19.3022 27.0002 17.7541C26.5036 16.2061 25.5078 14.8664 24.1687 13.9445C22.8295 13.0227 21.2226 12.5707 19.5993 12.6594C17.9759 12.748 16.4278 13.3723 15.197 14.4345C13.9662 15.4967 13.1223 16.9369 12.7972 18.5298C12.4721 20.1227 12.6842 21.7785 13.4003 23.238L11.0225 24.4046Z" fill="#59779A"/>
<path fill-rule="evenodd" clip-rule="evenodd" d="M13.4003 23.238C12.6842 21.7785 12.4721 20.1227 12.7972 18.5298C13.1223 16.9369 13.9662 15.4967 15.197 14.4345C16.4278 13.3723 17.9759 12.748 19.5993 12.6594C21.2226 12.5707 22.8295 13.0227 24.1687 13.9445C25.5078 14.8664 26.5036 16.2061 27.0002 17.7541C27.4969 19.3022 27.4663 20.9712 26.9134 22.5C26.3605 24.0289 25.3165 25.3313 23.9445 26.2036C22.5726 27.0759 20.9502 27.4688 19.3312 27.3209L19.0902 29.9584C19.7631 30.0199 20.4364 30.0127 21.1003 29.9392C22.6092 29.7722 24.0696 29.2626 25.3656 28.4386C27.2318 27.2521 28.652 25.4804 29.4041 23.4008C30.1562 21.3211 30.1977 19.0508 29.5221 16.9451C28.8466 14.8393 27.4921 13.0169 25.6705 11.7629C23.8489 10.509 21.663 9.89417 19.4548 10.0148C17.2467 10.1354 15.1408 10.9845 13.4666 12.4294C11.7924 13.8743 10.6444 15.8334 10.2021 18.0002C9.89504 19.505 9.94034 21.0509 10.3229 22.5201C10.4913 23.1665 10.7249 23.798 11.0225 24.4046L13.4003 23.238Z" fill="#6B93C0"/>
</svg>
