<svg width="64" height="94" viewBox="0 0 64 94" fill="none" xmlns="http://www.w3.org/2000/svg">
<path d="M63.3337 83.388C53.6157 86.779 43.9778 90.0103 34.4198 93.481C32.4602 94.1991 30.8606 94.1592 28.941 93.4411C20.0629 90.1699 11.1848 87.0582 2.26665 83.9465C1.06691 83.5077 0.666992 82.9891 0.666992 81.6726C0.706984 66.8723 0.706984 52.0322 0.666992 37.2318C0.666992 35.6361 1.30686 34.6787 2.66657 34.2C3.9063 33.7213 5.18603 33.2027 6.46576 33.083C8.06542 32.8835 8.26538 32.0857 8.30537 30.6894C8.30537 25.982 7.82547 21.2348 9.42513 16.6471C12.3845 7.9105 18.5032 2.64462 27.5413 0.53029C41.3783 -2.66115 56.0152 8.98761 55.8153 23.7879C55.7753 26.3012 55.7353 28.8543 55.8552 31.3676C55.8952 31.9261 56.5751 32.7239 57.095 32.8835C63.3337 34.5989 63.3337 34.5989 63.3337 40.9419C63.3337 54.9842 63.3337 69.0665 63.3337 83.388ZM52.9759 60.1703C52.9759 56.1012 52.9759 52.072 52.9759 48.003C52.9759 44.5722 52.9759 44.3328 49.5366 44.0934C42.1782 43.5748 34.7797 43.136 27.3813 43.0961C22.3424 43.0562 17.3035 43.7743 12.2645 44.1732C10.4249 44.3328 9.58509 45.1706 9.62509 47.2849C9.78505 55.9816 9.70507 64.7181 9.66508 73.4148C9.66508 74.7712 10.025 75.3696 11.3447 75.8483C17.7034 78.0424 23.982 80.3961 30.3407 82.5902C31.1405 82.8694 32.1803 82.8295 32.9801 82.5503C39.0588 80.3961 45.0975 78.0823 51.1762 75.9281C52.496 75.4493 53.0158 74.8509 52.9759 73.3749C52.8959 68.9468 52.9759 64.5586 52.9759 60.1703ZM45.8974 31.2878C45.8974 28.3357 46.1373 25.3437 45.8574 22.4315C45.1775 15.4902 39.6187 10.344 32.7002 9.98493C25.9016 9.62589 19.7029 14.1338 18.5032 20.9156C17.9033 24.3065 18.3832 27.857 18.3832 31.2878C27.5013 31.2878 36.6593 31.2878 45.8974 31.2878Z" fill="#C3CEEB"/>
</svg>
