<svg width="20" height="20" viewBox="0 0 20 20" fill="none" xmlns="http://www.w3.org/2000/svg">
<path d="M2.78124 16.9932H9.90618C10.3223 16.9932 10.6599 16.6555 10.6599 16.2394C10.6599 15.8233 10.3223 15.4857 9.90618 15.4857H2.78124C2.54265 15.4857 2.34749 15.2905 2.34749 15.0519V8.32282C2.34749 8.08423 2.54265 7.88908 2.78124 7.88908H11.8853C12.1239 7.88908 12.3191 8.08423 12.3191 8.32282V10.6978C12.3191 11.1139 12.6567 11.4515 13.0728 11.4515C13.4889 11.4515 13.8266 11.1139 13.8266 10.6978V8.32282C13.8266 7.2528 12.9554 6.38159 11.8853 6.38159H2.78124C1.71121 6.38159 0.84 7.2528 0.84 8.32282V15.0519C0.84 16.122 1.71121 16.9932 2.78124 16.9932Z" fill="#FF5722" stroke="#FF5722" stroke-width="0.32"/>
<path d="M9.94411 7.13537C9.94411 7.55148 10.2817 7.88911 10.6979 7.88911C11.114 7.88911 11.4516 7.55148 11.4516 7.13537V4.9583C11.4516 2.68733 9.60427 0.84 7.3333 0.84C5.06233 0.84 3.215 2.68733 3.215 4.9583V7.13537C3.215 7.55148 3.55263 7.88911 3.96875 7.88911C4.38486 7.88911 4.72249 7.55148 4.72249 7.13537V4.9583C4.72249 3.51876 5.89376 2.34749 7.3333 2.34749C8.77284 2.34749 9.94411 3.51876 9.94411 4.9583V7.13537Z" fill="#FF5722" stroke="#FF5722" stroke-width="0.32"/>
<path d="M19.4063 15.2499H17.823C17.4952 15.2499 17.2292 14.9839 17.2292 14.6561C17.2292 14.3284 17.4952 14.0624 17.823 14.0624H18.8126V13.0728C18.8126 12.7451 19.0786 12.4791 19.4063 12.4791C19.7341 12.4791 20.0001 12.7451 20.0001 13.0728V14.6561C20.0001 14.9839 19.7341 15.2499 19.4063 15.2499Z" fill="#FF5722"/>
<path d="M12.6769 19.604C12.3491 19.604 12.0831 19.338 12.0831 19.0102V17.4269C12.0831 17.0992 12.3491 16.8332 12.6769 16.8332H14.2602C14.5879 16.8332 14.8539 17.0992 14.8539 17.4269C14.8539 17.7547 14.5879 18.0207 14.2602 18.0207H13.2706V19.0102C13.2706 19.338 13.0046 19.604 12.6769 19.604Z" fill="#FF5722"/>
<path d="M12.8274 15.6457C12.7704 15.6457 12.7119 15.637 12.6549 15.6204C12.3414 15.5246 12.164 15.1929 12.259 14.8794C12.7681 13.2066 14.2881 12.0833 16.0416 12.0833C17.5062 12.0833 18.8417 12.8868 19.5273 14.1796C19.6801 14.4693 19.57 14.8287 19.2803 14.9831C18.9881 15.1343 18.6311 15.0259 18.4767 14.7361C17.9994 13.832 17.0652 13.2707 16.0416 13.2707C14.8145 13.2707 13.7513 14.0561 13.3959 15.2246C13.3183 15.4811 13.0824 15.6457 12.8274 15.6457Z" fill="#FF5722"/>
<path d="M16.0416 19.9999C14.577 19.9999 13.2414 19.1964 12.5559 17.9036C12.4031 17.6138 12.5131 17.2544 12.8029 17.1C13.0942 16.948 13.452 17.0573 13.6064 17.347C14.0838 18.2511 15.0179 18.8124 16.0416 18.8124C17.2615 18.8124 18.3255 18.0263 18.6889 16.8546C18.7862 16.5419 19.1179 16.3662 19.4314 16.4643C19.7449 16.5609 19.9191 16.8942 19.8217 17.2069C19.304 18.8773 17.7848 19.9999 16.0416 19.9999Z" fill="#FF5722"/>
</svg>
