<svg width="960" height="980" viewBox="0 0 960 980" fill="none" xmlns="http://www.w3.org/2000/svg">
<rect width="960" height="980" fill="#5030A0"/>
<mask id="mask0_33391_473236" style="mask-type:alpha" maskUnits="userSpaceOnUse" x="0" y="0" width="960" height="980">
<rect width="960" height="980" fill="#5030A0"/>
</mask>
<g mask="url(#mask0_33391_473236)">
<g opacity="0.2">
<path d="M1100.14 248.012L1100.13 248.005L1100.13 247.998C1014.82 173.557 888.019 156.359 783.169 215.481C649.89 290.634 602.792 458.407 677.691 591.236C752.59 724.065 920.524 770.587 1053.8 695.434C1158.65 636.312 1209.56 518.907 1187.73 407.5L1187.73 407.492C1184.21 390.941 1187.11 375.622 1201.02 367.778C1214.96 359.923 1230.4 364.912 1238.25 378.834L1324.47 531.752C1335.31 550.963 1328.89 576.452 1308.73 587.816L828.902 858.381C809.621 869.253 784.107 862.917 772.783 842.835L511.114 378.78C500.286 359.576 507.58 333.584 526.854 322.716L1007.57 51.6506C1026.85 40.7789 1052.37 47.115 1063.69 67.1962L1149.92 220.113C1154.07 227.486 1153.83 234.145 1151.05 239.824C1148.26 245.532 1142.89 250.294 1136.74 253.766C1124.55 260.639 1110.04 257.382 1100.14 248.012Z" stroke="white"/>
<path d="M1088.37 458.06L1088.37 458.05L1088.37 458.04C1088.87 391.415 1047.9 328.228 981.297 304.113C896.634 273.461 803.693 316.797 773.143 401.175C742.594 485.554 786.25 578.346 870.913 608.998C937.517 633.113 1009.44 610.797 1050.79 558.318L1050.8 558.312C1056.8 550.433 1064.66 545.942 1073.36 549.092C1082.08 552.25 1085.73 560.92 1082.56 569.655L1047.44 666.67C1043.06 678.754 1029.36 685.599 1016.68 681.009L712.264 570.793C700.136 566.402 693.246 552.718 697.818 540.088L804.411 245.677C808.783 233.601 823.044 226.949 835.166 231.338L1140.15 341.758C1152.28 346.149 1159.17 359.833 1154.59 372.462L1119.47 469.478C1117.8 474.093 1114.79 476.485 1111.26 477.406C1107.7 478.335 1103.57 477.778 1099.69 476.372C1092.05 473.608 1087.99 465.991 1088.37 458.06Z" stroke="white"/>
<path d="M877.698 505.091L877.706 505.097L877.714 505.103C902.526 524.085 937.748 526.569 965.57 508.425C1000.93 485.364 1010.92 438.328 987.938 403.082C964.953 367.835 917.883 358.01 882.519 381.071C854.698 399.215 842.763 432.451 850.755 462.745L850.757 462.753C851.996 467.161 851.445 471.201 847.967 473.47C844.469 475.75 840.37 474.726 838.073 471.203L811.738 430.821C808.536 425.912 809.804 419.039 814.954 415.68L941.669 333.046C946.598 329.831 953.476 331.079 956.821 336.208L1036.74 458.756C1039.94 463.659 1038.44 470.687 1033.52 473.897L906.573 556.684C901.644 559.899 894.766 558.651 891.421 553.522L865.086 513.139C863.88 511.29 863.844 509.586 864.458 508.094C865.084 506.571 866.408 505.222 867.998 504.186C871.058 502.19 874.917 502.778 877.698 505.091Z" stroke="white"/>
<path d="M1283.12 560.272L1283.12 560.262L1283.13 560.252C1308.56 409.257 1238.65 250.939 1096.32 171.929C915.386 71.4957 688.69 135.933 588.596 316.252C488.502 496.571 553.716 723.045 734.647 823.479C876.982 902.488 1048.32 878.084 1161.28 774.09L1161.28 774.085C1177.9 758.285 1197.71 750.731 1216.7 761.274C1235.71 771.828 1240.91 793.276 1230.37 812.262L1115.08 1019.95C1100.55 1046.13 1066.51 1056.8 1039.05 1041.56L387.359 679.811C361.091 665.23 350.298 631.217 365.487 603.855L715.342 -26.4115C729.868 -52.5799 765.112 -62.5999 791.374 -48.0224L1444.27 314.396C1470.54 328.977 1481.33 362.99 1466.14 390.352L1350.86 598.04C1345.27 608.103 1337.37 612.568 1328.8 613.393C1320.19 614.222 1310.86 611.386 1302.48 606.735C1285.85 597.5 1279.31 578.382 1283.12 560.272ZM1160.94 773.723L1160.94 773.724L1160.94 773.723Z" stroke="white"/>
<path d="M1407.65 356.541L1407.65 356.532L1407.65 356.522C1361.27 154.213 1191.67 -7.86609 972.449 -33.0785C693.782 -65.1276 443.222 133.046 411.281 410.768C379.341 688.49 578.371 938.371 857.038 970.42C1076.26 995.633 1278.23 876.286 1365.82 687.503L1365.83 687.495C1378.47 659.054 1399.43 639.238 1428.8 642.616C1458.2 645.997 1475.89 670.273 1472.52 699.615L1435.72 1019.6C1431.07 1060.03 1393.86 1091.12 1351.45 1086.25L347.38 970.77C306.813 966.105 275.586 928.995 280.447 886.737L392.127 -84.3244C396.775 -124.741 435.831 -155.633 476.389 -150.969L1482.32 -35.2778C1522.89 -30.6123 1554.11 6.49717 1549.25 48.7552L1512.45 368.743C1510.66 384.305 1503.04 394.048 1492.67 399.553C1482.28 405.074 1469.08 406.356 1456.15 404.869C1430.42 401.91 1412.28 381.269 1407.65 356.541Z" stroke="white"/>
<path d="M1323.05 -25.0994L1323.05 -25.1061L1323.04 -25.1124C1119.9 -188.166 826.781 -215.702 591.35 -69.8756C292.077 115.495 199.684 505.622 384.426 803.88C569.167 1102.14 959.608 1193.2 1258.88 1007.82C1494.31 861.998 1600.23 587.297 1539.51 333.27L1539.51 333.262C1529.81 295.39 1535 259.489 1566.63 239.9C1598.27 220.3 1634.67 230.455 1654.23 262.029L1867.13 605.746C1894.06 649.227 1881.62 708.893 1836.01 737.146L757.47 1405.19C713.838 1432.22 654.119 1419.98 625.965 1374.53L-20.1189 331.451C-47.0466 287.977 -32.625 227.073 11.0007 200.052L1091.53 -469.232C1135.16 -496.258 1194.88 -484.017 1223.04 -438.563L1435.94 -94.8451C1446.31 -78.0944 1446.39 -62.5217 1440.46 -48.9902C1434.51 -35.4298 1422.49 -23.8739 1408.58 -15.2613C1380.89 1.88888 1346.89 -4.3249 1323.05 -25.0994Z" stroke="white"/>
<path d="M819.94 -232.682L819.93 -232.681L819.92 -232.679C532.073 -192.271 285.556 24.8902 224.043 327.734C145.849 712.699 392.255 1086.1 775.914 1164.03C1159.57 1241.96 1532.13 994.281 1610.33 609.315C1671.84 306.472 1529.58 10.3386 1276.7 -134.56L1276.7 -134.564C1238.49 -155.648 1213.26 -187.348 1221.53 -228.067C1229.81 -268.809 1265.92 -290.642 1306.57 -282.386L1748.74 -192.572C1804.71 -181.204 1843.71 -125.435 1831.79 -66.7252L1549.97 1320.75C1538.56 1376.91 1482.91 1416.11 1424.4 1404.22L82.5499 1131.67C26.592 1120.3 -11.8998 1061.97 -0.493973 1005.82L281.849 -384.218C293.257 -440.379 348.904 -479.577 407.41 -467.693L849.583 -377.879C871.15 -373.498 883.887 -361.645 890.351 -346.453C896.828 -331.232 897.027 -312.612 893.393 -294.718C886.152 -259.069 855.077 -236.174 819.94 -232.682Z" stroke="white"/>
</g>
</g>
</svg>
