<svg width="121" height="111" viewBox="0 0 121 111" fill="none" xmlns="http://www.w3.org/2000/svg">
<path d="M5.82628 1.78917L1.19264 13.9525C0.486448 15.8062 0.347548 17.8281 0.793603 19.761L2.30016 26.2895L8.61656 53.6605C8.78666 54.3976 8.87253 55.1516 8.87253 55.9081C8.87253 57.0873 8.66389 58.2571 8.25625 59.3636L4.03018 70.8343C3.85079 71.3212 3.70958 71.8214 3.60781 72.3302L2.04978 80.1204C1.73451 81.6967 1.80392 83.3258 2.25212 84.8696L7.72595 103.724C7.98664 104.622 8.67181 105.334 9.55884 105.63C10.0648 105.799 10.608 105.822 11.1264 105.697L30.3541 101.055C31.1224 100.87 31.9101 100.776 32.7005 100.776H32.8739C33.4247 100.776 33.9745 100.822 34.5178 100.912L35.9659 101.154C37.3615 101.386 38.6918 101.912 39.8689 102.697L50.3591 109.691C50.9356 110.075 51.5609 110.381 52.2183 110.6C53.0133 110.865 53.8458 111 54.6838 111H67.5657C68.3528 111 69.1348 110.873 69.8816 110.624C70.5864 110.389 71.2513 110.048 71.8535 109.613L83.8539 100.947C84.0108 100.833 84.1766 100.733 84.3498 100.646C85.1238 100.259 86.0117 100.165 86.8497 100.381L107.199 105.633C107.856 105.802 108.532 105.888 109.21 105.888H110.517C110.906 105.888 111.291 105.797 111.64 105.623C112.235 105.325 112.688 104.803 112.899 104.171L119.421 84.6036C119.72 83.7071 119.873 82.7682 119.873 81.8232C119.873 80.8341 119.706 79.8521 119.379 78.9186L114.761 65.7237L113.027 58.2129C112.726 56.9046 112.69 55.5488 112.924 54.2265L114.761 43.8158L119.142 25.5592L120.291 19.2405C120.497 18.1063 120.506 16.9449 120.316 15.8077L120.071 14.3328C119.939 13.5436 119.713 12.773 119.398 12.0376L115.491 2.92105L114.761 1.46053L114.563 1.06499C114.237 0.412295 113.569 0 112.84 0C112.661 0 112.483 0.0249492 112.31 0.0741276L107.458 1.46053L96.5041 5.84211L87.0107 9.49342L79.8385 12.4087C78.6426 12.8948 77.3639 13.1447 76.073 13.1447H45.0082C43.8091 13.1447 42.6198 12.9291 41.497 12.508L37.3528 10.9539L29.3199 8.0329L17.6357 3.65132L12.7029 1.80152C12.0981 1.57472 11.4728 1.40706 10.8357 1.30087L7.53196 0.750256C7.45213 0.73695 7.37133 0.730263 7.29039 0.730263C6.90068 0.730263 6.52693 0.885076 6.25136 1.16064L6.20015 1.21185C6.03623 1.37578 5.90881 1.57252 5.82628 1.78917Z" fill="#C3CEEB"/>
<path d="M4.49101 18.2568L8.43277 5.77457C8.69459 4.94549 9.46368 4.38184 10.3331 4.38184C11.2835 4.38184 12.2108 4.67539 12.9881 5.22236L49.1405 30.6629C50.3405 31.5074 50.7426 33.1024 50.0864 34.4148C49.8767 34.8342 49.5705 35.1979 49.193 35.4761L37.1638 44.3397C36.3214 44.9604 35.3867 45.4451 34.394 45.776L31.5107 46.7371L15.9761 50.9738C15.6236 51.07 15.2598 51.1187 14.8944 51.1187C13.059 51.1187 11.446 49.902 10.9418 48.1372L10.3331 46.0068L4.41926 23.6656C3.98728 22.0337 3.97546 20.319 4.38488 18.6813L4.49101 18.2568Z" fill="white"/>
<path d="M98.695 11.6845L71.8611 30.5407C71.7374 30.6276 71.6215 30.7251 71.5146 30.8319C70.4244 31.9221 70.5056 33.7131 71.69 34.7001L81.7375 43.073C82.33 43.5667 82.9775 43.9902 83.6673 44.3351L86.1795 45.5912C86.7325 45.8677 87.3099 46.0923 87.9044 46.2622L106.759 51.6491C107.209 51.7777 107.69 51.7329 108.109 51.5237C108.62 51.2679 108.987 50.792 109.103 50.232L110.133 45.2766L114.03 32.8621L116.221 23.3687L116.499 21.9818C116.795 20.4979 116.7 18.9622 116.221 17.5266L114.03 11.6845L112.362 6.67769C112.05 5.74273 111.175 5.1121 110.189 5.1121C109.834 5.1121 109.483 5.19486 109.165 5.35382L108.188 5.84236L98.695 11.6845Z" fill="white"/>
<path d="M70.945 70.9423V73.8647C70.945 74.2084 71.2236 74.4871 71.5674 74.4871C71.6387 74.4871 71.7096 74.4748 71.7768 74.4508L81.3838 71.0198C81.6927 70.9094 81.8989 70.6168 81.8989 70.2888C81.8989 70.1683 81.927 70.0494 81.9809 69.9416L82.0073 69.8887C82.3163 69.2707 81.9392 68.53 81.2576 68.4164L78.7865 68.0045C78.4304 67.9452 78.0887 67.8194 77.7791 67.6337L76.1867 66.6782C75.2155 66.0955 73.9954 66.1245 73.0531 66.7527C72.6287 67.0357 72.2855 67.4244 72.0574 67.8806L71.3192 69.3571C71.0731 69.8493 70.945 70.392 70.945 70.9423Z" fill="white"/>
<path d="M40.9684 68.1701L39.8144 68.5547C39.6364 68.6141 39.4745 68.7141 39.3418 68.8468C39.0179 69.1707 38.9049 69.6497 39.0497 70.0842L39.2171 70.5863C39.4226 71.2031 39.9066 71.687 40.5234 71.8926L41.7344 72.2963L45.3857 73.0266L48.4655 73.6425C48.8359 73.7166 49.2205 73.6651 49.5584 73.4961C50.134 73.2084 50.4976 72.6201 50.4976 71.9766V71.5561C50.4976 71.0864 50.3586 70.6272 50.098 70.2364L49.397 69.1849C49.1576 68.8258 48.8834 68.4913 48.5782 68.1862L47.5765 67.1845L47.3626 66.9706C47.032 66.6399 46.5836 66.4542 46.116 66.4542H45.3857C44.4334 66.4542 43.5024 66.7361 42.71 67.2644L42.4063 67.4668C41.9604 67.7641 41.4768 68.0006 40.9684 68.1701Z" fill="white"/>
<path d="M51.5258 93.7426L51.2278 94.9345L50.6857 98.1872C50.5677 98.8956 50.799 99.6174 51.3068 100.125C51.7238 100.542 52.2894 100.777 52.8792 100.777H53.4186H67.0725C67.6929 100.777 68.2993 100.593 68.8155 100.249C69.6896 99.6661 70.2147 98.685 70.2147 97.6344V97.535C70.2147 97.2628 70.1813 96.9918 70.1153 96.7278L69.4844 94.2042L69.0831 93.0002C68.8725 92.3684 68.4195 91.8461 67.8238 91.5483C67.4752 91.3739 67.0907 91.2832 66.7008 91.2832H61.4515H60.7213H54.6758C54.3268 91.2832 53.9801 91.3394 53.649 91.4498C52.5959 91.8008 51.7951 92.6656 51.5258 93.7426Z" fill="white"/>
</svg>
