<svg viewBox="0 0 19 21" fill="#AFBCCB" xmlns="http://www.w3.org/2000/svg">
<path d="M11.0469 19.7578C10.5521 20.2526 9.96615 20.5 9.28906 20.5C8.61198 20.5 8.02604 20.2526 7.53125 19.7578C7.03646 19.2891 6.78906 18.7031 6.78906 18H11.7891C11.7891 18.7031 11.5417 19.2891 11.0469 19.7578ZM17.6875 14.6406C17.9219 14.901 18.0391 15.1875 18.0391 15.5C18.0391 15.8385 17.9219 16.138 17.6875 16.3984C17.4531 16.6328 17.1536 16.75 16.7891 16.75H1.78906C1.55469 16.75 1.33333 16.6979 1.125 16.5938C0.942708 16.4635 0.799479 16.3073 0.695312 16.125C0.591146 15.9167 0.539062 15.7083 0.539062 15.5C0.539062 15.1875 0.65625 14.901 0.890625 14.6406C0.916667 14.6146 0.955729 14.5625 1.00781 14.4844C1.39844 14.0938 1.69792 13.7422 1.90625 13.4297C2.14062 13.1172 2.38802 12.5312 2.64844 11.6719C2.90885 10.7865 3.03906 9.77083 3.03906 8.625C3.03906 7.11458 3.50781 5.79948 4.44531 4.67969C5.38281 3.5599 6.58073 2.85677 8.03906 2.57031V1.75C8.03906 1.41146 8.15625 1.125 8.39062 0.890625C8.65104 0.630208 8.95052 0.5 9.28906 0.5C9.6276 0.5 9.91406 0.630208 10.1484 0.890625C10.4089 1.125 10.5391 1.41146 10.5391 1.75V2.57031C11.5026 2.7526 12.362 3.13021 13.1172 3.70312C13.8724 4.27604 14.4583 4.99219 14.875 5.85156C15.3177 6.71094 15.5391 7.63542 15.5391 8.625C15.5391 9.77083 15.6693 10.7865 15.9297 11.6719C16.1901 12.5312 16.4245 13.1172 16.6328 13.4297C16.8672 13.7422 17.1797 14.0938 17.5703 14.4844C17.6224 14.5625 17.6615 14.6146 17.6875 14.6406Z" />
</svg>
