<svg width="31" height="30" viewBox="0 0 31 30" fill="none" xmlns="http://www.w3.org/2000/svg">
  <path
    d="M15.5 1.63097C21.3622 1.63097 26.3301 5.38715 28.1683 10.5766C28.367 11.2191 28.9135 11.7133 29.609 11.7133C30.3045 11.7133 31 11.4168 31 10.5766V2.02636C31 0.889621 30.0561 0 28.9631 0H2.03686C0.94391 0 0 0.939044 0 2.02636V27.9736C0 29.1104 0.94391 30 2.03686 30H28.9135C30.0561 30 30.9503 29.061 30.9503 27.9736V19.4234C30.9503 18.6326 30.4038 18.0395 29.609 18.0395C28.8141 18.0395 28.3173 18.6326 28.0689 19.4234C26.3301 24.6623 21.3622 28.4185 15.5 28.4185C8.04808 28.4185 2.03686 22.4382 2.03686 15.0247C2.03686 7.6112 8.04808 1.63097 15.5 1.63097Z"
    fill="none" />
</svg>
