<svg width="25" height="24" viewBox="0 0 25 24" fill="none" xmlns="http://www.w3.org/2000/svg">
<path d="M12.3274 1.30263C16.9897 1.30263 20.9407 4.30263 22.4026 8.44737C22.5607 8.96053 22.9953 9.35526 23.5484 9.35526C24.1016 9.35526 24.6547 9.11842 24.6547 8.44737V1.61842C24.6547 0.710526 23.904 0 23.0348 0H1.61994C0.750705 0 0 0.75 0 1.61842V22.3421C0 23.25 0.750705 23.9605 1.61994 23.9605H22.9953C23.904 23.9605 24.6152 23.2105 24.6152 22.3421V15.5132C24.6152 14.8816 24.1806 14.4079 23.5484 14.4079C22.9163 14.4079 22.5212 14.8816 22.3236 15.5132C20.9407 19.6974 16.9897 22.6974 12.3274 22.6974C6.40075 22.6974 1.61994 17.9211 1.61994 12C1.61994 6.07895 6.40075 1.30263 12.3274 1.30263Z" fill="#131718"/>
</svg>
