<svg width="16" height="16" viewBox="0 0 16 16" fill="white" xmlns="http://www.w3.org/2000/svg">
<g >
<path d="M5.83337 11.7414V14.8333C5.83337 15.0493 5.97204 15.2407 6.17737 15.3087C6.22871 15.3253 6.28137 15.3333 6.33337 15.3333C6.48937 15.3333 6.64004 15.26 6.73604 15.1293L8.5447 12.668L5.83337 11.7414Z" />
<path d="M15.7896 0.0918789C15.6363 -0.0167878 15.4349 -0.0314544 15.2683 0.0558789L0.268269 7.88921C0.0909357 7.98188 -0.0137309 8.17121 0.000935739 8.37054C0.0162691 8.57054 0.148936 8.74121 0.337602 8.80588L4.5076 10.2312L13.3883 2.63788L6.51627 10.9172L13.5049 13.3059C13.5569 13.3232 13.6116 13.3325 13.6663 13.3325C13.7569 13.3325 13.8469 13.3079 13.9263 13.2599C14.0529 13.1825 14.1389 13.0525 14.1609 12.9065L15.9943 0.573212C16.0216 0.386546 15.9429 0.201212 15.7896 0.0918789Z" />
</g>
<defs>
</defs>
</svg>
