<svg viewBox="0 0 178 184" fill="none" xmlns="http://www.w3.org/2000/svg"><g filter="url(#a)"><path d="M123.651 106.041c5.306 3.084 5.378 8.033.072 11.117l-24.882 14.488c-5.234 3.013-13.84 3.013-19.217 0L54.67 117.158c-5.306-3.084-5.378-8.033-.071-11.117l24.81-14.416c5.306-3.085 13.91-3.085 19.217 0l25.025 14.416Z" fill="#6B93C0"/></g><path d="m149.66 85.594-43.347 25.313c-9.27 5.389-24.304 5.389-33.575 0L29.016 85.594C24.38 82.838 22 79.33 22 75.82v5.013c0 3.508 2.38 7.142 7.016 9.774l43.722 25.313c9.271 5.388 24.305 5.388 33.575 0l43.347-25.188c4.635-2.631 6.89-6.14 6.89-9.649v-5.012c0 3.383-2.38 6.892-6.89 9.523Z" fill="#6B93C0"/><path d="M149.535 66.172c9.27 5.388 9.396 14.035.125 19.423l-43.347 25.313c-9.27 5.388-24.304 5.388-33.575 0L29.017 85.595c-9.27-5.388-9.396-14.035-.125-19.423l43.346-25.187c9.271-5.389 24.305-5.389 33.575 0l43.723 25.187Z" fill="#F5F0FA"/><path d="M90.97 71.7h-2.897c-2.041 0-3.7 1.934-3.7 4.315v4.669c0 2.381 1.659 4.316 3.7 4.316h2.898c2.04 0 3.7-1.935 3.7-4.316v-4.669c0-2.388-1.66-4.316-3.7-4.316ZM70.537 35.559l5.346.777c1.695.245 3.305-.892 3.915-2.755.77-2.353 1.844-4.208 3.219-5.56 1.948-1.914 4.371-2.878 7.27-2.878 3.002 0 5.394.92 7.17 2.755 1.776 1.841 2.658 4.043 2.658 6.625 0 1.856-.5 3.554-1.499 5.093-.647.978-2.639 3.036-5.962 6.18-3.33 3.143-5.543 5.977-6.653 8.495-1.135 2.575-1.53 5.43-1.628 8.294-.086 2.453 1.591 4.496 3.7 4.496h3.021c1.924 0 3.515-1.72 3.687-3.95.123-1.603.352-2.819.697-3.646.58-1.417 2.078-3.288 4.483-5.618 4.655-4.496 7.688-8.05 9.113-10.668 1.418-2.612 2.133-5.381 2.133-8.309 0-5.287-1.93-9.927-5.796-13.912-3.86-3.985-9.064-5.978-15.6-5.978-6.215 0-11.228 1.964-15.05 5.899-3.256 3.352-5.235 7.323-5.932 11.905-.216 1.338.567 2.59 1.708 2.755Z" fill="#6B93C0"/><defs><filter id="a" x=".655" y="39.312" width="177.012" height="144.594" filterUnits="userSpaceOnUse" color-interpolation-filters="sRGB"><feFlood flood-opacity="0" result="BackgroundImageFix"/><feBlend in="SourceGraphic" in2="BackgroundImageFix" result="shape"/><feGaussianBlur stdDeviation="25" result="effect1_foregroundBlur_17168_430840"/></filter></defs></svg>