<svg viewBox="0 0 178 185" fill="none" xmlns="http://www.w3.org/2000/svg"><g filter="url(#a)"><path d="M123.651 106.874c5.307 3.08 5.378 8.021.072 11.1L98.841 132.44c-5.234 3.007-13.839 3.007-19.217 0l-24.953-14.466c-5.307-3.079-5.378-8.02-.072-11.1l24.81-14.394c5.306-3.079 13.91-3.079 19.217 0l25.025 14.394Z" fill="#6B93C0"/></g><path d="m149.66 86.46-43.347 25.273c-9.27 5.38-24.304 5.38-33.575 0L29.016 86.46C24.38 83.708 22 80.204 22 76.701v5.005c0 3.503 2.38 7.131 7.016 9.759l43.722 25.273c9.271 5.38 24.305 5.38 33.575 0L149.66 91.59c4.635-2.628 6.89-6.13 6.89-9.634v-5.005c0 3.379-2.38 6.882-6.89 9.51Z" fill="#6B93C0"/><path d="M149.535 67.068c9.27 5.38 9.396 14.013.125 19.393l-43.347 25.273c-9.27 5.38-24.304 5.38-33.575 0L29.017 86.461c-9.27-5.38-9.396-14.013-.125-19.393L72.237 41.92c9.271-5.38 24.305-5.38 33.575 0l43.723 25.148Z" fill="#F5F0FA"/><g clip-path="url(#b)" fill="#6B93C0"><path d="M94.025 33.411a4.613 4.613 0 0 0 .19-6.527 4.63 4.63 0 0 0-6.539-.19 4.613 4.613 0 0 0-.189 6.529 4.63 4.63 0 0 0 6.538.188Z"/><path d="M108.396 18.66c-3.82-1.796-9.77-3.975-16.427-4.151-6.632-.176-12.6 1.672-16.438 3.254a11.603 11.603 0 0 0-7.172 10.346l-.5 15.982c-.15 4.738 2.682 9.144 7.045 10.965A53.46 53.46 0 0 0 79 56.574l-1.02 35.163a2.884 2.884 0 0 0 .787 2.065l8.73 9.235a2.894 2.894 0 0 0 4.086.118l9.25-8.716a2.883 2.883 0 0 0 .118-4.08l-3.57-3.778 3.783-3.566a2.883 2.883 0 0 0 .118-4.08l-3.57-3.778 3.783-3.565a2.884 2.884 0 0 0 .119-4.08 2.894 2.894 0 0 0-4.087-.118l-5.886 5.546a2.883 2.883 0 0 0-.118 4.08l3.57 3.778-3.783 3.566a2.883 2.883 0 0 0-.118 4.08l3.57 3.778-5.045 4.754-5.923-6.267 1.048-36.179a2.887 2.887 0 0 0-2.12-2.866 46.834 46.834 0 0 1-5.59-1.934c-2.165-.904-3.57-3.097-3.496-5.459l.5-15.982a5.822 5.822 0 0 1 3.6-5.19c3.321-1.37 8.46-2.97 14.079-2.82 5.653.15 10.797 2.042 14.117 3.603a5.73 5.73 0 0 1 3.292 5.368l-.507 16.175a5.813 5.813 0 0 1-3.775 5.26 37.565 37.565 0 0 1-5.606 1.638 2.886 2.886 0 1 0 1.182 5.65 43.409 43.409 0 0 0 6.473-1.89c4.412-1.67 7.357-5.782 7.505-10.477l.507-16.176a11.5 11.5 0 0 0-6.608-10.77Z"/></g><defs><clipPath id="b"><path fill="#fff" transform="rotate(-43.298 84.105 -23.043) skewX(.089)" d="M0 0h73.946v73.939H0z"/></clipPath><filter id="a" x=".655" y="40.171" width="177.012" height="144.524" filterUnits="userSpaceOnUse" color-interpolation-filters="sRGB"><feFlood flood-opacity="0" result="BackgroundImageFix"/><feBlend in="SourceGraphic" in2="BackgroundImageFix" result="shape"/><feGaussianBlur stdDeviation="25" result="effect1_foregroundBlur_7771_251365"/></filter></defs></svg>