<svg width="44" height="60" viewBox="0 0 44 60" fill="none" xmlns="http://www.w3.org/2000/svg">
<path d="M28.5144 21.3277C28.5144 17.5681 25.4432 14.5225 21.6627 14.5225C17.8822 14.5225 14.811 17.5681 14.811 21.3277C14.811 23.8829 16.2298 26.1026 18.3147 27.2727L18.4531 22.7559C18.4531 20.9062 19.9584 19.4092 21.8184 19.4092H22.0088C23.4708 19.4092 24.6646 20.5878 24.6646 22.0504V27.4447C26.9485 26.3263 28.5144 24.012 28.5144 21.3277Z" fill="#6B93C0"/>
<path d="M24.6817 22.0419C24.6817 20.5879 23.4965 19.4006 22.0259 19.4006H21.8355C19.9756 19.4006 18.4703 20.8976 18.4703 22.7473L18.3318 27.2641L18.0204 37.2182C17.9512 37.528 17.9079 44.4451 17.9079 44.4451C17.3197 43.8514 16.6622 43.1632 16.0739 42.5093C14.6984 40.9865 12.1723 39.9627 10.5026 39.7648C9.62019 39.6616 8.94541 39.782 8.49555 40.1176C8.34848 40.2294 8.21007 40.3499 8.0803 40.4789C7.21519 41.3306 6.55771 42.6986 7.16328 43.6966C7.42282 44.1353 7.87267 44.4279 8.34848 44.729C8.98001 45.1333 10.0441 45.5807 10.8486 46.5959C12.1896 48.2994 15.2953 52.1107 17.1986 54.1497C17.5965 54.3992 18.4357 55.2251 18.8336 55.4402C20.0361 56.2059 21.0223 56.9286 21.3597 57.3157C21.6279 57.6168 23.2024 58.4256 23.2024 58.4256C24.4741 59.2257 26.7926 59.9828 29.4745 59.9828C32.1476 59.9828 34.5786 60.1462 36.3694 58.5718H36.4645L36.5078 58.4514C38.3332 56.7909 39.4665 54.4852 39.4665 51.93C39.4665 51.302 39.4665 48.9791 39.4665 48.5403V39.7562C39.4665 39.1626 39.3367 37.158 37.6411 36.5558C36.8279 36.2719 36.0579 36.3751 35.4005 36.659L35.2447 36.6676H35.2015C34.9073 35.5664 34.172 34.8609 33.082 34.6716C31.767 34.4479 30.8586 34.8351 30.3136 35.2309C29.7686 34.0694 28.6786 33.4586 27.1992 33.5876C26.0919 33.6822 25.27 34.2243 24.6731 34.9383V27.4362V22.0419H24.6817Z" fill="#C3CEEB"/>
<path d="M36.9494 32.6326L38.3076 34.1382C38.5672 34.4307 39.043 34.4135 39.2766 34.0952C41.8979 30.4818 43.3426 26.1285 43.3426 21.5515C43.3339 9.6702 33.6188 0 21.6716 0C20.8497 0 20.0192 0.0430169 19.1974 0.137654C9.22266 1.23889 1.20309 9.24863 0.130355 19.1683C-0.45792 24.5713 0.978162 29.8365 4.0666 34.0952C4.29153 34.4135 4.76734 34.4307 5.03553 34.1382L6.39375 32.6326C6.58407 32.4175 6.60138 32.1078 6.43701 31.8669C4.26558 28.7095 3.12363 24.9326 3.2361 21.0009C3.51293 11.4683 11.2297 3.65644 20.7978 3.21766C31.3781 2.70146 40.1244 11.1328 40.1244 21.5429C40.1244 25.2681 38.9824 28.8471 36.9062 31.8669C36.7418 32.1078 36.7505 32.4175 36.9494 32.6326Z" fill="#C3CEEB"/>
<path d="M30.8588 25.8961L32.2949 27.4878C32.589 27.8147 33.1254 27.7373 33.3244 27.3501C34.2327 25.5606 34.7085 23.599 34.7085 21.5514C34.7085 15.443 30.3484 10.1089 24.3445 8.86144C22.5884 8.4915 20.7543 8.4915 18.9895 8.86144C12.9856 10.1089 8.62549 15.4516 8.62549 21.5514C8.62549 23.599 9.1013 25.5606 10.0097 27.3501C10.2086 27.7373 10.745 27.8147 11.0391 27.4878L12.4752 25.8961C12.6396 25.7155 12.6742 25.466 12.579 25.2423C12.0946 24.0722 11.8437 22.8247 11.8437 21.5514C11.8437 17.4648 14.439 13.7826 18.2974 12.3802C20.4515 11.5973 22.8652 11.5973 25.0193 12.3802C28.895 13.7826 31.4903 17.4648 31.4903 21.5514C31.4903 22.8161 31.2394 24.0722 30.755 25.2423C30.6598 25.4574 30.6944 25.7155 30.8588 25.8961Z" fill="#6B93C0"/>
</svg>
