<svg width="151" height="151" viewBox="0 0 151 151" fill="none" xmlns="http://www.w3.org/2000/svg">
<path d="M149.371 48.9451C146.221 40.925 140.445 29.3532 130.816 19.7695C121.221 10.2188 109.772 4.60821 101.856 1.58292C93.1669 -1.73818 83.2927 0.355162 76.7012 6.91567L53.5387 29.9696C46.6727 36.8032 44.6938 47.3183 48.6141 56.135C49.8298 58.8695 51.1519 61.5441 52.5646 64.1282L1.72765 114.965C0.621398 116.071 0 117.571 0 119.136V145.089C0 148.347 2.64072 150.987 5.89841 150.987H31.8514C35.1091 150.987 37.7499 148.347 37.7499 145.089V134.472L48.367 134.472C51.6247 134.472 54.2654 131.831 54.2654 128.573V117.956H64.8826C68.1403 117.956 70.781 115.316 70.781 112.058C70.781 108.8 68.1403 106.159 64.8826 106.159H48.367C45.1093 106.159 42.4686 108.8 42.4686 112.058V122.675L31.8514 122.675C28.5937 122.675 25.953 125.316 25.953 128.573V139.191H11.7968V121.579L64.1025 69.2737C66.0242 67.352 66.3843 64.3665 64.9749 62.0431C62.9308 58.674 61.053 55.0736 59.3941 51.3419C57.4479 46.965 58.4394 41.7364 61.8614 38.3303L85.0236 15.2767C88.3305 11.9857 93.2846 10.936 97.6456 12.6023C104.494 15.22 114.365 20.0385 122.494 28.1305C130.674 36.2715 135.654 46.2879 138.391 53.2569C140.099 57.6063 139.061 62.5477 135.747 65.8461L112.305 89.1785C108.891 92.5757 103.796 93.569 99.3234 91.7089C95.6348 90.1747 92.0625 88.3521 88.7063 86.2921C85.9302 84.5881 82.2979 85.4575 80.5939 88.2339C78.8898 91.0102 79.7589 94.6425 82.5353 96.3465C86.4141 98.7271 90.5383 100.831 94.7928 102.601C103.682 106.299 113.823 104.311 120.626 97.5398L144.068 74.2077C150.717 67.59 152.799 57.6739 149.371 48.9451Z"/>
</svg>
