<svg width="14" height="16" viewBox="0 0 14 16" fill="#00A3FF" xmlns="http://www.w3.org/2000/svg">
<path d="M10.9375 15.875L9.73431 15.3052C9.25374 15.0761 8.84769 14.7159 8.56296 14.266C8.27823 13.8162 8.12641 13.2951 8.125 12.7627V9.125H13.75V12.7633C13.7486 13.2956 13.5968 13.8168 13.312 14.2666C13.0273 14.7164 12.6213 15.0767 12.1407 15.3058L10.9375 15.875ZM9.25 10.25V12.7633C9.251 13.0825 9.34219 13.395 9.51307 13.6647C9.68394 13.9344 9.92755 14.1504 10.2158 14.2876L10.9375 14.6296L11.6592 14.2882C11.9475 14.1509 12.1912 13.9349 12.3621 13.665C12.533 13.3952 12.6241 13.0826 12.625 12.7633V10.25H9.25Z" fill="#00A3FF"/>
<path d="M7 14.7499H1.375V1.24995H5.875V4.62495C5.87589 4.92304 5.9947 5.20867 6.20549 5.41946C6.41627 5.63024 6.70191 5.74906 7 5.74995H10.375V7.43745H11.5V4.62495C11.502 4.55102 11.4879 4.47754 11.4588 4.40957C11.4297 4.3416 11.3862 4.28074 11.3313 4.2312L7.39375 0.293697C7.34423 0.238766 7.28338 0.195232 7.2154 0.166098C7.14742 0.136964 7.07393 0.122924 7 0.124947H1.375C1.07691 0.125837 0.791274 0.24465 0.580488 0.455436C0.369703 0.666221 0.25089 0.951852 0.25 1.24995V14.7499C0.25089 15.048 0.369703 15.3337 0.580488 15.5445C0.791274 15.7552 1.07691 15.8741 1.375 15.8749H7V14.7499ZM7 1.47495L10.15 4.62495H7V1.47495Z" fill="#00A3FF"/>
</svg>
