<svg viewBox="0 0 51 59" fill="none" xmlns="http://www.w3.org/2000/svg">
<path d="M45.7919 13.5272C41.8519 12.1963 38.6989 9.06974 37.3576 5.16351C37.1726 4.62484 36.6679 4.26288 36.1015 4.26288H14.8988C14.3325 4.26288 13.8278 4.62484 13.6426 5.16362C12.3014 9.06974 9.14836 12.1963 5.20845 13.5271C4.66586 13.7103 4.30136 14.2159 4.30136 14.7853V24.8364C4.30136 31.6858 6.47415 38.2005 10.5849 43.6761C14.2159 48.5129 19.3488 52.3362 25.0382 54.4417C25.336 54.5519 25.6641 54.5519 25.9618 54.4417C30.885 52.6197 35.3328 49.5713 38.8243 45.6262C39.1409 45.2684 39.1076 44.7217 38.7498 44.405C38.3918 44.0883 37.8451 44.1217 37.5286 44.4795C34.2583 48.1748 30.1016 51.0382 25.5 52.7673C20.1738 50.7653 15.3727 47.1722 11.9685 42.6374C8.0844 37.4637 6.03145 31.3082 6.03145 24.8364V15.0724C10.2607 13.5534 13.6521 10.1891 15.1841 5.99297H35.8158C37.3478 10.1891 40.7393 13.5534 44.9685 15.0724V24.8364C44.9685 30.7383 43.2404 36.4359 39.9713 41.3135C39.7053 41.7104 39.8113 42.2478 40.2082 42.5138C40.6051 42.7799 41.1425 42.6738 41.4085 42.2769C44.8694 37.1134 46.6987 31.0826 46.6987 24.8365V14.7854C46.6988 14.2161 46.3343 13.7104 45.7919 13.5272ZM22.9048 34.8819C22.9048 36.313 24.069 37.4772 25.5001 37.4772C26.9312 37.4772 28.0954 36.313 28.0954 34.8819V32.6138C28.4354 32.1028 28.6144 31.5107 28.6144 30.8924C28.6144 30.0391 28.2586 29.2137 27.6381 28.6277C27.0088 28.0335 26.1849 27.7339 25.3183 27.7832C23.7868 27.8708 22.5313 29.0883 22.3978 30.6151C22.3359 31.3232 22.5155 32.0273 22.9048 32.6137V34.8819ZM24.1216 30.7657C24.1806 30.0891 24.7377 29.5496 25.4172 29.5106C25.4449 29.509 25.4725 29.5082 25.5 29.5082C25.8558 29.5082 26.1907 29.6405 26.4502 29.8857C26.7301 30.1501 26.8842 30.5076 26.8842 30.8924C26.8842 31.1891 26.7916 31.4719 26.6165 31.7103C26.4521 31.9339 26.3652 32.2025 26.3652 32.4866V34.8817C26.3652 35.3588 25.9771 35.7468 25.5001 35.7468C25.023 35.7468 24.635 35.3588 24.635 34.8817V32.4865C24.635 32.2026 24.548 31.9339 24.3834 31.7099C24.243 31.5188 24.0835 31.1998 24.1216 30.7657ZM49.181 9.92607C44.8785 9.48833 41.4335 6.0759 40.9898 1.81187C40.8822 0.778938 40.0195 0 38.9828 0H12.0174C10.9808 0 10.118 0.778938 10.0106 1.81187C9.56672 6.07579 6.12177 9.48833 1.81921 9.92607C0.784087 10.0314 0.00341797 10.8943 0.00341797 11.9333V24.8365C0.00341797 32.5434 2.43205 39.8871 7.02678 46.0736C9.23741 49.0502 11.8862 51.6621 14.8997 53.8367C17.9504 56.0383 21.3079 57.7427 24.879 58.9024C25.2795 59.0325 25.7207 59.0325 26.1212 58.9024C29.6922 57.7426 33.0498 56.0382 36.1005 53.8367C39.1139 51.662 41.7627 49.0502 43.9734 46.0736C48.5681 39.8871 50.9967 32.5434 50.9967 24.8365V11.9333C50.9967 10.8943 50.2162 10.0313 49.181 9.92607ZM49.2665 24.8365C49.2665 32.1691 46.9559 39.156 42.5843 45.0421C38.2977 50.8138 32.42 55.0376 25.5867 57.2569C25.5309 57.275 25.4693 57.275 25.4134 57.2569C18.5801 55.0376 12.7023 50.8138 8.41579 45.0421C4.04437 39.156 1.73362 32.1691 1.73362 24.8365V11.9333C1.73362 11.7854 1.84563 11.6624 1.99431 11.6474C7.1081 11.1272 11.2032 7.06604 11.7314 1.991C11.7469 1.84232 11.8699 1.73021 12.0174 1.73021H38.9828C39.1303 1.73021 39.2532 1.84232 39.2687 1.991C39.797 7.06604 43.892 11.1272 49.0059 11.6474C49.1545 11.6625 49.2665 11.7855 49.2665 11.9333V24.8365ZM18.4854 14.6281C18.7398 14.2237 18.6182 13.6896 18.2138 13.4352C17.8094 13.1806 17.2753 13.3024 17.0209 13.7067C16.0188 15.2995 15.4891 17.1383 15.4891 19.0242V23.8359C14.1683 24.5771 13.2733 25.9907 13.2733 27.61V37.6452C13.2733 40.0304 15.2137 41.9707 17.5988 41.9707H33.4013C35.7865 41.9707 37.7269 40.0304 37.7269 37.6452V27.61C37.7269 25.9907 36.8319 24.5772 35.511 23.8359V19.0242C35.511 13.5041 31.0201 9.01322 25.5001 9.01322C23.5936 9.01322 21.7379 9.55362 20.1336 10.5761C19.7306 10.8328 19.6122 11.3676 19.8689 11.7705C20.1258 12.1734 20.6605 12.292 21.0634 12.0351C22.3894 11.19 23.9235 10.7434 25.5 10.7434C30.066 10.7434 33.7807 14.4582 33.7807 19.0242V23.3022C33.6556 23.2912 33.5291 23.2845 33.4012 23.2845H32.0505V19.0242C32.0505 17.2743 31.369 15.6289 30.1311 14.391C28.8932 13.1545 27.2485 12.4735 25.5 12.4735C21.888 12.4735 18.9494 15.4121 18.9494 19.0241V23.2844H17.5987C17.4708 23.2844 17.3443 23.2911 17.2192 23.3021V19.0242C17.2193 17.4647 17.6572 15.9445 18.4854 14.6281ZM20.6797 19.0242C20.6797 16.3662 22.8421 14.2038 25.5001 14.2038C26.7869 14.2038 27.9973 14.7051 28.9082 15.6149C29.8189 16.5257 30.3204 17.7364 30.3204 19.0242V23.2845H20.6797V19.0242ZM17.5988 25.0147H33.4013C34.8325 25.0147 35.9966 26.1789 35.9966 27.61V37.6452C35.9966 39.0763 34.8325 40.2405 33.4013 40.2405H17.5988C16.1677 40.2405 15.0035 39.0763 15.0035 37.6452V27.61C15.0035 26.1789 16.1678 25.0147 17.5988 25.0147Z" fill="#FF5722"/>
</svg>
