<svg viewBox="0 0 169 265" fill="none" xmlns="http://www.w3.org/2000/svg">
<path d="M102.26 197.825C138.787 197.825 168.398 168.212 168.398 131.683C168.398 95.153 138.787 65.54 102.26 65.54C65.733 65.54 36.1221 95.153 36.1221 131.683C36.1221 168.212 65.733 197.825 102.26 197.825Z" fill="#6A4BFF"/>
<path d="M140.532 211.845H63.9879C58.9136 211.845 54.8713 207.716 54.8713 202.728V43.6074C54.8713 38.5328 58.9996 34.4902 63.9879 34.4902H140.532C145.607 34.4902 149.649 38.6188 149.649 43.6074V202.728C149.735 207.802 145.607 211.845 140.532 211.845Z" fill="black"/>
<path d="M122.729 40.7686V43.1769C122.729 45.1552 121.095 46.7894 119.117 46.7894H85.4031C83.425 46.7894 81.7909 45.1552 81.7909 43.1769V40.7686C81.7909 40.1665 81.2749 39.5645 80.5869 39.5645H66.74C63.2138 39.5645 60.4617 42.4028 60.4617 45.9293V200.405C60.4617 203.932 63.2998 206.77 66.74 206.77H137.78C141.306 206.77 144.059 203.932 144.059 200.405V45.9293C144.059 42.4028 141.22 39.5645 137.78 39.5645H123.847C123.245 39.6505 122.729 40.1665 122.729 40.7686Z" fill="white"/>
<path d="M76.7146 130.35C76.7146 129.543 76.9613 128.91 77.4546 128.45C77.9546 127.983 78.6613 127.75 79.5746 127.75C80.9946 127.75 81.9013 128.307 82.2946 129.42C82.3746 129.633 82.3046 129.78 82.0846 129.86L81.5346 130.05C81.4146 130.09 81.3246 130.097 81.2646 130.07C81.2046 130.037 81.1513 129.96 81.1046 129.84C80.8846 129.227 80.3746 128.92 79.5746 128.92C79.0613 128.92 78.6646 129.043 78.3846 129.29C78.1113 129.53 77.9746 129.88 77.9746 130.34V132.55C77.9746 133.01 78.1113 133.363 78.3846 133.61C78.6646 133.857 79.0613 133.98 79.5746 133.98C80.3679 133.98 80.8779 133.67 81.1046 133.05C81.1579 132.923 81.2146 132.847 81.2746 132.82C81.3346 132.787 81.4246 132.793 81.5446 132.84L82.0846 133.03C82.3046 133.11 82.3779 133.257 82.3046 133.47C81.9113 134.59 81.0013 135.15 79.5746 135.15C78.6613 135.15 77.9546 134.92 77.4546 134.46C76.9613 133.993 76.7146 133.353 76.7146 132.54V130.35ZM83.8111 127.88C84.0444 127.88 84.2044 127.923 84.2911 128.01C84.3778 128.097 84.4211 128.253 84.4211 128.48V128.57C84.4211 128.803 84.3778 128.963 84.2911 129.05C84.2044 129.137 84.0444 129.18 83.8111 129.18H83.7411C83.5144 129.18 83.3544 129.137 83.2611 129.05C83.1744 128.963 83.1311 128.803 83.1311 128.57V128.48C83.1311 128.253 83.1744 128.097 83.2611 128.01C83.3478 127.923 83.5078 127.88 83.7411 127.88H83.8111ZM84.0511 129.82C84.1644 129.82 84.2444 129.843 84.2911 129.89C84.3378 129.93 84.3611 130.007 84.3611 130.12V134.69C84.3611 134.803 84.3378 134.883 84.2911 134.93C84.2444 134.977 84.1644 135 84.0511 135H83.5011C83.3878 135 83.3078 134.977 83.2611 134.93C83.2211 134.883 83.2011 134.803 83.2011 134.69V130.12C83.2011 130.007 83.2211 129.93 83.2611 129.89C83.3078 129.843 83.3878 129.82 83.5011 129.82H84.0511ZM86.8655 128.62C86.9789 128.62 87.0589 128.643 87.1055 128.69C87.1522 128.73 87.1755 128.807 87.1755 128.92V129.82H88.3155C88.4289 129.82 88.5089 129.843 88.5555 129.89C88.6022 129.93 88.6255 130.007 88.6255 130.12V130.58C88.6255 130.693 88.6022 130.773 88.5555 130.82C88.5089 130.867 88.4289 130.89 88.3155 130.89H87.1755V132.9C87.1755 133.373 87.2522 133.683 87.4055 133.83C87.5655 133.977 87.8655 134.05 88.3055 134.05C88.4255 134.05 88.5089 134.073 88.5555 134.12C88.6022 134.16 88.6255 134.24 88.6255 134.36V134.82C88.6255 134.94 88.6022 135.02 88.5555 135.06C88.5089 135.107 88.4255 135.133 88.3055 135.14C87.4655 135.167 86.8722 135.02 86.5255 134.7C86.1855 134.38 86.0155 133.793 86.0155 132.94V130.89H85.3255C85.2122 130.89 85.1322 130.867 85.0855 130.82C85.0455 130.773 85.0255 130.693 85.0255 130.58V130.12C85.0255 130.007 85.0455 129.93 85.0855 129.89C85.1322 129.843 85.2122 129.82 85.3255 129.82H86.0155V128.92C86.0155 128.807 86.0389 128.73 86.0855 128.69C86.1322 128.643 86.2122 128.62 86.3255 128.62H86.8655ZM89.3123 130.71C89.6723 130.017 90.3623 129.67 91.3823 129.67C92.8089 129.67 93.5223 130.357 93.5223 131.73V134.32C93.5223 134.493 93.4956 134.617 93.4423 134.69C93.3956 134.763 93.3023 134.83 93.1623 134.89C92.7623 135.063 92.1623 135.15 91.3623 135.15C90.5156 135.15 89.9323 135.02 89.6123 134.76C89.2923 134.493 89.1323 134.083 89.1323 133.53C89.1323 132.937 89.3056 132.52 89.6523 132.28C90.0056 132.04 90.5889 131.92 91.4023 131.92C91.4756 131.92 91.7956 131.937 92.3623 131.97V131.69C92.3623 131.363 92.2856 131.117 92.1323 130.95C91.9789 130.783 91.7223 130.7 91.3623 130.7C90.8689 130.7 90.5189 130.86 90.3123 131.18C90.2389 131.287 90.1756 131.35 90.1223 131.37C90.0756 131.383 89.9956 131.37 89.8823 131.33L89.4823 131.16C89.2623 131.06 89.2056 130.91 89.3123 130.71ZM92.3623 132.92C91.6623 132.887 91.2989 132.87 91.2723 132.87C90.9123 132.87 90.6623 132.923 90.5223 133.03C90.3823 133.137 90.3123 133.3 90.3123 133.52C90.3123 133.747 90.3756 133.917 90.5023 134.03C90.6356 134.137 90.8856 134.19 91.2523 134.19C91.6789 134.19 92.0123 134.163 92.2523 134.11C92.3256 134.083 92.3623 134.037 92.3623 133.97V132.92ZM94.4278 131.76C94.4278 131.08 94.6011 130.563 94.9478 130.21C95.3011 129.85 95.8245 129.67 96.5178 129.67C96.8245 129.67 97.2211 129.713 97.7078 129.8V127.91C97.7078 127.797 97.7278 127.717 97.7678 127.67C97.8145 127.623 97.8945 127.6 98.0078 127.6H98.5578C98.6711 127.6 98.7511 127.623 98.7978 127.67C98.8445 127.717 98.8678 127.797 98.8678 127.91V134.28C98.8678 134.44 98.8411 134.557 98.7878 134.63C98.7345 134.697 98.6278 134.763 98.4678 134.83C97.9011 135.043 97.2778 135.15 96.5978 135.15C95.1511 135.15 94.4278 134.477 94.4278 133.13V131.76ZM97.7078 130.86C97.3078 130.773 96.9845 130.73 96.7378 130.73C95.9711 130.73 95.5878 131.083 95.5878 131.79V133.09C95.5878 133.757 95.9611 134.09 96.7078 134.09C97.0611 134.09 97.3678 134.053 97.6278 133.98C97.6811 133.96 97.7078 133.923 97.7078 133.87V130.86ZM99.8277 131.83C99.8277 131.13 100.024 130.597 100.418 130.23C100.818 129.857 101.394 129.67 102.148 129.67C102.908 129.67 103.481 129.863 103.868 130.25C104.261 130.637 104.458 131.133 104.458 131.74V132.35C104.458 132.637 104.308 132.78 104.008 132.78H100.988V133.15C100.988 133.477 101.084 133.727 101.278 133.9C101.478 134.067 101.761 134.15 102.128 134.15C102.688 134.15 103.081 133.973 103.308 133.62C103.388 133.507 103.461 133.443 103.528 133.43C103.601 133.41 103.698 133.433 103.818 133.5L104.168 133.69C104.394 133.797 104.434 133.963 104.288 134.19C103.894 134.83 103.174 135.15 102.128 135.15C101.348 135.15 100.768 134.957 100.388 134.57C100.014 134.183 99.8277 133.663 99.8277 133.01V131.83ZM103.298 131.67C103.298 131.343 103.201 131.093 103.008 130.92C102.814 130.74 102.528 130.65 102.148 130.65C101.774 130.65 101.488 130.74 101.288 130.92C101.088 131.093 100.988 131.343 100.988 131.67V131.89H103.298V131.67ZM106.569 134.69C106.569 134.803 106.545 134.883 106.499 134.93C106.452 134.977 106.372 135 106.259 135H105.719C105.599 135 105.515 134.977 105.469 134.93C105.429 134.883 105.409 134.803 105.409 134.69V127.91C105.409 127.797 105.429 127.717 105.469 127.67C105.515 127.623 105.599 127.6 105.719 127.6H106.259C106.372 127.6 106.452 127.623 106.499 127.67C106.545 127.717 106.569 127.797 106.569 127.91V134.69ZM108.352 133.7C108.598 133.7 108.765 133.747 108.852 133.84C108.945 133.933 108.992 134.1 108.992 134.34V134.43C108.992 134.677 108.945 134.847 108.852 134.94C108.765 135.027 108.598 135.07 108.352 135.07H108.282C108.035 135.07 107.865 135.027 107.772 134.94C107.685 134.847 107.642 134.677 107.642 134.43V134.34C107.642 134.1 107.685 133.933 107.772 133.84C107.865 133.747 108.035 133.7 108.282 133.7H108.352ZM109.857 131.67C109.857 131.043 110.057 130.553 110.457 130.2C110.857 129.847 111.424 129.67 112.157 129.67C112.897 129.67 113.467 129.847 113.867 130.2C114.267 130.553 114.467 131.043 114.467 131.67V133.15C114.467 133.777 114.267 134.267 113.867 134.62C113.467 134.973 112.897 135.15 112.157 135.15C111.424 135.15 110.857 134.973 110.457 134.62C110.057 134.267 109.857 133.777 109.857 133.15V131.67ZM113.307 131.67C113.307 131.363 113.207 131.13 113.007 130.97C112.807 130.803 112.524 130.72 112.157 130.72C111.791 130.72 111.507 130.803 111.307 130.97C111.114 131.13 111.017 131.363 111.017 131.67V133.15C111.017 133.45 111.114 133.683 111.307 133.85C111.507 134.017 111.791 134.1 112.157 134.1C112.524 134.1 112.807 134.017 113.007 133.85C113.207 133.683 113.307 133.45 113.307 133.15V131.67ZM115.827 130.01C116.394 129.783 117.05 129.67 117.797 129.67C118.497 129.67 119.017 129.843 119.357 130.19C119.704 130.537 119.877 131.033 119.877 131.68V134.69C119.877 134.803 119.854 134.883 119.807 134.93C119.76 134.977 119.68 135 119.567 135H119.017C118.904 135 118.824 134.977 118.777 134.93C118.737 134.883 118.717 134.803 118.717 134.69V131.71C118.717 131.057 118.354 130.73 117.627 130.73C117.307 130.73 116.987 130.773 116.667 130.86C116.62 130.88 116.597 130.913 116.597 130.96V134.69C116.597 134.803 116.574 134.883 116.527 134.93C116.487 134.977 116.41 135 116.297 135H115.747C115.634 135 115.554 134.977 115.507 134.93C115.46 134.883 115.437 134.803 115.437 134.69V130.58C115.437 130.42 115.46 130.303 115.507 130.23C115.56 130.15 115.667 130.077 115.827 130.01ZM120.804 131.83C120.804 131.13 121.001 130.597 121.394 130.23C121.794 129.857 122.371 129.67 123.124 129.67C123.884 129.67 124.458 129.863 124.844 130.25C125.238 130.637 125.434 131.133 125.434 131.74V132.35C125.434 132.637 125.284 132.78 124.984 132.78H121.964V133.15C121.964 133.477 122.061 133.727 122.254 133.9C122.454 134.067 122.738 134.15 123.104 134.15C123.664 134.15 124.058 133.973 124.284 133.62C124.364 133.507 124.438 133.443 124.504 133.43C124.578 133.41 124.674 133.433 124.794 133.5L125.144 133.69C125.371 133.797 125.411 133.963 125.264 134.19C124.871 134.83 124.151 135.15 123.104 135.15C122.324 135.15 121.744 134.957 121.364 134.57C120.991 134.183 120.804 133.663 120.804 133.01V131.83ZM124.274 131.67C124.274 131.343 124.178 131.093 123.984 130.92C123.791 130.74 123.504 130.65 123.124 130.65C122.751 130.65 122.464 130.74 122.264 130.92C122.064 131.093 121.964 131.343 121.964 131.67V131.89H124.274V131.67Z" fill="#6A4BFF"/>
<path d="M146.295 189.052H58.8276V207.286H146.295V189.052Z" fill="black"/>
<path d="M103.55 205.91C107.208 205.91 110.173 202.945 110.173 199.287C110.173 195.629 107.208 192.664 103.55 192.664C99.8927 192.664 96.9277 195.629 96.9277 199.287C96.9277 202.945 99.8927 205.91 103.55 205.91Z" fill="#545454"/>
<path d="M103.55 204.275C106.305 204.275 108.538 202.042 108.538 199.286C108.538 196.531 106.305 194.298 103.55 194.298C100.795 194.298 98.5618 196.531 98.5618 199.286C98.5618 202.042 100.795 204.275 103.55 204.275Z" fill="#737373"/>
<path d="M109.743 43.1767H89.2733C88.6713 43.1767 88.1553 42.6607 88.1553 42.0586C88.1553 41.4565 88.6713 40.9404 89.2733 40.9404H109.743C110.345 40.9404 110.861 41.4565 110.861 42.0586C110.861 42.6607 110.345 43.1767 109.743 43.1767Z" fill="#A4A5A4"/>
<path d="M114.731 43.6932C115.633 43.6932 116.365 42.9616 116.365 42.059C116.365 41.1565 115.633 40.4248 114.731 40.4248C113.828 40.4248 113.097 41.1565 113.097 42.059C113.097 42.9616 113.828 43.6932 114.731 43.6932Z" fill="#A4A5A4"/>
<path d="M54.8712 106.653C54.8712 106.653 62.0097 112.846 63.5578 119.985C65.6219 129.618 55.7313 144.24 56.2473 156.11C56.8494 169.871 64.3318 175.806 68.8901 184.923C74.1364 195.417 73.7924 202.384 73.7924 205.996C73.7924 209.609 72.5023 212.017 72.5023 212.017H121.869C121.869 212.017 112.151 226.811 93.0575 238.68C77.4046 248.399 69.2341 265 69.2341 265H0L24.9415 223.628C24.9415 223.628 20.4692 201.782 23.1354 186.042C27.8656 157.572 54.8712 106.653 54.8712 106.653Z" fill="#EBB3A0"/>
<path d="M72.6744 211.845C72.6744 211.845 70.0082 216.747 66.9981 221.736C63.9019 226.725 62.0098 229.391 62.0098 229.391C62.0098 229.391 69.3202 227.413 73.9645 223.972C81.6189 218.382 86.3492 211.931 86.3492 211.931L72.6744 211.845Z" fill="#D1866D"/>
<path d="M140.016 3.95651L142.166 0L144.317 3.95651C146.467 7.91301 149.649 11.0954 153.605 13.2457L157.561 15.396L153.605 17.5463C149.649 19.6965 146.467 22.8789 144.317 26.8354L142.166 30.7919L140.016 26.8354C137.866 22.8789 134.684 19.6965 130.728 17.5463L126.771 15.396L130.728 13.2457C134.598 11.0954 137.866 7.827 140.016 3.95651Z" fill="#1A53F0"/>
<path d="M100.97 18.0619L101.916 16.4277L102.862 18.0619C103.808 19.6962 105.098 21.0723 106.818 22.0185L108.452 22.9646L106.818 23.9107C105.184 24.8568 103.808 26.147 102.862 27.8672L101.916 29.5014L100.97 27.8672C100.024 26.233 98.7338 24.8568 97.0137 23.9107L95.3796 22.9646L97.0137 22.0185C98.7338 21.1583 100.024 19.7822 100.97 18.0619Z" fill="#1A53F0"/>
<path d="M157.733 63.3044L158.163 62.5303L158.593 63.3044C159.023 64.0785 159.625 64.6805 160.399 65.1106L161.173 65.5407L160.399 65.9707C159.625 66.4008 159.023 67.0029 158.593 67.777L158.163 68.551L157.733 67.777C157.303 67.0029 156.701 66.4008 155.927 65.9707L155.153 65.5407L155.927 65.1106C156.701 64.6805 157.389 63.9925 157.733 63.3044Z" fill="#1A53F0"/>
<path d="M162.808 32.8566L163.582 31.4805L164.356 32.8566C165.13 34.2328 166.248 35.437 167.624 36.1251L169 36.8992L167.624 37.6733C166.248 38.4474 165.044 39.5655 164.356 40.9417L163.582 42.3179L162.808 40.9417C162.034 39.5655 160.916 38.3614 159.539 37.6733L158.163 36.8992L159.539 36.1251C160.829 35.437 162.034 34.2328 162.808 32.8566Z" fill="black"/>
<path d="M102 87.5766C107.673 87.5766 112.481 91.2076 114.26 96.2241C114.452 96.8451 114.981 97.3229 115.654 97.3229C116.327 97.3229 117 97.0362 117 96.2241V87.9588C117 86.86 116.087 86 115.029 86H88.9712C87.9135 86 87 86.9077 87 87.9588V113.041C87 114.14 87.9135 115 88.9712 115H114.981C116.087 115 116.952 114.092 116.952 113.041V104.776C116.952 104.012 116.423 103.438 115.654 103.438C114.885 103.438 114.404 104.012 114.163 104.776C112.481 109.84 107.673 113.471 102 113.471C94.7885 113.471 88.9712 107.69 88.9712 100.524C88.9712 93.3575 94.7885 87.5766 102 87.5766Z" fill="#131718"/>
</svg>
