<svg  viewBox="0 0 169 265" fill="none" xmlns="http://www.w3.org/2000/svg">
<path d="M102.26 197.826C138.787 197.826 168.398 168.213 168.398 131.683C168.398 95.1535 138.787 65.5405 102.26 65.5405C65.733 65.5405 36.1221 95.1535 36.1221 131.683C36.1221 168.213 65.733 197.826 102.26 197.826Z" fill="#6A4BFF"/>
<path d="M140.532 211.845H63.9879C58.9136 211.845 54.8713 207.717 54.8713 202.728V43.6076C54.8713 38.533 58.9996 34.4905 63.9879 34.4905H140.532C145.607 34.4905 149.649 38.619 149.649 43.6076V202.728C149.735 207.803 145.607 211.845 140.532 211.845Z" fill="black"/>
<path d="M122.729 40.7693V43.1776C122.729 45.1559 121.095 46.7901 119.117 46.7901H85.4031C83.425 46.7901 81.7909 45.1559 81.7909 43.1776V40.7693C81.7909 40.1673 81.2749 39.5652 80.5869 39.5652H66.74C63.2138 39.5652 60.4617 42.4036 60.4617 45.93V200.406C60.4617 203.932 63.2998 206.771 66.74 206.771H137.78C141.306 206.771 144.059 203.932 144.059 200.406V45.93C144.059 42.4036 141.22 39.5652 137.78 39.5652H123.847C123.245 39.6512 122.729 40.1673 122.729 40.7693Z" fill="white"/>
<rect x="67.5" y="54.5" width="71" height="32" rx="3.5" stroke="#D1D8E0" stroke-dasharray="2.2 2.2"/>
<path d="M130.024 64.8484H83.423C81.7782 64.8484 80.4468 64.1773 80.4468 63.3484C80.4468 62.5194 81.7782 61.8484 83.423 61.8484H130.024C131.669 61.8484 133 62.5194 133 63.3484C133 64.1773 131.669 64.8484 130.024 64.8484Z" fill="#EEF0ED"/>
<path d="M130.024 71.8484H83.423C81.7782 71.8484 80.4468 71.1773 80.4468 70.3484C80.4468 69.5194 81.7782 68.8484 83.423 68.8484H130.024C131.669 68.8484 133 69.5194 133 70.3484C133 71.1773 131.669 71.8484 130.024 71.8484Z" fill="#EEF0ED"/>
<path d="M130.024 78.8484H83.423C81.7782 78.8484 80.4468 78.1773 80.4468 77.3484C80.4468 76.5194 81.7782 75.8484 83.423 75.8484H130.024C131.669 75.8484 133 76.5194 133 77.3484C133 78.1773 131.669 78.8484 130.024 78.8484Z" fill="#EEF0ED"/>
<rect x="67.5" y="90.5" width="71" height="32" rx="3.5" stroke="#D1D8E0" stroke-dasharray="2.2 2.2"/>
<path d="M130.024 100.848H83.423C81.7782 100.848 80.4468 100.177 80.4468 99.3484C80.4468 98.5194 81.7782 97.8484 83.423 97.8484H130.024C131.669 97.8484 133 98.5194 133 99.3484C133 100.177 131.669 100.848 130.024 100.848Z" fill="#EEF0ED"/>
<path d="M130.024 107.848H83.423C81.7782 107.848 80.4468 107.177 80.4468 106.348C80.4468 105.519 81.7782 104.848 83.423 104.848H130.024C131.669 104.848 133 105.519 133 106.348C133 107.177 131.669 107.848 130.024 107.848Z" fill="#EEF0ED"/>
<path d="M130.024 114.848H83.423C81.7782 114.848 80.4468 114.177 80.4468 113.348C80.4468 112.519 81.7782 111.848 83.423 111.848H130.024C131.669 111.848 133 112.519 133 113.348C133 114.177 131.669 114.848 130.024 114.848Z" fill="#EEF0ED"/>
<rect x="67.5" y="126.5" width="71" height="32" rx="3.5" stroke="#D1D8E0" stroke-dasharray="2.2 2.2"/>
<path d="M130.024 136.848H83.423C81.7782 136.848 80.4468 136.177 80.4468 135.348C80.4468 134.519 81.7782 133.848 83.423 133.848H130.024C131.669 133.848 133 134.519 133 135.348C133 136.177 131.669 136.848 130.024 136.848Z" fill="#EEF0ED"/>
<path d="M130.024 143.848H83.423C81.7782 143.848 80.4468 143.177 80.4468 142.348C80.4468 141.519 81.7782 140.848 83.423 140.848H130.024C131.669 140.848 133 141.519 133 142.348C133 143.177 131.669 143.848 130.024 143.848Z" fill="#EEF0ED"/>
<path d="M130.024 150.848H83.423C81.7782 150.848 80.4468 150.177 80.4468 149.348C80.4468 148.519 81.7782 147.848 83.423 147.848H130.024C131.669 147.848 133 148.519 133 149.348C133 150.177 131.669 150.848 130.024 150.848Z" fill="#EEF0ED"/>
<rect x="67.5" y="162.5" width="71" height="32" rx="3.5" stroke="#D1D8E0" stroke-dasharray="2.2 2.2"/>
<path d="M130.024 172.848H83.423C81.7782 172.848 80.4468 172.177 80.4468 171.348C80.4468 170.519 81.7782 169.848 83.423 169.848H130.024C131.669 169.848 133 170.519 133 171.348C133 172.177 131.669 172.848 130.024 172.848Z" fill="#EEF0ED"/>
<path d="M130.024 179.848H83.423C81.7782 179.848 80.4468 179.177 80.4468 178.348C80.4468 177.519 81.7782 176.848 83.423 176.848H130.024C131.669 176.848 133 177.519 133 178.348C133 179.177 131.669 179.848 130.024 179.848Z" fill="#EEF0ED"/>
<path d="M130.024 186.848H83.423C81.7782 186.848 80.4468 186.177 80.4468 185.348C80.4468 184.519 81.7782 183.848 83.423 183.848H130.024C131.669 183.848 133 184.519 133 185.348C133 186.177 131.669 186.848 130.024 186.848Z" fill="#EEF0ED"/>
<path d="M146.295 189.052H58.8276V207.287H146.295V189.052Z" fill="black"/>
<path d="M103.55 205.91C107.208 205.91 110.173 202.945 110.173 199.288C110.173 195.63 107.208 192.665 103.55 192.665C99.8927 192.665 96.9277 195.63 96.9277 199.288C96.9277 202.945 99.8927 205.91 103.55 205.91Z" fill="#545454"/>
<path d="M103.55 204.276C106.305 204.276 108.538 202.043 108.538 199.288C108.538 196.533 106.305 194.299 103.55 194.299C100.795 194.299 98.5618 196.533 98.5618 199.288C98.5618 202.043 100.795 204.276 103.55 204.276Z" fill="#737373"/>
<path d="M109.743 43.1777H89.2733C88.6713 43.1777 88.1553 42.6616 88.1553 42.0596C88.1553 41.4575 88.6713 40.9414 89.2733 40.9414H109.743C110.345 40.9414 110.861 41.4575 110.861 42.0596C110.861 42.6616 110.345 43.1777 109.743 43.1777Z" fill="#A4A5A4"/>
<path d="M114.731 43.6937C115.633 43.6937 116.365 42.9621 116.365 42.0595C116.365 41.157 115.633 40.4253 114.731 40.4253C113.828 40.4253 113.097 41.157 113.097 42.0595C113.097 42.9621 113.828 43.6937 114.731 43.6937Z" fill="#A4A5A4"/>
<path d="M54.8712 106.654C54.8712 106.654 62.0097 112.846 63.5578 119.985C65.6219 129.619 55.7313 144.24 56.2473 156.11C56.8494 169.872 64.3318 175.806 68.8901 184.924C74.1364 195.417 73.7924 202.384 73.7924 205.996C73.7924 209.609 72.5023 212.017 72.5023 212.017H121.869C121.869 212.017 112.151 226.811 93.0575 238.68C77.4046 248.4 69.2341 265 69.2341 265H0L24.9415 223.629C24.9415 223.629 20.4692 201.782 23.1354 186.042C27.8657 157.572 54.8712 106.654 54.8712 106.654Z" fill="#EBB3A0"/>
<path d="M72.6744 211.845C72.6744 211.845 70.0082 216.748 66.9981 221.736C63.9019 226.725 62.0098 229.391 62.0098 229.391C62.0098 229.391 69.3202 227.413 73.9645 223.973C81.6189 218.382 86.3492 211.931 86.3492 211.931L72.6744 211.845Z" fill="#D1866D"/>
<path d="M140.016 3.95651L142.166 0L144.317 3.95651C146.467 7.91301 149.649 11.0954 153.605 13.2457L157.561 15.396L153.605 17.5463C149.649 19.6965 146.467 22.8789 144.317 26.8354L142.166 30.792L140.016 26.8354C137.866 22.8789 134.684 19.6965 130.728 17.5463L126.771 15.396L130.728 13.2457C134.598 11.0954 137.866 7.827 140.016 3.95651Z" fill="#1A53F0"/>
<path d="M100.97 18.0624L101.916 16.4282L102.862 18.0624C103.808 19.6966 105.098 21.0728 106.818 22.0189L108.452 22.9651L106.818 23.9112C105.184 24.8573 103.808 26.1475 102.862 27.8677L101.916 29.5019L100.97 27.8677C100.024 26.2335 98.7338 24.8573 97.0137 23.9112L95.3796 22.9651L97.0137 22.0189C98.7338 21.1588 100.024 19.7827 100.97 18.0624Z" fill="#1A53F0"/>
<path d="M157.733 63.3041L158.163 62.53L158.593 63.3041C159.023 64.0782 159.625 64.6803 160.399 65.1104L161.173 65.5404L160.399 65.9705C159.625 66.4005 159.023 67.0026 158.593 67.7767L158.163 68.5508L157.733 67.7767C157.303 67.0026 156.701 66.4005 155.927 65.9705L155.153 65.5404L155.927 65.1104C156.701 64.6803 157.389 63.9922 157.733 63.3041Z" fill="#1A53F0"/>
<path d="M162.808 32.8562L163.582 31.48L164.356 32.8562C165.13 34.2323 166.248 35.4365 167.624 36.1246L169 36.8987L167.624 37.6728C166.248 38.4469 165.044 39.565 164.356 40.9412L163.582 42.3174L162.808 40.9412C162.034 39.565 160.916 38.3609 159.539 37.6728L158.163 36.8987L159.539 36.1246C160.829 35.4365 162.034 34.2323 162.808 32.8562Z" fill="black"/>
</svg>
