<svg  viewBox="0 0 171 265" fill="none" xmlns="http://www.w3.org/2000/svg">
<path d="M100.304 197.826C136.965 197.826 166.684 168.213 166.684 131.683C166.684 95.1535 136.965 65.5405 100.304 65.5405C63.6432 65.5405 33.9238 95.1535 33.9238 131.683C33.9238 168.213 63.6432 197.826 100.304 197.826Z" fill="#6A4BFF"/>
<path d="M138.716 211.845H61.8914C56.7985 211.845 52.7415 207.717 52.7415 202.728V43.6076C52.7415 38.533 56.8848 34.4905 61.8914 34.4905H138.716C143.809 34.4905 147.866 38.619 147.866 43.6076V202.728C147.866 207.803 143.809 211.845 138.716 211.845Z" fill="black"/>
<path d="M120.762 40.7693V43.1776C120.762 45.1559 119.122 46.7901 117.136 46.7901H83.3851C81.3997 46.7901 79.7597 45.1559 79.7597 43.1776V40.7693C79.7597 40.1673 79.2417 39.5652 78.5512 39.5652H64.6537C61.1145 39.5652 58.3523 42.4036 58.3523 45.93V200.406C58.3523 203.932 61.2009 206.771 64.6537 206.771H135.954C139.493 206.771 142.255 203.932 142.255 200.406V45.93C142.255 42.4036 139.407 39.5652 135.954 39.5652H121.97C121.28 39.6512 120.762 40.1673 120.762 40.7693Z" fill="white"/>
<path d="M144.5 189.052H56.7122V207.287H144.5V189.052Z" fill="black"/>
<path d="M101.599 205.91C105.269 205.91 108.245 202.945 108.245 199.288C108.245 195.63 105.269 192.665 101.599 192.665C97.9277 192.665 94.9519 195.63 94.9519 199.288C94.9519 202.945 97.9277 205.91 101.599 205.91Z" fill="#545454"/>
<path d="M101.599 204.276C104.364 204.276 106.605 202.043 106.605 199.288C106.605 196.533 104.364 194.299 101.599 194.299C98.8335 194.299 96.592 196.533 96.592 199.288C96.592 202.043 98.8335 204.276 101.599 204.276Z" fill="#737373"/>
<path d="M107.727 43.1777H87.1832C86.579 43.1777 86.061 42.6616 86.061 42.0596C86.061 41.4575 86.579 40.9414 87.1832 40.9414H107.727C108.332 40.9414 108.85 41.4575 108.85 42.0596C108.85 42.6616 108.418 43.1777 107.727 43.1777Z" fill="#A4A5A4"/>
<path d="M112.734 43.6937C113.64 43.6937 114.374 42.9621 114.374 42.0595C114.374 41.157 113.64 40.4253 112.734 40.4253C111.828 40.4253 111.094 41.157 111.094 42.0595C111.094 42.9621 111.828 43.6937 112.734 43.6937Z" fill="#A4A5A4"/>
<path d="M124.56 170.904H74.4942C69.6603 170.904 65.7759 167.034 65.7759 162.217C65.7759 157.4 69.6603 153.53 74.4942 153.53H124.56C129.394 153.53 133.278 157.4 133.278 162.217C133.278 167.034 129.394 170.904 124.56 170.904Z" fill="#3F3689"/>
<path d="M92.5879 162.516C92.5879 162.376 92.5146 162.263 92.3682 162.179C92.2217 162.094 91.9434 162.006 91.5332 161.915C91.123 161.824 90.7845 161.705 90.5176 161.559C90.2507 161.409 90.0472 161.228 89.9072 161.017C89.7673 160.805 89.6973 160.562 89.6973 160.289C89.6973 159.804 89.8975 159.405 90.2979 159.093C90.6982 158.777 91.2223 158.619 91.8701 158.619C92.5667 158.619 93.1266 158.777 93.5498 159.093C93.973 159.409 94.1846 159.824 94.1846 160.338H92.5342C92.5342 159.915 92.3112 159.703 91.8652 159.703C91.6927 159.703 91.5479 159.752 91.4307 159.85C91.3135 159.944 91.2549 160.063 91.2549 160.206C91.2549 160.353 91.3265 160.471 91.4697 160.562C91.613 160.654 91.8408 160.729 92.1533 160.787C92.4691 160.846 92.7458 160.916 92.9834 160.997C93.7777 161.271 94.1748 161.76 94.1748 162.467C94.1748 162.949 93.96 163.341 93.5303 163.644C93.1038 163.946 92.5505 164.098 91.8701 164.098C91.4176 164.098 91.014 164.016 90.6592 163.854C90.3044 163.691 90.0277 163.469 89.8291 163.189C89.6305 162.91 89.5312 162.615 89.5312 162.306H91.0693C91.0758 162.55 91.1572 162.729 91.3135 162.843C91.4697 162.953 91.6699 163.009 91.9141 163.009C92.1387 163.009 92.3063 162.963 92.417 162.872C92.5309 162.781 92.5879 162.662 92.5879 162.516ZM97.1826 162.828C97.4137 162.828 97.5928 162.766 97.7197 162.643C97.8467 162.516 97.9085 162.34 97.9053 162.115H99.4482C99.4482 162.695 99.2399 163.17 98.8232 163.541C98.4098 163.912 97.876 164.098 97.2217 164.098C96.4535 164.098 95.848 163.857 95.4053 163.375C94.9626 162.893 94.7412 162.226 94.7412 161.373V161.305C94.7412 160.771 94.8389 160.3 95.0342 159.894C95.2327 159.483 95.5176 159.169 95.8887 158.951C96.2598 158.73 96.6992 158.619 97.207 158.619C97.8939 158.619 98.4391 158.81 98.8428 159.19C99.2464 159.571 99.4482 160.087 99.4482 160.738H97.9053C97.9053 160.465 97.8385 160.255 97.7051 160.108C97.5716 159.962 97.3926 159.889 97.168 159.889C96.7415 159.889 96.4925 160.16 96.4209 160.704C96.3981 160.877 96.3867 161.114 96.3867 161.417C96.3867 161.948 96.4502 162.315 96.5771 162.521C96.7041 162.726 96.9059 162.828 97.1826 162.828ZM103.12 164C103.062 163.893 103.009 163.735 102.964 163.526C102.661 163.907 102.238 164.098 101.694 164.098C101.196 164.098 100.773 163.948 100.425 163.648C100.076 163.346 99.9023 162.966 99.9023 162.511C99.9023 161.938 100.114 161.505 100.537 161.212C100.96 160.919 101.576 160.772 102.383 160.772H102.891V160.494C102.891 160.009 102.681 159.767 102.261 159.767C101.87 159.767 101.675 159.959 101.675 160.343H100.029C100.029 159.832 100.246 159.417 100.679 159.098C101.115 158.779 101.67 158.619 102.344 158.619C103.018 158.619 103.55 158.784 103.94 159.112C104.331 159.441 104.531 159.892 104.541 160.465V162.804C104.548 163.289 104.622 163.66 104.766 163.917V164H103.12ZM102.09 162.926C102.295 162.926 102.464 162.882 102.598 162.794C102.734 162.706 102.832 162.607 102.891 162.496V161.651H102.412C101.839 161.651 101.553 161.909 101.553 162.423C101.553 162.573 101.603 162.695 101.704 162.789C101.805 162.88 101.934 162.926 102.09 162.926ZM106.968 158.717L107.021 159.337C107.386 158.858 107.889 158.619 108.53 158.619C109.08 158.619 109.491 158.784 109.761 159.112C110.034 159.441 110.176 159.936 110.186 160.597V164H108.535V160.665C108.535 160.398 108.481 160.203 108.374 160.079C108.267 159.952 108.071 159.889 107.788 159.889C107.466 159.889 107.227 160.016 107.07 160.27V164H105.425V158.717H106.968Z" fill="white"/>
<path d="M122.315 130.995C119.122 130.995 115.928 130.995 112.734 130.995C112.734 131.855 112.734 132.543 112.734 133.403C111.957 133.403 111.18 133.403 110.403 133.403C110.403 132.629 110.403 131.855 110.403 131.081C109.54 131.081 108.763 131.081 107.986 131.081C107.986 130.221 107.986 129.446 107.986 128.672C108.763 128.672 109.54 128.672 110.317 128.672C110.317 127.812 110.317 127.124 110.317 126.35C109.54 126.35 108.763 126.35 107.9 126.35C107.9 127.124 107.986 127.898 107.986 128.672C106.346 128.672 104.792 128.672 103.066 128.672C103.066 129.446 103.066 130.221 103.066 130.995C103.843 130.995 104.62 130.995 105.397 130.995C105.397 131.855 105.397 132.629 105.397 133.403C103.843 133.403 102.289 133.403 100.735 133.403C100.735 131.855 100.735 130.221 100.735 128.672C99.8722 128.672 99.1817 128.672 98.3185 128.672C98.3185 129.446 98.3185 130.221 98.3185 131.081C97.4553 131.081 96.6784 131.081 95.9015 131.081C95.9015 130.307 95.9015 129.532 95.9015 128.672C95.0383 128.672 94.2614 128.672 93.4845 128.672C93.4845 127.898 93.4845 127.124 93.4845 126.35C96.6784 126.35 99.8722 126.35 103.066 126.35C103.066 125.49 103.066 124.716 103.066 123.942C104.62 123.942 106.26 123.942 107.9 123.942C107.9 121.533 107.9 119.211 107.9 116.803C107.123 116.803 106.346 116.803 105.569 116.803C105.569 116.029 105.483 115.255 105.483 114.481C103.929 114.481 102.376 114.481 100.822 114.481C100.822 115.255 100.822 116.029 100.822 116.803C102.462 116.803 104.016 116.803 105.569 116.803C105.483 117.577 105.483 118.351 105.397 119.211C103.843 119.211 102.289 119.211 100.735 119.211C100.735 120.071 100.735 120.845 100.735 121.619C99.9585 121.619 99.0953 121.619 98.2321 121.619C98.2321 119.211 98.2321 116.889 98.2321 114.481C97.3689 114.481 96.5921 114.481 95.8152 114.481C95.8152 113.62 95.8152 112.932 95.8152 112.158C94.952 112.158 94.1751 112.158 93.4845 112.158C93.4845 113.792 93.4845 115.341 93.4845 116.975C92.7077 116.975 91.9308 116.975 91.1539 116.975C91.1539 117.835 91.1539 118.523 91.1539 119.297C90.377 119.297 89.5138 119.297 88.7369 119.297C88.7369 117.663 88.7369 116.201 88.7369 114.653C89.5138 114.653 90.2907 114.653 91.0676 114.653C91.0676 113.792 91.0676 113.018 91.0676 112.244C90.2907 112.244 89.5138 112.244 88.7369 112.244C88.7369 113.104 88.7369 113.878 88.7369 114.653C87.2695 114.653 85.8021 114.653 84.3346 114.567C83.3851 114.567 82.5219 114.567 81.4861 114.567C81.4861 113.792 81.4861 113.018 81.4861 112.158C80.6229 112.158 79.846 112.158 79.0691 112.158C79.0691 111.384 79.0691 110.524 79.0691 109.75C80.6229 109.75 82.2629 109.75 83.8167 109.75C83.8167 110.524 83.8167 111.298 83.8167 112.158C84.5936 112.158 85.3705 112.158 86.2337 112.158C86.2337 111.298 86.2337 110.524 86.2337 109.75C88.5643 109.75 90.9813 109.75 93.3982 109.75C93.3982 108.89 93.3982 108.116 93.3982 107.342C96.5921 107.342 99.7859 107.342 102.98 107.342C102.98 108.976 102.98 110.524 102.98 112.158C104.62 112.158 106.174 112.158 107.814 112.158C107.814 111.298 107.814 110.524 107.814 109.75C108.591 109.75 109.367 109.75 110.231 109.75C110.231 108.89 110.231 108.116 110.231 107.342C109.454 107.342 108.677 107.342 107.9 107.342C107.9 106.568 107.9 105.793 107.9 105.019C108.677 105.019 109.454 105.019 110.231 105.019C110.231 104.159 110.231 103.385 110.231 102.611C109.454 102.611 108.677 102.611 107.814 102.611C107.814 101.837 107.814 101.063 107.814 100.203C106.174 100.203 104.534 100.203 102.98 100.203C102.98 101.837 102.98 103.385 102.98 105.019C101.426 105.019 99.8722 105.019 98.2321 105.019C98.2321 103.385 98.2321 101.837 98.2321 100.117C99.009 100.117 99.7859 100.117 100.649 100.117C100.649 99.2566 100.649 98.4825 100.649 97.7084C101.426 97.7084 102.117 97.7084 102.98 97.7084C102.98 96.9343 102.98 96.1602 102.98 95.3861C103.843 95.3861 104.62 95.3861 105.397 95.3861C105.397 96.1602 105.397 96.9343 105.397 97.6224C107.037 97.6224 108.591 97.6224 110.231 97.6224C110.231 96.0742 110.231 94.526 110.231 92.9778C111.007 92.9778 111.698 92.9778 112.475 92.9778C112.475 94.526 112.475 96.0742 112.475 97.7084C113.338 97.7084 114.201 97.7084 114.978 97.7084C114.978 98.4825 114.978 99.2566 114.978 100.117C114.115 100.117 113.338 100.117 112.561 100.117C112.561 100.977 112.561 101.751 112.561 102.525C115.755 102.525 118.863 102.525 122.056 102.525C122.056 103.385 122.056 104.073 122.056 104.933C121.28 104.933 120.589 104.933 119.812 104.933C119.812 106.568 119.812 108.03 119.812 109.578C118.949 109.578 113.338 109.578 112.561 109.578C112.561 110.438 112.561 111.212 112.561 111.986C115.755 111.986 118.863 111.986 122.056 111.986C122.056 112.846 122.056 113.534 122.056 114.395C121.28 114.395 120.589 114.395 119.812 114.395C119.812 115.943 119.812 117.491 119.812 119.211C120.589 119.211 121.366 119.211 122.143 119.211C122.143 120.501 122.143 121.877 122.056 123.168C122.056 123.426 122.056 123.684 122.056 124.028C121.28 124.028 120.589 124.028 119.812 124.028C119.812 125.576 119.812 127.124 119.812 128.758C120.589 128.758 121.366 128.758 122.143 128.758C122.315 129.36 122.315 130.135 122.315 130.995ZM117.482 114.309C115.065 114.309 112.734 114.309 110.403 114.309C110.403 116.717 110.403 119.039 110.403 121.361C112.82 121.361 115.151 121.361 117.482 121.361C117.482 119.039 117.482 116.631 117.482 114.309ZM117.482 128.5C117.482 126.952 117.482 125.404 117.482 123.856C116.705 123.856 115.928 123.856 115.065 123.856C115.065 124.63 115.065 125.404 115.065 126.264C114.201 126.264 113.511 126.264 112.734 126.264C112.734 127.038 112.734 127.812 112.734 128.5C114.288 128.5 115.928 128.5 117.482 128.5ZM100.735 109.492C99.9585 109.492 99.1817 109.492 98.4048 109.492C98.4048 110.266 98.4048 111.04 98.4048 111.814C99.1817 111.814 99.9585 111.814 100.735 111.814C100.735 111.04 100.735 110.266 100.735 109.492Z" fill="black"/>
<path d="M86.3199 90.3116C80.7091 90.3116 75.1846 90.3116 69.6602 90.3116C69.6602 84.8068 69.6602 79.2161 69.6602 73.7114C75.1846 73.7114 80.7954 73.7114 86.3199 73.7114C86.3199 79.2161 86.3199 84.7208 86.3199 90.3116ZM83.903 87.9032C83.903 83.9467 83.903 79.9902 83.903 76.0337C79.9322 76.0337 75.9615 76.0337 71.9908 76.0337C71.9908 79.9902 71.9908 83.9467 71.9908 87.9032C76.0478 87.9032 79.9322 87.9032 83.903 87.9032Z" fill="black"/>
<path d="M112.82 90.3116C112.82 84.7208 112.82 79.2161 112.82 73.7114C118.345 73.7114 123.869 73.7114 129.48 73.7114C129.48 79.2161 129.48 84.8068 129.48 90.3116C123.955 90.3116 118.431 90.3116 112.82 90.3116ZM115.151 76.0337C115.151 79.9902 115.151 83.9467 115.151 87.9032C119.121 87.9032 123.092 87.9032 127.063 87.9032C127.063 83.9467 127.063 79.9902 127.063 76.0337C123.092 76.0337 119.208 76.0337 115.151 76.0337Z" fill="black"/>
<path d="M69.6602 133.317C69.6602 127.812 69.6602 122.308 69.6602 116.717C75.1846 116.717 80.7954 116.717 86.3199 116.717C86.3199 122.222 86.3199 127.726 86.3199 133.317C80.7954 133.317 75.1846 133.317 69.6602 133.317ZM72.0771 119.039C72.0771 123.082 72.0771 126.952 72.0771 130.909C76.0478 130.909 80.0186 130.909 83.9893 130.909C83.9893 126.952 83.9893 122.996 83.9893 119.039C79.9322 119.039 76.0478 119.039 72.0771 119.039Z" fill="black"/>
<path d="M122.315 119.039C122.315 118.265 122.229 117.491 122.229 116.717C123.869 116.717 125.423 116.717 127.063 116.717C127.063 115.083 127.063 113.535 127.063 111.9C126.286 111.9 125.509 111.9 124.732 111.9C124.732 111.04 124.732 110.266 124.732 109.492C123.869 109.492 123.092 109.492 122.315 109.492C122.315 108.632 122.315 107.944 122.315 107.084C123.092 107.084 123.869 107.084 124.732 107.084C124.732 105.45 124.732 103.987 124.732 102.439C126.372 102.439 127.926 102.439 129.566 102.439C129.566 103.213 129.566 103.987 129.566 104.848C128.789 104.848 128.012 104.848 127.236 104.848C127.236 105.622 127.236 106.396 127.236 107.17C128.012 107.17 128.789 107.17 129.566 107.17C129.566 111.212 129.566 115.083 129.566 119.211C127.149 119.039 124.732 119.039 122.315 119.039Z" fill="black"/>
<path d="M76.8247 109.492C76.8247 108.718 76.8247 107.944 76.8247 107.084C75.1846 107.084 73.6309 107.084 72.0771 107.084C72.0771 109.492 72.0771 111.814 72.0771 114.223C71.2139 114.223 70.5234 114.223 69.6602 114.223C69.6602 110.266 69.6602 106.31 69.6602 102.353C71.2139 102.353 72.854 102.353 74.4078 102.353C74.4078 103.127 74.4078 103.901 74.4078 104.761C75.271 104.761 76.0478 104.761 76.8247 104.761C76.8247 103.901 76.8247 103.127 76.8247 102.353C78.4648 102.353 80.0186 102.353 81.6587 102.353C81.6587 103.987 81.6587 105.449 81.6587 107.084C80.8818 107.084 80.1049 107.084 79.2417 107.084C79.2417 107.944 79.2417 108.718 79.2417 109.492C78.3785 109.406 77.6016 109.406 76.8247 109.492Z" fill="black"/>
<path d="M74.4079 97.4505C73.631 97.4505 72.8541 97.4505 72.1635 97.5365C72.1635 96.7624 72.0772 95.9883 72.0772 95.2142C71.3003 95.2142 70.5235 95.2142 69.7466 95.2142C69.7466 94.3541 69.7466 93.666 69.7466 92.8059C73.7173 92.8059 77.688 92.8059 81.7451 92.8059C81.7451 93.58 81.7451 94.3541 81.7451 95.2142C82.6083 95.2142 83.2988 95.2142 84.0757 95.2142C84.0757 95.9883 84.0757 96.7624 84.0757 97.5365C85.7158 97.5365 87.3559 97.5365 88.9096 97.5365C88.9096 98.3106 88.9096 99.1707 88.9096 99.9448C85.6295 99.9448 82.5219 99.9448 79.3281 99.9448C79.3281 99.1707 79.3281 98.3966 79.3281 97.5365C78.4649 97.5365 77.688 97.5365 76.9111 97.5365C76.9111 96.7624 76.9111 95.9883 76.9111 95.3002C76.0479 95.3002 75.2711 95.3002 74.4942 95.3002C74.3215 95.9883 74.3215 96.7624 74.4079 97.4505Z" fill="black"/>
<path d="M95.9878 87.9033C95.9878 87.1292 95.9878 86.4411 95.9878 85.581C99.1816 85.581 102.289 85.581 105.569 85.581C105.569 83.9468 105.569 82.3125 105.569 80.6783C106.346 80.6783 107.123 80.6783 107.986 80.6783C107.986 79.8182 107.986 79.0441 107.986 78.27C108.763 78.27 109.54 78.27 110.403 78.27C110.403 80.6783 110.403 83.0866 110.403 85.495C109.626 85.495 108.849 85.495 107.986 85.495C107.986 86.3551 107.986 87.0432 107.986 87.8173C107.209 87.8173 106.433 87.8173 105.483 87.8173C105.483 88.6774 105.483 89.4515 105.483 90.2256C104.62 90.2256 103.843 90.2256 103.066 90.2256C103.066 89.4515 103.066 88.6774 103.066 87.8173C102.203 87.8173 101.512 87.8173 100.735 87.8173C100.735 88.6774 100.735 89.4515 100.735 90.2256C99.9585 90.2256 99.0953 90.2256 98.3184 90.2256C98.3184 89.4515 98.3184 88.6774 98.3184 87.8173C97.5416 87.9033 96.7647 87.9033 95.9878 87.9033Z" fill="black"/>
<path d="M83.9893 95.2142C83.9893 94.4401 83.9893 93.666 83.9893 92.8059C86.4062 92.8059 88.7369 92.8059 91.2401 92.8059C91.2401 91.9458 91.2401 91.1717 91.2401 90.3976C92.017 90.3976 92.7076 90.3976 93.5708 90.3976C93.5708 89.5375 93.5708 88.7634 93.5708 87.9893C94.3477 87.9893 95.2109 87.9893 95.9877 87.9893C95.9877 88.7634 95.9877 89.5375 95.9877 90.3976C96.8509 90.3976 97.6278 90.3976 98.4047 90.3976C98.4047 92.0318 98.4047 93.666 98.4047 95.2142C97.6278 95.2142 96.7646 95.2142 95.9877 95.2142C95.9877 94.4401 95.9877 93.666 95.9877 92.8059C95.1245 92.8059 94.3477 92.8059 93.5708 92.8059C93.5708 93.666 93.5708 94.4401 93.5708 95.2142C92.7939 95.2142 92.017 95.2142 91.2401 95.2142C91.2401 95.9883 91.2401 96.6764 91.2401 97.4505C90.3769 97.4505 89.6001 97.4505 88.8232 97.4505C88.8232 96.6764 88.8232 95.9023 88.8232 95.1282C87.0968 95.1282 85.543 95.1282 83.9893 95.2142Z" fill="black"/>
<path d="M95.9878 130.995C95.9878 131.769 95.9878 132.543 95.9878 133.403C93.5708 133.403 91.2402 133.403 88.8232 133.403C88.8232 129.447 88.8232 125.49 88.8232 121.448C89.6864 121.448 90.4633 121.448 91.2402 121.448C91.2402 123.77 91.2402 126.178 91.2402 128.586C92.0171 128.586 92.794 128.586 93.5708 128.586C93.5708 129.361 93.5708 130.135 93.5708 130.995C94.3477 130.995 95.1246 130.995 95.9878 130.995Z" fill="black"/>
<path d="M100.822 76.0337C101.512 76.0337 102.289 76.0337 103.066 76.0337C103.066 75.2596 103.066 74.4855 103.066 73.7114C105.483 73.7114 107.9 73.7114 110.317 73.7114C110.317 74.4855 110.317 75.2596 110.317 76.0337C109.54 76.0337 108.763 76.0337 107.986 76.0337C107.986 76.8078 107.986 77.5819 107.986 78.356C107.209 78.356 106.346 78.356 105.569 78.356C105.569 79.2161 105.569 79.9902 105.569 80.7643C104.792 80.7643 103.929 80.7643 103.152 80.7643C103.152 79.9902 103.152 79.2161 103.152 78.356C102.376 78.356 101.599 78.356 100.908 78.356C100.908 77.5819 100.908 76.8078 100.822 76.0337Z" fill="black"/>
<path d="M91.2402 90.3116C90.4633 90.3116 89.6001 90.3116 88.8232 90.3116C88.8232 88.7634 88.8232 87.2152 88.8232 85.581C89.6001 85.581 90.377 85.581 91.1539 85.581C91.1539 84.7209 91.1539 84.0328 91.1539 83.1727C90.377 83.1727 89.6001 83.1727 88.8232 83.1727C88.8232 82.3126 88.8232 81.6245 88.8232 80.7644C91.1539 80.7644 93.4845 80.7644 95.9015 80.7644C95.9015 81.5385 95.9015 82.3126 95.9015 83.0867C95.1246 83.0867 94.3477 83.0867 93.5708 83.0867C93.5708 84.7209 93.5708 86.2691 93.5708 87.8173C92.794 87.8173 92.0171 87.8173 91.2402 87.8173C91.2402 88.7634 91.2402 89.5375 91.2402 90.3116Z" fill="black"/>
<path d="M127.149 128.5C127.149 129.275 127.149 130.049 127.149 130.909C127.926 130.909 128.703 130.909 129.566 130.909C129.566 131.769 129.566 132.457 129.566 133.317C127.149 133.317 124.819 133.317 122.315 133.317C122.315 132.543 122.315 131.769 122.315 130.909C123.092 130.909 123.869 130.909 124.732 130.909C124.732 130.049 124.732 129.275 124.732 128.5C125.509 128.586 126.372 128.586 127.149 128.5Z" fill="black"/>
<path d="M119.985 95.2141C119.985 96.4183 119.985 97.5364 119.898 98.7406C119.898 99.0846 119.898 99.5147 119.898 99.9447C119.121 99.9447 118.345 99.9447 117.481 99.9447C117.481 99.1706 117.481 98.3966 117.481 97.6225C116.618 97.6225 115.841 97.6225 115.064 97.6225C115.064 96.0743 115.064 94.5261 115.064 92.8918C115.841 92.8918 116.532 92.8918 117.395 92.8918C117.395 93.6659 117.395 94.44 117.395 95.3002C118.431 95.2141 119.208 95.2141 119.985 95.2141Z" fill="black"/>
<path d="M124.732 126.264C124.732 125.49 124.732 124.716 124.732 123.856C126.286 123.856 127.926 123.856 129.48 123.856C129.48 125.404 129.48 126.952 129.48 128.501C128.703 128.501 127.926 128.501 127.149 128.501C127.149 127.726 127.149 127.038 127.149 126.178C126.286 126.264 125.509 126.264 124.732 126.264Z" fill="black"/>
<path d="M100.822 78.4421C100.822 79.5603 100.735 80.5924 100.735 81.7106C100.735 82.2266 100.735 86.9572 100.735 87.4733C99.8721 87.4733 99.1816 87.4733 98.3184 87.4733C98.3184 85.9251 98.3184 80.0763 98.3184 78.4421C99.2679 78.4421 100.045 78.4421 100.822 78.4421C100.908 78.4421 100.822 78.4421 100.822 78.4421Z" fill="black"/>
<path d="M107.986 87.9033C108.763 87.9033 109.54 87.9033 110.403 87.9033C110.403 89.5375 110.403 91.1717 110.403 92.7199C109.626 92.7199 108.763 92.7199 107.986 92.7199C107.986 91.1717 107.986 89.5375 107.986 87.9033Z" fill="black"/>
<path d="M74.4077 102.353C74.4077 100.719 74.4077 99.0846 74.4077 97.5364C75.1846 97.5364 76.0478 97.5364 76.8247 97.5364C76.8247 99.1706 76.8247 100.805 76.8247 102.353C75.9615 102.267 75.1846 102.267 74.4077 102.353Z" fill="black"/>
<path d="M93.4844 78.356C93.4844 76.8078 93.4844 75.2596 93.4844 73.7114C94.2613 73.7114 95.0381 73.7114 95.815 73.7114C95.815 75.2596 95.815 76.7218 95.815 78.356C95.1245 78.356 94.3476 78.356 93.4844 78.356Z" fill="black"/>
<path d="M127.236 95.1282C126.459 95.1282 125.595 95.1282 124.819 95.1282C124.819 94.3541 124.819 93.58 124.819 92.8059C125.595 92.8059 126.372 92.8059 127.236 92.8059C127.149 93.58 127.149 94.3541 127.236 95.1282Z" fill="black"/>
<path d="M100.908 76.0337C100.131 76.0337 99.2678 76.0337 98.491 76.0337C98.491 75.2596 98.491 74.4855 98.491 73.7114C99.2678 73.7114 100.045 73.7114 100.908 73.7114C100.822 74.4855 100.822 75.2596 100.908 76.0337C100.822 76.0337 100.908 76.0337 100.908 76.0337Z" fill="black"/>
<path d="M79.2417 111.814C79.2417 112.588 79.2417 113.362 79.2417 114.223C78.3785 114.223 77.6016 114.223 76.8247 114.223C76.8247 113.448 76.8247 112.674 76.8247 111.814C77.6016 111.9 78.3785 111.9 79.2417 111.814Z" fill="black"/>
<path d="M122.315 97.4504C123.092 97.4504 123.869 97.4504 124.646 97.4504C124.646 98.2245 124.646 98.9986 124.646 99.7727C123.869 99.7727 123.092 99.7727 122.315 99.7727C122.315 99.0846 122.315 98.3106 122.315 97.4504Z" fill="black"/>
<path d="M72.0771 97.5364C72.0771 98.3105 71.9908 99.0846 71.9908 99.8587C71.2139 99.8587 70.437 99.8587 69.6602 99.8587C69.6602 99.0846 69.6602 98.3105 69.6602 97.5364C70.437 97.5364 71.3002 97.5364 72.0771 97.5364Z" fill="black"/>
<path d="M76.8247 111.814C76.0478 111.814 75.1846 111.814 74.4077 111.814C74.4077 111.04 74.4077 110.266 74.4077 109.406C75.2709 109.406 76.0478 109.406 76.8247 109.406C76.7384 110.266 76.7384 111.04 76.8247 111.814Z" fill="black"/>
<path d="M120.071 95.2142C120.071 94.4401 120.071 93.58 120.071 92.8059C120.762 92.8059 121.539 92.8059 122.229 92.8059C122.229 93.58 122.229 94.3541 122.229 95.2142C121.452 95.2142 120.762 95.2142 120.071 95.2142C119.985 95.2142 120.071 95.2142 120.071 95.2142Z" fill="black"/>
<path d="M122.315 128.586C122.315 127.812 122.315 127.124 122.315 126.264C123.092 126.264 123.956 126.264 124.732 126.264C124.732 127.038 124.732 127.812 124.732 128.586C123.869 128.5 123.092 128.5 122.315 128.586Z" fill="black"/>
<path d="M91.1539 78.3559C90.377 78.3559 89.6001 78.3559 88.8232 78.3559C88.8232 77.5818 88.8232 76.8937 88.8232 76.1196C89.6001 76.1196 90.377 76.1196 91.1539 76.1196C91.1539 76.8077 91.1539 77.5818 91.1539 78.3559Z" fill="black"/>
<path d="M91.2402 121.448C91.2402 120.674 91.2402 119.813 91.2402 119.039C92.0171 119.039 92.794 119.039 93.5709 119.039C93.5709 119.813 93.5709 120.674 93.5709 121.448C92.794 121.362 92.0171 121.362 91.2402 121.448Z" fill="black"/>
<path d="M127.149 95.1282C127.926 95.1282 128.703 95.1282 129.48 95.1282C129.48 95.9023 129.48 96.6764 129.48 97.4505C128.703 97.4505 127.926 97.4505 127.149 97.4505C127.149 96.6764 127.149 95.9023 127.149 95.1282C127.236 95.1282 127.149 95.1282 127.149 95.1282Z" fill="black"/>
<path d="M88.8232 104.761C87.1831 104.761 85.6293 104.761 83.9893 104.761C83.9893 103.987 83.9893 103.213 83.9893 102.353C87.96 102.353 91.9307 102.353 95.9014 102.353C95.9014 103.127 95.9014 103.901 95.9014 104.675C94.3477 104.675 92.7939 104.675 91.2401 104.675C91.2401 105.449 91.2401 106.224 91.2401 106.998C90.3769 106.998 89.6864 106.998 88.8232 106.998C88.8232 106.31 88.8232 105.535 88.8232 104.761Z" fill="black"/>
<path d="M93.4844 95.1282C94.2613 95.1282 95.1245 95.1282 95.9013 95.1282C95.9013 96.6764 95.9013 105.966 95.9013 107.514C95.0381 107.514 94.2613 107.514 93.4844 107.514C93.4844 106.052 93.4844 96.7624 93.4844 95.1282Z" fill="black"/>
<path d="M86.4062 109.492C85.6293 109.492 84.7661 109.492 83.9893 109.492C83.9893 108.718 83.9893 107.944 83.9893 107.084C84.7661 107.084 85.543 107.084 86.4062 107.084C86.4062 107.858 86.4062 108.632 86.4062 109.492Z" fill="black"/>
<path d="M98.4048 95.1282C99.1817 95.1282 99.9585 95.1282 100.822 95.1282C100.822 95.9023 100.822 96.6764 100.822 97.4505C100.045 97.4505 99.268 97.4505 98.4048 97.4505C98.4048 96.6764 98.4048 95.9023 98.4048 95.1282Z" fill="black"/>
<path d="M105.569 104.761C105.569 105.536 105.569 106.31 105.569 107.084C104.792 107.084 103.929 107.084 103.152 107.084C103.152 106.31 103.152 105.536 103.152 104.761C103.929 104.761 104.706 104.761 105.569 104.761Z" fill="black"/>
<path d="M93.5708 121.362C94.3477 121.362 95.1246 121.362 95.9014 121.362C95.9014 122.222 95.9014 122.996 95.9014 123.77C95.1246 123.77 94.3477 123.77 93.5708 123.77C93.5708 122.996 93.5708 122.136 93.5708 121.362Z" fill="black"/>
<path d="M100.822 121.448C101.599 121.448 102.289 121.448 103.152 121.448C103.152 122.308 103.152 123.082 103.152 123.856C102.376 123.856 101.599 123.856 100.822 123.856C100.822 122.996 100.822 122.222 100.822 121.448Z" fill="black"/>
<path d="M93.4844 119.039C93.4844 118.265 93.4844 117.491 93.4844 116.717C94.2613 116.717 95.0381 116.717 95.9013 116.717C95.9013 117.491 95.9013 118.179 95.9013 119.039C95.1245 119.039 94.3476 119.039 93.4844 119.039Z" fill="black"/>
<path d="M107.986 92.72C107.986 93.4941 107.986 94.2682 107.986 95.1283C107.123 95.1283 106.346 95.1283 105.569 95.1283C105.569 94.3542 105.569 93.5801 105.569 92.72C106.346 92.72 107.209 92.72 107.986 92.72Z" fill="black"/>
<path d="M100.822 90.3115C101.599 90.3115 102.376 90.3115 103.152 90.3115C103.152 91.0856 103.152 91.8597 103.152 92.7198C102.376 92.7198 101.599 92.7198 100.822 92.7198C100.822 91.9457 100.822 91.0856 100.822 90.3115Z" fill="black"/>
<path d="M115.065 118.953C114.288 118.953 113.511 118.953 112.734 118.953C112.734 118.179 112.734 117.491 112.734 116.717C113.511 116.717 114.288 116.717 115.065 116.717C115.065 117.491 115.065 118.265 115.065 118.953Z" fill="black"/>
<path d="M105.569 106.998C106.346 106.998 107.209 106.998 107.986 106.998C107.986 107.772 107.986 108.632 107.986 109.406C107.209 109.406 106.433 109.406 105.569 109.406C105.569 108.632 105.569 107.772 105.569 106.998Z" fill="black"/>
<path d="M107.986 104.761C107.209 104.761 106.346 104.761 105.569 104.761C105.569 103.987 105.569 103.213 105.569 102.353C106.433 102.353 107.209 102.353 107.986 102.353C107.986 103.127 107.986 103.901 107.986 104.761Z" fill="black"/>
<path d="M81.5723 85.5811C79.1553 85.5811 76.8247 85.5811 74.4077 85.5811C74.4077 83.1727 74.4077 80.8505 74.4077 78.5282C74.494 78.5282 74.5804 78.4421 74.6667 78.4421C76.8247 78.4421 78.9827 78.4421 81.1407 78.4421C81.3133 78.4421 81.5723 78.6142 81.5723 78.7862C81.5723 81.0225 81.5723 83.2588 81.5723 85.5811Z" fill="black"/>
<path d="M117.568 78.4421C119.899 78.4421 122.315 78.4421 124.646 78.4421C124.646 80.8504 124.646 83.1727 124.646 85.5811C122.315 85.5811 119.985 85.5811 117.568 85.5811C117.568 83.1727 117.568 80.8504 117.568 78.4421Z" fill="black"/>
<path d="M81.5724 121.448C81.5724 123.77 81.5724 126.178 81.5724 128.5C79.2417 128.5 76.8248 128.5 74.4941 128.5C74.4941 126.178 74.4941 123.77 74.4941 121.448C76.8248 121.448 79.1554 121.448 81.5724 121.448Z" fill="black"/>
<path d="M64.5673 68.1208H76.3932V65.8845H62.323V80.8504H64.5673V68.1208Z" fill="#1A53F0"/>
<path d="M64.5673 127.038H62.323V141.058H77.3427V138.908H64.5673V127.038Z" fill="#1A53F0"/>
<path d="M123.265 65.8845V68.1208H136.04V79.9043H138.285V65.8845H123.265Z" fill="#1A53F0"/>
<path d="M136.04 138.908H124.128V141.058H138.285V126.092H136.04V138.908Z" fill="#1A53F0"/>
<path d="M138.371 99.9448H62.323V102.267H138.371V99.9448Z" fill="#1A53F0"/>
<path d="M55.0722 106.654C55.0722 106.654 62.2367 112.846 63.7905 119.985C65.8622 129.619 55.9354 144.24 56.4533 156.11C57.0575 169.872 64.5674 175.806 69.1423 184.924C74.4079 195.417 74.0626 202.384 74.0626 205.996C74.0626 209.609 72.7678 212.017 72.7678 212.017H122.315C122.315 212.017 112.561 226.811 93.3983 238.68C77.688 248.4 69.4876 265 69.4876 265H0L25.0328 223.629C25.0328 223.629 20.5442 201.782 23.2201 186.042C27.9677 157.572 55.0722 106.654 55.0722 106.654Z" fill="#EBB3A0"/>
<path d="M72.9405 211.845C72.9405 211.845 70.2646 216.748 67.2434 221.736C64.1359 226.725 62.2368 229.391 62.2368 229.391C62.2368 229.391 69.574 227.413 74.2353 223.973C81.9178 218.382 86.6654 211.931 86.6654 211.931L72.9405 211.845Z" fill="#D1866D"/>
<path d="M141.91 3.95651L144.068 0L146.226 3.95651C148.384 7.91301 151.578 11.0954 155.549 13.2457L159.52 15.396L155.549 17.5463C151.578 19.6965 148.384 22.8789 146.226 26.8354L144.068 30.792L141.91 26.8354C139.752 22.8789 136.558 19.6965 132.588 17.5463L128.617 15.396L132.588 13.2457C136.472 11.0954 139.752 7.827 141.91 3.95651Z" fill="#1A53F0"/>
<path d="M102.721 18.0624L103.67 16.4282L104.62 18.0624C105.569 19.6966 106.864 21.0728 108.591 22.0189L110.231 22.9651L108.591 23.9112C106.951 24.8573 105.569 26.1475 104.62 27.8677L103.67 29.5019L102.721 27.8677C101.771 26.2335 100.477 24.8573 98.7502 23.9112L97.1101 22.9651L98.7502 22.0189C100.477 21.1588 101.858 19.7827 102.721 18.0624Z" fill="#1A53F0"/>
<path d="M159.779 63.3041L160.21 62.53L160.642 63.3041C161.073 64.0782 161.678 64.6803 162.454 65.1104L163.231 65.5404L162.454 65.9705C161.678 66.4005 161.073 67.0026 160.642 67.7767L160.21 68.5508L159.779 67.7767C159.347 67.0026 158.743 66.4005 157.966 65.9705L157.189 65.5404L157.966 65.1104C158.656 64.6803 159.347 63.9922 159.779 63.3041Z" fill="#1A53F0"/>
<path d="M164.785 32.8562L165.562 31.48L166.339 32.8562C167.116 34.2323 168.238 35.4365 169.619 36.1246L171 36.8987L169.619 37.6728C168.238 38.4469 167.029 39.565 166.339 40.9412L165.562 42.3174L164.785 40.9412C164.008 39.565 162.886 38.3609 161.505 37.6728L160.124 36.8987L161.505 36.1246C162.886 35.4365 164.008 34.2323 164.785 32.8562Z" fill="black"/>
</svg>
