<svg viewBox="0 0 166 165" fill="none" xmlns="http://www.w3.org/2000/svg">
<path d="M146.539 139.671H140.875V145.316H146.539V139.671Z" fill="white"/>
<path d="M146.539 133.447H140.875V139.671H146.539V133.447Z" fill="white"/>
<path d="M146.539 122.592H140.875V133.447H146.539V122.592Z" fill="white"/>
<path d="M146.539 116.803H140.875V122.447H146.539V116.803Z" fill="white"/>
<path d="M146.539 111.158H140.875V116.803H146.539V111.158Z" fill="white"/>
<path d="M146.539 99.7237H140.875V111.158H146.539V99.7237Z" fill="white"/>
<path d="M146.539 88.2895H140.875V99.7237H146.539V88.2895Z" fill="white"/>
<path d="M146.539 76.8553H140.875V88.2895H146.539V76.8553Z" fill="white"/>
<path d="M146.539 65.4211H140.875V76.8552H146.539V65.4211Z" fill="white"/>
<path d="M146.539 59.7763H140.875V65.4211H146.539V59.7763Z" fill="white"/>
<path d="M146.539 54.1316H140.875V59.7763H146.539V54.1316Z" fill="white"/>
<path d="M146.539 48.3421H140.875V53.9868H146.539V48.3421Z" fill="white"/>
<path d="M146.539 42.6974H140.875V48.3421H146.539V42.6974Z" fill="white"/>
<path d="M146.539 37.0526H140.875V42.6974H146.539V37.0526Z" fill="white"/>
<path d="M146.539 31.2632H140.875V37.0526H146.539V31.2632Z" fill="white"/>
<path d="M146.539 25.6184H140.875V31.2631H146.539V25.6184Z" fill="white"/>
<path d="M146.539 19.8289H140.875V25.4737H146.539V19.8289Z" fill="white"/>
<path d="M140.73 139.671H135.066V145.316H140.73V139.671Z" fill="white"/>
<path d="M140.73 133.447H135.066V139.671H140.73V133.447Z" fill="#1E0B02"/>
<path d="M140.73 122.592H135.066V133.447H140.73V122.592Z" fill="#1E0B02"/>
<path d="M140.73 116.803H135.066V122.447H140.73V116.803Z" fill="white"/>
<path d="M140.73 111.158H135.066V116.803H140.73V111.158Z" fill="#1E0B02"/>
<path d="M140.73 99.7237H135.066V111.158H140.73V99.7237Z" fill="#1E0B02"/>
<path d="M140.73 88.2895H135.066V99.7237H140.73V88.2895Z" fill="#1E0B02"/>
<path d="M140.73 76.8553H135.066V88.2895H140.73V76.8553Z" fill="#1E0B02"/>
<path d="M140.73 65.4211H135.066V76.8552H140.73V65.4211Z" fill="#1E0B02"/>
<path d="M140.73 59.7763H135.066V65.4211H140.73V59.7763Z" fill="#1E0B02"/>
<path d="M140.73 54.1316H135.066V59.7763H140.73V54.1316Z" fill="white"/>
<path d="M140.73 48.3421H135.066V53.9868H140.73V48.3421Z" fill="#1E0B02"/>
<path d="M140.73 42.6974H135.066V48.3421H140.73V42.6974Z" fill="#1E0B02"/>
<path d="M140.73 37.0526H135.066V42.6974H140.73V37.0526Z" fill="#1E0B02"/>
<path d="M140.73 31.2632H135.066V37.0526H140.73V31.2632Z" fill="#1E0B02"/>
<path d="M140.73 25.6184H135.066V31.2631H140.73V25.6184Z" fill="#1E0B02"/>
<path d="M140.73 19.8289H135.066V25.4737H140.73V19.8289Z" fill="white"/>
<path d="M135.211 139.671H129.402V145.316H135.211V139.671Z" fill="white"/>
<path d="M135.211 133.447H129.402V139.671H135.211V133.447Z" fill="white"/>
<path d="M135.211 122.592H129.402V133.447H135.211V122.592Z" fill="white"/>
<path d="M135.211 116.803H129.402V122.447H135.211V116.803Z" fill="#1E0B02"/>
<path d="M135.211 111.158H129.402V116.803H135.211V111.158Z" fill="white"/>
<path d="M135.211 99.7237H129.402V111.158H135.211V99.7237Z" fill="white"/>
<path d="M135.211 88.2895H129.402V99.7237H135.211V88.2895Z" fill="#1E0B02"/>
<path d="M135.211 76.8553H129.402V88.2895H135.211V76.8553Z" fill="#1E0B02"/>
<path d="M135.211 65.4211H129.402V76.8552H135.211V65.4211Z" fill="#1E0B02"/>
<path d="M135.211 59.7763H129.402V65.4211H135.211V59.7763Z" fill="white"/>
<path d="M135.211 54.1316H129.402V59.7763H135.211V54.1316Z" fill="white"/>
<path d="M135.211 48.3421H129.402V53.9868H135.211V48.3421Z" fill="#1E0B02"/>
<path d="M135.211 42.6974H129.402V48.3421H135.211V42.6974Z" fill="white"/>
<path d="M135.211 37.0526H129.402V42.6974H135.211V37.0526Z" fill="white"/>
<path d="M135.211 31.2632H129.402V37.0526H135.211V31.2632Z" fill="white"/>
<path d="M135.211 25.6184H129.402V31.2631H135.211V25.6184Z" fill="#1E0B02"/>
<path d="M135.211 19.8289H129.402V25.4737H135.211V19.8289Z" fill="white"/>
<path d="M129.256 139.671H123.592V145.316H129.256V139.671Z" fill="white"/>
<path d="M129.256 133.447H123.592V139.671H129.256V133.447Z" fill="#1E0B02"/>
<path d="M129.256 122.592H123.592V133.447H129.256V122.592Z" fill="white"/>
<path d="M129.256 116.803H123.592V122.447H129.256V116.803Z" fill="white"/>
<path d="M129.256 111.158H123.592V116.803H129.256V111.158Z" fill="#1E0B02"/>
<path d="M129.256 99.7237H123.592V111.158H129.256V99.7237Z" fill="white"/>
<path d="M129.256 88.2895H123.592V99.7237H129.256V88.2895Z" fill="#1E0B02"/>
<path d="M129.256 76.8553H123.592V88.2895H129.256V76.8553Z" fill="#1E0B02"/>
<path d="M129.256 65.4211H123.592V76.8552H129.256V65.4211Z" fill="#1E0B02"/>
<path d="M129.256 59.7763H123.592V65.4211H129.256V59.7763Z" fill="white"/>
<path d="M129.256 54.1316H123.592V59.7763H129.256V54.1316Z" fill="white"/>
<path d="M129.256 48.3421H123.592V53.9868H129.256V48.3421Z" fill="#1E0B02"/>
<path d="M129.256 42.6974H123.592V48.3421H129.256V42.6974Z" fill="white"/>
<path d="M129.256 37.0526H123.592V42.6974H129.256V37.0526Z" fill="#1E0B02"/>
<path d="M129.256 31.2632H123.592V37.0526H129.256V31.2632Z" fill="white"/>
<path d="M129.256 25.6184H123.592V31.2631H129.256V25.6184Z" fill="#1E0B02"/>
<path d="M129.256 19.8289H123.592V25.4737H129.256V19.8289Z" fill="white"/>
<path d="M123.593 139.671H117.928V145.316H123.593V139.671Z" fill="white"/>
<path d="M123.593 133.447H117.928V139.671H123.593V133.447Z" fill="#1E0B02"/>
<path d="M123.593 122.592H117.928V133.447H123.593V122.592Z" fill="white"/>
<path d="M123.593 116.803H117.928V122.447H123.593V116.803Z" fill="white"/>
<path d="M123.593 111.158H117.928V116.803H123.593V111.158Z" fill="white"/>
<path d="M123.593 99.7237H117.928V111.158H123.593V99.7237Z" fill="white"/>
<path d="M123.593 88.2895H117.928V99.7237H123.593V88.2895Z" fill="white"/>
<path d="M123.593 76.8553H117.928V88.2895H123.593V76.8553Z" fill="white"/>
<path d="M123.593 65.4211H117.928V76.8552H123.593V65.4211Z" fill="#1E0B02"/>
<path d="M123.593 59.7763H117.928V65.4211H123.593V59.7763Z" fill="white"/>
<path d="M123.593 54.1316H117.928V59.7763H123.593V54.1316Z" fill="white"/>
<path d="M123.593 48.3421H117.928V53.9868H123.593V48.3421Z" fill="#1E0B02"/>
<path d="M123.593 42.6974H117.928V48.3421H123.593V42.6974Z" fill="white"/>
<path d="M123.593 37.0526H117.928V42.6974H123.593V37.0526Z" fill="white"/>
<path d="M123.593 31.2632H117.928V37.0526H123.593V31.2632Z" fill="white"/>
<path d="M123.593 25.6184H117.928V31.2631H123.593V25.6184Z" fill="#1E0B02"/>
<path d="M123.593 19.8289H117.928V25.4737H123.593V19.8289Z" fill="white"/>
<path d="M117.928 139.671H112.264V145.316H117.928V139.671Z" fill="white"/>
<path d="M117.928 133.447H112.264V139.671H117.928V133.447Z" fill="#1E0B02"/>
<path d="M117.928 122.592H112.264V133.447H117.928V122.592Z" fill="white"/>
<path d="M117.928 116.803H112.264V122.447H117.928V116.803Z" fill="white"/>
<path d="M117.928 111.158H112.264V116.803H117.928V111.158Z" fill="white"/>
<path d="M117.928 99.7237H112.264V111.158H117.928V99.7237Z" fill="white"/>
<path d="M117.928 88.2895H112.264V99.7237H117.928V88.2895Z" fill="white"/>
<path d="M117.928 76.8553H112.264V88.2895H117.928V76.8553Z" fill="#1E0B02"/>
<path d="M117.928 65.4211H112.264V76.8552H117.928V65.4211Z" fill="#1E0B02"/>
<path d="M117.928 59.7763H112.264V65.4211H117.928V59.7763Z" fill="#1E0B02"/>
<path d="M117.928 54.1316H112.264V59.7763H117.928V54.1316Z" fill="white"/>
<path d="M117.928 48.3421H112.264V53.9868H117.928V48.3421Z" fill="#1E0B02"/>
<path d="M117.928 42.6974H112.264V48.3421H117.928V42.6974Z" fill="#1E0B02"/>
<path d="M117.928 37.0526H112.264V42.6974H117.928V37.0526Z" fill="#1E0B02"/>
<path d="M117.928 31.2632H112.264V37.0526H117.928V31.2632Z" fill="#1E0B02"/>
<path d="M117.928 25.6184H112.264V31.2631H117.928V25.6184Z" fill="#1E0B02"/>
<path d="M117.928 19.8289H112.264V25.4737H117.928V19.8289Z" fill="white"/>
<path d="M112.119 139.671H106.455V145.316H112.119V139.671Z" fill="white"/>
<path d="M112.119 133.447H106.455V139.671H112.119V133.447Z" fill="#1E0B02"/>
<path d="M112.119 122.592H106.455V133.447H112.119V122.592Z" fill="white"/>
<path d="M112.119 116.803H106.455V122.447H112.119V116.803Z" fill="white"/>
<path d="M112.119 111.158H106.455V116.803H112.119V111.158Z" fill="white"/>
<path d="M112.119 99.7237H106.455V111.158H112.119V99.7237Z" fill="#1E0B02"/>
<path d="M112.119 88.2895H106.455V99.7237H112.119V88.2895Z" fill="white"/>
<path d="M112.119 76.8553H106.455V88.2895H112.119V76.8553Z" fill="white"/>
<path d="M112.119 65.4211H106.455V76.8552H112.119V65.4211Z" fill="white"/>
<path d="M112.119 59.7763H106.455V65.4211H112.119V59.7763Z" fill="white"/>
<path d="M112.119 54.1316H106.455V59.7763H112.119V54.1316Z" fill="white"/>
<path d="M112.119 48.3421H106.455V53.9868H112.119V48.3421Z" fill="white"/>
<path d="M112.119 42.6974H106.455V48.3421H112.119V42.6974Z" fill="white"/>
<path d="M112.119 37.0526H106.455V42.6974H112.119V37.0526Z" fill="white"/>
<path d="M112.119 31.2632H106.455V37.0526H112.119V31.2632Z" fill="white"/>
<path d="M112.119 25.6184H106.455V31.2631H112.119V25.6184Z" fill="white"/>
<path d="M112.119 19.8289H106.455V25.4737H112.119V19.8289Z" fill="white"/>
<path d="M106.455 139.671H100.791V145.316H106.455V139.671Z" fill="white"/>
<path d="M106.455 133.447H100.791V139.671H106.455V133.447Z" fill="#1E0B02"/>
<path d="M106.455 122.592H100.791V133.447H106.455V122.592Z" fill="white"/>
<path d="M106.455 116.803H100.791V122.447H106.455V116.803Z" fill="white"/>
<path d="M106.455 111.158H100.791V116.803H106.455V111.158Z" fill="#1E0B02"/>
<path d="M106.455 99.7237H100.791V111.158H106.455V99.7237Z" fill="#1E0B02"/>
<path d="M106.455 88.2895H100.791V99.7237H106.455V88.2895Z" fill="#1E0B02"/>
<path d="M106.455 76.8553H100.791V88.2895H106.455V76.8553Z" fill="#1E0B02"/>
<path d="M106.455 65.4211H100.791V76.8552H106.455V65.4211Z" fill="white"/>
<path d="M106.455 59.7763H100.791V65.4211H106.455V59.7763Z" fill="#1E0B02"/>
<path d="M106.455 54.1316H100.791V59.7763H106.455V54.1316Z" fill="white"/>
<path d="M106.455 48.3421H100.791V53.9868H106.455V48.3421Z" fill="white"/>
<path d="M106.455 42.6974H100.791V48.3421H106.455V42.6974Z" fill="#1E0B02"/>
<path d="M106.455 37.0526H100.791V42.6974H106.455V37.0526Z" fill="white"/>
<path d="M106.455 31.2632H100.791V37.0526H106.455V31.2632Z" fill="white"/>
<path d="M106.455 25.6184H100.791V31.2631H106.455V25.6184Z" fill="#1E0B02"/>
<path d="M106.455 19.8289H100.791V25.4737H106.455V19.8289Z" fill="white"/>
<path d="M100.791 139.671H94.9819V145.316H100.791V139.671Z" fill="white"/>
<path d="M100.791 133.447H94.9819V139.671H100.791V133.447Z" fill="white"/>
<path d="M100.791 122.592H94.9819V133.447H100.791V122.592Z" fill="white"/>
<path d="M100.791 116.803H94.9819V122.447H100.791V116.803Z" fill="white"/>
<path d="M100.791 111.158H94.9819V116.803H100.791V111.158Z" fill="#1E0B02"/>
<path d="M100.791 99.7237H94.9819V111.158H100.791V99.7237Z" fill="white"/>
<path d="M100.791 88.2895H94.9819V99.7237H100.791V88.2895Z" fill="#1E0B02"/>
<path d="M100.791 76.8553H94.9819V88.2895H100.791V76.8553Z" fill="white"/>
<path d="M100.791 65.4211H94.9819V76.8552H100.791V65.4211Z" fill="white"/>
<path d="M100.791 59.7763H94.9819V65.4211H100.791V59.7763Z" fill="#1E0B02"/>
<path d="M100.791 54.1316H94.9819V59.7763H100.791V54.1316Z" fill="#1E0B02"/>
<path d="M100.791 48.3421H94.9819V53.9868H100.791V48.3421Z" fill="white"/>
<path d="M100.791 42.6974H94.9819V48.3421H100.791V42.6974Z" fill="white"/>
<path d="M100.791 37.0526H94.9819V42.6974H100.791V37.0526Z" fill="#1E0B02"/>
<path d="M100.791 31.2632H94.9819V37.0526H100.791V31.2632Z" fill="#1E0B02"/>
<path d="M100.791 25.6184H94.9819V31.2631H100.791V25.6184Z" fill="#1E0B02"/>
<path d="M100.791 19.8289H94.9819V25.4737H100.791V19.8289Z" fill="white"/>
<path d="M94.9817 139.671H89.3176V145.316H94.9817V139.671Z" fill="white"/>
<path d="M94.9817 133.447H89.3176V139.671H94.9817V133.447Z" fill="#1E0B02"/>
<path d="M94.9817 122.592H89.3176V133.447H94.9817V122.592Z" fill="white"/>
<path d="M94.9817 116.803H89.3176V122.447H94.9817V116.803Z" fill="white"/>
<path d="M94.9817 111.158H89.3176V116.803H94.9817V111.158Z" fill="white"/>
<path d="M94.9817 99.7237H89.3176V111.158H94.9817V99.7237Z" fill="white"/>
<path d="M94.9817 88.2895H89.3176V99.7237H94.9817V88.2895Z" fill="white"/>
<path d="M94.9817 76.8553H89.3176V88.2895H94.9817V76.8553Z" fill="#1E0B02"/>
<path d="M94.9817 65.4211H89.3176V76.8552H94.9817V65.4211Z" fill="white"/>
<path d="M94.9817 59.7763H89.3176V65.4211H94.9817V59.7763Z" fill="#1E0B02"/>
<path d="M94.9817 54.1316H89.3176V59.7763H94.9817V54.1316Z" fill="white"/>
<path d="M94.9817 48.3421H89.3176V53.9868H94.9817V48.3421Z" fill="#1E0B02"/>
<path d="M94.9817 42.6974H89.3176V48.3421H94.9817V42.6974Z" fill="white"/>
<path d="M94.9817 37.0526H89.3176V42.6974H94.9817V37.0526Z" fill="#1E0B02"/>
<path d="M94.9817 31.2632H89.3176V37.0526H94.9817V31.2632Z" fill="white"/>
<path d="M94.9817 25.6184H89.3176V31.2631H94.9817V25.6184Z" fill="#1E0B02"/>
<path d="M94.9817 19.8289H89.3176V25.4737H94.9817V19.8289Z" fill="white"/>
<path d="M89.3176 139.671H83.6536V145.316H89.3176V139.671Z" fill="white"/>
<path d="M89.3176 133.447H83.6536V139.671H89.3176V133.447Z" fill="white"/>
<path d="M89.3176 122.592H83.6536V133.447H89.3176V122.592Z" fill="#1E0B02"/>
<path d="M89.3176 116.803H83.6536V122.447H89.3176V116.803Z" fill="#1E0B02"/>
<path d="M89.3176 111.158H83.6536V116.803H89.3176V111.158Z" fill="#1E0B02"/>
<path d="M89.3176 99.7237H83.6536V111.158H89.3176V99.7237Z" fill="white"/>
<path d="M89.3176 88.2895H83.6536V99.7237H89.3176V88.2895Z" fill="white"/>
<path d="M89.3176 76.8553H83.6536V88.2895H89.3176V76.8553Z" fill="white"/>
<path d="M89.3176 65.4211H83.6536V76.8552H89.3176V65.4211Z" fill="white"/>
<path d="M89.3176 59.7763H83.6536V65.4211H89.3176V59.7763Z" fill="white"/>
<path d="M89.3176 54.1316H83.6536V59.7763H89.3176V54.1316Z" fill="white"/>
<path d="M89.3176 48.3421H83.6536V53.9868H89.3176V48.3421Z" fill="white"/>
<path d="M89.3176 42.6974H83.6536V48.3421H89.3176V42.6974Z" fill="white"/>
<path d="M89.3176 37.0526H83.6536V42.6974H89.3176V37.0526Z" fill="white"/>
<path d="M89.3176 31.2632H83.6536V37.0526H89.3176V31.2632Z" fill="white"/>
<path d="M89.3176 25.6184H83.6536V31.2631H89.3176V25.6184Z" fill="#1E0B02"/>
<path d="M89.3176 19.8289H83.6536V25.4737H89.3176V19.8289Z" fill="white"/>
<path d="M83.5085 139.671H77.8445V145.316H83.5085V139.671Z" fill="white"/>
<path d="M83.5085 133.447H77.8445V139.671H83.5085V133.447Z" fill="#1E0B02"/>
<path d="M83.5085 122.592H77.8445V133.447H83.5085V122.592Z" fill="white"/>
<path d="M83.5085 116.803H77.8445V122.447H83.5085V116.803Z" fill="white"/>
<path d="M83.5085 111.158H77.8445V116.803H83.5085V111.158Z" fill="white"/>
<path d="M83.5085 99.7237H77.8445V111.158H83.5085V99.7237Z" fill="white"/>
<path d="M83.5085 88.2895H77.8445V99.7237H83.5085V88.2895Z" fill="white"/>
<path d="M83.5085 76.8553H77.8445V88.2895H83.5085V76.8553Z" fill="white"/>
<path d="M83.5085 65.4211H77.8445V76.8552H83.5085V65.4211Z" fill="white"/>
<path d="M83.5085 59.7763H77.8445V65.4211H83.5085V59.7763Z" fill="white"/>
<path d="M83.5085 54.1316H77.8445V59.7763H83.5085V54.1316Z" fill="#1E0B02"/>
<path d="M83.5085 48.3421H77.8445V53.9868H83.5085V48.3421Z" fill="#1E0B02"/>
<path d="M83.5085 42.6974H77.8445V48.3421H83.5085V42.6974Z" fill="white"/>
<path d="M83.5085 37.0526H77.8445V42.6974H83.5085V37.0526Z" fill="white"/>
<path d="M83.5085 31.2632H77.8445V37.0526H83.5085V31.2632Z" fill="#1E0B02"/>
<path d="M83.5085 25.6184H77.8445V31.2631H83.5085V25.6184Z" fill="white"/>
<path d="M83.5085 19.8289H77.8445V25.4737H83.5085V19.8289Z" fill="white"/>
<path d="M77.8445 139.671H72.1804V145.316H77.8445V139.671Z" fill="white"/>
<path d="M77.8445 133.447H72.1804V139.671H77.8445V133.447Z" fill="#1E0B02"/>
<path d="M77.8445 122.592H72.1804V133.447H77.8445V122.592Z" fill="white"/>
<path d="M77.8445 116.803H72.1804V122.447H77.8445V116.803Z" fill="white"/>
<path d="M77.8445 111.158H72.1804V116.803H77.8445V111.158Z" fill="#1E0B02"/>
<path d="M77.8445 99.7237H72.1804V111.158H77.8445V99.7237Z" fill="white"/>
<path d="M77.8445 88.2895H72.1804V99.7237H77.8445V88.2895Z" fill="white"/>
<path d="M77.8445 76.8553H72.1804V88.2895H77.8445V76.8553Z" fill="#1E0B02"/>
<path d="M77.8445 65.4211H72.1804V76.8552H77.8445V65.4211Z" fill="white"/>
<path d="M77.8445 59.7763H72.1804V65.4211H77.8445V59.7763Z" fill="#1E0B02"/>
<path d="M77.8445 54.1316H72.1804V59.7763H77.8445V54.1316Z" fill="#1E0B02"/>
<path d="M77.8445 48.3421H72.1804V53.9868H77.8445V48.3421Z" fill="#1E0B02"/>
<path d="M77.8445 42.6974H72.1804V48.3421H77.8445V42.6974Z" fill="#1E0B02"/>
<path d="M77.8445 37.0526H72.1804V42.6974H77.8445V37.0526Z" fill="#1E0B02"/>
<path d="M77.8445 31.2632H72.1804V37.0526H77.8445V31.2632Z" fill="#1E0B02"/>
<path d="M77.8445 25.6184H72.1804V31.2631H77.8445V25.6184Z" fill="#1E0B02"/>
<path d="M77.8445 19.8289H72.1804V25.4737H77.8445V19.8289Z" fill="white"/>
<path d="M72.0351 139.671H54.8977V145.316H72.0351V139.671Z" fill="white"/>
<path d="M72.0351 133.447H54.8977V139.671H72.0351V133.447Z" fill="white"/>
<path d="M72.0351 122.592H54.8977V133.447H72.0351V122.592Z" fill="white"/>
<path d="M72.0351 116.803H54.8977V122.447H72.0351V116.803Z" fill="white"/>
<path d="M72.0351 111.158H54.8977V116.803H72.0351V111.158Z" fill="#1E0B02"/>
<path d="M72.0351 99.7237H54.8977V111.158H72.0351V99.7237Z" fill="#1E0B02"/>
<path d="M72.0351 88.2895H54.8977V99.7237H72.0351V88.2895Z" fill="#1E0B02"/>
<path d="M72.0351 76.8553H54.8977V88.2895H72.0351V76.8553Z" fill="#1E0B02"/>
<path d="M72.0351 65.4211H54.8977V76.8552H72.0351V65.4211Z" fill="white"/>
<path d="M72.0351 59.7763H54.8977V65.4211H72.0351V59.7763Z" fill="#1E0B02"/>
<path d="M72.0351 54.1316H54.8977V59.7763H72.0351V54.1316Z" fill="white"/>
<path d="M72.0351 48.3421H54.8977V53.9868H72.0351V48.3421Z" fill="#1E0B02"/>
<path d="M72.0351 42.6974H54.8977V48.3421H72.0351V42.6974Z" fill="white"/>
<path d="M72.0351 37.0526H54.8977V42.6974H72.0351V37.0526Z" fill="white"/>
<path d="M72.0351 31.2632H54.8977V37.0526H72.0351V31.2632Z" fill="#1E0B02"/>
<path d="M72.0351 25.6184H54.8977V31.2631H72.0351V25.6184Z" fill="white"/>
<path d="M72.0351 19.8289H54.8977V25.4737H72.0351V19.8289Z" fill="white"/>
<path d="M54.8979 139.671H49.2339V145.316H54.8979V139.671Z" fill="white"/>
<path d="M54.8979 133.447H49.2339V139.671H54.8979V133.447Z" fill="#1E0B02"/>
<path d="M54.8979 122.592H49.2339V133.447H54.8979V122.592Z" fill="#1E0B02"/>
<path d="M54.8979 116.803H49.2339V122.447H54.8979V116.803Z" fill="#1E0B02"/>
<path d="M54.8979 111.158H49.2339V116.803H54.8979V111.158Z" fill="#1E0B02"/>
<path d="M54.8979 99.7237H49.2339V111.158H54.8979V99.7237Z" fill="white"/>
<path d="M54.8979 88.2895H49.2339V99.7237H54.8979V88.2895Z" fill="white"/>
<path d="M54.8979 76.8553H49.2339V88.2895H54.8979V76.8553Z" fill="white"/>
<path d="M54.8979 65.4211H49.2339V76.8552H54.8979V65.4211Z" fill="white"/>
<path d="M54.8979 59.7763H49.2339V65.4211H54.8979V59.7763Z" fill="#1E0B02"/>
<path d="M54.8979 54.1316H49.2339V59.7763H54.8979V54.1316Z" fill="white"/>
<path d="M54.8979 48.3421H49.2339V53.9868H54.8979V48.3421Z" fill="#1E0B02"/>
<path d="M54.8979 42.6974H49.2339V48.3421H54.8979V42.6974Z" fill="#1E0B02"/>
<path d="M54.8979 37.0526H49.2339V42.6974H54.8979V37.0526Z" fill="#1E0B02"/>
<path d="M54.8979 31.2632H49.2339V37.0526H54.8979V31.2632Z" fill="#1E0B02"/>
<path d="M54.8979 25.6184H49.2339V31.2631H54.8979V25.6184Z" fill="#1E0B02"/>
<path d="M54.8979 19.8289H49.2339V25.4737H54.8979V19.8289Z" fill="white"/>
<path d="M49.2336 139.671H43.5696V145.316H49.2336V139.671Z" fill="white"/>
<path d="M49.2336 133.447H43.5696V139.671H49.2336V133.447Z" fill="#1E0B02"/>
<path d="M49.2336 122.592H43.5696V133.447H49.2336V122.592Z" fill="white"/>
<path d="M49.2336 116.803H43.5696V122.447H49.2336V116.803Z" fill="white"/>
<path d="M49.2336 111.158H43.5696V116.803H49.2336V111.158Z" fill="#1E0B02"/>
<path d="M49.2336 99.7237H43.5696V111.158H49.2336V99.7237Z" fill="white"/>
<path d="M49.2336 88.2895H43.5696V99.7237H49.2336V88.2895Z" fill="white"/>
<path d="M49.2336 76.8553H43.5696V88.2895H49.2336V76.8553Z" fill="#1E0B02"/>
<path d="M49.2336 65.4211H43.5696V76.8552H49.2336V65.4211Z" fill="white"/>
<path d="M49.2336 59.7763H43.5696V65.4211H49.2336V59.7763Z" fill="#1E0B02"/>
<path d="M49.2336 54.1316H43.5696V59.7763H49.2336V54.1316Z" fill="white"/>
<path d="M49.2336 48.3421H43.5696V53.9868H49.2336V48.3421Z" fill="#1E0B02"/>
<path d="M49.2336 42.6974H43.5696V48.3421H49.2336V42.6974Z" fill="white"/>
<path d="M49.2336 37.0526H43.5696V42.6974H49.2336V37.0526Z" fill="white"/>
<path d="M49.2336 31.2632H43.5696V37.0526H49.2336V31.2632Z" fill="white"/>
<path d="M49.2336 25.6184H43.5696V31.2631H49.2336V25.6184Z" fill="#1E0B02"/>
<path d="M49.2336 19.8289H43.5696V25.4737H49.2336V19.8289Z" fill="white"/>
<path d="M43.5696 139.671H37.9055V145.316H43.5696V139.671Z" fill="white"/>
<path d="M43.5696 133.447H37.9055V139.671H43.5696V133.447Z" fill="#1E0B02"/>
<path d="M43.5696 122.592H37.9055V133.447H43.5696V122.592Z" fill="white"/>
<path d="M43.5696 116.803H37.9055V122.447H43.5696V116.803Z" fill="white"/>
<path d="M43.5696 111.158H37.9055V116.803H43.5696V111.158Z" fill="#1E0B02"/>
<path d="M43.5696 99.7237H37.9055V111.158H43.5696V99.7237Z" fill="#1E0B02"/>
<path d="M43.5696 88.2895H37.9055V99.7237H43.5696V88.2895Z" fill="white"/>
<path d="M43.5696 76.8553H37.9055V88.2895H43.5696V76.8553Z" fill="#1E0B02"/>
<path d="M43.5696 65.4211H37.9055V76.8552H43.5696V65.4211Z" fill="white"/>
<path d="M43.5696 59.7763H37.9055V65.4211H43.5696V59.7763Z" fill="white"/>
<path d="M43.5696 54.1316H37.9055V59.7763H43.5696V54.1316Z" fill="white"/>
<path d="M43.5696 48.3421H37.9055V53.9868H43.5696V48.3421Z" fill="#1E0B02"/>
<path d="M43.5696 42.6974H37.9055V48.3421H43.5696V42.6974Z" fill="white"/>
<path d="M43.5696 37.0526H37.9055V42.6974H43.5696V37.0526Z" fill="#1E0B02"/>
<path d="M43.5696 31.2632H37.9055V37.0526H43.5696V31.2632Z" fill="white"/>
<path d="M43.5696 25.6184H37.9055V31.2631H43.5696V25.6184Z" fill="#1E0B02"/>
<path d="M43.5696 19.8289V25.6184H37.9055V20.1184V19.8289H43.5696Z" fill="white"/>
<path d="M37.9057 139.671H32.0964V145.316H37.9057V139.671Z" fill="white"/>
<path d="M37.9057 133.447H32.0964V139.671H37.9057V133.447Z" fill="#1E0B02"/>
<path d="M37.9057 122.592H32.0964V133.447H37.9057V122.592Z" fill="white"/>
<path d="M37.9057 116.803H32.0964V122.447H37.9057V116.803Z" fill="white"/>
<path d="M37.9057 111.158H32.0964V116.803H37.9057V111.158Z" fill="#1E0B02"/>
<path d="M37.9057 99.7237H32.0964V111.158H37.9057V99.7237Z" fill="white"/>
<path d="M37.9057 88.2895H32.0964V99.7237H37.9057V88.2895Z" fill="#1E0B02"/>
<path d="M37.9057 76.8553H32.0964V88.2895H37.9057V76.8553Z" fill="#1E0B02"/>
<path d="M37.9057 65.4211H32.0964V76.8552H37.9057V65.4211Z" fill="#1E0B02"/>
<path d="M37.9057 59.7763H32.0964V65.4211H37.9057V59.7763Z" fill="#1E0B02"/>
<path d="M37.9057 54.1316H32.0964V59.7763H37.9057V54.1316Z" fill="white"/>
<path d="M37.9057 48.3421H32.0964V53.9868H37.9057V48.3421Z" fill="#1E0B02"/>
<path d="M37.9057 42.6974H32.0964V48.3421H37.9057V42.6974Z" fill="white"/>
<path d="M37.9057 37.0526H32.0964V42.6974H37.9057V37.0526Z" fill="white"/>
<path d="M37.9057 31.2632H32.0964V37.0526H37.9057V31.2632Z" fill="white"/>
<path d="M37.9057 25.6184H32.0964V31.2631H37.9057V25.6184Z" fill="#1E0B02"/>
<path d="M37.9057 20.1184V25.6184H32.0964V19.8289H37.9057V20.1184Z" fill="white"/>
<path d="M31.9512 139.671H26.2871V145.316H31.9512V139.671Z" fill="white"/>
<path d="M31.9512 133.447H26.2871V139.671H31.9512V133.447Z" fill="#1E0B02"/>
<path d="M31.9512 122.592H26.2871V133.447H31.9512V122.592Z" fill="#1E0B02"/>
<path d="M31.9512 116.803H26.2871V122.447H31.9512V116.803Z" fill="#1E0B02"/>
<path d="M31.9512 111.158H26.2871V116.803H31.9512V111.158Z" fill="#1E0B02"/>
<path d="M31.9512 99.7237H26.2871V111.158H31.9512V99.7237Z" fill="#1E0B02"/>
<path d="M31.9512 88.2895H26.2871V99.7237H31.9512V88.2895Z" fill="white"/>
<path d="M31.9512 76.8553H26.2871V88.2895H31.9512V76.8553Z" fill="#1E0B02"/>
<path d="M31.9512 65.4211H26.2871V76.8552H31.9512V65.4211Z" fill="#1E0B02"/>
<path d="M31.9512 59.7763H26.2871V65.4211H31.9512V59.7763Z" fill="#1E0B02"/>
<path d="M31.9512 54.1316H26.2871V59.7763H31.9512V54.1316Z" fill="white"/>
<path d="M31.9512 48.3421H26.2871V53.9868H31.9512V48.3421Z" fill="#1E0B02"/>
<path d="M31.9512 42.6974H26.2871V48.3421H31.9512V42.6974Z" fill="#1E0B02"/>
<path d="M31.9512 37.0526H26.2871V42.6974H31.9512V37.0526Z" fill="#1E0B02"/>
<path d="M31.9512 31.2632H26.2871V37.0526H31.9512V31.2632Z" fill="#1E0B02"/>
<path d="M31.9512 25.6184H26.2871V31.2631H31.9512V25.6184Z" fill="#1E0B02"/>
<path d="M31.9512 19.8289H26.2871V25.4737H31.9512V19.8289Z" fill="white"/>
<path d="M26.2871 139.671H20.623V145.316H26.2871V139.671Z" fill="white"/>
<path d="M26.2871 133.447H20.623V139.671H26.2871V133.447Z" fill="white"/>
<path d="M26.2871 122.592H20.623V133.447H26.2871V122.592Z" fill="white"/>
<path d="M26.2871 116.803H20.623V122.447H26.2871V116.803Z" fill="white"/>
<path d="M26.2871 111.158H20.623V116.803H26.2871V111.158Z" fill="white"/>
<path d="M26.2871 99.7237H20.623V111.158H26.2871V99.7237Z" fill="white"/>
<path d="M26.2871 88.2895H20.623V99.7237H26.2871V88.2895Z" fill="white"/>
<path d="M26.2871 76.8553H20.623V88.2895H26.2871V76.8553Z" fill="white"/>
<path d="M26.2871 65.4211H20.623V76.8552H26.2871V65.4211Z" fill="white"/>
<path d="M26.2871 59.7763H20.623V65.4211H26.2871V59.7763Z" fill="white"/>
<path d="M26.2871 54.1316H20.623V59.7763H26.2871V54.1316Z" fill="white"/>
<path d="M26.2871 48.3421H20.623V53.9868H26.2871V48.3421Z" fill="white"/>
<path d="M26.2871 42.6974H20.623V48.3421H26.2871V42.6974Z" fill="white"/>
<path d="M26.2871 37.0526H20.623V42.6974H26.2871V37.0526Z" fill="white"/>
<path d="M26.2871 31.2632H20.623V37.0526H26.2871V31.2632Z" fill="white"/>
<path d="M26.2871 25.6184H20.623V31.2631H26.2871V25.6184Z" fill="white"/>
<path d="M26.2871 19.8289H20.623V25.4737H26.2871V19.8289Z" fill="white"/>
<path d="M44.2959 121.868H37.6152V128.526H44.2959V121.868Z" fill="#1E0B02"/>
<path d="M111.974 116.513H58.238V122.447H111.974V116.513Z" fill="#1E0B02"/>
<path d="M111.974 127.658H58.238V133.592H111.974V127.658Z" fill="#1E0B02"/>
<path d="M85.2512 99.1447H54.1716V104.5H85.2512V99.1447Z" fill="white"/>
<path d="M102.534 76.5658H71.4541V81.9211H102.534V76.5658Z" fill="white"/>
<path d="M101.372 88.2895H70.2925V93.6447H101.372V88.2895Z" fill="#1E0B02"/>
<path d="M126.207 76.7105H95.127V82.0658H126.207V76.7105Z" fill="#1E0B02"/>
<path d="M93.5295 122.447H76.5374V134.026H93.5295V122.447Z" fill="#1E0B02"/>
<path d="M87.8655 51.9605H82.3467V68.8947H87.8655V51.9605Z" fill="#1E0B02"/>
<path d="M39.2126 104.934H33.4033V110.724H39.2126V104.934Z" fill="white"/>
<path d="M33.5486 76.8553H27.8845V82.5H33.5486V76.8553Z" fill="white"/>
<path d="M45.1672 76.5658H39.5032V82.2105H45.1672V76.5658Z" fill="white"/>
<path d="M62.3044 64.9868H56.6404V70.6316H62.3044V64.9868Z" fill="#1E0B02"/>
<path d="M66.2258 82.6447H60.5618V88.2895H66.2258V82.6447Z" fill="white"/>
<path d="M135.211 70.3421H129.547V75.9868H135.211V70.3421Z" fill="white"/>
<path d="M135.211 84.0921H129.547V89.7368H135.211V84.0921Z" fill="white"/>
<path d="M91.2058 68.6053H85.5417V74.25H91.2058V68.6053Z" fill="#1E0B02"/>
<path d="M91.0605 99.579H85.3965V105.224H91.0605V99.579Z" fill="#1E0B02"/>
<path d="M125.19 99.2895H119.526V104.934H125.19V99.2895Z" fill="#1E0B02"/>
<path d="M125.335 116.513H119.671V122.158H125.335V116.513Z" fill="#1E0B02"/>
<path d="M130.854 128.237H125.19V133.882H130.854V128.237Z" fill="#1E0B02"/>
<path d="M49.9599 104.645H31.8059V111.303H49.9599V104.645Z" fill="#1E0B02"/>
<path d="M106.455 59.9211H85.9773V69.0395H106.455V59.9211Z" fill="#1E0B02"/>
<path opacity="0.81" d="M142.472 97.9868H26.7227V139.671H142.472V97.9868Z" fill="url(#paint0_linear)"/>
<path d="M2.17847 97.9868H163.822" stroke="#1A53F0" stroke-width="3" stroke-miterlimit="10" stroke-linecap="round"/>
<path d="M1.45239 163.553V144.303" stroke="#1A53F0" stroke-width="2" stroke-miterlimit="10" stroke-linecap="round"/>
<path d="M20.4778 163.553H1.45239" stroke="#1A53F0" stroke-width="2" stroke-miterlimit="10" stroke-linecap="round"/>
<path d="M164.112 163.553H144.07" stroke="#1A53F0" stroke-width="2" stroke-miterlimit="10" stroke-linecap="round"/>
<path d="M164.112 142.132V163.553" stroke="#1A53F0" stroke-width="2" stroke-miterlimit="10" stroke-linecap="round"/>
<path d="M164.112 1.44736V20.5526" stroke="#1A53F0" stroke-width="2" stroke-miterlimit="10" stroke-linecap="round"/>
<path d="M145.522 1.44736H164.112" stroke="#1A53F0" stroke-width="2" stroke-miterlimit="10" stroke-linecap="round"/>
<path d="M1.45239 1.44736H18.5898" stroke="#1A53F0" stroke-width="2" stroke-miterlimit="10" stroke-linecap="round"/>
<path d="M1.45239 18.2368V1.44736" stroke="#1A53F0" stroke-width="2" stroke-miterlimit="10" stroke-linecap="round"/>
<defs>
<linearGradient id="paint0_linear" x1="84.5566" y1="91.4446" x2="84.5566" y2="208.396" gradientUnits="userSpaceOnUse">
<stop stop-color="#94FFFB"/>
<stop offset="0.1784" stop-color="#5FA7EB"/>
<stop offset="0.3639" stop-color="#2B52DC"/>
<stop offset="0.4486" stop-color="#1630D6"/>
<stop offset="0.7241" stop-color="#2319B8"/>
<stop offset="0.9967" stop-color="#320096"/>
</linearGradient>
</defs>
</svg>
