<svg  viewBox="0 0 169 265" fill="none" xmlns="http://www.w3.org/2000/svg">
<path d="M102.26 197.826C138.787 197.826 168.398 168.213 168.398 131.683C168.398 95.1535 138.787 65.5405 102.26 65.5405C65.733 65.5405 36.1221 95.1535 36.1221 131.683C36.1221 168.213 65.733 197.826 102.26 197.826Z" fill="#6A4BFF"/>
<path d="M140.532 211.845H63.9879C58.9136 211.845 54.8713 207.717 54.8713 202.728V43.6076C54.8713 38.533 58.9996 34.4905 63.9879 34.4905H140.532C145.607 34.4905 149.649 38.619 149.649 43.6076V202.728C149.735 207.803 145.607 211.845 140.532 211.845Z" fill="black"/>
<path d="M122.729 40.7693V43.1776C122.729 45.1559 121.095 46.7901 119.117 46.7901H85.4031C83.425 46.7901 81.7909 45.1559 81.7909 43.1776V40.7693C81.7909 40.1673 81.2749 39.5652 80.5869 39.5652H66.74C63.2138 39.5652 60.4617 42.4036 60.4617 45.93V200.406C60.4617 203.932 63.2998 206.771 66.74 206.771H137.78C141.306 206.771 144.059 203.932 144.059 200.406V45.93C144.059 42.4036 141.22 39.5652 137.78 39.5652H123.847C123.245 39.6512 122.729 40.1673 122.729 40.7693Z" fill="white"/>
<path d="M102.557 114.296V115.6C99.5481 115.6 96.7344 113.873 94.6377 110.732C92.5953 107.668 91.4764 103.603 91.4764 99.3002C91.4764 94.9969 92.5953 90.9328 94.6377 87.8683C96.7344 84.7278 99.5481 83 102.557 83V84.304C97.169 84.304 92.78 91.0306 92.78 99.3002C92.78 107.57 97.169 114.296 102.557 114.296ZM93.182 87.3467H91.5307C91.4003 87.5206 91.2808 87.6944 91.1613 87.8683C89.119 90.9328 88 94.9969 88 99.3002C88 103.603 89.119 107.668 91.1613 110.732C91.2808 110.917 91.4003 111.091 91.5307 111.254H93.182C90.8246 108.515 89.3036 104.179 89.3036 99.3002C89.3036 94.421 90.8246 90.0851 93.182 87.3467ZM111.52 104.734H109.401H108.641H108.044C107.533 106.331 106.805 107.744 105.925 108.863H107.522C108.087 108.004 108.576 107.059 108.967 106.038H111.042C109.608 109.439 107.12 111.688 104.296 111.688C99.8632 111.688 96.2564 106.135 96.2564 99.3002C96.2564 92.465 99.8632 86.912 104.296 86.912C107.468 86.912 110.205 89.7483 111.52 93.8668H112.878C112.432 92.3454 111.791 90.9328 110.988 89.7157C109.217 87.0642 106.838 85.608 104.296 85.608C101.753 85.608 99.3743 87.0642 97.6035 89.7157C95.8979 92.2911 94.9528 95.6924 94.9528 99.3002C94.9528 102.908 95.8979 106.309 97.6035 108.885C99.3743 111.536 101.743 112.992 104.296 112.992C106.849 112.992 109.217 111.536 110.988 108.885C111.791 107.668 112.432 106.255 112.878 104.734H112.117H111.52ZM108.044 93.8668H108.424H109.401C108.956 92.3454 108.326 90.9545 107.522 89.7374H105.925C106.555 90.5415 107.109 91.4978 107.566 92.5628H105.491C105.099 91.5413 104.611 90.5741 104.035 89.7157C103.883 89.4983 103.731 89.2919 103.579 89.0854H101.884C103.024 90.2916 103.948 91.9434 104.567 93.8668H104.947H105.925H108.044ZM101.884 109.515H103.579C103.731 109.308 103.883 109.102 104.035 108.885C104.839 107.668 105.48 106.255 105.925 104.734H104.567C103.948 106.657 103.024 108.309 101.884 109.515Z" fill="black"/>
<path d="M78.9827 135.09C78.3467 135.09 77.7707 134.952 77.2547 134.676C76.7447 134.394 76.3427 134.007 76.0487 133.515C75.7607 133.023 75.6167 132.468 75.6167 131.85C75.6167 131.232 75.7637 130.677 76.0577 130.185C76.3517 129.693 76.7537 129.309 77.2637 129.033C77.7797 128.751 78.3557 128.61 78.9917 128.61C79.5077 128.61 79.9787 128.7 80.4047 128.88C80.8307 129.06 81.1907 129.321 81.4847 129.663L80.7287 130.374C80.2727 129.882 79.7117 129.636 79.0457 129.636C78.6137 129.636 78.2267 129.732 77.8847 129.924C77.5427 130.11 77.2757 130.371 77.0837 130.707C76.8917 131.043 76.7957 131.424 76.7957 131.85C76.7957 132.276 76.8917 132.657 77.0837 132.993C77.2757 133.329 77.5427 133.593 77.8847 133.785C78.2267 133.971 78.6137 134.064 79.0457 134.064C79.7117 134.064 80.2727 133.815 80.7287 133.317L81.4847 134.037C81.1907 134.379 80.8277 134.64 80.3957 134.82C79.9697 135 79.4987 135.09 78.9827 135.09ZM82.4978 130.194H83.6228V135H82.4978V130.194ZM83.0648 129.402C82.8608 129.402 82.6898 129.339 82.5518 129.213C82.4138 129.081 82.3448 128.919 82.3448 128.727C82.3448 128.535 82.4138 128.376 82.5518 128.25C82.6898 128.118 82.8608 128.052 83.0648 128.052C83.2688 128.052 83.4398 128.115 83.5778 128.241C83.7158 128.361 83.7848 128.514 83.7848 128.7C83.7848 128.898 83.7158 129.066 83.5778 129.204C83.4458 129.336 83.2748 129.402 83.0648 129.402ZM87.9883 134.739C87.8563 134.847 87.6943 134.928 87.5023 134.982C87.3163 135.036 87.1183 135.063 86.9083 135.063C86.3803 135.063 85.9723 134.925 85.6843 134.649C85.3963 134.373 85.2523 133.971 85.2523 133.443V131.13H84.4603V130.23H85.2523V129.132H86.3773V130.23H87.6643V131.13H86.3773V133.416C86.3773 133.65 86.4343 133.83 86.5483 133.956C86.6623 134.076 86.8273 134.136 87.0433 134.136C87.2953 134.136 87.5053 134.07 87.6733 133.938L87.9883 134.739ZM90.7498 130.14C91.4578 130.14 91.9978 130.311 92.3698 130.653C92.7478 130.989 92.9368 131.499 92.9368 132.183V135H91.8748V134.415C91.7368 134.625 91.5388 134.787 91.2808 134.901C91.0288 135.009 90.7228 135.063 90.3628 135.063C90.0028 135.063 89.6878 135.003 89.4178 134.883C89.1478 134.757 88.9378 134.586 88.7878 134.37C88.6438 134.148 88.5718 133.899 88.5718 133.623C88.5718 133.191 88.7308 132.846 89.0488 132.588C89.3728 132.324 89.8798 132.192 90.5698 132.192H91.8118V132.12C91.8118 131.784 91.7098 131.526 91.5058 131.346C91.3078 131.166 91.0108 131.076 90.6148 131.076C90.3448 131.076 90.0778 131.118 89.8138 131.202C89.5558 131.286 89.3368 131.403 89.1568 131.553L88.7158 130.734C88.9678 130.542 89.2708 130.395 89.6248 130.293C89.9788 130.191 90.3538 130.14 90.7498 130.14ZM90.5968 134.244C90.8788 134.244 91.1278 134.181 91.3438 134.055C91.5658 133.923 91.7218 133.737 91.8118 133.497V132.939H90.6508C90.0028 132.939 89.6788 133.152 89.6788 133.578C89.6788 133.782 89.7598 133.944 89.9218 134.064C90.0838 134.184 90.3088 134.244 90.5968 134.244ZM99.1315 128.322V135H98.0515V134.379C97.8655 134.607 97.6345 134.778 97.3585 134.892C97.0885 135.006 96.7885 135.063 96.4585 135.063C95.9965 135.063 95.5795 134.961 95.2075 134.757C94.8415 134.553 94.5535 134.265 94.3435 133.893C94.1335 133.515 94.0285 133.083 94.0285 132.597C94.0285 132.111 94.1335 131.682 94.3435 131.31C94.5535 130.938 94.8415 130.65 95.2075 130.446C95.5795 130.242 95.9965 130.14 96.4585 130.14C96.7765 130.14 97.0675 130.194 97.3315 130.302C97.5955 130.41 97.8205 130.572 98.0065 130.788V128.322H99.1315ZM96.5935 134.1C96.8635 134.1 97.1065 134.04 97.3225 133.92C97.5385 133.794 97.7095 133.617 97.8355 133.389C97.9615 133.161 98.0245 132.897 98.0245 132.597C98.0245 132.297 97.9615 132.033 97.8355 131.805C97.7095 131.577 97.5385 131.403 97.3225 131.283C97.1065 131.157 96.8635 131.094 96.5935 131.094C96.3235 131.094 96.0805 131.157 95.8645 131.283C95.6485 131.403 95.4775 131.577 95.3515 131.805C95.2255 132.033 95.1625 132.297 95.1625 132.597C95.1625 132.897 95.2255 133.161 95.3515 133.389C95.4775 133.617 95.6485 133.794 95.8645 133.92C96.0805 134.04 96.3235 134.1 96.5935 134.1ZM105.121 132.624C105.121 132.702 105.115 132.813 105.103 132.957H101.332C101.398 133.311 101.569 133.593 101.845 133.803C102.127 134.007 102.475 134.109 102.889 134.109C103.417 134.109 103.852 133.935 104.194 133.587L104.797 134.28C104.581 134.538 104.308 134.733 103.978 134.865C103.648 134.997 103.276 135.063 102.862 135.063C102.334 135.063 101.869 134.958 101.467 134.748C101.065 134.538 100.753 134.247 100.531 133.875C100.315 133.497 100.207 133.071 100.207 132.597C100.207 132.129 100.312 131.709 100.522 131.337C100.738 130.959 101.035 130.665 101.413 130.455C101.791 130.245 102.217 130.14 102.691 130.14C103.159 130.14 103.576 130.245 103.942 130.455C104.314 130.659 104.602 130.95 104.806 131.328C105.016 131.7 105.121 132.132 105.121 132.624ZM102.691 131.04C102.331 131.04 102.025 131.148 101.773 131.364C101.527 131.574 101.377 131.856 101.323 132.21H104.05C104.002 131.862 103.855 131.58 103.609 131.364C103.363 131.148 103.057 131.04 102.691 131.04ZM106.202 128.322H107.327V135H106.202V128.322ZM109.163 135.063C108.959 135.063 108.785 134.994 108.641 134.856C108.497 134.712 108.425 134.532 108.425 134.316C108.425 134.094 108.494 133.914 108.632 133.776C108.776 133.638 108.953 133.569 109.163 133.569C109.373 133.569 109.547 133.638 109.685 133.776C109.829 133.914 109.901 134.094 109.901 134.316C109.901 134.532 109.829 134.712 109.685 134.856C109.541 134.994 109.367 135.063 109.163 135.063ZM113.073 135.063C112.587 135.063 112.149 134.958 111.759 134.748C111.369 134.538 111.063 134.247 110.841 133.875C110.625 133.497 110.517 133.071 110.517 132.597C110.517 132.123 110.625 131.7 110.841 131.328C111.063 130.956 111.369 130.665 111.759 130.455C112.149 130.245 112.587 130.14 113.073 130.14C113.565 130.14 114.006 130.245 114.396 130.455C114.786 130.665 115.089 130.956 115.305 131.328C115.527 131.7 115.638 132.123 115.638 132.597C115.638 133.071 115.527 133.497 115.305 133.875C115.089 134.247 114.786 134.538 114.396 134.748C114.006 134.958 113.565 135.063 113.073 135.063ZM113.073 134.1C113.487 134.1 113.829 133.962 114.099 133.686C114.369 133.41 114.504 133.047 114.504 132.597C114.504 132.147 114.369 131.784 114.099 131.508C113.829 131.232 113.487 131.094 113.073 131.094C112.659 131.094 112.317 131.232 112.047 131.508C111.783 131.784 111.651 132.147 111.651 132.597C111.651 133.047 111.783 133.41 112.047 133.686C112.317 133.962 112.659 134.1 113.073 134.1ZM119.441 130.14C120.047 130.14 120.533 130.317 120.899 130.671C121.265 131.025 121.448 131.55 121.448 132.246V135H120.323V132.39C120.323 131.97 120.224 131.655 120.026 131.445C119.828 131.229 119.546 131.121 119.18 131.121C118.766 131.121 118.439 131.247 118.199 131.499C117.959 131.745 117.839 132.102 117.839 132.57V135H116.714V130.194H117.785V130.815C117.971 130.593 118.205 130.425 118.487 130.311C118.769 130.197 119.087 130.14 119.441 130.14ZM127.437 132.624C127.437 132.702 127.431 132.813 127.419 132.957H123.648C123.714 133.311 123.885 133.593 124.161 133.803C124.443 134.007 124.791 134.109 125.205 134.109C125.733 134.109 126.168 133.935 126.51 133.587L127.113 134.28C126.897 134.538 126.624 134.733 126.294 134.865C125.964 134.997 125.592 135.063 125.178 135.063C124.65 135.063 124.185 134.958 123.783 134.748C123.381 134.538 123.069 134.247 122.847 133.875C122.631 133.497 122.523 133.071 122.523 132.597C122.523 132.129 122.628 131.709 122.838 131.337C123.054 130.959 123.351 130.665 123.729 130.455C124.107 130.245 124.533 130.14 125.007 130.14C125.475 130.14 125.892 130.245 126.258 130.455C126.63 130.659 126.918 130.95 127.122 131.328C127.332 131.7 127.437 132.132 127.437 132.624ZM125.007 131.04C124.647 131.04 124.341 131.148 124.089 131.364C123.843 131.574 123.693 131.856 123.639 132.21H126.366C126.318 131.862 126.171 131.58 125.925 131.364C125.679 131.148 125.373 131.04 125.007 131.04Z" fill="#6A4BFF"/>
<path d="M146.295 189.052H58.8276V207.287H146.295V189.052Z" fill="black"/>
<path d="M103.55 205.91C107.208 205.91 110.173 202.945 110.173 199.288C110.173 195.63 107.208 192.665 103.55 192.665C99.8927 192.665 96.9277 195.63 96.9277 199.288C96.9277 202.945 99.8927 205.91 103.55 205.91Z" fill="#545454"/>
<path d="M103.55 204.276C106.305 204.276 108.538 202.043 108.538 199.288C108.538 196.533 106.305 194.299 103.55 194.299C100.795 194.299 98.5618 196.533 98.5618 199.288C98.5618 202.043 100.795 204.276 103.55 204.276Z" fill="#737373"/>
<path d="M109.743 43.1777H89.2733C88.6713 43.1777 88.1553 42.6616 88.1553 42.0596C88.1553 41.4575 88.6713 40.9414 89.2733 40.9414H109.743C110.345 40.9414 110.861 41.4575 110.861 42.0596C110.861 42.6616 110.345 43.1777 109.743 43.1777Z" fill="#A4A5A4"/>
<path d="M114.731 43.6937C115.633 43.6937 116.365 42.9621 116.365 42.0595C116.365 41.157 115.633 40.4253 114.731 40.4253C113.828 40.4253 113.097 41.157 113.097 42.0595C113.097 42.9621 113.828 43.6937 114.731 43.6937Z" fill="#A4A5A4"/>
<path d="M54.8712 106.654C54.8712 106.654 62.0097 112.847 63.5578 119.986C65.6219 129.619 55.7313 144.241 56.2473 156.11C56.8494 169.872 64.3318 175.807 68.8901 184.924C74.1364 195.417 73.7924 202.384 73.7924 205.997C73.7924 209.609 72.5023 212.017 72.5023 212.017H121.869C121.869 212.017 112.151 226.811 93.0575 238.681C77.4046 248.4 69.2341 265 69.2341 265H0L24.9415 223.629C24.9415 223.629 20.4692 201.782 23.1354 186.042C27.8657 157.572 54.8712 106.654 54.8712 106.654Z" fill="#EBB3A0"/>
<path d="M72.6744 211.845C72.6744 211.845 70.0082 216.748 66.9981 221.736C63.9019 226.725 62.0098 229.391 62.0098 229.391C62.0098 229.391 69.3202 227.413 73.9645 223.973C81.6189 218.382 86.3492 211.931 86.3492 211.931L72.6744 211.845Z" fill="#D1866D"/>
<path d="M140.016 3.95651L142.166 0L144.317 3.95651C146.467 7.91301 149.649 11.0954 153.605 13.2457L157.561 15.396L153.605 17.5463C149.649 19.6965 146.467 22.8789 144.317 26.8354L142.166 30.792L140.016 26.8354C137.866 22.8789 134.684 19.6965 130.728 17.5463L126.771 15.396L130.728 13.2457C134.598 11.0954 137.866 7.827 140.016 3.95651Z" fill="#1A53F0"/>
<path d="M100.97 18.0624L101.916 16.4282L102.862 18.0624C103.808 19.6966 105.098 21.0728 106.818 22.0189L108.452 22.9651L106.818 23.9112C105.184 24.8573 103.808 26.1475 102.862 27.8677L101.916 29.5019L100.97 27.8677C100.024 26.2335 98.7338 24.8573 97.0137 23.9112L95.3796 22.9651L97.0137 22.0189C98.7338 21.1588 100.024 19.7827 100.97 18.0624Z" fill="#1A53F0"/>
<path d="M157.733 63.3041L158.163 62.53L158.593 63.3041C159.023 64.0782 159.625 64.6803 160.399 65.1104L161.173 65.5404L160.399 65.9705C159.625 66.4005 159.023 67.0026 158.593 67.7767L158.163 68.5508L157.733 67.7767C157.303 67.0026 156.701 66.4005 155.927 65.9705L155.153 65.5404L155.927 65.1104C156.701 64.6803 157.389 63.9922 157.733 63.3041Z" fill="#1A53F0"/>
<path d="M162.808 32.8562L163.582 31.48L164.356 32.8562C165.13 34.2323 166.248 35.4365 167.624 36.1246L169 36.8987L167.624 37.6728C166.248 38.4469 165.044 39.565 164.356 40.9412L163.582 42.3174L162.808 40.9412C162.034 39.565 160.916 38.3609 159.539 37.6728L158.163 36.8987L159.539 36.1246C160.829 35.4365 162.034 34.2323 162.808 32.8562Z" fill="black"/>
</svg>
