<svg  viewBox="0 0 43 43" fill="none" xmlns="http://www.w3.org/2000/svg">
<path d="M13.4375 0H0V13.4375H13.4375V0ZM10.75 10.75H2.6875V2.6875H10.75V10.75Z" fill="white"/>
<path d="M8.0625 5.375H5.375V8.0625H8.0625V5.375Z" fill="white"/>
<path d="M29.5625 0V13.4375H43V0H29.5625ZM40.3125 10.75H32.25V2.6875H40.3125V10.75Z" fill="white"/>
<path d="M37.625 5.375H34.9375V8.0625H37.625V5.375Z" fill="white"/>
<path d="M0 43H13.4375V29.5625H0V43ZM2.6875 32.25H10.75V40.3125H2.6875V32.25Z" fill="white"/>
<path d="M8.0625 34.9375H5.375V37.625H8.0625V34.9375Z" fill="white"/>
<path d="M26.875 0H21.5V2.6875H26.875V0Z" fill="white"/>
<path d="M21.5 10.75H24.1875V8.0625H26.875V5.375H18.8125V2.6875H16.125V5.375V6.71875V8.0625H21.5V10.75Z" fill="white"/>
<path d="M18.8125 10.75H16.125V13.4375H18.8125V10.75Z" fill="white"/>
<path d="M26.875 13.4375H24.1875V16.125H16.125V18.8125H26.875V13.4375Z" fill="white"/>
<path d="M2.6875 24.1875H5.375V21.5H2.6875V16.125H0V26.875H2.6875V24.1875Z" fill="white"/>
<path d="M8.0625 16.125H5.375V18.8125H8.0625V16.125Z" fill="white"/>
<path d="M16.125 26.875H21.5V24.1875H18.8125V21.5H13.4375V16.125H10.75V21.5H8.0625V26.875H10.75V24.1875H12.0938H13.4375H16.125V26.875Z" fill="white"/>
<path d="M26.875 21.5H24.1875V26.875H26.875V21.5Z" fill="white"/>
<path d="M24.1875 29.5625H16.125V32.25H21.5V40.3125H16.125V43H24.1875V40.3125H29.5625V37.625H24.1875V29.5625Z" fill="white"/>
<path d="M18.8125 34.9375H16.125V37.625H18.8125V34.9375Z" fill="white"/>
<path d="M29.5625 29.5625H26.875V34.9375H29.5625V29.5625Z" fill="white"/>
<path d="M40.3125 34.9375H32.25V43H34.9375V37.625H40.3125V34.9375Z" fill="white"/>
<path d="M43 40.3125H37.625V43H43V40.3125Z" fill="white"/>
<path d="M43 29.5625H40.3125V32.25H43V29.5625Z" fill="white"/>
<path d="M32.25 32.25H34.9375V24.1875H29.5625V26.875H32.25V32.25Z" fill="white"/>
<path d="M37.625 18.8125H34.9375V16.125H32.25V18.8125H29.5625V21.5H40.3125V18.8125H43V16.125H37.625V18.8125Z" fill="white"/>
<path d="M43 24.1875H37.625V26.875H43V24.1875Z" fill="white"/>
</svg>
