<svg viewBox="0 0 30 16" fill="#6B93C0" xmlns="http://www.w3.org/2000/svg">
<path d="M29.3878 14.4694V4.46939C29.3878 3.62541 28.7012 2.93878 27.8572 2.93878H25.8164V3.95919H27.8572C28.1385 3.95919 28.3674 4.18807 28.3674 4.46939V14.4694C28.3674 14.7507 28.1385 14.9796 27.8572 14.9796H17.8572C17.5759 14.9796 17.347 14.7507 17.347 14.4694V4.46939C17.347 4.18807 17.5759 3.95919 17.8572 3.95919H19.898V2.93878L17.8572 2.93878C17.0132 2.93878 16.3266 3.62541 16.3266 4.46939V14.4694C16.3266 15.3134 17.0132 16 17.8572 16H27.8572C28.7012 16 29.3878 15.3134 29.3878 14.4694Z" />
<path d="M13.0612 14.4694V4.46939C13.0612 3.62541 12.3746 2.93878 11.5306 2.93878H9.48979V3.95919H11.5306C11.8119 3.95919 12.0408 4.18807 12.0408 4.46939V14.4694C12.0408 14.7507 11.8119 14.9796 11.5306 14.9796H1.53061C1.24928 14.9796 1.0204 14.7507 1.0204 14.4694V4.46939C1.0204 4.18807 1.24928 3.95919 1.53061 3.95919H3.57142V2.93878L1.53061 2.93878C0.686627 2.93878 -4.76837e-06 3.62541 -4.76837e-06 4.46939V14.4694C-4.76837e-06 15.3134 0.686627 16 1.53061 16H11.5306C12.3746 16 13.0612 15.3134 13.0612 14.4694Z" />
<path d="M26.1992 6.85251L25.3916 6.04494L23.2216 8.2149V0L22.0795 0V8.2149L19.9096 6.04494L19.102 6.85251L22.6506 10.4011L26.1992 6.85251Z" />
<line x1="22.0408" y1="0.4" x2="5.87757" y2="0.399998" stroke="#6B93C0" stroke-width="0.8" stroke-linejoin="round"/>
<line x1="6.27756" y1="1.74846e-08" x2="6.27756" y2="7.34694" stroke="#6B93C0" stroke-width="0.8" stroke-linejoin="round"/>
</svg>
