<svg width="96" height="100" viewBox="0 0 96 100" fill="none" xmlns="http://www.w3.org/2000/svg">
<path d="M51.1596 48.7057C51.8039 49.143 52.7572 48.9555 53.1903 48.317L70.7573 22.4364C71.211 21.7684 71.0371 20.8592 70.3688 20.4057C69.701 19.9525 68.7916 20.126 68.3381 20.7945L50.7711 46.675C50.3175 47.3429 50.4916 48.2523 51.1596 48.7057Z" fill="#C3CEEB"/>
<path d="M70.2792 48.958C73.3216 48.958 75.7972 45.9155 75.7972 42.1756C75.4854 33.1743 65.072 33.1764 64.7612 42.1756C64.7612 45.9155 67.2366 48.958 70.2792 48.958ZM70.2792 38.3174C71.6853 38.3174 72.8731 40.0841 72.8731 42.1756C72.8731 44.2671 71.6853 46.0339 70.2792 46.0339C68.8731 46.0339 67.6851 44.2671 67.6851 42.1756C67.6851 40.0841 68.8733 38.3174 70.2792 38.3174Z" fill="#C3CEEB"/>
<path d="M56.5452 26.9358C56.5452 23.1959 54.0699 20.1535 51.0273 20.1535C43.7096 20.5151 43.7123 33.3583 51.0273 33.7182C54.0699 33.7182 56.5452 30.6756 56.5452 26.9358ZM48.4334 26.9358C48.4334 24.8443 49.6214 23.0776 51.0275 23.0776C52.4336 23.0776 53.6213 24.8443 53.6213 26.9358C53.6213 29.0273 52.4336 30.7941 51.0275 30.7941C49.6214 30.7941 48.4334 29.0271 48.4334 26.9358Z" fill="#C3CEEB"/>
<path d="M50.2721 67.4373C86.1561 78.1334 110.998 33.2088 83.0561 8.39004C82.444 7.86312 81.521 7.93174 80.9941 8.54385C80.4673 9.15576 80.5359 10.0788 81.1479 10.6057C107.086 33.7117 83.2924 75.2308 50.2721 64.3555V54.4204C50.2721 53.1673 49.5138 51.4029 45.902 50.1136C41.7811 48.6426 37.027 48.5122 32.7258 49.1202C18.9395 22.208 47.155 -6.94217 74.425 6.17182C75.1496 6.52583 76.0256 6.22543 76.3802 5.49986C76.7346 4.77449 76.434 3.89902 75.7087 3.54442C46.2938 -10.6326 15.5631 20.3621 29.7584 49.722C29.3214 49.8418 28.9013 49.9719 28.5042 50.1136C24.8923 51.4031 24.134 53.1675 24.134 54.4204V64.1522C21.1606 62.7449 17.9542 62.2944 14.0075 62.2408C12.0719 62.3067 12.0714 65.0974 14.0059 65.1649C16.9394 65.1664 19.6754 65.5678 21.7101 66.2951C23.7128 67.011 24.1342 67.7336 24.1342 67.8463C24.1342 67.9591 23.712 68.683 21.7051 69.3992C17.0507 71.0608 10.9259 71.0601 6.27365 69.3992C4.26675 68.6828 3.84451 67.9589 3.84451 67.8463C3.84451 67.7137 4.35759 66.8805 6.79609 66.1205C8.62462 65.4803 7.79243 62.8168 5.92607 63.3289C1.78887 64.6185 0.92041 66.4973 0.92041 67.8463V94.278C0.92041 95.531 1.67873 97.2954 5.29057 98.5848C10.5769 100.472 17.4035 100.471 22.6882 98.5848C24.0019 98.1157 24.9368 97.5838 25.5963 97.0366C26.2558 97.5838 27.1907 98.1157 28.5044 98.5848C33.791 100.472 40.6175 100.471 45.9022 98.5848C47.2159 98.1157 48.1508 97.5838 48.8103 97.0366C49.4698 97.5838 50.4047 98.1157 51.7184 98.5848C57.0048 100.472 63.8314 100.471 69.116 98.5848C72.7278 97.2952 73.4861 95.5308 73.4861 94.278V81.062C73.4861 79.809 72.7278 78.0445 69.116 76.7552C63.8296 74.8682 57.003 74.8688 51.7184 76.7552C51.1735 76.9498 50.6946 77.1552 50.2723 77.3681C50.2708 75.4622 50.2751 69.8058 50.2708 67.8174C50.2731 67.7646 50.2717 67.4946 50.2721 67.4373ZM70.5619 87.6701C70.5619 87.783 70.1396 88.5068 68.1327 89.223C63.4783 90.8847 57.3535 90.8839 52.7013 89.223C50.6944 88.5066 50.2721 87.7828 50.2721 87.6701V84.7563C50.6944 84.969 51.1733 85.1747 51.7182 85.3692C57.0046 87.2562 63.8312 87.2556 69.1158 85.3692C69.6607 85.1747 70.1396 84.9692 70.5619 84.7563V87.6701ZM47.348 61.0285C47.348 61.1413 46.9258 61.8651 44.9189 62.5813C40.2645 64.243 34.1395 64.2424 29.4873 62.5813C27.4804 61.8649 27.0581 61.1411 27.0581 61.0285V58.1147C27.4804 58.3274 27.9593 58.533 28.5042 58.7276C33.7908 60.6146 40.6174 60.614 45.902 58.7276C46.4468 58.533 46.9258 58.3276 47.348 58.1147V61.0285ZM28.5042 65.3353C34.2923 67.3519 41.7521 67.2952 47.348 64.7226V67.7414C47.348 67.8543 46.9258 68.5781 44.9189 69.2945C40.2641 70.9562 34.1399 70.9552 29.4873 69.2945C27.4804 68.5781 27.0581 67.8543 27.0581 67.7414V64.7226C27.4804 64.9352 27.9591 65.1407 28.5042 65.3353ZM24.134 81.062C24.134 81.1749 23.7118 81.8987 21.7049 82.6151C17.0501 84.2768 10.9261 84.276 6.27346 82.6151C4.26655 81.8987 3.84431 81.1749 3.84431 81.062V78.1483C4.26655 78.3609 4.74552 78.5666 5.29037 78.7612C10.5768 80.6482 17.4033 80.6476 22.688 78.7612C23.2328 78.5666 23.7118 78.3611 24.134 78.1483V81.062ZM3.84431 84.7561C4.26655 84.9688 4.74552 85.1745 5.29037 85.369C10.5768 87.256 17.4033 87.2555 22.688 85.369C23.2328 85.1745 23.7118 84.969 24.134 84.7561V87.6699C24.134 87.7828 23.7118 88.5066 21.7049 89.2228C17.0505 90.8845 10.9257 90.8837 6.27346 89.2228C4.26655 88.5064 3.84431 87.7826 3.84431 87.6699V84.7561ZM27.0581 84.7561C27.4804 84.9688 27.9593 85.1745 28.5042 85.369C33.7908 87.256 40.6174 87.2555 45.902 85.369C46.4468 85.1745 46.9258 84.969 47.348 84.7561V87.6699C47.348 87.7828 46.9258 88.5066 44.9189 89.2228C40.2645 90.8845 34.1395 90.8839 29.4873 89.2228C27.4804 88.5064 27.0581 87.7826 27.0581 87.6699V84.7561ZM44.9189 82.6151C40.2641 84.2768 34.1399 84.2758 29.4873 82.6151C27.4804 81.8987 27.0581 81.1749 27.0581 81.062V78.1483C27.4804 78.3609 27.9593 78.5666 28.5042 78.7612C33.7908 80.6482 40.6174 80.6476 45.902 78.7612C46.4468 78.5666 46.9258 78.3611 47.348 78.1483V81.062C47.348 81.1749 46.9258 81.8987 44.9189 82.6151ZM47.348 74.4541C47.348 74.567 46.9258 75.2906 44.9189 76.007C40.2641 77.6687 34.1399 77.6677 29.4873 76.007C27.4804 75.2906 27.0581 74.5668 27.0581 74.4541V71.4353C27.4804 71.648 27.9593 71.8537 28.5042 72.0482C33.7908 73.9352 40.6174 73.9346 45.902 72.0482C46.4468 71.8537 46.9258 71.6482 47.348 71.4353V74.4541ZM29.4873 52.8675C34.1401 51.2066 40.2674 51.207 44.9189 52.8675C46.9258 53.5839 47.348 54.3077 47.348 54.4204C47.348 54.5331 46.9258 55.2571 44.9189 55.9735C40.2641 57.6351 34.1399 57.6342 29.4873 55.9735C27.4804 55.2571 27.0581 54.5333 27.0581 54.4204C27.0581 54.3075 27.4804 53.5839 29.4873 52.8675ZM5.29037 72.1531C11.0785 74.1695 18.5381 74.113 24.134 71.5404V74.4543C24.134 74.5672 23.7118 75.291 21.7049 76.0072C17.0501 77.6689 10.9261 77.6681 6.27346 76.0072C4.26655 75.2908 3.84431 74.567 3.84431 74.4543V71.5404C4.26636 71.7531 4.74532 71.9585 5.29037 72.1531ZM21.7049 95.831C17.0501 97.4927 10.9261 97.4919 6.27346 95.831C4.26655 95.1146 3.84431 94.3908 3.84431 94.2782V91.3642C9.91961 94.0971 18.0603 94.0965 24.134 91.3642V94.2782C24.134 94.3908 23.7118 95.1146 21.7049 95.831ZM44.9189 95.831C40.2641 97.4927 34.1399 97.4917 29.4873 95.831C27.4804 95.1146 27.0581 94.3908 27.0581 94.2782V91.3642C33.1334 94.0971 41.2743 94.0965 47.348 91.3642V94.2782C47.348 94.3908 46.9258 95.1144 44.9189 95.831ZM68.1327 95.831C63.4779 97.4927 57.3539 97.4919 52.7013 95.831C50.6944 95.1146 50.2721 94.3908 50.2721 94.2782V91.3642C56.3474 94.0971 64.4881 94.0965 70.5619 91.3642V94.2782C70.5619 94.3908 70.1396 95.1146 68.1327 95.831ZM52.7013 79.5091C57.3561 77.8475 63.4801 77.8482 68.1327 79.5091C70.1396 80.2255 70.5619 80.9493 70.5619 81.062C70.5619 81.1747 70.1396 81.8987 68.1327 82.6151C63.4779 84.2768 57.3539 84.276 52.7013 82.6151C50.6944 81.8987 50.2721 81.1749 50.2721 81.062C50.2721 80.9492 50.6944 80.2255 52.7013 79.5091Z" fill="#C3CEEB"/>
</svg>
