<svg width="253" height="366" viewBox="0 0 253 366" fill="none" xmlns="http://www.w3.org/2000/svg">
<g clip-path="url(#clip0)">
<g opacity="0.2">
<path opacity="0.2" d="M236.833 199.076C221 221.566 194.167 236.892 156.167 245.055C134.167 249.719 114.5 250.386 96.8333 246.721C79.3333 243.222 64.1666 236.559 51.6666 227.063C39 217.401 28.8333 205.573 20.6666 191.579C12.5 177.586 6.99998 162.759 3.66665 146.933C-0.33335 128.275 -1.00002 111.616 1.66665 97.1223C4.33332 82.6289 9.66665 70.1346 17.6667 59.4728C25.6667 48.8109 36.1666 39.9816 49 32.9848C61.8333 25.8214 76.8333 20.4905 93.6666 16.9921C114.667 12.4941 133.167 11.4946 149 13.9935C164.833 16.4923 178.5 21.1569 190 27.8205C201.5 34.4841 211 42.4805 218.5 51.4764C226 60.6389 231.833 69.4682 236.333 78.1309C240.833 86.7936 244 94.4568 246 101.454C248 108.284 249.167 112.615 249.5 114.448C256.833 148.266 252.5 176.586 236.833 199.076Z" fill="#888CF0"/>
</g>
<path opacity="0.2" d="M120 366C165.932 366 203.167 360.257 203.167 353.172C203.167 346.088 165.932 340.345 120 340.345C74.0682 340.345 36.8333 346.088 36.8333 353.172C36.8333 360.257 74.0682 366 120 366Z" fill="#888CF0"/>
<path d="M96.4998 329.35L98.8331 351.007L112.5 346.675L111.166 342.177L109.333 319.688L96.4998 329.35Z" fill="#EFD7BC"/>
<path d="M110.666 334.847L109.333 319.854L96.4998 329.516L97.1664 335.347C101.5 334.347 106.166 335.347 110.666 334.847Z" fill="#E5BA9C"/>
<path d="M97.8331 343.01L101.166 345.343L113 343.677V355.338L76.9998 356.171C76.9998 356.171 76.1665 354.505 78.1665 351.84C80.8331 348.508 97.8331 343.01 97.8331 343.01Z" fill="#414074"/>
<path d="M86.1665 347.341C82.4998 348.841 79.1665 350.507 78.1665 352.006C76.1665 354.671 76.9998 356.337 76.9998 356.337L90.3331 356.004C88.9998 353.005 87.6665 350.173 86.1665 347.341Z" fill="white"/>
<path d="M78.4998 354.005L76.9998 356.337L113 355.338V352.672L78.4998 354.005Z" fill="white"/>
<path d="M95.3332 344.343L94.1665 338.512L102 339.678L99.8332 347.508L95.3332 344.343Z" fill="#414074"/>
<path d="M88.9998 346.009L91.1664 348.841" stroke="white" stroke-width="0.685" stroke-miterlimit="10" stroke-linecap="round"/>
<path d="M91.6665 344.843L93.9998 347.841" stroke="white" stroke-width="0.685" stroke-miterlimit="10" stroke-linecap="round"/>
<path d="M94.6665 343.843L96.8332 346.675" stroke="white" stroke-width="0.685" stroke-miterlimit="10" stroke-linecap="round"/>
<path d="M113 353.172L76.8333 354.838V355.338L113 354.005V353.172Z" fill="#00344E"/>
<path d="M145.833 330.683L148.333 352.34L161.833 348.008L160.666 343.51L158.666 321.021L145.833 330.683Z" fill="#EFD7BC"/>
<path d="M160 336.513L158.666 321.021L145.833 330.683L146.666 336.513C152.333 337.18 155.666 337.013 160 336.513Z" fill="#E5BA9C"/>
<path d="M147.333 344.343L150.666 346.676L162.5 345.01V356.671L126.5 357.504C126.5 357.504 125.666 355.838 127.666 353.173C130.166 349.841 147.333 344.343 147.333 344.343Z" fill="#414074"/>
<path d="M135.5 348.675C131.833 350.174 128.5 351.84 127.5 353.339C125.5 356.005 126.333 357.671 126.333 357.671L139.666 357.338C138.5 354.339 137.166 351.507 135.5 348.675Z" fill="white"/>
<path d="M128 355.338L126.333 357.67L162.333 356.671V354.005L128 355.338Z" fill="white"/>
<path d="M144.667 345.676L143.667 339.845L151.5 340.845L149.167 348.841L144.667 345.676Z" fill="#414074"/>
<path d="M138.5 347.342L140.666 350.174" stroke="white" stroke-width="0.685" stroke-miterlimit="10" stroke-linecap="round"/>
<path d="M141.167 346.176L143.333 349.174" stroke="white" stroke-width="0.685" stroke-miterlimit="10" stroke-linecap="round"/>
<path d="M144 345.176L146.166 348.008" stroke="white" stroke-width="0.685" stroke-miterlimit="10" stroke-linecap="round"/>
<path d="M162.333 354.505L126.167 356.171V356.671L162.5 355.338L162.333 354.505Z" fill="#00344E"/>
<path d="M82.1666 174.753C82.1666 174.753 75.1666 251.718 94.1666 331.849L112.833 332.348C112.833 332.348 110 258.715 111.667 201.908L118.833 202.408C118.833 202.408 134.833 295.698 143.5 334.347L161.333 335.18C161.333 335.18 151.167 208.905 147.667 172.921C144.167 137.104 82.1666 174.753 82.1666 174.753Z" fill="#FFC979"/>
<path opacity="0.1" d="M111.667 201.908H112.167C102.167 200.409 86.6667 196.41 81.1667 194.911C80.3334 223.065 81.1667 276.541 94.1667 331.849L112.833 332.349C112.667 332.349 109.833 258.882 111.667 201.908Z" fill="#1B242D"/>
<path opacity="0.1" d="M148.667 183.916C148.333 179.751 148 176.086 147.667 172.921C144.167 136.937 82.1666 174.587 82.1666 174.587C82.1666 174.587 81.8333 179.085 81.3333 187.248C114 190.746 138.5 186.415 148.667 183.916Z" fill="#1B242D"/>
<path d="M60.8333 176.419L45.6666 186.581C45.6666 186.581 45.3333 187.581 45 188.914C44 189.414 37.8333 192.579 39.1666 193.412C40 193.911 42.1666 193.412 43.8333 192.912C41.8333 200.908 39.3333 211.737 45.3333 198.243C45.3333 198.243 40.5 224.398 48.3333 198.743C48.3333 198.743 44.3333 224.398 51.3333 199.409C51.3333 199.409 47.8333 219.067 53.8333 200.409C61.5 176.419 60.8333 176.419 60.8333 176.419Z" fill="#EFD7BC"/>
<path d="M60.8333 176.419L45.6667 186.581C45.6667 186.581 45.3333 187.581 45 188.914L55.8333 194.245C61.3333 176.419 60.8333 176.419 60.8333 176.419Z" fill="#E5BA9C"/>
<path d="M149.667 91.6247C149.667 91.6247 191.5 26.3211 185.5 15.3261C179.5 4.49771 124.833 10.3284 124.833 10.3284V21.9897L160.333 27.987L136.333 65.6365C136.333 65.6365 99.3333 65.6365 85.6666 71.6338C71.9999 77.6311 43.8333 187.248 43.8333 187.248L58.3333 193.079C58.3333 193.079 68.6666 165.424 78.3333 138.936C77.4999 153.596 77.3333 169.256 78.8333 181.417C78.8333 181.417 114.667 191.413 152.333 180.584C152.167 180.418 144.5 122.611 149.667 91.6247Z" fill="#888CF0"/>
<path opacity="0.1" d="M78 171.255C78.1667 174.753 78.5 178.085 78.8333 181.25C78.8333 181.25 114.667 191.246 152.333 180.418C152.333 180.418 150.333 164.925 149 145.767C128 159.594 103.167 166.924 78 171.255Z" fill="#1B242D"/>
<path opacity="0.1" d="M138.333 9.3291C130.5 9.82887 125 10.3286 125 10.3286V21.99L136.833 23.9891C137.167 19.158 137.833 14.1602 138.333 9.3291Z" fill="#1B242D"/>
<path opacity="0.1" d="M58.3333 193.078C58.3333 193.078 68.6666 165.424 78.3332 138.936C77.8332 148.765 80.6666 101.953 82.9999 73.7993C68.6666 90.4584 43.8333 187.248 43.8333 187.248L58.3333 193.078Z" fill="#1B242D"/>
<path d="M124.333 41.481L125.833 65.3034L133.667 65.6366C133.667 65.6366 115.167 80.963 100.333 67.9689L108.5 66.9694L107.333 54.1419L124.333 41.481Z" fill="#EFD7BC"/>
<path d="M124.833 50.1437L124.333 41.481L107.5 54.1419L108.333 63.6375C113.333 62.4714 122 59.1396 124.833 50.1437Z" fill="#E5BA9C"/>
<path d="M127.667 36.8164C127.667 36.8164 126.167 45.1459 124.5 45.6457C122.833 46.1455 124 37.6494 124 37.6494L127.667 36.8164Z" fill="#414074"/>
<path d="M89.1667 16.8254C89.1667 16.8254 89.1667 34.9838 90.1667 45.479C91.1667 56.1408 98.8334 59.9724 105.333 59.6392C113 59.1395 125 52.3093 124.667 43.4799L124.333 27.3206C124.333 27.3206 125.667 13.9934 116.833 9.66201C108 5.33065 91.0001 7.66292 89.1667 16.8254Z" fill="#EFD7BC"/>
<path d="M123.333 31.8189C123.333 31.8189 124.5 24.9886 127.833 26.3214C131 27.6541 130.833 40.6482 124.5 39.9818C118 39.3154 123.333 31.8189 123.333 31.8189Z" fill="#EFD7BC"/>
<path d="M124.333 28.6533V33.3179L121.667 32.8181L121.333 27.4872C121.333 27.4872 114.667 24.4886 113.5 15.4927C113.5 15.4927 108.5 21.6565 101 21.6565L104.833 17.9915C104.833 17.9915 96.8333 22.4895 87 22.4895L86.6667 17.9915L80.5 21.3233C80.5 21.3233 84.6667 0.166318 101.667 0.4995C118.667 0.832681 114.167 10.8281 114.167 10.8281C114.167 10.8281 115.833 2.99836 125.333 5.33063C134.833 7.49631 128.333 27.3206 128.333 27.3206C128.333 27.3206 125.167 23.6556 124.333 28.6533Z" fill="#414074"/>
<path d="M94.3333 1.66573C94.3333 1.66573 115.167 -4.9979 120.167 7.82959C125.167 20.6571 103.833 9.82868 103.833 9.82868L94.3333 1.66573Z" fill="#414074"/>
<path d="M105.833 33.1515C105.833 33.1515 106.167 33.6513 106.833 34.4843C107.167 34.8174 107.5 35.3172 107.833 35.6504C108 35.817 108.333 35.9836 108.5 36.1502C108.667 36.3168 108.667 36.3168 108.834 36.3168C109 36.3168 109 36.4834 109.167 36.3168C109.333 36.3168 109.667 36.3168 109.833 36.1502C110 35.9836 110.333 35.817 110.5 35.6504C110.667 35.4838 110.833 35.3172 111 34.984C111.167 34.8174 111.333 34.4843 111.333 34.3177C111.833 33.4847 112.167 32.8184 112.167 32.8184C112.167 32.8184 112.167 32.9849 112.167 33.3181C112.167 33.6513 112 33.9845 111.833 34.4843C111.667 34.984 111.5 35.4838 111 35.9836C110.833 36.3168 110.5 36.4834 110.333 36.8165C110 36.9831 109.667 37.1497 109.167 37.1497C109 37.1497 108.833 37.1497 108.667 36.9831C108.5 36.9831 108.333 36.8165 108.167 36.6499C107.833 36.4834 107.667 36.1502 107.333 35.9836C106.833 35.4838 106.667 34.984 106.333 34.4843C106 33.8179 105.833 33.1515 105.833 33.1515Z" fill="#001228"/>
<path d="M91.3335 33.9841C91.3335 33.9841 91.6668 34.4838 92.3335 35.3168C92.6668 35.65 93.0002 36.1497 93.3335 36.4829C93.5002 36.6495 93.8335 36.8161 94.0002 36.9827C94.1668 37.1493 94.1668 37.1493 94.3335 37.1493C94.5002 37.1493 94.5002 37.3159 94.6668 37.1493C94.8335 37.1493 95.1668 37.1493 95.3335 36.9827C95.5002 36.8161 95.8335 36.6495 96.0002 36.4829C96.1668 36.3163 96.3335 36.1497 96.5002 35.8166C96.6668 35.65 96.8335 35.3168 96.8335 35.1502C97.3335 34.3172 97.6668 33.6509 97.6668 33.6509C97.6668 33.6509 97.6668 33.8175 97.6668 34.1507C97.6668 34.4838 97.5002 34.817 97.3335 35.3168C97.1668 35.8166 97.0002 36.3163 96.5002 36.8161C96.3335 37.1493 96.0002 37.3159 95.8335 37.6491C95.5002 37.8157 95.1668 37.9822 94.6668 37.9822C94.5002 37.9822 94.3335 37.9822 94.1668 37.8157C94.0002 37.8157 93.8335 37.6491 93.6668 37.4825C93.3335 37.3159 93.1668 36.9827 92.8335 36.8161C92.3335 36.3163 92.1668 35.8166 91.8335 35.3168C91.5002 34.6504 91.3335 33.9841 91.3335 33.9841Z" fill="#001228"/>
<path d="M99.8335 28.9863C99.8335 31.152 99.6668 33.3177 99.3335 35.4834C99.1668 36.4829 99.1668 37.6491 99.0002 38.6486C98.8335 39.6481 98.6668 40.8143 98.5002 41.8138L98.3335 41.6472C99.5002 42.6468 100.667 43.6463 101.833 44.8125C100.5 43.9795 99.1668 42.98 98.0002 42.147H97.8335V41.9804C97.8335 40.9809 98.0002 39.8147 98.1668 38.8152C98.3335 37.8156 98.3335 36.6495 98.5002 35.65C99.0002 33.1511 99.3335 30.9854 99.8335 28.9863Z" fill="#CCAB8B"/>
<path d="M103 26.1542C103 26.1542 103.333 28.9863 106 28.9863C108.833 28.9863 113 28.4865 114.833 31.4851C114.833 31.4851 116.5 27.6535 112.333 26.8206C108.167 25.9876 103 26.1542 103 26.1542Z" fill="#414074"/>
<path d="M99.6668 25.8212C99.6668 25.8212 99.5001 28.6533 97.1668 28.6533C94.8334 28.6533 91.5001 28.1535 89.8334 31.1521C89.8334 31.1521 88.5001 27.3205 91.8334 26.4876C95.3334 25.6546 99.6668 25.8212 99.6668 25.8212Z" fill="#414074"/>
<path d="M99.1667 49.8102C99.1667 49.8102 99.5001 48.9772 100.5 47.9777C100.833 47.8111 101 47.4779 101.333 47.3113C101.667 47.1447 102 46.9781 102.5 46.8115C103 46.6449 103.333 46.6449 103.833 46.4783C104.333 46.4783 104.833 46.3117 105.167 46.4783C105.667 46.4783 106 46.6449 106.5 46.6449C107 46.6449 107.333 46.8115 107.833 46.9781C108.667 47.1447 109.333 47.6445 109.833 47.9777C110.5 48.3108 110.833 48.644 111.167 48.8106C111.5 48.9772 111.667 49.1438 111.667 49.1438C111.667 49.1438 111.5 49.1438 111.167 48.9772C110.833 48.8106 110.333 48.644 109.667 48.3108C109 48.1442 108.333 47.8111 107.5 47.6445C107.167 47.4779 106.667 47.4779 106.333 47.3113C106 47.1447 105.5 47.1447 105.167 47.1447C104.667 47.1447 104.333 47.1447 104 47.1447C103.667 47.1447 103.167 47.3113 102.833 47.3113C102.5 47.4779 102.167 47.4779 101.833 47.6445C101.5 47.8111 101.167 47.9777 101 48.1442C99.6667 48.9772 99.1667 49.8102 99.1667 49.8102Z" fill="#CCAB8B"/>
</g>
<defs>
<clipPath id="clip0">
<rect width="253" height="366" fill="white"/>
</clipPath>
</defs>
</svg>
