<svg  viewBox="0 0 48 48" fill="#C3CEEB" xmlns="http://www.w3.org/2000/svg">
<path d="M1.7786 26.3504C2.7326 28.606 4.09758 30.6307 5.83566 32.3688C7.57374 34.1068 9.59859 35.4718 11.8541 36.4258C14.191 37.4142 16.6715 37.9155 19.2265 37.9155C21.7814 37.9155 24.262 37.4144 26.5989 36.4258C26.9904 36.2602 27.3746 36.0814 27.752 35.8911L38.3627 46.5019C39.3027 47.4417 40.5524 47.9595 41.8816 47.9595C43.2108 47.9595 44.4605 47.4417 45.4004 46.5019L46.2557 45.6466C48.196 43.7063 48.196 40.5493 46.2559 38.609L35.7974 28.1505C36.1197 27.5683 36.4132 26.9683 36.6744 26.3503C37.6628 24.0134 38.1641 21.5329 38.1641 18.9779C38.1641 16.423 37.663 13.9424 36.6744 11.6055C35.7205 9.35005 34.3554 7.32521 32.6173 5.58713C30.8793 3.84905 28.8544 2.48406 26.5989 1.53007C24.2621 0.541738 21.7816 0.0405273 19.2266 0.0405273C16.6717 0.0405273 14.1911 0.541657 11.8542 1.53015C9.59875 2.48414 7.57391 3.84913 5.83583 5.58721C4.09783 7.32529 2.73284 9.35014 1.77885 11.6056C0.790354 13.9426 0.289062 16.423 0.289062 18.978C0.289062 21.533 0.790192 24.0134 1.7786 26.3504ZM31.3389 28.5984C30.459 29.7046 29.4308 30.6873 28.2843 31.5169C27.3138 32.2194 26.2586 32.8116 25.1368 33.2758C23.3158 34.0296 21.32 34.4461 19.2266 34.4461C10.6838 34.4461 3.75842 27.5209 3.75842 18.978C3.75842 10.4352 10.6838 3.50989 19.2266 3.50989C27.7694 3.50989 34.6948 10.4352 34.6948 18.9781C34.6948 21.3376 34.1657 23.5731 33.2209 25.574C32.7095 26.6568 32.0765 27.6708 31.3389 28.5984ZM43.8027 41.0621C44.3913 41.6507 44.3913 42.605 43.8027 43.1935L42.9474 44.0487C42.6531 44.343 42.2675 44.49 41.8818 44.49C41.496 44.49 41.1104 44.343 40.8161 44.0487L30.7639 33.9964C31.4126 33.4969 32.0317 32.9546 32.6174 32.3688C33.0355 31.9508 33.4315 31.5156 33.8058 31.0651L43.8027 41.0621Z" />
<path d="M41.8816 48C40.5417 48 39.2817 47.4781 38.3341 46.5305L27.7441 35.9405C27.3687 36.129 26.9889 36.3048 26.6146 36.4631C24.273 37.4536 21.7872 37.9559 19.2265 37.9559C16.6662 37.9559 14.1805 37.4537 11.8384 36.4631C9.57823 35.5072 7.54901 34.1393 5.80712 32.3974C4.06523 30.6555 2.69733 28.6263 1.7414 26.3661C0.750798 24.0242 0.248535 21.5384 0.248535 18.978C0.248535 16.4177 0.750798 13.9319 1.7414 11.5898C2.69741 9.32953 4.06523 7.30031 5.80704 5.55851C7.54885 3.8167 9.57806 2.4488 11.8383 1.49278C14.1803 0.502263 16.666 0 19.2266 0C21.787 0 24.2727 0.502263 26.6147 1.49286C28.875 2.4488 30.9043 3.8167 32.6461 5.55859C34.3879 7.30047 35.7558 9.32969 36.7118 11.5899C37.7023 13.9317 38.2046 16.4175 38.2046 18.9781C38.2046 21.5384 37.7024 24.024 36.7118 26.3662C36.4587 26.9648 36.1681 27.5625 35.8476 28.1434L46.2846 38.5804C48.2405 40.5365 48.2404 43.7193 46.2844 45.6754L45.4292 46.5306C44.4816 47.4781 43.2216 48 41.8816 48ZM27.7599 35.8418L38.3913 46.4733C39.3238 47.4056 40.5632 47.919 41.8816 47.919C43.2001 47.919 44.4395 47.4056 45.3719 46.4733L46.2272 45.618C48.1517 43.6935 48.1518 40.5621 46.2273 38.6376L35.7472 28.1575L35.762 28.1309C36.0868 27.5441 36.3812 26.9397 36.6371 26.3346C37.6235 24.0025 38.1236 21.5274 38.1236 18.978C38.1236 16.4284 37.6234 13.9532 36.6371 11.6214C35.6853 9.37083 34.3232 7.35028 32.5888 5.61576C30.8544 3.88132 28.8338 2.51925 26.5833 1.56737C24.2512 0.581061 21.7761 0.0809841 19.2266 0.0809841C16.677 0.0809841 14.2019 0.581061 11.87 1.56737C9.61937 2.51925 7.59881 3.88132 5.86438 5.61576C4.13002 7.3502 2.76795 9.37075 1.81606 11.6214C0.829677 13.9534 0.3296 16.4285 0.3296 18.978C0.3296 21.5275 0.829677 24.0026 1.81598 26.3346C2.76779 28.585 4.12986 30.6056 5.86438 32.3401C7.59889 34.0745 9.61945 35.4365 11.87 36.3883C14.202 37.3747 16.6771 37.8748 19.2266 37.8748C21.7765 37.8748 24.2516 37.3746 26.5833 36.3883C26.9645 36.2271 27.3516 36.0476 27.7339 35.8549L27.7599 35.8418ZM41.8817 44.5305C41.4684 44.5305 41.0797 44.3696 40.7874 44.0773L30.7026 33.9924L30.7391 33.9642C31.3895 33.4634 32.0118 32.917 32.5887 32.3401C33 31.9289 33.3989 31.4913 33.7746 31.0393L33.803 31.0051L43.8313 41.0334C44.4348 41.6368 44.4348 42.6186 43.8313 43.222L42.9761 44.0773C42.6837 44.3696 42.2952 44.5305 41.8817 44.5305ZM30.8251 34.0004L40.8447 44.0201C41.1218 44.2971 41.4901 44.4496 41.8818 44.4496C42.2735 44.4496 42.6418 44.2971 42.9189 44.0201L43.7742 43.1648C44.346 42.593 44.346 41.6626 43.7742 41.0908L33.8085 31.1252C33.4395 31.567 33.0486 31.9949 32.6461 32.3974C32.0775 32.966 31.465 33.5051 30.8251 34.0004ZM19.2265 34.4866C10.675 34.4866 3.71781 27.5295 3.71781 18.978C3.71781 10.4265 10.675 3.46936 19.2265 3.46936C27.778 3.46936 34.7352 10.4265 34.7352 18.9781C34.7352 21.2895 34.238 23.5145 33.2574 25.5913C32.7487 26.6685 32.1139 27.6887 31.3706 28.6236C30.4876 29.7337 29.4571 30.7182 28.308 31.5498C27.3284 32.2587 26.2666 32.8521 25.1522 33.3132C23.271 34.0918 21.2773 34.4866 19.2265 34.4866ZM19.2265 3.55026C10.7197 3.55026 3.7988 10.4711 3.7988 18.9779C3.7988 27.4847 10.7196 34.4055 19.2265 34.4055C21.2666 34.4055 23.2499 34.0128 25.1212 33.2383C26.2298 32.7795 27.286 32.1893 28.2605 31.484C29.4037 30.6568 30.4287 29.6774 31.3072 28.5731C32.0467 27.6432 32.6782 26.6282 33.1842 25.5566C34.1597 23.4907 34.6542 21.2774 34.6542 18.978C34.6542 10.4711 27.7334 3.55026 19.2265 3.55026Z" />
<path d="M25.7165 12.518C25.0391 11.8405 23.9407 11.8405 23.2634 12.518L19.2566 16.5247L15.2498 12.518C14.5723 11.8405 13.474 11.8405 12.7966 12.518C12.1192 13.1955 12.1192 14.2937 12.7966 14.9712L16.8034 18.9779L12.7966 22.9847C12.1192 23.6621 12.1192 24.7604 12.7966 25.4378C13.1354 25.7767 13.5793 25.9459 14.0232 25.9459C14.4671 25.9459 14.9111 25.7764 15.2498 25.4378L19.2566 21.4312L19.9697 22.1443L22.4229 24.5975L23.2633 25.4378C23.602 25.7765 24.046 25.9459 24.4899 25.9459C24.9337 25.9459 25.3778 25.7764 25.7164 25.4378C26.3939 24.7604 26.3939 23.6621 25.7164 22.9847L24.8778 22.1459L22.4245 19.6927L21.7098 18.978L25.7165 14.9713C26.394 14.2937 26.394 13.1955 25.7165 12.518Z" />
<path d="M24.4901 25.9864C24.016 25.9864 23.5702 25.8018 23.2348 25.4665L19.2567 21.4884L15.2785 25.4665C14.9432 25.8018 14.4974 25.9864 14.0232 25.9864C13.549 25.9864 13.1032 25.8018 12.768 25.4665C12.4327 25.1311 12.248 24.6854 12.248 24.2113C12.248 23.7372 12.4327 23.2914 12.768 22.956L16.7461 18.9779L12.768 14.9998C12.0759 14.3076 12.0759 13.1815 12.768 12.4893C13.1032 12.154 13.5491 11.9694 14.0231 11.9694C14.4973 11.9694 14.9431 12.154 15.2784 12.4893L19.2566 16.4674L23.2348 12.4893C23.57 12.154 24.0158 11.9694 24.49 11.9694C24.9642 11.9694 25.41 12.154 25.7453 12.4893C26.4373 13.1815 26.4373 14.3076 25.7453 14.9998L21.7672 18.9779L25.7453 22.956C26.0806 23.2913 26.2652 23.7371 26.2652 24.2113C26.2652 24.6854 26.0806 25.1311 25.7453 25.4665C25.4101 25.8018 24.9642 25.9864 24.4901 25.9864ZM19.2567 21.3739L23.2922 25.4092C23.6122 25.7292 24.0377 25.9054 24.4901 25.9054C24.9426 25.9054 25.368 25.7292 25.6881 25.4092C26.008 25.0893 26.1843 24.6638 26.1843 24.2113C26.1843 23.7588 26.008 23.3333 25.6881 23.0133L21.6527 18.978L25.6881 14.9426C26.3486 14.282 26.3486 13.2072 25.6881 12.5466C25.3681 12.2266 24.9426 12.0504 24.4901 12.0504C24.0375 12.0504 23.6121 12.2266 23.2922 12.5466L19.2567 16.582L15.2213 12.5466C14.9012 12.2266 14.4758 12.0504 14.0233 12.0504C13.5708 12.0504 13.1454 12.2266 12.8254 12.5466C12.1649 13.2072 12.1649 14.282 12.8254 14.9426L16.8607 18.978L12.8254 23.0133C12.5054 23.3333 12.3292 23.7588 12.3292 24.2113C12.3292 24.6638 12.5054 25.0893 12.8254 25.4092C13.1453 25.7292 13.5708 25.9054 14.0233 25.9054C14.4758 25.9054 14.9012 25.7292 15.2213 25.4092L19.2567 21.3739Z" />
</svg>
