<svg width="36" height="36" viewBox="0 0 36 36" fill="none" xmlns="http://www.w3.org/2000/svg">
<g clip-path="url(#clip0)">
<path d="M28.0155 35.991C26.5545 35.991 24.8625 35.529 22.9185 34.6065C20.7495 33.5775 19.704 33.6135 19.0125 33.6465C18.456 33.663 17.8755 33.69 17.3025 33.117C17.1015 32.916 16.188 31.821 17.9835 30.0255C18.879 29.13 20.1075 28.872 21.174 28.857L14.955 22.638C14.5425 22.227 14.3145 21.6765 14.316 21.093C14.3175 20.5095 14.5455 19.962 14.9595 19.5495C15.3735 19.137 15.921 18.9075 16.5045 18.906H16.5075C17.0895 18.906 17.637 19.1325 18.0495 19.5465L20.6325 22.131C20.736 21.924 20.874 21.7335 21.042 21.567C21.6345 20.973 22.4835 20.79 23.235 21.024C23.34 20.727 23.5125 20.4465 23.7495 20.2095C24.564 19.3935 25.866 19.3575 26.721 20.097C26.823 19.89 26.961 19.698 27.132 19.527C27.9855 18.6735 29.37 18.672 30.222 19.5225L34.272 23.5725C36.8145 26.1135 36.531 29.7975 33.5805 32.7495C33.5745 32.7555 33.5685 32.7615 33.561 32.769L31.8855 34.443C30.8415 35.475 29.5575 35.991 28.0155 35.991ZM19.419 32.1375C20.238 32.1375 21.4965 32.2725 23.562 33.2505C28.0395 35.376 29.8545 34.344 30.8325 33.3795L32.5215 31.6905C32.526 31.6845 32.532 31.68 32.5365 31.6755C34.3245 29.8665 35.55 26.97 33.225 24.645L29.163 20.583C28.8975 20.3175 28.4625 20.3205 28.194 20.5875C27.927 20.8545 27.924 21.288 28.188 21.555L28.1895 21.5565L29.202 22.569C29.349 22.716 29.421 22.908 29.421 23.1C29.421 23.292 29.3475 23.484 29.202 23.631C28.9095 23.9235 28.434 23.9235 28.1415 23.631L25.779 21.2685C25.5135 21.003 25.0785 21.0045 24.81 21.273C24.5415 21.5415 24.54 21.975 24.807 22.242L26.4945 23.9295C26.6415 24.0765 26.7135 24.2685 26.7135 24.4605C26.7135 24.6525 26.64 24.8445 26.4945 24.9915C26.202 25.284 25.7265 25.284 25.434 24.9915L23.0715 22.629C22.806 22.3635 22.3725 22.3665 22.1025 22.6335C21.972 22.764 21.9 22.938 21.9 23.121C21.9 23.3025 21.9705 23.4735 22.098 23.601L23.7855 25.2885C23.9325 25.4355 24.0045 25.6275 24.0045 25.8195C24.0045 26.0115 23.931 26.2035 23.7855 26.3505C23.493 26.643 23.0175 26.643 22.725 26.3505L16.9875 20.6145C16.8585 20.4855 16.6875 20.4135 16.506 20.4135C16.323 20.415 16.1505 20.487 16.02 20.6175C15.8895 20.748 15.8175 20.9205 15.816 21.1035C15.816 21.285 15.8865 21.456 16.0155 21.585L23.778 29.3475C24.021 29.589 24.0675 29.9655 23.892 30.2595C23.7165 30.5535 23.361 30.6915 23.0355 30.597C23.007 30.5895 20.3205 29.8185 19.0425 31.0935C18.462 31.6755 18.3765 32.0325 18.3915 32.112C18.4545 32.1555 18.4695 32.172 18.9525 32.1525C19.092 32.1435 19.2465 32.1375 19.419 32.1375ZM27.666 20.058H27.681H27.666Z" fill="white"/>
<path d="M27.75 12H5.25C2.355 12 0 9.645 0 6.75C0 3.855 2.355 1.5 5.25 1.5H27.75C30.645 1.5 33 3.855 33 6.75C33 9.645 30.645 12 27.75 12ZM5.25 3C3.183 3 1.5 4.6815 1.5 6.75C1.5 8.8185 3.183 10.5 5.25 10.5H27.75C29.817 10.5 31.5 8.8185 31.5 6.75C31.5 4.6815 29.817 3 27.75 3H5.25Z" fill="white"/>
<path d="M6.75 9C5.5095 9 4.5 7.9905 4.5 6.75C4.5 5.5095 5.5095 4.5 6.75 4.5C7.9905 4.5 9 5.5095 9 6.75C9 7.9905 7.9905 9 6.75 9ZM6.75 6C6.336 6 6 6.3375 6 6.75C6 7.1625 6.336 7.5 6.75 7.5C7.164 7.5 7.5 7.1625 7.5 6.75C7.5 6.3375 7.164 6 6.75 6Z" fill="white"/>
<path d="M14.25 9C13.0095 9 12 7.9905 12 6.75C12 5.5095 13.0095 4.5 14.25 4.5C15.4905 4.5 16.5 5.5095 16.5 6.75C16.5 7.9905 15.4905 9 14.25 9ZM14.25 6C13.836 6 13.5 6.3375 13.5 6.75C13.5 7.1625 13.836 7.5 14.25 7.5C14.664 7.5 15 7.1625 15 6.75C15 6.3375 14.664 6 14.25 6Z" fill="white"/>
<path d="M11.25 21H5.25C2.355 21 0 18.645 0 15.75C0 14.349 0.546 13.032 1.539 12.039C2.532 11.046 3.8505 10.5 5.25 10.5H27.75C30.645 10.5 33 12.855 33 15.75C33 16.164 32.664 16.5 32.25 16.5C31.836 16.5 31.5 16.164 31.5 15.75C31.5 13.6815 29.817 12 27.75 12H5.25C4.251 12 3.3105 12.3915 2.5995 13.0995C1.8885 13.8075 1.5 14.751 1.5 15.75C1.5 17.8185 3.183 19.5 5.25 19.5H11.25C11.664 19.5 12 19.836 12 20.25C12 20.664 11.664 21 11.25 21Z" fill="white"/>
<path d="M6.75 18C5.5095 18 4.5 16.9905 4.5 15.75C4.5 14.5095 5.5095 13.5 6.75 13.5C7.9905 13.5 9 14.5095 9 15.75C9 16.9905 7.9905 18 6.75 18ZM6.75 15C6.336 15 6 15.3375 6 15.75C6 16.1625 6.336 16.5 6.75 16.5C7.164 16.5 7.5 16.1625 7.5 15.75C7.5 15.3375 7.164 15 6.75 15Z" fill="white"/>
<path d="M14.25 18C13.0095 18 12 16.9905 12 15.75C12 14.5095 13.0095 13.5 14.25 13.5C15.4905 13.5 16.5 14.5095 16.5 15.75C16.5 16.9905 15.4905 18 14.25 18ZM14.25 15C13.836 15 13.5 15.3375 13.5 15.75C13.5 16.1625 13.836 16.5 14.25 16.5C14.664 16.5 15 16.1625 15 15.75C15 15.3375 14.664 15 14.25 15Z" fill="white"/>
<path d="M14.25 30H5.25C2.355 30 0 27.645 0 24.75C0 23.349 0.546 22.032 1.539 21.039C2.532 20.046 3.8505 19.5 5.25 19.5H11.25C11.664 19.5 12 19.836 12 20.25C12 20.664 11.664 21 11.25 21H5.25C4.251 21 3.3105 21.3915 2.5995 22.0995C1.8885 22.8075 1.5 23.751 1.5 24.75C1.5 26.8185 3.183 28.5 5.25 28.5H14.25C14.664 28.5 15 28.836 15 29.25C15 29.664 14.664 30 14.25 30Z" fill="white"/>
<path d="M6.75 27C5.5095 27 4.5 25.9905 4.5 24.75C4.5 23.5095 5.5095 22.5 6.75 22.5C7.9905 22.5 9 23.5095 9 24.75C9 25.9905 7.9905 27 6.75 27ZM6.75 24C6.336 24 6 24.3375 6 24.75C6 25.1625 6.336 25.5 6.75 25.5C7.164 25.5 7.5 25.1625 7.5 24.75C7.5 24.3375 7.164 24 6.75 24Z" fill="white"/>
</g>
<defs>
<clipPath id="clip0">
<rect width="36" height="36" fill="white"/>
</clipPath>
</defs>
</svg>
