<svg width="18" height="" viewBox="0 0 18 18" fill="none" xmlns="http://www.w3.org/2000/svg">
<path fill-rule="evenodd" clip-rule="evenodd" d="M10.6021 2.52101L10.6021 2.52108C10.6235 2.73464 10.6341 2.84142 10.6516 2.9116C10.8141 3.56397 11.5611 3.87339 12.1373 3.52697C12.1992 3.48971 12.2823 3.42175 12.4484 3.28585C12.5364 3.21389 12.5803 3.17791 12.6214 3.1506C12.9874 2.90698 13.4696 2.93103 13.8096 3.20986C13.8477 3.24112 13.8879 3.28129 13.9682 3.36165L14.6383 4.03175C14.7187 4.11211 14.7589 4.15229 14.7901 4.1904C15.0689 4.53037 15.093 5.01258 14.8494 5.37861C14.8221 5.41964 14.7861 5.46362 14.7141 5.55158C14.5782 5.7177 14.5102 5.80076 14.473 5.86275C14.1266 6.43891 14.436 7.18591 15.0883 7.34837C15.1585 7.36585 15.2653 7.37653 15.4789 7.39789L15.4789 7.39789C15.592 7.4092 15.6486 7.41486 15.6969 7.42456C16.128 7.51112 16.4519 7.8691 16.4952 8.30664C16.5 8.3557 16.5 8.41252 16.5 8.52618V9.47391C16.5 9.58748 16.5 9.64427 16.4952 9.69328C16.4519 10.1309 16.1279 10.4889 15.6968 10.5755C15.6485 10.5851 15.592 10.5908 15.479 10.6021C15.2656 10.6234 15.1589 10.6341 15.0888 10.6516C14.4363 10.814 14.1268 11.5611 14.4733 12.1374C14.5106 12.1993 14.5785 12.2822 14.7142 12.4482C14.7861 12.5361 14.8221 12.58 14.8494 12.621C15.093 12.987 15.069 13.4693 14.7901 13.8093C14.7589 13.8474 14.7187 13.8875 14.6384 13.9678L13.9683 14.638C13.8879 14.7184 13.8477 14.7586 13.8096 14.7898C13.4696 15.0686 12.9874 15.0927 12.6214 14.8491C12.5804 14.8218 12.5364 14.7858 12.4484 14.7138L12.4484 14.7138C12.2823 14.5779 12.1993 14.51 12.1373 14.4727C11.5611 14.1263 10.8141 14.4357 10.6517 15.0881C10.6342 15.1582 10.6235 15.2651 10.6021 15.4787C10.5908 15.592 10.5851 15.6486 10.5754 15.697C10.4888 16.128 10.1309 16.4519 9.69344 16.4951C9.64434 16.5 9.58747 16.5 9.47372 16.5H8.52618C8.41252 16.5 8.3557 16.5 8.30664 16.4952C7.8691 16.4519 7.51112 16.128 7.42456 15.6969C7.41486 15.6486 7.4092 15.592 7.39789 15.4789L7.39789 15.4789C7.37653 15.2653 7.36585 15.1585 7.34837 15.0883C7.1859 14.436 6.43891 14.1266 5.86276 14.473C5.80077 14.5102 5.71771 14.5782 5.5516 14.7141L5.55156 14.7141L5.55154 14.7142C5.46358 14.7861 5.4196 14.8221 5.37856 14.8494C5.01254 15.093 4.53034 15.069 4.19038 14.7902C4.15227 14.7589 4.11208 14.7187 4.03173 14.6384L4.03171 14.6383L3.36163 13.9683L3.36161 13.9682C3.28126 13.8879 3.24108 13.8477 3.20982 13.8096C2.931 13.4696 2.90695 12.9874 3.15056 12.6214C3.17787 12.5804 3.21385 12.5364 3.2858 12.4485L3.28583 12.4484C3.42174 12.2823 3.4897 12.1992 3.52697 12.1373C3.87338 11.5611 3.56396 10.8141 2.9116 10.6516C2.84142 10.6341 2.73464 10.6235 2.52107 10.6021C2.40799 10.5908 2.35145 10.5851 2.30313 10.5754C1.87205 10.4889 1.54808 10.1309 1.50485 9.69335C1.5 9.6443 1.5 9.58748 1.5 9.47383L1.5 8.52626C1.5 8.41253 1.5 8.35566 1.50485 8.30658C1.54812 7.86908 1.87204 7.51115 2.30306 7.42457C2.35141 7.41486 2.40799 7.4092 2.52115 7.39788L2.52117 7.39788C2.73489 7.37651 2.84175 7.36582 2.91199 7.34833C3.56424 7.18581 3.87361 6.43894 3.52731 5.86281C3.49002 5.80077 3.422 5.71764 3.28596 5.55136L3.28595 5.55136C3.2139 5.46329 3.17787 5.41925 3.15054 5.37818C2.90701 5.01219 2.93105 4.53008 3.20979 4.19015C3.24108 4.15199 3.2813 4.11177 3.36175 4.03132L3.36175 4.03132L4.03174 3.36133L4.03175 3.36132C4.11211 3.28095 4.1523 3.24077 4.19041 3.20951C4.53038 2.9307 5.01258 2.90665 5.3786 3.15025C5.41963 3.17756 5.46364 3.21356 5.55165 3.28557L5.55166 3.28558C5.71772 3.42145 5.80074 3.48938 5.86268 3.52662C6.43888 3.87315 7.18603 3.56367 7.34844 2.9112C7.36589 2.84107 7.37656 2.73437 7.3979 2.52098C7.4092 2.40799 7.41485 2.35149 7.42454 2.30321C7.51108 1.87206 7.86911 1.54805 8.30673 1.50484C8.35574 1.5 8.41252 1.5 8.52607 1.5H9.47383C9.58748 1.5 9.6443 1.5 9.69335 1.50485C10.1309 1.54808 10.4889 1.87205 10.5754 2.30313C10.5851 2.35144 10.5908 2.40797 10.6021 2.52101ZM9 12C10.6569 12 12 10.6569 12 9C12 7.34315 10.6569 6 9 6C7.34315 6 6 7.34315 6 9C6 10.6569 7.34315 12 9 12Z" fill="none"/>
</svg>
