<svg width="" height="17" viewBox="0 0 16 17" fill="#00A3FF" xmlns="http://www.w3.org/2000/svg">
<path d="M8.50479 16.0031H7.50147C6.68881 16.0031 6.0293 15.3436 6.0293 14.531V14.1903C5.68549 14.0809 5.34792 13.9402 5.02598 13.7746L4.78531 14.0152C4.20082 14.5997 3.26939 14.581 2.70053 14.0152L1.99101 13.3057C1.42528 12.74 1.40652 11.8054 1.99101 11.2209L2.23169 10.9803C2.06603 10.6583 1.92538 10.3239 1.81598 9.97695H1.47216C0.659504 9.97695 0 9.31745 0 8.50479V7.50147C0 6.68881 0.659504 6.0293 1.47216 6.0293H1.81285C1.92225 5.68549 2.0629 5.34792 2.22856 5.02598L1.98789 4.78531C1.4034 4.20395 1.41903 3.26939 1.98789 2.70053L2.6974 1.99101C3.26626 1.42215 4.19769 1.40965 4.78218 1.99101L5.02286 2.23169C5.34479 2.06603 5.67923 1.92538 6.02618 1.81598V1.47216C6.02618 0.659504 6.68568 0 7.49834 0H8.50166C9.31432 0 9.97382 0.659504 9.97382 1.47216V1.81285C10.3176 1.92225 10.6552 2.0629 10.9771 2.22856L11.2178 1.98789C11.8023 1.4034 12.7337 1.42215 13.3026 1.98789L14.0121 2.6974C14.5778 3.26314 14.5966 4.1977 14.0121 4.78218L13.7714 5.02286C13.9371 5.34479 14.0778 5.67923 14.1871 6.02618H14.5278C15.3405 6.02618 16 6.68568 16 7.49834V8.50166C16 9.31432 15.3405 9.97382 14.5278 9.97382H14.1903C14.0809 10.3176 13.9402 10.6552 13.7746 10.9771L14.0152 11.2178C14.5997 11.7992 14.5841 12.7337 14.0152 13.3026L13.3057 14.0121C12.7369 14.581 11.8054 14.5935 11.2209 14.0121L10.9803 13.7714C10.6583 13.9371 10.3239 14.0778 9.97695 14.1871V14.5278C9.97695 15.3436 9.31745 16.0031 8.50479 16.0031ZM5.17914 12.79C5.6261 13.0557 6.10744 13.2557 6.61067 13.3839C6.81696 13.437 6.96386 13.6245 6.96386 13.8371V14.5278C6.96386 14.8216 7.20453 15.0623 7.49834 15.0623H8.50166C8.79547 15.0623 9.03614 14.8216 9.03614 14.5278V13.8371C9.03614 13.6245 9.17992 13.437 9.38933 13.3839C9.89256 13.2526 10.3739 13.0526 10.8209 12.79C11.0053 12.6806 11.2397 12.7119 11.3897 12.8619L11.8804 13.3526C12.093 13.5652 12.4306 13.5589 12.6368 13.3526L13.3464 12.6431C13.5526 12.4368 13.5589 12.0992 13.3464 11.8867L12.8556 11.396C12.7056 11.2459 12.6744 11.0115 12.7837 10.8271C13.0494 10.3802 13.2495 9.89881 13.3776 9.39559C13.4307 9.1893 13.6183 9.04239 13.8308 9.04239H14.5216C14.8154 9.04239 15.0561 8.80172 15.0561 8.50791V7.50459C15.0561 7.21078 14.8154 6.97011 14.5216 6.97011H13.8308C13.6183 6.97011 13.4307 6.82633 13.3776 6.61692C13.2463 6.11369 13.0463 5.63235 12.7837 5.18539C12.6744 5.00098 12.7056 4.76656 12.8556 4.61653L13.3464 4.12581C13.5589 3.91326 13.5526 3.5757 13.3464 3.36941L12.6368 2.65989C12.4306 2.4536 12.0899 2.44735 11.8804 2.65989L11.3897 3.15062C11.2397 3.30065 11.0021 3.3319 10.8209 3.2225C10.3739 2.95683 9.89256 2.75679 9.38933 2.62864C9.18304 2.5755 9.03614 2.38797 9.03614 2.17543V1.47216C9.03614 1.17836 8.79547 0.937683 8.50166 0.937683H7.49834C7.20453 0.937683 6.96386 1.17836 6.96386 1.47216V2.16292C6.96386 2.37546 6.82008 2.563 6.61067 2.61614C6.10744 2.74741 5.6261 2.94745 5.17914 3.21C4.99473 3.3194 4.7603 3.28814 4.61028 3.13811L4.11955 2.64739C3.90701 2.43485 3.56945 2.4411 3.36316 2.64739L2.65364 3.35691C2.44735 3.5632 2.4411 3.90076 2.65364 4.1133L3.14436 4.60402C3.29439 4.75405 3.32565 4.98847 3.21625 5.17289C2.95058 5.61985 2.75054 6.10119 2.62239 6.60442C2.56925 6.81071 2.38172 6.95761 2.16917 6.95761H1.47216C1.17836 6.95761 0.937683 7.19828 0.937683 7.49209V8.49541C0.937683 8.78922 1.17836 9.02989 1.47216 9.02989H2.16292C2.37546 9.02989 2.563 9.17367 2.61614 9.38308C2.74741 9.88631 2.94745 10.3677 3.21 10.8146C3.3194 10.999 3.28814 11.2334 3.13811 11.3835L2.64739 11.8742C2.43485 12.0867 2.4411 12.4243 2.64739 12.6306L3.35691 13.3401C3.5632 13.5464 3.90389 13.5526 4.1133 13.3401L4.60402 12.8494C4.71967 12.7494 4.95409 12.6556 5.17914 12.79ZM8.00156 11.4835C6.08244 11.4835 4.51963 9.92069 4.51963 8.00156C4.51963 6.08244 6.08244 4.51963 8.00156 4.51963C9.92069 4.51963 11.4835 6.08244 11.4835 8.00156C11.4835 9.92069 9.92069 11.4835 8.00156 11.4835ZM8.00156 5.45732C6.59816 5.45732 5.45732 6.59816 5.45732 8.00156C5.45732 9.40496 6.59816 10.5458 8.00156 10.5458C9.40496 10.5458 10.5458 9.40496 10.5458 8.00156C10.5458 6.59816 9.40496 5.45732 8.00156 5.45732Z" />
</svg>
