<svg width="19" height="19" viewBox="0 0 19 19" fill="none" xmlns="http://www.w3.org/2000/svg">
<path d="M5.25049 3.94748L6.03469 3.74414L6.1872 4.33229L5.40299 4.53563L5.25049 3.94748Z" fill="#8496C0"/>
<path d="M16.5979 7.6842L15.9881 7.5246L15.988 7.5248L16.5979 7.6842ZM16.5997 7.61291L17.2096 7.7721C17.2498 7.61809 17.2303 7.45458 17.1549 7.31437L16.5997 7.61291ZM16.5814 7.55397H15.951C15.951 7.65817 15.9768 7.76075 16.0262 7.8525L16.5814 7.55397ZM16.5814 7.54658H17.2119C17.2119 7.39992 17.1607 7.25786 17.0673 7.14485L16.5814 7.54658ZM16.5543 7.52855L16.0953 7.96055C16.1745 8.04472 16.2753 8.1055 16.3867 8.13625L16.5543 7.52855ZM11.9938 2.68237L12.453 2.25037C12.3736 2.16607 12.2726 2.10524 12.1609 2.07458L11.9938 2.68237ZM11.9668 2.65706L12.522 2.35853C12.4816 2.28338 12.4264 2.21721 12.3597 2.16403C12.293 2.11085 12.2162 2.07177 12.1339 2.04916L11.9668 2.65706ZM11.9511 2.6527L12.1182 2.0448H12.1179L11.9511 2.6527ZM11.9354 2.64835L11.7683 3.25625H11.7686L11.9354 2.64835ZM11.8725 2.63113L12.0396 2.02323H12.0393L11.8725 2.63113ZM11.8368 2.63923L12.0148 3.24399C12.069 3.22803 12.1207 3.20487 12.1687 3.17513L11.8368 2.63923ZM5.52356 4.49858L5.34543 3.89392C5.26358 3.91805 5.18748 3.95855 5.12175 4.01296C5.05601 4.06737 5.002 4.13455 4.96299 4.21045C4.92398 4.28634 4.90079 4.36937 4.89481 4.45449C4.88883 4.53961 4.9002 4.62506 4.92821 4.70566L5.52356 4.49858ZM5.50786 4.49422L5.2954 5.08774C5.31019 5.09311 5.32518 5.09787 5.34037 5.10192L5.50786 4.49432V4.49422ZM5.44315 4.5484L5.7754 5.0841C5.91283 4.99885 6.01224 4.86406 6.05307 4.70759L5.44315 4.5484ZM5.41429 4.59437L4.80437 4.43488V4.43508L5.41429 4.59437ZM5.40558 4.62789L6.0154 4.78728V4.78708L5.40558 4.62789ZM3.63535 11.4003L4.24518 11.5599V11.5597L3.63545 11.4003H3.63535ZM3.631 11.4172L3.02107 11.2576V11.2578L3.631 11.4172ZM3.64224 11.4382L3.47464 12.0459C3.56823 12.0717 3.66652 12.0756 3.76185 12.0572C3.85718 12.0388 3.94696 11.9986 4.0242 11.9398C4.10144 11.881 4.16405 11.8051 4.20714 11.7181C4.25023 11.6311 4.27264 11.5353 4.27262 11.4382H3.64224ZM3.65358 11.4593L4.2635 11.6188C4.3038 11.4647 4.28426 11.301 4.20882 11.1608L3.65358 11.4593ZM3.66492 11.4803L4.22016 11.1818C4.17972 11.1066 4.12443 11.0404 4.05764 10.9873C3.99085 10.9341 3.91395 10.895 3.83161 10.8724L3.66492 11.4803ZM3.68761 11.5226L3.13226 11.8208C3.15839 11.8694 3.19069 11.9144 3.22847 11.9545L3.68761 11.5226ZM8.24811 16.3687L7.78907 16.8007C7.88004 16.8973 7.99921 16.9628 8.12958 16.9878C8.25996 17.0128 8.39489 16.9959 8.51514 16.9397C8.6354 16.8835 8.73483 16.7907 8.79927 16.6747C8.86372 16.5586 8.88988 16.4252 8.87404 16.2934L8.24821 16.3687H8.24811ZM8.26381 16.373L8.09713 16.9809L8.09733 16.981L8.26381 16.373ZM8.27961 16.3773L8.4472 15.7697L8.44609 15.7693L8.27961 16.3773ZM8.37378 16.4032L8.54057 15.7953C8.45695 15.7723 8.36951 15.7669 8.28369 15.7793C8.19788 15.7917 8.11554 15.8216 8.04183 15.8673L8.37378 16.4032ZM8.38958 16.4075L8.55718 15.7998L8.55626 15.7995L8.38958 16.4075ZM8.40528 16.4118L8.23758 17.0195C8.35084 17.0508 8.47059 17.0498 8.5833 17.0166L8.40528 16.4118ZM14.7185 14.5526L14.8861 13.9449C14.7728 13.9136 14.6531 13.9146 14.5404 13.9478L14.7185 14.5526ZM14.7586 14.5276L15.0909 15.0633C15.1883 15.003 15.2673 14.9172 15.3196 14.8153C15.3719 14.7133 15.3954 14.5991 15.3876 14.4848L14.7586 14.5276ZM14.7787 14.5152L15.3553 14.7701C15.4097 14.6469 15.4233 14.5096 15.394 14.3782C15.3647 14.2467 15.2941 14.1281 15.1926 14.0397C15.091 13.9513 14.9638 13.8978 14.8296 13.8869C14.6954 13.876 14.5613 13.9084 14.4468 13.9793L14.7787 14.5152ZM14.7988 14.5027L15.1306 15.0387L15.1308 15.0386L14.7988 14.5027ZM14.8189 14.4903L15.1509 15.0262C15.2885 14.941 15.388 14.8061 15.4289 14.6495L14.8189 14.4903ZM16.1222 7.57199L16.2999 8.17675C16.4034 8.14638 16.4973 8.08994 16.5728 8.01284C16.6483 7.93575 16.7027 7.84058 16.7308 7.73644C16.759 7.6323 16.7599 7.52269 16.7336 7.41808C16.7072 7.31347 16.6545 7.21737 16.5804 7.13898L16.1222 7.57199ZM13.4041 8.37048L12.792 8.52146C12.8124 8.6041 12.8493 8.68175 12.9005 8.74973C12.9517 8.81772 13.0162 8.87463 13.09 8.91704C13.1638 8.95945 13.2454 8.98648 13.3299 8.9965C13.4144 9.00652 13.5001 8.99932 13.5818 8.97534L13.4041 8.37048ZM12.1775 3.39802L12.6357 2.96501C12.54 2.86382 12.4136 2.79714 12.2761 2.77537C12.1386 2.75359 11.9977 2.77795 11.8755 2.84464C11.7533 2.91133 11.6566 3.0166 11.6005 3.14402C11.5445 3.27144 11.5321 3.41384 11.5655 3.54901L12.1775 3.39812V3.39802ZM11.7887 3.14637L12.401 2.99691C12.3741 2.88672 12.318 2.78582 12.2386 2.70486C12.1592 2.62389 12.0594 2.56586 11.9497 2.53687C11.8401 2.50788 11.7246 2.50901 11.6156 2.54014C11.5065 2.57128 11.4079 2.63126 11.33 2.71377L11.7887 3.14637ZM13.0569 8.34587L12.8898 8.95377C12.9957 8.98289 13.1073 8.98385 13.2137 8.95655C13.3201 8.92925 13.4174 8.87463 13.4962 8.79812C13.575 8.7216 13.6324 8.62584 13.6627 8.52032C13.6931 8.41479 13.6953 8.30317 13.6693 8.1965L13.0569 8.34587ZM8.15424 6.99923L7.69571 6.56663C7.62108 6.64575 7.5682 6.74283 7.54219 6.84844C7.51619 6.95404 7.51795 7.06458 7.54731 7.16931C7.57666 7.27403 7.63261 7.36938 7.70972 7.44608C7.78683 7.52278 7.88247 7.57823 7.98735 7.60703L8.15424 6.99923ZM11.3288 3.16359L11.7862 3.59741C11.8816 3.49689 11.9413 3.36773 11.9559 3.22991C11.9705 3.09209 11.9393 2.95329 11.8671 2.835C11.7949 2.7167 11.6857 2.6255 11.5564 2.57551C11.4272 2.52551 11.285 2.51951 11.152 2.55842L11.3288 3.16359ZM7.84123 6.84116L7.38249 7.27356C7.44131 7.33599 7.51226 7.38576 7.59098 7.41981C7.6697 7.45387 7.75454 7.47151 7.84031 7.47164C7.92609 7.47177 8.01098 7.4544 8.08981 7.42059C8.16864 7.38677 8.23973 7.33723 8.29875 7.27498L7.84123 6.84116ZM5.87697 4.7564L5.70016 4.15123C5.59661 4.18148 5.50255 4.23779 5.42698 4.31478C5.35141 4.39178 5.29687 4.48687 5.26857 4.59098C5.24027 4.69508 5.23916 4.8047 5.26535 4.90936C5.29154 5.01401 5.34414 5.1102 5.41814 5.1887L5.87687 4.7563L5.87697 4.7564ZM5.64153 5.01604L6.10026 4.58374C6.02306 4.50182 5.92533 4.44206 5.81723 4.41068C5.70912 4.3793 5.59458 4.37744 5.48552 4.40529C5.37645 4.43315 5.27683 4.4897 5.19701 4.56907C5.11719 4.64844 5.06007 4.74774 5.03161 4.85665L5.64153 5.01604ZM7.60599 7.1009L8.06462 7.53331C8.1749 7.41635 8.23633 7.26168 8.23635 7.10093C8.23637 6.94017 8.17497 6.78549 8.06472 6.6685L7.60599 7.1009ZM4.13419 10.7827L3.52426 10.6233C3.48884 10.7588 3.49953 10.9022 3.55465 11.031C3.60978 11.1597 3.70619 11.2664 3.82869 11.3342C3.95118 11.4021 4.09278 11.4272 4.23115 11.4057C4.36951 11.3841 4.49676 11.3171 4.59282 11.2152L4.13409 10.7828L4.13419 10.7827ZM7.75545 7.42982L8.36791 7.28035C8.34103 7.17016 8.28492 7.06927 8.20549 6.9883C8.12606 6.90734 8.02626 6.8493 7.91661 6.82031C7.80696 6.79132 7.69152 6.79245 7.58245 6.82359C7.47339 6.85472 7.37475 6.9147 7.29692 6.99721L7.75556 7.42972L7.75545 7.42982ZM9.02381 12.6292L8.85692 13.2371C8.96278 13.2661 9.07439 13.267 9.1807 13.2397C9.28701 13.2124 9.38434 13.1578 9.46307 13.0813C9.54179 13.0048 9.59918 12.909 9.62956 12.8036C9.65994 12.6981 9.66225 12.5865 9.63626 12.4798L9.02381 12.6292ZM4.12113 11.2826L3.66259 10.8501C3.58797 10.9292 3.53508 11.0263 3.50908 11.1319C3.48307 11.2375 3.48483 11.348 3.51419 11.4527C3.54355 11.5575 3.5995 11.6528 3.67661 11.7295C3.75372 11.8062 3.84936 11.8617 3.95424 11.8905L4.12113 11.2826ZM8.29186 15.8786L7.83363 16.3116C7.91092 16.3934 8.00866 16.4529 8.11672 16.4842C8.22478 16.5154 8.33923 16.5171 8.4482 16.4892C8.55716 16.4613 8.65667 16.4047 8.73641 16.3254C8.81615 16.2461 8.87321 16.1468 8.90168 16.038L8.29186 15.8786ZM4.34715 11.7048L4.51424 11.0969C4.38155 11.0604 4.24057 11.0683 4.11281 11.1194C3.98504 11.1706 3.87753 11.2621 3.80667 11.3801C3.73581 11.4981 3.7055 11.636 3.72037 11.7728C3.73524 11.9096 3.79448 12.0378 3.88902 12.1378L4.34715 11.7048ZM9.04548 12.9953L9.6554 13.1547C9.69734 12.9942 9.67437 12.8237 9.59146 12.6801C9.50855 12.5365 9.37238 12.4313 9.21247 12.3874L9.04548 12.9953ZM9.33409 12.5338L8.72173 12.6833C8.74864 12.7936 8.80486 12.8946 8.88444 12.9757C8.96403 13.0567 9.06402 13.1147 9.17386 13.1436C9.2837 13.1725 9.39931 13.1712 9.50845 13.1397C9.6176 13.1083 9.71623 13.048 9.79393 12.9652L9.33409 12.5338ZM8.06604 7.33432L8.23292 6.72642C8.12706 6.69736 8.01544 6.69644 7.90912 6.72376C7.80279 6.75108 7.70544 6.8057 7.62671 6.8822C7.54797 6.9587 7.49058 7.05444 7.46022 7.15994C7.42985 7.26544 7.42757 7.37704 7.45358 7.48369L8.06604 7.33432ZM12.9528 8.6768L13.4126 9.1081C13.4869 9.02888 13.5395 8.9318 13.5652 8.82627C13.591 8.72075 13.589 8.61035 13.5596 8.5058C13.5301 8.40125 13.4741 8.30609 13.3971 8.22954C13.32 8.153 13.2245 8.09766 13.1197 8.06891L12.9528 8.6768ZM8.60599 15.9637L7.99606 15.8042C7.96788 15.9121 7.96883 16.0255 7.99879 16.1329C8.02876 16.2404 8.08669 16.3379 8.16665 16.4156C8.24662 16.4934 8.34577 16.5485 8.454 16.5754C8.56222 16.6023 8.67564 16.6 8.78269 16.5688L8.60599 15.9637ZM9.35961 13.0803L9.52659 12.4724C9.44613 12.4503 9.36208 12.4444 9.27932 12.455C9.19655 12.4657 9.11672 12.4926 9.04445 12.5343C8.97218 12.576 8.90891 12.6317 8.85831 12.698C8.80771 12.7644 8.77079 12.8401 8.74968 12.9209L9.35961 13.0803ZM14.0579 14.3709L14.2347 14.9759C14.3665 14.9375 14.482 14.8571 14.5639 14.7469C14.6458 14.6368 14.6895 14.503 14.6883 14.3657C14.6872 14.2285 14.6414 14.0954 14.5577 13.9866C14.4741 13.8778 14.3572 13.7993 14.2249 13.763L14.0579 14.3709ZM9.55788 12.7754L9.09935 12.3428C9.02473 12.422 8.97185 12.519 8.94585 12.6247C8.91985 12.7303 8.92161 12.8408 8.95096 12.9455C8.98032 13.0503 9.03627 13.1456 9.11337 13.2223C9.19048 13.2991 9.28612 13.3545 9.391 13.3833L9.55788 12.7754ZM13.1922 8.92258L13.8047 8.77321C13.7778 8.66303 13.7217 8.56215 13.6422 8.4812C13.5628 8.40024 13.463 8.34221 13.3534 8.31321C13.2437 8.28422 13.1283 8.28533 13.0192 8.31644C12.9102 8.34755 12.8115 8.40749 12.7337 8.48997L13.1922 8.92258ZM14.4605 14.1221L14.2936 14.73C14.3994 14.759 14.5111 14.76 14.6174 14.7326C14.7237 14.7053 14.8211 14.6507 14.8998 14.5742C14.9785 14.4977 15.0359 14.4019 15.0663 14.2965C15.0967 14.191 15.0989 14.0794 15.0729 13.9727L14.4605 14.1221ZM14.6927 13.6842L14.0802 13.8335C14.1134 13.9698 14.1912 14.0912 14.3012 14.1783C14.4112 14.2655 14.5471 14.3135 14.6875 14.3146C14.8278 14.3158 14.9645 14.2701 15.0759 14.1848C15.1874 14.0994 15.2671 13.9794 15.3026 13.8436L14.6927 13.6842ZM13.4818 8.71609L13.3042 8.11123C13.1487 8.15691 13.0167 8.26074 12.9358 8.40115C12.8548 8.54157 12.831 8.70777 12.8694 8.86526L13.4818 8.71609ZM16.2 7.91741L16.8099 8.07691C16.8381 7.96893 16.8371 7.85541 16.8071 7.74794C16.777 7.64046 16.719 7.54289 16.6389 7.46518C16.5588 7.38747 16.4595 7.33241 16.3512 7.30561C16.2429 7.27881 16.1294 7.28124 16.0223 7.31265L16.2 7.91741ZM17.2077 7.84399C17.2305 7.75724 17.2372 7.66704 17.2276 7.57787L17.2263 7.56693L17.226 7.5643V7.56389L17.2266 7.56997L17.228 7.58637C17.2318 7.6489 17.2256 7.71153 17.2096 7.7721L15.9898 7.45372C15.9717 7.52312 15.9649 7.59501 15.9697 7.66658C15.9708 7.6847 15.9726 7.69949 15.9731 7.70425L15.9735 7.70779L15.9737 7.70941L15.9734 7.70688C15.9675 7.64576 15.9725 7.58399 15.9881 7.5246L17.2077 7.84399ZM17.1549 7.31437C17.1799 7.36081 17.1981 7.41056 17.209 7.46212L17.2105 7.46951C17.2063 7.44589 17.201 7.42247 17.1945 7.39934C17.1806 7.34941 17.1612 7.30119 17.1366 7.25554L16.0262 7.8525C16.0013 7.8061 15.983 7.75649 15.9721 7.70496L15.9705 7.69746L15.9748 7.71913C15.9885 7.78632 16.012 7.85115 16.0445 7.91154L17.1549 7.31437ZM17.2119 7.55407V7.54658L15.951 7.54668V7.55397L17.2119 7.55407ZM16.5814 7.54658C17.0673 7.14485 17.0671 7.14486 17.067 7.14465L17.0667 7.14445L17.0663 7.14394L17.0655 7.14293L17.0638 7.14091C17.0626 7.13947 17.0614 7.13802 17.0602 7.13655L17.0521 7.12734C17.0285 7.10085 17.0029 7.07621 16.9756 7.05361C16.9014 6.99202 16.815 6.94682 16.722 6.92096L16.3867 8.13625C16.3081 8.11471 16.2349 8.07684 16.172 8.02496C16.1454 8.00311 16.121 7.97884 16.0989 7.95245L16.0973 7.95042L16.0964 7.94941C16.0963 7.94922 16.0962 7.94905 16.096 7.9489L16.0958 7.9487C16.0957 7.9485 16.0956 7.9483 16.5814 7.54658ZM17.0135 7.09665L12.453 2.25037L11.5348 3.11447L16.0953 7.96055L17.0135 7.09665ZM12.1609 2.07458C12.2622 2.10242 12.3334 2.15012 12.3737 2.18192C12.423 2.22093 12.4656 2.2678 12.4998 2.32065C12.5068 2.33159 12.5134 2.34277 12.5197 2.35417L12.5209 2.3564C12.5211 2.35674 12.5213 2.35708 12.5215 2.35741L12.5217 2.35802L12.5219 2.35822C12.5219 2.35842 12.522 2.35863 11.9668 2.65706C11.4116 2.95559 11.4117 2.95569 11.4118 2.95579L11.4119 2.95609L11.4122 2.9566L11.4128 2.95761L11.414 2.95994L11.4166 2.9647C11.4233 2.97674 11.4304 2.98856 11.4379 3.00015C11.4492 3.01787 11.4659 3.04237 11.4883 3.06951C11.5758 3.17615 11.694 3.25323 11.8268 3.29027L12.1609 2.07458ZM12.1339 2.04926L12.1182 2.0448L11.784 3.2606L11.7998 3.26485L12.1339 2.04916V2.04926ZM12.1179 2.0448L12.1022 2.04045L11.7686 3.25625L11.7843 3.2606L12.1179 2.0449V2.0448ZM12.1024 2.04055L12.0867 2.0362L12.071 2.03194L11.7369 3.24764L11.7526 3.25199L11.7683 3.25625L12.1024 2.04055ZM12.071 2.03194L12.0553 2.02759L11.7212 3.24328L11.7369 3.24764L12.071 2.03194ZM12.0553 2.02759L12.0396 2.02323L11.7055 3.23903L11.7212 3.24328L12.0553 2.02759ZM12.0393 2.02323C11.9046 1.9868 11.7618 1.99335 11.631 2.04197C11.5873 2.05806 11.5454 2.07841 11.5057 2.10273L11.5052 2.10313L11.5049 2.10323C11.5048 2.10334 11.5046 2.10344 11.8368 2.63923C11.9478 2.81762 12.0584 2.99629 12.1685 3.17523L12.1683 3.17544L12.1677 3.17574C12.1674 3.17598 12.167 3.17622 12.1667 3.17645L12.1645 3.17777C12.1531 3.18481 12.1414 3.19139 12.1294 3.19751C12.0719 3.22696 12.0098 3.24647 11.9457 3.25523C11.8655 3.2661 11.7838 3.26058 11.7057 3.23903L12.0393 2.02323ZM11.6585 2.03458L5.34543 3.89392L5.70168 5.10334L12.0148 3.24399L11.6587 2.03458H11.6585ZM5.52356 4.49858C4.92811 4.70566 5.06259 4.0686 5.68872 3.89017L5.68994 3.89047C5.69014 3.89054 5.69034 3.89061 5.69054 3.89068H5.69075L5.69095 3.89078L5.68913 3.89027L5.67535 3.88653L5.34047 5.10202L5.35424 5.10577L5.35596 5.10627H5.35626L5.35637 5.10637H5.35657L5.35677 5.10647L5.35738 5.10668L5.35849 5.10698C5.98462 4.92855 6.119 4.29149 5.52356 4.49858ZM5.50786 4.49422C5.72011 3.9007 5.44285 3.86718 5.17824 3.95701L5.17692 3.95772L5.17632 3.95812L5.17591 3.95832L5.17581 3.95842L5.17571 3.95853L5.1753 3.95873L5.17318 3.96015L5.15556 3.97098L5.82016 5.04237L5.83768 5.03154L5.83981 5.03012L5.8395 5.03032C5.83892 5.03076 5.83831 5.03117 5.83768 5.03154C5.57297 5.12126 5.2955 5.08784 5.50786 4.49422ZM5.15556 3.97098C5.15556 3.97098 5.10431 4.00136 5.0553 4.04237C4.94701 4.13201 4.8694 4.25323 4.83333 4.38911L6.05307 4.70759C6.02288 4.82544 5.95687 4.93097 5.86401 5.00956C5.8312 5.03691 5.80001 5.05483 5.82006 5.04237L5.15545 3.97098H5.15556ZM5.111 4.0127C4.86118 4.16764 4.80973 4.41493 4.80447 4.43498L6.02431 4.75377C6.02928 4.73473 6.01561 4.79772 5.97986 4.86516C5.93225 4.95488 5.86174 5.03042 5.7755 5.0841L5.111 4.0127ZM4.80447 4.43498L4.80011 4.45189L6.01996 4.77027L6.02431 4.75356L4.80447 4.43498ZM4.80011 4.45189L4.79566 4.4687L6.01561 4.78708L6.01996 4.77027L4.80001 4.45199L4.80011 4.45189ZM4.79576 4.4684L3.04295 11.174L4.2628 11.4928L6.0154 4.78728L4.79566 4.4686L4.79576 4.4684ZM3.04295 11.174L3.02978 11.2242L4.24963 11.5432L4.2628 11.4928L3.04295 11.174ZM3.02978 11.2242L3.02543 11.2411L4.24528 11.5598L4.24963 11.5432L3.02978 11.2242ZM3.02553 11.2409L3.02107 11.2578L4.24082 11.5769L4.24518 11.5601L3.02553 11.2409ZM3.631 11.4172C3.02107 11.2577 3.02097 11.2581 3.02077 11.2583L3.02067 11.2589L3.02037 11.26C3.01887 11.2657 3.01748 11.2714 3.01621 11.2772C2.99422 11.3739 2.99461 11.4744 3.01735 11.5709C3.0401 11.6674 3.0846 11.7575 3.14745 11.8342C3.2321 11.9367 3.34643 12.0107 3.47464 12.0459L3.80973 10.8305C3.92101 10.8614 4.02136 10.9229 4.09931 11.0081C4.17726 11.0933 4.22967 11.1987 4.25054 11.3122C4.26643 11.3984 4.2635 11.487 4.24194 11.572L4.24133 11.5742C4.24122 11.5746 4.24112 11.575 4.24102 11.5753L4.24092 11.5759C4.24092 11.5762 4.24082 11.5764 3.631 11.4172ZM3.64224 11.4383C4.27262 11.4383 3.79788 12.0492 3.08872 11.74L3.08791 11.7384C3.08778 11.7381 3.08764 11.7379 3.08751 11.7377L3.0873 11.7373L3.0872 11.7371C3.0872 11.737 3.0872 11.737 3.0872 11.7371L3.0873 11.7373L3.08852 11.7395L3.09844 11.7579L4.20882 11.1608L4.1989 11.1424L4.19768 11.1401L4.19748 11.1398V11.1396L4.19728 11.1394L4.19707 11.139L4.19667 11.1383L4.19586 11.1367C3.48659 10.8274 3.01186 11.4383 3.64224 11.4383ZM3.65358 11.4594C3.04376 11.2999 3.04366 11.3002 3.04356 11.3005L3.04345 11.3011L3.04315 11.3021C3.03982 11.3153 3.03685 11.3285 3.03424 11.3418C3.01907 11.4212 3.01876 11.5027 3.03333 11.5821C3.05526 11.7017 3.11054 11.8127 3.19279 11.9023C3.27504 11.9919 3.38092 12.0564 3.49824 12.0884L3.83161 10.8724C3.94311 10.9031 4.04371 10.9647 4.12186 11.05C4.20001 11.1353 4.25254 11.2408 4.27343 11.3546C4.28943 11.4416 4.28625 11.531 4.26411 11.6167L4.26381 11.6177L4.26361 11.6183C4.26361 11.6186 4.2635 11.6189 3.65358 11.4594ZM3.10978 11.7791C3.12092 11.8 3.12092 11.7998 3.13226 11.8208L4.24295 11.2244L4.22016 11.1818L3.10978 11.7791ZM3.22857 11.9547L7.78907 16.8008L8.70715 15.9368L4.14664 11.0907L3.22857 11.9547ZM8.24811 16.3687C8.87394 16.2935 8.66533 16.8413 8.09591 16.9804L8.08862 16.9786C8.08678 16.9781 8.08496 16.9776 8.08315 16.9771L8.08224 16.9769L8.08183 16.9768L8.08163 16.9767L8.08335 16.9772L8.09713 16.9809L8.43059 15.765L8.41682 15.7613L8.415 15.7608L8.41469 15.7607H8.41449L8.41399 15.7606L8.41307 15.7602C8.41246 15.7601 8.41185 15.76 8.41125 15.7597L8.40771 15.7588L8.40042 15.7569C7.831 15.896 7.62219 16.4438 8.24811 16.3687ZM8.09733 16.981L8.11302 16.9853L8.44609 15.7693L8.43039 15.765L8.09733 16.981ZM8.11191 16.985C8.03938 16.965 7.97126 16.9316 7.9111 16.8864C7.89915 16.8774 7.88756 16.8679 7.87637 16.858C7.8709 16.8531 7.86664 16.8491 7.86938 16.8517C7.87009 16.8523 7.87778 16.8596 7.88659 16.8675C7.92632 16.903 7.97002 16.9338 8.01682 16.9592C8.05328 16.9789 8.09966 16.9996 8.15556 17.0149L8.48902 15.799C8.56178 15.819 8.63013 15.8525 8.69054 15.8977C8.70715 15.9102 8.7194 15.9209 8.72538 15.9262C8.73085 15.9311 8.7352 15.9352 8.73247 15.9326C8.73186 15.9321 8.72416 15.9248 8.71535 15.9169C8.67589 15.8814 8.63238 15.8507 8.58573 15.8255C8.54186 15.8016 8.49537 15.7829 8.4472 15.7697L8.11191 16.985ZM8.15556 17.0149C8.15596 17.015 8.17996 17.0219 8.20781 17.0276C8.37902 17.0632 8.55738 17.0315 8.70583 16.9391L8.04183 15.8673C8.13484 15.81 8.24209 15.7801 8.3513 15.781C8.43859 15.7817 8.50938 15.8046 8.48902 15.799L8.15556 17.0149ZM8.2072 17.0112L8.2228 17.0154L8.55626 15.7995L8.54057 15.7953L8.2072 17.0112ZM8.22188 17.0152L8.23758 17.0195L8.57287 15.8042L8.55718 15.7998L8.22188 17.0152ZM8.5833 17.0166L14.8965 15.1572L14.5404 13.9478L8.22715 15.8071L8.5833 17.0166ZM14.5508 15.1601C14.6859 15.1976 14.8294 15.19 14.9598 15.1386C15.0765 15.0926 15.1498 15.0233 15.1675 15.0068L15.1818 14.9931L15.1872 14.9877L15.1767 14.9977C15.1504 15.0224 15.1216 15.0443 15.0909 15.0633L14.4263 13.9919C14.3753 14.0235 14.3381 14.0557 14.3155 14.077C14.305 14.0867 14.2967 14.0951 14.2953 14.0966C14.2912 14.1006 14.2982 14.0935 14.3063 14.0859C14.3184 14.0746 14.3864 14.0095 14.4972 13.9658C14.6212 13.9169 14.7576 13.9095 14.8861 13.9449L14.5508 15.1601ZM14.7586 14.5276C15.3876 14.4848 15.3223 14.8098 15.1014 15.0568L15.096 15.0601C15.0945 15.0612 15.0929 15.0622 15.0913 15.0631L15.0909 15.0633L15.0932 15.0619L15.1107 15.0511L14.4468 13.9793L14.4292 13.9902L14.4269 13.9915C14.4268 13.9916 14.4267 13.9917 14.4265 13.9918L14.4263 13.9919L14.426 13.9921C14.4258 13.9922 14.4255 13.9924 14.4253 13.9926L14.4239 13.9934C14.4213 13.9952 14.4186 13.9969 14.4159 13.9985C14.1949 14.2455 14.1297 14.5704 14.7586 14.5276ZM14.7787 14.5152C14.2021 14.2604 14.3611 14.9874 15.1021 15.0563L15.1063 15.0537L15.1085 15.0524L15.1095 15.0518C15.1097 15.0517 15.1098 15.0516 15.11 15.0515L15.1103 15.0513L15.1105 15.0512L15.1108 15.051C15.1115 15.0505 15.1123 15.0501 15.113 15.0497L15.1306 15.0387L14.467 13.9667L14.4495 13.9776L14.4473 13.9789L14.4472 13.979L14.4475 13.9789L14.448 13.9785L14.449 13.9779L14.4512 13.9766L14.4554 13.974C15.1964 14.043 15.3554 14.77 14.7787 14.5152ZM15.1308 15.0386L15.1509 15.0262L14.487 13.9544L14.4668 13.9668L15.1308 15.0386ZM15.4289 14.6495L15.4332 14.6328L14.2134 14.3143L14.209 14.3311L15.4289 14.6495ZM15.4332 14.6328L15.4377 14.6159L14.2177 14.2975L14.2134 14.3143L15.4332 14.6328ZM15.4377 14.6159L15.4507 14.5659L14.231 14.247L14.2177 14.2975L15.4377 14.6159ZM15.4507 14.5659L17.2078 7.84369L15.988 7.5248L14.231 14.247L15.4507 14.5659ZM15.9445 6.96713L13.2263 7.76572L13.5818 8.97534L16.2999 8.17675L15.9445 6.96713ZM14.0161 8.21949L12.7896 3.24703L11.5655 3.54901L12.792 8.52146L14.0161 8.21949ZM11.7194 3.83103L15.664 8.00491L16.5804 7.13898L12.6357 2.96501L11.7194 3.83103ZM11.1762 3.29574L12.4445 8.49523L13.6693 8.1965L12.4011 2.9968L11.1762 3.29554V3.29574ZM13.2238 7.73797L8.32123 6.39134L7.98735 7.60703L12.8899 8.95377L13.2238 7.73797ZM8.61287 7.43174L12.2471 3.57888L11.33 2.71377L7.69571 6.56663L8.61287 7.43174ZM10.8714 2.72977L7.38381 6.40744L8.29875 7.27498L11.7862 3.59731L10.8714 2.72977ZM8.30006 6.40875L6.33561 4.3242L5.41814 5.1887L7.38249 7.27356L8.30006 6.40896V6.40875ZM6.05368 5.36156L11.5057 3.76875L11.1521 2.55863L5.70016 4.15123L6.05358 5.36146L6.05368 5.36156ZM5.1828 5.44855L7.14735 7.53331L8.06482 6.6687L6.10026 4.58374L5.1828 5.44855ZM7.14735 6.6685L3.67566 10.3503L4.59292 11.2151L8.06472 7.53331L7.14745 6.6684L7.14735 6.6685ZM4.74421 10.9421L6.25145 5.17554L5.03161 4.85665L3.52426 10.6233L4.74411 10.9421H4.74421ZM7.1432 7.57908L8.41135 12.7786L9.63626 12.4798L8.36791 7.28035L7.1432 7.57908ZM9.1908 12.0214L4.28811 10.6747L3.95414 11.8905L8.85672 13.2371L9.1908 12.0214ZM4.57986 11.7152L8.21419 7.86232L7.29692 6.99721L3.66249 10.85L4.57976 11.7151L4.57986 11.7152ZM8.75009 15.4456L4.80538 11.2717L3.88902 12.1378L7.83363 16.3116L8.75009 15.4456ZM4.18026 12.3127L8.87859 13.6032L9.21247 12.3874L4.51424 11.0969L4.18026 12.3127ZM8.43566 12.8359L7.68204 15.7192L8.90168 16.038L9.6554 13.1547L8.43566 12.8359ZM9.94664 12.3844L8.67849 7.18496L7.45358 7.48369L8.72173 12.6833L9.94664 12.3844ZM7.89905 7.94222L12.7858 9.2846L13.1197 8.06891L8.23292 6.72642L7.89905 7.94222ZM12.4932 8.24541L8.87454 12.1025L9.79393 12.9652L13.4127 9.10799L12.4932 8.24541ZM9.21581 16.1229L9.96953 13.2395L8.74968 12.9207L7.99606 15.804L9.21581 16.1229ZM9.19262 13.6879L13.8909 14.9785L14.2249 13.7628L9.52659 12.4722L9.19262 13.6879ZM13.8811 13.7655L8.42918 15.3583L8.78269 16.5686L14.2347 14.9757L13.8811 13.7655ZM10.0165 13.2077L13.6508 9.35488L12.7337 8.48977L9.09925 12.3426L10.0164 13.2077H10.0165ZM12.5799 9.07174L13.8481 14.2712L15.0729 13.9725L13.8047 8.77301L12.5799 9.07174ZM14.6275 13.514L9.72487 12.1674L9.3909 13.3832L14.2936 14.73L14.6275 13.514ZM15.3051 13.5347L14.0944 8.56663L12.8694 8.86506L14.0802 13.8333L15.3051 13.5347ZM13.6596 9.32065L16.3777 8.52207L16.0223 7.31245L13.3042 8.11103L13.6596 9.32065ZM15.5901 7.75782L14.0828 13.5245L15.3026 13.8434L16.8099 8.0767L15.5901 7.75782Z" fill="#8496C0"/>
<circle cx="13.9212" cy="14.2547" r="2.33333" fill="white"/>
<path fill-rule="evenodd" clip-rule="evenodd" d="M13.9571 17.8242C12.1644 17.8242 10.7144 16.2836 10.7144 14.3788C10.7144 12.474 12.1645 10.9333 13.9571 10.9333C15.7499 10.9333 17.1998 12.474 17.1998 14.3788C17.1998 16.2836 15.7499 17.8242 13.9571 17.8242ZM15.2849 13.9558C15.4509 13.7794 15.4509 13.4855 15.2849 13.2971C15.1077 13.1088 14.8309 13.1088 14.6546 13.2971L13.5365 14.473L13.2486 14.1671C13.0827 13.9908 12.806 13.9908 12.6288 14.1671C12.4627 14.3435 12.4627 14.6375 12.6288 14.8258L13.2374 15.4725C13.2763 15.5142 13.3235 15.5475 13.3758 15.5703C13.4282 15.5931 13.4847 15.6048 13.5417 15.6048C13.5988 15.6048 13.6553 15.5931 13.7077 15.5703C13.76 15.5475 13.8072 15.5142 13.8461 15.4725L14.1669 15.1317L15.2849 13.9558Z" fill="#0FB774"/>
</svg>
