<svg  viewBox="0 0 36 36" fill="none" xmlns="http://www.w3.org/2000/svg">
<path d="M22.8649 21.5191L22.9268 21.5734L22.9919 21.5232C24.3461 20.4795 26.041 19.8578 27.8789 19.8578C32.3017 19.8578 35.9 23.4561 35.9 27.8789C35.9 32.3017 32.3017 35.9 27.8789 35.9C26.1986 35.9 24.6378 35.3803 23.3476 34.4937L23.1909 34.386V34.5761V34.9453C23.1909 35.4726 22.7635 35.9 22.2363 35.9H1.05469C0.527447 35.9 0.1 35.4726 0.1 34.9453V22.2363C0.1 21.7091 0.527447 21.2816 1.05469 21.2816H4.96919H5.28561L5.02666 21.0998C2.04953 19.0092 0.10007 15.5508 0.10007 11.6455C0.10007 5.27938 5.27945 0.1 11.6455 0.1C18.0116 0.1 23.1909 5.27938 23.1909 11.6454C23.1909 15.5508 21.2415 19.0091 18.2644 21.0997L18.0054 21.2816H18.3218H22.2363C22.4772 21.2816 22.6966 21.3714 22.8649 21.5191ZM19.9538 29.7543H20.0787L20.0514 29.6325C19.925 29.0678 19.8578 28.4811 19.8578 27.8789C19.8578 27.7628 19.8609 27.6472 19.8658 27.5316L19.8703 27.4273H19.7659H2.10938H2.00938V27.5273V29.6543V29.7543H2.10938H19.9538ZM2.10938 23.191H2.00938V23.291V25.418V25.518H2.10938H20.1393H20.2124L20.2346 25.4483C20.4751 24.694 20.8244 23.9876 21.264 23.3479L21.2816 23.3223V23.2912V23.291V23.191H21.1816H2.10938ZM2.00938 33.8906V33.9906H2.10938H21.1816H21.2816V33.8906V32.4667V32.4356L21.264 32.41C21.1103 32.1863 20.9675 31.9547 20.8367 31.7157L20.8082 31.6637H20.7489H2.10938H2.00938V31.7637V33.8906ZM11.6455 2.00938C6.3321 2.00938 2.00945 6.33203 2.00945 11.6455C2.00945 16.9589 6.3321 21.2816 11.6455 21.2816C16.9589 21.2816 21.2816 16.959 21.2816 11.6455C21.2816 6.33203 16.9589 2.00938 11.6455 2.00938ZM21.7672 27.8789C21.7672 31.249 24.5088 33.9906 27.8789 33.9906C31.249 33.9906 33.9906 31.249 33.9906 27.8789C33.9906 24.5088 31.249 21.7672 27.8789 21.7672C24.5088 21.7672 21.7672 24.5088 21.7672 27.8789Z" fill="white" stroke="#6A4BFF" stroke-width="0.2"/>
<path d="M29.322 25.0857C29.687 24.7207 30.3071 24.7206 30.6721 25.0857C31.0359 25.4495 31.0358 26.0721 30.6721 26.4358L26.4358 30.6721C26.0708 31.0371 25.4508 31.0372 25.0857 30.6721C24.722 30.3084 24.722 29.6858 25.0857 29.322C25.0857 29.322 25.0857 29.322 25.0857 29.322L29.322 25.0857Z" fill="white" stroke="#6A4BFF" stroke-width="0.2"/>
<path d="M24.8059 25.7563L24.8059 25.7563C24.7832 25.2505 25.2589 24.8061 25.7607 24.8061C26.2917 24.8061 26.6919 25.2402 26.7155 25.7652C26.7381 26.271 26.2625 26.7154 25.7607 26.7154C25.2297 26.7154 24.8294 26.2813 24.8059 25.7563Z" fill="white" stroke="#6A4BFF" stroke-width="0.2"/>
<path d="M29.0422 29.9926L29.0422 29.9926C29.0196 29.4868 29.4952 29.0424 29.997 29.0424C30.528 29.0424 30.9283 29.4765 30.9518 30.0015C30.9745 30.5073 30.4988 30.9518 29.997 30.9518C29.466 30.9518 29.0657 30.5176 29.0422 29.9926Z" fill="white" stroke="#6A4BFF" stroke-width="0.2"/>
<path d="M12.6002 16.6848L12.6669 16.6613C13.8608 16.2391 14.7184 15.0996 14.7184 13.7636C14.7184 12.0693 13.3398 10.6907 11.6455 10.6907C11.3349 10.6907 11.0424 10.5696 10.8228 10.35L12.6002 16.6848ZM12.6002 16.6848V16.7555V18C12.6002 18.5272 12.1727 18.9547 11.6455 18.9547C11.1183 18.9547 10.6908 18.5272 10.6908 18V16.9365V16.8365H10.5908H9.52734C9.0001 16.8365 8.57266 16.409 8.57266 15.8818C8.57266 15.3545 9.0001 14.9271 9.52734 14.9271H11.6455C12.2871 14.9271 12.809 14.4052 12.809 13.7636C12.809 13.122 12.2871 12.6001 11.6455 12.6001C10.8246 12.6002 10.0533 12.2807 9.47268 11.7002C8.8921 11.1196 8.57266 10.3483 8.57266 9.52734C8.57266 8.19137 9.43021 7.05185 10.6242 6.62969L10.6908 6.60611V6.53541V5.29102C10.6908 4.76378 11.1183 4.33633 11.6455 4.33633C12.1727 4.33633 12.6002 4.76378 12.6002 5.29102V6.35449V6.45449H12.7002H13.7637C14.2909 6.45449 14.7184 6.88194 14.7184 7.40918C14.7184 7.93642 14.2909 8.36387 13.7637 8.36387H11.6462H11.6455H11.6452H11.6451C11.0037 8.36402 10.482 8.88579 10.482 9.52727C10.482 9.83785 10.6032 10.1304 10.8228 10.35L12.6002 16.6848Z" fill="white" stroke="#6A4BFF" stroke-width="0.2"/>
</svg>
