<svg  viewBox="0 0 23 23" fill="#EEF2FC" xmlns="http://www.w3.org/2000/svg">
<path d="M22.5773 8.18749C22.3145 7.89247 21.9553 7.70059 21.5639 7.64611V7.64529L15.4512 6.8009L13.0323 1.0209C12.6791 0.174872 11.7069 -0.224633 10.8609 0.128573C10.4576 0.296971 10.137 0.617595 9.96861 1.0209L7.54969 6.8009L1.43703 7.64529C0.526321 7.77206 -0.1092 8.61318 0.0175676 9.52389C0.0720477 9.91527 0.263931 10.2745 0.558952 10.5374L5.1644 14.6442L4.21812 21.0886C4.11561 21.743 4.41616 22.395 4.98036 22.7421C5.53662 23.0978 6.25213 23.0845 6.79476 22.7084L11.5004 19.5083L16.2061 22.7116C16.9654 23.227 17.9987 23.0292 18.5141 22.2699C18.7483 21.9249 18.8442 21.5044 18.7827 21.0919L17.8365 14.645L22.442 10.5381C23.1285 9.92643 23.1891 8.87398 22.5773 8.18749ZM16.4122 13.7168C16.2062 13.9009 16.1065 14.1762 16.1469 14.4495L17.1326 21.3491L11.9645 17.8352C11.6859 17.6459 11.3199 17.6459 11.0413 17.8352L5.8428 21.3277L6.85391 14.4463C6.89318 14.1741 6.79356 13.9003 6.58858 13.7169L1.66035 9.27488L8.23791 8.36725C8.5259 8.32754 8.7714 8.13855 8.88349 7.87033L11.5102 1.64271C11.5132 1.64636 11.5154 1.65055 11.5168 1.65503L14.1165 7.86706C14.2286 8.13528 14.4741 8.32427 14.762 8.36398L21.3478 9.31184L16.4122 13.7168Z" />
</svg>
