<svg  viewBox="0 0 46 46" fill="#0FB774" xmlns="http://www.w3.org/2000/svg">
<path d="M44.6852 6.2888C44.0085 5.61093 42.9105 5.60976 42.2338 6.28593L21.4356 27.0292L13.9316 18.8792C13.2832 18.1754 12.187 18.1298 11.482 18.7781C10.7775 19.4265 10.7324 20.5233 11.3808 21.2278L20.107 30.7046C20.4265 31.0519 20.8738 31.2536 21.3454 31.2634C21.358 31.2639 21.3703 31.2639 21.3824 31.2639C21.8407 31.2639 22.2815 31.0819 22.6063 30.7583L44.6818 8.74073C45.3602 8.06466 45.3613 6.96668 44.6852 6.2888Z"/>
<path d="M44.2663 21.2663C43.3087 21.2663 42.5327 22.0424 42.5327 23C42.5327 33.7707 33.7707 42.5327 23 42.5327C12.2299 42.5327 3.46734 33.7707 3.46734 23C3.46734 12.2299 12.2299 3.46734 23 3.46734C23.9576 3.46734 24.7337 2.69127 24.7337 1.73371C24.7337 0.77607 23.9576 0 23 0C10.3177 0 0 10.3177 0 23C0 35.6818 10.3177 46 23 46C35.6818 46 46 35.6818 46 23C46 22.0424 45.2239 21.2663 44.2663 21.2663Z" />
</svg>
