<svg width="116" height="116" viewBox="0 0 116 116" fill="none" xmlns="http://www.w3.org/2000/svg">
<path fill-rule="evenodd" clip-rule="evenodd" d="M55.6385 114.804C55.6385 115.264 55.6385 115.908 57.0066 116H89.8424C90.2985 116 90.7545 115.632 90.7545 115.08L90.8457 81.7795C91.1194 79.1118 92.5788 77.64 94.9502 77.64C96.0448 77.64 97.3217 78.0079 98.8723 78.6519V78.5599L100.24 79.2958C101.7 80.0317 103.25 80.3997 104.892 80.3997C110.456 80.3997 115.017 75.8002 115.017 70.1887C115.017 64.5773 110.547 59.9778 104.892 59.9778C103.342 59.9778 101.791 60.3458 100.332 61.0817L98.7811 61.9096V61.8176C97.4129 62.3695 96.2272 62.6455 95.2239 62.6455C92.7612 62.6455 91.1194 61.0817 90.937 58.414L91.0282 25.2974C91.0282 25.0214 90.937 24.8374 90.7545 24.6535C90.5721 24.4695 90.3897 24.3775 90.1161 24.3775L57.0978 24.2855C55 24.1015 53.9967 23.0896 53.5406 22.2617C52.7197 20.7899 52.9021 18.858 53.9967 16.1903H53.9055L54.6351 14.8105C55.3648 13.4306 55.7297 11.8668 55.7297 10.2109C55.7297 4.59952 51.2604 0 45.6053 0C40.0415 0 35.4809 4.59952 35.6633 10.119C35.6633 11.7748 36.0282 13.3386 36.7579 14.8105L37.4876 16.1903H37.3963C38.3997 18.6741 38.5821 20.6979 37.7612 22.1697C37.1227 23.3656 35.8458 24.1015 34.1128 24.2855L1.18574 24.1935C0.729685 24.1935 0.364842 24.4695 0.273632 24.9294V25.1134L0.182421 58.046C0.182421 58.5059 0.273632 58.8739 0.456053 59.1499C0.638474 59.4259 0.820895 59.6098 1.55058 59.6098C2.46269 59.6098 3.83084 59.2419 5.38142 58.414L8.11774 57.2181C9.12106 56.9421 10.1244 56.8501 11.2189 56.8501C18.4245 56.8501 24.262 62.7375 24.262 70.0048C24.262 77.18 18.4245 83.0674 11.2189 83.0674C10.2156 83.0674 9.12106 82.9754 8.11774 82.6994L5.38142 81.3196C3.35273 80.3818 2.18575 80.3921 1.44487 80.3987C1.38631 80.3992 1.3304 80.3997 1.27695 80.3997C0.820895 80.3997 0.182421 80.3997 0.0912106 81.7795L0 114.988V115.172C0.0912106 115.632 0.456053 115.908 0.912106 115.908H33.2007C33.6567 115.908 34.0215 115.816 34.2952 115.632C34.5688 115.448 34.7512 115.264 34.7512 114.528C34.7512 113.608 34.3864 112.228 33.5655 110.665L32.5622 107.905C32.2886 106.893 32.1973 105.881 32.1973 104.777C32.1973 97.6019 38.0348 91.7145 45.2405 91.7145C52.4461 91.7145 58.2836 97.6019 58.2836 104.869C58.2836 105.881 58.1924 106.985 57.9187 107.997L56.9154 110.757C55.9121 112.872 55.6385 114.16 55.6385 114.804ZM72.7872 49.4814C70.7148 43.6984 65.1137 39.5127 58.5045 39.5127C50.1029 39.5127 43.3256 46.1768 43.3256 54.4382C43.3256 62.6996 50.1029 69.3638 58.5045 69.3638C65.1137 69.3638 70.7148 65.178 72.6752 59.34C72.9552 58.4588 73.5153 57.7978 74.4115 57.7978C75.3077 57.7978 75.9238 58.4588 75.9238 59.34V68.8681C75.9238 70.0798 74.9156 71.1262 73.6273 71.1262H43.3256C42.0934 71.1262 41.0292 70.1348 41.0292 68.8681V39.9533C41.0292 38.7416 42.0934 37.6952 43.3256 37.6952H73.6833C74.9156 37.6952 75.9798 38.6865 75.9798 39.9533V49.4814C75.9798 50.4177 75.1956 50.7481 74.4115 50.7481C73.6273 50.7481 73.0112 50.1974 72.7872 49.4814Z" fill="url(#paint0_linear_27228_475557)"/>
<defs>
<linearGradient id="paint0_linear_27228_475557" x1="0" y1="58" x2="115.017" y2="58" gradientUnits="userSpaceOnUse">
<stop stop-color="#EDDBFF"/>
<stop offset="1" stop-color="#ABD2FA"/>
</linearGradient>
</defs>
</svg>
