<svg viewBox="0 0 10 11" xmlns="http://www.w3.org/2000/svg">
  <path d="M0 5.17188C0 5.44531 0.078125 5.66016 0.273438 5.83594L4.41406 9.97656C4.58984 10.1719 4.80469 10.25 5.07812 10.25C5.33203 10.25 5.54688 10.1719 5.74219 9.97656L9.72656 5.99219C9.90234 5.81641 10 5.60156 10 5.32812C10 5.07422 9.90234 4.85938 9.72656 4.66406L5.58594 0.523438C5.39062 0.347656 5.17578 0.25 4.92188 0.25H0.9375C0.664062 0.25 0.449219 0.347656 0.273438 0.523438C0.078125 0.71875 0 0.933594 0 1.1875V5.17188ZM2.1875 1.5C2.44141 1.5 2.65625 1.59766 2.85156 1.77344C3.02734 1.96875 3.125 2.18359 3.125 2.4375C3.125 2.71094 3.02734 2.92578 2.85156 3.10156C2.65625 3.29688 2.44141 3.375 2.1875 3.375C1.91406 3.375 1.69922 3.29688 1.52344 3.10156C1.32812 2.92578 1.25 2.71094 1.25 2.4375C1.25 2.18359 1.32812 1.96875 1.52344 1.77344C1.69922 1.59766 1.91406 1.5 2.1875 1.5Z"/>
</svg>
