<svg width="15" height="16" viewBox="0 0 15 16" fill="#00A3FF" xmlns="http://www.w3.org/2000/svg">
<path d="M8.80793 16H6.28564V13.4777L9.16221 10.6012C9.14943 10.4965 9.14294 10.3912 9.14279 10.2857C9.14239 9.7071 9.31769 9.14198 9.6455 8.66515C9.97331 8.18833 10.4382 7.82227 10.9786 7.61542C11.519 7.40858 12.1095 7.37069 12.6719 7.50677C13.2343 7.64286 13.7421 7.9465 14.1282 8.37752C14.5142 8.80854 14.7603 9.34663 14.8339 9.92057C14.9074 10.4945 14.805 11.0773 14.5401 11.5917C14.2752 12.1062 13.8604 12.5281 13.3505 12.8016C12.8405 13.0751 12.2596 13.1873 11.6845 13.1235L8.80793 16ZM7.4285 14.8572H8.33479L11.3096 11.8823L11.6182 11.9532C11.9855 12.0406 12.3714 12.0057 12.7171 11.8539C13.0628 11.702 13.3495 11.4415 13.5337 11.1119C13.7179 10.7822 13.7894 10.4015 13.7375 10.0275C13.6856 9.6535 13.513 9.30666 13.246 9.03967C12.979 8.77267 12.6322 8.6001 12.2582 8.54818C11.8842 8.49626 11.5034 8.56781 11.1738 8.75198C10.8442 8.93615 10.5836 9.22286 10.4318 9.56858C10.28 9.91429 10.2451 10.3001 10.3325 10.6675L10.4034 10.976L7.4285 13.9509V14.8572Z" fill="#00A3FF"/>
<path d="M11.9999 10.8571C12.3155 10.8571 12.5713 10.6013 12.5713 10.2857C12.5713 9.97007 12.3155 9.71423 11.9999 9.71423C11.6843 9.71423 11.4285 9.97007 11.4285 10.2857C11.4285 10.6013 11.6843 10.8571 11.9999 10.8571Z" fill="#00A3FF"/>
<path d="M2.28564 2.28577H9.14278V3.42862H2.28564V2.28577ZM2.28564 4.57148H9.14278V5.71434H2.28564V4.57148ZM2.28564 6.85719H5.71421V8.00005H2.28564V6.85719ZM2.28564 12.5715H4.57136V13.7143H2.28564V12.5715Z" fill="#00A3FF"/>
<path d="M4.57143 16H1.14286C0.839845 15.9997 0.549331 15.8792 0.335069 15.6649C0.120808 15.4507 0.000302558 15.1601 0 14.8571V1.14286C0.000302558 0.839845 0.120808 0.549331 0.335069 0.335069C0.549331 0.120807 0.839845 0.000302558 1.14286 0H10.2857C10.5887 0.000302558 10.8792 0.120807 11.0935 0.335069C11.3078 0.549331 11.4283 0.839845 11.4286 1.14286V6.28571H10.2857V1.14286H1.14286V14.8571H4.57143V16Z" fill="#00A3FF"/>
</svg>
