<svg width="20" height="20" viewBox="0 0 20 20" fill="none" xmlns="http://www.w3.org/2000/svg">
<g clip-path="url(#clip0_41804_269228)">
<path d="M20.0664 2.57812C20.4224 2.57812 20.7109 2.28956 20.7109 1.93359C20.7109 1.57763 20.4224 1.28906 20.0664 1.28906C19.7104 1.28906 19.4219 1.57763 19.4219 1.93359C19.4219 2.28956 19.7104 2.57812 20.0664 2.57812Z" fill="#AFBCCB"/>
<path d="M11.043 22C15.8554 22 19.9466 18.8541 21.4164 14.5081C21.5082 14.2366 21.4097 13.9371 21.1747 13.7731C20.9396 13.6091 20.6246 13.62 20.4014 13.7998C19.0117 14.9197 17.3358 15.5117 15.5547 15.5117C11.2662 15.5117 7.77734 12.0421 7.77734 7.77734C7.77734 5.14031 9.18178 2.61718 11.4426 1.19268C11.6851 1.03989 11.7975 0.745379 11.7186 0.469863C11.6411 0.199633 11.3978 0.0113867 11.1181 0.00313672C11.1028 0.00197656 11.0756 0 11.043 0C4.98979 0 0 4.93956 0 11C0 17.0583 4.9873 22 11.043 22ZM9.04767 1.49329C7.39698 3.20581 6.48828 5.46296 6.48828 7.77734C6.48828 12.7529 10.5554 16.8008 15.5547 16.8008C16.8636 16.8008 18.1561 16.5113 19.3356 15.9664C17.6131 18.8676 14.4868 20.7109 11.043 20.7109C5.66466 20.7109 1.28906 16.3546 1.28906 11C1.28906 6.32582 4.62279 2.41244 9.04767 1.49329Z" fill="#AFBCCB"/>
<path d="M12.332 5.15625C13.3801 5.15625 14.2656 6.06139 14.2656 7.13281C14.2656 7.48877 14.5542 7.77734 14.9102 7.77734C15.2661 7.77734 15.5547 7.48877 15.5547 7.13281C15.5547 6.06139 16.4401 5.15625 17.4883 5.15625C17.8442 5.15625 18.1328 4.86767 18.1328 4.51172C18.1328 4.15577 17.8442 3.86719 17.4883 3.86719C16.4221 3.86719 15.5547 2.99978 15.5547 1.93359C15.5547 1.57764 15.2661 1.28906 14.9102 1.28906C14.5542 1.28906 14.2656 1.57764 14.2656 1.93359C14.2656 2.99978 13.3982 3.86719 12.332 3.86719C11.9761 3.86719 11.6875 4.15577 11.6875 4.51172C11.6875 4.86767 11.9761 5.15625 12.332 5.15625ZM14.9102 3.86495C15.0963 4.11271 15.3172 4.33293 15.5656 4.51821C15.3171 4.70766 15.0987 4.92933 14.9102 5.18336C14.7217 4.92937 14.5033 4.70774 14.2548 4.51821C14.5032 4.33293 14.7241 4.11271 14.9102 3.86495Z" fill="#AFBCCB"/>
<path d="M21.3555 7.77734C21.7114 7.77734 22 7.48878 22 7.13281C22 6.77685 21.7114 6.48828 21.3555 6.48828C20.9995 6.48828 20.7109 6.77685 20.7109 7.13281C20.7109 7.48878 20.9995 7.77734 21.3555 7.77734Z" fill="#AFBCCB"/>
</g>
<defs>
<clipPath id="clip0_41804_269228">
<rect width="20" height="20" fill="white"/>
</clipPath>
</defs>
</svg>
