<svg width="20" height="20" viewBox="0 0 20 20" fill="none" xmlns="http://www.w3.org/2000/svg">
<g clip-path="url(#clip0_41989_46272)">
<path d="M10.9988 18.3643C10.5842 18.3643 10.248 18.7004 10.248 19.115V21.2495C10.248 21.6641 10.5842 22.0002 10.9988 22.0002C11.4135 22.0002 11.7495 21.6641 11.7495 21.2495V19.115C11.7495 18.7003 11.4134 18.3643 10.9988 18.3643Z" fill="#6B93C0"/>
<path d="M10.9988 3.63663C11.4135 3.63663 11.7495 3.3005 11.7495 2.8859V0.751219C11.7495 0.336615 11.4135 0.000488281 10.9988 0.000488281C10.5842 0.000488281 10.248 0.336615 10.248 0.751219V2.8859C10.248 3.3005 10.5842 3.63663 10.9988 3.63663Z" fill="#6B93C0"/>
<path d="M4.73186 16.207L3.22199 17.7161C2.92871 18.0092 2.92861 18.4845 3.22169 18.7777C3.36833 18.9244 3.56052 18.9977 3.75271 18.9977C3.9448 18.9977 4.13678 18.9245 4.28342 18.778L5.79329 17.2689C6.08658 16.9759 6.08668 16.5005 5.79359 16.2073C5.50031 15.914 5.02505 15.914 4.73186 16.207Z" fill="#6B93C0"/>
<path d="M16.7365 6.01258C16.9286 6.01258 17.1207 5.93931 17.2673 5.79277L18.777 4.2837C19.0702 3.99051 19.0703 3.51525 18.7772 3.22197C18.484 2.92868 18.0087 2.92858 17.7155 3.22187L16.2058 4.73093C15.9126 5.02402 15.9125 5.49938 16.2056 5.79257C16.3521 5.93931 16.5443 6.01258 16.7365 6.01258Z" fill="#6B93C0"/>
<path d="M3.63594 11.0002C3.63594 10.5856 3.29981 10.2495 2.88521 10.2495H0.75073C0.336127 10.2495 0 10.5856 0 11.0002C0 11.4148 0.336127 11.751 0.75073 11.751H2.88521C3.29981 11.751 3.63594 11.4148 3.63594 11.0002Z" fill="#6B93C0"/>
<path d="M21.249 10.2495H19.1135C18.6988 10.2495 18.3628 10.5856 18.3628 11.0002C18.3628 11.4148 18.6988 11.751 19.1135 11.751H21.249C21.6637 11.751 21.9997 11.4148 21.9997 11.0002C21.9997 10.5857 21.6637 10.2495 21.249 10.2495Z" fill="#6B93C0"/>
<path d="M4.7314 5.79314C4.87794 5.93968 5.07013 6.01295 5.26221 6.01295C5.4543 6.01295 5.64649 5.93968 5.79303 5.79314C6.08621 5.49995 6.08621 5.02459 5.79303 4.7314L4.28396 3.22233C3.99078 2.92914 3.51541 2.92914 3.22233 3.22233C2.92915 3.51552 2.92915 3.99088 3.22233 4.28397L4.7314 5.79314Z" fill="#6B93C0"/>
<path d="M17.268 16.2072C16.9749 15.9141 16.4995 15.914 16.2063 16.2071C15.913 16.5003 15.913 16.9757 16.2062 17.2688L17.7151 18.7778C17.8617 18.9245 18.0538 18.9978 18.246 18.9978C18.4381 18.9978 18.6303 18.9245 18.7768 18.7779C19.0701 18.4848 19.0701 18.0094 18.7769 17.7163L17.268 16.2072Z" fill="#6B93C0"/>
<path d="M11.0002 5.15723C7.77838 5.15723 5.15723 7.77858 5.15723 11.0006C5.15723 14.2225 7.77838 16.8438 11.0002 16.8438C14.2224 16.8438 16.8437 14.2225 16.8437 11.0006C16.8437 7.77858 14.2223 5.15723 11.0002 5.15723ZM11.0002 15.3423C8.60628 15.3423 6.65869 13.3946 6.65869 11.0006C6.65869 8.60648 8.60628 6.65869 11.0002 6.65869C13.3944 6.65869 15.3422 8.60648 15.3422 11.0006C15.3422 13.3946 13.3944 15.3423 11.0002 15.3423Z" fill="#6B93C0"/>
</g>
<defs>
<clipPath id="clip0_41989_46272">
<rect width="20" height="20" fill="white"/>
</clipPath>
</defs>
</svg>
