<svg width="20" height="20" viewBox="0 0 20 20" fill="none" xmlns="http://www.w3.org/2000/svg">
<g clip-path="url(#clip0_42000_91457)">
<path d="M9.99913 16.6943C9.62222 16.6943 9.31665 16.9999 9.31665 17.3768V19.3172C9.31665 19.6942 9.62222 19.9997 9.99913 19.9997C10.3761 19.9997 10.6816 19.6942 10.6816 19.3172V17.3768C10.6816 16.9998 10.376 16.6943 9.99913 16.6943Z" fill="#6B93C0"/>
<path d="M9.99913 3.30558C10.3761 3.30558 10.6816 3.00001 10.6816 2.6231V0.682482C10.6816 0.30557 10.3761 0 9.99913 0C9.62222 0 9.31665 0.30557 9.31665 0.682482V2.6231C9.31665 3.00001 9.62222 3.30558 9.99913 3.30558Z" fill="#6B93C0"/>
<path d="M4.30189 14.7329L2.92928 16.1048C2.66266 16.3713 2.66257 16.8034 2.92901 17.0699C3.06232 17.2032 3.23704 17.2699 3.41175 17.2699C3.58638 17.2699 3.76091 17.2033 3.89422 17.0702L5.26683 15.6983C5.53345 15.4319 5.53354 14.9997 5.2671 14.7332C5.00048 14.4666 4.56842 14.4666 4.30189 14.7329Z" fill="#6B93C0"/>
<path d="M15.2151 5.46545C15.3898 5.46545 15.5644 5.39884 15.6977 5.26562L17.0701 3.89374C17.3366 3.62721 17.3367 3.19515 17.0703 2.92853C16.8038 2.66191 16.3717 2.66181 16.1051 2.92844L14.7327 4.30032C14.4661 4.56676 14.466 4.9989 14.7325 5.26544C14.8657 5.39884 15.0404 5.46545 15.2151 5.46545Z" fill="#6B93C0"/>
<path d="M3.3054 9.99987C3.3054 9.62295 2.99983 9.31738 2.62292 9.31738H0.682482C0.30557 9.31738 0 9.62295 0 9.99987C0 10.3768 0.30557 10.6823 0.682482 10.6823H2.62292C2.99983 10.6823 3.3054 10.3768 3.3054 9.99987Z" fill="#6B93C0"/>
<path d="M19.3174 9.31738H17.3761C16.9991 9.31738 16.6936 9.62295 16.6936 9.99987C16.6936 10.3768 16.9991 10.6823 17.3761 10.6823H19.3174C19.6944 10.6823 19.9999 10.3768 19.9999 9.99987C19.9999 9.62304 19.6944 9.31738 19.3174 9.31738Z" fill="#6B93C0"/>
<path d="M4.30127 5.26551C4.43449 5.39873 4.60921 5.46534 4.78383 5.46534C4.95845 5.46534 5.13317 5.39873 5.26639 5.26551C5.53292 4.99898 5.53292 4.56683 5.26639 4.3003L3.89451 2.92842C3.62798 2.66188 3.19583 2.66188 2.92939 2.92842C2.66286 3.19495 2.66286 3.6271 2.92939 3.89354L4.30127 5.26551Z" fill="#6B93C0"/>
<path d="M15.6984 14.7331C15.4319 14.4666 14.9997 14.4665 14.7332 14.7331C14.4666 14.9996 14.4666 15.4317 14.7331 15.6982L16.1048 17.0701C16.2381 17.2034 16.4127 17.27 16.5874 17.27C16.7621 17.27 16.9368 17.2034 17.07 17.0701C17.3366 16.8036 17.3366 16.3715 17.0701 16.105L15.6984 14.7331Z" fill="#6B93C0"/>
<path d="M10 4.6875C7.0711 4.6875 4.68823 7.07054 4.68823 9.99967C4.68823 12.9287 7.0711 15.3117 10 15.3117C12.9293 15.3117 15.3123 12.9287 15.3123 9.99967C15.3123 7.07054 12.9292 4.6875 10 4.6875ZM10 13.9467C7.82374 13.9467 6.0532 12.1761 6.0532 9.99967C6.0532 7.82319 7.82374 6.05246 10 6.05246C12.1766 6.05246 13.9473 7.82319 13.9473 9.99967C13.9473 12.1761 12.1766 13.9467 10 13.9467Z" fill="#6B93C0"/>
</g>
<defs>
<clipPath id="clip0_42000_91457">
<rect width="20" height="20" fill="white"/>
</clipPath>
</defs>
</svg>
