<svg width="20" height="20" viewBox="0 0 20 20" fill="none" xmlns="http://www.w3.org/2000/svg">
<g clip-path="url(#clip0_41804_269228)">
<path d="M18.2422 2.34375C18.5658 2.34375 18.8281 2.08142 18.8281 1.75781C18.8281 1.43421 18.5658 1.17188 18.2422 1.17188C17.9186 1.17188 17.6562 1.43421 17.6562 1.75781C17.6562 2.08142 17.9186 2.34375 18.2422 2.34375Z" fill="#AFBCCB"/>
<path d="M10.0391 20C14.414 20 18.1333 17.1401 19.4695 13.1892C19.5529 12.9424 19.4634 12.6701 19.2497 12.521C19.036 12.3719 18.7496 12.3818 18.5467 12.5453C17.2834 13.5634 15.7598 14.1016 14.1406 14.1016C10.242 14.1016 7.07031 10.9473 7.07031 7.07031C7.07031 4.67301 8.34707 2.37926 10.4023 1.08426C10.6228 0.945352 10.725 0.677617 10.6532 0.427148C10.5829 0.181484 10.3617 0.0103516 10.1074 0.00285156C10.0935 0.00179687 10.0688 0 10.0391 0C4.53617 0 0 4.49051 0 10C0 15.5075 4.53391 20 10.0391 20ZM8.22516 1.35754C6.72453 2.91437 5.89844 4.96633 5.89844 7.07031C5.89844 11.5935 9.59586 15.2734 14.1406 15.2734C15.3306 15.2734 16.5055 15.0102 17.5779 14.5149C16.012 17.1524 13.1698 18.8281 10.0391 18.8281C5.14969 18.8281 1.17188 14.8679 1.17188 10C1.17188 5.75074 4.20254 2.19313 8.22516 1.35754Z" fill="#AFBCCB"/>
<path d="M11.2109 4.6875C12.1638 4.6875 12.9688 5.51035 12.9688 6.48438C12.9688 6.80797 13.2311 7.07031 13.5547 7.07031C13.8783 7.07031 14.1406 6.80797 14.1406 6.48438C14.1406 5.51035 14.9456 4.6875 15.8984 4.6875C16.222 4.6875 16.4844 4.42516 16.4844 4.10156C16.4844 3.77797 16.222 3.51562 15.8984 3.51562C14.9292 3.51562 14.1406 2.72707 14.1406 1.75781C14.1406 1.43422 13.8783 1.17188 13.5547 1.17188C13.2311 1.17188 12.9688 1.43422 12.9688 1.75781C12.9688 2.72707 12.1802 3.51562 11.2109 3.51562C10.8873 3.51562 10.625 3.77797 10.625 4.10156C10.625 4.42516 10.8873 4.6875 11.2109 4.6875ZM13.5547 3.51359C13.7239 3.73883 13.9247 3.93902 14.1505 4.10746C13.9246 4.27969 13.7261 4.48121 13.5547 4.71215C13.3833 4.48125 13.1848 4.27977 12.9589 4.10746C13.1847 3.93902 13.3855 3.73883 13.5547 3.51359Z" fill="#AFBCCB"/>
<path d="M19.4141 7.07031C19.7377 7.07031 20 6.80798 20 6.48438C20 6.16077 19.7377 5.89844 19.4141 5.89844C19.0905 5.89844 18.8281 6.16077 18.8281 6.48438C18.8281 6.80798 19.0905 7.07031 19.4141 7.07031Z" fill="#AFBCCB"/>
</g>
<defs>
<clipPath id="clip0_41804_269228">
<rect width="20" height="20" fill="white"/>
</clipPath>
</defs>
</svg>
