<svg  viewBox="0 0 178 165" fill="none" xmlns="http://www.w3.org/2000/svg">
<g filter="url(#filter0_f)">
<path d="M123.391 87.0405C128.698 90.1246 128.769 95.0735 123.463 98.1576L98.5813 112.646C93.3468 115.658 84.7421 115.658 79.3641 112.646L54.4106 98.1576C49.1043 95.0735 49.0326 90.1246 54.3389 87.0405L79.149 72.6241C84.4552 69.54 93.0599 69.54 98.3662 72.6241L123.391 87.0405Z" fill="#6A4BFF"/>
</g>
<path d="M148.535 66.5633L105.188 91.8759C96.0427 97.139 81.0092 97.139 71.6132 91.8759L28.016 66.5633C23.3806 63.8064 21.0003 60.2977 21.0003 56.7891V61.8015C21.0003 65.3102 23.3806 68.9442 28.016 71.5757L71.6132 96.8883C80.8839 102.277 95.9174 102.277 105.188 96.8883L148.535 71.701C153.17 69.0695 155.425 65.5608 155.425 62.0521V57.0397C155.425 60.4231 153.17 63.9317 148.535 66.5633Z" fill="#852DEE"/>
<path d="M148.535 47.1402C157.805 52.5286 157.931 61.175 148.66 66.5633L105.188 91.876C96.0427 97.139 81.0092 97.139 71.6132 91.876L28.016 66.5633C18.7453 61.175 18.62 52.5286 27.8907 47.1402L71.2374 21.9529C80.508 16.5645 95.5416 16.5645 104.812 21.9529L148.535 47.1402Z" fill="#F5FBFF"/>
<path d="M92.6344 63.4V63.15H92.3844C86.8565 63.15 81.8159 59.8603 78.1463 54.4912C74.4777 49.1236 72.1977 41.6992 72.1977 33.5C72.1977 25.3008 74.4777 17.8764 78.1463 12.5088C81.8159 7.13973 86.8565 3.85 92.3844 3.85H92.6344V3.6V1V0.75H92.3844C85.9901 0.75 80.0436 4.26209 75.6326 10.5743C71.3321 16.7217 68.9728 24.864 68.9728 33.5C68.9728 42.1361 71.3322 50.2784 75.6327 56.4258C80.046 62.7423 85.9925 66.25 92.3844 66.25H92.6344V66V63.4ZM72.9781 9.8341L73.3546 9.41667H72.7924H69.3386H69.2154L69.1404 9.51436C68.8762 9.8583 68.6173 10.2116 68.3639 10.5743C64.0657 16.7217 61.7065 24.8748 61.7065 33.5C61.7065 42.1252 64.0658 50.2783 68.3663 56.4258C68.6197 56.7885 68.8784 57.1417 69.1427 57.4856L69.2177 57.5833H69.3409H72.7947H73.3576L72.9802 57.1657C68.0949 51.76 64.9313 43.1743 64.9313 33.5C64.9313 23.8258 68.0949 15.2486 72.9781 9.8341ZM103.849 44.0833H103.669L103.612 44.2543C102.558 47.4184 101.055 50.1961 99.2287 52.4075L98.8907 52.8167H99.4214H102.755H102.886L102.961 52.7084C104.155 50.9729 105.151 49.1207 105.933 47.1833H109.721C106.721 53.7158 101.682 57.95 96.0176 57.95C91.4928 57.95 87.3604 55.2442 84.3483 50.8168C81.3372 46.3907 79.4641 40.2662 79.4641 33.5C79.4641 26.7338 81.3372 20.6093 84.3483 16.1832C87.3604 11.7558 91.4928 9.05 96.0176 9.05C102.486 9.05 108.158 14.5904 110.879 22.7458L110.936 22.9167H111.116H113.956H114.292L114.196 22.5951C113.312 19.638 111.966 16.8256 110.202 14.253L110.201 14.2511C106.473 8.92018 101.44 5.95 96.0176 5.95C90.5955 5.95 85.5617 8.91576 81.834 14.2511L81.8339 14.2512C78.2217 19.4256 76.2392 26.2635 76.2392 33.5C76.2392 40.7364 78.2216 47.5786 81.8339 52.7487C85.5595 58.0887 90.5956 61.05 96.0176 61.05C101.44 61.05 106.473 58.0842 110.201 52.7489L110.202 52.747C111.966 50.1744 113.312 47.362 114.196 44.4049L114.292 44.0833H113.956H111.116H103.849ZM106.69 22.9167H107.026L106.93 22.595C106.05 19.6532 104.712 16.8544 102.961 14.2923L102.887 14.1833H102.755H99.4237H98.8991L99.2295 14.5908C100.532 16.1975 101.618 17.9533 102.462 19.8167H98.6688C97.8811 17.8645 96.8754 15.9989 95.6693 14.2523L95.6676 14.25C95.3583 13.8127 95.0374 13.3862 94.7094 12.977L94.6344 12.8833H94.5144H90.9788H90.3797L90.8011 13.3092C93.1516 15.6845 95.066 18.9319 96.346 22.7462L96.4032 22.9167H96.583H103.849H106.69ZM90.8013 53.6907L90.379 54.1167H90.9788H94.5144H94.6344L94.7094 54.023C95.0365 53.6149 95.358 53.1943 95.6686 52.7486L95.6697 52.747C97.4333 50.1744 98.7797 47.362 99.6632 44.4049L99.7593 44.0833H99.4237H96.583H96.4028L96.3458 44.2543C95.0728 48.0724 93.1517 51.3197 90.8013 53.6907Z" fill="#6A4BFF" stroke="#6A4BFF" stroke-width="0.5"/>
<defs>
<filter id="filter0_f" x="0.394867" y="20.311" width="177.012" height="144.594" filterUnits="userSpaceOnUse" color-interpolation-filters="sRGB">
<feFlood flood-opacity="0" result="BackgroundImageFix"/>
<feBlend mode="normal" in="SourceGraphic" in2="BackgroundImageFix" result="shape"/>
<feGaussianBlur stdDeviation="25" result="effect1_foregroundBlur"/>
</filter>
</defs>
</svg>
