<svg  viewBox="0 0 178 162" fill="none" xmlns="http://www.w3.org/2000/svg">
<g filter="url(#filter0_f)">
<path d="M123.651 84.0405C128.957 87.1246 129.029 92.0735 123.723 95.1576L98.8411 109.646C93.6066 112.658 85.0019 112.658 79.624 109.646L54.6704 95.1576C49.3642 92.0735 49.2925 87.1246 54.5987 84.0405L79.4089 69.6241C84.7151 66.54 93.3198 66.54 98.626 69.6241L123.651 84.0405Z" fill="#6B93C0"/>
</g>
<path d="M149.66 63.5945L106.313 88.9072C97.0427 94.2955 82.0091 94.2955 72.7385 88.9072L29.0159 63.5945C24.3806 60.8377 22.0003 57.329 22.0003 53.8203V58.8327C22.0003 62.3414 24.3806 65.9754 29.0159 68.6069L72.7385 93.9196C82.0091 99.3079 97.0427 99.3079 106.313 93.9196L149.66 68.7322C154.295 66.1007 156.55 62.592 156.55 59.0833V54.0709C156.55 57.4543 154.17 60.963 149.66 63.5945Z" fill="#6B93C0"/>
<path d="M149.535 44.1715C158.805 49.5598 158.931 58.2062 149.66 63.5946L106.313 88.9072C97.0427 94.2956 82.0092 94.2956 72.7385 88.9072L29.016 63.5946C19.7453 58.2062 19.62 49.5598 28.8907 44.1715L72.2374 18.9841C81.508 13.5958 96.5416 13.5958 105.812 18.9841L149.535 44.1715Z" fill="#F5F0FA"/>
<g clip-path="url(#clip0)">
<path d="M89.7579 12.9854C79.5491 12.9854 71.2437 21.2909 71.2437 31.4996C71.2437 41.7083 79.5491 50.0138 89.7579 50.0138C99.9668 50.0138 108.272 41.7084 108.272 31.4996C108.272 21.2908 99.9668 12.9854 89.7579 12.9854ZM89.7579 46.3224C81.5845 46.3224 74.9351 39.6729 74.9351 31.4996C74.9351 23.3263 81.5845 16.6768 89.7579 16.6768C97.9313 16.6768 104.581 23.3262 104.581 31.4996C104.581 39.673 97.9313 46.3224 89.7579 46.3224Z" fill="#6B93C0"/>
<path d="M88.5303 29.1387C88.5303 28.7265 88.908 28.3832 90.0927 28.3832C91.1401 28.3832 92.2561 28.675 93.4408 29.276L94.66 26.34C93.6813 25.7905 92.445 25.4643 91.1744 25.344V23.5068H88.7535V25.3784C85.9376 25.7732 84.5297 27.4045 84.5297 29.3447C84.5297 33.826 91.1744 32.607 91.1744 34.1179C91.1744 34.53 90.7624 34.7704 89.612 34.7704C88.2899 34.7704 86.779 34.3412 85.6457 33.6715L84.3408 36.6247C85.3711 37.26 87.0365 37.7237 88.7535 37.8267V39.6468H91.1744V37.7409C93.8358 37.2772 95.1751 35.6632 95.1751 33.8089C95.1751 29.379 88.5303 30.5809 88.5303 29.1387Z" fill="#6B93C0"/>
<path d="M121.071 28.0767L117.399 28.4825C118.086 34.6939 116.615 41.0435 113.259 46.3618C109.856 51.7535 104.646 55.8403 98.5878 57.8695C95.6877 58.8408 92.7085 59.3062 89.7578 59.306C81.2404 59.3055 72.9742 55.4254 67.6324 48.6439H71.2898V44.9498H61.4126V55.2821H65.1067V51.3912C68.6293 55.6803 73.2977 59.0248 78.5981 60.9978C82.1796 62.3312 85.9577 62.9996 89.7311 62.9996C93.1273 62.9996 96.52 62.4579 99.761 61.3724C106.624 59.0736 112.527 54.443 116.383 48.3335C120.184 42.3103 121.849 35.1164 121.071 28.0767Z" fill="#6B93C0"/>
<path d="M66.1271 16.8688C69.5297 11.3712 74.7862 7.21052 80.9281 5.15305C86.9093 3.14973 93.2013 3.21334 99.1245 5.33762C103.75 6.99654 107.874 9.87645 111.019 13.5971L107.499 13.5959L107.498 17.29L117.484 17.2933V7.42314H113.79V11.1545C110.233 6.96922 105.583 3.72952 100.372 1.86032C93.6599 -0.546602 86.5306 -0.619322 79.7549 1.65028C72.797 3.98091 66.8418 8.6952 62.9861 14.9246C59.1806 21.073 57.5923 28.3866 58.5137 35.5183L62.1773 35.045C61.3643 28.7526 62.7671 22.2975 66.1271 16.8688Z" fill="#6B93C0"/>
</g>
<defs>
<filter id="filter0_f" x="0.654694" y="17.311" width="177.012" height="144.594" filterUnits="userSpaceOnUse" color-interpolation-filters="sRGB">
<feFlood flood-opacity="0" result="BackgroundImageFix"/>
<feBlend mode="normal" in="SourceGraphic" in2="BackgroundImageFix" result="shape"/>
<feGaussianBlur stdDeviation="25" result="effect1_foregroundBlur"/>
</filter>
<clipPath id="clip0">
<rect width="63" height="63" fill="white" transform="translate(58.2579)"/>
</clipPath>
</defs>
</svg>
