<svg viewBox="0 0 178 162" fill="none" xmlns="http://www.w3.org/2000/svg">
<g filter="url(#filter0_f_3022_0)">
<path d="M123.391 84.0405C128.698 87.1246 128.769 92.0735 123.463 95.1576L98.5812 109.646C93.3467 112.658 84.742 112.658 79.3641 109.646L54.4105 95.1576C49.1043 92.0735 49.0325 87.1246 54.3388 84.0405L79.1489 69.6241C84.4552 66.54 93.0598 66.54 98.3661 69.6241L123.391 84.0405Z" fill="#6A4BFF"/>
</g>
<path d="M148.535 63.5633L105.188 88.8759C96.0426 94.139 81.0091 94.139 71.6131 88.8759L28.0159 63.5633C23.3806 60.8064 21.0002 57.2977 21.0002 53.7891V58.8015C21.0002 62.3102 23.3806 65.9442 28.0159 68.5757L71.6131 93.8883C80.8838 99.2767 95.9174 99.2767 105.188 93.8883L148.535 68.701C153.17 66.0695 155.425 62.5608 155.425 59.0521V54.0397C155.425 57.4231 153.17 60.9317 148.535 63.5633Z" fill="#852DEE"/>
<path d="M148.535 44.1402C157.805 49.5286 157.931 58.175 148.66 63.5633L105.188 88.876C96.0427 94.139 81.0092 94.139 71.6132 88.876L28.016 63.5633C18.7453 58.175 18.62 49.5286 27.8907 44.1402L71.2374 18.9529C80.508 13.5645 95.5416 13.5645 104.812 18.9529L148.535 44.1402Z" fill="#F5FBFF"/>
<path d="M88.5 3.42504C100.792 3.42504 111.208 11.313 115.062 22.2109C115.479 23.5601 116.625 24.598 118.083 24.598C119.542 24.598 121 23.9753 121 22.2109V4.25535C121 1.8682 119.021 0 116.729 0H60.2708C57.9792 0 56 1.97199 56 4.25535V58.7446C56 61.1318 57.9792 63 60.2708 63H116.625C119.021 63 120.896 61.028 120.896 58.7446V40.7891C120.896 39.1285 119.75 37.883 118.083 37.883C116.417 37.883 115.375 39.1285 114.854 40.7891C111.208 51.7908 100.792 59.6787 88.5 59.6787C72.875 59.6787 60.2708 47.1203 60.2708 31.5519C60.2708 15.9835 72.875 3.42504 88.5 3.42504Z" fill="#6A4BFF"/>
<defs>
<filter id="filter0_f_3022_0" x="0.394775" y="17.311" width="177.012" height="144.594" filterUnits="userSpaceOnUse" color-interpolation-filters="sRGB">
<feFlood flood-opacity="0" result="BackgroundImageFix"/>
<feBlend mode="normal" in="SourceGraphic" in2="BackgroundImageFix" result="shape"/>
<feGaussianBlur stdDeviation="25" result="effect1_foregroundBlur_3022_0"/>
</filter>
</defs>
</svg>
