<svg width="22" height="22" viewBox="0 0 22 22" fill="none" xmlns="http://www.w3.org/2000/svg">
<path d="M18.2188 2.75H14.4375V2.0625C14.4375 0.925246 13.5123 0 12.375 0H9.625C8.48775 0 7.5625 0.925246 7.5625 2.0625V2.75H3.78125C2.83353 2.75 2.0625 3.52103 2.0625 4.46875V6.875C2.0625 7.25467 2.37033 7.5625 2.75 7.5625H3.12572L3.71968 20.0356C3.77214 21.1371 4.67706 22 5.77981 22H16.2202C17.323 22 18.2279 21.1371 18.2803 20.0356L18.8743 7.5625H19.25C19.6297 7.5625 19.9375 7.25467 19.9375 6.875V4.46875C19.9375 3.52103 19.1665 2.75 18.2188 2.75ZM8.9375 2.0625C8.9375 1.68343 9.24593 1.375 9.625 1.375H12.375C12.7541 1.375 13.0625 1.68343 13.0625 2.0625V2.75H8.9375V2.0625ZM3.4375 4.46875C3.4375 4.27921 3.59171 4.125 3.78125 4.125H18.2188C18.4083 4.125 18.5625 4.27921 18.5625 4.46875V6.1875C18.3506 6.1875 4.31548 6.1875 3.4375 6.1875V4.46875ZM16.9069 19.9702C16.8894 20.3374 16.5877 20.625 16.2202 20.625H5.77981C5.41221 20.625 5.11057 20.3374 5.09313 19.9702L4.50227 7.5625H17.4977L16.9069 19.9702Z" fill="#FA3B33"/>
<path d="M11 19.25C11.3797 19.25 11.6875 18.9422 11.6875 18.5625V9.625C11.6875 9.24533 11.3797 8.9375 11 8.9375C10.6203 8.9375 10.3125 9.24533 10.3125 9.625V18.5625C10.3125 18.9422 10.6203 19.25 11 19.25Z" fill="#FA3B33"/>
<path d="M14.4375 19.25C14.8172 19.25 15.125 18.9422 15.125 18.5625V9.625C15.125 9.24533 14.8172 8.9375 14.4375 8.9375C14.0578 8.9375 13.75 9.24533 13.75 9.625V18.5625C13.75 18.9422 14.0578 19.25 14.4375 19.25Z" fill="#FA3B33"/>
<path d="M7.5625 19.25C7.94217 19.25 8.25 18.9422 8.25 18.5625V9.625C8.25 9.24533 7.94217 8.9375 7.5625 8.9375C7.18283 8.9375 6.875 9.24533 6.875 9.625V18.5625C6.875 18.9422 7.18279 19.25 7.5625 19.25Z" fill="#FA3B33"/>
</svg>
