<svg width="13" height="11" viewBox="0 0 13 11" fill="none" xmlns="http://www.w3.org/2000/svg">
<path d="M13 1.46919C12.5166 1.68125 12.0014 1.82181 11.4644 1.89006C12.0169 1.56019 12.4386 1.04181 12.6368 0.417C12.1217 0.724125 11.5529 0.941063 10.9468 1.06213C10.4577 0.541313 9.76056 0.21875 9.00006 0.21875C7.52456 0.21875 6.33669 1.41638 6.33669 2.88456C6.33669 3.09581 6.35456 3.29894 6.39844 3.49231C4.18275 3.38425 2.22219 2.32231 0.905125 0.704625C0.675187 1.10356 0.540313 1.56019 0.540313 2.05175C0.540313 2.97475 1.01562 3.79294 1.72413 4.26662C1.29594 4.2585 0.875875 4.13419 0.52 3.93837C0.52 3.9465 0.52 3.95706 0.52 3.96762C0.52 5.26275 1.44381 6.3385 2.65525 6.58631C2.43831 6.64563 2.20187 6.67406 1.9565 6.67406C1.78587 6.67406 1.61362 6.66431 1.45194 6.62856C1.79725 7.684 2.77713 8.45994 3.94225 8.48512C3.0355 9.19444 1.88419 9.62181 0.637812 9.62181C0.41925 9.62181 0.209625 9.61206 0 9.58525C1.18056 10.3466 2.57969 10.7812 4.0885 10.7812C8.99275 10.7812 11.674 6.71875 11.674 3.19737C11.674 3.07956 11.6699 2.96581 11.6643 2.85287C12.1932 2.4775 12.6376 2.00869 13 1.46919Z" fill="#00A3FF"/>
</svg>
