<svg viewBox="0 0 18 21" fill="white" xmlns="http://www.w3.org/2000/svg">
<path d="M12.7656 9.05469C11.8021 10.0182 10.6302 10.5 9.25 10.5C7.86979 10.5 6.6849 10.0182 5.69531 9.05469C4.73177 8.0651 4.25 6.88021 4.25 5.5C4.25 4.11979 4.73177 2.94792 5.69531 1.98438C6.6849 0.994792 7.86979 0.5 9.25 0.5C10.6302 0.5 11.8021 0.994792 12.7656 1.98438C13.7552 2.94792 14.25 4.11979 14.25 5.5C14.25 6.88021 13.7552 8.0651 12.7656 9.05469ZM12.7656 11.75C14.1979 11.75 15.4219 12.2708 16.4375 13.3125C17.4792 14.3281 18 15.5521 18 16.9844V18.625C18 19.1458 17.8177 19.5885 17.4531 19.9531C17.0885 20.3177 16.6458 20.5 16.125 20.5H2.375C1.85417 20.5 1.41146 20.3177 1.04688 19.9531C0.682292 19.5885 0.5 19.1458 0.5 18.625V16.9844C0.5 15.5521 1.00781 14.3281 2.02344 13.3125C3.0651 12.2708 4.30208 11.75 5.73438 11.75H6.39844C7.3099 12.1667 8.26042 12.375 9.25 12.375C10.2396 12.375 11.1901 12.1667 12.1016 11.75H12.7656Z" />
</svg>
