<svg width="132" height="134" viewBox="0 0 132 134" fill="none" xmlns="http://www.w3.org/2000/svg">
<g clip-path="url(#clip0)">
<path d="M82.8126 37.771H42.1875C32.6994 37.7814 25.0104 45.4704 25 54.9585V58.0834C25 58.9463 25.6996 59.646 26.5626 59.646H98.4376C99.3006 59.646 100 58.9463 100 58.0834V54.9585C99.9896 45.4704 92.3007 37.7814 82.8126 37.771Z" fill="#0A2778"/>
<path d="M88.897 48.0086L82.2813 34.7774C79.58 29.3743 73.0103 27.1842 67.6072 29.8854C67.5092 29.9343 67.4121 29.9849 67.3156 30.0367L35.197 47.3305C34.4376 47.7404 34.1543 48.6883 34.5641 49.4477C34.8366 49.9526 35.3639 50.2674 35.9376 50.268H87.5001C88.363 50.268 89.0626 49.5684 89.0625 48.7054C89.0625 48.4624 89.0058 48.2228 88.897 48.0055V48.0086Z" fill="#C3CEEB"/>
<path d="M35.9376 47.146H89.0626C95.1032 47.146 100 52.0428 100 58.0835V89.3335C100 95.3741 95.1033 100.271 89.0626 100.271H35.9376C29.8968 100.271 25 95.3741 25 89.3335V58.0835C25 52.0428 29.8968 47.146 35.9376 47.146Z" fill="#6A4BFF"/>
<path d="M98.4374 62.771H85.9375C79.8969 62.7742 75.0025 67.6735 75.0056 73.7143C75.0088 79.7504 79.9013 84.6429 85.9375 84.6461H98.4374C99.3004 84.6461 100 83.9465 100 83.0835V64.3335C100 63.4705 99.3004 62.771 98.4374 62.771Z" fill="#C3CEEB"/>
<path d="M85.9375 78.396C88.5264 78.396 90.625 76.2973 90.625 73.7085C90.625 71.1197 88.5264 69.021 85.9375 69.021C83.3487 69.021 81.25 71.1197 81.25 73.7085C81.25 76.2973 83.3487 78.396 85.9375 78.396Z" fill="#0A2778"/>
</g>
<path d="M55.9925 126.549C30.0913 124.46 8.18961 107.179 0.381176 82.3021L2.28567 81.7324C9.90366 105.85 31.0436 122.561 56.1829 124.65L55.9925 126.549Z" fill="#8B9BC7"/>
<path opacity="0.2" d="M55.9925 126.549C30.0913 124.46 8.18961 107.179 0.381176 82.3021L2.28567 81.7324C9.90366 105.85 31.0436 122.561 56.1829 124.65L55.9925 126.549Z" fill="white"/>
<path d="M1.90451 45.8411L1.52588e-05 45.2714C6.0944 24.9519 21.7113 9.19005 41.8989 2.9233C55.04 -1.06463 68.5619 -1.06463 81.5125 3.493L80.9411 5.20212C68.3714 0.834381 55.2304 0.644481 42.4703 4.63241C23.0444 10.7093 7.80845 26.0913 1.90451 45.8411Z" fill="#8B9BC7"/>
<path opacity="0.2" d="M1.90451 45.8411L1.52588e-05 45.2714C6.0944 24.9519 21.7113 9.19005 41.8989 2.9233C55.04 -1.06463 68.5619 -1.06463 81.5125 3.493L80.9411 5.20212C68.3714 0.834381 55.2304 0.644481 42.4703 4.63241C23.0444 10.7093 7.80845 26.0913 1.90451 45.8411Z" fill="white"/>
<path d="M119.793 44.8914C115.413 30.6488 105.89 18.4951 93.1303 10.8991L94.0825 9.18994C107.224 17.1658 116.936 29.6993 121.507 44.3217L119.793 44.8914Z" fill="#8B9BC7"/>
<path opacity="0.2" d="M119.793 44.8914C115.413 30.6488 105.89 18.4951 93.1303 10.8991L94.0825 9.18994C107.224 17.1658 116.936 29.6993 121.507 44.3217L119.793 44.8914Z" fill="white"/>
<path d="M109.514 84.2664C119.61 84.9567 128.222 91.5824 131.381 101.233L130.642 101.464C127.56 92.1082 119.248 85.7008 109.448 85.0068L109.514 84.2664Z" fill="#8B9BC7"/>
<path opacity="0.2" d="M109.514 84.2664C119.61 84.9567 128.222 91.5824 131.381 101.233L130.642 101.464C127.56 92.1082 119.248 85.7008 109.448 85.0068L109.514 84.2664Z" fill="white"/>
<path d="M130.961 115.44L131.705 115.653C129.428 123.595 123.421 129.807 115.589 132.343C110.491 133.959 105.225 134.023 100.16 132.31L100.374 131.642C105.29 133.283 110.409 133.294 115.359 131.681C122.895 129.222 128.755 123.159 130.961 115.44Z" fill="#8B9BC7"/>
<path opacity="0.2" d="M130.961 115.44L131.705 115.653C129.428 123.595 123.421 129.807 115.589 132.343C110.491 133.959 105.225 134.023 100.16 132.31L100.374 131.642C105.29 133.283 110.409 133.294 115.359 131.681C122.895 129.222 128.755 123.159 130.961 115.44Z" fill="white"/>
<path d="M85.0558 116.37C86.8293 121.896 90.5955 126.583 95.6008 129.481L95.2381 130.151C90.0826 127.107 86.2405 122.273 84.391 116.6L85.0558 116.37Z" fill="#8B9BC7"/>
<path opacity="0.2" d="M85.0558 116.37C86.8293 121.896 90.5955 126.583 95.6008 129.481L95.2381 130.151C90.0826 127.107 86.2405 122.273 84.391 116.6L85.0558 116.37Z" fill="white"/>
<defs>
<clipPath id="clip0">
<rect width="75" height="75" fill="white" transform="translate(25 27)"/>
</clipPath>
</defs>
</svg>
