<svg width="60" height="60" viewBox="0 0 60 60" fill="none" xmlns="http://www.w3.org/2000/svg">
<path d="M48.75 32.4609C47.7792 32.4609 46.9922 33.248 46.9922 34.2188V44.1797H41.7188C40.748 44.1797 39.9609 44.9667 39.9609 45.9375C39.9609 46.9083 40.748 47.6953 41.7188 47.6953H48.75C49.7208 47.6953 50.5078 46.9083 50.5078 45.9375V34.2188C50.5078 33.248 49.7208 32.4609 48.75 32.4609Z" fill="#C3CEEB"/>
<path d="M11.25 27.5391C12.2208 27.5391 13.0078 26.752 13.0078 25.7812V15.8203H18.2812C19.252 15.8203 20.0391 15.0333 20.0391 14.0625C20.0391 13.0917 19.252 12.3047 18.2812 12.3047H11.25C10.2792 12.3047 9.49219 13.0917 9.49219 14.0625V25.7812C9.49219 26.752 10.2792 27.5391 11.25 27.5391Z" fill="#C3CEEB"/>
<path d="M34.5703 42.4219H28.7109C26.7693 42.4219 25.1953 43.9958 25.1953 45.9375C25.1953 47.8792 26.7693 49.4531 28.7109 49.4531H34.5703C35.5411 49.4531 36.3281 48.6661 36.3281 47.6953V44.1797C36.3281 43.2089 35.5411 42.4219 34.5703 42.4219Z" fill="#C3CEEB"/>
<path d="M28.7109 37.9062C24.2816 37.9062 20.6797 41.5082 20.6797 45.9375C20.6797 50.3668 24.2816 53.9688 28.7109 53.9688H32.9844V54.7266C32.9844 57.0821 31.0664 59 28.7109 59H5.27344C2.91795 59 1 57.0821 1 54.7266V37.1484C1 34.7929 2.91795 32.875 5.27344 32.875H28.7109C31.0664 32.875 32.9844 34.7929 32.9844 37.1484V37.9062H28.7109Z" stroke="#C3CEEB" stroke-width="2"/>
<path d="M58.2422 10.5469H52.3828C50.4411 10.5469 48.8672 12.1208 48.8672 14.0625C48.8672 16.0042 50.4411 17.5781 52.3828 17.5781H58.2422C59.213 17.5781 60 16.7911 60 15.8203V12.3047C60 11.3339 59.213 10.5469 58.2422 10.5469Z" fill="#C3CEEB"/>
<path d="M52.3828 6.03125C47.9535 6.03125 44.3516 9.63318 44.3516 14.0625C44.3516 18.4918 47.9535 22.0938 52.3828 22.0938H56.6562V22.8516C56.6562 25.2071 54.7383 27.125 52.3828 27.125H28.9453C26.5898 27.125 24.6719 25.2071 24.6719 22.8516V5.27344C24.6719 2.91795 26.5898 1 28.9453 1H52.3828C54.7383 1 56.6562 2.91795 56.6562 5.27344V6.03125H52.3828Z" stroke="#C3CEEB" stroke-width="2"/>
</svg>
