<svg  viewBox="0 0 46 46" fill="#FA3B33" xmlns="http://www.w3.org/2000/svg">
<path d="M23 46C27.549 46 31.9958 44.6511 35.7781 42.1238C39.5604 39.5965 42.5084 36.0044 44.2492 31.8017C45.99 27.599 46.4455 22.9745 45.5581 18.5129C44.6706 14.0514 42.4801 9.95316 39.2634 6.73655C36.0468 3.51995 31.9486 1.32941 27.4871 0.441949C23.0255 -0.445511 18.401 0.00996548 14.1983 1.75078C9.99558 3.4916 6.40347 6.43956 3.8762 10.2219C1.34893 14.0042 0 18.451 0 23C0.000120451 29.0999 2.42337 34.95 6.73668 39.2633C11.05 43.5766 16.9001 45.9999 23 46ZM8.7952 8.79521C12.0816 5.50887 16.4057 3.4637 21.0309 3.00817C25.6562 2.55264 30.2962 3.71493 34.1606 6.297C38.0249 8.87907 40.8744 12.7212 42.2235 17.1686C43.5726 21.6161 43.3379 26.3938 41.5593 30.6876C39.7808 34.9814 36.5684 38.5257 32.4696 40.7165C28.3708 42.9074 23.6391 43.6093 19.0808 42.7026C14.5225 41.7959 10.4196 39.3367 7.47125 35.744C4.52285 32.1514 2.91136 27.6476 2.91136 23C2.90756 20.3614 3.42544 17.748 4.43521 15.3102C5.44497 12.8724 6.92671 10.6583 8.7952 8.79521Z" />
<path d="M15.878 31.8896L23.0005 24.7671L30.1231 31.8896C30.3961 32.1626 30.7663 32.316 31.1524 32.316C31.5385 32.316 31.9087 32.1626 32.1817 31.8896C32.4547 31.6166 32.6081 31.2464 32.6081 30.8603C32.6081 30.4742 32.4547 30.104 32.1817 29.831L25.0592 22.7084L31.5983 16.1692C31.7335 16.0341 31.8407 15.8736 31.9139 15.697C31.987 15.5204 32.0247 15.3311 32.0247 15.1399C32.0247 14.9487 31.987 14.7594 31.9139 14.5828C31.8407 14.4062 31.7335 14.2457 31.5983 14.1106C31.4631 13.9754 31.3027 13.8682 31.126 13.795C30.9494 13.7219 30.7601 13.6842 30.569 13.6842C30.3778 13.6842 30.1885 13.7219 30.0119 13.795C29.8353 13.8682 29.6748 13.9754 29.5396 14.1106L23.0005 20.6497L16.4614 14.1106C16.1884 13.8376 15.8181 13.6842 15.432 13.6842C15.046 13.6842 14.6757 13.8376 14.4027 14.1106C14.1297 14.3836 13.9763 14.7538 13.9763 15.1399C13.9763 15.526 14.1297 15.8962 14.4027 16.1692L20.9418 22.7084L13.8193 29.831C13.5463 30.104 13.3929 30.4742 13.3929 30.8603C13.3929 31.0515 13.4306 31.2408 13.5037 31.4174C13.5769 31.594 13.6841 31.7545 13.8193 31.8896C13.9545 32.0248 14.1149 32.132 14.2916 32.2052C14.4682 32.2783 14.6575 32.316 14.8486 32.316C15.2347 32.316 15.605 32.1626 15.878 31.8896Z" />
</svg>
