<svg width="18" height="18" viewBox="0 0 18 18" fill="none" xmlns="http://www.w3.org/2000/svg">
<path d="M1.42573 17.1363H16.5811C17.6408 17.1363 18.3231 16.0185 17.844 15.0749L10.2663 1.64707C9.7436 0.602019 8.24853 0.602019 7.72594 1.64707L0.148272 15.0749C-0.316259 16.0185 0.366021 17.1363 1.42573 17.1363ZM10.1939 14.0152C10.1939 14.712 9.68582 15.2491 8.95999 15.2491C8.23416 15.2491 7.72608 14.712 7.72608 14.0152V13.9862C7.72608 13.2894 8.23416 12.7523 8.95999 12.7523C9.68582 12.7523 10.1939 13.2894 10.1939 13.9862V14.0152ZM8.29208 4.94234H9.71486C10.1067 4.94234 10.3391 5.27622 10.2955 5.6972L9.67116 11.1554C9.62761 11.5474 9.36631 11.7942 9.0034 11.7942C8.64048 11.7942 8.37918 11.5474 8.33563 11.1554L7.71127 5.6972C7.66787 5.27622 7.90028 4.94234 8.29208 4.94234Z" fill="#FF5722"/>
</svg>
