<svg width="13" height="13" viewBox="0 0 13 13" fill="none" xmlns="http://www.w3.org/2000/svg">
    <g clip-path="url(#clip0_18774_3480)">
        <path d="M6.73242 12.9923C7.72653 12.8511 8.59801 11.8135 9.1464 10.2812C8.35365 10.1037 7.54468 10.0084 6.73242 9.99704V12.9923Z" fill="#00A3FF"/>
        <path d="M8.32071 12.7486C8.37947 12.7316 8.43801 12.7145 8.49609 12.6956C8.5451 12.6799 8.59342 12.6628 8.64175 12.6459C8.69893 12.6262 8.75588 12.6059 8.8126 12.5843C8.86093 12.566 8.9088 12.5465 8.95679 12.5269C9.01215 12.5037 9.06739 12.4805 9.12207 12.4573C9.16983 12.4363 9.21725 12.4143 9.26467 12.3922C9.31833 12.3669 9.37176 12.3411 9.42474 12.3143C9.47125 12.2906 9.51765 12.2665 9.56416 12.2416C9.61623 12.2137 9.66796 12.1852 9.71935 12.156C9.76587 12.1297 9.81068 12.1032 9.85594 12.076C9.90631 12.045 9.95645 12.0141 10.0063 11.9831C10.0508 11.9547 10.0953 11.9259 10.1392 11.8962C10.1882 11.8632 10.2365 11.8288 10.2846 11.7944C10.3279 11.7635 10.3709 11.7326 10.4131 11.7015C10.4596 11.6657 10.5072 11.6286 10.5538 11.5914C10.5953 11.5584 10.6365 11.5256 10.6773 11.4916C10.7237 11.4531 10.7681 11.4131 10.8132 11.3732C10.8527 11.3382 10.8924 11.3034 10.9309 11.2675C10.9753 11.2261 11.0185 11.1832 11.0617 11.1406C11.0992 11.1037 11.1371 11.0673 11.1737 11.0294C11.1805 11.0223 11.187 11.0147 11.194 11.0075C10.6873 10.7458 10.1535 10.5403 9.60205 10.3949C9.31527 11.3095 8.80488 12.1383 8.11719 12.806C8.13602 12.8011 8.15485 12.7972 8.17368 12.7923C8.22337 12.7783 8.27215 12.763 8.32071 12.7486Z" fill="#00A3FF"/>
        <path d="M13 6.7377H10.2142C10.2037 7.8254 10.0459 8.90664 9.74512 9.95203C10.3584 10.1158 10.9502 10.3514 11.5084 10.6537C12.4248 9.54919 12.9494 8.17209 13 6.7377Z" fill="#00A3FF"/>
        <path d="M6.73242 6.27301H9.7497C9.7379 5.22376 9.58396 4.18098 9.29229 3.17303C8.45212 3.36464 7.59403 3.46697 6.73242 3.47831V6.27301Z" fill="#00A3FF"/>
        <path d="M6.73242 0.0184021V3.01367C7.54468 3.00221 8.35365 2.90703 9.1464 2.72949C8.59801 1.1972 7.72653 0.15964 6.73242 0.0184021Z" fill="#00A3FF"/>
        <path d="M6.73242 9.53241C7.59403 9.54387 8.45212 9.64619 9.29229 9.8378C9.58396 8.82985 9.7379 7.78695 9.7497 6.7377H6.73242V9.53241Z" fill="#00A3FF"/>
        <path d="M11.5084 2.35703C10.9502 2.65935 10.3584 2.89486 9.74512 3.05868C10.0459 4.10407 10.2037 5.1853 10.2142 6.273H13C12.9493 4.83873 12.4247 3.46163 11.5084 2.35703Z" fill="#00A3FF"/>
        <path d="M11.1944 2.00458C11.1876 1.99766 11.1811 1.99017 11.1744 1.98303C11.1377 1.94514 11.0995 1.90861 11.0621 1.87174C11.019 1.8292 10.976 1.7862 10.9315 1.74491C10.8931 1.70906 10.8533 1.67514 10.8138 1.6394C10.7687 1.59947 10.7237 1.5592 10.6774 1.52063C10.6373 1.48671 10.5961 1.45426 10.5552 1.42171C10.5087 1.38404 10.4611 1.3466 10.4132 1.31064C10.3712 1.27899 10.3287 1.24836 10.2859 1.21773C10.2374 1.18279 10.1886 1.14796 10.1391 1.11472C10.0957 1.08546 10.0515 1.05687 10.0074 1.02885C9.95716 0.996516 9.90701 0.964865 9.85585 0.934235C9.81104 0.907349 9.76578 0.880803 9.7204 0.855051C9.66844 0.825329 9.61637 0.796514 9.56384 0.76838C9.51733 0.745124 9.47093 0.719826 9.42442 0.69657C9.37099 0.66957 9.3171 0.643591 9.26185 0.618066C9.21534 0.595945 9.16815 0.57439 9.12028 0.553403C9.06525 0.529012 9.00967 0.507004 8.95419 0.483748C8.90632 0.464236 8.85867 0.44495 8.81034 0.426572C8.75396 0.405018 8.69679 0.384825 8.63961 0.365086C8.59128 0.348069 8.54296 0.331166 8.49395 0.315284C8.43586 0.296452 8.37778 0.279322 8.31811 0.262078C8.26978 0.247898 8.22123 0.23349 8.17233 0.220558C8.15361 0.215453 8.13455 0.211482 8.11572 0.206604C8.80342 0.874337 9.3137 1.70305 9.6006 2.61775C10.1526 2.47231 10.6872 2.26675 11.1944 2.00458Z" fill="#00A3FF"/>
        <path d="M0 6.273H2.78573C2.79628 5.1853 2.95408 4.10407 3.25471 3.05868C2.64155 2.89498 2.04971 2.65947 1.49156 2.35703C0.575162 3.46152 0.0505961 4.83873 0 6.273Z" fill="#00A3FF"/>
        <path d="M6.26749 12.9923V9.99704C5.45523 10.0085 4.64626 10.1037 3.85352 10.2812C4.40179 11.8135 5.27338 12.8511 6.26749 12.9923Z" fill="#00A3FF"/>
        <path d="M6.26776 6.7377H3.25049C3.26229 7.78695 3.41612 8.82985 3.7079 9.8378C4.54806 9.64608 5.40604 9.54375 6.26776 9.53241V6.7377Z" fill="#00A3FF"/>
        <path d="M6.26749 0.0184021C5.27338 0.15964 4.40179 1.1972 3.85352 2.72949C4.64626 2.90715 5.45523 3.00232 6.26749 3.01367V0.0184021Z" fill="#00A3FF"/>
        <path d="M6.26776 3.47831C5.40615 3.46697 4.54806 3.36464 3.7079 3.17303C3.41612 4.18098 3.26229 5.22376 3.25049 6.27301H6.26776V3.47831Z" fill="#00A3FF"/>
        <path d="M4.88231 0.20639C4.86347 0.211268 4.84464 0.215239 4.82581 0.220117C4.77658 0.233277 4.72802 0.247911 4.67901 0.262091C4.6207 0.279108 4.56285 0.296238 4.50431 0.314843C4.45496 0.330839 4.40641 0.347855 4.35785 0.364759C4.30102 0.384838 4.24407 0.404804 4.1878 0.426132C4.13925 0.444737 4.09137 0.464022 4.04327 0.483761C3.98802 0.507017 3.93266 0.530274 3.8781 0.553416C3.83022 0.574403 3.78292 0.596411 3.7355 0.618533C3.68184 0.643831 3.62841 0.669583 3.57543 0.696356C3.52892 0.720066 3.4824 0.744343 3.43601 0.769074C3.38393 0.796981 3.33232 0.825569 3.28104 0.854837C3.23453 0.880816 3.18881 0.907475 3.144 0.934702C3.09352 0.965105 3.0436 0.996529 2.99391 1.02761C2.94922 1.0562 2.90486 1.08502 2.86096 1.11474C2.81195 1.14775 2.76362 1.18212 2.71552 1.2165C2.6723 1.24747 2.6293 1.27832 2.58699 1.30952C2.53946 1.34526 2.49408 1.38247 2.4462 1.41956C2.40491 1.45257 2.36328 1.48536 2.32289 1.51951C2.27638 1.55785 2.23225 1.59756 2.18744 1.63726C2.14773 1.67266 2.10769 1.70703 2.06889 1.74367C2.02476 1.78485 1.98176 1.82762 1.93866 1.87005C1.90122 1.90703 1.8631 1.94356 1.82635 1.98157C1.81965 1.9886 1.81319 1.99631 1.80615 2.00346C2.31279 2.26529 2.84666 2.47074 3.39812 2.61617C3.6849 1.70204 4.19495 0.873783 4.88231 0.20639Z" fill="#00A3FF"/>
        <path d="M1.93748 11.1389C1.9807 11.1815 2.02369 11.2245 2.06805 11.2659C2.10662 11.3016 2.14633 11.3355 2.18592 11.3713C2.23096 11.4113 2.27599 11.4515 2.32228 11.49C2.36244 11.5237 2.40339 11.5563 2.44446 11.589C2.49097 11.6266 2.53737 11.6641 2.5866 11.7002C2.62846 11.7317 2.67101 11.7621 2.71355 11.7933C2.7621 11.8281 2.81111 11.8629 2.86057 11.8964C2.90402 11.9257 2.94815 11.9542 2.99228 11.9824C3.04254 12.0146 3.09268 12.0462 3.14384 12.0769C3.18865 12.1039 3.23392 12.1303 3.27929 12.1562C3.33125 12.1859 3.38332 12.2147 3.43585 12.2427C3.48224 12.266 3.52876 12.2913 3.57527 12.3145C3.6287 12.3415 3.68259 12.3675 3.73783 12.3932C3.78435 12.4151 3.83154 12.4366 3.87941 12.4577C3.93443 12.4821 3.98991 12.5041 4.04549 12.5274C4.09337 12.5469 4.14101 12.5662 4.18934 12.5845C4.24572 12.6062 4.3029 12.6264 4.36007 12.6461C4.4084 12.663 4.45673 12.6801 4.50574 12.6958C4.56382 12.7147 4.6219 12.7319 4.68158 12.749C4.7299 12.7632 4.77846 12.7776 4.82724 12.7907C4.84607 12.7958 4.86513 12.7997 4.88396 12.8046C4.19626 12.1368 3.68599 11.3081 3.39909 10.3934C2.84764 10.5389 2.31377 10.7444 1.80713 11.0063C1.81394 11.0132 1.8204 11.0207 1.82721 11.0279C1.86204 11.0655 1.89959 11.1021 1.93748 11.1389Z" fill="#00A3FF"/>
        <path d="M1.49156 10.6537C2.04971 10.3514 2.64155 10.1158 3.25471 9.95203C2.95408 8.90664 2.79628 7.8254 2.78573 6.7377H0C0.0507095 8.17198 0.575162 9.54908 1.49156 10.6537Z" fill="#00A3FF"/>
    </g>
    <defs>
        <clipPath id="clip0_18774_3480">
            <rect width="13" height="13" fill="white"/>
        </clipPath>
    </defs>
</svg>
