<svg width="42" height="38" viewBox="0 0 42 38" fill="none" xmlns="http://www.w3.org/2000/svg">
<path d="M32.202 36.6294L7.64683 8.37388C7.26182 7.9247 7.3046 7.25093 7.75378 6.86592L14.2027 1.26187C14.6519 0.876854 15.3257 0.919633 15.7107 1.36881L40.2659 29.6244C40.6509 30.0736 40.6081 30.7473 40.1589 31.1323L33.6993 36.7471C33.2608 37.1214 32.587 37.0786 32.202 36.6294Z" fill="#F0F3FD" stroke="#F0F3FD" stroke-miterlimit="10"/>
<path d="M16.6973 8.13863C16.6973 9.32731 15.7337 10.2909 14.545 10.2909C13.3563 10.2909 12.3927 9.32731 12.3927 8.13863C12.3927 6.94995 13.3563 5.98633 14.545 5.98633C15.7337 5.98633 16.6973 6.94995 16.6973 8.13863Z" fill="#F0F3FD" stroke="#C3CEEB"/>
<path d="M14.5448 5.51832C15.9886 5.51832 17.165 6.69474 17.165 8.13853C17.165 9.58233 15.9886 10.7588 14.5448 10.7588C13.101 10.7588 11.9246 9.58233 11.9246 8.13853C11.9246 6.69474 13.101 5.51832 14.5448 5.51832ZM14.5448 5.46484C13.0689 5.46484 11.8711 6.66266 11.8711 8.13853C11.8711 9.61441 13.0689 10.8122 14.5448 10.8122C16.0207 10.8122 17.2185 9.61441 17.2185 8.13853C17.2185 6.66266 16.0207 5.46484 14.5448 5.46484Z" fill="#C3CEEB"/>
<g style="mix-blend-mode:screen" opacity="0.5">
<path d="M25.9453 27.2396L14.8013 14.4273C14.7265 14.3418 14.7372 14.2027 14.8227 14.1279L20.4803 9.20827C20.5658 9.1334 20.7049 9.1441 20.7797 9.22966L31.9237 22.0527C31.9985 22.1382 31.9878 22.2773 31.9023 22.3521L26.2447 27.2717C26.1485 27.3466 26.0201 27.3359 25.9453 27.2396Z" fill="#C3CEEB"/>
</g>
<path d="M0.0533752 35.143V24.5552H33.1537C36.0733 24.5552 38.4476 26.9294 38.4476 29.8491C38.4476 32.7688 36.0733 35.143 33.1537 35.143H0.0533752Z" fill="white"/>
<mask id="path-6-inside-1" fill="white">
<path d="M33.1538 24.6084C36.0413 24.6084 38.3942 26.9613 38.3942 29.8488C38.3942 32.7364 36.0413 35.0893 33.1538 35.0893H0.106948V24.6084H33.1538ZM33.1538 24.5015H0V35.1962H33.1538C36.1055 35.1962 38.5011 32.8006 38.5011 29.8488C38.5011 26.8971 36.1055 24.5015 33.1538 24.5015Z"/>
</mask>
<path d="M33.1538 24.6084C36.0413 24.6084 38.3942 26.9613 38.3942 29.8488C38.3942 32.7364 36.0413 35.0893 33.1538 35.0893H0.106948V24.6084H33.1538ZM33.1538 24.5015H0V35.1962H33.1538C36.1055 35.1962 38.5011 32.8006 38.5011 29.8488C38.5011 26.8971 36.1055 24.5015 33.1538 24.5015Z" fill="black"/>
<path d="M0.106948 35.0893H-0.893052V36.0893H0.106948V35.0893ZM0.106948 24.6084V23.6084H-0.893052V24.6084H0.106948ZM0 24.5015V23.5015H-1V24.5015H0ZM0 35.1962H-1V36.1962H0V35.1962ZM33.1538 25.6084C35.4891 25.6084 37.3942 27.5135 37.3942 29.8488H39.3942C39.3942 26.409 36.5936 23.6084 33.1538 23.6084V25.6084ZM37.3942 29.8488C37.3942 32.1841 35.4891 34.0893 33.1538 34.0893V36.0893C36.5936 36.0893 39.3942 33.2887 39.3942 29.8488H37.3942ZM33.1538 34.0893H0.106948V36.0893H33.1538V34.0893ZM1.10695 35.0893V24.6084H-0.893052V35.0893H1.10695ZM0.106948 25.6084H33.1538V23.6084H0.106948V25.6084ZM33.1538 23.5015H0V25.5015H33.1538V23.5015ZM-1 24.5015V35.1962H1V24.5015H-1ZM0 36.1962H33.1538V34.1962H0V36.1962ZM33.1538 36.1962C36.6578 36.1962 39.5011 33.3529 39.5011 29.8488H37.5011C37.5011 32.2483 35.5532 34.1962 33.1538 34.1962V36.1962ZM39.5011 29.8488C39.5011 26.3448 36.6578 23.5015 33.1538 23.5015V25.5015C35.5532 25.5015 37.5011 27.4494 37.5011 29.8488H39.5011Z" fill="#F0F3FD" mask="url(#path-6-inside-1)"/>
<path d="M32.6193 32.5759C34.0664 32.5759 35.2395 31.4028 35.2395 29.9557C35.2395 28.5086 34.0664 27.3354 32.6193 27.3354C31.1722 27.3354 29.9991 28.5086 29.9991 29.9557C29.9991 31.4028 31.1722 32.5759 32.6193 32.5759Z" fill="white"/>
<mask id="path-9-inside-2" fill="white">
<path d="M32.6192 27.3892C34.0309 27.3892 35.186 28.5442 35.186 29.9559C35.186 31.3676 34.0309 32.5227 32.6192 32.5227C31.2075 32.5227 30.0525 31.3676 30.0525 29.9559C30.0525 28.5442 31.2075 27.3892 32.6192 27.3892ZM32.6192 27.2822C31.1433 27.2822 29.9455 28.48 29.9455 29.9559C29.9455 31.4318 31.1433 32.6296 32.6192 32.6296C34.0951 32.6296 35.2929 31.4318 35.2929 29.9559C35.2929 28.48 34.0951 27.2822 32.6192 27.2822Z"/>
</mask>
<path d="M32.6192 27.3892C34.0309 27.3892 35.186 28.5442 35.186 29.9559C35.186 31.3676 34.0309 32.5227 32.6192 32.5227C31.2075 32.5227 30.0525 31.3676 30.0525 29.9559C30.0525 28.5442 31.2075 27.3892 32.6192 27.3892ZM32.6192 27.2822C31.1433 27.2822 29.9455 28.48 29.9455 29.9559C29.9455 31.4318 31.1433 32.6296 32.6192 32.6296C34.0951 32.6296 35.2929 31.4318 35.2929 29.9559C35.2929 28.48 34.0951 27.2822 32.6192 27.2822Z" fill="black"/>
<path d="M32.6192 28.3892C33.4786 28.3892 34.186 29.0965 34.186 29.9559H36.186C36.186 27.9919 34.5832 26.3892 32.6192 26.3892V28.3892ZM34.186 29.9559C34.186 30.8153 33.4786 31.5227 32.6192 31.5227V33.5227C34.5832 33.5227 36.186 31.9199 36.186 29.9559H34.186ZM32.6192 31.5227C31.7598 31.5227 31.0525 30.8153 31.0525 29.9559H29.0525C29.0525 31.9199 30.6552 33.5227 32.6192 33.5227V31.5227ZM31.0525 29.9559C31.0525 29.0965 31.7598 28.3892 32.6192 28.3892V26.3892C30.6552 26.3892 29.0525 27.9919 29.0525 29.9559H31.0525ZM32.6192 26.2822C30.5911 26.2822 28.9455 27.9278 28.9455 29.9559H30.9455C30.9455 29.0323 31.6956 28.2822 32.6192 28.2822V26.2822ZM28.9455 29.9559C28.9455 31.9841 30.5911 33.6296 32.6192 33.6296V31.6296C31.6956 31.6296 30.9455 30.8795 30.9455 29.9559H28.9455ZM32.6192 33.6296C34.6474 33.6296 36.2929 31.9841 36.2929 29.9559H34.2929C34.2929 30.8795 33.5428 31.6296 32.6192 31.6296V33.6296ZM36.2929 29.9559C36.2929 27.9278 34.6474 26.2822 32.6192 26.2822V28.2822C33.5428 28.2822 34.2929 29.0323 34.2929 29.9559H36.2929Z" fill="#C3CEEB" mask="url(#path-9-inside-2)"/>
<path d="M27.3536 18.9926L23.4248 14.472C23.2485 14.2692 22.9411 14.2476 22.7383 14.4239C22.5354 14.6002 22.5139 14.9076 22.6902 15.1105L26.619 19.631C26.7953 19.8339 27.1027 19.8554 27.3055 19.6791C27.5084 19.5028 27.5299 19.1954 27.3536 18.9926Z" fill="#C3CEEB"/>
<path d="M25.4015 22.0706L20.0905 15.9598C19.9142 15.757 19.6069 15.7354 19.404 15.9117C19.2012 16.088 19.1796 16.3954 19.3559 16.5983L24.6669 22.7091C24.8432 22.9119 25.1505 22.9334 25.3534 22.7571C25.5562 22.5808 25.5777 22.2735 25.4015 22.0706Z" fill="#C3CEEB"/>
<path d="M27.6991 22.0311L20.1081 13.2967C19.9318 13.0939 19.6244 13.0724 19.4216 13.2487C19.2187 13.425 19.1972 13.7323 19.3735 13.9352L26.9645 22.6695C27.1408 22.8724 27.4482 22.8939 27.651 22.7176C27.8539 22.5413 27.8754 22.2339 27.6991 22.0311Z" fill="#C3CEEB"/>
</svg>
