<svg width="28" height="28" viewBox="0 0 28 28" fill="none" xmlns="http://www.w3.org/2000/svg">
<rect width="28" height="28" rx="14" fill="black" fill-opacity="0.35"/>
<path fill-rule="evenodd" clip-rule="evenodd" d="M10.0061 8.82739C9.68065 8.50195 9.15301 8.50195 8.82757 8.82739C8.50214 9.15283 8.50214 9.68046 8.82757 10.0059L12.8217 14L8.82757 17.9941C8.50214 18.3195 8.50214 18.8471 8.82757 19.1726C9.15301 19.498 9.68065 19.498 10.0061 19.1726L14.0002 15.1785L17.9942 19.1726C18.3197 19.498 18.8473 19.498 19.1728 19.1726C19.4982 18.8471 19.4982 18.3195 19.1728 17.9941L15.1787 14L19.1728 10.0059C19.4982 9.68046 19.4982 9.15283 19.1728 8.82739C18.8473 8.50195 18.3197 8.50195 17.9942 8.82739L14.0002 12.8215L10.0061 8.82739Z" fill="white"/>
</svg>
