<svg width="19" height="19" viewBox="0 0 19 19" fill="none" xmlns="http://www.w3.org/2000/svg">
<path d="M9.51964 1.21188C8.49417 1.21188 7.66266 4.93132 7.66266 9.51952C7.66266 14.1077 8.49417 17.8272 9.51964 17.8272C10.5451 17.8272 11.3766 14.1077 11.3766 9.51952C11.3766 4.93132 10.5451 1.21188 9.51964 1.21188ZM9.64785 17.3583C9.53059 17.5147 9.41332 17.3974 9.41332 17.3974C8.94105 16.8502 8.70492 15.8336 8.70492 15.8336C7.87888 13.1752 8.07549 7.46737 8.07549 7.46737C8.4637 2.93594 9.16989 1.86548 9.4102 1.62783C9.43475 1.60358 9.46705 1.58875 9.50148 1.58597C9.53583 1.5832 9.57011 1.59264 9.59823 1.61263C9.94691 1.85971 10.2394 2.893 10.2394 2.893C11.1029 6.09876 11.0247 9.10904 11.0247 9.10904C11.1029 11.7284 10.592 14.6605 10.592 14.6605C10.1987 16.8888 9.64785 17.3583 9.64785 17.3583Z" fill="#00A3FF"/>
<path d="M16.7256 5.38534C16.215 4.49553 12.5753 5.62535 8.59356 7.90854C4.61184 10.1917 1.80319 12.7641 2.31337 13.6535C2.82356 14.543 6.46366 13.4135 10.4454 11.1303C14.4271 8.84714 17.2357 6.27477 16.7256 5.38534ZM2.78442 13.5315C2.58895 13.5069 2.63311 13.3462 2.63311 13.3462C2.87289 12.6644 3.63593 11.9536 3.63593 11.9536C5.53159 9.9141 10.5807 7.2443 10.5807 7.2443C14.704 5.32591 15.9848 5.40685 16.3097 5.4963C16.3431 5.50561 16.372 5.52642 16.3915 5.55505C16.411 5.58368 16.4197 5.61827 16.4161 5.65271C16.377 6.07831 15.6244 6.84591 15.6244 6.84591C13.2751 9.19119 10.6249 10.6217 10.6249 10.6217C8.39178 11.9935 5.59422 13.0087 5.59422 13.0087C3.46553 13.7758 2.7845 13.5315 2.7845 13.5315H2.78442Z" fill="#00A3FF"/>
<path d="M16.7074 13.6832C17.2219 12.7957 14.4203 10.2115 10.4526 7.91118C6.48484 5.61081 2.84558 4.46701 2.33152 5.35599C1.81745 6.24496 4.61858 8.82759 8.58859 11.128C12.5586 13.4283 16.1933 14.5722 16.7074 13.6832ZM2.67245 5.6989C2.59645 5.5187 2.75689 5.47531 2.75689 5.47531C3.46718 5.34117 4.46491 5.64684 4.46491 5.64684C7.17925 6.26495 12.0193 9.29674 12.0193 9.29674C15.7458 11.9044 16.3173 13.053 16.403 13.379C16.4117 13.4124 16.4083 13.4479 16.3934 13.4791C16.3786 13.5103 16.3531 13.5352 16.3217 13.5495C15.9331 13.7274 14.8923 13.4623 14.8923 13.4623C11.6846 12.6022 9.11923 11.0263 9.11923 11.0263C6.81422 9.78314 4.53498 7.87022 4.53498 7.87022C2.80309 6.41201 2.67298 5.70087 2.67298 5.70087L2.67245 5.6989Z" fill="#00A3FF"/>
<path d="M9.50006 10.4775C10.0398 10.4775 10.4774 10.0399 10.4774 9.50013C10.4774 8.96037 10.0398 8.52277 9.50006 8.52277C8.96031 8.52277 8.52271 8.96037 8.52271 9.50013C8.52271 10.0399 8.96031 10.4775 9.50006 10.4775Z" fill="#00A3FF"/>
<path d="M13.5071 6.33329C13.8201 6.33329 14.074 6.07074 14.074 5.74688C14.074 5.42301 13.8201 5.16046 13.5071 5.16046C13.1939 5.16046 12.9402 5.42301 12.9402 5.74688C12.9402 6.07074 13.1939 6.33329 13.5071 6.33329Z" fill="#00A3FF"/>
<path d="M4.20275 8.32713C4.51583 8.32713 4.76963 8.06455 4.76963 7.74071C4.76963 7.41685 4.51583 7.1543 4.20275 7.1543C3.88967 7.1543 3.63586 7.41685 3.63586 7.74071C3.63586 8.06455 3.88967 8.32713 4.20275 8.32713Z" fill="#00A3FF"/>
<path d="M8.34655 15.5205C8.65959 15.5205 8.91343 15.258 8.91343 14.9341C8.91343 14.6103 8.65959 14.3477 8.34655 14.3477C8.0335 14.3477 7.77966 14.6103 7.77966 14.9341C7.77966 15.258 8.0335 15.5205 8.34655 15.5205Z" fill="#00A3FF"/>
</svg>
