<svg width="20" height="20" viewBox="0 0 20 20" fill="none" xmlns="http://www.w3.org/2000/svg">
<path d="M0 16.4648L0 17.6367H14.1406V18.8086H17.6562V17.6367H20V16.4648H17.6562V15.293H14.1406V16.4648H0Z" fill="#F0F3FD"/>
<path d="M14.1406 2.36328L0 2.36328L0 3.53516L14.1406 3.53516V4.70703H17.6562V3.53516L20 3.53516V2.36328L17.6562 2.36328V1.19141H14.1406V2.36328Z" fill="#F0F3FD"/>
<path d="M0 7.05078L0 8.22266H8.67188V9.39453H12.1875V8.22266L20 8.22266V7.05078L12.1875 7.05078V5.87891L8.67188 5.87891V7.05078H0Z" fill="#F0F3FD"/>
<path d="M0 11.7773L0 12.9492H2.09578V14.1211H5.61141V12.9492L20 12.9492V11.7773L5.61141 11.7773V10.6055H2.09578V11.7773H0Z" fill="#F0F3FD"/>
</svg>
