<svg width="13" height="13" viewBox="0 0 13 13" fill="none" xmlns="http://www.w3.org/2000/svg">
<path d="M9.51698 6.37736C9.51698 8.09434 8.09434 9.51698 6.37736 9.46792C5.83774 9.46792 5.24906 9.32075 4.80755 9.02641L3.43396 10.4C5.69057 12.0679 8.83019 11.5774 10.4491 9.32076C11.7736 7.55472 11.7736 5.15094 10.4491 3.33584L9.07547 4.70943C9.36981 5.24905 9.51698 5.78868 9.51698 6.37736ZM9.36981 2.30566L7.99623 3.67925C6.52453 2.79623 4.61132 3.28679 3.7283 4.75849C3.13962 5.73962 3.13962 6.96604 3.7283 7.94717L2.35472 9.32076C0.735849 7.06415 1.17736 3.92453 3.43396 2.30566C5.2 1.03019 7.60377 1.03019 9.36981 2.30566ZM13 1.32453C13 2.06038 12.4113 2.64905 11.6755 2.64905C10.9396 2.64905 10.3509 2.06038 10.3509 1.32453C10.3509 0.588678 10.9396 0 11.6755 0C12.4113 0 13 0.588678 13 1.32453ZM2.64906 11.6755C2.64906 12.4113 2.06038 13 1.32453 13C0.588679 13 0 12.4113 0 11.6755C0 10.9396 0.588679 10.3509 1.32453 10.3509C2.06038 10.3509 2.64906 10.9396 2.64906 11.6755Z" fill="#00A3FF"/>
</svg>
