<svg width="25" height="13" viewBox="0 0 25 13" fill="none" xmlns="http://www.w3.org/2000/svg">
<path d="M24.7136 5.80879C24.7133 5.8085 24.713 5.80816 24.7127 5.80787L19.61 0.729745C19.2277 0.349326 18.6094 0.350741 18.2289 0.733065C17.8484 1.11534 17.8499 1.73365 18.2321 2.11412L21.6581 5.52349H0.976562C0.437207 5.52349 0 5.9607 0 6.50005C0 7.03941 0.437207 7.47662 0.976562 7.47662H21.6581L18.2322 10.886C17.8499 11.2665 17.8484 11.8848 18.2289 12.267C18.6094 12.6494 19.2278 12.6507 19.61 12.2704L24.7127 7.19224C24.713 7.19195 24.7133 7.19161 24.7136 7.19131C25.0961 6.80958 25.0949 6.18926 24.7136 5.80879Z" fill="black"/>
</svg>
