<svg width="8" height="10" viewBox="0 0 8 10" fill="none" xmlns="http://www.w3.org/2000/svg">
<path d="M3.75081 0.917613C2.67518 1.05195 1.8228 1.52884 1.34588 2.26097C1.09896 2.64047 1.05837 2.78824 1.05837 3.30208C1.05837 3.6883 1.06851 3.78569 1.13278 3.96705C1.29176 4.41371 1.59956 4.81001 2.02913 5.13241C2.23885 5.29026 3.15549 5.75036 3.49712 5.86791C3.64257 5.91828 3.98081 6.06941 4.25141 6.20039C4.65731 6.40189 4.77569 6.47914 4.96511 6.66049C5.22218 6.91237 5.3135 7.06686 5.36762 7.35568C5.45895 7.87288 5.16129 8.21543 4.42053 8.44381C3.84551 8.6218 3.03711 8.49754 2.2862 8.11804C2.10693 8.03072 1.67398 7.69824 1.43382 7.47323L1.27485 7.31874L1.08204 7.50009C0.973806 7.60085 0.88248 7.68481 0.875715 7.68816C0.787771 7.72175 1.41014 8.27253 1.79913 8.50426C2.39444 8.86361 2.73945 8.98451 3.40241 9.0819C3.81507 9.139 4.407 9.10205 4.94481 8.98115C6.12191 8.7192 6.96076 8.03072 7.16033 7.16761C7.22459 6.89222 7.18739 6.36159 7.08253 6.08284C6.78487 5.27011 6.15574 4.76971 4.57613 4.08795C3.75081 3.7286 3.18255 3.31887 2.9999 2.94945C2.88828 2.72779 2.8646 2.2912 2.94916 2.12328C3.03711 1.952 3.16564 1.8311 3.38888 1.70684C3.91655 1.41465 4.5626 1.41801 5.30674 1.71355C5.66866 1.85796 5.98323 2.0729 6.35192 2.42889C6.50751 2.57666 6.64281 2.69421 6.65634 2.69085C6.66649 2.68413 6.76458 2.60017 6.87282 2.50278L7.06562 2.32814L6.86943 2.11656C6.48722 1.70684 6.1625 1.46503 5.65513 1.20979C5.20188 0.984781 4.31568 0.850444 3.75081 0.917613ZM2.30988 2.26097C2.26252 2.5498 2.32679 2.87892 2.49253 3.23155C2.64812 3.5506 2.8646 3.78233 3.28741 4.07116C3.5208 4.23236 4.38333 4.66559 4.87717 4.87046C4.98879 4.91748 5.2763 5.0686 5.51307 5.20966C6.18618 5.60595 6.50075 5.99217 6.58869 6.52615C6.65972 6.97282 6.54472 7.33889 6.22339 7.67137C5.93926 7.97027 5.9122 7.97699 5.95617 7.74526C6.00014 7.50681 5.94264 7.13067 5.82087 6.81162C5.74308 6.61683 5.68219 6.53287 5.47248 6.32465C5.21203 6.06605 4.95834 5.8847 4.66745 5.73693C4.38671 5.59923 3.35168 5.14921 3.3077 5.14921C3.2502 5.14921 2.8849 4.96449 2.56356 4.76971C2.27605 4.59507 2.00884 4.35326 1.86339 4.14168C1.73486 3.95025 1.63339 3.50023 1.65706 3.20133C1.68412 2.81511 1.78221 2.60017 2.05958 2.30799C2.19149 2.1703 2.30988 2.05947 2.32003 2.05947C2.33356 2.05947 2.33017 2.15015 2.30988 2.26097Z" fill="#00A3FF"/>
</svg>
