<svg width="10" height="14" viewBox="0 0 10 14" fill="none" xmlns="http://www.w3.org/2000/svg">
<path d="M5.91942 14C5.03592 14 4.3733 13.7491 3.97573 13.2975C3.57816 12.7957 3.35728 12.2939 3.35728 11.7419C3.35728 11.5412 3.40146 11.3907 3.48981 11.2401C3.57816 11.0896 3.6665 10.9892 3.75485 10.9391C3.88738 10.8387 4.0199 10.7885 4.1966 10.7885C4.3733 10.7885 4.50583 10.8387 4.63835 10.9391C4.77087 11.0394 4.85922 11.1398 4.9034 11.2401C4.99175 11.3907 5.03592 11.5412 5.03592 11.7419C5.03592 11.9928 4.99175 12.1935 4.85922 12.3441C4.77087 12.4946 4.63835 12.595 4.50583 12.6452C4.63835 12.8459 4.81505 12.9462 5.0801 13.0466C5.34515 13.147 5.61019 13.1971 5.87524 13.1971C6.22864 13.1971 6.58204 13.0968 6.89126 12.8459C7.20049 12.6452 7.42136 12.2939 7.55388 11.8423C7.68641 11.3907 7.77476 10.8889 7.77476 10.3369C7.77476 9.73477 7.68641 9.23297 7.55388 8.78136C7.37718 8.32975 7.20049 8.02867 6.89126 7.82796C6.58204 7.62724 6.27282 7.52688 5.91942 7.52688C5.69854 7.52688 5.4335 7.62724 5.0801 7.82796L4.46165 8.17921V7.82796L7.24466 3.56272H3.35728V7.9785C3.35728 8.32975 3.44563 8.63082 3.57816 8.88172C3.71068 9.13262 3.93155 9.23298 4.24078 9.23298C4.46165 9.23298 4.68252 9.13262 4.9034 8.98208C5.12427 8.78136 5.30097 8.58064 5.4335 8.37993C5.47767 8.32975 5.47767 8.27957 5.52184 8.27957C5.56602 8.22939 5.56602 8.22939 5.61019 8.22939C5.65437 8.22939 5.74272 8.27957 5.78689 8.32975C5.87524 8.43011 5.87524 8.53046 5.87524 8.63082C5.87524 8.681 5.83107 8.78136 5.83107 8.83154C5.65437 9.23297 5.47767 9.53405 5.16845 9.78495C4.85922 10.0358 4.59417 10.086 4.24078 10.086C3.40146 10.086 2.82718 9.8853 2.47379 9.53405C2.16456 9.1828 1.98786 8.63082 1.98786 8.02867V3.6129H0V2.75986H1.98786V0.903225L1.54612 0.401433V0H2.87136L3.35728 0.301074V2.81003H8.48155L8.96747 3.36201L5.83107 6.92473C6.00777 6.82437 6.22864 6.77419 6.40534 6.77419C6.75874 6.77419 7.11214 6.92473 7.55388 7.12545C7.99563 7.37634 8.30485 7.67742 8.52573 8.12903C8.7466 8.53046 8.9233 8.9319 8.96747 9.33333C9.05583 9.73477 9.1 10.0358 9.1 10.3871C9.1 11.0896 8.96747 11.6918 8.70243 12.2939C8.43738 12.8961 8.08398 13.3477 7.55388 13.5986C7.06796 13.8495 6.53786 14 5.91942 14Z" fill="#00A3FF"/>
</svg>
