<svg width="17" height="17" viewBox="0 0 17 17" fill="none" xmlns="http://www.w3.org/2000/svg">
<path fill-rule="evenodd" clip-rule="evenodd" d="M16.0081 8.01611C16.0081 12.4344 12.4264 16.0161 8.00806 16.0161C3.58978 16.0161 0.00805664 12.4344 0.00805664 8.01611C0.00805664 3.59783 3.58978 0.0161133 8.00806 0.0161133C12.4264 0.0161133 16.0081 3.59783 16.0081 8.01611ZM5.74109 11.1997H4.18851C3.86227 11.1997 3.70112 11.1997 3.60286 11.1369C3.49673 11.068 3.43188 10.9541 3.42401 10.8283C3.41811 10.7124 3.4987 10.5708 3.65985 10.2878L7.49335 3.53073C7.65647 3.2438 7.73901 3.10033 7.84317 3.04727C7.95519 2.99028 8.08884 2.99028 8.20086 3.04727C8.30502 3.10033 8.38756 3.2438 8.55067 3.53073L9.33876 4.90644L9.34278 4.91346C9.51896 5.22128 9.6083 5.37738 9.64731 5.54122C9.69054 5.72006 9.69054 5.90873 9.64731 6.08757C9.608 6.25265 9.51957 6.40988 9.34072 6.72236L7.32708 10.2819L7.32187 10.291C7.14453 10.6014 7.05465 10.7587 6.93009 10.8774C6.79449 11.0071 6.63137 11.1014 6.45252 11.1545C6.2894 11.1997 6.10664 11.1997 5.74109 11.1997ZM9.66185 11.1997H11.8865C12.2147 11.1997 12.3798 11.1997 12.4782 11.1349C12.5843 11.0661 12.651 10.9501 12.657 10.8244C12.6627 10.7123 12.5838 10.5762 12.4294 10.3097C12.424 10.3006 12.4187 10.2914 12.4133 10.282L11.2989 8.37563L11.2862 8.35417C11.1297 8.08937 11.0506 7.95565 10.9491 7.90396C10.8371 7.84696 10.7054 7.84696 10.5934 7.90396C10.4912 7.95702 10.4087 8.09656 10.2455 8.37759L9.13515 10.2839L9.13135 10.2905C8.9688 10.5711 8.88757 10.7113 8.89343 10.8263C8.90129 10.9521 8.96614 11.068 9.07226 11.1369C9.16857 11.1997 9.33365 11.1997 9.66185 11.1997Z" fill="#6B93C0"/>
</svg>
