<svg width="60" height="56" viewBox="0 0 60 56" fill="none" xmlns="http://www.w3.org/2000/svg">
<path d="M32.13 43.3655C31.7271 43.3384 31.7271 43.1488 31.7271 43.0134C31.7271 42.8237 31.8076 42.4445 32.1031 41.8214L32.3986 41.0087C32.4791 40.7108 32.506 40.3857 32.506 40.0877C32.506 37.9476 30.787 36.2139 28.665 36.2139C26.5431 36.2139 24.824 37.9476 24.824 40.0606C24.824 40.3857 24.8509 40.6837 24.9315 40.9817L25.2269 41.7943C25.4687 42.2549 25.5761 42.6612 25.5761 42.9321C25.5761 43.1488 25.5224 43.203 25.4418 43.2572C25.3612 43.3114 25.2538 43.3384 25.1195 43.3384H15.6111C15.4768 43.3384 15.3693 43.2572 15.3425 43.1217C15.3425 43.0946 15.3425 43.0946 15.3425 43.0676L15.3693 33.2882C15.3962 32.8818 15.5842 32.8818 15.7185 32.8818C15.9334 32.8818 16.2826 32.8548 16.9272 33.1527L17.733 33.5591C18.0285 33.6404 18.3508 33.6674 18.6462 33.6674C20.7682 33.6674 22.4872 31.9337 22.4872 29.8207C22.4872 27.6806 20.7682 25.9469 18.6462 25.9469C18.3239 25.9469 18.0285 25.974 17.733 26.0552L16.9272 26.4074C16.4706 26.6512 16.0677 26.7596 15.7991 26.7596C15.5842 26.7596 15.5305 26.7054 15.4768 26.6241C15.423 26.5429 15.3962 26.4345 15.3962 26.2991L15.423 16.601C15.423 16.5739 15.423 16.5739 15.423 16.5468C15.4499 16.4113 15.5573 16.3301 15.6916 16.3301L25.3881 16.3571C25.8984 16.303 26.2745 16.0863 26.4625 15.7341C26.7042 15.3007 26.6505 14.7047 26.3551 13.9733H26.3819L26.167 13.5669C25.9522 13.1335 25.8447 12.673 25.8447 12.1853C25.791 10.56 27.134 9.20548 28.7725 9.20548C30.4378 9.20548 31.7539 10.56 31.7539 12.2124C31.7539 12.7 31.6465 13.1606 31.4316 13.5669L31.2167 13.9733H31.2436C30.9213 14.7589 30.8675 15.3277 31.1093 15.7612C31.2436 16.005 31.539 16.303 32.1568 16.3571L41.8801 16.3842C41.9607 16.3842 42.0144 16.4113 42.0682 16.4655C42.1219 16.5197 42.1487 16.5739 42.1487 16.6551L42.1219 26.4074C42.1756 27.193 42.6591 27.6535 43.3843 27.6535C43.6798 27.6535 44.0289 27.5723 44.4318 27.4097V27.4368L44.8885 27.193C45.3182 26.9763 45.7748 26.8679 46.2315 26.8679C47.8968 26.8679 49.2129 28.2224 49.2129 29.8749C49.2129 31.5274 47.8699 32.8818 46.2315 32.8818C45.748 32.8818 45.2914 32.7735 44.8616 32.5568L44.4587 32.34V32.3671C44.0021 32.1775 43.626 32.0691 43.3037 32.0691C42.6054 32.0691 42.1756 32.5026 42.095 33.2882L42.0682 43.0946C42.0682 43.2572 41.9339 43.3655 41.7996 43.3655H32.13Z" fill="#6A4BFF"/>
<path d="M29.5342 3.04448C40.7043 3.04448 50.1704 10.056 53.6728 19.743C54.0515 20.9423 55.0927 21.8649 56.418 21.8649C57.7432 21.8649 59.0685 21.3114 59.0685 19.743V3.78254C59.0685 1.66063 57.2699 0 55.1874 0H3.8811C1.79856 0 0 1.75288 0 3.78254V52.2175C0 54.3394 1.79856 56 3.8811 56H55.0927C57.2699 56 58.9738 54.2471 58.9738 52.2175V36.257C58.9738 34.7809 57.9326 33.6738 56.418 33.6738C54.9034 33.6738 53.9568 34.7809 53.4835 36.257C50.1704 46.0362 40.7043 53.0478 29.5342 53.0478C15.3351 53.0478 3.8811 41.8847 3.8811 28.0461C3.8811 14.2076 15.3351 3.04448 29.5342 3.04448Z" fill="#6A4BFF"/>
</svg>
