<svg width="80" height="80" viewBox="0 0 80 80" fill="none" xmlns="http://www.w3.org/2000/svg">
<g clip-path="url(#clip0_38681_505559)">
<path d="M20.0007 66.6667C18.1673 66.6667 16.5984 66.0145 15.294 64.71C13.9873 63.4033 13.334 61.8333 13.334 60C13.334 58.1667 13.9873 56.5967 15.294 55.29C16.5984 53.9856 18.1673 53.3333 20.0007 53.3333C21.834 53.3333 23.4029 53.9856 24.7073 55.29C26.014 56.5967 26.6673 58.1667 26.6673 60C26.6673 61.8333 26.014 63.4033 24.7073 64.71C23.4029 66.0145 21.834 66.6667 20.0007 66.6667ZM20.0007 46.6667C18.1673 46.6667 16.5984 46.0133 15.294 44.7067C13.9873 43.4022 13.334 41.8333 13.334 40C13.334 38.1667 13.9873 36.5967 15.294 35.29C16.5984 33.9856 18.1673 33.3333 20.0007 33.3333C21.834 33.3333 23.4029 33.9856 24.7073 35.29C26.014 36.5967 26.6673 38.1667 26.6673 40C26.6673 41.8333 26.014 43.4022 24.7073 44.7067C23.4029 46.0133 21.834 46.6667 20.0007 46.6667ZM20.0007 26.6667C18.1673 26.6667 16.5984 26.0133 15.294 24.7067C13.9873 23.4022 13.334 21.8333 13.334 20C13.334 18.1667 13.9873 16.5978 15.294 15.2933C16.5984 13.9867 18.1673 13.3333 20.0007 13.3333C21.834 13.3333 23.4029 13.9867 24.7073 15.2933C26.014 16.5978 26.6673 18.1667 26.6673 20C26.6673 21.8333 26.014 23.4022 24.7073 24.7067C23.4029 26.0133 21.834 26.6667 20.0007 26.6667ZM40.0007 66.6667C38.1673 66.6667 36.5984 66.0145 35.294 64.71C33.9873 63.4033 33.334 61.8333 33.334 60C33.334 58.1667 33.9873 56.5967 35.294 55.29C36.5984 53.9856 38.1673 53.3333 40.0007 53.3333C41.834 53.3333 43.404 53.9856 44.7107 55.29C46.0151 56.5967 46.6673 58.1667 46.6673 60C46.6673 61.8333 46.0151 63.4033 44.7107 64.71C43.404 66.0145 41.834 66.6667 40.0007 66.6667ZM40.0007 46.6667C38.1673 46.6667 36.5984 46.0133 35.294 44.7067C33.9873 43.4022 33.334 41.8333 33.334 40C33.334 38.1667 33.9873 36.5967 35.294 35.29C36.5984 33.9856 38.1673 33.3333 40.0007 33.3333C41.834 33.3333 43.404 33.9856 44.7107 35.29C46.0151 36.5967 46.6673 38.1667 46.6673 40C46.6673 41.8333 46.0151 43.4022 44.7107 44.7067C43.404 46.0133 41.834 46.6667 40.0007 46.6667ZM40.0007 26.6667C38.1673 26.6667 36.5984 26.0133 35.294 24.7067C33.9873 23.4022 33.334 21.8333 33.334 20C33.334 18.0556 34.0151 16.4578 35.3773 15.2067C36.7373 13.9578 38.3618 13.3333 40.2507 13.3333C40.1395 13.8889 40.0695 14.43 40.0407 14.9567C40.014 15.4856 40.0007 16.0556 40.0007 16.6667C40.0007 18.3889 40.1818 20.0689 40.544 21.7067C40.904 23.3467 41.4173 24.8889 42.084 26.3333C41.7507 26.4444 41.4173 26.5278 41.084 26.5833C40.7507 26.6389 40.3895 26.6667 40.0007 26.6667ZM63.334 33.3333C58.7229 33.3333 54.7929 31.7078 51.544 28.4567C48.2929 25.2078 46.6673 21.2778 46.6673 16.6667C46.6673 12.0556 48.2929 8.12444 51.544 4.87333C54.7929 1.62444 58.7229 0 63.334 0C67.9451 0 71.8762 1.62444 75.1273 4.87333C78.3762 8.12444 80.0007 12.0556 80.0007 16.6667C80.0007 21.2778 78.3762 25.2078 75.1273 28.4567C71.8762 31.7078 67.9451 33.3333 63.334 33.3333ZM60.0007 66.6667C58.1673 66.6667 56.5973 66.0145 55.2907 64.71C53.9862 63.4033 53.334 61.8333 53.334 60C53.334 58.1667 53.9862 56.5967 55.2907 55.29C56.5973 53.9856 58.1673 53.3333 60.0007 53.3333C61.834 53.3333 63.404 53.9856 64.7107 55.29C66.0151 56.5967 66.6673 58.1667 66.6673 60C66.6673 61.8333 66.0151 63.4033 64.7107 64.71C63.404 66.0145 61.834 66.6667 60.0007 66.6667ZM60.0007 46.6667C58.1673 46.6667 56.5973 46.0133 55.2907 44.7067C53.9862 43.4022 53.334 41.8333 53.334 40C53.334 39.6111 53.3618 39.25 53.4173 38.9167C53.4729 38.5833 53.5562 38.25 53.6673 37.9167C55.1118 38.5833 56.654 39.0967 58.294 39.4567C59.9318 39.8189 61.6118 40 63.334 40C63.9451 40 64.5151 39.9867 65.044 39.96C65.5707 39.9311 66.1118 39.8611 66.6673 39.75C66.6673 41.6389 66.0429 43.2633 64.794 44.6233C63.5429 45.9856 61.9451 46.6667 60.0007 46.6667ZM63.334 26.6667C63.7784 26.6667 64.1673 26.5 64.5007 26.1667C64.834 25.8333 65.0007 25.4444 65.0007 25C65.0007 24.5556 64.834 24.1667 64.5007 23.8333C64.1673 23.5 63.7784 23.3333 63.334 23.3333C62.8895 23.3333 62.5007 23.5 62.1673 23.8333C61.834 24.1667 61.6673 24.5556 61.6673 25C61.6673 25.4444 61.834 25.8333 62.1673 26.1667C62.5007 26.5 62.8895 26.6667 63.334 26.6667ZM61.6673 20H65.0007V6.66667H61.6673V20Z" fill="#C3CEEB"/>
</g>
<defs>
<clipPath id="clip0_38681_505559">
<rect width="80" height="80" fill="white"/>
</clipPath>
</defs>
</svg>
