<svg viewBox="0 0 22 22" xmlns="http://www.w3.org/2000/svg">
<path d="M15.6406 7.39324C16.3999 7.39324 17.0156 6.77763 17.0156 6.01824C17.0156 5.25886 16.3999 4.64325 15.6406 4.64325C14.8812 4.64325 14.2656 5.25886 14.2656 6.01824C14.2656 6.77763 14.8812 7.39324 15.6406 7.39324Z" />
<path d="M21.7626 7.13107C21.3037 5.96259 20.4622 4.27663 19.0593 2.88032C17.6613 1.48883 15.9932 0.671394 14.84 0.230622C13.574 -0.253247 12.1354 0.0517441 11.175 1.00758L7.80034 4.36643C6.79999 5.36206 6.51167 6.89406 7.08286 8.17861C7.25997 8.57701 7.4526 8.96669 7.65842 9.34318L0.25171 16.7498C0.0905348 16.911 0 17.1296 0 17.3576V21.1388C0 21.6134 0.384741 21.9982 0.859372 21.9982H4.64061C5.11524 21.9982 5.49998 21.6134 5.49998 21.1388V19.5919L7.04685 19.5919C7.52148 19.5919 7.90622 19.2071 7.90622 18.7325V17.1857H9.45309C9.92772 17.1857 10.3125 16.8009 10.3125 16.3263C10.3125 15.8517 9.92772 15.4669 9.45309 15.4669H7.04685C6.57222 15.4669 6.18748 15.8517 6.18748 16.3263V17.8731L4.64061 17.8732C4.16598 17.8732 3.78124 18.2579 3.78124 18.7325V20.2794H1.71874V17.7135L9.33944 10.0929C9.61942 9.81287 9.67188 9.3779 9.46654 9.0394C9.16872 8.54852 8.89514 8.02396 8.65344 7.48028C8.36989 6.84258 8.51435 6.08079 9.01292 5.58455L12.3875 2.22574C12.8693 1.74625 13.5911 1.59333 14.2265 1.8361C15.2243 2.21749 16.6624 2.91951 17.8469 4.09848C19.0386 5.28459 19.7641 6.74393 20.1629 7.75928C20.4117 8.39298 20.2605 9.11292 19.7777 9.59348L16.3623 12.9929C15.8649 13.4878 15.1226 13.6326 14.471 13.3616C13.9336 13.138 13.4131 12.8725 12.9241 12.5724C12.5196 12.3241 11.9904 12.4508 11.7422 12.8553C11.4939 13.2598 11.6205 13.789 12.025 14.0372C12.5901 14.3841 13.191 14.6907 13.8109 14.9485C15.106 15.4873 16.5834 15.1977 17.5747 14.2111L20.9901 10.8117C21.9588 9.84755 22.2621 8.40282 21.7626 7.13107Z" />
</svg>
