<svg viewBox="0 0 20 23" xmlns="http://www.w3.org/2000/svg">
<path d="M15.7775 5.03125L17.7687 7.0225L12.1662 12.625H10.175V10.6337L15.7775 5.03125ZM19.4562 4.53625L18.2638 3.34375C18.0387 3.11875 17.69 3.11875 17.465 3.34375L16.5087 4.3L18.5 6.29125L19.4562 5.335C19.6812 5.11 19.6812 4.75 19.4562 4.53625ZM16.25 11.725V17.125H18.5V19.375H0.5V17.125H2.75V9.25C2.75 6.11125 4.89875 3.4675 7.8125 2.725V1.9375C7.8125 1.00375 8.56625 0.25 9.5 0.25C10.4337 0.25 11.1875 1.00375 11.1875 1.9375V2.725C12.11 2.96125 12.9537 3.38875 13.6737 3.95125L12.065 5.56C11.3162 5.02742 10.4188 4.74403 9.5 4.75C7.01375 4.75 5 6.76375 5 9.25V17.125H14V13.975L16.25 11.725ZM7.25 20.5H11.75C11.75 21.7375 10.7375 22.75 9.5 22.75C8.2625 22.75 7.25 21.7375 7.25 20.5Z"/>
</svg>
