<svg width="16" height="16" viewBox="0 0 16 16" fill="none" xmlns="http://www.w3.org/2000/svg">
<path d="M8 15C6.14348 15 4.36301 14.2625 3.05025 12.9497C1.7375 11.637 1 9.85652 1 8C1 6.14348 1.7375 4.36301 3.05025 3.05025C4.36301 1.7375 6.14348 1 8 1C9.85652 1 11.637 1.7375 12.9497 3.05025C14.2625 4.36301 15 6.14348 15 8C15 9.85652 14.2625 11.637 12.9497 12.9497C11.637 14.2625 9.85652 15 8 15ZM8 16C10.1217 16 12.1566 15.1571 13.6569 13.6569C15.1571 12.1566 16 10.1217 16 8C16 5.87827 15.1571 3.84344 13.6569 2.34315C12.1566 0.842855 10.1217 0 8 0C5.87827 0 3.84344 0.842855 2.34315 2.34315C0.842855 3.84344 0 5.87827 0 8C0 10.1217 0.842855 12.1566 2.34315 13.6569C3.84344 15.1571 5.87827 16 8 16Z" fill="#0095D6"/>
<path d="M5.25412 5.786C5.25275 5.81829 5.258 5.85053 5.26955 5.88072C5.2811 5.91091 5.2987 5.93841 5.32127 5.96155C5.34385 5.98468 5.37091 6.00296 5.40081 6.01524C5.43071 6.02753 5.4628 6.03357 5.49512 6.033H6.32012C6.45812 6.033 6.56812 5.92 6.58612 5.783C6.67612 5.127 7.12612 4.649 7.92812 4.649C8.61412 4.649 9.24212 4.992 9.24212 5.817C9.24212 6.452 8.86812 6.744 8.27712 7.188C7.60412 7.677 7.07112 8.248 7.10912 9.175L7.11212 9.392C7.11317 9.45761 7.13997 9.52017 7.18674 9.5662C7.23351 9.61222 7.2965 9.63801 7.36212 9.638H8.17312C8.23942 9.638 8.30301 9.61166 8.3499 9.56478C8.39678 9.51789 8.42312 9.4543 8.42312 9.388V9.283C8.42312 8.565 8.69612 8.356 9.43312 7.797C10.0421 7.334 10.6771 6.82 10.6771 5.741C10.6771 4.23 9.40112 3.5 8.00412 3.5C6.73712 3.5 5.34912 4.09 5.25412 5.786ZM6.81112 11.549C6.81112 12.082 7.23612 12.476 7.82112 12.476C8.43012 12.476 8.84912 12.082 8.84912 11.549C8.84912 10.997 8.42912 10.609 7.82012 10.609C7.23612 10.609 6.81112 10.997 6.81112 11.549Z" fill="#0095D6"/>
</svg>
