<svg viewBox="0 0 24 28" fill="white" xmlns="http://www.w3.org/2000/svg">
<path d="M8.83673 0.000227311C8.63686 0.00568178 8.45261 0.109317 8.34413 0.277193L6.58779 2.91183H0.606053C0.27139 2.91183 0 3.18322 0 3.51788V9.5784C0 9.91307 0.27139 10.1845 0.606053 10.1845H6.66658C7.00124 10.1845 7.27263 9.91307 7.27263 9.5784V4.79677L6.06053 6.61493V8.97235H1.21211V4.12393H5.77956L4.07498 6.68075L3.33002 5.1907C3.18396 4.8895 2.82142 4.76368 2.52021 4.90974C2.219 5.0558 2.09318 5.41834 2.23924 5.71955C2.24142 5.72391 2.24349 5.72827 2.24579 5.73264L3.45789 8.15685C3.60759 8.45624 3.97158 8.57769 4.2711 8.42799C4.3654 8.38084 4.44576 8.30994 4.5043 8.22218L9.35273 0.949548C9.54242 0.673673 9.4726 0.296345 9.19673 0.10665C9.09091 0.034045 8.96497 -0.00328779 8.83673 0.000227311ZM11.515 5.33628C11.1803 5.33628 10.9089 5.60767 10.9089 5.94233V7.15444C10.9089 7.4891 11.1803 7.76049 11.515 7.76049H22.4239C22.7586 7.76049 23.03 7.4891 23.03 7.15444V5.94233C23.03 5.60767 22.7586 5.33628 22.4239 5.33628H11.515ZM0.606053 11.401C0.27139 11.401 0 11.6724 0 12.0071V18.0676C0 18.4023 0.27139 18.6737 0.606053 18.6737H6.66658C7.00124 18.6737 7.27263 18.4023 7.27263 18.0676V12.0071C7.27263 11.6724 7.00124 11.401 6.66658 11.401H0.606053ZM1.21211 12.6132H6.06053V17.4616H1.21211V12.6132ZM11.515 13.8208C11.1803 13.8208 10.9089 14.0922 10.9089 14.4268V15.6389C10.9089 15.9736 11.1803 16.245 11.515 16.245H22.4239C22.7586 16.245 23.03 15.9736 23.03 15.6389V14.4268C23.03 14.0922 22.7586 13.8208 22.4239 13.8208H11.515ZM0.606053 19.8813C0.27139 19.8813 0 20.1527 0 20.4874V26.5479C0 26.8825 0.27139 27.1539 0.606053 27.1539H6.66658C7.00124 27.1539 7.27263 26.8825 7.27263 26.5479V20.4874C7.27263 20.1527 7.00124 19.8813 6.66658 19.8813H0.606053ZM1.21211 21.0934H6.06053V25.9418H1.21211V21.0934ZM11.515 22.3097C11.1803 22.3097 10.9089 22.5811 10.9089 22.9158V24.1279C10.9089 24.4626 11.1803 24.734 11.515 24.734H22.4239C22.7586 24.734 23.03 24.4626 23.03 24.1279V22.9158C23.03 22.5811 22.7586 22.3097 22.4239 22.3097H11.515Z" />
</svg>
