<svg viewBox="0 0 27 27" fill="white" xmlns="http://www.w3.org/2000/svg">
<path d="M1.66318 15.1167C1.66331 15.1166 1.66337 15.1165 1.6635 15.1164L13.3437 3.43625C14.3516 2.4283 15.9858 2.4283 16.9938 3.43625L17.7237 4.16874L21.7387 0.151135C21.9403 -0.0503782 22.267 -0.0503782 22.4686 0.151135L26.8491 4.53008C27.0506 4.73166 27.0506 5.05842 26.8491 5.26L22.8341 9.27915L23.564 10.0091C24.5719 11.017 24.5719 12.6512 23.564 13.6591L11.8839 25.3367C9.66645 27.5543 6.07123 27.5544 3.85362 25.337C3.85349 25.3369 3.85343 25.3368 3.8533 25.3367L1.66357 23.1469C-0.554041 20.9296 -0.554171 17.3343 1.66318 15.1167ZM25.7542 4.89607L22.1037 1.246L18.4536 4.89607L22.1037 8.54666L25.7542 4.89607ZM2.3929 22.4165C2.39309 22.4167 2.39328 22.4169 2.39348 22.4171L4.58321 24.6068C6.39734 26.4213 9.33892 26.4215 11.1534 24.6074C11.1536 24.6072 11.1538 24.607 11.154 24.6068L22.8341 12.9266C23.4389 12.3219 23.439 11.3414 22.8343 10.7366C22.8342 10.7365 22.8341 10.7365 22.8341 10.7364L16.2639 4.16874C15.6591 3.56395 14.6786 3.56382 14.0738 4.16855C14.0737 4.16861 14.0737 4.16868 14.0736 4.16874L2.39348 15.8463C0.579023 17.6605 0.578766 20.6021 2.3929 22.4165Z" />
</svg>
