<svg viewBox="0 0 27 27" fill="white" xmlns="http://www.w3.org/2000/svg">
<path d="M18 0C13.0375 0 8.99996 4.0375 8.99996 9.00002C8.99996 9.59106 9.06425 10.1975 9.19113 10.8067L8.18585 11.3093C8.02433 11.39 7.91121 11.5439 7.8821 11.7224C7.85299 11.9009 7.91179 12.0822 8.03978 12.2102L8.76709 12.9375L8.20457 13.5H7.31246C7.00154 13.5 6.74995 13.7516 6.74995 14.0625V14.9546L5.95455 15.75H5.0625C4.75158 15.75 4.49998 16.0016 4.49998 16.3125V17.2046L3.70459 18H2.81248C2.50156 18 2.24996 18.2516 2.24996 18.5625V19.4546L0.164795 21.5398C0.0593262 21.6452 0 21.7881 0 21.9375V26.4375C0 26.7484 0.251596 27 0.562518 27H5.0625C5.2119 27 5.35475 26.9407 5.46022 26.8352L14.0625 18.2329L14.7898 18.9602C14.9173 19.0882 15.0991 19.1481 15.2776 19.1179C15.4561 19.0888 15.61 18.9756 15.6907 18.8141L16.1933 17.8089C21.9166 19.0019 27 14.5536 27 9.00002C27 4.0375 22.9626 0 18 0ZM16.0285 16.6157C15.7736 16.5509 15.5039 16.6718 15.3853 16.9091L15.0331 17.6128L14.4602 17.0398C14.2404 16.8201 13.8845 16.8201 13.6648 17.0398L4.82957 25.875H1.12498V22.1704L3.21021 20.0852C3.31567 19.9797 3.375 19.8369 3.375 19.6875V19.125H3.93752C4.08691 19.125 4.22977 19.0656 4.33524 18.9602L5.46022 17.8352C5.56569 17.7297 5.62502 17.5869 5.62502 17.4375V16.875H6.18754C6.33693 16.875 6.47979 16.8157 6.58526 16.7102L7.71024 15.5852C7.81571 15.4798 7.87504 15.3369 7.87504 15.1875V14.625H8.4375C8.5869 14.625 8.72975 14.5657 8.83522 14.4602L9.96021 13.3352C10.1799 13.1155 10.1799 12.7595 9.96021 12.5398L9.38725 11.9669L10.0909 11.6147C10.3282 11.4961 10.4502 11.228 10.3843 10.9715C10.2124 10.3035 10.125 9.64048 10.125 9.00002C10.125 4.65766 13.6577 1.12504 18 1.12504C22.3423 1.12504 25.875 4.65771 25.875 9.00002C25.875 13.9828 21.2251 17.9538 16.0285 16.6157Z" />
<path d="M20.8125 3.375C19.2618 3.375 18 4.63678 18 6.18748C18 7.73819 19.2618 8.99996 20.8125 8.99996C22.3632 8.99996 23.625 7.73824 23.625 6.18748C23.625 4.63672 22.3632 3.375 20.8125 3.375ZM20.8125 7.87498C19.8819 7.87498 19.125 7.11803 19.125 6.18748C19.125 5.25693 19.8819 4.49998 20.8125 4.49998C21.743 4.49998 22.5 5.25693 22.5 6.18748C22.5 7.11803 21.743 7.87498 20.8125 7.87498Z" />
<path d="M11.4147 14.7898L3.53969 22.6648C3.31994 22.8845 3.31994 23.2405 3.53969 23.4602C3.64953 23.57 3.7935 23.625 3.93741 23.625C4.08132 23.625 4.22523 23.57 4.33513 23.4602L12.2101 15.5852C12.4299 15.3655 12.4299 15.0095 12.2101 14.7898C11.9904 14.5701 11.6344 14.5701 11.4147 14.7898Z" />
</svg>
