<svg  viewBox="0 0 24 22" fill="white" xmlns="http://www.w3.org/2000/svg">
<path d="M18.438 6.23636C19.6726 6.23636 20.6769 5.23196 20.6769 3.99738C20.6769 2.76281 19.6725 1.7584 18.438 1.7584C17.2034 1.7584 16.199 2.76281 16.199 3.99738C16.199 5.23196 17.2034 6.23636 18.438 6.23636ZM18.438 2.73529C19.1339 2.73529 19.7001 3.30146 19.7001 3.99738C19.7001 4.69331 19.1339 5.25947 18.438 5.25947C17.7421 5.25947 17.1759 4.69331 17.1759 3.99738C17.1759 3.30146 17.7421 2.73529 18.438 2.73529ZM5.65278 15.7627C4.41821 15.7627 3.41386 16.7671 3.41386 18.0017C3.41386 19.2363 4.41826 20.2407 5.65278 20.2407C6.88741 20.2407 7.89176 19.2363 7.89176 18.0017C7.89176 16.7671 6.88736 15.7627 5.65278 15.7627ZM5.65278 19.2638C4.95691 19.2638 4.39075 18.6976 4.39075 18.0017C4.39075 17.3058 4.95691 16.7396 5.65278 16.7396C6.34871 16.7396 6.91487 17.3058 6.91487 18.0017C6.91487 18.6976 6.34871 19.2638 5.65278 19.2638ZM22.7039 13.0173C22.101 11.5251 20.6278 10.5111 19.0022 10.5111H13.4149C13.212 9.92489 12.6543 9.50282 12 9.50282C11.3457 9.50282 10.7881 9.92489 10.5852 10.5111H4.99783C3.82963 10.5111 2.76547 9.81705 2.27279 8.77786C2.70458 8.51496 2.99347 8.03981 2.99347 7.49845C2.99347 6.95709 2.70458 6.48189 2.27279 6.219C2.76547 5.17986 3.82969 4.48577 4.99783 4.48577H14.4782C14.7197 6.45616 16.4035 7.9869 18.438 7.9869C20.6378 7.9869 22.4275 6.19718 22.4275 3.99733C22.4275 1.79753 20.6378 0.0078125 18.438 0.0078125C16.4034 0.0078125 14.7197 1.53855 14.4782 3.50888H4.99783C3.37228 3.50888 1.89897 4.5229 1.29606 6.0151C0.565349 6.11349 0 6.7412 0 7.49851C0 8.25582 0.565349 8.88347 1.29606 8.98181C1.89891 10.474 3.37223 11.488 4.99783 11.488H10.5852C10.7881 12.0742 11.3457 12.4963 12 12.4963C12.6543 12.4963 13.212 12.0742 13.4149 11.488H19.0022C20.1704 11.488 21.2345 12.1821 21.7272 13.2212C21.2954 13.4841 21.0065 13.9593 21.0065 14.5006C21.0065 15.042 21.2954 15.5172 21.7272 15.7801C21.2345 16.8192 20.1703 17.5133 19.0022 17.5133H9.61261C9.37105 15.5429 7.68732 14.0122 5.65278 14.0122C3.45299 14.0122 1.66332 15.8019 1.66332 18.0018C1.66332 20.2016 3.45299 21.9913 5.65278 21.9913C7.68738 21.9913 9.3711 20.4606 9.61261 18.4902H19.0022C20.6278 18.4902 22.101 17.4762 22.7039 15.984C23.4347 15.8856 24 15.2579 24 14.5006C24 13.7434 23.4347 13.1157 22.7039 13.0173ZM18.438 0.984758C20.0991 0.984758 21.4506 2.33618 21.4506 3.99738C21.4506 5.65859 20.0991 7.01006 18.438 7.01006C16.7768 7.01006 15.4254 5.65859 15.4254 3.99738C15.4254 2.33618 16.7768 0.984758 18.438 0.984758ZM1.57849 8.01192C1.57448 8.01246 1.57052 8.01306 1.56645 8.01366C1.54365 8.01675 1.52037 8.01832 1.49671 8.01832C1.21004 8.01832 0.976837 7.78512 0.976837 7.49851C0.976837 7.21185 1.21004 6.97864 1.49671 6.97864C1.52026 6.97864 1.54343 6.98021 1.56617 6.98325C1.57035 6.98396 1.57448 6.9845 1.57866 6.9851C1.82646 7.02455 2.01647 7.23974 2.01647 7.49851C2.01652 7.75728 1.82641 7.97257 1.57849 8.01192ZM12 11.5194C11.7134 11.5194 11.4802 11.2862 11.4802 10.9996C11.4802 10.713 11.7134 10.4798 12 10.4798C12.2867 10.4798 12.5198 10.713 12.5198 10.9996C12.5198 11.2862 12.2866 11.5194 12 11.5194ZM5.65278 21.0143C3.99163 21.0143 2.64021 19.6629 2.64021 18.0017C2.64021 16.3405 3.99163 14.989 5.65278 14.989C7.31399 14.989 8.66546 16.3405 8.66546 18.0017C8.66546 19.6629 7.31399 21.0143 5.65278 21.0143ZM22.5032 15.0205C22.4797 15.0205 22.4565 15.0189 22.4338 15.0159C22.4296 15.0151 22.4254 15.0146 22.4211 15.014C22.1734 14.9745 21.9834 14.7593 21.9834 14.5006C21.9834 14.2418 22.1735 14.0266 22.4214 13.9872C22.4255 13.9866 22.4295 13.986 22.4336 13.9854C22.4563 13.9824 22.4796 13.9808 22.5032 13.9808C22.7899 13.9808 23.0232 14.214 23.0232 14.5006C23.0231 14.7873 22.7899 15.0205 22.5032 15.0205Z" />
</svg>
