<svg viewBox="0 0 24 24" fill="white" xmlns="http://www.w3.org/2000/svg">
<path d="M10.81 1.26001C10.81 0.98376 10.5863 0.76001 10.31 0.76001H1.26001C0.98376 0.76001 0.76001 0.98376 0.76001 1.26001V10.31C0.76001 10.5863 0.98376 10.81 1.26001 10.81H10.31C10.5863 10.81 10.81 10.5863 10.81 10.31V1.26001ZM9.81001 9.81001H1.76001V1.76001H9.81001V9.81001Z" />
<path d="M23.26 1.26001C23.26 0.98376 23.0362 0.76001 22.76 0.76001H13.71C13.4337 0.76001 13.21 0.98376 13.21 1.26001V10.31C13.21 10.5863 13.4337 10.81 13.71 10.81H22.76C23.0362 10.81 23.26 10.5863 23.26 10.31V1.26001ZM22.26 9.81001H14.21V1.76001H22.26V9.81001Z" />
<path d="M10.81 13.71C10.81 13.4337 10.5863 13.21 10.31 13.21H1.26001C0.98376 13.21 0.76001 13.4337 0.76001 13.71V22.76C0.76001 23.0362 0.98376 23.26 1.26001 23.26H10.31C10.5863 23.26 10.81 23.0362 10.81 22.76V13.71ZM9.81001 22.21H1.76001V14.21H9.81001V22.21Z" />
<path d="M23.26 13.71C23.26 13.4337 23.0362 13.21 22.76 13.21H13.71C13.4337 13.21 13.21 13.4337 13.21 13.71V22.76C13.21 23.0362 13.4337 23.26 13.71 23.26H22.76C23.0362 23.26 23.26 23.0362 23.26 22.76V13.71ZM22.26 22.21H14.21V14.21H22.26V22.21Z" />
</svg>
