<svg width="16" height="16" viewBox="0 0 16 16" fill="none" xmlns="http://www.w3.org/2000/svg">
<rect width="16" height="16" rx="2" fill="url(#paint0_linear)"/>
<path d="M8.71912 12.6978V13.1112C7.69731 13.1112 6.74298 12.5625 6.03202 11.5663C5.33913 10.5967 4.95784 9.31057 4.95784 7.9445C4.95784 6.57843 5.33913 5.29228 6.03202 4.32267C6.74261 3.32722 7.69694 2.77783 8.71912 2.77783V3.19117C6.889 3.19117 5.40035 5.32362 5.40035 7.9445C5.40035 10.5654 6.889 12.6978 8.71912 12.6978ZM5.53752 4.15561H4.97665C4.93412 4.2098 4.89245 4.26549 4.85164 4.32267C4.15912 5.29228 3.77783 6.58015 3.77783 7.9445C3.77783 9.30884 4.15912 10.5967 4.85201 11.5663C4.89282 11.6235 4.93449 11.6792 4.97702 11.7334H5.53789C4.73659 10.8654 4.22034 9.49037 4.22034 7.9445C4.22034 6.39863 4.73659 5.02499 5.53752 4.15561ZM11.761 9.66672H10.581C10.4084 10.1737 10.1621 10.6198 9.86189 10.9756H10.4032C10.6006 10.6947 10.7645 10.3944 10.8918 10.0801H11.5972C11.1101 11.1578 10.2679 11.8712 9.30913 11.8712C7.80462 11.8712 6.58036 10.1097 6.58036 7.9445C6.58036 5.77932 7.80462 4.01783 9.30913 4.01783C10.3848 4.01783 11.3166 4.91821 11.761 6.22228H12.2223C12.08 5.75617 11.8632 5.31281 11.5792 4.90719C10.9796 4.06778 10.1735 3.6045 9.30913 3.6045C8.44477 3.6045 7.63868 4.06709 7.03908 4.90719C6.45793 5.72214 6.13785 6.80094 6.13785 7.9445C6.13785 9.08805 6.45793 10.1675 7.03908 10.9818C7.63831 11.8226 8.44477 12.2845 9.30913 12.2845C10.1735 12.2845 10.9796 11.8219 11.5792 10.9818C11.8632 10.5762 12.08 10.1328 12.2223 9.66672H11.761ZM10.581 6.22228H11.0423C10.9006 5.75856 10.6852 5.31735 10.4032 4.91339H9.86226C10.0893 5.18749 10.2762 5.48867 10.418 5.80894H9.71217C9.58391 5.4923 9.41857 5.18988 9.21915 4.90719C9.16937 4.8383 9.11774 4.77113 9.06501 4.70672H8.49086C8.87769 5.0894 9.1915 5.61123 9.40095 6.22228H10.581ZM8.49086 11.1823H9.06501C9.11774 11.1179 9.16937 11.0517 9.21915 10.9818C9.50319 10.5762 9.72 10.1328 9.86226 9.66672H9.40095C9.1926 10.2785 8.87769 10.8003 8.49086 11.1823Z" fill="white"/>
<defs>
<linearGradient id="paint0_linear" x1="0" y1="8" x2="16" y2="8" gradientUnits="userSpaceOnUse">
<stop stop-color="#4776E6"/>
<stop offset="1" stop-color="#8E54E9"/>
</linearGradient>
</defs>
</svg>
