<svg width="" height="26" viewBox="0 0 22 24" fill="none" xmlns="http://www.w3.org/2000/svg">
<path d="M11.0658 15.4858L14.3764 20.6817L17.4345 18.9095L13.0867 12.0566L11.0658 15.4858Z" />
<path d="M20.2195 16.8253L20.2173 15.4053L15.4665 8.00585L13.704 10.9965L18.2902 18.4138L19.9484 17.4529C20.1111 17.3209 20.2094 17.127 20.2198 16.9178L20.2195 16.8253Z" />
<path d="M0.311598 18.1647L2.65325 19.514L10.4457 7.01718L9.12312 6.98225C7.99631 6.96631 6.78251 7.25924 6.22532 8.16872L1.80023 15.0274L0.311523 17.3147L0.311598 18.1647Z" />
<path d="M14.9431 7.01686L11.4576 7.02952L3.57184 20.0425L6.32812 21.6296L7.07769 20.3583L14.9431 7.01686Z" />
<path d="M21.6882 6.99901C21.6591 6.27007 21.2644 5.60273 20.6462 5.21424L11.981 0.231149C11.3694 -0.0768261 10.6054 -0.0771987 9.9929 0.230926C9.92051 0.267421 1.56614 5.11265 1.56614 5.11265C1.45055 5.16807 1.3392 5.23413 1.23441 5.30906C0.682508 5.70462 0.346082 6.31923 0.311523 6.99454V17.3147L1.80023 15.0274L1.7872 7.06433C1.78899 7.03521 1.79264 7.00661 1.79778 6.97831C1.83137 6.79091 1.93601 6.62378 2.09354 6.51087C2.13286 6.48272 10.6299 1.56434 10.6569 1.55079C10.8566 1.45046 11.1104 1.44942 11.3104 1.54773L19.8635 6.4676C20.0658 6.59645 20.1927 6.81497 20.2039 7.05383V16.9179C20.1936 17.1271 20.1111 17.3208 19.9484 17.4529L18.2902 18.4138L17.4345 18.9095L14.3764 20.6817L11.2749 22.4793C11.1079 22.5397 10.9126 22.5363 10.7469 22.4689L7.07769 20.3583L6.32812 21.6296L9.62556 23.5282C9.7346 23.5902 9.8318 23.6452 9.91149 23.69C10.035 23.7593 10.1191 23.8055 10.1488 23.8199C10.3832 23.9337 10.7203 24 11.0242 24C11.3029 24 11.5745 23.9488 11.8316 23.8481L20.8396 18.6313C21.3566 18.2308 21.6608 17.6267 21.6882 16.9722V6.99901Z" />
</svg>
