<svg width="" height="26" viewBox="0 0 25 25" fill="none" xmlns="http://www.w3.org/2000/svg">
<path fill-rule="evenodd" clip-rule="evenodd" d="M24.0081 12.0161C24.0081 18.6436 18.6355 24.0161 12.0081 24.0161C5.38064 24.0161 0.00805664 18.6436 0.00805664 12.0161C0.00805664 5.38869 5.38064 0.0161133 12.0081 0.0161133C18.6355 0.0161133 24.0081 5.38869 24.0081 12.0161ZM8.6076 16.7915H6.27874C5.78937 16.7915 5.54765 16.7915 5.40026 16.6972C5.24106 16.594 5.14379 16.423 5.13199 16.2343C5.12314 16.0605 5.24402 15.8482 5.48575 15.4237L11.236 5.28804C11.4807 4.85764 11.6045 4.64244 11.7607 4.56285C11.9288 4.47737 12.1292 4.47737 12.2973 4.56285C12.4535 4.64244 12.5773 4.85764 12.822 5.28804L14.0041 7.3516L14.0101 7.36213C14.2744 7.82386 14.4084 8.05801 14.4669 8.30377C14.5318 8.57203 14.5318 8.85503 14.4669 9.1233C14.408 9.37092 14.2753 9.60677 14.0071 10.0755L10.9866 15.4148L10.9788 15.4285C10.7128 15.894 10.5779 16.13 10.3911 16.308C10.1877 16.5026 9.94302 16.644 9.67475 16.7238C9.43007 16.7915 9.15592 16.7915 8.6076 16.7915ZM14.4887 16.7915H17.8257C18.318 16.7915 18.5657 16.7915 18.7132 16.6944C18.8723 16.5911 18.9725 16.4171 18.9815 16.2286C18.9899 16.0603 18.8717 15.8563 18.64 15.4564C18.632 15.4428 18.624 15.429 18.6159 15.4149L16.9444 12.5554L16.9253 12.5232C16.6905 12.126 16.5719 11.9254 16.4196 11.8479C16.2517 11.7624 16.054 11.7624 15.8861 11.8479C15.7328 11.9275 15.609 12.1368 15.3643 12.5583L13.6987 15.4178L13.693 15.4277C13.4492 15.8486 13.3273 16.0589 13.3361 16.2315C13.3479 16.4202 13.4452 16.594 13.6044 16.6972C13.7488 16.7915 13.9964 16.7915 14.4887 16.7915Z" fill="white"/>
</svg>
