<svg width="" height="26" viewBox="0 0 24 23" fill="none" xmlns="http://www.w3.org/2000/svg">
<path d="M0.623291 0C0.553223 0 0.525837 0.0800878 0.570133 0.124384C0.601643 0.281934 0.65129 0.421349 0.698195 0.553065C0.732783 0.650193 0.76588 0.743135 0.789116 0.836077C0.789116 1.00031 0.898607 1.10981 1.0081 1.10981C1.22701 1.10981 1.39124 1.16455 1.55548 1.2193C1.66497 1.2193 1.71972 1.16455 1.66497 1.05506C1.63061 0.917609 1.57468 0.780159 1.52425 0.656246C1.49434 0.582745 1.46637 0.514007 1.44599 0.452858C1.44599 0.343366 1.3365 0.179129 1.22701 0.179129C1.14488 0.15174 1.04902 0.124351 0.953172 0.0969623C0.857433 0.0696057 0.761694 0.042249 0.679624 0.0148924C0.658725 0.00445701 0.63982 0 0.623291 0Z" />
<path d="M24 18.7916H19.0731L15.5149 15.2334L14.3653 16.3829C14.4701 14.3388 14.0229 12.6961 13.0236 11.4549C12.9386 11.1968 12.8384 10.9235 12.723 10.635C12.713 10.595 12.7012 10.5568 12.6885 10.5211C12.373 9.33471 12.064 8.34842 11.7924 7.62416C11.6829 7.40519 11.5734 7.1862 11.5187 7.02196H12.2303L15.5696 10.3066L18.9089 7.02196H23.8358L18.033 12.77L18.471 13.2079L24 18.7916Z" />
<path d="M12.7137 10.6163C12.7168 10.6225 12.7199 10.6287 12.723 10.635C12.8367 10.9193 12.921 11.1741 12.991 11.4147C12.9763 11.3968 12.9615 11.379 12.9466 11.3613C12.9143 11.2819 12.88 11.2005 12.8432 11.117C12.8 10.9465 12.7568 10.7796 12.7137 10.6163Z" />
<path d="M12.6619 10.7289C12.664 10.7341 12.6661 10.7393 12.6682 10.7445C12.7324 10.8729 12.7903 10.997 12.8432 11.117C12.8579 11.1749 12.8725 11.2332 12.8872 11.2919C12.9072 11.3149 12.927 11.338 12.9466 11.3613C12.9835 11.452 13.0177 11.54 13.0499 11.6253C13.0894 11.7721 13.1252 11.915 13.1609 12.0579L13.161 12.2772L12.9967 12.1131C12.9967 12.0904 12.9873 12.0583 12.9763 12.0207C12.9608 11.9676 12.942 11.9035 12.942 11.8394C12.8928 11.5443 12.7994 11.1609 12.6619 10.7289Z" />
<path d="M12.6575 10.7181C12.6438 10.6731 12.6291 10.6272 12.6135 10.5803C12.6302 10.6304 12.6463 10.68 12.6619 10.7289C12.6605 10.7253 12.659 10.7217 12.6575 10.7181Z" />
<path fill-rule="evenodd" clip-rule="evenodd" d="M12.504 10.5803C12.5746 10.8274 12.5997 11.0746 12.6233 11.3071C12.6363 11.435 12.6488 11.5585 12.6682 11.6751C12.6682 11.7846 12.6682 11.8941 12.723 11.8941L12.8872 12.0583V11.8394C12.8377 11.4926 12.7881 11.1459 12.6575 10.7181C12.5518 10.4603 12.4493 10.3066 12.4493 10.3066V10.5255C12.4493 10.8539 12.4493 11.1277 12.3945 11.4014V11.6204L12.5588 11.7846C12.5588 11.7846 12.6135 11.7299 12.6135 11.6204C12.6135 11.3331 12.5717 11.0459 12.5245 10.7221C12.5178 10.6756 12.5109 10.6284 12.504 10.5803ZM12.4493 10.3066C12.4493 10.3066 12.4493 10.416 12.504 10.5803C12.504 10.416 12.4493 10.3066 12.4493 10.3066Z" />
<path d="M13.188 12.0054C13.1416 11.8303 13.0868 11.6468 13.0236 11.4549C13.0128 11.4415 13.0019 11.4281 12.991 11.4147C13.0117 11.486 13.0312 11.5561 13.0499 11.6253C13.1001 11.7584 13.1453 11.8851 13.188 12.0054Z" />
<path d="M13.3251 12.3867C13.2865 12.2837 13.2479 12.1747 13.2072 12.0596C13.2008 12.0417 13.1944 12.0236 13.188 12.0054C13.1976 12.0417 13.2068 12.0776 13.2157 12.1131C13.2339 12.1678 13.2461 12.2165 13.2562 12.257C13.2765 12.3381 13.2886 12.3867 13.3251 12.3867Z" />
<path d="M13.3251 12.3867L13.4894 12.551C13.4 12.6404 13.3836 12.5838 13.3508 12.4706C13.3434 12.4452 13.3352 12.4169 13.3251 12.3867Z" />
<path d="M12.7137 10.6163C12.6104 10.4067 12.5588 10.2518 12.5588 10.2518C12.5588 10.2518 12.6319 10.3615 12.6885 10.5211C12.6969 10.5527 12.7053 10.5844 12.7137 10.6163Z" />
<path d="M0 1.23671C0 1.16925 0.0387111 1.12584 0.0774221 1.16455C0.166345 1.19419 0.255268 1.20779 0.35288 1.22271C0.435553 1.23535 0.52446 1.24894 0.624879 1.27404C0.73437 1.27404 0.843861 1.38346 0.843861 1.49295C0.867096 1.58589 0.900192 1.67883 0.934779 1.77595C0.981685 1.90767 1.03133 2.04709 1.06284 2.20464C1.11759 2.31413 1.06284 2.42363 0.953353 2.36888C0.871227 2.3415 0.789101 2.32782 0.706975 2.31413C0.624864 2.30044 0.542753 2.28676 0.460642 2.25939C0.351151 2.25939 0.296406 2.1499 0.241661 2.04041C0.214278 1.93088 0.173197 1.80765 0.132123 1.68444C0.0910787 1.56131 0.0500394 1.43821 0.0226764 1.32879C0.00664177 1.29672 0 1.26465 0 1.23671Z" />
<path d="M7.68685 20.5162C7.75523 20.5983 7.82362 20.6803 7.90568 20.7624C7.93301 20.735 7.97405 20.735 8.0151 20.735C8.05615 20.735 8.09721 20.735 8.12458 20.7076C8.20671 20.6528 8.28883 20.5844 8.37096 20.516C8.45307 20.4476 8.53518 20.3791 8.61729 20.3244C8.67204 20.2697 8.67204 20.2149 8.61729 20.1602C8.56035 20.1033 8.50998 20.0463 8.46164 19.9917C8.37055 19.8887 8.28662 19.7938 8.17933 19.7223C8.12458 19.6675 8.01509 19.6675 7.96035 19.7223C7.87831 19.777 7.79625 19.8454 7.71419 19.9138C7.63204 19.9823 7.54987 20.0507 7.46771 20.1055C7.41297 20.1602 7.41297 20.2149 7.46771 20.2697C7.54989 20.3519 7.61837 20.434 7.68685 20.5162Z" />
<path d="M13.5441 14.6038C13.5851 14.6449 13.6262 14.6859 13.6536 14.7407V14.5217C13.6536 14.2354 13.6119 13.949 13.565 13.6264C13.5581 13.5789 13.5511 13.5307 13.5441 13.4816C13.5441 13.3174 13.4894 13.2079 13.4894 13.2079L13.3252 13.0437V13.2079C13.3799 13.5363 13.3799 13.8648 13.3799 14.1933C13.3799 14.3028 13.3799 14.4123 13.4346 14.467C13.462 14.5217 13.503 14.5628 13.5441 14.6038Z" />
<path d="M13.1622 15.8368C13.2712 15.9459 13.3801 16.0549 13.4346 16.164C13.4789 16.2526 13.4874 16.2336 13.518 16.1653C13.5252 16.1491 13.5337 16.1302 13.5441 16.1093C13.5714 15.9726 13.5851 15.8358 13.5988 15.6991C13.6125 15.5621 13.6262 15.4251 13.6536 15.2881C13.6536 15.1786 13.6536 15.0691 13.5988 15.0144L13.3252 14.7407C13.2705 14.686 13.2705 14.7407 13.2705 14.8501L13.2693 14.856C13.2149 15.1278 13.1606 15.3992 13.1062 15.6166C13.1062 15.7261 13.1062 15.8356 13.161 15.8356L13.1622 15.8368Z" />
<path d="M12.7777 17.2041C12.8872 17.3136 12.9967 17.4231 13.1062 17.5873C13.1062 17.5873 13.161 17.5325 13.161 17.4779C13.1842 17.3849 13.2173 17.2918 13.2519 17.1946C13.2988 17.063 13.3484 16.9236 13.3799 16.7662V16.5472C13.2707 16.4379 13.1609 16.328 13.1062 16.2187C13.0515 16.164 12.9967 16.2187 12.9967 16.3282C12.9693 16.4378 12.9282 16.5475 12.8871 16.6571C12.8461 16.7664 12.8051 16.8758 12.7777 16.9851C12.7396 17.0233 12.7546 17.0881 12.7672 17.1424C12.7727 17.166 12.7777 17.1876 12.7777 17.2041Z" />
<path d="M12.336 18.416C12.4146 18.507 12.5013 18.6074 12.6135 18.6822C12.6135 18.7915 12.668 18.7371 12.7227 18.6825C12.7775 18.573 12.8188 18.4632 12.8598 18.3537C12.9009 18.2442 12.9419 18.1347 12.9967 18.0252C13.0349 17.9871 13.0198 17.9223 13.0072 17.868C13.0017 17.8444 12.9967 17.8229 12.9967 17.8063C12.8872 17.6968 12.7777 17.5873 12.6682 17.4231C12.6135 17.3684 12.5589 17.423 12.5041 17.4777C12.4759 17.5342 12.4474 17.5873 12.4201 17.6385C12.3416 17.7853 12.2709 17.9176 12.2303 18.08C12.1755 18.1347 12.1755 18.2442 12.2303 18.299C12.265 18.3337 12.2996 18.3738 12.336 18.416Z" />
<path d="M11.0532 20.5433C11.1217 20.6117 11.1901 20.6802 11.2449 20.7624C11.2449 20.8171 11.3544 20.8171 11.4092 20.7624C11.464 20.6802 11.5325 20.598 11.601 20.5158C11.6693 20.4338 11.7377 20.3517 11.7924 20.2697C11.8471 20.2149 11.8471 20.1055 11.7924 20.0508C11.7376 19.9686 11.6692 19.9001 11.6007 19.8317C11.5323 19.7633 11.4639 19.6949 11.4092 19.6128C11.3544 19.558 11.2997 19.558 11.2449 19.6128C11.1901 19.6949 11.1217 19.777 11.0533 19.8591C10.9849 19.9413 10.9165 20.0234 10.8617 20.1055C10.807 20.1602 10.807 20.2697 10.8617 20.3244C10.9164 20.4065 10.9848 20.4749 11.0532 20.5433Z" />
<path d="M10.1961 21.314C10.2873 21.4171 10.3712 21.512 10.4786 21.5835C10.4786 21.693 10.5333 21.693 10.5881 21.6382C10.6701 21.5562 10.7384 21.4742 10.8068 21.3922C10.8753 21.31 10.9438 21.2278 11.026 21.1456C11.0807 21.0908 11.0807 20.9814 11.026 20.9266C10.9713 20.8445 10.9029 20.7761 10.8344 20.7077C10.766 20.6393 10.6975 20.5708 10.6427 20.4886C10.5881 20.4339 10.5333 20.4339 10.4786 20.4886C10.4216 20.5456 10.3713 20.6025 10.3229 20.6572C10.2318 20.7602 10.1479 20.8551 10.0406 20.9266C9.98586 20.9814 9.98586 21.0908 10.0406 21.1456C10.0975 21.2025 10.1478 21.2594 10.1961 21.314Z" />
<path d="M13.0515 14.0565C13.0926 14.0975 13.1336 14.1386 13.161 14.1933C13.2157 14.1933 13.2157 14.1385 13.2157 14.029V13.0984C13.2157 13.0342 13.1969 12.9701 13.1814 12.917C13.1704 12.8794 13.161 12.8474 13.161 12.8247L12.9967 12.6605C12.9967 12.6605 12.942 12.7152 12.942 12.8247C12.942 12.9964 12.927 13.1532 12.9127 13.3028C12.8997 13.4394 12.8872 13.57 12.8872 13.7006C12.8872 13.81 12.8872 13.9195 12.942 13.9195C12.9694 13.9743 13.0104 14.0154 13.0515 14.0565Z" />
<path d="M12.504 15.2881C12.6135 15.3976 12.723 15.5071 12.7777 15.6166C12.942 15.6713 12.9967 15.6166 12.9967 15.5071C13.0241 15.3703 13.0515 15.2471 13.0788 15.1239C13.1062 15.0007 13.1336 14.8776 13.161 14.7407C13.161 14.6312 13.161 14.5217 13.1062 14.5217C13.0709 14.4511 13.0127 14.4032 12.9464 14.3486C12.9101 14.3187 12.8713 14.2868 12.8325 14.248C12.7904 14.206 12.7807 14.2285 12.7536 14.2908C12.7454 14.3096 12.7357 14.3321 12.723 14.3575C12.6682 14.6312 12.6135 14.8501 12.504 15.0691L12.504 15.2881Z" />
<path d="M12.1208 16.5472L12.4493 16.8757C12.504 16.9304 12.5588 16.8757 12.5588 16.8209C12.6682 16.6019 12.723 16.3829 12.7777 16.164V15.9451C12.6682 15.8356 12.5588 15.7261 12.504 15.6166C12.4493 15.5618 12.3945 15.6166 12.3945 15.6713C12.3398 15.7808 12.2987 15.8902 12.2577 15.9997C12.2166 16.1092 12.1756 16.2187 12.1208 16.3282C12.066 16.3829 12.066 16.4924 12.1208 16.5472Z" />
<path d="M11.6244 17.7043C11.703 17.7953 11.7896 17.8957 11.9019 17.9705C11.9019 18.0252 12.0113 18.0252 12.0113 17.9705C12.0661 17.8609 12.1209 17.765 12.1757 17.6692C12.2304 17.5735 12.2851 17.4778 12.3398 17.3684C12.3945 17.3136 12.3945 17.2041 12.3398 17.1494C12.2303 17.0399 12.1208 16.9304 12.0113 16.7662C11.9567 16.7115 11.9021 16.766 11.8474 16.8206C11.7379 17.0396 11.6282 17.2041 11.5187 17.3684C11.4639 17.4231 11.4639 17.5325 11.5187 17.5873C11.5534 17.622 11.588 17.6621 11.6244 17.7043Z" />
<path d="M10.9984 18.9009C11.0669 18.9694 11.1354 19.0379 11.1902 19.1201C11.2176 19.0927 11.245 19.079 11.2724 19.0653C11.2997 19.0516 11.3271 19.0379 11.3544 19.0106C11.3937 18.9516 11.4401 18.8926 11.4885 18.8311C11.5748 18.7214 11.6675 18.6036 11.7376 18.4632C11.7924 18.4085 11.7924 18.299 11.7376 18.2442C11.703 18.2096 11.6685 18.1696 11.6322 18.1275C11.5535 18.0364 11.4668 17.9359 11.3544 17.861C11.2997 17.8063 11.2449 17.8063 11.1902 17.9157C11.1509 17.9747 11.1045 18.0337 11.0562 18.0952C10.9698 18.205 10.8772 18.3228 10.807 18.4632C10.7522 18.518 10.7522 18.6274 10.807 18.6822C10.8617 18.7642 10.93 18.8325 10.9984 18.9009Z" />
<path d="M10.2321 19.7222C10.3006 19.7906 10.369 19.8591 10.4238 19.9413C10.4786 19.996 10.5881 19.996 10.6427 19.9413C10.6975 19.8591 10.766 19.7769 10.8345 19.6947C10.9029 19.6127 10.9713 19.5306 11.026 19.4486C11.0807 19.3938 11.0807 19.2843 11.026 19.2296C10.9712 19.1474 10.9027 19.0789 10.8342 19.0104C10.7658 18.942 10.6974 18.8737 10.6427 18.7917C10.5881 18.7369 10.5333 18.7369 10.4786 18.7917C10.3963 18.8739 10.3278 18.9561 10.2592 19.0384C10.1909 19.1203 10.1226 19.2023 10.0406 19.2843C9.98586 19.3391 9.98586 19.4486 10.0406 19.5033C10.0953 19.5854 10.1637 19.6538 10.2321 19.7222Z" />
<path d="M9.42981 20.4929C9.5209 20.5959 9.60483 20.6909 9.71213 20.7624C9.65739 20.8171 9.76688 20.8719 9.82162 20.8171C9.87855 20.7602 9.93548 20.7098 9.99013 20.6615C10.0931 20.5704 10.1881 20.4865 10.2596 20.3792C10.3143 20.3244 10.3143 20.2149 10.2596 20.1602C10.2049 20.0781 10.1364 20.0097 10.068 19.9413C9.99955 19.8728 9.93112 19.8044 9.87637 19.7223C9.82162 19.6675 9.76688 19.6675 9.71213 19.7223C9.65522 19.7792 9.59832 19.8295 9.54369 19.8778C9.44067 19.9689 9.34575 20.0529 9.27424 20.1602C9.2195 20.2149 9.2195 20.2697 9.27424 20.3244C9.33115 20.3813 9.38149 20.4383 9.42981 20.4929Z" />
<path d="M12.5588 13.6732C12.5998 13.7143 12.6409 13.7553 12.6682 13.81C12.7537 13.7673 12.7724 13.7246 12.8026 13.6558C12.8111 13.6365 12.8205 13.6151 12.8325 13.5911C12.8872 13.3174 12.8872 13.0437 12.8872 12.77C12.8872 12.6605 12.8872 12.551 12.8325 12.551L12.6682 12.3867C12.6682 12.3867 12.6135 12.4415 12.6135 12.551C12.5588 12.8247 12.504 13.0984 12.4493 13.3174V13.5363C12.4767 13.5911 12.5177 13.6322 12.5588 13.6732Z" />
<path d="M12.0113 14.7407C12.1208 14.8501 12.2303 14.9596 12.285 15.0691C12.3945 15.0691 12.4493 15.0691 12.4493 14.9596C12.4725 14.8667 12.5056 14.7738 12.5402 14.6767C12.5871 14.545 12.6367 14.4055 12.6682 14.248V14.029L12.3945 13.7553C12.3525 13.7133 12.3428 13.7358 12.3157 13.798C12.3075 13.8168 12.2977 13.8393 12.285 13.8648C12.2303 14.0838 12.1208 14.3028 12.0113 14.5217C11.9566 14.5765 11.9566 14.686 12.0113 14.7407Z" />
<path d="M11.5187 15.8903C11.6282 15.9998 11.7376 16.1093 11.8471 16.2735L11.9566 16.164C11.9849 16.1074 12.0132 16.0544 12.0405 16.0032C12.119 15.8565 12.1897 15.7242 12.2303 15.5618C12.285 15.5071 12.285 15.3976 12.2303 15.3429C12.1208 15.2334 12.0113 15.1239 11.9566 15.0144C11.9019 14.9596 11.8471 15.0144 11.8471 15.0691C11.7924 15.1786 11.7376 15.2744 11.6829 15.3702C11.6282 15.466 11.5735 15.5618 11.5187 15.6713C11.4639 15.7261 11.4639 15.8356 11.5187 15.8903Z" />
<path d="M10.9127 17.0474C10.9913 17.1384 11.078 17.2388 11.1902 17.3136C11.2449 17.3136 11.2997 17.3136 11.3544 17.2589C11.4091 17.1768 11.4639 17.0809 11.5187 16.9851C11.5734 16.8893 11.6282 16.7935 11.6829 16.7114C11.7376 16.6567 11.7376 16.5472 11.6829 16.4924C11.5736 16.3831 11.4637 16.2732 11.3544 16.1093C11.2997 16.0545 11.2449 16.1093 11.1902 16.164C11.1601 16.2092 11.1299 16.2585 11.0987 16.3097C11.0163 16.4446 10.926 16.5924 10.807 16.7114C10.7522 16.7662 10.7522 16.8757 10.807 16.9304C10.8417 16.9651 10.8763 17.0052 10.9127 17.0474Z" />
<path d="M10.287 18.08C10.3554 18.1484 10.4238 18.2168 10.4786 18.299C10.5333 18.299 10.5881 18.299 10.6427 18.2442C10.6975 18.1621 10.7659 18.08 10.8344 17.9978C10.9028 17.9157 10.9713 17.8336 11.026 17.7515C11.0807 17.6968 11.0807 17.5873 11.026 17.5325L10.6427 17.1494C10.5881 17.0946 10.5333 17.0946 10.4786 17.1494C10.4239 17.2314 10.3555 17.3135 10.2871 17.3955C10.2186 17.4777 10.1501 17.5598 10.0954 17.642C10.0406 17.6968 10.0406 17.8063 10.0954 17.861C10.1501 17.9431 10.2185 18.0115 10.287 18.08Z" />
<path d="M9.52061 18.8465C9.58902 18.9149 9.65741 18.9832 9.71213 19.0653C9.76688 19.1748 9.82162 19.1748 9.87637 19.1201C9.95851 19.0379 10.027 18.9558 10.0954 18.8737C10.1638 18.7916 10.2322 18.7095 10.3143 18.6274C10.3691 18.5727 10.3691 18.4632 10.3143 18.4085C10.2595 18.3263 10.1911 18.2578 10.1226 18.1894C10.0542 18.121 9.98583 18.0526 9.93111 17.9705C9.87637 17.9157 9.82162 17.9157 9.76688 17.9705C9.70989 18.0275 9.6595 18.0845 9.61112 18.1392C9.52007 18.2421 9.43616 18.337 9.32891 18.4085C9.27424 18.4632 9.27424 18.5727 9.32891 18.6274C9.38368 18.7096 9.45215 18.778 9.52061 18.8465Z" />
<path d="M12.2303 13.1259C12.2714 13.1669 12.3124 13.208 12.3398 13.2627C12.3398 13.2627 12.3945 13.2627 12.3945 13.1532C12.4489 12.9358 12.5032 12.6644 12.5576 12.3926L12.5588 12.3867V12.1678L12.3945 12.0036C12.3945 12.0036 12.3398 12.0583 12.3398 12.1131C12.3124 12.2224 12.2714 12.3317 12.2304 12.4411C12.1893 12.5507 12.1482 12.6604 12.1208 12.77C12.066 12.8247 12.066 12.9342 12.1208 12.9889C12.1482 13.0437 12.1892 13.0848 12.2303 13.1259Z" />
<path d="M11.5187 14.1385C11.6282 14.248 11.7376 14.3575 11.7924 14.467C11.8471 14.5217 11.9019 14.467 11.9566 14.4123C12.0112 14.3029 12.0523 14.1935 12.0933 14.0841C12.1344 13.9745 12.1755 13.8649 12.2303 13.7553C12.2684 13.7172 12.2534 13.6524 12.2408 13.5981C12.2353 13.5745 12.2303 13.5529 12.2303 13.5363L11.9566 13.2627C11.9179 13.224 11.9066 13.24 11.8839 13.272C11.8745 13.2853 11.8632 13.3014 11.8471 13.3174C11.7924 13.4268 11.7376 13.5226 11.6829 13.6185C11.6282 13.7143 11.5735 13.8101 11.5187 13.9195C11.4639 13.9743 11.4639 14.0838 11.5187 14.1385Z" />
<path d="M10.8617 15.1786C10.9712 15.2881 11.0807 15.3976 11.1902 15.5618C11.2449 15.6166 11.2997 15.5618 11.3544 15.5071C11.4639 15.3429 11.5734 15.1239 11.6829 14.9049C11.7376 14.8501 11.7376 14.7407 11.6829 14.686C11.5734 14.5765 11.4639 14.467 11.4092 14.3575C11.3544 14.3028 11.2997 14.3575 11.2449 14.4123C11.2148 14.4575 11.1847 14.5068 11.1534 14.5579C11.0711 14.6928 10.9808 14.8406 10.8617 14.9596C10.807 15.0144 10.807 15.1239 10.8617 15.1786Z" />
<path d="M10.3106 16.2263C10.3892 16.3173 10.4759 16.4176 10.5881 16.4924C10.5333 16.6019 10.6427 16.6019 10.6975 16.4924C10.807 16.3282 10.9165 16.164 11.0807 15.9451C11.1354 15.8903 11.1354 15.7808 11.0807 15.7261C10.9712 15.6166 10.8617 15.5071 10.7522 15.3429C10.6975 15.2881 10.6427 15.2881 10.5881 15.3976C10.5333 15.4797 10.4649 15.5618 10.3965 15.6439C10.328 15.7261 10.2596 15.8082 10.2048 15.8903C10.1501 15.9451 10.1501 16.0545 10.2048 16.1093C10.2395 16.144 10.2742 16.1841 10.3106 16.2263Z" />
<path d="M9.52052 17.2589C9.58895 17.3273 9.65738 17.3957 9.71213 17.4778C9.82162 17.5325 9.87637 17.4779 9.93111 17.4231C10.0949 17.2594 10.2041 17.0956 10.3133 16.9319L10.3143 16.9304C10.3691 16.8757 10.3691 16.7662 10.3143 16.7114C10.2796 16.6767 10.245 16.6366 10.2086 16.5944C10.13 16.5034 10.0434 16.403 9.93111 16.3282C9.87637 16.2735 9.82162 16.2735 9.76688 16.3282C9.68476 16.4103 9.61633 16.4924 9.5479 16.5746C9.47946 16.6567 9.41103 16.7388 9.32891 16.8209C9.27424 16.8757 9.27424 16.9851 9.32891 17.0399C9.38366 17.122 9.45209 17.1904 9.52052 17.2589Z" />
<path d="M8.75416 18.0252C8.82259 18.0937 8.89103 18.1621 8.94577 18.2442C9.00051 18.3537 9.05526 18.3537 9.11001 18.299C9.16683 18.2421 9.2171 18.1853 9.26535 18.1307C9.35652 18.0276 9.44051 17.9326 9.5479 17.861C9.60264 17.8063 9.60264 17.6968 9.5479 17.642C9.49322 17.5601 9.42489 17.4917 9.35656 17.4234C9.28805 17.3549 9.21953 17.2864 9.16475 17.2041C9.11001 17.1494 9.05526 17.1494 9.00051 17.2041L8.56255 17.642C8.5078 17.6968 8.5078 17.7515 8.56255 17.8063C8.61729 17.8884 8.68573 17.9568 8.75416 18.0252Z" />
<path d="M7.84242 18.7413C7.93345 18.8442 8.01733 18.9391 8.12458 19.0106C8.12458 19.1748 8.17933 19.1748 8.23407 19.1201C8.31634 19.0378 8.39861 18.9692 8.48088 18.9007C8.56285 18.8324 8.64482 18.7641 8.72679 18.6822C8.78153 18.6274 8.78153 18.518 8.72679 18.4632C8.67207 18.3811 8.60368 18.3127 8.53528 18.2443C8.46681 18.1759 8.39834 18.1074 8.34357 18.0252C8.28882 17.9705 8.23407 17.9705 8.17933 18.0252C8.09721 18.08 8.01511 18.1484 7.93301 18.2169C7.85091 18.2853 7.76881 18.3538 7.68669 18.4085C7.63195 18.4632 7.63195 18.5179 7.68669 18.5727C7.74367 18.6297 7.79405 18.6866 7.84242 18.7413Z" />
<path d="M9.49315 22.4047C9.60264 22.5142 9.65739 22.5142 9.71213 22.4594C9.79415 22.3774 9.87617 22.309 9.95818 22.2407C10.0404 22.1722 10.1226 22.1037 10.2048 22.0214C10.2596 21.9667 10.2596 21.8572 10.2048 21.8025C10.148 21.7456 10.0977 21.6888 10.0494 21.6342C9.95826 21.5312 9.87428 21.4362 9.76688 21.3646C9.71213 21.3098 9.65739 21.3098 9.5479 21.3646C9.38366 21.5287 9.2195 21.6382 9.05526 21.7477C9.00051 21.8025 9.00051 21.8572 9.05526 21.912C9.13744 21.9942 9.2059 22.0763 9.27436 22.1585C9.34272 22.2406 9.41109 22.3226 9.49315 22.4047Z" />
<path d="M11.026 8.17154C10.9712 8.06213 11.0807 8.06213 11.1902 8.17154C11.4408 8.37208 11.6456 8.61853 11.8885 8.91089C11.9109 8.93778 11.9335 8.96506 11.9566 8.99273C12.0265 9.09765 12.2082 9.51534 12.3303 9.80336C12.3679 9.91034 12.3982 9.99654 12.4188 10.0552C12.3786 10.0112 12.3045 9.92509 12.2303 9.81384C12.137 9.72054 12.0501 9.62726 11.9652 9.53614C11.801 9.35993 11.6443 9.19182 11.4639 9.04748C11.3997 8.98328 11.3355 8.90027 11.2823 8.83154C11.2448 8.78304 11.2128 8.74165 11.1902 8.719C11.1627 8.63662 11.1353 8.54046 11.1078 8.44435C11.0805 8.34885 11.0533 8.2534 11.026 8.17154Z" />
<path fill-rule="evenodd" clip-rule="evenodd" d="M12.4198 10.0563C12.4194 10.056 12.4191 10.0556 12.4188 10.0552C12.4385 10.1113 12.4493 10.1423 12.4493 10.1423C12.4493 10.1423 12.4394 10.1125 12.421 10.0577C12.4388 10.0771 12.4493 10.0876 12.4493 10.0876C12.4493 10.0876 12.4119 9.99685 12.3572 9.86703C12.3147 9.74051 12.2595 9.57612 12.1954 9.38615C12.3532 9.74645 12.504 10.1423 12.504 10.1423C12.504 10.1423 12.1778 9.21391 11.9162 8.56325C11.5126 7.38039 11.0118 5.9447 10.9165 5.81763C10.5881 5.37974 10.3143 5.05127 10.0406 4.77754C9.93111 4.66805 9.82162 4.6133 9.93111 4.77754C9.95844 4.85953 9.98577 4.95516 10.0131 5.05082C10.0405 5.14677 10.068 5.24275 10.0954 5.325C10.1501 5.43441 10.2596 5.59865 10.3691 5.70814C10.4506 5.80999 10.5472 5.91942 10.6505 6.03642C10.8249 6.23388 11.0183 6.45293 11.1902 6.69356C11.2213 6.74022 11.3365 7.03902 11.4854 7.44284C11.3728 7.15523 11.284 6.95158 11.2449 6.91247C10.9712 6.52933 10.6975 6.20085 10.4238 5.92712C10.3143 5.81763 10.2048 5.76289 10.2596 5.92712L10.2605 5.92982C10.3149 6.09316 10.3694 6.2568 10.4238 6.47458C10.4786 6.58407 10.5881 6.74823 10.6975 6.85772C10.9709 7.07647 11.2443 7.40446 11.5178 7.73257L11.5187 7.73365C11.5468 7.76173 11.5925 7.85065 11.6489 7.97876C11.6413 7.96757 11.6344 7.9588 11.6282 7.95264L11.6274 7.95165C11.3539 7.6235 11.0804 7.29547 10.807 7.07671C10.6975 6.96722 10.5881 6.91247 10.6975 7.07671C10.7248 7.15882 10.7522 7.25463 10.7796 7.35044C10.807 7.44624 10.8344 7.54204 10.8617 7.62416C10.9165 7.73365 11.026 7.89789 11.1354 8.00738C11.3544 8.22629 11.6282 8.50002 11.9019 8.82849C11.9577 8.88432 12.0451 9.05403 12.1363 9.25374C12.2111 9.46513 12.2778 9.65439 12.3303 9.80336C12.3336 9.81116 12.3368 9.81886 12.34 9.82646C12.3735 9.92237 12.4008 10.0013 12.4198 10.0563ZM12.1422 9.26672C12.1402 9.26238 12.1382 9.25805 12.1363 9.25374C12.1143 9.19164 12.0916 9.12763 12.0684 9.06217C12.0934 9.13123 12.1181 9.19972 12.1422 9.26672ZM12.1422 9.26672C12.1501 9.28412 12.158 9.30173 12.1659 9.3195C12.2364 9.52196 12.2986 9.7023 12.3467 9.84217C12.3445 9.83699 12.3423 9.83175 12.34 9.82646C12.2867 9.67351 12.2177 9.47745 12.1422 9.26672ZM12.3467 9.84217C12.3503 9.8506 12.3538 9.85889 12.3572 9.86703C12.3839 9.94657 12.4055 10.0112 12.421 10.0577C12.4208 10.0574 12.4201 10.0566 12.4198 10.0563C12.4022 10.0047 12.3776 9.93202 12.3467 9.84217ZM12.0684 9.06217C11.9223 8.66006 11.7635 8.23871 11.6489 7.97876C11.6756 8.01782 11.7108 8.08629 11.7517 8.17545C11.859 8.47347 11.9687 8.78118 12.0684 9.06217ZM11.7517 8.17545C11.6584 7.91588 11.5668 7.66366 11.4854 7.44284C11.5774 7.67795 11.6854 7.96915 11.7951 8.27243C11.7801 8.23797 11.7656 8.20553 11.7517 8.17545ZM11.7951 8.27243C11.8326 8.35851 11.8735 8.45719 11.9162 8.56325C12.0182 8.86208 12.1139 9.14477 12.1954 9.38615C12.1856 9.36376 12.1757 9.34151 12.1659 9.3195C12.0551 9.00133 11.9239 8.62856 11.7951 8.27243ZM12.4198 10.0563C12.4196 10.0562 12.4199 10.0565 12.4198 10.0563Z" />
<path d="M9.71213 7.13145C9.65739 7.07671 9.76688 7.02196 9.87637 7.13145L10.5333 7.62416C10.5973 7.68819 10.6613 7.77096 10.7144 7.83959C10.7521 7.88831 10.7842 7.92991 10.807 7.95264C10.8617 8.17155 10.9165 8.33578 11.026 8.55477C11.0807 8.66426 10.9712 8.66426 10.8617 8.55477L10.2048 8.06213C10.0954 8.00738 9.98586 7.84315 9.93111 7.73365C9.87637 7.51467 9.82162 7.35044 9.71213 7.13145Z" />
<path d="M8.56255 6.41983C8.45306 6.31034 8.5078 6.2556 8.61729 6.31034C8.72678 6.36508 8.82259 6.43352 8.91839 6.50195C9.0142 6.57038 9.11 6.63881 9.2195 6.69356C9.32891 6.74823 9.4384 6.91247 9.49315 7.02196C9.5479 7.24094 9.60264 7.40518 9.71213 7.62416C9.76688 7.73365 9.71213 7.73365 9.60264 7.67891C9.43544 7.59531 9.26827 7.47979 9.12546 7.38109C9.08123 7.35053 9.03934 7.32158 9.00051 7.29569C8.89102 7.24094 8.78153 7.13145 8.78153 7.02196C8.72679 6.80298 8.67204 6.63882 8.56255 6.41983Z" />
<path d="M9.27424 5.98187C9.27424 5.87238 9.32891 5.81763 9.4384 5.92712C9.65739 6.09136 9.87637 6.2556 10.0954 6.47458C10.1594 6.53861 10.2234 6.62135 10.2765 6.68996C10.3142 6.73866 10.3463 6.78025 10.3691 6.80298C10.4238 7.02196 10.4786 7.1862 10.5881 7.40518C10.6427 7.51467 10.5333 7.51467 10.4238 7.40518L9.76688 6.91247C9.65739 6.85772 9.5479 6.69356 9.49315 6.58407C9.4384 6.36509 9.38366 6.20085 9.27424 5.98187Z" />
<path d="M8.17933 5.21551C8.06984 5.10601 8.12458 5.05127 8.23407 5.10601C8.34352 5.16074 8.43929 5.22913 8.53505 5.29753C8.6309 5.36598 8.72674 5.43443 8.83628 5.48916C8.94577 5.5439 9.05526 5.70814 9.11001 5.81763C9.16475 6.03662 9.2195 6.20085 9.32891 6.41983C9.38366 6.52933 9.32891 6.52933 9.2195 6.47458C9.05222 6.39094 8.88494 6.27536 8.74207 6.17663C8.6979 6.14612 8.65607 6.11721 8.61729 6.09136C8.5078 6.03661 8.39831 5.92712 8.39831 5.81763C8.34357 5.59865 8.28882 5.43441 8.17933 5.21551Z" />
<path d="M8.89102 4.72279C8.89102 4.66805 8.94577 4.66805 9.05526 4.72279C9.27424 4.88703 9.49315 5.05127 9.71213 5.27025C9.77628 5.3344 9.84043 5.41731 9.89357 5.48599C9.93113 5.53454 9.96319 5.57598 9.98586 5.59865C10.0406 5.81763 10.0954 5.98187 10.2048 6.20085C10.2596 6.31034 10.1501 6.31034 10.0406 6.20085C9.93112 6.11874 9.82164 6.02294 9.71216 5.92715C9.60266 5.83133 9.49316 5.73552 9.38366 5.6534C9.27424 5.59865 9.16475 5.43441 9.11001 5.325C9.05526 5.10601 9.00051 4.94178 8.89102 4.72279Z" />
<path d="M8.5078 3.57321C8.5078 3.51846 8.56255 3.46372 8.67204 3.57321C8.78152 3.65532 8.891 3.75112 9.00047 3.8469C9.10997 3.94271 9.21945 4.0385 9.32891 4.12059C9.39306 4.18474 9.45721 4.26768 9.51035 4.33638C9.54791 4.38495 9.57997 4.4264 9.60264 4.44907C9.61557 4.48786 9.6285 4.52971 9.64216 4.57389C9.68631 4.71676 9.73799 4.88402 9.82162 5.05127C9.87637 5.16076 9.76688 5.16076 9.65739 5.05127C9.54789 4.96915 9.43842 4.87335 9.32895 4.77754C9.21948 4.68174 9.11001 4.58593 9.00051 4.50381C8.89102 4.39432 8.78153 4.28483 8.72679 4.17534C8.67204 3.95643 8.61729 3.79219 8.5078 3.57321Z" />
<path d="M7.30347 2.86152C7.24873 2.69728 7.30347 2.69728 7.41296 2.75203C7.58041 2.83575 7.74785 2.95147 7.89078 3.05026C7.93478 3.08067 7.97645 3.10947 8.01509 3.13524C8.12458 3.18999 8.23407 3.35423 8.28882 3.46372C8.34357 3.6827 8.39831 3.84694 8.5078 4.06585C8.56255 4.17534 8.5078 4.17534 8.39831 4.12059C8.26098 4.01764 8.12366 3.9362 7.99985 3.86277C7.92623 3.8191 7.8574 3.77828 7.79618 3.73745C7.71743 3.69807 7.63869 3.60206 7.58031 3.53088C7.55752 3.50309 7.53783 3.47909 7.52246 3.46372C7.46771 3.24474 7.41296 3.0805 7.30347 2.86152Z" />
<path d="M7.41296 5.76289C7.30347 5.70814 7.35822 5.6534 7.46771 5.70814C7.57715 5.76286 7.67291 5.80391 7.76866 5.84495C7.86451 5.88603 7.96033 5.9271 8.06984 5.98187C8.17933 6.03661 8.28882 6.14611 8.34357 6.2556C8.39831 6.47458 8.45306 6.63882 8.56255 6.85772C8.61729 6.96722 8.56255 6.96722 8.45306 6.91247C8.34348 6.85768 8.24762 6.8166 8.15175 6.77552C8.05603 6.7345 7.96031 6.69348 7.85093 6.63882C7.74144 6.58407 7.63195 6.47458 7.63195 6.36509C7.5772 6.14611 7.52246 5.98187 7.41296 5.76289Z" />
<path d="M6.975 4.55856C6.92025 4.50381 6.975 4.44907 7.02975 4.50381C7.13925 4.55856 7.23506 4.59962 7.33087 4.64068C7.42666 4.68174 7.52246 4.7228 7.63195 4.77754C7.74144 4.83229 7.85093 4.94178 7.90568 5.05127C7.96035 5.27025 8.01509 5.43441 8.12458 5.6534C8.17933 5.76289 8.12458 5.76289 8.01509 5.70814C7.95858 5.67988 7.90572 5.65161 7.85461 5.62429C7.70774 5.54577 7.57542 5.47503 7.41296 5.43441C7.30347 5.37974 7.19398 5.27025 7.19398 5.16076C7.13924 4.94178 7.08449 4.77754 6.975 4.55856Z" />
<path d="M6.53711 3.40897C6.48236 3.29948 6.53711 3.24474 6.64653 3.29948C6.7031 3.32777 6.75602 3.35605 6.80717 3.38339C6.95402 3.46189 7.08632 3.5326 7.24873 3.57321C7.32748 3.61259 7.40622 3.7086 7.46461 3.77977C7.4874 3.80756 7.50709 3.83157 7.52246 3.84694C7.5772 4.06585 7.63195 4.23008 7.74144 4.44907C7.79618 4.55856 7.74144 4.55856 7.63195 4.50381C7.57536 4.47552 7.52243 4.44723 7.47127 4.41988C7.32443 4.34139 7.19215 4.27068 7.02975 4.23008C6.92025 4.17534 6.81076 4.06585 6.81076 3.95643C6.66636 3.81202 6.6066 3.62529 6.55711 3.47066C6.55031 3.44943 6.54371 3.4288 6.53711 3.40897Z" />
<path d="M6.15389 2.1499C6.09914 2.09515 6.15389 2.04041 6.26338 2.09515C6.37289 2.1499 6.46869 2.20466 6.56449 2.25941C6.66026 2.31415 6.75604 2.36889 6.86551 2.42363C6.9442 2.46297 7.02289 2.55888 7.08126 2.63001C7.10411 2.65785 7.12384 2.6819 7.13924 2.69728C7.19398 2.91626 7.24873 3.0805 7.35822 3.29948C7.41297 3.40897 7.35822 3.40897 7.24873 3.35423C6.975 3.24474 6.75602 3.13524 6.59178 3.02575C6.48236 2.97101 6.37287 2.86152 6.37287 2.75203C6.31813 2.53312 6.26338 2.36888 6.15389 2.1499Z" />
<path d="M6.15389 5.325C6.09914 5.21551 6.15389 5.16076 6.26338 5.21551C6.34541 5.24285 6.44109 5.28385 6.53677 5.32486C6.63266 5.36595 6.72856 5.40705 6.81076 5.43441C6.92025 5.48916 7.02975 5.59865 7.02975 5.70814C7.08449 5.92712 7.13924 6.09136 7.24873 6.31034C7.30347 6.41983 7.24873 6.47458 7.13924 6.41983C7.05706 6.39244 6.96118 6.35134 6.86532 6.31026C6.76959 6.26923 6.67388 6.22821 6.59186 6.20085C6.48236 6.14611 6.37287 6.03662 6.37287 5.92712C6.31813 5.70814 6.26338 5.5439 6.15389 5.325Z" />
<path d="M5.05905 4.99652C5.05905 4.83229 5.05905 4.77754 5.16854 4.83229C5.25067 4.85967 5.34652 4.88706 5.44237 4.91445C5.53811 4.94181 5.63385 4.96916 5.71592 4.99652C5.82542 5.05127 5.93491 5.16076 5.93491 5.27025C5.96228 5.37969 6.00333 5.47547 6.04438 5.57125C6.08544 5.66706 6.12651 5.76288 6.15389 5.87238C6.20864 5.98187 6.15389 6.03661 6.0444 5.98187C5.96228 5.9545 5.86648 5.92712 5.77067 5.89975C5.67486 5.87238 5.57906 5.84501 5.49694 5.81763C5.38745 5.76289 5.27796 5.70814 5.27796 5.59865C5.24363 5.46119 5.18769 5.3237 5.13725 5.19976C5.10737 5.12632 5.07942 5.05763 5.05905 4.99652Z" />
<path d="M4.01888 4.66805C3.96414 4.55856 4.01888 4.50381 4.12838 4.50381C4.21049 4.53119 4.3063 4.55856 4.4021 4.58593C4.49791 4.6133 4.59371 4.64067 4.67583 4.66805C4.78532 4.66805 4.89482 4.77754 4.89482 4.88703C4.9292 5.02456 4.98517 5.16209 5.03562 5.28604C5.0655 5.35945 5.09343 5.4281 5.1138 5.48916C5.16854 5.59865 5.1138 5.6534 5.00431 5.6534C4.84007 5.59865 4.62109 5.5439 4.45685 5.5439C4.34736 5.5439 4.23787 5.43441 4.23787 5.325C4.21049 5.2155 4.16943 5.10601 4.12837 4.99651C4.08731 4.88702 4.04625 4.77754 4.01888 4.66805Z" />
<path d="M3.03354 4.44907C2.92405 4.33957 2.97879 4.28483 3.08828 4.28483C3.17719 4.31446 3.2661 4.32805 3.36369 4.34297C3.44638 4.35561 3.5353 4.36921 3.63574 4.39432C3.74523 4.39432 3.85472 4.50381 3.85472 4.6133C3.88208 4.72288 3.92316 4.83245 3.96424 4.94203C4.00526 5.05144 4.04628 5.16084 4.07363 5.27025C4.12838 5.37974 4.07363 5.43441 3.96414 5.43441C3.8821 5.40709 3.80005 5.39342 3.71798 5.37975C3.63583 5.36607 3.55366 5.35238 3.4715 5.325C3.36202 5.325 3.30727 5.21552 3.25253 5.10602C3.22515 4.99654 3.18409 4.88705 3.14304 4.77757C3.10198 4.66807 3.06091 4.55857 3.03354 4.44907Z" />
<path d="M4.62109 3.79219C4.62109 3.57321 4.67583 3.51846 4.73058 3.57321C4.76221 3.58375 4.79588 3.5943 4.83079 3.60523C4.97714 3.65108 5.14542 3.70379 5.27796 3.79219C5.38745 3.84694 5.49694 3.95643 5.49694 4.06585C5.52431 4.17533 5.56537 4.27113 5.60643 4.36693C5.64749 4.46274 5.68855 4.55855 5.71592 4.66805C5.77067 4.77754 5.71592 4.83229 5.60643 4.77754C5.52431 4.75016 5.42851 4.72279 5.33272 4.69541C5.23694 4.66804 5.14116 4.64067 5.05905 4.6133C4.94956 4.55856 4.84007 4.44907 4.84007 4.39432C4.80571 4.25689 4.74979 4.11949 4.69937 3.99561C4.66946 3.9221 4.64148 3.85336 4.62109 3.79219Z" />
<path d="M3.58099 3.35423C3.52625 3.24474 3.58099 3.18999 3.69049 3.24474C3.77261 3.27211 3.86841 3.29949 3.9642 3.32686C4.05998 3.35423 4.15576 3.3816 4.23787 3.40897C4.34736 3.46372 4.45685 3.57321 4.45685 3.62796C4.49121 3.7654 4.54714 3.9028 4.59756 4.02668C4.62747 4.10019 4.65545 4.16892 4.67583 4.23008C4.73058 4.33957 4.67583 4.39432 4.56634 4.39432C4.48422 4.36695 4.38842 4.33957 4.29261 4.3122C4.19681 4.28483 4.101 4.25745 4.01888 4.23008C3.90947 4.23008 3.79998 4.12059 3.79998 4.01118C3.7726 3.90168 3.73154 3.79218 3.69048 3.68269C3.64942 3.5732 3.60836 3.46372 3.58099 3.35423Z" />
<path d="M5.33271 2.86152C5.27796 2.75203 5.33271 2.69728 5.4422 2.75203C5.52433 2.7794 5.62015 2.82047 5.71597 2.86154C5.81176 2.90259 5.90755 2.94364 5.98965 2.97101C6.09914 3.02575 6.20864 3.13525 6.20864 3.24474C6.26338 3.46372 6.31813 3.62796 6.42762 3.84694C6.48236 3.95643 6.42762 4.01118 6.31813 3.95643C6.1855 3.86802 6.01718 3.8153 5.87081 3.76945C5.83593 3.75852 5.80228 3.74799 5.77067 3.73745C5.66118 3.6827 5.55169 3.57321 5.55169 3.46372C5.49694 3.24474 5.4422 3.0805 5.33271 2.86152Z" />
<path d="M4.23787 2.42363C4.18312 2.31413 4.23787 2.25939 4.34736 2.31413C4.37899 2.32467 4.41265 2.33522 4.44756 2.34615C4.59392 2.392 4.76221 2.44472 4.89482 2.53312C5.00431 2.58786 5.1138 2.69728 5.1138 2.80677C5.16854 3.02575 5.22329 3.18999 5.33271 3.40897C5.38745 3.51846 5.33271 3.57321 5.22329 3.51846C5.19168 3.50792 5.15803 3.49739 5.12315 3.48646C4.97678 3.44061 4.80846 3.38789 4.67583 3.29948C4.56634 3.24474 4.45685 3.13524 4.45685 3.02575C4.42249 2.88831 4.36656 2.75091 4.31615 2.62703C4.28623 2.55352 4.25825 2.48479 4.23787 2.42363Z" />
<path d="M3.14303 2.04041C3.08828 1.98566 3.14303 1.93092 3.25252 1.93092C3.33464 1.95829 3.43045 1.98566 3.52625 2.01304C3.62206 2.04041 3.71786 2.06778 3.79998 2.09515C3.90939 2.1499 4.01888 2.25939 4.01888 2.36888C4.05324 2.50633 4.10917 2.64374 4.1596 2.76763C4.18951 2.84113 4.21748 2.90986 4.23787 2.97101C4.29261 3.0805 4.23787 3.13524 4.12838 3.0805C4.04626 3.05312 3.95047 3.02575 3.85468 2.99838C3.7589 2.97101 3.66311 2.94363 3.58099 2.91626C3.4715 2.91626 3.36201 2.80677 3.36201 2.69728C3.33465 2.58785 3.2936 2.4784 3.25255 2.36895C3.21148 2.25944 3.17041 2.14993 3.14303 2.04041Z" />
<path d="M2.04819 1.87617C2.04819 1.65719 2.10294 1.60244 2.15768 1.65719C2.23974 1.68454 2.33547 1.71189 2.43119 1.73925C2.52706 1.76664 2.62292 1.79403 2.70506 1.82142C2.81456 1.82142 2.92405 1.93092 2.92405 2.04041C2.95143 2.14994 2.9925 2.25946 3.03358 2.36898C3.07462 2.47843 3.11566 2.58786 3.14303 2.69728C3.19777 2.80677 3.14303 2.86152 3.03354 2.86152C2.8693 2.80677 2.65032 2.75203 2.48616 2.75203C2.37666 2.75203 2.26717 2.64261 2.26717 2.53312C2.2398 2.42361 2.19873 2.3141 2.15767 2.2046C2.11661 2.09512 2.07556 1.98565 2.04819 1.87617Z" />
<path d="M1.06284 1.5477C1.0081 1.4382 1.06284 1.32879 1.11759 1.38346C1.20646 1.4131 1.29536 1.42669 1.39296 1.44161C1.47563 1.45425 1.56454 1.46784 1.66497 1.49295C1.77446 1.49295 1.88395 1.60244 1.88395 1.76668C1.91132 1.87617 1.95238 1.98565 1.99344 2.09514C2.0345 2.20463 2.07556 2.31413 2.10294 2.42363C2.15768 2.53312 2.10294 2.58786 1.99345 2.58786C1.82924 2.53313 1.66494 2.47837 1.50073 2.47837C1.39125 2.47837 1.33651 2.3689 1.28176 2.25942C1.25853 2.16648 1.22544 2.07351 1.19086 1.97639C1.14398 1.84467 1.09435 1.70525 1.06284 1.5477Z" />
<path d="M4.89482 1.65719C4.89482 1.49295 4.94956 1.49295 5.00431 1.49295C5.16854 1.5477 5.38745 1.65719 5.55169 1.76668C5.66118 1.82142 5.77067 1.93092 5.77067 2.04041C5.82542 2.25939 5.88016 2.42363 5.98965 2.64261C6.0444 2.75203 5.98965 2.80677 5.88016 2.75203C5.74756 2.66369 5.57929 2.61099 5.43295 2.56515C5.39803 2.55421 5.36435 2.54367 5.33271 2.53312C5.22329 2.47837 5.1138 2.36888 5.1138 2.25939C5.05905 2.04041 5.00431 1.87617 4.89482 1.65719Z" />
<path d="M1.66497 0.452858C1.61023 0.343366 1.66497 0.288621 1.71972 0.288621C1.80183 0.315993 1.89763 0.343365 1.99344 0.370737C2.08924 0.39811 2.18505 0.425484 2.26717 0.452858C2.37666 0.507603 2.48616 0.617095 2.48616 0.726586C2.54081 0.83597 2.58182 0.945354 2.62283 1.05473C2.66392 1.16432 2.70501 1.2739 2.75981 1.38346C2.81456 1.49295 2.75981 1.5477 2.65032 1.5477C2.56816 1.5203 2.47227 1.4929 2.37638 1.4655C2.28068 1.43815 2.18498 1.4108 2.10294 1.38346C1.99345 1.38346 1.88395 1.2193 1.88395 1.10981C1.85658 1.0003 1.81551 0.8908 1.77445 0.781296C1.7334 0.671816 1.69234 0.562337 1.66497 0.452858Z" />
</svg>
