<svg width="" height="26" viewBox="0 0 23 26" fill="none" xmlns="http://www.w3.org/2000/svg">
<g clip-path="url(#clip0_2106_22796)">
<path d="M2.49041 12.9998L2.50344 18.0279L6.77598 20.542V23.4859L0.00244141 19.5129V11.5279L2.49041 12.9998ZM2.49041 7.97174V10.9026L0.00244141 9.43066V6.49979L2.49041 5.02783L4.99141 6.49979L2.49041 7.97174ZM8.56055 6.49979L11.0485 5.02783L13.5495 6.49979L11.0485 7.97174L8.56055 6.49979Z" />
<path d="M4.28809 16.9857V14.0419L6.77605 15.5138V18.4447L4.28809 16.9857ZM8.56062 21.597L11.0486 23.0689L13.5496 21.597V24.5278L11.0486 25.9998L8.56062 24.5278V21.597ZM17.1187 6.49978L19.6067 5.02783L22.1077 6.49978V9.43064L19.6067 10.9026V7.97172L17.1187 6.49978V6.49978ZM19.6067 18.0278L19.6197 12.9998L22.1077 11.5278V19.5128L15.3341 23.4858V20.5419L19.6067 18.0278Z" />
<path d="M17.8225 16.9858L15.3345 18.4447V15.5139L17.8225 14.042V16.9858Z" />
<path d="M17.8222 9.01407L17.8352 11.958L13.5496 14.472V19.5131L11.0617 20.9721L8.57368 19.5131V14.472L4.28809 11.958V9.01407L6.7891 7.54212L11.0486 10.0692L15.3342 7.54212L17.8352 9.01407H17.8222ZM4.28809 3.98599L11.0486 0L17.8222 3.98599L15.3342 5.45794L11.0486 2.93088L6.77607 5.45794L4.28809 3.98599Z" />
</g>
<defs>
<clipPath id="clip0_2106_22796">
<rect width="22.1104" height="26" />
</clipPath>
</defs>
</svg>
