<svg viewBox="0 0 15 14" fill="none" xmlns="http://www.w3.org/2000/svg">
  <path
    d="M7.5 0.76112C10.3365 0.76112 12.7404 2.514 13.6298 4.93575C13.726 5.23558 13.9904 5.46623 14.3269 5.46623C14.6635 5.46623 15 5.32784 15 4.93575V0.945634C15 0.415156 14.5433 0 14.0144 0H0.985577C0.456731 0 0 0.438221 0 0.945634V13.0544C0 13.5848 0.456731 14 0.985577 14H13.9904C14.5433 14 14.976 13.5618 14.976 13.0544V9.06425C14.976 8.69522 14.7115 8.41845 14.3269 8.41845C13.9423 8.41845 13.7019 8.69522 13.5817 9.06425C12.7404 11.5091 10.3365 13.2619 7.5 13.2619C3.89423 13.2619 0.985577 10.4712 0.985577 7.01153C0.985577 3.55189 3.89423 0.76112 7.5 0.76112Z" />
</svg>
