<svg width="" height="16" viewBox="0 0 11 14" fill="#6B93C0" xmlns="http://www.w3.org/2000/svg">
<path d="M10.4727 5.6283C10.6905 4.15666 9.57892 3.36601 8.05824 2.83891L8.55167 0.846368L7.34706 0.543904L6.8668 2.48427C6.55072 2.40467 6.22586 2.3295 5.90276 2.25521L6.38653 0.302464L5.1828 0L4.68937 1.99166C4.42773 1.93152 4.17047 1.87227 3.92025 1.80948L3.922 1.80328L2.26171 1.38585L1.94037 2.68149C1.94037 2.68149 2.83417 2.88756 2.81485 2.90082C3.30214 3.02375 3.39082 3.34833 3.37589 3.60657L2.02466 9.06507C1.96495 9.21453 1.81394 9.43828 1.4724 9.35338C1.48469 9.37107 0.597036 9.13316 0.597036 9.13316L0 10.5217L1.56722 10.9152C1.85871 10.9886 2.14406 11.0656 2.42502 11.1381L1.92632 13.1536L3.12917 13.4561L3.62261 11.4618C3.95098 11.552 4.26969 11.6342 4.58225 11.7129L4.09058 13.6975L5.29431 14L5.79301 11.988C7.84664 12.3798 9.39103 12.2215 10.0399 10.351C10.5632 8.84485 10.0144 7.97549 8.9336 7.40859C9.72116 7.22641 10.3138 6.70461 10.4727 5.6283ZM7.72109 9.51434C7.34882 11.0205 4.8316 10.2068 4.01507 10.0025L4.67532 7.33165C5.49186 7.53683 8.10916 7.94365 7.72109 9.51434ZM8.09336 5.60619C7.75357 6.97612 5.65868 6.2801 4.97823 6.10941L5.57702 3.68793C6.25747 3.85862 8.44719 4.17701 8.09336 5.60619Z" />
</svg>
