<svg width="13" height="14" viewBox="0 0 13 14" fill="#1A53F0" xmlns="http://www.w3.org/2000/svg">
<path d="M11.8462 1.07692H9.69231V0H8.61538V1.07692H4.30769V0H3.23077V1.07692H1.07692C0.791393 1.07721 0.517639 1.19076 0.315738 1.39266C0.113838 1.59456 0.000285103 1.86832 0 2.15385V12.9231C0.000285103 13.2086 0.113838 13.4824 0.315738 13.6843C0.517639 13.8862 0.791393 13.9997 1.07692 14H11.8462C12.1317 13.9997 12.4054 13.8862 12.6073 13.6843C12.8092 13.4824 12.9228 13.2086 12.9231 12.9231V2.15385C12.9228 1.86832 12.8092 1.59456 12.6073 1.39266C12.4054 1.19076 12.1317 1.07721 11.8462 1.07692ZM1.07692 2.15385H3.23077V3.23077H4.30769V2.15385H8.61538V3.23077H9.69231V2.15385H11.8462V4.30769H1.07692V2.15385ZM1.07692 5.38462H3.76923V8.61539H1.07692V5.38462ZM8.07692 12.9231H4.84615V9.69231H8.07692V12.9231ZM8.07692 8.61539H4.84615V5.38462H8.07692V8.61539ZM9.15385 12.9231V9.69231H11.8462L11.8467 12.9231H9.15385Z" />
</svg>
