<svg width="" height="24" viewBox="0 0 24 24" fill="none" xmlns="http://www.w3.org/2000/svg">
<g clip-path="url(#clip0_42014_60555)">
<path d="M23.741 9.50719C23.2662 7.2518 22.1547 5.17986 20.482 3.51799C18.2158 1.2518 15.205 0 12 0C8.79496 0 5.78417 1.2518 3.51799 3.51799C2.96763 4.06835 2.47122 4.66187 2.05036 5.28777C1.92086 5.46043 1.81295 5.63309 1.70504 5.82734C0.593525 7.67266 0 9.78777 0 12C0 15.205 1.2518 18.2158 3.51799 20.482C5.78417 22.7482 8.79496 24 12 24C15.205 24 18.2158 22.7482 20.482 20.482C21.5504 19.4137 22.3921 18.1727 22.9856 16.8345C23.0612 16.6835 23.1259 16.5324 23.1799 16.3813C23.7194 15 24 13.5216 24 12C24 11.1583 23.9137 10.3381 23.7518 9.53957C23.741 9.52878 23.741 9.51799 23.741 9.50719ZM19.5755 4.01439C19.6403 4.07914 19.7158 4.14388 19.7806 4.21942C20.8381 5.27698 21.6583 6.51799 22.2086 7.86691C22.2626 8.00719 22.1439 8.14748 22.0036 8.11511C21.6906 8.06115 21.3345 8.02878 20.9353 8.03957C20.6655 8.03957 20.4281 7.85612 20.3741 7.58633C20.1583 6.38849 19.8453 5.27698 19.4568 4.30576C19.4353 4.2518 19.4137 4.19784 19.3921 4.14389C19.3381 4.03597 19.4784 3.92806 19.5755 4.01439ZM20.7194 11.0612C20.7194 10.9317 20.8813 10.8777 20.946 10.9856C21.0324 11.1151 21.1187 11.2338 21.205 11.3633C21.313 11.536 21.4209 11.6978 21.518 11.8705C21.5827 11.9784 21.5612 12.1079 21.4856 12.1942C21.3561 12.3345 21.2158 12.4856 21.0647 12.6367C21.0108 12.6906 20.9568 12.7446 20.8921 12.7986C20.8165 12.8633 20.6978 12.8201 20.7086 12.7122C20.7194 12.5288 20.7194 12.3453 20.7194 12.1727C20.7302 11.795 20.7302 11.4281 20.7194 11.0612ZM5.61151 3.03237C7.45683 1.70504 9.67986 0.992806 12 0.992806C12.6151 0.992806 13.2194 1.04676 13.813 1.14389C13.9748 1.16547 14.0288 1.3705 13.8993 1.46763C13.3273 1.92086 12.7878 2.58993 12.313 3.45324C12.1942 3.66906 11.9568 3.76619 11.7194 3.70144C10.1547 3.25899 8.61151 3.05396 7.18705 3.10791C6.65827 3.1295 6.16187 3.18345 5.69784 3.26978C5.56835 3.28058 5.5036 3.10791 5.61151 3.03237ZM4.03597 19.4784C3.80935 19.0468 4.10072 18.0324 5.6223 16.4892C5.78417 16.3273 5.76259 16.0683 5.58993 15.9281C5.52518 15.8849 5.47122 15.8309 5.40648 15.7878C5.2554 15.6691 5.03957 15.6799 4.89928 15.8094C4.86691 15.8417 4.84532 15.8633 4.84532 15.8741C4.08993 16.6511 3.55036 17.3741 3.25899 18.0216C3.17266 18.205 2.92446 18.2266 2.80576 18.054C1.6295 16.2734 0.992806 14.1799 0.992806 12C0.992806 11.223 1.07914 10.446 1.23022 9.70144C1.2518 9.59353 1.41367 9.58273 1.44604 9.69065C1.67266 10.446 2.05036 11.223 2.55755 12.0108C3.2482 13.0683 4.16547 14.0935 5.2446 15.0324C5.61151 15.3561 6 15.6583 6.41007 15.9604C7.23022 16.5647 8.1259 17.1259 9.07554 17.6115C9.4964 17.8273 9.90648 18.0432 10.3273 18.2266C10.5647 18.3345 10.8237 18.3453 11.0719 18.2482C11.2662 18.1727 11.4712 18.0863 11.6763 18.0108C11.8921 17.9245 12.0108 17.6763 11.9568 17.4496C11.946 17.4173 11.946 17.3957 11.9353 17.3849C11.6007 15.9928 11.4173 14.4173 11.3957 12.777C11.3957 12.7554 11.3957 12.7338 11.3957 12.723C11.3957 12.6367 11.3957 12.5396 11.3957 12.4532C11.3957 12.4209 11.3957 12.3777 11.3957 12.3453C11.3957 12.3345 11.3957 12.3237 11.3957 12.313C11.3957 12.205 11.3957 12.1079 11.3957 12C11.3957 11.7194 11.4065 11.4388 11.4281 11.1583C11.5252 9.17266 11.8705 7.30576 12.3993 5.74101C12.4532 5.60072 12.3669 5.43885 12.2266 5.38489C12.0863 5.34173 11.946 5.28777 11.8058 5.2446C11.6655 5.20144 11.5144 5.27698 11.4604 5.41727C10.8777 7.1223 10.5216 9.14029 10.4245 11.277C10.4137 11.5468 10.2626 11.795 10.036 11.9353C8.77338 12.6906 7.60791 13.4784 6.60432 14.2878C6.39928 14.4496 6.09712 14.4496 5.89209 14.277C4.88849 13.4029 4.03597 12.4532 3.39928 11.4712C2.13669 9.53957 1.83453 7.71583 2.54676 6.34532C2.54676 6.34532 2.54676 6.33453 2.55755 6.33453C2.64389 6.18345 2.74101 6.03237 2.83813 5.8813C3.66906 4.80216 5.20144 4.16547 7.23022 4.08993C7.35971 4.08993 7.48921 4.07914 7.61871 4.07914C8.85971 4.07914 10.1978 4.28417 11.5576 4.67266C11.5899 4.68345 11.6223 4.69424 11.6439 4.69424C11.6655 4.70504 11.6871 4.70504 11.7086 4.71583C12.0216 4.81295 12.3345 4.91007 12.6583 5.02878C12.6691 5.02878 12.6691 5.03957 12.6799 5.03957C12.7662 5.07194 12.8417 5.10432 12.9281 5.1259C12.9496 5.13669 12.982 5.14748 13.0036 5.15827C13.0252 5.16906 13.0576 5.17986 13.0791 5.19065C13.7482 5.44964 14.4065 5.7518 15.0647 6.08633C16.3381 6.7446 17.4928 7.52158 18.5072 8.36331C16.5755 8.80576 14.3417 9.65827 12.0863 10.8022C11.9784 10.8561 11.9137 10.964 11.9029 11.0719C11.8921 11.2122 11.8813 11.4928 11.8813 11.7194C11.8813 11.8597 12.0216 11.9568 12.1511 11.8921C14.3849 10.7158 16.6079 9.84173 18.518 9.3777C18.8741 9.29137 19.1115 8.94604 19.0576 8.57914C19.0252 8.32014 18.982 8.07194 18.9389 7.82374C18.8849 7.51079 18.7122 7.24101 18.464 7.04676C17.5683 6.36691 16.5863 5.74101 15.5288 5.19065C14.8165 4.82374 14.0935 4.5 13.3705 4.21942C13.2194 4.16547 13.1439 3.98201 13.2302 3.83094C13.9748 2.49281 14.8597 1.7482 15.723 1.7482C15.7338 1.7482 15.7446 1.7482 15.7446 1.7482C16.759 1.76978 17.7842 2.82734 18.5288 4.66187C18.9065 5.58993 19.2086 6.65827 19.4029 7.82374C19.4892 8.32014 19.554 8.83813 19.6079 9.35612C19.6079 9.35612 19.5971 9.35612 19.5971 9.36691C19.6079 9.3777 19.6079 9.3777 19.6187 9.38849C19.705 10.2734 19.7374 11.1906 19.7266 12.1295C19.7158 12.723 19.6835 13.3058 19.6295 13.8777C18.2698 14.9784 16.5755 16.0791 14.7302 17.0612C14.1259 17.3849 13.5108 17.687 12.9065 17.9568C12.8957 17.9568 12.8849 17.9676 12.8741 17.9676C12.8309 17.9892 12.777 18.0108 12.7338 18.0324C12.2374 18.259 11.741 18.464 11.2554 18.6583C11.223 18.6691 11.2014 18.6799 11.1691 18.6906C11.1367 18.7014 11.1043 18.7122 11.0612 18.7338C10.9748 18.7662 10.8993 18.7986 10.813 18.8309C10.7914 18.8417 10.7698 18.8525 10.7482 18.8525C10.6511 18.8849 10.554 18.9281 10.4568 18.9604C10.446 18.9604 10.4353 18.9712 10.4245 18.9712C9.3777 19.3381 8.38489 19.6187 7.47842 19.8022C5.29856 20.2446 4.27338 19.9209 4.03597 19.4784ZM7.05755 15.205C8.02878 14.4173 9.16187 13.6295 10.4137 12.8849C10.4353 14.482 10.6187 16.0144 10.9209 17.3957C10.4568 17.2014 9.99281 16.9856 9.53957 16.7482C8.65468 16.2734 7.82374 15.7554 7.05755 15.205ZM13.4137 22.9101C12.9496 22.9748 12.4748 22.9964 11.9892 22.9964C9.85252 22.9964 7.80216 22.3921 6.04317 21.259C5.92446 21.1835 5.97842 20.9892 6.11871 20.9892C6.15108 20.9892 6.17266 20.9892 6.20504 20.9892C6.64748 20.9568 7.14389 20.8921 7.67266 20.795C8.80576 20.5791 10.0576 20.2014 11.3633 19.705C11.482 19.6619 11.6115 19.7158 11.6655 19.8345C12.1727 21.0755 12.7986 22.0144 13.5 22.6079C13.6295 22.705 13.5647 22.8993 13.4137 22.9101ZM18.0755 19.9748C17.2878 21.518 16.3273 22.3921 15.3885 22.3705C14.3741 22.3489 13.3489 21.2914 12.6043 19.4568C12.5612 19.3381 12.6151 19.2086 12.723 19.1547C12.7338 19.1547 12.7338 19.1439 12.7446 19.1439C12.7986 19.1223 12.8525 19.1223 12.9065 19.1331C14.3094 19.5324 15.7014 19.7374 17.0072 19.7374C17.1475 19.7374 17.2878 19.7374 17.4281 19.7266C17.5899 19.7158 17.7518 19.7158 17.9137 19.6942C18.0324 19.6942 18.1403 19.8453 18.0755 19.9748ZM18.4101 18.6475C18.0863 18.6906 17.741 18.723 17.3741 18.7338C16.4892 18.7662 15.5612 18.6906 14.6007 18.5072C14.482 18.4856 14.4604 18.3237 14.5683 18.2698C14.7734 18.1619 14.9892 18.054 15.1942 17.946C16.6619 17.1691 18.0324 16.3165 19.2194 15.4532C19.3058 15.3885 19.4353 15.464 19.4137 15.5719C19.2518 16.5647 19.0144 17.5036 18.7338 18.3561C18.6906 18.518 18.5612 18.6259 18.4101 18.6475ZM20.0396 19.5216C19.9532 19.6079 19.8777 19.6942 19.7914 19.7806C19.6403 19.9317 19.4892 20.0719 19.3273 20.2122C19.2302 20.2986 19.0791 20.1906 19.1331 20.0719C19.1439 20.0396 19.1655 20.0072 19.1763 19.964C19.241 19.8237 19.3058 19.6727 19.3705 19.5216C19.3813 19.4892 19.4137 19.4568 19.4568 19.446C19.6079 19.4029 19.7698 19.3597 19.9101 19.3165C20.0288 19.2842 20.1259 19.4245 20.0396 19.5216ZM22.2518 16.0252C22.1978 16.1547 22.1439 16.295 22.0899 16.4245C22.0791 16.446 22.0683 16.4568 22.0576 16.4784C21.6906 17.1799 21.0863 17.7302 20.277 18.1079C20.0935 18.1942 19.8993 18.0216 19.9532 17.8273C20.223 16.8561 20.4281 15.8094 20.5576 14.7086C20.5791 14.5036 20.6871 14.3201 20.8381 14.1799C21.1727 13.8885 21.4856 13.5971 21.777 13.3165C21.9173 13.1763 22.1547 13.241 22.2194 13.4245C22.4892 14.3849 22.5108 15.259 22.2518 16.0252ZM22.4676 10.8669C22.3813 11.018 22.1763 11.018 22.0791 10.8777C22.0683 10.8561 22.0468 10.8345 22.036 10.813C21.7122 10.3058 21.3345 9.80935 20.9029 9.33453C20.795 9.21583 20.8813 9.03237 21.0432 9.03237C22.0252 9.03237 22.5432 9.28058 22.705 9.57194C22.8453 9.82014 22.8022 10.2626 22.4676 10.8669ZM22.9964 12.3237C22.9964 12.3993 22.8885 12.4209 22.8669 12.3453C22.8561 12.313 22.8453 12.2914 22.8237 12.259C22.8022 12.205 22.8022 12.1403 22.8453 12.0971C22.8561 12.0863 22.8669 12.0647 22.8885 12.0432C22.9317 11.9784 23.0072 11.9892 23.0072 12.0647C23.0072 12.1511 23.0072 12.2374 22.9964 12.3237Z" fill="none"/>
</g>
<defs>
<clipPath id="clip0_42014_60555">
<rect width="24" height="24" fill="none"/>
</clipPath>
</defs>
</svg>
