<svg height="24" viewBox="0 0 22 24" xmlns="http://www.w3.org/2000/svg">
<path d="M21.4158 18.1109L21.5356 17.8713C21.9767 16.813 21.5643 15.5793 20.5727 14.9974C20.2182 14.7889 19.8148 14.6787 19.4065 14.6787C18.5909 14.6787 17.8271 15.1153 17.4137 15.8186L17.3489 15.9202L16.0797 18.1202C16.0291 18.2274 15.9694 18.3308 15.9022 18.4281L15.8975 18.4363L15.8885 18.4523L15.8779 18.4671C15.8424 18.5172 15.8047 18.5657 15.7651 18.6122H20.0596C20.6791 18.6121 21.1591 18.4344 21.4158 18.1109Z"/>
<path d="M11.0302 23.9992L11.1008 24L11.182 23.9992C12.0655 23.987 12.8879 23.7859 13.4981 23.4332L19.8038 19.7932C20.0075 19.6757 20.2085 19.5283 20.4035 19.3559C20.2923 19.3662 20.178 19.3715 20.0601 19.3715H15.1382H8.04751C7.93077 19.3695 7.81531 19.3584 7.70215 19.3384L9.85376 23.0643C10.1826 23.6342 10.5999 23.9654 11.0302 23.9992Z"/>
<path d="M3.03523 12.7432L0.89421 16.4525C0.566218 17.0207 0.487669 17.5471 0.672867 17.9359C0.698156 17.9811 0.724339 18.026 0.751033 18.0709C1.20228 18.8286 1.787 19.4403 2.39815 19.7935L8.70267 23.433C8.90703 23.5513 9.13501 23.6522 9.38113 23.735C9.31663 23.6438 9.25469 23.547 9.19568 23.4445L6.73433 19.1818L6.29701 18.4244C6.23443 18.334 6.17708 18.2349 6.12599 18.1291L3.32273 13.2722C3.21877 13.1316 3.13268 12.9806 3.06678 12.8241C3.05592 12.7974 3.04532 12.7704 3.03523 12.7432Z"/>
<path d="M2.69725 11.8092L3.07684 11.1527C3.14045 11.0054 3.22295 10.8626 3.32271 10.7272L6.13427 5.85663L6.28945 5.5888L6.30171 5.56721L6.31078 5.55125L6.32138 5.53643C6.35791 5.48445 6.39648 5.43438 6.43684 5.38623H4.07487H2.14166C1.48695 5.38623 0.99215 5.58101 0.74705 5.93518C0.718696 5.9827 0.692001 6.02931 0.664924 6.07683C0.236542 6.84457 0 7.65625 0 8.35949V15.6399C0 15.8758 0.0265654 16.1236 0.0780376 16.3777C0.124529 16.2764 0.177407 16.1743 0.236159 16.0724L2.69725 11.8092Z"/>
<path d="M7.06328 4.6265H14.1999C14.3016 4.63097 14.4013 4.6417 14.4989 4.6592L12.3481 0.933654C12.0178 0.361328 11.5978 0.0301433 11.1659 0.000383932C11.1643 0.000383932 11.1625 0.000383932 11.1601 0.000383932C11.1471 0.000383932 11.124 0 11.1006 0C11.0733 0 11.0461 0.000383511 11.019 0.00114985C10.1335 0.0134112 9.31248 0.214064 8.70286 0.566068L2.39808 4.20629C2.19424 4.32431 1.99358 4.47081 1.79932 4.64183C1.91005 4.63174 2.02411 4.62663 2.14162 4.62663H7.06328V4.6265Z"/>
<path d="M15.4667 4.8163L17.4185 8.22803C17.8311 8.93051 18.599 9.36975 19.4191 9.36975C19.8293 9.36975 20.2348 9.25888 20.5909 9.04967C21.6937 8.40135 22.0638 6.97699 21.4161 5.87462L21.3212 5.72071C20.8943 5.0646 20.3535 4.52408 19.803 4.20617L13.4981 0.565818C13.2942 0.44793 13.0666 0.347413 12.8213 0.264648C12.8854 0.355587 12.947 0.452018 13.0057 0.553685L15.4667 4.8163Z"/>
</svg>
