<svg width="" height="24" viewBox="0 0 31 24" fill="none" xmlns="http://www.w3.org/2000/svg">
<path d="M27.6859 0.152227C25.0111 0.622988 23.5934 1.17399 22.117 2.32415C21.5606 2.76281 20.8117 3.51175 20.3516 4.09485C20.0948 4.41582 19.9664 4.53886 19.9076 4.51746C18.4044 3.93436 17.1258 3.68828 15.6119 3.68828C13.9482 3.68828 12.4931 3.98251 11.0541 4.60306C10.792 4.72075 10.5619 4.81169 10.5405 4.81169C10.5245 4.81169 10.4228 4.694 10.3212 4.55491C9.2192 3.08378 7.65178 1.89083 5.97202 1.24354C4.82721 0.804873 2.23803 0.285966 1.41955 0.328763C0.595717 0.371559 0.461978 0.542745 0.413832 1.56451C0.392434 2.04062 0.32289 2.53278 0.210549 3.07308C0.0126158 4.02531 -0.0569284 5.34664 0.0500627 6.17048C0.408483 8.8934 1.91706 11.7233 4.3404 14.2002L4.76302 14.6281L4.84326 15.2487C5.40497 19.5337 8.72704 22.9948 13.2367 23.9898C13.3811 24.0219 13.3651 23.9952 13.0495 23.6528C11.9261 22.4385 11.7602 21.0529 12.5734 19.6781C12.9211 19.0843 13.1725 18.8168 13.8252 18.3247C14.1836 18.0518 14.542 17.7309 14.6597 17.5757C15.2695 16.7679 15.4728 15.698 15.3605 13.8631C15.2856 12.5846 15.2856 11.4719 15.3605 11.1135C15.4835 10.5357 15.8847 10.0061 16.2592 9.92051C16.5106 9.86702 16.8637 10.0596 17.0991 10.3806C17.4682 10.8888 17.5698 11.4344 17.6554 13.3977C17.7357 15.2915 17.8694 16.0404 18.2546 16.8482C18.4846 17.3243 18.5595 17.4045 19.806 18.5868C20.5121 19.2555 21.0845 20.1328 21.2664 20.8443C21.3734 21.2509 21.3627 21.9249 21.245 22.3689C21.1968 22.5722 21.1647 22.7327 21.1861 22.7327C21.2557 22.7327 22.2026 22.0907 22.577 21.7858C23.1601 21.3151 24.1017 20.32 24.5029 19.7476C24.6955 19.4748 24.8559 19.2341 24.8666 19.2073C24.8773 19.1806 24.7222 19.2127 24.5189 19.2822C24.0535 19.4427 23.3474 19.539 22.9622 19.4962C21.3466 19.3143 20.1002 18.3247 19.5973 16.8214C19.4636 16.4363 19.4529 16.3186 19.4529 15.6445C19.4529 14.9651 19.4636 14.8581 19.6027 14.4676C19.9504 13.4566 20.6137 12.6916 21.5392 12.2262C22.1812 11.9105 22.4647 11.8464 23.2725 11.8517C23.9037 11.8517 24.0482 11.8731 24.4226 11.9961C24.658 12.0764 25.0057 12.2262 25.193 12.3385C25.5353 12.5418 26.2094 13.1463 26.4073 13.4405L26.5143 13.5903L26.9423 13.0928C29.1463 10.5411 30.3178 8.03212 30.5479 5.35199C30.6174 4.57631 30.5586 3.85947 30.3339 2.69862C30.2376 2.20646 30.152 1.53776 30.1253 1.12585C30.0878 0.414355 30.0878 0.409006 29.9166 0.259218C29.5742 -0.0510557 29.0018 -0.0778034 27.6859 0.152227ZM29.05 2.02457C29.157 2.22785 29.0874 3.85412 28.9109 5.2664C28.6702 7.21364 28.1352 9.17692 27.5093 10.4234C27.2579 10.9155 26.3271 12.3278 26.2843 12.2797C26.2736 12.2743 26.1987 11.9908 26.1131 11.6538C25.6477 9.80817 24.781 8.2675 23.4651 6.93546C22.9836 6.454 22.3737 5.94045 21.8923 5.61412C21.7425 5.51248 21.6248 5.41084 21.6302 5.38409C21.6355 5.36269 21.8602 5.16476 22.1223 4.94008C23.5293 3.76318 25.4176 2.76816 27.2365 2.24925C28.4615 1.90153 28.9483 1.84269 29.05 2.02457ZM3.45238 2.23855C5.5815 2.76281 7.66248 3.81132 9.21385 5.14336L9.51877 5.40549L8.97312 5.81206C7.9888 6.54494 7.03123 7.55066 6.36788 8.55638C5.74734 9.50325 5.14819 10.9369 4.97165 11.8945C4.9342 12.0871 4.89141 12.2476 4.87001 12.2476C4.79512 12.2476 4.05688 11.1081 3.80545 10.6053C3.02441 9.03784 2.49481 6.76428 2.30222 4.19649C2.23268 3.23357 2.23268 2.3188 2.30222 2.18506C2.38247 2.04062 2.68739 2.05132 3.45238 2.23855ZM10.6154 12.1406C11.9421 12.4776 13.0334 13.5689 13.3811 14.9063C13.456 15.1898 13.4881 15.4947 13.4881 15.8585C13.4881 16.9284 13.1297 17.7951 12.3594 18.5654C11.9689 18.9559 11.8191 19.0682 11.3965 19.2715C10.6796 19.6139 10.2624 19.7048 9.51342 19.6727C8.45956 19.6246 7.68387 19.2876 6.95634 18.56C6.49627 18.1 6.21275 17.6453 6.00946 17.0354C5.87573 16.6449 5.86503 16.5379 5.86503 15.8318C5.86503 15.131 5.88108 15.0186 6.00946 14.6602C6.24485 14.0129 6.50697 13.5957 6.97773 13.1302C7.47524 12.6381 8.0423 12.3064 8.67889 12.1406C9.2192 12.0015 10.0698 12.0015 10.6154 12.1406Z"/>
<path d="M9.39612 12.5683C8.19782 12.702 7.17606 13.5847 6.82834 14.7884C6.6946 15.2324 6.7053 16.0187 6.84974 16.4735C6.97813 16.8854 7.267 17.3829 7.53983 17.6611C7.74846 17.8804 7.81801 17.9125 7.81801 17.7841C7.81801 17.4899 8.21922 17.2705 8.52415 17.3989C8.75418 17.4952 8.83977 17.6022 8.87187 17.8536C8.89327 18.0195 8.87187 18.089 8.75953 18.2228C8.67928 18.3137 8.64184 18.4046 8.66324 18.4207C8.80767 18.5116 9.39078 18.6133 9.74385 18.6133C12.4561 18.6079 13.8202 15.3554 11.9104 13.451C11.2203 12.7609 10.3697 12.4613 9.39612 12.5683ZM11.0652 13.3814C11.322 13.5366 11.4771 13.8254 11.4771 14.1464C11.4718 14.7563 10.9689 15.1735 10.359 15.0612C9.98458 14.9916 9.63685 14.553 9.63685 14.1625C9.63685 13.9485 9.79734 13.5954 9.94713 13.4617C10.236 13.2049 10.7175 13.1674 11.0652 13.3814Z"/>
<path d="M22.5758 12.4347C21.7466 12.6647 20.9816 13.2853 20.6339 14.0181C20.3717 14.5638 20.3075 14.9115 20.3396 15.5695C20.3717 16.2061 20.4787 16.5431 20.8104 17.062L21.0244 17.3884L21.1688 17.2814C21.5861 16.9497 22.1852 17.383 21.998 17.8805C21.9659 17.9715 21.9499 18.0571 21.9659 18.0838C21.9766 18.1052 22.1264 18.1801 22.2976 18.2443C22.6774 18.3887 23.5761 18.4422 24.0362 18.3459C24.8547 18.1801 25.7052 17.5061 26.069 16.7357C26.5451 15.7354 26.4595 14.5478 25.8497 13.6544C25.4859 13.1301 25.0098 12.761 24.3679 12.5149C23.9506 12.3544 23.0198 12.317 22.5758 12.4347ZM24.6193 13.1676C24.9189 13.3388 25.0633 13.5955 25.0633 13.9647C25.0633 14.4889 24.6781 14.8687 24.1539 14.8687C23.651 14.8687 23.2177 14.4461 23.2177 13.9593C23.2177 13.2746 24.0094 12.8252 24.6193 13.1676Z"/>
<path d="M16.3645 20.0044C15.4765 20.1114 15.0859 20.3361 15.0859 20.7427C15.0859 20.9085 15.1287 20.9781 15.3962 21.2348C16.1131 21.9142 17.1669 22.2191 17.8089 21.9303C18.3117 21.7002 18.9911 20.9353 18.9911 20.5982C18.9911 20.288 18.5899 20.1168 17.627 20.0044C17.092 19.9456 16.8834 19.9456 16.3645 20.0044Z" />
</svg>
