<svg viewBox="0 0 11 14" fill="#1A53F0" xmlns="http://www.w3.org/2000/svg">
<path d="M6.44041 13.4477V14C5.10104 14 3.84715 13.2544 2.93523 11.9014C2.05181 10.6035 1.53886 8.83629 1.53886 6.98619C1.53886 5.13609 2.02332 3.39645 2.93523 2.07101C3.87565 0.745562 5.12953 0 6.44041 0V0.552268C4.07513 0.552268 2.10881 3.45168 2.10881 6.98619C2.10881 10.5483 4.07513 13.4477 6.44041 13.4477ZM2.30829 1.87771H1.56736C1.51036 1.93294 1.45337 2.01578 1.39637 2.09862C0.484456 3.39645 0 5.13609 0 6.98619C0 8.83629 0.484456 10.5759 1.39637 11.9014C1.45337 11.9842 1.51036 12.0671 1.56736 12.1223H2.30829C1.25389 10.9349 0.598446 9.08481 0.598446 6.98619C0.569948 4.91519 1.25389 3.03748 2.30829 1.87771ZM10.4301 9.33333H9.48964H9.14767H8.89119C8.66321 10.0237 8.34974 10.6312 7.95078 11.1006H8.66321C8.91969 10.7416 9.11917 10.3274 9.29016 9.8856H10.2021C9.57513 11.3491 8.46373 12.3156 7.20984 12.3156C5.24352 12.3156 3.64767 9.94083 3.64767 6.98619C3.64767 4.05917 5.24352 1.6568 7.20984 1.6568C8.60622 1.6568 9.83161 2.87179 10.4016 4.63905H11C10.8005 3.97633 10.5155 3.36884 10.1736 2.84418C9.40415 1.73964 8.34974 1.13215 7.20984 1.13215C6.06995 1.13215 5.01554 1.76726 4.24611 2.89941C3.47668 4.00394 3.07772 5.46746 3.07772 7.01381C3.07772 8.56016 3.50518 10.0237 4.24611 11.1282C5.01554 12.2604 6.06995 12.8955 7.20984 12.8955C8.34974 12.8955 9.40415 12.2604 10.1736 11.1282C10.544 10.6035 10.829 9.99605 11 9.33333H10.658H10.4301ZM8.89119 4.66667H9.06218H9.48964C9.29016 4.00394 9.00518 3.42406 8.66321 2.89941H7.95078C8.23575 3.25838 8.46373 3.64497 8.66321 4.1144H7.7513C7.58031 3.67258 7.35233 3.25838 7.09585 2.89941C7.03886 2.81657 6.95337 2.70611 6.89637 2.62327H6.15544C6.66839 3.14793 7.06736 3.83826 7.35233 4.66667H7.52332H7.95078H8.89119ZM6.15544 11.3767H6.89637C6.95337 11.2939 7.03886 11.211 7.09585 11.1006C7.46632 10.5759 7.7513 9.96844 7.92228 9.30572H7.32383C7.06736 10.1617 6.66839 10.8797 6.15544 11.3767Z"/>
</svg>
