<svg width="13" height="13" viewBox="0 0 13 13" fill="#1A53F0" xmlns="http://www.w3.org/2000/svg">
<path d="M3.77707 7.4235C4.1424 7.4235 4.49553 7.3999 4.82969 7.35597V3.69328C4.49556 3.64938 4.1424 3.62579 3.77707 3.62579C1.69108 3.62579 5.34058e-05 4.39274 5.34058e-05 5.33887V5.71038C5.34058e-05 6.65648 1.69108 7.4235 3.77707 7.4235Z" />
<path d="M3.77707 9.33601C4.1424 9.33601 4.49553 9.31241 4.82969 9.26855V8.19495C4.49547 8.23885 4.1425 8.26277 3.77707 8.26277C1.95623 8.26277 0.436472 7.67835 0.0794905 6.90055C0.0275035 7.01385 5.34058e-05 7.13116 5.34058e-05 7.25142V7.62293C5.34058e-05 8.56906 1.69108 9.33601 3.77707 9.33601Z" />
<path d="M4.82964 10.191V10.1075C4.49541 10.1514 4.14244 10.1753 3.77701 10.1753C1.95618 10.1753 0.436418 9.59092 0.0794371 8.81313C0.0274501 8.92639 0 9.0437 0 9.16396V9.53547C0 10.4816 1.69103 11.2486 3.77701 11.2486C4.19417 11.2486 4.5954 11.2178 4.97061 11.1612C4.87761 10.9709 4.82964 10.7703 4.82964 10.5625V10.191Z"/>
<path d="M9.223 0.724419C7.13702 0.724419 5.44599 1.49137 5.44599 2.4375V2.80902C5.44599 3.75514 7.13702 4.5221 9.223 4.5221C11.309 4.5221 13 3.75514 13 2.80902V2.4375C13 1.49137 11.309 0.724419 9.223 0.724419Z" />
<path d="M9.223 5.36139C7.40217 5.36139 5.88241 4.77701 5.52542 3.99918C5.47344 4.11244 5.44599 4.22975 5.44599 4.35004V4.72156C5.44599 5.66768 7.13702 6.43464 9.223 6.43464C11.309 6.43464 13 5.66768 13 4.72156V4.35004C13 4.22975 12.9726 4.11244 12.9206 3.99918C12.5636 4.77701 11.0438 5.36139 9.223 5.36139Z" />
<path d="M9.223 7.27397C7.40217 7.27397 5.88241 6.68956 5.52542 5.91176C5.47344 6.02502 5.44599 6.14233 5.44599 6.26262V6.63414C5.44599 7.5803 7.13702 8.34725 9.223 8.34725C11.309 8.34725 13 7.5803 13 6.63414V6.26262C13 6.14233 12.9726 6.02502 12.9206 5.91176C12.5636 6.68959 11.0438 7.27397 9.223 7.27397Z" />
<path d="M9.223 9.28979C7.40217 9.28979 5.88241 8.70537 5.52542 7.92757C5.47344 8.04087 5.44599 8.15815 5.44599 8.27841V8.64996C5.44599 9.59608 7.13702 10.363 9.223 10.363C11.309 10.363 13 9.59608 13 8.64996V8.27841C13 8.15815 12.9726 8.04081 12.9206 7.92757C12.5636 8.70534 11.0438 9.28979 9.223 9.28979Z" />
<path d="M9.223 11.2023C7.40217 11.2023 5.88241 10.6179 5.52542 9.84015C5.47344 9.95345 5.44599 10.0708 5.44599 10.191V10.5625C5.44599 11.5086 7.13702 12.2756 9.223 12.2756C11.309 12.2756 13 11.5086 13 10.5625V10.1909C13 10.0707 12.9726 9.95335 12.9206 9.84012C12.5636 10.6179 11.0438 11.2023 9.223 11.2023Z" />
</svg>
