<svg width="" height="26" viewBox="0 0 21 24" fill="none" xmlns="http://www.w3.org/2000/svg">
<path d="M0 20.4853C1.67823 22.1635 3.81642 23.3064 6.14419 23.7694C8.47196 24.2324 10.8848 23.9948 13.0775 23.0865C15.2702 22.1783 17.1443 20.6402 18.4629 18.6668C19.7815 16.6935 20.4853 14.3734 20.4853 12C20.4853 9.62663 19.7815 7.30655 18.4629 5.33316C17.1443 3.35977 15.2702 1.8217 13.0775 0.913451C10.8848 0.00519943 8.47196 -0.232441 6.14419 0.230582C3.81642 0.693604 1.67823 1.83649 0 3.51472L4.25639 7.77112C5.09279 6.93472 6.15842 6.36513 7.31853 6.13437C8.47864 5.90361 9.68113 6.02204 10.7739 6.4747C11.8667 6.92735 12.8008 7.69389 13.4579 8.67739C14.1151 9.66088 14.4658 10.8172 14.4658 12C14.4658 13.1828 14.1151 14.3391 13.4579 15.3226C12.8008 16.3061 11.8667 17.0727 10.7739 17.5253C9.68113 17.978 8.47864 18.0964 7.31853 17.8656C6.15842 17.6349 5.09279 17.0653 4.25639 16.2289L0 20.4853Z"/>
<path d="M11.4853 12C11.4853 13.6569 10.1421 15 8.48528 15C6.82842 15 5.48528 13.6569 5.48528 12C5.48528 10.3431 6.82842 9 8.48528 9C10.1421 9 11.4853 10.3431 11.4853 12Z"/>
</svg>
