<svg width="" height="20" viewBox="2 2 21 20" xmlns="http://www.w3.org/2000/svg">
<path d="M12.0247 1.53089C10.7294 1.53089 9.67908 6.22913 9.67908 12.0247C9.67908 17.8204 10.7294 22.5186 12.0247 22.5186C13.3201 22.5186 14.3704 17.8204 14.3704 12.0247C14.3704 6.22913 13.3201 1.53089 12.0247 1.53089ZM12.1867 21.9264C12.0386 22.124 11.8904 21.9757 11.8904 21.9757C11.2939 21.2845 10.9956 20.0004 10.9956 20.0004C9.9522 16.6424 10.2005 9.43256 10.2005 9.43256C10.6909 3.70865 11.5829 2.35649 11.8865 2.0563C11.9175 2.02567 11.9583 2.00694 12.0018 2.00342C12.0452 1.99992 12.0885 2.01184 12.124 2.0371C12.5645 2.3492 12.9339 3.65441 12.9339 3.65441C14.0247 7.70379 13.9259 11.5063 13.9259 11.5063C14.0247 14.8149 13.3793 18.5186 13.3793 18.5186C12.8825 21.3333 12.1867 21.9264 12.1867 21.9264Z" />
<path d="M21.1269 6.8025C20.482 5.67853 15.8845 7.10567 10.8549 9.9897C5.8254 12.8737 2.27763 16.123 2.92208 17.2465C3.56652 18.37 8.16454 16.9434 13.1941 14.0593C18.2236 11.1753 21.7714 7.92599 21.1269 6.8025ZM3.51708 17.0924C3.27017 17.0613 3.32595 16.8583 3.32595 16.8583C3.62883 15.9971 4.59267 15.0993 4.59267 15.0993C6.9872 12.523 13.3651 9.15066 13.3651 9.15066C18.5734 6.72743 20.1912 6.82967 20.6016 6.94266C20.6438 6.95442 20.6803 6.98071 20.7049 7.01687C20.7296 7.05303 20.7405 7.09673 20.736 7.14023C20.6867 7.67783 19.736 8.64743 19.736 8.64743C16.7684 11.6099 13.4208 13.4168 13.4208 13.4168C10.6001 15.1496 7.0663 16.4321 7.0663 16.4321C4.37744 17.401 3.51718 17.0924 3.51718 17.0924H3.51708Z" />
<path d="M21.1042 17.2839C21.7541 16.1629 18.2152 12.8987 13.2034 9.99302C8.19148 7.08729 3.59452 5.64249 2.94518 6.7654C2.29583 7.88831 5.83411 11.1506 10.8489 14.0563C15.8636 16.962 20.4548 18.4069 21.1042 17.2839ZM3.37583 7.19855C3.27983 6.97094 3.48249 6.91612 3.48249 6.91612C4.37971 6.74668 5.63999 7.13279 5.63999 7.13279C9.06863 7.91356 15.1824 11.7432 15.1824 11.7432C19.8896 15.037 20.6115 16.4879 20.7197 16.8997C20.7307 16.942 20.7264 16.9867 20.7076 17.0262C20.6889 17.0655 20.6567 17.097 20.617 17.1151C20.1261 17.3398 18.8115 17.005 18.8115 17.005C14.7596 15.9185 11.5191 13.928 11.5191 13.928C8.60755 12.3576 5.72851 9.94127 5.72851 9.94127C3.54086 8.09932 3.37651 7.20105 3.37651 7.20105L3.37583 7.19855Z" />
<path d="M12 13.2346C12.6818 13.2346 13.2346 12.6818 13.2346 12.0001C13.2346 11.3183 12.6818 10.7655 12 10.7655C11.3182 10.7655 10.7654 11.3183 10.7654 12.0001C10.7654 12.6818 11.3182 13.2346 12 13.2346Z" />
<path d="M17.0616 7.99996C17.4571 7.99996 17.7777 7.66832 17.7777 7.25923C17.7777 6.85013 17.4571 6.51849 17.0616 6.51849C16.6661 6.51849 16.3456 6.85013 16.3456 7.25923C16.3456 7.66832 16.6661 7.99996 17.0616 7.99996Z" />
<path d="M5.30871 10.5185C5.70419 10.5185 6.02478 10.1868 6.02478 9.77778C6.02478 9.36868 5.70419 9.03704 5.30871 9.03704C4.91324 9.03704 4.59265 9.36868 4.59265 9.77778C4.59265 10.1868 4.91324 10.5185 5.30871 10.5185Z" />
<path d="M10.5431 19.6049C10.9385 19.6049 11.2592 19.2733 11.2592 18.8642C11.2592 18.4552 10.9385 18.1235 10.5431 18.1235C10.1477 18.1235 9.82703 18.4552 9.82703 18.8642C9.82703 19.2733 10.1477 19.6049 10.5431 19.6049Z" />
</svg>
