<svg width="24" height="" viewBox="0 0 24 24" fill="none" xmlns="http://www.w3.org/2000/svg">
<path d="M22.2261 8L17.0579 15.4044H18.6446L23.8397 8H22.2261Z" fill="none"/>
<path d="M18.8099 8L20.3306 10.1818L19.5372 11.3719L17.1901 8H18.8099Z" fill="none"/>
<path d="M22.3802 15.405L20.6942 12.9917L21.4876 11.8347L23.9669 15.405H22.3802Z" fill="none"/>
<path fill-rule="evenodd" clip-rule="evenodd" d="M15.2066 8H16.595V15.4044H15.2066V15.1278C14.8056 15.3466 14.3453 15.4711 13.8557 15.4711C12.3014 15.4711 11.0413 14.2167 11.0413 12.6694C11.0413 11.1221 12.3014 9.86777 13.8557 9.86777C14.3453 9.86777 14.8056 9.99221 15.2066 10.211V8ZM13.8409 14.2414C14.7212 14.2414 15.4348 13.531 15.4348 12.6547C15.4348 11.7783 14.7212 11.0679 13.8409 11.0679C12.9605 11.0679 12.2469 11.7783 12.2469 12.6547C12.2469 13.531 12.9605 14.2414 13.8409 14.2414Z" fill="none"/>
<path d="M11.1794 8L6.01653 15.4044H7.63511L12.7931 8H11.1794Z" fill="none"/>
<path d="M7.63636 8L9.2562 10.2479L8.36364 11.5041L5.95041 8H7.63636Z" fill="none"/>
<path fill-rule="evenodd" clip-rule="evenodd" d="M4.16529 8H5.55372V15.4044H4.16529V15.1278C3.76429 15.3466 3.30393 15.4711 2.81437 15.4711C1.26003 15.4711 0 14.2167 0 12.6694C0 11.1221 1.26003 9.86777 2.81437 9.86777C3.30393 9.86777 3.76429 9.99221 4.16529 10.211V8ZM2.79954 14.2414C3.67987 14.2414 4.39352 13.531 4.39352 12.6547C4.39352 11.7783 3.67987 11.0679 2.79954 11.0679C1.91921 11.0679 1.20557 11.7783 1.20557 12.6547C1.20557 13.531 1.91921 14.2414 2.79954 14.2414Z" fill="none"/>
</svg>
