<svg height="24" viewBox="0 0 24 24" xmlns="http://www.w3.org/2000/svg">
  <path d="M11.9995 24C5.38301 24 0 18.6168 0 12H2.06758C2.06758 17.4769 6.52334 21.9328 12 21.9328L11.9995 24Z"/>
  <path d="M24 12H21.9323C21.9328 6.52288 17.4771 2.06767 12 2.06767V0C18.6168 0 24 5.38298 24 12Z"/>
  <path d="M16.408 10.9985C16.0976 8.97982 14.3856 7.48828 12.2499 7.48828C10.0687 7.48828 8.28916 8.95913 7.84478 10.9987H5.94434V12.5211H7.76448C8.01253 14.875 9.93219 16.6043 12.2859 16.6043C14.0945 16.6043 15.5621 15.8877 16.2077 14.7058L14.6137 13.685C14.2021 14.3656 13.3064 14.7952 12.3214 14.7952C10.9067 14.7952 9.93958 13.9358 9.72478 12.5211H17.8205L18.323 10.9987L16.408 10.9985ZM12.1425 9.13599C13.3424 9.13599 14.2556 9.90578 14.3632 10.9985H9.79622C10.1007 9.85306 10.9426 9.13599 12.1425 9.13599Z"/>
</svg>
