<svg height="15" viewBox="0 0 24 15" xmlns="http://www.w3.org/2000/svg">
  <path d="M11.099 0.0354218C10.0585 0.16384 8.90802 0.567439 8.07199 1.09684C6.86643 1.85948 5.96226 2.91303 5.22845 4.41212C4.97161 4.93365 4.87726 5.15642 4.44221 6.23356C3.94165 7.48104 3.79488 7.78505 3.49087 8.22535C3.05582 8.85171 2.59195 9.30248 1.43094 10.2302C1.08238 10.508 0.715472 10.8094 0.613261 10.9012C0.188696 11.2838 0 11.5695 0 11.8315C0 12.1093 0.149384 12.2875 0.47174 12.395C0.660435 12.4553 0.697126 12.4579 1.3366 12.4579C1.71137 12.4553 2.29842 12.4343 2.67319 12.4081C3.96523 12.3138 4.93754 12.4133 5.7395 12.72C6.06709 12.8458 6.42614 13.0109 7.23334 13.4066C8.90277 14.2269 9.71521 14.5362 10.719 14.7354C11.2326 14.8376 11.5262 14.8638 12.1342 14.8638C12.7606 14.8611 12.9964 14.8376 13.5415 14.7222C15.7849 14.2479 17.6352 12.8091 18.6809 10.7282C18.8932 10.3062 19.0268 9.94719 19.0268 9.80043C19.0268 9.64581 18.9456 9.53049 18.8014 9.48332C18.5918 9.41256 18.4581 9.5069 18.2668 9.86333C17.9392 10.4766 17.3836 11.1396 16.8175 11.593C15.9527 12.2875 14.8965 12.7278 13.7853 12.8641C13.497 12.8982 12.737 12.8982 12.4356 12.8615C10.3494 12.6178 8.50966 11.2445 7.69198 9.31297C7.6317 9.16882 7.46921 8.72067 7.46921 8.69708C7.46921 8.64205 9.67328 7.68547 11.0597 7.14034C11.3401 7.02765 11.6127 6.92282 11.6624 6.90185C12.6164 6.52184 14.7497 5.7723 15.764 5.46043C15.9369 5.40801 16.1256 5.35035 16.1833 5.32939C16.2409 5.31104 16.4192 5.25863 16.5764 5.21145C16.7363 5.1669 16.9354 5.10662 17.0219 5.08041C17.5592 4.91531 18.6521 4.63488 18.749 4.63488C18.8041 4.63488 18.8539 4.65585 18.8905 4.69516C18.9797 4.78951 19.1788 5.42374 19.2915 5.95837C19.3439 6.20735 19.3623 6.25976 19.4357 6.33052C19.4855 6.38294 19.5457 6.41701 19.5851 6.41701C19.724 6.41701 21.0081 5.68581 21.9149 5.0909C22.9816 4.38853 23.6839 3.75692 23.9224 3.28518C24.0875 2.95497 23.988 2.69551 23.6342 2.53826C23.2803 2.38364 22.426 2.35743 21.4641 2.47274C20.1878 2.62475 18.4634 3.00476 16.6812 3.52105C16.4506 3.58919 16.22 3.65733 16.1702 3.67044C14.5663 4.12383 11.7149 5.13807 9.68376 5.9741C9.46886 6.06321 9.22513 6.16017 9.14651 6.19424C8.86346 6.30956 8.07723 6.65026 7.67101 6.83371C7.443 6.93592 7.24906 7.01979 7.24382 7.01979C7.21237 7.01979 7.2412 6.43798 7.28838 6.14445C7.61335 4.08452 8.88443 2.42819 10.7714 1.60265C12.1342 1.00511 13.6228 0.950072 15.0642 1.44278C15.3761 1.55023 15.3866 1.55285 15.494 1.51616C15.7037 1.44278 15.7902 1.19118 15.6722 0.997246C15.6303 0.931727 15.5464 0.876691 15.2739 0.745652C14.4667 0.355156 13.7276 0.137632 12.868 0.0354218C12.4723 -0.0117521 11.479 -0.0117521 11.099 0.0354218Z"/>
</svg>

