<svg width="" height="16" viewBox="0 0 16 16" xmlns="http://www.w3.org/2000/svg">
<path d="M11.7132 7.84906C11.7132 9.96226 9.96226 11.7132 7.84906 11.6528C7.18491 11.6528 6.46038 11.4717 5.91698 11.1094L4.22642 12.8C7.00377 14.8528 10.8679 14.2491 12.8604 11.4717C14.4906 9.29811 14.4906 6.33962 12.8604 4.10565L11.1698 5.79622C11.5321 6.46037 11.7132 7.12453 11.7132 7.84906ZM11.5321 2.83773L9.84151 4.5283C8.03019 3.44151 5.67547 4.04528 4.58868 5.8566C3.86415 7.06415 3.86415 8.57358 4.58868 9.78113L2.89811 11.4717C0.905661 8.69434 1.44906 4.83019 4.22642 2.83773C6.4 1.26792 9.35849 1.26792 11.5321 2.83773ZM16 1.63019C16 2.53585 15.2755 3.26037 14.3698 3.26037C13.4642 3.26037 12.7396 2.53585 12.7396 1.63019C12.7396 0.724526 13.4642 0 14.3698 0C15.2755 0 16 0.724526 16 1.63019ZM3.26038 14.3698C3.26038 15.2755 2.53585 16 1.63019 16C0.724528 16 0 15.2755 0 14.3698C0 13.4641 0.724528 12.7396 1.63019 12.7396C2.53585 12.7396 3.26038 13.4641 3.26038 14.3698Z" />
</svg>
