<svg height="24" viewBox="0 0 24 24" xmlns="http://www.w3.org/2000/svg">
  <path d="M2.92764 4.18962C3.07756 4.00262 3.23643 3.82277 3.39532 3.64293C3.40246 3.63397 3.41856 3.63218 3.42572 3.62323C3.43998 3.60549 3.46325 3.59474 3.47753 3.57701L3.4918 3.5591C3.60256 3.45753 3.72044 3.34701 3.8563 3.25082C4.33706 2.88881 4.836 2.61385 5.36211 2.43275C7.04952 1.84522 8.92795 2.20741 10.4009 3.58668C12.4578 5.49886 12.2736 8.5793 10.6317 10.6267C8.55682 13.679 4.99141 17.9376 9.92811 21.7523C10.8158 22.4381 11.4742 23.0036 14.2703 23.8051C12.4415 24.1393 10.746 24.0352 8.85878 23.5571C7.52379 22.8098 5.42495 21.2097 4.71088 19.0484C3.63162 15.7709 6.61095 10.8714 8.05078 8.98431C10.0278 6.37282 6.82893 3.54566 4.47393 6.70187C3.2429 8.34679 1.08928 13.0012 1.83769 16.4537C2.27528 18.4116 2.85856 19.8387 5.17123 21.799C4.74236 21.5481 4.32591 21.2633 3.92191 20.9448C-1.45141 15.9805 -0.827999 8.30434 2.92764 4.18962Z"/>
  <path d="M21.1166 20.0065C20.969 20.1954 20.8125 20.377 20.656 20.5586C20.649 20.5677 20.633 20.5695 20.6261 20.5784C20.612 20.5964 20.5891 20.6073 20.575 20.6252L20.561 20.6433C20.452 20.7459 20.3358 20.8573 20.2021 20.9546C19.7284 21.3202 19.2372 21.5979 18.7191 21.7806C17.0571 22.3741 15.2073 22.0084 13.7565 20.6154C11.731 18.6843 11.9124 15.5734 13.5294 13.5055C15.5727 10.4232 19.084 6.12244 14.2222 2.26999C13.348 1.57732 12.6995 1.00604 9.9458 0.196783C11.7468 -0.140668 13.4166 -0.0357107 15.2753 0.44713C16.59 1.20195 18.6572 2.81794 19.3604 5.00068C20.4233 8.31061 17.4891 13.2586 16.071 15.1642C14.1242 17.8017 17.2745 20.6567 19.5938 17.4694C20.8061 15.8082 22.9271 11.1077 22.19 7.62102C21.7591 5.64378 21.1846 4.20255 18.9071 2.22277C19.3293 2.47622 19.7395 2.76367 20.1373 3.08549C25.4293 8.09895 24.8153 15.8511 21.1166 20.0065Z"/>
</svg>
