<svg height="24" viewBox="0 0 24 24" xmlns="http://www.w3.org/2000/svg">
<path d="M7.28642 17.3954L1.77602 18.0098L5.00642 10.5506L1.69922 6.03859L9.74402 5.12179L11.9328 0.0961914L16.7232 6.60499L22.2288 5.98579L19.008 13.4066L22.2912 17.8898L14.2848 18.8018L12.072 23.9042L7.28642 17.3954ZM9.57122 16.8962C9.36002 16.997 9.13442 17.0882 8.90402 17.1506L8.69282 17.2082L11.7984 21.4274L12.9024 18.893L12.7056 18.869C11.6208 18.7298 10.6368 18.149 9.99842 17.2658L9.69122 16.8386L9.57122 16.8962ZM8.49122 13.0754L10.9968 16.5362C11.5056 17.237 12.3264 17.6594 13.1952 17.6594C13.296 17.6594 13.3968 17.6546 13.4928 17.6402L20.0256 16.8962L17.424 13.349C17.2944 13.1762 17.1456 13.013 16.9824 12.8738L16.8288 12.749L14.9664 16.9538L11.7264 12.6626L8.49122 13.0754ZM8.59682 8.85619C7.62722 8.95699 6.78242 9.58099 6.39362 10.4786L3.77282 16.5362L8.13122 16.0466C8.34722 16.0226 8.55842 15.9746 8.76002 15.8978L8.94722 15.8258L6.24962 12.101L11.568 11.4242L12.8304 8.40499L8.59682 8.85619ZM12.7152 11.909L14.688 14.5202L15.888 11.8034L16.416 10.6082C16.8096 9.71539 16.6992 8.66899 16.1184 7.88179L12.2112 2.56819L10.4544 6.60499C10.368 6.80179 10.3056 7.01299 10.2672 7.22899L10.2336 7.42579L14.7888 6.94099L12.7152 11.909ZM17.5008 7.77139L17.5776 7.95859C18 8.97139 17.9904 10.1234 17.5488 11.117L17.3328 11.597L17.4336 11.6642C17.6304 11.7986 17.8176 11.9474 17.9856 12.1202L18.1392 12.2738L20.2272 7.46419L17.5008 7.77139ZM3.97442 7.03699L5.63522 9.30259L5.76002 9.14419C6.41762 8.28499 7.41122 7.73299 8.47202 7.61779L8.99522 7.56499L9.00482 7.44019C9.02402 7.18099 9.06722 6.91699 9.13922 6.66259L9.19682 6.44659L3.97442 7.03699Z" />
<path d="M10.8385 23.9998C7.3825 23.6638 4.2769 21.8686 2.2417 19.0174L3.6337 18.8638C3.8641 19.147 4.1089 19.4158 4.3633 19.675C5.8753 21.1918 7.7617 22.2142 9.8353 22.6366L10.8385 23.9998Z" />
<path d="M13.7374 22.7087C15.979 22.3487 18.0142 21.2975 19.6366 19.6703C19.7806 19.5263 19.9246 19.3679 20.0734 19.2047L21.7582 19.0127C19.7326 21.8639 16.6318 23.6639 13.1758 23.9999L13.7374 22.7087Z" />
<path d="M22.104 15.8448C22.5648 14.6208 22.8 13.3248 22.8 12C22.8 10.8288 22.6128 9.67678 22.2528 8.57758L22.9296 7.01758C23.64 8.58718 24 10.2624 24 12C24 13.7376 23.64 15.408 22.9344 16.9776L22.104 15.8448Z" />
<path d="M1.0752 16.9918C0.3648 15.4222 0 13.747 0 11.9998C0 10.243 0.3648 8.5582 1.0848 6.979L1.9104 8.107C1.44 9.3502 1.2 10.6558 1.2 11.9998C1.2 13.1758 1.3872 14.3278 1.752 15.4318L1.0752 16.9918Z" />
<path d="M2.29443 4.9104C4.32483 2.1072 7.40643 0.3312 10.8288 0L10.272 1.2864C8.02563 1.6464 5.98563 2.6976 4.36323 4.3248C4.23843 4.4496 4.11843 4.5792 3.99363 4.7136L2.29443 4.9104Z" />
<path d="M20.3666 5.136C20.1362 4.8528 19.8914 4.5792 19.637 4.3296C18.1298 2.8128 16.2434 1.7904 14.1794 1.368L13.1714 0C16.6226 0.336 19.7282 2.136 21.7538 4.9824L20.3666 5.136Z" />
</svg>
