<svg width="" height="26" viewBox="0 0 19 24" fill="none" xmlns="http://www.w3.org/2000/svg">
<path fill-rule="evenodd" clip-rule="evenodd" d="M0.0584588 0C0.0584588 0 5.48795 3.25702 7.26026 6.96531C7.90447 6.78245 8.58148 6.68291 9.27179 6.68291C9.97501 6.68291 10.6644 6.7862 11.3194 6.97568C13.0865 3.26308 18.5261 0 18.5261 0C18.7186 2.11635 18.5386 7.19618 16.3923 11.4453C16.268 11.2251 16.1483 11.0193 16.0287 10.8222C16.7424 9.29899 16.9507 8.31716 16.9681 6.44431C16.5566 8.1443 16.3163 9.10125 15.5638 10.1007C15.101 9.42614 14.5628 8.76743 13.7312 7.84077L13.7321 7.81629C14.0084 6.08321 14.4327 5.03954 15.3178 3.14364C13.5875 5.24011 12.7608 6.94106 12.7857 8.45685L12.7715 8.44268C12.7826 9.30139 13.0665 10.1006 13.6138 10.8784L13.7182 10.0632L14.1904 10.3614C14.1318 10.1775 14.073 10.0243 14.0179 9.88025C13.9583 9.72453 13.9028 9.57961 13.8558 9.41836C13.862 9.42369 13.8682 9.42902 13.8744 9.43435C13.8728 9.42902 13.8713 9.42369 13.8697 9.41836C14.5482 10.0006 15.1584 10.6657 16.1836 11.8441L16.17 11.869L16.1567 11.8556C16.2056 12.1289 16.2311 12.4068 16.2311 12.6878C16.2311 13.1409 16.1648 13.7086 16.0408 14.3493C16.2352 14.4656 16.4269 14.6249 16.5515 14.875C16.2887 14.8795 16.1073 14.9021 15.9069 14.9736C15.8999 15.0039 15.8927 15.0344 15.8854 15.065C16.5971 15.7751 16.9199 16.2787 17.3843 17.2212C16.6539 16.5934 16.1921 16.2053 15.671 15.8842C15.6475 15.967 15.6234 16.0505 15.5986 16.1344C15.9989 16.8658 16.0763 17.4049 15.8931 18.3347C15.5489 18.0269 15.3012 17.8107 15.081 17.6907C14.9194 18.1285 14.743 18.5692 14.5535 19.005C14.4263 19.132 14.3242 19.2698 14.2233 19.406C13.953 19.7708 13.6911 20.1242 12.9788 20.2285C13.0171 21.2363 12.8014 21.6779 12.572 22.1475C12.4571 22.3828 12.3387 22.6252 12.2471 22.9493C12.0665 23.1674 11.8821 23.3704 11.6944 23.556C10.5335 24.1562 10.4731 24.1266 9.38895 23.5955L9.25335 23.5292C8.03786 24.1231 7.95033 24.1549 6.91947 23.6244C6.67304 23.3876 6.43209 23.1204 6.19785 22.8284C6.11243 22.5631 6.00967 22.3526 5.9095 22.1475C5.68007 21.6779 5.46442 21.2363 5.50269 20.2285C4.79039 20.1242 4.5285 19.7708 4.25823 19.406C4.19057 19.3147 4.12237 19.2227 4.04646 19.1336C3.83789 18.6616 3.64464 18.1828 3.46867 17.7072C3.24697 17.8266 2.99782 18.0439 2.65045 18.3546C2.46661 17.4218 2.54512 16.8822 2.9488 16.1473C2.92436 16.0647 2.90055 15.9826 2.8774 15.9011C2.35434 16.2228 1.89187 16.6114 1.15923 17.2412C1.62442 16.297 1.94761 15.7931 2.66208 15.081C2.6552 15.0524 2.64842 15.0239 2.64175 14.9954C2.43933 14.9225 2.25711 14.8995 1.99203 14.8949C2.1174 14.6433 2.3106 14.4836 2.50626 14.3672C2.37997 13.7192 2.31255 13.1451 2.31255 12.6878C2.31255 12.4088 2.33763 12.1328 2.38584 11.8614C3.42015 10.6722 4.03298 10.0035 4.71477 9.41836C4.66784 9.57961 4.61235 9.72453 4.55272 9.8802C4.49757 10.0242 4.43889 10.1774 4.38019 10.3614L4.85243 10.0631L4.95682 10.8784C6.46796 8.73094 5.97111 6.42035 3.26671 3.14365C4.15181 5.03954 4.57605 6.08326 4.85243 7.81629L4.85325 7.84077C4.0217 8.76743 3.48352 9.42614 3.02067 10.1007C2.26813 9.10125 2.02792 8.1443 1.61639 6.44431C1.63384 8.31716 1.84213 9.29899 2.55583 10.8222C2.43618 11.0193 2.3165 11.225 2.1923 11.4452C0.045992 7.19608 -0.133939 2.11633 0.0584588 0ZM7.36297 15.8293L6.74661 14.6363L5.0167 14.3181C5.09219 15.5814 5.91147 16.0679 7.36297 15.8293ZM12.0356 14.6363L11.4193 15.8293C12.8707 16.0679 13.69 15.5814 13.7655 14.3181L12.0356 14.6363ZM8.16458 20.8542C7.89568 21.0445 7.72968 21.3057 7.72968 21.594C7.72968 22.176 8.40626 22.6478 9.24086 22.6478C10.0754 22.6478 10.752 22.176 10.752 21.594C10.752 21.2907 10.5683 21.0174 10.2743 20.8251C9.97631 20.9453 9.59581 21.0174 9.18122 21.0174C8.8013 21.0174 8.44995 20.9568 8.16458 20.8542Z"/>
</svg>
