<svg width="" height="26" viewBox="0 0 22 26" fill="none" xmlns="http://www.w3.org/2000/svg">
<path d="M19.3138 0.0278682C19.1915 0.0584314 18.9959 0.186797 18.8309 0.351838C18.5741 0.614682 18.5497 0.657472 18.5252 1.00589L18.4947 1.38488L17.1438 2.74188C16.4041 3.48763 15.7501 4.11723 15.6951 4.14168C15.6401 4.16002 15.5117 4.28227 15.42 4.41063C15.3222 4.539 13.5679 6.31778 11.514 8.37163L7.78532 12.1003L7.76698 10.0282L7.75476 7.96208L7.98704 7.70535C8.34768 7.31414 8.37825 6.8618 8.07261 6.39724C7.83422 6.03048 7.1496 5.91434 6.65448 6.15885C6.40997 6.2811 6.3733 6.33 6.26938 6.66009C6.12268 7.12465 6.19603 7.46696 6.50778 7.7787L6.71561 7.98653V10.0037V12.027L6.50778 12.2593C6.31828 12.461 6.16547 12.8094 6.16547 13.0295C6.16547 13.2434 6.43442 13.7935 6.5689 13.8547L6.71561 13.9219V16.0063V18.0907L6.54445 18.1885C6.41609 18.2619 6.34274 18.378 6.25716 18.6409C6.15324 18.9771 6.15324 19.0137 6.25105 19.3194C6.36719 19.68 6.58113 19.8878 6.97234 20.0101C7.44912 20.1629 8.09706 19.7778 8.24377 19.2582C8.30489 19.026 8.30489 18.9404 8.2132 18.6775C8.15208 18.488 8.04205 18.3108 7.93202 18.2252L7.75476 18.0846L7.76698 16.2569L7.78532 14.4231L11.3184 17.944C13.2561 19.8817 14.8454 21.5016 14.8454 21.5383C14.8454 21.5749 14.7721 21.6238 14.6804 21.6422C14.5826 21.6666 14.3442 21.7583 14.1425 21.85C13.3417 22.2045 12.9627 22.3085 11.9908 22.4307C10.6766 22.5957 8.97117 22.4979 8.0176 22.2106C7.22296 21.9723 6.086 21.4588 5.64589 21.1532C5.54809 21.0798 5.4075 20.9942 5.32804 20.9637C4.80846 20.7314 3.1825 19.136 2.75461 18.4391C2.6996 18.3413 2.57735 18.158 2.49177 18.0235C2.29005 17.7179 2.14335 17.4244 1.83772 16.7459C1.48318 15.9513 1.42206 15.7251 1.23868 14.686C1.09809 13.8547 1.07975 13.6407 1.11031 12.7727C1.1531 11.3729 1.37315 10.3154 1.81938 9.34965C1.94163 9.08069 2.08833 8.76284 2.14335 8.63447C2.28394 8.33495 3.01134 7.23468 3.28641 6.92293C3.73264 6.40947 4.49672 5.7004 4.93071 5.38866C5.18133 5.21139 5.4564 5.00967 5.54198 4.94243C5.63367 4.86908 5.77426 4.78962 5.85984 4.76517C5.94541 4.74072 6.11045 4.65514 6.22659 4.58179C6.60558 4.3434 7.09459 4.14168 7.84645 3.92162C9.04452 3.56709 9.20957 3.54264 10.5666 3.54264C11.948 3.54264 12.2659 3.58543 13.5129 3.97052C13.8919 4.08666 14.2464 4.16613 14.3075 4.14779C14.3625 4.12945 14.5459 3.9583 14.7171 3.76269L15.0227 3.41427L14.1547 3.08419C12.9505 2.63797 11.7708 2.45459 10.3526 2.49126C9.30126 2.52183 8.40881 2.64408 7.72419 2.85191C7.0029 3.06585 5.80482 3.56098 5.46863 3.77492C5.29747 3.88495 5.00407 4.06833 4.81457 4.18447C4.61897 4.29449 4.36835 4.47787 4.23999 4.59401C4.11773 4.70404 3.99548 4.79573 3.9588 4.79573C3.861 4.79573 2.36952 6.33612 2.14946 6.66009C2.03943 6.82513 1.83772 7.11854 1.70324 7.30191C1.56876 7.48529 1.43428 7.70535 1.3976 7.79093C1.36704 7.8765 1.202 8.21881 1.03085 8.55501C0.327892 9.97925 -0.06943 11.8803 0.0100344 13.4451C0.0650482 14.5271 0.175076 15.0711 0.621299 16.5198C0.823016 17.1494 1.44651 18.3964 1.80715 18.8854C1.95997 19.0871 2.10056 19.2949 2.1189 19.3438C2.13723 19.3927 2.4123 19.7167 2.73016 20.0651C3.34754 20.7375 4.17886 21.471 4.63731 21.7461C4.79012 21.8439 5.0224 21.9967 5.15688 22.0884C5.51753 22.3451 6.84397 22.9442 7.31465 23.0725C8.42715 23.3721 8.67777 23.4332 9.09954 23.5065C9.38683 23.5615 9.97365 23.5921 10.6583 23.586C11.6057 23.5799 11.8563 23.5615 12.4921 23.421C13.6962 23.1581 14.2892 22.9686 14.9555 22.6446C15.3039 22.4796 15.6156 22.339 15.6523 22.339C15.689 22.339 16.2697 22.8892 16.9359 23.5615C18.1279 24.7535 18.1585 24.7902 18.1768 25.0591C18.2013 25.4809 18.3785 25.7621 18.6964 25.8905C19.3871 26.1716 20.0289 25.8966 20.2246 25.2364C20.4202 24.5762 19.7172 23.8122 19.0204 23.9466C18.8798 23.9711 18.7331 23.8488 17.7306 22.8464C16.7159 21.8317 16.612 21.7094 16.7159 21.6483C16.9665 21.5138 17.7734 20.7986 18.2807 20.2668C19.5155 18.9648 20.2368 17.6751 20.8419 15.6762C21.1231 14.7655 21.2087 12.9622 21.0498 11.5196C20.9214 10.401 20.4629 9.01957 19.8517 7.93152C19.6133 7.51586 19.4299 7.10631 19.4299 7.01462C19.4238 6.58062 19.0754 6.14662 18.6353 6.0366C18.5008 5.99992 18.3724 5.90823 18.2868 5.77987C18.2135 5.66984 18.0485 5.5048 17.914 5.407C17.7856 5.31531 17.6267 5.1686 17.5594 5.08914C17.4983 5.00356 17.3149 4.84463 17.156 4.74072C16.991 4.63069 16.8626 4.53289 16.8626 4.51455C16.8626 4.49621 17.4127 3.93996 18.079 3.26757C19.0815 2.2651 19.3199 2.05727 19.4299 2.08783C19.5033 2.10617 19.7294 2.06949 19.9311 2.00837C20.2918 1.90445 20.3101 1.88611 20.4568 1.56826C20.8542 0.70026 20.2062 -0.167736 19.3138 0.0278682ZM16.1902 5.33976C16.1902 5.37032 16.2636 5.42533 16.3614 5.46201C16.4531 5.5048 16.7403 5.73708 17.0093 5.9877L17.4861 6.43392L17.4127 6.66009C17.1621 7.42417 17.755 8.19436 18.5008 8.07211L18.7392 8.03543L19.0754 8.72616C19.2649 9.09903 19.4605 9.50858 19.5094 9.62472C19.6377 9.91201 19.9495 11.1896 20.0473 11.7764C20.139 12.3693 20.084 14.2642 19.9617 14.7899C19.705 15.8841 19.5155 16.4464 19.1732 17.1433C18.7759 17.9746 18.5375 18.3352 17.859 19.1482C17.3516 19.7717 17.1438 19.9673 16.4103 20.5602L15.8723 20.9942L12.0581 17.1799C9.96142 15.0772 8.24377 13.3229 8.24377 13.2801C8.24377 13.2373 8.29267 13.1273 8.3538 13.0417C8.50661 12.8155 16.0557 5.28474 16.1291 5.28474C16.1658 5.28474 16.1902 5.30919 16.1902 5.33976Z" />
<path d="M15.1759 15.3338C14.4607 15.505 14.0328 16.4219 14.3507 17.1126C14.4852 17.4183 14.8764 17.7789 15.182 17.8767C15.5182 17.9867 16.0317 17.9195 16.27 17.7361C16.704 17.406 16.7896 17.2838 16.863 16.9354C17.0219 16.1529 16.6368 15.4622 15.9522 15.3155C15.5793 15.236 15.5793 15.236 15.1759 15.3338Z" />
<path d="M9.8944 6.12215C9.6988 6.25051 9.66212 6.30552 9.58877 6.56225C9.48486 6.92901 9.7477 7.37523 10.1267 7.48526C10.4201 7.56472 10.8235 7.38746 10.958 7.12461C11.0802 6.89233 11.0802 6.51335 10.958 6.33609C10.744 6.03046 10.1878 5.92043 9.8944 6.12215Z" />
</svg>
