<svg width="" height="26" viewBox="0 0 24 24" fill="none" xmlns="http://www.w3.org/2000/svg">
<path d="M12 0C18.6274 0 24 5.37258 24 12C24 18.6274 18.6274 24 12 24C5.37258 24 0 18.6274 0 12C0 5.37258 5.37258 0 12 0ZM12 0.847059C5.8404 0.847059 0.847059 5.8404 0.847059 12C0.847059 18.1596 5.8404 23.1529 12 23.1529C18.1596 23.1529 23.1529 18.1596 23.1529 12C23.1529 5.8404 18.1596 0.847059 12 0.847059Z"/>
<path d="M19.5627 7.27081V6.18075H16.1098C15.9245 5.4764 15.7392 4.8559 15.5371 4.28571L14.3749 4.48696C14.577 4.99006 14.7792 5.56025 14.9644 6.18075H11.3094V7.27081H19.5627ZM10.7199 15.3708V8.41118H9.01871C9.37243 7.8913 9.72614 7.25404 10.0799 6.48261V5.67764H7.30069C7.45228 5.34224 7.58702 5.00683 7.72177 4.65466L6.64379 4.31925C6.13849 5.96273 5.34685 7.28758 4.28571 8.31056L4.53837 9.50124C4.75733 9.3 4.97629 9.09876 5.17842 8.88074V15.3708H10.7199ZM7.85652 8.41118H5.5995C6.03743 7.87453 6.45852 7.27081 6.82907 6.63354H8.95134C8.58079 7.30435 8.22707 7.90807 7.85652 8.41118ZM14.796 19.7143C15.6382 19.7143 16.0761 19.2447 16.0761 18.3224V13.5429H18.7542V8.78012H12.2021V13.5429H14.8971V18.0373C14.8971 18.4565 14.7286 18.6745 14.3918 18.6745C14.0044 18.6745 13.6001 18.641 13.1959 18.5907L13.4317 19.7143H14.796ZM7.46912 11.3963H6.22271V9.40062H7.46912V11.3963ZM9.67561 11.3963H8.44604V9.40062H9.67561V11.3963ZM17.6089 12.4863H13.3475V9.85342H17.6089V12.4863ZM9.67561 14.3646H8.44604V12.3689H9.67561V14.3646ZM7.46912 14.3646H6.22271V12.3689H7.46912V14.3646ZM18.8216 18.9429L19.7143 18.3224C19.2595 17.2491 18.6195 16.0081 17.7773 14.5826L16.8846 15.1193C17.6931 16.5112 18.35 17.7857 18.8216 18.9429ZM11.7642 19.228C12.5053 18.0708 13.1454 16.6957 13.6843 15.1193L12.7074 14.6497C12.1853 16.159 11.5621 17.4671 10.8546 18.5739L11.7642 19.228ZM10.3662 18.0876L11.1915 17.8863C10.9557 17.0814 10.7199 16.377 10.4504 15.7733L9.65876 16.0081C9.92826 16.6789 10.1641 17.3665 10.3662 18.0876ZM8.58079 19.0602L9.45664 18.9596C9.35558 17.6851 9.17031 16.6789 8.90081 15.941L8.05864 16.0416C8.32814 16.746 8.49657 17.7522 8.58079 19.0602ZM5.36369 19.513C5.7174 18.5236 5.93637 17.4 6.03743 16.1255L5.12789 16.0081C5.04367 17.2155 4.80786 18.2888 4.4373 19.228L5.36369 19.513ZM6.77854 19.3118L7.6544 19.2112C7.62071 17.8863 7.53649 16.8298 7.41859 16.0584L6.61011 16.159C6.69432 16.8969 6.74485 17.9534 6.77854 19.3118Z"/>
</svg>
