<svg width="14" height="14" viewBox="0 0 14 14" fill="#1A53F0" xmlns="http://www.w3.org/2000/svg">
<path d="M7 0C3.14026 0 0 3.14026 0 7C0 10.8597 3.14026 14 7 14C10.8597 14 14 10.8597 14 7C14 3.14026 10.8597 0 7 0ZM12.532 9.30977C11.8438 10.952 10.4448 12.2253 8.72161 12.7427C8.75251 12.6854 8.78243 12.6274 8.81137 12.5687C8.95941 12.2691 9.11498 12.0579 9.37606 11.8472C9.57587 11.6859 9.96816 11.4359 9.90402 11.1208C9.85776 10.8931 9.59775 10.7996 9.40126 10.744C9.08952 10.6556 8.75602 10.6327 8.43432 10.6105C8.15572 10.591 7.8664 10.6009 7.59441 10.5315C7.18737 10.4279 7.09562 10.0756 7.06987 9.70418C7.04692 9.37401 7.05183 9.03456 6.88946 8.73577C6.68038 8.35123 6.19917 8.24187 5.80014 8.20517C5.46329 8.17434 5.12686 8.19059 4.79184 8.13446C4.46952 8.08047 4.16425 7.96727 3.83327 7.9801C3.40431 7.99664 3.21167 8.28738 3.02869 8.62361C2.93837 8.78966 2.36789 10.0666 2.0327 10.3529C1.45473 9.49968 1.09115 8.49012 1.01874 7.40213C1.06612 7.38936 1.11307 7.37168 1.16073 7.34795C1.34722 7.25535 1.47788 7.0882 1.68081 7.02201C1.87431 6.95898 2.12429 7.01488 2.32198 7.03425C2.5187 7.05349 2.71847 7.07387 2.91535 7.04708C3.30836 6.99339 3.5166 6.72192 3.57938 6.34294C3.61669 6.11657 3.58758 5.88892 3.59432 5.66098C3.60497 5.3058 3.83805 5.17837 4.15924 5.14816C4.76593 5.09118 6.18113 5.25195 6.20978 4.31825C6.22199 3.91886 5.74664 3.71273 5.43705 3.60614C4.8342 3.39874 4.17552 3.47115 3.55893 3.32708C3.23097 3.25044 2.95436 3.04588 2.72241 2.8041C3.81129 1.69455 5.32645 1.00487 7 1.00487C7.35794 1.00487 7.7083 1.03646 8.04899 1.09695C7.8748 1.12931 7.70287 1.17528 7.53558 1.24284C6.65303 1.59867 6.62646 2.59993 7.01221 3.35212C7.25145 3.81861 7.63889 4.20944 8.04359 4.53444C8.43536 4.84892 8.86343 5.03476 9.29782 5.27331C9.87413 5.5902 9.80456 6.41776 9.95035 6.97535C10.0733 7.44559 10.3686 7.84228 10.8341 8.00507C11.1155 8.1034 11.446 8.02666 11.6924 8.22272C11.904 8.39062 11.9538 8.73434 12.0747 8.96534C12.1952 9.19582 12.3555 9.29284 12.532 9.30977Z" />
</svg>
