<svg width="16" height="16" viewBox="0 0 16 16" fill="none" xmlns="http://www.w3.org/2000/svg">
<g clip-path="url(#clip0_42488_1021)">
<path d="M8.13442 0.00275899L8.10007 3.07176C6.58446 3.82429 5.07023 4.57958 3.55738 5.33761C3.51295 5.36005 3.46989 5.38524 3.42821 5.41318L3.39111 5.37608L6.89569 0.0288662C6.9016 0.0198351 6.90962 0.0124501 6.91899 0.00740312C6.92836 0.00235609 6.93879 -0.000187595 6.94928 1.07743e-05L8.13442 0.00275899Z" fill="none"/>
<path d="M8.13445 0.00292969L9.29829 0.00430353C9.30887 0.00432444 9.31926 0.00697748 9.3285 0.0120193C9.33774 0.0170611 9.34555 0.0243305 9.35119 0.0331595L12.8434 5.35908L12.8063 5.39618C10.676 4.32715 9.17462 3.57759 8.30209 3.1475C8.27003 3.13193 8.21415 3.11429 8.13445 3.0946L8.1001 3.07193L8.13445 0.00292969Z" fill="none"/>
<path d="M8.09991 3.07178L8.13426 3.09445L8.12258 7.78348C6.54697 8.55892 4.97526 9.33985 3.40744 10.1263C3.38477 10.1373 3.36897 10.1345 3.34492 10.1338C3.34171 8.62327 3.3408 7.11247 3.34217 5.60145C3.34217 5.51969 3.37584 5.46885 3.42805 5.4132C3.46973 5.38526 3.51279 5.36007 3.55721 5.33763C5.07007 4.5796 6.5843 3.82431 8.09991 3.07178Z" fill="none"/>
<path d="M8.13448 3.09424C8.21418 3.11393 8.27006 3.13157 8.30212 3.14714C9.17466 3.57723 10.6761 4.32678 12.8063 5.39582C12.8434 5.48719 12.8936 5.5717 12.8936 5.67338C12.8963 7.1583 12.8929 8.64482 12.8833 10.1329L12.8579 10.1309L8.1228 7.78327L8.13448 3.09424Z" fill="none"/>
<path d="M12.8433 5.35889L16.8933 11.5491C16.8958 11.553 16.8974 11.5573 16.8981 11.5619C16.8988 11.5664 16.8986 11.571 16.8974 11.5754C16.8963 11.5798 16.8942 11.5839 16.8914 11.5874C16.8885 11.5909 16.885 11.5938 16.881 11.5958L16.3616 11.8541L12.8831 10.1331C12.8927 8.64499 12.8962 7.15847 12.8934 5.67355C12.8934 5.57187 12.8433 5.48736 12.8062 5.39599L12.8433 5.35889Z" fill="none"/>
<path d="M3.39107 5.37598L3.42817 5.41308C3.37595 5.46873 3.34229 5.51957 3.34229 5.60132C3.34091 7.11235 3.34183 8.62315 3.34504 10.1337L3.29076 10.1825L-0.110076 11.8541L-0.6494 11.5937C-0.653319 11.5918 -0.656795 11.5892 -0.659593 11.5859C-0.662391 11.5825 -0.664446 11.5787 -0.665619 11.5745C-0.666791 11.5703 -0.667055 11.566 -0.66639 11.5617C-0.665726 11.5574 -0.664149 11.5533 -0.661767 11.5497L3.39107 5.37598Z" fill="none"/>
<path d="M8.12271 7.78369L12.8578 10.1313C12.8147 10.1597 12.7975 10.1998 12.8062 10.2515C12.6345 10.3033 12.5271 10.3399 12.484 10.3615C11.0357 11.0915 9.58014 11.8068 8.11721 12.5071C6.76192 11.8489 5.40937 11.1852 4.05957 10.516C3.84613 10.4102 3.62994 10.3106 3.411 10.2172L3.29077 10.1828L3.34505 10.134C3.36909 10.1347 3.3849 10.1375 3.40757 10.1265C4.97539 9.34006 6.5471 8.55913 8.12271 7.78369Z" fill="none"/>
<path d="M12.8577 10.1309L12.8831 10.1329L16.3616 11.854L16.352 11.9268C16.3506 11.937 16.3458 11.9465 16.3383 11.9537C16.3309 11.961 16.3211 11.9655 16.3107 11.9666C16.1802 11.9799 16.0245 12.0326 15.8435 12.1246C14.8762 12.6147 13.8995 13.1062 12.9133 13.599L12.8968 10.3136C12.8968 10.3031 12.8939 10.2927 12.8883 10.2836C12.8828 10.2745 12.8748 10.2671 12.8652 10.2621C12.8497 10.2538 12.83 10.2502 12.8061 10.2511C12.7974 10.1993 12.8146 10.1593 12.8577 10.1309Z" fill="none"/>
<path d="M3.29073 10.1826L3.41096 10.217C3.3189 10.2664 3.36699 10.342 3.36562 10.4238C3.35142 11.4763 3.33562 12.5332 3.31821 13.5944C2.18597 13.0224 1.06198 12.4556 -0.0537703 11.894C-0.0743815 11.884 -0.0931605 11.8707 -0.110107 11.8542L3.29073 10.1826Z" fill="none"/>
<path d="M3.41111 10.2168C3.63005 10.3102 3.84623 10.4099 4.05967 10.5157C5.40947 11.1848 6.76202 11.8485 8.11732 12.5067V12.5355C7.05333 13.0595 5.9891 13.5833 4.92465 14.1068C4.83397 14.1521 4.76183 14.2147 4.68213 14.2758C4.20578 14.0706 3.75119 13.8434 3.31836 13.5943C3.33576 12.533 3.35157 11.4761 3.36577 10.4236C3.36714 10.3418 3.31905 10.2663 3.41111 10.2168Z" fill="none"/>
<path d="M12.8062 10.2511C12.83 10.2502 12.8497 10.2539 12.8653 10.2621C12.8748 10.2671 12.8828 10.2745 12.8884 10.2836C12.894 10.2927 12.8969 10.3031 12.8969 10.3136L12.9134 13.599L11.5613 14.2717C10.4314 13.657 9.28332 13.0783 8.11719 12.5355V12.5067C9.58012 11.8063 11.0357 11.0911 12.484 10.361C12.5271 10.3395 12.6345 10.3029 12.8062 10.2511Z" fill="none"/>
<path d="M8.11732 12.5356C9.28345 13.0784 10.4315 13.6571 11.5614 14.2718L8.14823 15.9928C8.13887 15.9975 8.12848 16 8.11787 16C8.10727 16 8.09674 15.9975 8.08709 15.9928L4.68213 14.2759C4.76183 14.2148 4.83396 14.1522 4.92465 14.1069C5.9891 13.5834 7.05333 13.0596 8.11732 12.5356Z" fill="none"/>
</g>
<defs>
<clipPath id="clip0_42488_1021">
<rect width="16" height="16" fill="none"/>
</clipPath>
</defs>
</svg>
