<svg width="" height="26" viewBox="0 0 26 18" fill="none" xmlns="http://www.w3.org/2000/svg">
<path opacity="0.95" d="M11.2666 0H2.59998C1.91042 0 1.24911 0.273951 0.761516 0.761534C0.273925 1.24912 0 1.91046 0 2.59998V14.7332C0.000987991 15.2835 0.176556 15.8193 0.50144 16.2635C0.826316 16.7076 1.28375 17.0373 1.80789 17.2049C2.33204 17.3726 2.89585 17.3696 3.4182 17.1964C3.94053 17.0233 4.39448 16.6887 4.71462 16.2412L13.3812 4.10796C13.6579 3.71935 13.8223 3.26202 13.8566 2.78614C13.8907 2.31025 13.7932 1.8342 13.5749 1.40997C13.3565 0.985824 13.0257 0.629888 12.6186 0.381157C12.2114 0.132512 11.7437 0.000606661 11.2666 0ZM4.3333 6.06661C3.99044 6.06661 3.65539 5.96496 3.37032 5.77446C3.08527 5.58406 2.86311 5.31331 2.73192 4.99664C2.60073 4.67987 2.5664 4.33139 2.63328 3.99513C2.70016 3.65895 2.86524 3.35007 3.10766 3.10767C3.35006 2.86526 3.65895 2.70016 3.99513 2.63326C4.33139 2.56644 4.67987 2.60076 4.99664 2.73188C5.31331 2.86309 5.58406 3.08531 5.77446 3.37035C5.96495 3.65539 6.06661 3.99045 6.06661 4.3333C6.06661 4.79297 5.88401 5.23384 5.55892 5.55892C5.23384 5.88401 4.79297 6.06661 4.3333 6.06661Z" />
<path opacity="0.95" d="M17.7667 16.4671C18.9633 16.4671 19.9334 15.497 19.9334 14.3004C19.9334 13.1038 18.9633 12.1338 17.7667 12.1338C16.5701 12.1338 15.6001 13.1038 15.6001 14.3004C15.6001 15.497 16.5701 16.4671 17.7667 16.4671Z" />
<path opacity="0.95" d="M25.9997 2.59998V14.7332C26.0006 15.382 25.759 16.0077 25.3222 16.4875C24.8854 16.9673 24.2851 17.2664 23.639 17.3261C22.9929 17.3859 22.3479 17.2019 21.8305 16.8102C21.3132 16.4187 20.961 15.8479 20.843 15.2099C20.8153 15.0525 20.8008 14.893 20.7997 14.7332V12.7572C20.795 12.2084 20.6168 11.6751 20.2906 11.2337C19.9644 10.7923 19.5069 10.4655 18.9836 10.3001C18.4602 10.1346 17.898 10.139 17.3774 10.3126C16.8567 10.4862 16.4044 10.8202 16.0851 11.2666L14.7331 13.1646L12.5578 16.2152C12.1428 16.7427 11.5401 17.0894 10.8754 17.1826C10.2108 17.276 9.53591 17.1086 8.99182 16.7157C8.44773 16.3227 8.07671 15.7346 7.95625 15.0744C7.83587 14.4142 7.9754 13.7329 8.34581 13.1732L17.0124 1.03999C17.2519 0.72054 17.5618 0.460629 17.918 0.280277C18.2742 0.0999254 18.6671 0.00398663 19.0664 0H23.3997C24.0892 0 24.7505 0.273951 25.2381 0.761534C25.7257 1.24912 25.9997 1.91046 25.9997 2.59998Z" />
</svg>
