<svg width="" height="26" viewBox="0 0 24 24" fill="none" xmlns="http://www.w3.org/2000/svg">
<path d="M11.999 0C9.62565 0 7.30555 0.703775 5.33215 2.02235C3.35876 3.34093 1.82073 5.21507 0.912473 7.40778C0.0042205 9.6005 -0.233417 12.0133 0.229607 14.3411C0.69263 16.6688 1.83548 18.8071 3.51372 20.4853C5.19195 22.1635 7.33018 23.3064 9.65796 23.7694C11.9857 24.2324 14.3985 23.9948 16.5912 23.0866C18.784 22.1783 20.6581 20.6402 21.9767 18.6668C23.2953 16.6934 23.9991 14.3734 23.9991 12C23.9991 8.81739 22.7348 5.76512 20.4843 3.51468C18.2339 1.26424 15.1816 0 11.999 0ZM16.1948 17.9992H7.80409C7.32557 17.9992 6.86667 17.8091 6.5283 17.4708C6.18993 17.1324 5.99979 16.6735 5.99979 16.195V7.80428C5.99979 7.32575 6.18993 6.86681 6.5283 6.52844C6.86667 6.19007 7.32557 5.99998 7.80409 5.99998H16.1948C16.6733 5.99998 17.1322 6.19007 17.4706 6.52844C17.809 6.86681 17.9991 7.32575 17.9991 7.80428V16.195C17.9991 16.6735 17.809 17.1324 17.4706 17.4708C17.1322 17.8091 16.6733 17.9992 16.1948 17.9992Z"/>
</svg>
