<svg width="" height="26" viewBox="0 0 26 26" fill="none" xmlns="http://www.w3.org/2000/svg">
<g clip-path="url(#clip0_2117_22796)">
<path fill-rule="evenodd" clip-rule="evenodd" d="M23.3635 5.14297C21.3979 2.62617 18.5119 1.03497 15.3191 1.03497C9.14668 1.03497 4.63308 6.77057 4.63308 12.9846C4.63308 17.3162 7.50868 20.5558 10.7067 20.5558C11.0031 20.5558 11.2995 20.5298 11.5959 20.4726C9.45348 18.9126 8.08588 16.063 8.08588 12.9794C8.08588 8.06537 11.4087 4.23817 15.3243 4.23817C19.5935 4.23817 22.5679 8.48137 22.5679 12.9794C22.5575 16.3022 21.3719 19.6042 19.2867 22.043C17.4667 24.1698 15.1111 25.5218 12.5215 25.9482C12.5215 25.9482 12.7399 25.9638 13.0207 25.9638C20.1915 25.9638 26.0051 20.1502 26.0051 12.9742C25.9999 10.0414 25.0171 7.32177 23.3635 5.14297ZM21.3927 12.9898C21.3927 8.65817 18.5171 5.41337 15.3191 5.41337C15.0175 5.41337 14.7263 5.43937 14.4299 5.49657C16.5723 7.05657 17.9399 9.90617 17.9399 12.9898C17.9399 17.9038 14.6171 21.731 10.7015 21.731C6.42708 21.731 3.45788 17.4878 3.45788 12.9898C3.46828 9.66697 4.65388 6.36497 6.73908 3.92617C8.55908 1.79937 10.9147 0.447374 13.5043 0.0209746C13.5043 0.0209746 13.2911 0.00537458 13.0051 0.00537458C5.83948 0.000174581 0.0258789 5.81377 0.0258789 12.9898C0.0258789 15.9382 1.00868 18.6526 2.66228 20.8314C4.62788 23.3482 7.51388 24.9394 10.7067 24.9394C16.8791 24.9394 21.3927 19.2038 21.3927 12.9898Z" />
</g>
<defs>
<clipPath id="clip0_2117_22796">
<rect width="26" height="26" fill="white"/>
</clipPath>
</defs>
</svg>
