<svg width="" height="24" viewBox="0 0 24 24" fill="none" xmlns="http://www.w3.org/2000/svg">
<path d="M8.16726 17.9156L7.90211 18.0686V17.7651C7.90211 17.7651 7.89953 17.9208 7.9697 17.9597C8.03989 17.9961 8.16726 17.9156 8.16726 17.9156Z"/>
<path d="M1.39331 17.6018C2.88015 20.409 5.42492 22.5133 8.4662 23.4474C11.5075 24.384 14.7982 24.0753 17.6109 22.5886C20.4259 21.1045 22.5314 18.5644 23.4698 15.5287C24.4082 12.4929 24.091 9.21082 22.6042 6.40088C23.9454 10.6223 19.2744 12.1038 19.2744 12.1038L13.6234 15.0539L7.74616 18.1128C7.74616 18.1128 3.74313 20.6841 1.39331 17.6018Z"/>
<path d="M1.35767 17.6223C2.8445 20.4296 5.3893 22.5338 8.43056 23.4678C11.4718 24.4045 14.7626 24.0958 17.5752 22.6091C20.3902 21.125 22.4958 18.5849 23.4342 15.5492C24.3726 12.5134 24.0631 9.23132 22.5737 6.42139C23.9151 10.6428 19.2388 12.1243 19.2388 12.1243L13.5877 15.0744L7.71312 18.1333C7.71054 18.1333 3.70751 20.7046 1.35767 17.6223Z" fill="url(#paint0_linear_37587_474781)"/>
<path d="M19.3056 11.8911L19.5473 12.0208L19.2041 12.1454C19.2041 12.1454 19.381 12.0858 19.4044 12.0182C19.4303 11.9508 19.3056 11.8911 19.3056 11.8911Z" />
<path d="M22.6769 17.4773C24.13 14.6517 24.3977 11.3644 23.423 8.33911C22.4482 5.31642 20.3089 2.80226 17.4782 1.35188C14.6449 -0.0985106 11.3541 -0.365741 8.32326 0.607237C5.29239 1.5802 2.77361 3.71297 1.32056 6.54107C4.01611 3.02538 7.91516 6.00138 7.91516 6.00138L13.5765 8.93588L19.4563 11.9871C19.4563 11.9871 23.8623 13.7877 22.6769 17.4773Z"/>
<path d="M22.6483 17.4642C24.0962 14.6465 24.3639 11.3695 23.3918 8.3546C22.4196 5.33968 20.2882 2.83329 17.4652 1.3881C14.6423 -0.0570862 11.3593 -0.324317 8.33885 0.646058C5.31579 1.61383 2.8048 3.744 1.35693 6.56173C4.04469 3.05643 7.93075 6.02206 7.93075 6.02206L13.5739 8.94616L19.4356 11.9896C19.4356 11.9896 23.8311 13.785 22.6483 17.4642Z" fill="url(#paint1_linear_37587_474781)"/>
<path d="M7.90462 6.28397L7.89941 5.96484L8.17756 6.12051C8.17756 6.12051 8.03719 6.03749 7.9644 6.08159C7.89683 6.1257 7.90462 6.28397 7.90462 6.28397Z"/>
<path d="M12.0013 0.0283203C8.81967 0.0283203 5.76541 1.2893 3.51436 3.53622C1.26329 5.78313 0 8.82919 0 12.0049C0 15.1807 1.26329 18.2294 3.51436 20.4738C5.76541 22.7206 8.81706 23.9817 12.0013 23.9817C7.91769 23.2966 7.91769 18.014 7.91769 18.014V12.0049V5.88692C7.91509 5.88692 7.91509 0.757403 12.0013 0.0283203Z"/>
<path d="M12.0013 0C8.81706 0 5.76541 1.26098 3.51436 3.50789C1.26329 5.75481 0 8.80087 0 11.9792C0 15.1551 1.26329 18.2036 3.51436 20.448C5.76541 22.695 8.81706 23.9559 12.0013 23.9559C7.91769 22.6534 7.91769 18.0247 7.91769 18.0247V11.9922V5.99871C7.91509 5.99871 7.76692 0.775791 12.0013 0Z" fill="url(#paint2_linear_37587_474781)"/>
<path d="M11.9702 23.9794C7.91772 22.1372 7.92293 18.0221 7.92293 18.0221C7.92293 18.0221 2.89834 20.8502 1.20874 17.2334C1.20614 17.2334 4.03947 24.0027 11.9702 23.9794Z" />
<defs>
<linearGradient id="paint0_linear_37587_474781" x1="21.0299" y1="9.077" x2="3.60207" y2="26.3173" gradientUnits="userSpaceOnUse">
<stop stop-opacity="0.6"/>
<stop offset="0.6555" stop-opacity="0"/>
</linearGradient>
<linearGradient id="paint1_linear_37587_474781" x1="4.41274" y1="6.30289" x2="28.4729" y2="10.7256" gradientUnits="userSpaceOnUse">
<stop stop-opacity="0.6"/>
<stop offset="0.6458" stop-opacity="0"/>
</linearGradient>
<linearGradient id="paint2_linear_37587_474781" x1="10.6119" y1="21.1165" x2="3.49778" y2="-0.838191" gradientUnits="userSpaceOnUse">
<stop stop-opacity="0.6"/>
<stop offset="0.6755" stop-opacity="0"/>
</linearGradient>
</defs>
</svg>
