<svg width="" height="26" viewBox="0 0 26 26" fill="none" xmlns="http://www.w3.org/2000/svg">
<path d="M10.7679 11.1032L11.5917 13.5365H9.73322L10.605 11.1032H10.7679ZM15.2129 14.8394H13.8526V15.3184H17.2056V14.8394H15.8644V11.0074H17.2056V10.5284H13.8526V11.0074H15.2129V14.8394ZM9.09135 15.3184L9.55119 14.0346H11.7642L12.1953 15.3184H12.9042L11.1798 10.5284H10.2026L8.44949 15.3184H9.09135ZM19.8784 19.8784H6.12158V6.12158H19.8784V19.8784Z" />
<path d="M14.3413 26.0001C20.4821 25.3678 25.3679 20.4821 26.0001 14.3413H24.3812C23.8063 19.6678 19.7732 23.9117 14.3413 24.5152V26.0001Z" />
<path d="M0 14.3413C0.632278 20.4821 5.51806 25.3678 11.6588 26.0001V24.5152C6.22697 23.9117 2.20339 19.6582 1.61901 14.3413H0Z" />
<path d="M26.0001 11.6588C25.3679 5.51806 20.4821 0.632276 14.3413 0V1.48489C19.7732 2.08843 23.7968 6.34192 24.3812 11.6588H26.0001Z" />
<path d="M11.6588 0C5.51806 0.632276 0.632276 5.51806 0 11.6588H1.61901C2.19381 6.33235 6.22697 2.08843 11.6588 1.48489V0Z" />
</svg>
