<svg width="" height="23" viewBox="0 0 20 23" fill="none" xmlns="http://www.w3.org/2000/svg">
<path d="M20.1079 3.88905C19.884 3.02665 19.1641 2.16421 17.8684 1.20414C16.8286 0.43935 15.7248 0 14.845 0C14.669 0 14.509 0.0162709 14.3491 0.0488172C13.9492 0.130176 13.5972 0.423079 13.3733 0.862428C13.1013 1.38314 13.0374 2.08285 13.2133 2.50594C13.2773 2.63611 13.3573 2.79881 13.4533 2.94525C12.6054 3.46597 12.1255 3.61245 12.0615 3.62872C14.2691 4.37722 16.1087 5.93936 17.2605 7.97336L17.2765 7.77811C17.3245 7.24112 17.4844 6.62279 17.7084 5.98818C17.9324 6.05326 18.1563 6.0858 18.3803 6.0858C18.9721 6.0858 19.4841 5.84174 19.804 5.40238C20.1239 4.96302 20.2519 4.37722 20.1079 3.88905Z" fill="white"/>
<path d="M17.8044 5.51629C19.2601 5.92311 19.852 4.78406 19.66 4.01928C19.4521 3.25446 18.7802 2.47341 17.5965 1.59471C16.4127 0.716007 15.213 0.358021 14.4451 0.520743C13.6773 0.683465 13.4533 1.87135 13.6453 2.32698C13.7253 2.50596 13.9012 2.76629 14.1412 3.05921C13.8372 3.27073 13.5493 3.43349 13.3093 3.57992C14.781 4.24708 16.0608 5.2885 17.0206 6.59026C17.1326 6.1509 17.2925 5.7604 17.4365 5.41867C17.5485 5.43494 17.6765 5.46748 17.8044 5.51629Z" fill="url(#paint0_radial_18015_421997)"/>
<path d="M9.47028 21.463C14.4089 21.463 18.4125 17.3905 18.4125 12.3669C18.4125 7.34317 14.4089 3.27069 9.47028 3.27069C4.53164 3.27069 0.528076 7.34317 0.528076 12.3669C0.528076 17.3905 4.53164 21.463 9.47028 21.463Z" fill="url(#paint1_radial_18015_421997)"/>
<path opacity="0.6" d="M18.9241 3.27071C17.7084 1.96895 16.6846 1.62723 15.4529 1.3506C14.4931 1.12279 14.749 0.569534 15.9168 0.683439C15.3569 0.488175 14.829 0.439358 14.4451 0.520717C13.6772 0.683439 13.4532 1.87133 13.6452 2.32691C13.7252 2.50594 13.9012 2.76627 14.1411 3.05919C13.7092 3.35207 13.3413 3.56364 13.0374 3.72634C13.1813 3.79143 13.3573 3.87278 13.5653 3.98668C14.1091 4.2796 14.701 4.76777 14.701 4.76777C13.8052 3.98668 13.9971 3.62872 15.2289 2.75C15.6128 2.4734 16.3167 2.50594 16.9726 2.84763C17.6284 3.18936 18.3963 4.05181 18.3963 4.05181L17.6604 5.48373C17.7084 5.5 17.7564 5.51627 17.8044 5.53255C18.2683 5.66271 18.6362 5.63017 18.9241 5.51627C19.2601 5.30475 20.1399 4.58879 18.9241 3.27071Z" fill="#DCDCDC"/>
<path d="M15.4369 2.13164C15.7569 2.26181 16.1728 2.4896 16.6847 2.83134C17.2926 3.23815 17.8205 3.69374 18.1564 4.05174C17.5965 4.80025 17.2286 5.8254 17.0046 6.54141C17.1166 6.70412 17.2446 6.86683 17.3566 7.02954C17.4686 6.62276 17.6605 6.0207 17.9164 5.41858C17.9804 5.4349 18.0604 5.4349 18.1404 5.4349C18.3324 5.4349 18.5563 5.40231 18.7323 5.25588C18.8602 5.15825 19.0042 4.97927 18.9882 4.65381C18.9882 4.34466 18.7483 3.95412 18.2524 3.48222C17.9004 3.14048 17.4206 2.76625 16.9406 2.42452C15.5649 1.49701 14.6051 1.23665 14.1732 1.676C13.8853 1.96889 13.9172 2.32689 14.0132 2.58723C13.5014 2.92896 13.0694 3.17302 12.7815 3.33578C12.9734 3.40086 13.1494 3.48222 13.3414 3.56357C13.8533 3.28697 14.5891 2.81506 15.4369 2.13164ZM18.4603 4.45856C18.5083 4.53991 18.5243 4.62127 18.5243 4.67008C18.5243 4.81652 18.4763 4.86537 18.4443 4.89792C18.3804 4.94673 18.2524 4.97927 18.1404 4.97927C18.2364 4.78397 18.3484 4.62127 18.4603 4.45856ZM14.5091 2.03397C14.5571 1.98516 14.6851 1.95262 14.8931 1.98516C14.7331 2.11537 14.5731 2.22927 14.4132 2.34316C14.3972 2.22927 14.4132 2.11537 14.5091 2.03397Z" fill="white"/>
<path d="M9.47009 2.73367C4.23913 2.73367 0 7.04581 0 12.3668C0 17.6879 4.23913 22 9.47009 22C14.7011 22 18.9402 17.6879 18.9402 12.3668C18.9402 7.04581 14.6851 2.73367 9.47009 2.73367ZM9.47009 21.463C4.5271 21.463 0.527895 17.3949 0.527895 12.3668C0.527895 7.33874 4.5271 3.27066 9.47009 3.27066C14.4131 3.27066 18.4123 7.33874 18.4123 12.3668C18.4123 17.3949 14.3971 21.463 9.47009 21.463Z" fill="white"/>
<path opacity="0.6" d="M9.47028 21.463C14.4089 21.463 18.4125 17.3905 18.4125 12.3669C18.4125 7.34317 14.4089 3.27069 9.47028 3.27069C4.53164 3.27069 0.528076 7.34317 0.528076 12.3669C0.528076 17.3905 4.53164 21.463 9.47028 21.463Z" fill="url(#paint2_linear_18015_421997)"/>
<path opacity="0.6" d="M9.40601 20.3566C4.52696 19.5592 1.21563 14.8891 2.01547 9.9261C2.36743 7.72935 3.45519 5.85802 4.99088 4.50745C2.75133 5.82548 1.08767 8.11985 0.639762 10.9187C-0.144081 15.8817 3.16727 20.5518 8.03028 21.3491C10.7497 21.8048 13.3732 20.9424 15.3088 19.2501C13.5972 20.2589 11.5176 20.6983 9.40601 20.3566Z" fill="#DCDCDC"/>
<path opacity="0.6" d="M10.8936 3.40095C8.63809 3.02668 6.44653 3.54739 4.6549 4.70271C4.62291 4.73525 4.59092 4.76779 4.59092 4.76779C5.27878 4.34475 6.28657 3.97048 6.28657 3.97048C3.6951 5.50007 2.89526 7.24119 2.89526 7.24119C3.90305 5.25597 6.86246 3.85658 9.182 3.75891C11.5015 3.66128 13.0212 4.36102 14.8768 5.8743C16.7325 7.4039 17.8523 10.5282 17.7403 13.0015C17.6443 15.4749 16.3645 17.4764 16.3645 17.4764C17.2444 16.3211 17.7723 15.4749 18.1082 14.6125C18.1722 14.3521 18.2362 14.0918 18.2681 13.8152C19.068 8.86842 15.7727 4.19827 10.8936 3.40095Z" fill="url(#paint3_linear_18015_421997)"/>
<path d="M17.9643 12.2855C17.9643 17.0533 14.1571 20.926 9.47001 20.926C4.78295 20.926 0.959717 17.0533 0.959717 12.2855H17.9643Z" fill="url(#paint4_linear_18015_421997)"/>
<g opacity="0.6">
<path opacity="0.6" d="M17.2927 12.2855C17.2927 16.9393 13.6774 20.747 9.13428 20.926C9.24629 20.926 9.35826 20.926 9.47024 20.926C14.1573 20.926 17.9645 17.0533 17.9645 12.2855H17.2927Z" fill="url(#paint5_linear_18015_421997)"/>
</g>
<g opacity="0.7">
<path opacity="0.7" d="M2.1595 12.2855H0.959717C0.959717 17.0533 4.76696 20.926 9.45402 20.926C9.66196 20.926 9.85391 20.926 10.0459 20.9098C5.64678 20.5843 2.1595 16.8417 2.1595 12.2855Z" fill="url(#paint6_linear_18015_421997)"/>
</g>
<path d="M17.9483 12.3669C17.9483 11.3743 16.2526 10.8048 13.9971 10.6095C12.3654 10.4793 10.7177 10.642 8.83013 11.2278C7.19846 11.716 5.72675 11.6346 4.65499 11.5045C2.27147 11.2278 0.959717 11.1953 0.959717 12.3669C0.959717 14.0592 4.35102 16.1746 9.43802 15.4423C12.0135 15.068 13.3412 14.3033 14.8609 13.7826C16.5086 13.2293 17.9483 13.2456 17.9483 12.3669Z" fill="url(#paint7_linear_18015_421997)"/>
<path d="M12.2534 8.26629C13.0486 8.26629 13.6932 7.6106 13.6932 6.80178C13.6932 5.99296 13.0486 5.33731 12.2534 5.33731C11.4583 5.33731 10.8137 5.99296 10.8137 6.80178C10.8137 7.6106 11.4583 8.26629 12.2534 8.26629Z" fill="white"/>
<path d="M14.6052 9.3565C14.9409 9.3565 15.2131 9.07962 15.2131 8.73817C15.2131 8.39666 14.9409 8.11978 14.6052 8.11978C14.2695 8.11978 13.9973 8.39666 13.9973 8.73817C13.9973 9.07962 14.2695 9.3565 14.6052 9.3565Z" fill="white"/>
<g opacity="0.6">
<path opacity="0.6" d="M16.7805 5.6302C16.7645 5.6302 16.7485 5.6302 16.7485 5.6302C16.6525 5.61393 16.5885 5.5163 16.6045 5.40241C16.7485 4.65386 17.3564 3.93789 17.3883 3.90535C17.4523 3.824 17.5803 3.824 17.6443 3.88908C17.7243 3.95416 17.7243 4.08433 17.6603 4.14941C17.6443 4.16569 17.0844 4.83288 16.9564 5.48376C16.9404 5.58139 16.8604 5.6302 16.7805 5.6302Z" fill="url(#paint8_linear_18015_421997)"/>
</g>
<path opacity="0.2" d="M8.87908 19.1524C9.12644 19.1524 9.32701 18.9484 9.32701 18.6968C9.32701 18.4452 9.12644 18.2411 8.87908 18.2411C8.63172 18.2411 8.43115 18.4452 8.43115 18.6968C8.43115 18.9484 8.63172 19.1524 8.87908 19.1524Z" fill="white"/>
<g opacity="0.4">
<path opacity="0.6" d="M8.62222 18.9901C8.44626 18.8111 8.44626 18.5182 8.62222 18.3392C8.65421 18.3067 8.6862 18.2904 8.71819 18.2579C8.65421 18.2741 8.60622 18.3067 8.55824 18.3555C8.38228 18.5345 8.38228 18.8274 8.55824 19.0064C8.7022 19.1529 8.92614 19.1854 9.10214 19.0877C8.94214 19.1529 8.75019 19.1203 8.62222 18.9901Z" fill="url(#paint9_linear_18015_421997)"/>
</g>
<path opacity="0.3" d="M9.03811 18.5665C9.09114 18.5665 9.13413 18.5228 9.13413 18.4689C9.13413 18.415 9.09114 18.3713 9.03811 18.3713C8.98513 18.3713 8.94214 18.415 8.94214 18.4689C8.94214 18.5228 8.98513 18.5665 9.03811 18.5665Z" fill="white"/>
<path opacity="0.2" d="M11.2145 18.9246C11.4619 18.9246 11.6624 18.7206 11.6624 18.469C11.6624 18.2173 11.4619 18.0133 11.2145 18.0133C10.9672 18.0133 10.7666 18.2173 10.7666 18.469C10.7666 18.7206 10.9672 18.9246 11.2145 18.9246Z" fill="white"/>
<g opacity="0.4">
<path opacity="0.6" d="M10.9579 18.7623C10.782 18.5833 10.782 18.2904 10.9579 18.1114C10.9899 18.0789 11.0219 18.0626 11.0539 18.0301C10.9899 18.0463 10.9419 18.0789 10.8939 18.1277C10.718 18.3067 10.718 18.5996 10.8939 18.7786C11.0379 18.925 11.2618 18.9576 11.4378 18.8599C11.2778 18.925 11.0859 18.8925 10.9579 18.7623Z" fill="url(#paint10_linear_18015_421997)"/>
</g>
<path opacity="0.3" d="M11.3736 18.3388C11.4266 18.3388 11.4695 18.295 11.4695 18.2411C11.4695 18.1872 11.4266 18.1435 11.3736 18.1435C11.3206 18.1435 11.2776 18.1872 11.2776 18.2411C11.2776 18.295 11.3206 18.3388 11.3736 18.3388Z" fill="white"/>
<path opacity="0.2" d="M10.062 19.9822C10.2475 19.9822 10.3979 19.8292 10.3979 19.6405C10.3979 19.4518 10.2475 19.2988 10.062 19.2988C9.87645 19.2988 9.72607 19.4518 9.72607 19.6405C9.72607 19.8292 9.87645 19.9822 10.062 19.9822Z" fill="white"/>
<g opacity="0.4">
<path opacity="0.6" d="M9.87004 19.8525C9.74207 19.7224 9.74207 19.4946 9.87004 19.3644C9.88603 19.3481 9.91802 19.3318 9.93402 19.3156C9.88603 19.3318 9.85404 19.3644 9.82205 19.397C9.69408 19.5271 9.69408 19.7549 9.82205 19.8851C9.93402 19.999 10.094 20.0153 10.2379 19.9339C10.11 19.9827 9.96601 19.9502 9.87004 19.8525Z" fill="url(#paint11_linear_18015_421997)"/>
</g>
<path opacity="0.3" d="M10.1741 19.5266C10.2094 19.5266 10.2381 19.4975 10.2381 19.4615C10.2381 19.4256 10.2094 19.3965 10.1741 19.3965C10.1388 19.3965 10.1101 19.4256 10.1101 19.4615C10.1101 19.4975 10.1388 19.5266 10.1741 19.5266Z" fill="white"/>
<path opacity="0.2" d="M12.1255 19.7381C12.311 19.7381 12.4614 19.5851 12.4614 19.3965C12.4614 19.2077 12.311 19.0547 12.1255 19.0547C11.9399 19.0547 11.7896 19.2077 11.7896 19.3965C11.7896 19.5851 11.9399 19.7381 12.1255 19.7381Z" fill="white"/>
<g opacity="0.4">
<path opacity="0.6" d="M11.9335 19.6084C11.8055 19.4783 11.8055 19.2504 11.9335 19.1203C11.9495 19.104 11.9815 19.0877 11.9975 19.0714C11.9495 19.0877 11.9175 19.1203 11.8855 19.1528C11.7576 19.283 11.7576 19.5108 11.8855 19.641C11.9975 19.7549 12.1575 19.7711 12.3014 19.6898C12.1735 19.7386 12.0295 19.7061 11.9335 19.6084Z" fill="url(#paint12_linear_18015_421997)"/>
</g>
<path opacity="0.3" d="M12.2376 19.2825C12.2729 19.2825 12.3015 19.2534 12.3015 19.2174C12.3015 19.1815 12.2729 19.1523 12.2376 19.1523C12.2022 19.1523 12.1736 19.1815 12.1736 19.2174C12.1736 19.2534 12.2022 19.2825 12.2376 19.2825Z" fill="white"/>
<path opacity="0.2" d="M6.97462 18.9897C7.38098 18.9897 7.71043 18.6546 7.71043 18.2412C7.71043 17.8278 7.38098 17.4926 6.97462 17.4926C6.56822 17.4926 6.23877 17.8278 6.23877 18.2412C6.23877 18.6546 6.56822 18.9897 6.97462 18.9897Z" fill="white"/>
<g opacity="0.4">
<path opacity="0.6" d="M6.55923 18.713C6.27131 18.4201 6.27131 17.9482 6.55923 17.6553C6.60727 17.6065 6.65525 17.574 6.71924 17.5414C6.62326 17.574 6.54324 17.6391 6.46326 17.7042C6.17533 17.997 6.17533 18.4689 6.46326 18.7618C6.70324 19.0059 7.07115 19.0547 7.35907 18.8757C7.08714 18.9896 6.76723 18.9408 6.55923 18.713Z" fill="url(#paint13_linear_18015_421997)"/>
</g>
<path opacity="0.3" d="M7.23076 18.0134C7.31913 18.0134 7.39076 17.9405 7.39076 17.8507C7.39076 17.7608 7.31913 17.6879 7.23076 17.6879C7.14244 17.6879 7.0708 17.7608 7.0708 17.8507C7.0708 17.9405 7.14244 18.0134 7.23076 18.0134Z" fill="white"/>
<path opacity="0.2" d="M13.5496 17.1509C13.956 17.1509 14.2854 16.8158 14.2854 16.4024C14.2854 15.989 13.956 15.6539 13.5496 15.6539C13.1432 15.6539 12.8137 15.989 12.8137 16.4024C12.8137 16.8158 13.1432 17.1509 13.5496 17.1509Z" fill="white"/>
<g opacity="0.4">
<path opacity="0.6" d="M13.1174 16.8742C12.8294 16.5814 12.8294 16.1095 13.1174 15.8165C13.1654 15.7677 13.2133 15.7352 13.2773 15.7026C13.1814 15.7352 13.1014 15.8003 13.0214 15.8653C12.7334 16.1583 12.7334 16.6302 13.0214 16.923C13.2613 17.1672 13.6292 17.216 13.9172 17.037C13.6452 17.1509 13.3413 17.1021 13.1174 16.8742Z" fill="url(#paint14_linear_18015_421997)"/>
</g>
<path opacity="0.3" d="M13.8052 16.1746C13.8936 16.1746 13.9652 16.1017 13.9652 16.0118C13.9652 15.922 13.8936 15.8491 13.8052 15.8491C13.7169 15.8491 13.6453 15.922 13.6453 16.0118C13.6453 16.1017 13.7169 16.1746 13.8052 16.1746Z" fill="white"/>
<defs>
<radialGradient id="paint0_radial_18015_421997" cx="0" cy="0" r="1" gradientUnits="userSpaceOnUse" gradientTransform="translate(19.3683 2.99408) scale(7.14964 7.27275)">
<stop stop-color="#FFEAFF" stop-opacity="0.6"/>
<stop offset="0.6807" stop-color="white"/>
<stop offset="1" stop-color="white"/>
</radialGradient>
<radialGradient id="paint1_radial_18015_421997" cx="0" cy="0" r="1" gradientUnits="userSpaceOnUse" gradientTransform="translate(15.3908 6.09577) scale(17.4926 17.7938)">
<stop stop-color="#FFEAFF" stop-opacity="0.6"/>
<stop offset="0.6807" stop-color="white"/>
<stop offset="1" stop-color="white"/>
</radialGradient>
<linearGradient id="paint2_linear_18015_421997" x1="8.03588" y1="21.334" x2="10.9928" y2="3.40058" gradientUnits="userSpaceOnUse">
<stop stop-color="#81FFFF"/>
<stop offset="0.6202" stop-color="white" stop-opacity="0"/>
</linearGradient>
<linearGradient id="paint3_linear_18015_421997" x1="15.7719" y1="6.18945" x2="8.26231" y2="12.9631" gradientUnits="userSpaceOnUse">
<stop offset="0.2888" stop-color="white"/>
<stop offset="0.7796" stop-color="white" stop-opacity="0"/>
</linearGradient>
<linearGradient id="paint4_linear_18015_421997" x1="0.966913" y1="16.6007" x2="17.9602" y2="16.6007" gradientUnits="userSpaceOnUse">
<stop stop-color="#96B9FF"/>
<stop offset="0.9952" stop-color="#D1EBFF"/>
</linearGradient>
<linearGradient id="paint5_linear_18015_421997" x1="18.7648" y1="13.0437" x2="9.36661" y2="21.7752" gradientUnits="userSpaceOnUse">
<stop offset="0.2888" stop-color="white"/>
<stop offset="0.7796" stop-color="white" stop-opacity="0"/>
</linearGradient>
<linearGradient id="paint6_linear_18015_421997" x1="0.966913" y1="16.6007" x2="10.0582" y2="16.6007" gradientUnits="userSpaceOnUse">
<stop stop-color="#A8CFF0"/>
<stop offset="0.9952" stop-color="#D1EBFF"/>
</linearGradient>
<linearGradient id="paint7_linear_18015_421997" x1="0.978325" y1="13.0847" x2="17.9488" y2="13.0847" gradientUnits="userSpaceOnUse">
<stop stop-color="#A8CFF0"/>
<stop offset="0.9952" stop-color="#D1EBFF"/>
</linearGradient>
<linearGradient id="paint8_linear_18015_421997" x1="17.6703" y1="3.82611" x2="16.4201" y2="5.82316" gradientUnits="userSpaceOnUse">
<stop offset="0.2888" stop-color="white"/>
<stop offset="0.7796" stop-color="white" stop-opacity="0"/>
</linearGradient>
<linearGradient id="paint9_linear_18015_421997" x1="8.42582" y1="18.7112" x2="9.1026" y2="18.7112" gradientUnits="userSpaceOnUse">
<stop offset="0.2888" stop-color="white"/>
<stop offset="0.7796" stop-color="white" stop-opacity="0"/>
</linearGradient>
<linearGradient id="paint10_linear_18015_421997" x1="10.7599" y1="18.4803" x2="11.4367" y2="18.4803" gradientUnits="userSpaceOnUse">
<stop offset="0.2888" stop-color="white"/>
<stop offset="0.7796" stop-color="white" stop-opacity="0"/>
</linearGradient>
<linearGradient id="paint11_linear_18015_421997" x1="9.72397" y1="19.6449" x2="10.2321" y2="19.6449" gradientUnits="userSpaceOnUse">
<stop offset="0.2888" stop-color="white"/>
<stop offset="0.7796" stop-color="white" stop-opacity="0"/>
</linearGradient>
<linearGradient id="paint12_linear_18015_421997" x1="11.7805" y1="19.4002" x2="12.2886" y2="19.4002" gradientUnits="userSpaceOnUse">
<stop offset="0.2888" stop-color="white"/>
<stop offset="0.7796" stop-color="white" stop-opacity="0"/>
</linearGradient>
<linearGradient id="paint13_linear_18015_421997" x1="6.23996" y1="18.2602" x2="7.34528" y2="18.2602" gradientUnits="userSpaceOnUse">
<stop offset="0.2888" stop-color="white"/>
<stop offset="0.7796" stop-color="white" stop-opacity="0"/>
</linearGradient>
<linearGradient id="paint14_linear_18015_421997" x1="12.8042" y1="16.4208" x2="13.9095" y2="16.4208" gradientUnits="userSpaceOnUse">
<stop offset="0.2888" stop-color="white"/>
<stop offset="0.7796" stop-color="white" stop-opacity="0"/>
</linearGradient>
</defs>
</svg>
