<svg width="" height="26" viewBox="0 0 16 26" fill="none" xmlns="http://www.w3.org/2000/svg">
<path d="M5.78906 16.9297H6.98438C8.10156 16.9297 8.9375 16.7109 9.49219 16.2734C10.0469 15.8281 10.3242 15.1836 10.3242 14.3398C10.3242 13.4883 10.0898 12.8594 9.62109 12.4531C9.16016 12.0469 8.43359 11.8438 7.44141 11.8438H5.78906V16.9297ZM13.9922 14.2109C13.9922 16.0547 13.4141 17.4648 12.2578 18.4414C11.1094 19.418 9.47266 19.9062 7.34766 19.9062H5.78906V26H2.15625V8.86719H7.62891C9.70703 8.86719 11.2852 9.31641 12.3633 10.2148C13.4492 11.1055 13.9922 12.4375 13.9922 14.2109Z"/>
<path d="M15 3H2V6H15V3Z"/>
</svg>
