<svg width="" height="19" viewBox="0 0 15 19" fill="none" xmlns="http://www.w3.org/2000/svg">
<g clip-path="url(#clip0_18774_3472)">
<path d="M7.56981 0.00372314C5.5646 0.0112243 3.64376 0.772904 2.22585 2.12279C0.807941 3.47268 0.00787912 5.30137 0 7.21039C0.000168835 8.00588 0.134871 8.79616 0.398936 9.55089C0.494026 9.79822 0.685007 10.0015 0.932637 10.1189C1.18027 10.2364 1.46574 10.259 1.73039 10.1823C1.98614 10.0891 2.19501 9.90666 2.3145 9.67208C2.434 9.43749 2.45516 9.16838 2.37367 8.91948C2.14941 8.33149 2.04943 7.7071 2.07945 7.08221C2.11139 6.07462 2.45034 5.09761 3.05504 4.27013C3.65974 3.44264 4.5041 2.80039 5.48533 2.42155C6.46655 2.04272 7.5423 1.94366 8.5816 2.13642C9.6209 2.32919 10.5789 2.80547 11.339 3.50727C12.0991 4.20907 12.6284 5.10613 12.8626 6.0892C13.0968 7.07228 13.0257 8.09898 12.658 9.04428C12.2903 9.98958 11.6418 10.8127 10.7916 11.4135C9.94129 12.0142 8.9259 12.3666 7.86902 12.4279C7.86902 12.4279 6.80685 12.4896 6.27826 12.5513C6.08357 12.5781 5.89049 12.6145 5.6998 12.6605C5.6933 12.6668 5.68554 12.6718 5.67698 12.6752C5.66842 12.6787 5.65922 12.6804 5.64993 12.6804C5.64065 12.6804 5.63145 12.6787 5.62289 12.6752C5.61433 12.6718 5.60657 12.6668 5.60007 12.6605C5.59077 12.6489 5.58573 12.6347 5.58573 12.6201C5.58573 12.6055 5.59077 12.5914 5.60007 12.5798L5.76463 11.7252L6.76197 7.45251C6.8195 7.19628 6.76776 6.92879 6.61813 6.70888C6.4685 6.48897 6.23324 6.33465 5.9641 6.27988C5.69496 6.22511 5.41399 6.27437 5.18299 6.41682C4.952 6.55927 4.78991 6.78325 4.73238 7.03948C4.73238 7.03948 2.35871 17.4982 2.35871 17.5931C2.32604 17.7153 2.31928 17.8425 2.33882 17.9673C2.35836 18.092 2.40381 18.2118 2.47251 18.3197C2.54122 18.4275 2.63181 18.5212 2.73899 18.5954C2.84616 18.6695 2.96778 18.7226 3.09674 18.7515H3.1516C3.28066 18.7833 3.41511 18.7901 3.54698 18.7715C3.67886 18.7529 3.80549 18.7094 3.91939 18.6435C4.03329 18.5775 4.13214 18.4905 4.21011 18.3876C4.28808 18.2846 4.34359 18.1678 4.37334 18.0441C4.37144 18.0283 4.37144 18.0124 4.37334 17.9966C4.40326 17.8732 4.70246 16.4822 4.70246 16.4822C4.81319 15.9695 5.08614 15.5013 5.48463 15.1406C5.88311 14.7799 6.38803 14.544 6.93152 14.4645C7.1609 14.4313 8.12334 14.3696 8.12334 14.3696C10.0381 14.1878 11.8081 13.3182 13.0731 11.9378C14.3381 10.5574 15.0031 8.76989 14.9325 6.93919C14.862 5.10849 14.0613 3.37219 12.6934 2.08371C11.3256 0.795238 9.4934 0.0514399 7.56981 0.00372314V0.00372314Z"/>
<path d="M8.02876 16.6188C7.86495 16.5864 7.69599 16.5853 7.53172 16.6156C7.36745 16.6459 7.21116 16.707 7.07194 16.7954C6.93271 16.8837 6.81334 16.9976 6.72078 17.1303C6.62821 17.263 6.5643 17.4119 6.53275 17.5683C6.49755 17.722 6.49454 17.8808 6.52387 18.0356C6.55321 18.1904 6.61432 18.3382 6.70372 18.4705C6.79311 18.6028 6.90903 18.717 7.04484 18.8066C7.18065 18.8962 7.33369 18.9594 7.49519 18.9926H7.53009C7.68927 19.0292 7.85449 19.0353 8.01618 19.0106C8.17786 18.9859 8.33278 18.9309 8.47195 18.8487C8.61112 18.7666 8.73177 18.6589 8.8269 18.5321C8.92203 18.4052 8.98974 18.2616 9.02611 18.1096V18.0431C9.08298 17.7293 9.01125 17.4066 8.8257 17.1417C8.64015 16.8767 8.35492 16.6896 8.02876 16.6188Z" />
</g>
<defs>
<clipPath id="clip0_18774_3472">
<rect width="15" height="19" fill="white"/>
</clipPath>
</defs>
</svg>
