<svg width="" height="26" viewBox="0 0 24 21" fill="none" xmlns="http://www.w3.org/2000/svg">
<path d="M18.125 6.375C17.6875 6.125 17.125 6.125 16.625 6.375L13.125 8.4375L10.75 9.75L7.3125 11.8125C6.875 12.0625 6.3125 12.0625 5.8125 11.8125L3.125 10.1875C2.6875 9.9375 2.375 9.4375 2.375 8.875V5.75C2.375 5.25 2.625 4.75 3.125 4.4375L5.8125 2.875C6.25 2.625 6.8125 2.625 7.3125 2.875L10 4.5C10.4375 4.75 10.75 5.25 10.75 5.8125V7.875L13.125 6.5V4.375C13.125 3.875 12.875 3.375 12.375 3.0625L7.375 0.125C6.9375 -0.125 6.375 -0.125 5.875 0.125L0.75 3.125C0.25 3.375 0 3.875 0 4.375V10.25C0 10.75 0.25 11.25 0.75 11.5625L5.8125 14.5C6.25 14.75 6.8125 14.75 7.3125 14.5L10.75 12.5L13.125 11.125L16.5625 9.125C17 8.875 17.5625 8.875 18.0625 9.125L20.75 10.6875C21.1875 10.9375 21.5 11.4375 21.5 12V15.125C21.5 15.625 21.25 16.125 20.75 16.4375L18.125 18C17.6875 18.25 17.125 18.25 16.625 18L13.9375 16.4375C13.5 16.1875 13.1875 15.6875 13.1875 15.125V13.125L10.8125 14.5V16.5625C10.8125 17.0625 11.0625 17.5625 11.5625 17.875L16.625 20.8125C17.0625 21.0625 17.625 21.0625 18.125 20.8125L23.1875 17.875C23.625 17.625 23.9375 17.125 23.9375 16.5625V10.625C23.9375 10.125 23.6875 9.625 23.1875 9.3125L18.125 6.375Z"/>
</svg>
