<svg width="" height="26" viewBox="0 0 22 24" fill="none" xmlns="http://www.w3.org/2000/svg">
<path fill-rule="evenodd" clip-rule="evenodd" d="M10.9558 0.118584C10.6791 -0.0395279 10.3366 -0.0395279 10.0599 0.118584L0.447983 5.67226C0.171288 5.83037 0 6.12682 0 6.44964V17.5504C0 17.8666 0.171288 18.163 0.447983 18.3278L4.34148 20.5743V9.31542C4.34148 9.00577 4.49959 8.7159 4.76971 8.55121L7.43125 6.9108L10.0467 5.29674C10.3366 5.11886 10.6989 5.11886 10.9822 5.29674L13.5976 6.9108L16.2591 8.55121C16.5226 8.7159 16.6874 8.99919 16.6874 9.31542V14.6517C16.6874 14.9614 16.5293 15.2513 16.2591 15.4159L13.5976 17.0563L10.9822 18.6703C10.7318 18.8219 10.4815 18.5715 10.4815 18.2751V16.1603C10.4815 15.8704 10.7384 15.653 10.9822 15.5016L13.1694 14.151C13.4329 13.9863 13.5976 13.703 13.5976 13.3868V11.2193C13.5976 10.9097 13.4395 10.6198 13.1694 10.4551L10.9822 9.10459C10.6923 8.92673 10.33 8.92673 10.0467 9.10459L7.85947 10.4551C7.59594 10.6198 7.43125 10.9031 7.43125 11.2193V12.7939V19.4082V22.2345C7.43125 22.274 7.43125 22.3134 7.42466 22.353L10.073 23.8815C10.3497 24.0395 10.6923 24.0395 10.969 23.8815L20.5874 18.3278C20.8642 18.1697 21.0354 17.8732 21.0354 17.5504V6.44305C21.0354 6.12682 20.8642 5.83037 20.5874 5.66566L10.9558 0.118584Z"/>
</svg>
