<svg width="" height="26" viewBox="0 0 24 24" fill="none" xmlns="http://www.w3.org/2000/svg">
<path fill-rule="evenodd" clip-rule="evenodd" d="M11.9312 0.863307C5.81855 0.863307 0.863307 5.81855 0.863307 11.9312C0.863307 18.0438 5.81855 22.999 11.9312 22.999C18.0438 22.999 22.999 18.0438 22.999 11.9312C22.999 5.81855 18.0438 0.863307 11.9312 0.863307ZM-0.0688477 11.9312C-0.0688477 5.30374 5.30374 -0.0688477 11.9312 -0.0688477C18.5586 -0.0688477 23.9312 5.30374 23.9312 11.9312C23.9312 18.5586 18.5586 23.9312 11.9312 23.9312C5.30374 23.9312 -0.0688477 18.5586 -0.0688477 11.9312Z"/>
<path fill-rule="evenodd" clip-rule="evenodd" d="M3.96102 11.9312L11.9322 3.96003L19.9033 11.9312L11.9322 19.9023L3.96102 11.9312ZM5.27929 11.9312L11.9322 18.5841L18.5851 11.9312L11.9322 5.2783L5.27929 11.9312Z"/>
<path fill-rule="evenodd" clip-rule="evenodd" d="M10.4772 11.1361L7.66488 8.32377L8.32401 7.66464L11.1363 10.4769L10.4772 11.1361Z"/>
<path fill-rule="evenodd" clip-rule="evenodd" d="M15.5388 16.1979L11.6015 12.2607L12.2607 11.6015L16.1979 15.5388L15.5388 16.1979Z"/>
<path fill-rule="evenodd" clip-rule="evenodd" d="M16.1982 8.32329L9.44867 15.0728L8.78954 14.4137L15.5391 7.66415L16.1982 8.32329Z"/>
</svg>
