<svg width="" height="26" viewBox="0 0 24 21" fill="none" xmlns="http://www.w3.org/2000/svg">
<g clip-path="url(#clip0_39595_503493)">
<path d="M5.86612 20.1938C4.4212 19.478 3.19484 18.4831 2.23561 17.1969C-0.520662 13.5084 -0.73922 8.93418 1.64065 4.99087C1.68922 4.90595 1.72564 4.80888 1.77421 4.72394C2.89128 3.20729 4.23907 1.95757 5.93897 1.10824C10.0552 -0.930145 15.0699 -0.105084 18.2996 3.15876C20.1695 5.05154 20.121 7.39326 18.1419 9.20112C16.8183 10.4144 15.2156 11.2031 13.6249 11.9918C13.3335 12.1374 13.0421 12.2708 12.7507 12.4043C11.8279 12.7198 10.978 13.1808 10.128 13.654C8.67095 14.4548 7.22604 15.3041 6.15752 16.6024C5.08901 17.9007 5.00402 19.0896 5.86612 20.1938Z"/>
<path d="M21.8717 12.687C23.4763 13.7318 24.2235 15.2138 23.9418 17.0846C23.6846 18.7975 22.6802 20.0002 20.9775 20.5225C19.3485 21.0327 17.9522 20.5346 16.7886 19.3807C16.0413 18.6396 16.1393 17.6434 16.96 16.9267C17.5724 16.4043 18.2829 16.0642 18.9933 15.7119C19.7527 15.4689 20.4142 15.0437 21.051 14.5943C21.7125 14.1205 22.0554 13.5253 21.8717 12.687Z" />
<path d="M5.87641 20.2084C5.00879 19.0851 5.09433 17.9009 6.15748 16.5945C7.23284 15.2759 8.68703 14.4335 10.1534 13.6276C11.0088 13.1515 11.8643 12.6998 12.793 12.3701C12.7319 14.0183 12.3775 15.6055 11.8154 17.1439C11.7298 17.3881 11.6687 17.6445 11.5954 17.9009C11.4121 18.0107 11.3388 18.2183 11.2533 18.3893C10.4956 19.8665 9.18806 20.5259 7.62388 20.709C7.01288 20.7822 6.40187 20.5503 5.87641 20.2084Z" fill="#A8A8A8"/>
<path d="M21.8375 12.7143C22.0168 13.5441 21.6823 14.1544 21.0374 14.6303C20.4163 15.0941 19.7714 15.509 19.031 15.7531C19.0906 14.9842 19.234 14.252 19.5445 13.5441C19.9864 12.5312 20.8463 12.2017 21.8375 12.7143Z" fill="#A8A8A8"/>
</g>
<defs>
<clipPath id="clip0_39595_503493">
<rect width="24" height="20.7835" fill="white"/>
</clipPath>
</defs>
</svg>
