<svg height="24" viewBox="0 0 23 24" xmlns="http://www.w3.org/2000/svg">
<path d="M8.39306 0.517341L8.03662 1.04625L9.55435 4.21967C10.3937 5.96736 11.1526 7.53107 11.233 7.69204L11.394 7.97949L11.325 7.68055C11.2905 7.51958 10.9686 5.80639 10.6122 3.89773L9.95677 0.41386L9.35888 0.206897L8.74949 -6.52019e-05L8.39306 0.517341Z"/>
<path d="M12.3258 4.4846L12.0498 4.70306L12.3143 6.00232C12.4522 6.7037 12.6017 7.33608 12.6362 7.39357C12.6707 7.45106 12.8432 6.86467 13.0271 6.08281C13.1996 5.30095 13.3376 4.65707 13.3146 4.64557C13.3031 4.64557 13.1536 4.54209 12.9811 4.4386C12.6017 4.20865 12.6592 4.19715 12.3258 4.4846Z"/>
<path d="M20.6962 5.19726C20.1443 5.71466 18.9255 6.87595 17.9712 7.77279C17.0169 8.68113 16.2695 9.41699 16.3155 9.41699C16.3615 9.40549 17.8447 8.62364 19.6154 7.65781L22.8348 5.89863L22.8693 5.25474L22.9038 4.61086L22.3634 4.42689C22.0645 4.32341 21.7885 4.24293 21.754 4.24293C21.7195 4.25443 21.2366 4.67985 20.6962 5.19726Z"/>
<path d="M16.0395 5.25421C15.7061 5.28871 15.6831 5.3232 15.3152 6.51898C15.0967 7.19736 14.9012 7.85274 14.8668 7.97922C14.8323 8.1057 15.2462 7.70327 15.7866 7.07088C16.7179 6.00158 16.7754 5.92109 16.6604 5.61065C16.5225 5.21972 16.4995 5.20822 16.0395 5.25421Z"/>
<path d="M7.28924 6.51939C7.20875 6.56539 7.12827 6.77235 7.11677 6.96781C7.08228 7.30125 7.15126 7.37024 8.23207 8.07161C8.86446 8.48554 9.39336 8.80748 9.41636 8.78449C9.43935 8.76149 9.12891 8.23258 8.72648 7.5887C8.12859 6.63437 7.95612 6.43891 7.71466 6.43891C7.55369 6.42741 7.36973 6.4734 7.28924 6.51939Z"/>
<path d="M0.379431 11.5553L0 12.0612L0.379431 12.5786C0.689875 12.9926 0.816352 13.0845 1.04631 13.0386C1.20728 13.0041 2.73651 12.7971 4.4382 12.5786C6.15139 12.3487 7.7266 12.1417 7.94506 12.0957C8.22101 12.0497 7.31268 11.8888 4.9556 11.5898C3.09294 11.3484 1.37975 11.1299 1.16129 11.0954C0.793357 11.0494 0.724369 11.0839 0.379431 11.5553Z"/>
<path d="M18.6384 11.6704C17.9715 11.8198 17.3506 11.9578 17.2586 11.9808C17.0861 12.0153 18.8108 12.4522 19.6502 12.5902C20.0296 12.6477 20.0986 12.6132 20.2596 12.3373C20.4435 12.0383 20.4435 12.0038 20.2136 11.6934C20.0871 11.5209 19.9491 11.3829 19.9146 11.3829C19.8801 11.3944 19.3052 11.5209 18.6384 11.6704Z"/>
<path d="M6.81791 13.4982C6.10504 13.5672 5.49565 13.6707 5.46116 13.7052C5.42666 13.7397 5.38067 13.9351 5.38067 14.1421C5.35767 14.4295 5.42666 14.556 5.64512 14.6825C5.90957 14.832 6.00156 14.7975 7.08236 14.1881C8.32414 13.4752 8.5426 13.3142 8.28964 13.3372C8.19766 13.3487 7.53078 13.4177 6.81791 13.4982Z"/>
<path d="M7.65796 15.1545C6.40469 15.7064 6.39319 15.7179 6.35869 16.1318C6.3242 16.4883 6.35869 16.5572 6.63464 16.6607C6.80711 16.7297 6.97958 16.7642 7.01408 16.7527C7.17505 16.6837 9.1182 14.5911 9.02621 14.5911C8.96872 14.6026 8.35933 14.844 7.65796 15.1545Z"/>
<path d="M16.2927 14.6941C16.3502 14.7516 17.6034 15.9359 19.0867 17.3272L21.7657 19.8452L22.3291 19.6727L22.8925 19.4888V18.8334V18.178L20.1675 16.7063C18.6612 15.9014 17.178 15.0966 16.8791 14.9126C16.3272 14.5907 16.0857 14.4987 16.2927 14.6941Z"/>
<path d="M8.92258 16.5684C7.89926 17.4882 7.81878 17.6262 8.00275 18.1321C8.03724 18.2241 8.20971 18.2701 8.47416 18.2471C8.88809 18.2126 8.89958 18.2011 9.45148 16.9593C9.76193 16.2694 10.0034 15.6945 9.99189 15.683C9.96889 15.66 9.49748 16.0625 8.92258 16.5684Z"/>
<path d="M9.70435 19.6269C8.60055 21.961 8.11764 23.0993 8.18663 23.2143C8.23262 23.3063 8.40509 23.5362 8.55456 23.7202C8.83051 24.0536 8.83051 24.0536 9.37091 23.9042C9.66986 23.8237 9.94581 23.6742 9.9803 23.5937C10.0608 23.3982 11.3716 16.2695 11.3486 16.235C11.3371 16.212 10.5897 17.7413 9.70435 19.6269Z"/>
<path d="M14.2461 17.7179C14.3265 18.4998 14.4185 19.1437 14.43 19.1667C14.453 19.1782 14.6255 19.2471 14.821 19.3046C15.1429 19.3851 15.2119 19.3621 15.4073 19.0862L15.6373 18.7757L14.9704 17.6489C14.6025 17.028 14.2461 16.4761 14.1886 16.4187C14.1311 16.3612 14.1541 16.9361 14.2461 17.7179Z"/>
<path d="M12.5674 16.9478C12.4984 17.2007 12.3605 17.8446 12.257 18.3735L12.0615 19.3393L12.326 19.5463C12.6709 19.8107 12.7629 19.8107 13.0848 19.5463L13.3378 19.3278L13.0503 18.0286C12.8894 17.3042 12.7514 16.6603 12.7284 16.6028C12.7054 16.5338 12.6364 16.6948 12.5674 16.9478Z"/>
</svg>
