<svg height="24" viewBox="0 0 24 24" xmlns="http://www.w3.org/2000/svg">
  <path fill-rule="evenodd" clip-rule="evenodd" d="M12 24C18.6274 24 24 18.6274 24 12C24 5.37258 18.6274 0 12 0C5.37258 0 0 5.37258 0 12C0 18.6274 5.37258 24 12 24ZM13.0002 4.57719C12.3814 4.21992 11.619 4.21992 11.0002 4.57719L6.07196 7.42249C5.90706 7.51769 5.75903 7.63441 5.63059 7.76795L18.9284 9.31825V9.15454C18.9284 8.44001 18.5472 7.77975 17.9284 7.42249L13.0002 4.57719ZM18.9284 10.9516L18.8846 11.3267L5.07196 9.71636V14.3128L18.9284 13.669V10.9516ZM6.07196 16.5772C5.92999 16.4952 5.80052 16.3973 5.6853 16.2864L18.746 15.6796C18.5758 16.0502 18.2934 16.3664 17.9284 16.5772L13.0002 19.4225C12.3814 19.7798 11.619 19.7798 11.0002 19.4225L6.07196 16.5772Z"/>
</svg>
