<svg width="" height="24" viewBox="0 0 23 24" fill="#6B93C0" xmlns="http://www.w3.org/2000/svg">
<path fill-rule="evenodd" clip-rule="evenodd" d="M22.1486 9.23971V0H0.00541554V9.23971C0.00541554 9.39899 0.00421579 9.5697 0.00294568 9.75042C-0.0110755 11.7455 -0.0336708 14.9605 1.45458 17.4915C3.54137 21.0073 7.36715 23.6804 11.077 24C14.7579 23.6804 18.5837 21.0073 20.6704 17.4915C22.1873 14.9838 22.1648 11.7413 22.151 9.74304C22.1498 9.56491 22.1486 9.39667 22.1486 9.23971ZM20.3032 9.64925V1.84617H1.8507V9.62463C1.8507 9.75947 1.8497 9.90413 1.84864 10.0574C1.83692 11.7508 1.81795 14.4936 3.06149 16.6154C4.80503 19.5939 7.97731 21.8585 11.0769 22.1539C14.1766 21.8831 17.3489 19.6185 19.0924 16.64C20.3358 14.4958 20.317 11.7721 20.3053 10.0819C20.3042 9.92881 20.3032 9.78419 20.3032 9.64925Z" />
<path fill-rule="evenodd" clip-rule="evenodd" d="M18.8138 4.00732V10.0994C18.8138 10.2029 18.8146 10.3139 18.8155 10.4313V10.4313C18.8172 10.6774 18.8192 10.9521 18.8145 11.247L11.0396 5.88492H9.43031L18.7543 12.4117C18.6563 13.4468 18.4115 14.5759 17.8117 15.5402C16.3969 17.8583 13.8032 19.6208 11.3077 19.8315C8.79253 19.6208 6.19878 17.8583 4.784 15.5402C3.77502 13.8714 3.79034 11.7516 3.79985 10.4362C3.80071 10.317 3.80152 10.2045 3.80152 10.0994V10.0983L12.9169 16.4791L13.5874 15.8086L3.80152 8.97183V4.00732H18.8138Z"/>
</svg>
