<svg height="24" viewBox="0 0 14 24" xmlns="http://www.w3.org/2000/svg">
  <path d="M13.5577 2.40428C13.8522 1.31286 13.3709 -0.0285399 12.1993 0.000462273C9.94632 -0.0307883 9.57925 3.11403 9.83203 5.86155L7.44276 7.89931C6.55256 7.13823 5.30848 6.98867 4.1897 7.25429C0.448647 8.17162 -0.929512 13.5059 0.635493 16.566C-0.129427 18.3604 -0.0217294 20.5632 1.02232 22.2283C1.90156 23.9826 4.56556 24.5518 4.03582 23.4001C3.91054 23.2439 3.91054 23.2998 3.71932 23.2795C1.22016 23.1211 0.595931 19.367 1.2861 17.5681C3.5017 20.175 8.38351 19.2822 10.1068 16.961C12.6543 13.5461 11.7861 9.40588 11.2607 5.68746C12.1905 4.76121 13.228 3.73452 13.5577 2.40428ZM1.04653 15.45C-0.226133 10.4861 4.02043 6.46863 6.7548 8.49077H6.75699C4.38531 10.3679 2.43787 12.7426 1.04653 15.45ZM9.03195 16.0325C7.55925 18.6528 3.17859 19.2264 1.53888 16.5883C2.01585 15.1821 2.74777 13.8787 3.69514 12.7449L3.70833 12.7404C4.78096 11.4615 5.95251 10.2719 7.21198 9.18045C7.77687 10.9191 6.38333 13.2694 4.75238 13.1555C4.84909 14.6911 7.12844 13.497 7.57244 12.8832C8.6385 11.7182 8.7352 9.58219 7.97468 8.50641L9.92434 6.86592C10.3288 11.5284 10.6057 12.9078 9.03195 16.0325ZM11.1289 4.62504C10.7222 0.259384 12.4257 0.685676 12.6433 1.06063C13.2302 2.25472 11.674 4.25231 11.1289 4.62504Z"/>
</svg>
