<svg width="" height="26" viewBox="0 0 24 12" fill="none" xmlns="http://www.w3.org/2000/svg">
<path fill-rule="evenodd" clip-rule="evenodd" d="M12.3335 6.72889C18.4215 5.98139 23.2072 4.15708 23.0227 2.65422C22.8381 1.1513 17.7532 0.538957 11.6653 1.28646C5.57727 2.034 0.791582 3.8583 0.976109 5.36117C1.16065 6.86404 6.24552 7.47638 12.3335 6.72889Z" fill="white" stroke="white" stroke-width="0.976562"/>
<path fill-rule="evenodd" clip-rule="evenodd" d="M12.271 6.30006C17.9888 5.598 22.4983 4.00543 22.3433 2.74289C22.1883 1.48039 17.4275 1.02603 11.7097 1.72809C5.9919 2.43014 1.48241 4.02272 1.63742 5.28526C1.79245 6.54775 6.55329 7.00211 12.271 6.30006Z" fill="#C3CEEB"/>
<path fill-rule="evenodd" clip-rule="evenodd" d="M11.9209 10.2386C14.9424 10.2386 17.5019 8.2564 18.3751 5.51888C18.3952 5.45597 18.2841 5.5308 18.0751 5.59485C17.7137 5.70562 17.0279 5.89845 15.9932 6.11348C14.5777 6.40772 12.5467 6.70491 11.8537 6.78747C11.1359 6.87299 9.6719 6.95133 8.40859 6.99486C7.66423 7.02047 7.10856 7.06355 6.69692 7.04886C6.40992 7.03862 6.12078 6.93691 6.19043 7.04886C7.38664 8.9716 9.49335 10.2386 11.9209 10.2386Z" fill="#C3CEEB"/>
<path fill-rule="evenodd" clip-rule="evenodd" d="M12.3644 9.68856C13.7261 9.68856 14.6988 8.88725 14.6988 8.73972C14.6988 8.5922 13.7261 9.10114 12.3644 9.10114C11.0027 9.10114 9.64502 8.95362 9.64502 9.10114C9.64502 9.19417 10.3337 9.47194 11.1747 9.5828C11.6673 9.64771 11.8614 9.68856 12.3644 9.68856Z" fill="white"/>
</svg>
