<svg height="24" viewBox="0 0 24 24" xmlns="http://www.w3.org/2000/svg">
  <path fill-rule="evenodd" clip-rule="evenodd" d="M23.6449 11.9999C23.6449 18.4331 18.4331 23.6449 11.9999 23.6449C5.56681 23.6449 0.35498 18.4331 0.35498 11.9999C0.35498 5.56681 5.56681 0.35498 11.9999 0.35498C18.4331 0.35498 23.6449 5.56681 23.6449 11.9999ZM12.0141 6.06397L10.3668 8.67699C9.94073 8.33616 9.6283 7.88172 9.47209 7.37048C9.31587 6.85924 9.33007 6.30539 9.50049 5.79415C9.6709 5.2829 9.98333 4.84267 10.4236 4.51604C10.8496 4.18941 11.375 4.019 11.9147 4.0048C12.4543 3.99059 12.9798 4.14681 13.4342 4.44503C13.8887 4.74326 14.2295 5.1835 14.4283 5.68054C14.6271 6.17758 14.6555 6.73142 14.5277 7.25687C14.3999 7.78231 14.1159 8.25095 13.704 8.60598L12.0141 6.06397ZM9.87003 15.4934L6.77417 15.4508L8.05228 12.6816C7.54104 12.5254 6.98719 12.5254 6.47595 12.6816C5.9647 12.852 5.51027 13.1645 5.18364 13.5905C4.85701 14.0165 4.6724 14.542 4.6582 15.0816C4.64399 15.6213 4.78601 16.1467 5.08423 16.6011C5.38246 17.0556 5.80849 17.3964 6.30553 17.6094C6.80257 17.8082 7.35642 17.8508 7.88186 17.7372C8.40731 17.6094 8.87595 17.3396 9.24518 16.9278C9.58601 16.5301 9.79902 16.0331 9.87003 15.4934ZM17.1549 15.4508L14.0591 15.536C14.1301 16.0756 14.3715 16.5727 14.7123 16.9703C15.0816 17.3679 15.5644 17.6378 16.0899 17.7514C16.6153 17.865 17.1691 17.8224 17.6662 17.6094C18.1632 17.3964 18.5893 17.0413 18.8733 16.5869C19.1573 16.1182 19.2993 15.5928 19.2709 15.0532C19.2425 14.5135 19.0579 14.0023 18.7171 13.5762C18.3762 13.1502 17.9218 12.8378 17.4106 12.6816C16.8993 12.5253 16.3455 12.5395 15.8342 12.71L17.1549 15.4508Z"/>
</svg>
