<svg height="24" viewBox="0 0 24 24" xmlns="http://www.w3.org/2000/svg">
  <path fill-rule="evenodd" clip-rule="evenodd" d="M24 12C24 18.6274 18.6274 24 12 24C5.37258 24 0 18.6274 0 12C0 5.37258 5.37258 0 12 0C18.6274 0 24 5.37258 24 12ZM23 12C23 18.0751 18.0751 23 12 23C5.92487 23 1 18.0751 1 12C1 5.92487 5.92487 1 12 1C18.0751 1 23 5.92487 23 12Z"/>
  <path d="M21.4303 9.69093C21.3087 9.31674 20.9768 9.05185 20.5857 9.01646L15.2514 8.53221L13.1433 3.59664C12.9877 3.23403 12.6335 3 12.2393 3C11.8452 3 11.4909 3.23403 11.3362 3.59664L9.22807 8.53221L3.893 9.01646C3.50191 9.05253 3.17074 9.31748 3.04837 9.69093C2.9267 10.0651 3.03907 10.4755 3.33485 10.7349L7.36709 14.2706L6.17819 19.507C6.09121 19.892 6.24064 20.2902 6.56015 20.5211C6.73182 20.6459 6.93359 20.7082 7.13604 20.7082C7.31003 20.7082 7.48415 20.662 7.63965 20.5689L12.2393 17.8186L16.8382 20.5689C17.1756 20.7705 17.5998 20.752 17.9186 20.5211C18.238 20.2902 18.3875 19.892 18.3005 19.507L17.1116 14.2706L21.1439 10.7349C21.4395 10.4755 21.552 10.0659 21.4303 9.69093Z"/>
</svg>
