<svg width="" height="26" viewBox="0 0 18 24" fill="none" xmlns="http://www.w3.org/2000/svg">
<path d="M5.7573 0.237228C2.3341 1.21939 0.490844 3.81608 0.70629 7.36803C0.802043 8.86146 1.14915 9.77635 2.04684 10.8392C3.41133 12.4538 4.72794 13.0996 8.83338 14.149C11.2751 14.7679 12.0292 15.0639 12.496 15.5752C13.2979 16.4362 13.1303 18.0239 12.1608 18.8177C11.2153 19.598 8.41446 19.7057 7.04997 19.006C6.12834 18.5486 5.43413 17.7413 4.96733 16.5842C4.77582 16.1133 4.53644 15.6694 4.42871 15.6021C4.18933 15.4541 3.15998 15.6559 1.47232 16.1941C0.131768 16.6112 -0.0836781 16.7726 0.0240447 17.2973C0.742197 20.6609 3.45921 23.2172 6.89437 23.7554C10.545 24.3339 13.2261 23.89 15.2489 22.3831C17.2477 20.8762 18.2891 18.2526 17.93 15.5483C17.4991 12.2789 15.4643 10.7451 9.74304 9.38618C6.43954 8.59237 5.72139 8.13492 5.61367 6.73567C5.54185 5.83423 5.86502 5.30951 6.75074 4.83861C7.36117 4.51571 7.57662 4.47535 8.68975 4.47535C10.5689 4.4888 11.3948 4.97316 12.2566 6.62804C12.5797 7.26039 12.6276 7.30076 13.0705 7.27385C13.633 7.24694 16.4219 6.3455 16.8049 6.07641C16.9485 5.96878 17.0682 5.75351 17.0682 5.60551C17.0682 5.08079 16.2902 3.66809 15.5122 2.7801C14.5427 1.6903 13.6091 1.04449 12.1489 0.492861C11.0716 0.0757771 10.928 0.0623226 8.86929 0.00850487C7.01406 -0.018404 6.58317 0.00850487 5.7573 0.237228Z"/>
</svg>
