<svg width="14" height="14" viewBox="0 0 14 14" fill="#6B93C0" xmlns="http://www.w3.org/2000/svg">
<path d="M13.356 3.8347C13.7991 4.1938 14.0784 4.9365 13.9804 5.48181L13.0284 10.7486C12.929 11.2974 12.404 11.9015 11.8636 12.0912L6.6703 13.9147C6.1299 14.1044 5.3263 13.9672 4.8839 13.6081L0.643298 10.1662C0.200197 9.80711 -0.0798033 9.06791 0.0202968 8.51911L0.972298 3.2523C1.071 2.7035 1.596 2.1001 2.1371 1.9097L7.3311 0.0854988C7.87221 -0.104901 8.67511 0.0336985 9.11821 0.392099L13.356 3.8347ZM8.93831 6.19931L9.14971 5.1283L7.16731 5.1318L7.44731 3.7206H6.8068C6.34479 4.42863 5.67186 4.97349 4.8832 5.2781L4.7033 6.20141H5.5699C5.5699 6.20141 5.2766 7.52721 5.1779 8.01651C4.9329 9.26251 5.5489 10.1459 6.4953 10.1459H8.09691L8.37691 8.96291H7.0371C6.4421 8.96291 6.4736 8.63741 6.5891 8.05991L6.958 6.19651L8.93831 6.19931Z" />
</svg>
