<svg width="" height="24" viewBox="0 0 22 24" fill="none" xmlns="http://www.w3.org/2000/svg">
<path fill-rule="evenodd" clip-rule="evenodd" d="M6.99531 22.2237C6.88389 22.1253 6.814 21.9881 6.8001 21.8402L5.69237 10.0556H9.63459V23.258C9.63459 23.7614 9.04046 24.0294 8.66303 23.6963L6.99531 22.2237ZM9.63459 9.82176V8.17661L5.48199 7.81779L5.67034 9.82176H9.63459ZM9.63459 7.94185L5.45978 7.58122L4.80732 0.639332C4.77499 0.296361 5.04479 0 5.38935 0H9.05003C9.37292 0 9.63459 0.261742 9.63459 0.584614V7.94185Z"/>
<path fill-rule="evenodd" clip-rule="evenodd" d="M17.3397 9.82167H20.3448C20.5063 9.82167 20.6372 9.69093 20.6372 9.52948V7.8056C20.6372 7.63278 20.4882 7.49788 20.3165 7.51468L17.5259 7.787L17.3397 9.82167ZM17.2889 7.8103L13.1305 8.21625V9.82167H17.1049L17.2889 7.8103ZM12.8967 8.23919V9.82167H1.82405C1.66261 9.82167 1.53174 9.69093 1.53174 9.52948V7.80163C1.53174 7.63043 1.67832 7.49589 1.84896 7.51034L11.6898 8.35206C11.7075 8.35368 11.7254 8.3535 11.7431 8.3517L12.8967 8.23919Z"/>
<path fill-rule="evenodd" clip-rule="evenodd" d="M14.1314 23.6564C13.7643 24.0286 13.1306 23.7686 13.1306 23.2458V5.10962H17.5415L16.007 21.5669C15.9945 21.7012 15.9359 21.8271 15.8412 21.9232L14.1314 23.6564ZM17.5633 4.87576H13.1306V2.35514L17.8257 2.06225L17.5633 4.87576ZM13.1306 0.584614V2.12083L17.8477 1.82656L17.9584 0.638898C17.9904 0.296072 17.7206 0 17.3762 0H13.7152C13.3923 0 13.1306 0.261742 13.1306 0.584614Z"/>
<path fill-rule="evenodd" clip-rule="evenodd" d="M9.63449 4.87571V2.36243L4.94519 2.13166L5.20181 4.87571H9.63449ZM9.86835 4.87571H21.6894C21.8185 4.87571 21.9233 4.77097 21.9233 4.64185V2.04393C21.9233 1.90894 21.8093 1.80198 21.6746 1.81054L11.5229 2.45538L9.86835 2.37395V4.87571ZM4.69002 2.11911L4.97011 4.87571H0.233842C0.104704 4.87571 0 4.77097 0 4.64185V2.13393C0 2.00026 0.111837 1.89379 0.245345 1.90036L4.69002 2.11911Z"/>
</svg>
