<svg width="13" height="12" viewBox="0 0 13 12" fill="#6B93C0" xmlns="http://www.w3.org/2000/svg">
<path fill-rule="evenodd" clip-rule="evenodd" d="M7.82253 6.45063C7.74866 6.45618 7.36702 6.479 6.5157 6.479C5.83858 6.479 5.35783 6.45864 5.18917 6.45063C2.57242 6.33527 0.619253 5.87879 0.619253 5.33224C0.619253 4.78569 2.57242 4.32982 5.18917 4.21261V5.99599C5.36029 6.00833 5.85028 6.03732 6.52739 6.03732C7.33993 6.03732 7.74682 6.00339 7.82007 5.99661V4.21385C10.4313 4.33044 12.3801 4.78692 12.3801 5.33224C12.3801 5.87755 10.4319 6.33404 7.82007 6.45001L7.82253 6.45063ZM7.82253 4.0294V2.43356H11.4666V0H1.54505V2.43356H5.18855V4.02879C2.22709 4.16512 0 4.75299 0 5.45746C0 6.16193 2.22709 6.74919 5.18855 6.88614V12H7.82191V6.88429C10.7766 6.74796 13 6.1607 13 5.45685C13 4.753 10.7784 4.16573 7.82191 4.02879L7.82253 4.0294Z" />
</svg>
