<svg width="14" height="14" viewBox="0 0 14 14" fill="#6B93C0" xmlns="http://www.w3.org/2000/svg">
<path fill-rule="evenodd" clip-rule="evenodd" d="M9.64575 9.25806L12.299 11.5161V11.4597C12.5248 11.1774 12.7506 10.8387 12.9764 10.5L9.98446 8.75C9.87156 8.91935 9.75866 9.08871 9.64575 9.25806Z" fill="#C3CEEB"/>
<path fill-rule="evenodd" clip-rule="evenodd" d="M10.4363 7H13.8798V7.05645C13.8798 7.39516 13.8234 7.73387 13.7669 8.07258V8.18548V8.29839C13.7104 8.6371 13.5975 8.97581 13.4846 9.31452V9.37097L10.2104 8.18548C10.3798 7.84677 10.4363 7.45161 10.4363 7Z" fill="#C3CEEB"/>
<path fill-rule="evenodd" clip-rule="evenodd" d="M13.033 3.50007C13.2024 3.83878 13.3717 4.17749 13.4846 4.5162L13.5411 4.57265V4.6291C13.654 4.96781 13.7669 5.30652 13.8234 5.64523V5.70168L10.4363 6.32265C10.3234 5.70168 10.0976 5.13717 9.70239 4.68555L12.3556 2.42749V2.48394C12.5814 2.82265 12.8072 3.16136 13.033 3.50007Z" fill="#C3CEEB"/>
<path fill-rule="evenodd" clip-rule="evenodd" d="M7.61364 3.55645C7.38784 3.5 7.21848 3.5 6.99268 3.5V0C7.38784 0 7.783 0.0564515 8.17816 0.112903C8.57332 0.169355 8.91203 0.282258 9.30719 0.395161C9.6459 0.508064 10.0411 0.677419 10.3798 0.903226C10.7185 1.07258 11.0007 1.29839 11.3395 1.58065H11.3959L9.19429 4.23387C8.91203 3.95161 8.51687 3.78226 8.17816 3.6129C8.0088 3.6129 7.783 3.55645 7.61364 3.55645Z" fill="#C3CEEB"/>
<path d="M6.99262 0V3.5C5.07327 3.5 3.49262 5.08065 3.49262 7C3.49262 8.91935 5.07327 10.5 6.99262 10.5C8.00875 10.5 9.02488 10.0484 9.64585 9.25806L12.2991 11.5161C11.0007 13.0968 9.02488 14 6.99262 14C3.15391 14 0.0490723 10.8952 0.0490723 7C0.0490723 3.10484 3.09746 0 6.99262 0ZM10.2668 8.18548L13.541 9.37097C13.4281 9.76613 13.2023 10.1048 13.0329 10.5L10.041 8.75C10.0975 8.58065 10.2104 8.41129 10.2668 8.18548ZM13.8233 5.75806C13.8797 6.15323 13.9362 6.54839 13.9362 7H10.4926C10.4926 6.77419 10.4926 6.60484 10.4362 6.37903L13.8233 5.75806ZM11.4523 1.6371C11.7346 1.91935 12.0733 2.20161 12.2991 2.48387L9.64585 4.74194C9.53294 4.57258 9.36359 4.45968 9.19423 4.29032L11.4523 1.6371Z" />
</svg>
