<svg width="" height="26" viewBox="0 0 24 24" fill="none" xmlns="http://www.w3.org/2000/svg">
<path d="M23.0813 7.22983C21.9563 6.19108 20.4 4.60483 19.1325 3.47983L19.0575 3.42733C18.9328 3.32712 18.7921 3.24853 18.6413 3.19483C15.585 2.62483 1.3613 -0.0339198 1.0838 -0.000169807C1.00604 0.0107202 0.931718 0.0389122 0.866299 0.0823302L0.795049 0.13858C0.707315 0.22768 0.64068 0.335322 0.600049 0.45358L0.581299 0.50233V0.76858V0.80983C2.18255 5.26858 8.50505 19.8748 9.75005 23.3023C9.82505 23.5348 9.96755 23.9773 10.2338 23.9998H10.2938C10.4363 23.9998 11.0438 23.1973 11.0438 23.1973C11.0438 23.1973 21.9038 10.0273 23.0025 8.62483C23.1448 8.45207 23.2703 8.26624 23.3775 8.06983C23.4049 7.91615 23.392 7.75801 23.3401 7.6108C23.2882 7.46359 23.199 7.33234 23.0813 7.22983ZM13.83 8.76358L18.465 4.91983L21.1838 7.42483L13.83 8.76358ZM12.0301 8.51233L4.05005 1.97233L16.9613 4.35358L12.0301 8.51233ZM12.75 10.2261L20.9175 8.90983L11.58 20.1598L12.75 10.2261ZM2.9663 2.62483L11.3625 9.74983L10.1475 20.1673L2.9663 2.62483Z"/>
</svg>
