<svg width="14" height="14" viewBox="0 0 14 14" fill="none" xmlns="http://www.w3.org/2000/svg">
<path d="M12.88 13.5H1.12C0.780142 13.5 0.5 13.2199 0.5 12.88V1.12C0.5 0.780142 0.780142 0.5 1.12 0.5H12.88C13.2199 0.5 13.5 0.780142 13.5 1.12V12.88C13.5 13.2199 13.2199 13.5 12.88 13.5Z" stroke="#6B93C0"/>
<path d="M2.73201 12.5904C2.69515 12.5904 2.66528 12.5568 2.66528 12.52V10.6388C2.66528 10.602 2.63541 10.5684 2.59855 10.5684H1.93448C1.89715 10.5684 1.86401 10.5385 1.86401 10.5016V10.1381C1.86401 10.1012 1.89761 10.0676 1.93448 10.0676H3.97848C4.01535 10.0676 4.04895 10.1008 4.04895 10.1381V10.5016C4.04895 10.5385 4.01535 10.5684 3.97848 10.5684H3.31815C3.28128 10.5684 3.24768 10.6015 3.24768 10.6388V12.52C3.24768 12.5568 3.21781 12.5904 3.18095 12.5904H2.73201Z" fill="#6B93C0"/>
<path d="M6.08877 10.1381C6.08877 10.1012 6.11864 10.0676 6.1555 10.0676H6.6007C6.63757 10.0676 6.67117 10.1008 6.67117 10.1381V11.4219C6.67117 12.1826 6.2409 12.624 5.55817 12.624C4.87917 12.624 4.45264 12.1826 4.45264 11.4219V10.1381C4.45264 10.1012 4.4825 10.0676 4.51937 10.0676H4.96457C5.00144 10.0676 5.03504 10.1008 5.03504 10.1381V11.4401C5.03504 11.8148 5.22777 12.0818 5.5619 12.0818C5.89604 12.0818 6.08877 11.8148 6.08877 11.4401V10.1381Z" fill="#6B93C0"/>
<path d="M8.71617 10.8916C8.65691 10.8916 8.63824 10.8692 8.61584 10.8249C8.53791 10.6429 8.36711 10.5281 8.10764 10.5281C7.87384 10.5281 7.67738 10.6098 7.67738 10.7656C7.67738 10.9364 7.85937 11.0069 8.25977 11.055C8.86831 11.1254 9.21691 11.3112 9.21691 11.7932C9.21691 12.335 8.74184 12.6206 8.13378 12.6206C7.60691 12.6206 7.15424 12.3644 7.08378 11.8268C7.07631 11.775 7.10244 11.7564 7.15424 11.7564H7.56257C7.61437 11.7564 7.64424 11.7788 7.65918 11.8194C7.71471 11.9976 7.90418 12.1348 8.17858 12.1348C8.41984 12.1348 8.63124 12.0457 8.63124 11.8567C8.63124 11.6304 8.40864 11.5898 7.96344 11.5338C7.45151 11.467 7.09544 11.3186 7.09544 10.8473C7.09544 10.376 7.50004 10.0386 8.13424 10.0386C8.70544 10.0386 9.10257 10.3466 9.18424 10.8067C9.19544 10.8585 9.18051 10.8921 9.12498 10.8921H8.71617V10.8916Z" fill="#6B93C0"/>
<path d="M9.72127 12.5904C9.68441 12.5904 9.65454 12.5568 9.65454 12.52V10.1381C9.65454 10.1012 9.68441 10.0676 9.72127 10.0676H10.7302C11.4797 10.0676 12.0621 10.5833 12.0621 11.3365C12.0621 12.0785 11.4871 12.5904 10.7302 12.5904H9.72127ZM10.7302 12.0892C11.1348 12.0892 11.4498 11.77 11.4498 11.3286C11.4498 10.8871 11.1343 10.5679 10.7265 10.5679H10.3074C10.2705 10.5679 10.2407 10.601 10.2407 10.6384V12.022C10.2407 12.0589 10.2705 12.0888 10.3074 12.0888H10.7302V12.0892Z" fill="#6B93C0"/>
<path d="M7.68732 7.16675H6.47398C6.39698 7.16675 6.33398 7.10375 6.33398 7.02675V1.89342C6.33398 1.81642 6.39698 1.75342 6.47398 1.75342H7.68732C7.76432 1.75342 7.82732 1.81642 7.82732 1.89342V7.02675C7.82732 7.10375 7.76432 7.16675 7.68732 7.16675Z" fill="#6B93C0"/>
<path d="M9.75336 3.24675H4.24669C4.16969 3.24675 4.10669 3.18375 4.10669 3.10675V1.89342C4.10669 1.81642 4.16969 1.75342 4.24669 1.75342H9.75336C9.83036 1.75342 9.89336 1.81642 9.89336 1.89342V3.10675C9.89336 3.18375 9.83036 3.24675 9.75336 3.24675Z" fill="#6B93C0"/>
</svg>
