<svg width="" height="21" viewBox="0 0 24 21" fill="none" xmlns="http://www.w3.org/2000/svg">
<g clip-path="url(#clip0_1693_21938)">
<path d="M2.08622 2.98202C3.89833 2.98207 5.45852 3.33506 6.72279 4.03125C7.93163 4.69692 9.07067 5.77423 10.1722 6.81607C12.0054 8.54988 13.9011 10.3428 16.1716 10.3428C16.1919 10.3428 16.2128 10.3426 16.2332 10.3423C17.9597 10.3182 19.006 8.41553 19.9289 6.73677C20.4141 5.85439 20.8331 5.09234 21.326 4.63759C22.139 3.8874 23.0156 3.42962 23.9314 3.27703L24 3.26561V0.402984C24 0.402984 22.3364 -0.408552 20.444 1.52666C19.2289 2.76919 18.2575 7.23271 15.6561 7.27293C12.1822 7.32665 9.81831 2.71049 6.99183 0.985656C4.0394 -0.816023 0.00878906 0.402984 0.00878906 0.402984V3.13125C0.711069 3.0329 1.40968 2.98198 2.08622 2.98202Z" />
<path d="M23.9977 8.57999L24 8.2642V7.40754C23.4813 7.60506 22.9163 7.92225 22.3326 8.4226C20.8656 9.68006 19.6929 14.1971 16.5522 14.2378C12.3582 14.2922 9.50424 9.62063 6.09178 7.87506C4.10987 6.86126 1.72654 6.79286 0 6.93172V8.57999L0.002325 8.2642C0.0520877 15.0676 5.40355 20.8833 12 20.8833C18.5965 20.8833 23.9479 15.3834 23.9977 8.57999Z" />
<path d="M6.28166 7.50383C7.57901 8.16743 8.80382 9.24358 9.98832 10.2843C11.9675 12.0232 14.014 13.8213 16.4796 13.8213C16.5018 13.8213 16.5246 13.8211 16.5468 13.8209C18.4325 13.7964 19.5622 11.8878 20.5589 10.2038C21.0811 9.32154 21.5321 8.55954 22.0613 8.10599C22.6273 7.62075 23.2297 7.25466 23.8516 7.01783L24 6.96133V3.68826C23.3228 3.80111 22.4891 4.13169 21.6088 4.94399C20.246 6.2014 19.1566 10.7185 16.239 10.7592C12.3429 10.8135 9.69173 6.14202 6.52171 4.39646C4.32064 3.18446 1.58677 3.32327 0 3.55257V6.51402C0.445163 6.47908 0.888317 6.46074 1.31747 6.46074C3.25841 6.46079 4.92859 6.81172 6.28166 7.50383Z" />
</g>
<defs>
<clipPath id="clip0_1693_21938">
<rect width="24" height="20.8834" fill="white"/>
</clipPath>
</defs>
</svg>
