<svg viewBox="0 0 9 15" width="" height="15" fill="#6B93C0" xmlns="http://www.w3.org/2000/svg">
<path d="M5.184 0.615999H4.304C3.936 0.615999 3.808 0.743999 3.808 1.112V1.896C1.712 2.168 0.672 3.352 0.672 5.048C0.672 7.624 2.816 8.024 4.608 8.216C5.84 8.328 6.88 8.504 6.88 9.512C6.88 10.504 6.112 10.92 4.672 10.92C3.504 10.92 2.848 10.44 2.512 9.576C2.336 9.16 2.16 9.08 1.76 9.224L0.976 9.512C0.576 9.656 0.464 9.864 0.608 10.248C1.104 11.592 2.16 12.504 3.808 12.712V13.528C3.808 13.896 3.936 14.024 4.304 14.024H5.184C5.552 14.024 5.664 13.896 5.664 13.528V12.696C7.76 12.392 8.896 11.192 8.896 9.464C8.896 6.776 6.752 6.472 4.976 6.296C3.776 6.168 2.72 5.992 2.72 5.048C2.72 4.12 3.344 3.736 4.704 3.736C5.856 3.736 6.352 4.2 6.752 4.968C6.96 5.368 7.136 5.416 7.504 5.256L8.288 4.904C8.72 4.712 8.8 4.504 8.608 4.12C8.016 2.888 7.184 2.12 5.664 1.896V1.112C5.664 0.743999 5.552 0.615999 5.184 0.615999Z" />
</svg>
