<svg  viewBox="0 0 20 20"  fill="#6B93C0" xmlns="http://www.w3.org/2000/svg">
<g >
<path d="M19.8076 9.53783L17.9028 7.63305C13.3919 3.1458 6.60619 3.14599 2.1205 7.63172L0.1949 9.53541C0.0706042 9.65842 0.000370638 9.8258 -5.90443e-05 10.0004C-0.000488727 10.1752 0.0686511 10.3429 0.192048 10.4665L2.09706 12.3715C4.34977 14.6124 7.17404 15.7327 9.99939 15.7327C12.8245 15.7327 15.6505 14.6117 17.9039 12.3699L19.8076 10.4663C19.9308 10.3433 19.9999 10.1763 19.9999 10.0022C19.9999 9.82798 19.9308 9.66103 19.8076 9.53783ZM16.9765 11.4404C12.9996 15.3975 7.00052 15.3971 3.0242 11.4418L1.58746 10.0048L3.04608 8.56276C7.00619 4.60265 12.9954 4.60285 16.9754 8.56276L18.4148 10.0021L16.9765 11.4404Z"/>
<path d="M9.99992 6.08533C7.84022 6.08533 6.08313 7.84242 6.08313 10.0021C6.08313 12.1618 7.84022 13.9189 9.99992 13.9189C12.1596 13.9189 13.9167 12.1618 13.9167 10.0021C13.9167 7.84242 12.1596 6.08533 9.99992 6.08533ZM9.99992 12.606C8.56404 12.606 7.39601 11.438 7.39601 10.0021C7.39601 8.56624 8.56404 7.39824 9.99992 7.39824C11.4358 7.39824 12.6036 8.56651 12.6036 10.0022C12.6036 11.4378 11.4358 12.606 9.99992 12.606Z" />
<path d="M10 8.20795V9.52086C10.27 9.52086 10.4814 9.73246 10.4814 10.0023C10.4814 10.2721 10.27 10.4837 10 10.4837C9.72997 10.4837 9.5186 10.2721 9.5186 10.0023H8.20569C8.20569 10.9915 9.01072 11.7965 9.99996 11.7965C10.9894 11.7965 11.7942 10.9917 11.7942 10.0023C11.7942 9.01278 10.9893 8.20795 10 8.20795Z" />
</g>
<defs>

<rect width="20" height="20" fill="white"/>

</defs>
</svg>
