<svg viewBox="0 0 13 14" fill="none" xmlns="http://www.w3.org/2000/svg">
<path d="M6.58485 9.0334L8.51602 12.0643L10.2999 11.0305L7.76374 7.03303L6.58485 9.0334Z" />
<path d="M11.9245 9.81474L11.9232 8.98643L9.15195 4.67008L8.12379 6.41464L10.7991 10.7414L11.7664 10.1809C11.8612 10.1038 11.9186 9.99074 11.9247 9.8687L11.9245 9.81474Z" />
<path d="M0.311567 10.5961L1.67753 11.3832L6.22311 4.09335L5.45162 4.07298C4.79432 4.06368 4.08627 4.23456 3.76124 4.76508L1.17994 8.76597L0.311523 10.1003L0.311567 10.5961Z" />
<path d="M8.84661 4.09317L6.81343 4.10056L2.21337 11.6915L3.82121 12.6172L4.25846 11.8757L8.84661 4.09317Z" />
<path d="M12.7813 4.08276C12.7643 3.65754 12.5341 3.26826 12.1734 3.04164L7.11872 0.134837C6.76198 -0.0448152 6.3163 -0.0450326 5.95899 0.134707C5.91676 0.155996 1.04338 2.98238 1.04338 2.98238C0.975955 3.01471 0.911001 3.05324 0.849872 3.09695C0.527931 3.3277 0.331683 3.68622 0.311523 4.08015V10.1003L1.17994 8.76597L1.17233 4.12086C1.17338 4.10387 1.17551 4.08719 1.1785 4.07068C1.1981 3.96137 1.25914 3.86387 1.35103 3.79801C1.37397 3.78158 6.33055 0.912534 6.34632 0.904627C6.46285 0.846104 6.61087 0.845496 6.72752 0.902845L11.7168 3.77276C11.8349 3.84793 11.9089 3.9754 11.9154 4.11473V9.86878C11.9094 9.99082 11.8612 10.1038 11.7664 10.1809L10.7991 10.7414L10.2999 11.0305L8.51602 12.0643L6.70684 13.1129C6.60939 13.1481 6.49547 13.1462 6.39885 13.1069L4.25846 11.8757L3.82121 12.6172L5.74471 13.7248C5.80832 13.761 5.86502 13.793 5.91151 13.8192C5.98354 13.8596 6.03259 13.8866 6.04993 13.8949C6.18666 13.9613 6.38334 14 6.5606 14C6.72314 14 6.88159 13.9702 7.03156 13.9114L12.2862 10.8683C12.5878 10.6346 12.7653 10.2822 12.7813 9.90045V4.08276Z" />
</svg>
