<svg  viewBox="0 0 14 14" fill="none" xmlns="http://www.w3.org/2000/svg">
<path d="M0.363586 0C0.322713 0 0.306738 0.0467179 0.332578 0.0725573C0.350959 0.164462 0.379919 0.245787 0.40728 0.322621C0.427457 0.379279 0.446764 0.433495 0.460318 0.487712C0.460318 0.583514 0.524187 0.647389 0.588058 0.647389C0.715756 0.647389 0.811557 0.679321 0.907363 0.711258C0.971232 0.711258 1.00317 0.679321 0.971232 0.615452C0.95119 0.535272 0.918562 0.455093 0.889148 0.38281C0.8717 0.339935 0.855383 0.299837 0.843494 0.264167C0.843494 0.200297 0.779625 0.104492 0.715756 0.104492C0.667845 0.0885152 0.611931 0.0725383 0.556017 0.0565613C0.500169 0.0406033 0.444321 0.0246452 0.396447 0.00868722C0.384256 0.00259993 0.373228 0 0.363586 0Z" />
<path d="M14 10.9618H11.126L9.05036 8.88615L8.37976 9.55669C8.44092 8.36429 8.18003 7.40606 7.5971 6.68202C7.54752 6.53146 7.48908 6.37204 7.42175 6.20375C7.41591 6.18042 7.40901 6.15815 7.40163 6.13733C7.21758 5.44525 7.03731 4.86991 6.8789 4.44743C6.81503 4.31969 6.75115 4.19195 6.71924 4.09614H7.13434L9.08227 6.01218L11.0302 4.09614H13.9042L10.5193 7.44917L10.7748 7.70461L14 10.9618Z" />
<path d="M7.41633 6.19283C7.41811 6.19644 7.41992 6.20008 7.42175 6.20375C7.4881 6.3696 7.53722 6.51824 7.57806 6.6586C7.5695 6.64816 7.56087 6.63777 7.55217 6.62744C7.53333 6.58112 7.51331 6.53362 7.49186 6.48495C7.46665 6.38548 7.44146 6.28808 7.41633 6.19283Z" />
<path d="M7.38612 6.25854C7.38734 6.26155 7.38856 6.26457 7.38978 6.26763C7.42723 6.3425 7.46102 6.41494 7.49186 6.48495C7.50042 6.51871 7.50898 6.55271 7.51753 6.58694C7.5292 6.60036 7.54074 6.61385 7.55217 6.62744C7.57368 6.68031 7.59365 6.73164 7.61243 6.78144C7.6355 6.86704 7.65635 6.95042 7.67719 7.03378L7.67725 7.1617L7.58141 7.06598C7.58141 7.05273 7.57593 7.034 7.56951 7.01207C7.56044 6.98107 7.5495 6.94369 7.5495 6.90632C7.52079 6.73419 7.46633 6.51053 7.38612 6.25854Z" />
<path d="M7.38355 6.25224C7.37554 6.22598 7.36699 6.1992 7.35787 6.17184C7.36762 6.20108 7.37704 6.22999 7.38612 6.25854C7.38527 6.25643 7.38441 6.25433 7.38355 6.25224Z" />
<path fill-rule="evenodd" clip-rule="evenodd" d="M7.294 6.17184C7.3352 6.31601 7.34983 6.46019 7.36359 6.59582C7.37115 6.67044 7.37846 6.74247 7.38978 6.81048C7.38978 6.87435 7.38978 6.93823 7.42175 6.93823L7.51753 7.03401V6.90632C7.48866 6.70401 7.45974 6.50176 7.38355 6.25224C7.32188 6.10183 7.26209 6.01218 7.26209 6.01218V6.13988C7.26209 6.33144 7.26209 6.49116 7.23012 6.65082V6.77857L7.32597 6.87435C7.32597 6.87435 7.35787 6.84244 7.35787 6.77857C7.35787 6.61099 7.33347 6.44342 7.30597 6.25454C7.30202 6.22743 7.29801 6.19989 7.294 6.17184ZM7.26209 6.01218C7.26209 6.01218 7.26209 6.076 7.294 6.17184C7.294 6.076 7.26209 6.01218 7.26209 6.01218Z" />
<path d="M7.69298 7.00314C7.66592 6.901 7.63396 6.79396 7.5971 6.68202C7.59079 6.67418 7.58445 6.66638 7.57806 6.6586C7.59017 6.7002 7.60155 6.74107 7.61243 6.78144C7.64171 6.85908 7.66811 6.93298 7.69298 7.00314Z" />
<path d="M7.77297 7.22558C7.75046 7.16551 7.72795 7.1019 7.70418 7.03477C7.70048 7.02431 7.69674 7.01377 7.69298 7.00314C7.69858 7.0243 7.70397 7.04524 7.70916 7.06598C7.7198 7.0979 7.72689 7.12627 7.7328 7.14992C7.74461 7.1972 7.75171 7.22558 7.77297 7.22558Z" />
<path d="M7.77297 7.22558L7.86882 7.32142C7.81667 7.37357 7.80709 7.34056 7.78794 7.27453C7.78363 7.25969 7.77884 7.24317 7.77297 7.22558Z" />
<path d="M7.41633 6.19283C7.35607 6.07058 7.32597 5.98022 7.32597 5.98022C7.32597 5.98022 7.3686 6.0442 7.40163 6.13733C7.40652 6.15575 7.41142 6.17425 7.41633 6.19283Z" />
<path d="M0 0.721414C0 0.682063 0.0225814 0.656742 0.0451629 0.679321C0.0970346 0.696613 0.148906 0.704542 0.205847 0.713247C0.254073 0.720619 0.305935 0.728547 0.364513 0.74319C0.428382 0.74319 0.492252 0.807018 0.492252 0.870888C0.505806 0.925101 0.525112 0.979316 0.545288 1.03597C0.57265 1.11281 0.601611 1.19414 0.61999 1.28604C0.651927 1.34991 0.61999 1.41378 0.556123 1.38185C0.508216 1.36588 0.460309 1.35789 0.412402 1.34991C0.364504 1.34192 0.316606 1.33394 0.268708 1.31798C0.204838 1.31798 0.172904 1.25411 0.140969 1.19024C0.124995 1.12635 0.101032 1.05446 0.0770718 0.982588C0.0531293 0.910766 0.0291896 0.838953 0.0132279 0.775128C0.00387436 0.756421 0 0.737714 0 0.721414Z" />
<path d="M4.484 11.9678C4.52389 12.0156 4.56378 12.0635 4.61165 12.1114C4.62759 12.0954 4.65153 12.0954 4.67548 12.0954C4.69942 12.0954 4.72337 12.0954 4.73934 12.0794C4.78725 12.0475 4.83515 12.0076 4.88306 11.9677C4.93096 11.9277 4.97885 11.8878 5.02675 11.8559C5.05869 11.824 5.05869 11.792 5.02675 11.7601C4.99353 11.7269 4.96416 11.6937 4.93596 11.6618C4.88282 11.6017 4.83386 11.5464 4.77128 11.5047C4.73934 11.4727 4.67547 11.4727 4.64354 11.5047C4.59568 11.5366 4.54781 11.5765 4.49994 11.6164C4.45202 11.6563 4.40409 11.6963 4.35616 11.7282C4.32423 11.7601 4.32423 11.792 4.35616 11.824C4.4041 11.8719 4.44405 11.9198 4.484 11.9678Z" />
<path d="M7.90072 8.51891C7.92467 8.54286 7.94862 8.5668 7.9646 8.59874V8.47099C7.9646 8.30398 7.9403 8.13693 7.91293 7.94872C7.90891 7.92105 7.90482 7.89292 7.90072 7.86427C7.90072 7.76848 7.86882 7.70461 7.86882 7.70461L7.77303 7.60883V7.70461C7.80494 7.89618 7.80494 8.0878 7.80494 8.27943C7.80494 8.3433 7.80494 8.40718 7.83685 8.43908C7.85283 8.47102 7.87678 8.49497 7.90072 8.51891Z" />
<path d="M7.67795 9.23813C7.74153 9.30178 7.80506 9.36536 7.83685 9.429C7.86271 9.48067 7.86765 9.46963 7.88549 9.42973C7.8897 9.42031 7.89463 9.40928 7.90072 9.39709C7.91666 9.31734 7.92464 9.23757 7.93262 9.15779C7.94061 9.07788 7.9486 8.99796 7.9646 8.91806C7.9646 8.85418 7.9646 8.79031 7.93263 8.7584L7.77303 8.59874C7.74112 8.56683 7.74112 8.59874 7.74112 8.66256L7.74043 8.66602C7.7087 8.82458 7.67702 8.98286 7.64528 9.10968C7.64528 9.17356 7.64528 9.23743 7.67725 9.23743L7.67795 9.23813Z" />
<path d="M7.45367 10.0357C7.51754 10.0996 7.58141 10.1635 7.64528 10.2593C7.64528 10.2593 7.67725 10.2273 7.67725 10.1954C7.6908 10.1412 7.71012 10.0869 7.7303 10.0302C7.75763 9.9534 7.78655 9.87212 7.80494 9.78028V9.65253C7.74125 9.58878 7.67719 9.52466 7.64528 9.46091C7.61337 9.429 7.58141 9.46091 7.58141 9.52478C7.56543 9.58874 7.54145 9.65269 7.51746 9.71664C7.49354 9.78043 7.46962 9.84421 7.45366 9.90798C7.43141 9.93027 7.44019 9.96807 7.44754 9.99974C7.45073 10.0135 7.45367 10.0261 7.45367 10.0357Z" />
<path d="M7.19603 10.7427C7.24186 10.7957 7.29242 10.8543 7.35787 10.898C7.35787 10.9617 7.38967 10.93 7.42158 10.8981C7.45351 10.8342 7.47763 10.7702 7.50158 10.7063C7.52552 10.6425 7.54947 10.5786 7.58141 10.5147C7.6037 10.4925 7.5949 10.4547 7.58754 10.423C7.58434 10.4093 7.58141 10.3967 7.58141 10.387C7.51754 10.3231 7.45365 10.2593 7.38978 10.1635C7.3579 10.1316 7.32602 10.1634 7.29409 10.1953C7.27758 10.2283 7.26099 10.2593 7.24504 10.2891C7.19925 10.3748 7.15801 10.4519 7.13434 10.5467C7.10237 10.5786 7.10237 10.6425 7.13434 10.6744C7.15457 10.6946 7.17479 10.7181 7.19603 10.7427Z" />
<path d="M6.4477 11.9836C6.48764 12.0235 6.52757 12.0635 6.55952 12.1114C6.55952 12.1433 6.6234 12.1433 6.65537 12.1114C6.68733 12.0634 6.72728 12.0155 6.76723 11.9676C6.80711 11.9197 6.84699 11.8718 6.8789 11.824C6.91081 11.792 6.91081 11.7282 6.8789 11.6963C6.84695 11.6484 6.80701 11.6084 6.76708 11.5685C6.72718 11.5286 6.68729 11.4887 6.65537 11.4408C6.6234 11.4088 6.59149 11.4088 6.55952 11.4408C6.52759 11.4887 6.48767 11.5366 6.44776 11.5845C6.40784 11.6324 6.36793 11.6803 6.33599 11.7282C6.30408 11.7601 6.30408 11.824 6.33599 11.8559C6.36791 11.9038 6.40781 11.9437 6.4477 11.9836Z" />
<path d="M5.94774 12.4332C6.0009 12.4933 6.04988 12.5487 6.11252 12.5904C6.11252 12.6543 6.14443 12.6543 6.17639 12.6223C6.2242 12.5745 6.26407 12.5266 6.30394 12.4788C6.3439 12.4308 6.38386 12.3829 6.43183 12.3349C6.46374 12.303 6.46374 12.2392 6.43183 12.2072C6.39991 12.1593 6.36 12.1194 6.32009 12.0795C6.28015 12.0396 6.24019 11.9996 6.20824 11.9517C6.17639 11.9198 6.14442 11.9198 6.11252 11.9517C6.07929 11.9849 6.0499 12.0181 6.02169 12.05C5.96855 12.1101 5.91959 12.1655 5.85702 12.2072C5.82508 12.2392 5.82508 12.303 5.85702 12.3349C5.8902 12.3681 5.91956 12.4013 5.94774 12.4332Z" />
<path d="M7.61339 8.1996C7.63733 8.22355 7.66127 8.2475 7.67725 8.27943C7.70916 8.27943 7.70916 8.24746 7.70916 8.18358V7.64073C7.70916 7.60331 7.6982 7.56589 7.68913 7.53489C7.68272 7.51298 7.67725 7.49429 7.67725 7.48108L7.58141 7.38529C7.58141 7.38529 7.5495 7.4172 7.5495 7.48108C7.5495 7.58126 7.54076 7.6727 7.53242 7.75998C7.52481 7.83964 7.51753 7.91583 7.51753 7.99202C7.51753 8.05583 7.51753 8.11971 7.5495 8.11971C7.56546 8.15166 7.58942 8.17563 7.61339 8.1996Z" />
<path d="M7.294 8.91806C7.35788 8.98194 7.42175 9.04581 7.45366 9.10968C7.5495 9.14159 7.58141 9.10968 7.58141 9.04581C7.59739 8.96598 7.61336 8.89413 7.62933 8.82228C7.6453 8.75042 7.66127 8.67857 7.67725 8.59874C7.67725 8.53487 7.67725 8.47099 7.64528 8.47099C7.62468 8.42978 7.59075 8.40186 7.55209 8.37004C7.53088 8.35259 7.50825 8.33396 7.48563 8.31133C7.46108 8.28683 7.45538 8.29996 7.43961 8.3363C7.43484 8.34728 7.42916 8.36038 7.42175 8.37521C7.38978 8.53487 7.35787 8.66256 7.294 8.79031L7.294 8.91806Z" />
<path d="M7.07047 9.65253L7.26209 9.84416C7.294 9.87607 7.32597 9.84416 7.32597 9.81219C7.38978 9.68444 7.42175 9.55669 7.45366 9.429V9.30131C7.38978 9.23743 7.32597 9.17356 7.294 9.10968C7.26209 9.07772 7.23012 9.10968 7.23012 9.14159C7.1982 9.20545 7.17426 9.2693 7.15032 9.33314C7.12637 9.39703 7.10241 9.46092 7.07047 9.52478C7.0385 9.55669 7.0385 9.62057 7.07047 9.65253Z" />
<path d="M6.78092 10.3275C6.82674 10.3806 6.87728 10.4391 6.94277 10.4828C6.94277 10.5147 7.00659 10.5147 7.00659 10.4828C7.03856 10.4189 7.07052 10.3629 7.10249 10.307C7.1344 10.2512 7.16631 10.1954 7.19822 10.1316C7.23012 10.0996 7.23012 10.0357 7.19822 10.0038C7.13434 9.93994 7.07047 9.87607 7.00659 9.78028C6.97474 9.74837 6.94289 9.78017 6.91098 9.81202C6.84711 9.93977 6.78312 10.0357 6.71924 10.1316C6.68727 10.1635 6.68727 10.2273 6.71924 10.2593C6.73947 10.2795 6.75969 10.3029 6.78092 10.3275Z" />
<path d="M6.41574 11.0255C6.45569 11.0655 6.49565 11.1054 6.52762 11.1534C6.54358 11.1374 6.55957 11.1294 6.57555 11.1214C6.59151 11.1134 6.60746 11.1055 6.6234 11.0895C6.64634 11.0551 6.6734 11.0207 6.70162 10.9848C6.75198 10.9208 6.80603 10.8521 6.84693 10.7702C6.8789 10.7383 6.8789 10.6744 6.84693 10.6425C6.82677 10.6223 6.80661 10.5989 6.78543 10.5744C6.73957 10.5212 6.68896 10.4626 6.6234 10.4189C6.59149 10.387 6.55952 10.387 6.52762 10.4508C6.50468 10.4852 6.47763 10.5196 6.44942 10.5555C6.39907 10.6196 6.34502 10.6883 6.30408 10.7702C6.27212 10.8022 6.27212 10.866 6.30408 10.898C6.33599 10.9458 6.37586 10.9856 6.41574 11.0255Z" />
<path d="M5.96873 11.5046C6.00866 11.5445 6.0486 11.5845 6.08055 11.6324C6.11252 11.6643 6.17639 11.6643 6.20824 11.6324C6.2402 11.5845 6.28017 11.5365 6.32013 11.4886C6.36003 11.4407 6.39992 11.3929 6.43183 11.345C6.46374 11.3131 6.46374 11.2492 6.43183 11.2173C6.39987 11.1693 6.35989 11.1293 6.31993 11.0894C6.28004 11.0495 6.24015 11.0096 6.20824 10.9618C6.17639 10.9299 6.14442 10.9299 6.11252 10.9618C6.06452 11.0098 6.02453 11.0577 5.98454 11.1057C5.94469 11.1535 5.90483 11.2014 5.85702 11.2492C5.82508 11.2811 5.82508 11.345 5.85702 11.3769C5.88894 11.4248 5.92883 11.4647 5.96873 11.5046Z" />
<path d="M5.50072 11.9542C5.55386 12.0143 5.60282 12.0697 5.66541 12.1114C5.63348 12.1433 5.69735 12.1753 5.72928 12.1433C5.76249 12.1101 5.7957 12.0807 5.82757 12.0526C5.88767 11.9994 5.94303 11.9505 5.98477 11.8879C6.01667 11.8559 6.01667 11.792 5.98477 11.7601C5.95283 11.7122 5.91291 11.6723 5.87299 11.6324C5.83307 11.5925 5.79315 11.5526 5.76122 11.5047C5.72928 11.4727 5.69735 11.4727 5.66541 11.5047C5.63221 11.5379 5.59902 11.5672 5.56715 11.5954C5.50705 11.6486 5.45169 11.6975 5.40997 11.7601C5.37804 11.792 5.37804 11.824 5.40997 11.8559C5.44317 11.8891 5.47253 11.9223 5.50072 11.9542Z" />
<path d="M7.32597 7.97606C7.3499 8 7.37384 8.02394 7.38978 8.05583C7.43965 8.03092 7.45059 8.00601 7.4682 7.96588C7.47314 7.95461 7.47862 7.94215 7.48563 7.92814C7.51753 7.76848 7.51753 7.60883 7.51753 7.44917C7.51753 7.38529 7.51753 7.32142 7.48563 7.32142L7.38978 7.22558C7.38978 7.22558 7.35787 7.25754 7.35787 7.32142C7.32597 7.48108 7.294 7.64073 7.26209 7.76848V7.89618C7.27805 7.92813 7.30201 7.9521 7.32597 7.97606Z" />
<path d="M7.00659 8.59874C7.07047 8.66256 7.13434 8.72643 7.16625 8.79031C7.23012 8.79031 7.26209 8.79031 7.26209 8.72643C7.27563 8.67224 7.29493 8.61804 7.3151 8.56139C7.34246 8.48456 7.37142 8.40323 7.38978 8.31133V8.18358L7.23012 8.02393C7.20564 7.99944 7.19994 8.01254 7.18417 8.04883C7.17939 8.05982 7.17368 8.07295 7.16625 8.0878C7.13434 8.21555 7.07047 8.3433 7.00659 8.47099C6.97468 8.50296 6.97468 8.56683 7.00659 8.59874Z" />
<path d="M6.71924 9.26934C6.78312 9.33322 6.84693 9.39709 6.91081 9.49288L6.97468 9.429C6.99119 9.39598 7.00769 9.36509 7.02365 9.33522C7.0694 9.2496 7.11064 9.17243 7.13434 9.07772C7.16625 9.04581 7.16625 8.98193 7.13434 8.95003C7.07047 8.88615 7.00659 8.82228 6.97468 8.7584C6.94277 8.72643 6.91081 8.7584 6.91081 8.79031C6.87887 8.85418 6.84695 8.91007 6.81502 8.96595C6.7831 9.02183 6.75118 9.07772 6.71924 9.14159C6.68727 9.17356 6.68727 9.23743 6.71924 9.26934Z" />
<path d="M6.36577 9.94431C6.41161 9.9974 6.46216 10.056 6.52762 10.0996C6.55952 10.0996 6.59149 10.0996 6.6234 10.0677C6.65534 10.0198 6.68727 9.96389 6.71921 9.908C6.75115 9.85212 6.78309 9.79624 6.81503 9.74832C6.84693 9.71641 6.84693 9.65253 6.81503 9.62057C6.75127 9.55681 6.68715 9.49269 6.6234 9.39709C6.59149 9.36513 6.55952 9.39709 6.52762 9.429C6.51004 9.45536 6.49246 9.48413 6.47422 9.514C6.42617 9.59267 6.37351 9.67889 6.30408 9.74832C6.27212 9.78028 6.27212 9.84416 6.30408 9.87607C6.32431 9.89629 6.34453 9.91972 6.36577 9.94431Z" />
<path d="M6.00073 10.5466C6.04065 10.5866 6.08058 10.6265 6.11252 10.6744C6.14442 10.6744 6.17639 10.6744 6.20824 10.6425C6.24018 10.5946 6.28011 10.5467 6.32004 10.4987C6.35997 10.4508 6.3999 10.4029 6.43183 10.355C6.46374 10.3231 6.46374 10.2593 6.43183 10.2273L6.20824 10.0038C6.17639 9.97185 6.14442 9.97185 6.11252 10.0038C6.08061 10.0517 6.04072 10.0995 6.00084 10.1474C5.96088 10.1953 5.92092 10.2432 5.88898 10.2912C5.85702 10.3231 5.85702 10.387 5.88898 10.4189C5.92089 10.4668 5.96081 10.5067 6.00073 10.5466Z" />
<path d="M5.55369 10.9938C5.59359 11.0337 5.63349 11.0736 5.66541 11.1214C5.69735 11.1853 5.72928 11.1853 5.76122 11.1534C5.80913 11.1055 5.84906 11.0576 5.88899 11.0096C5.92889 10.9618 5.9688 10.9139 6.01667 10.866C6.04864 10.8341 6.04864 10.7702 6.01667 10.7383C5.98472 10.6904 5.94479 10.6504 5.90486 10.6105C5.86496 10.5706 5.82507 10.5307 5.79315 10.4828C5.76122 10.4508 5.72928 10.4508 5.69735 10.4828C5.6641 10.516 5.63471 10.5493 5.60649 10.5812C5.55337 10.6412 5.50443 10.6966 5.44186 10.7383C5.40997 10.7702 5.40997 10.8341 5.44186 10.866C5.47381 10.9139 5.51375 10.9539 5.55369 10.9938Z" />
<path d="M7.13435 7.65675C7.15829 7.6807 7.18224 7.70465 7.19822 7.73658C7.19822 7.73658 7.23012 7.73658 7.23012 7.6727C7.26186 7.54587 7.29354 7.38759 7.32527 7.22903L7.32597 7.22558V7.09788L7.23012 7.0021C7.23012 7.0021 7.19822 7.03401 7.19822 7.06598C7.18225 7.12974 7.15833 7.19352 7.13441 7.25731C7.11043 7.32126 7.08644 7.38521 7.07047 7.44917C7.0385 7.48108 7.0385 7.54495 7.07047 7.57686C7.08643 7.60881 7.11039 7.63278 7.13435 7.65675Z" />
<path d="M6.71924 8.24746C6.78312 8.31133 6.84693 8.37521 6.8789 8.43908C6.91081 8.47099 6.94277 8.43908 6.97468 8.40718C7.00656 8.34336 7.03049 8.27954 7.05442 8.21573C7.0784 8.15179 7.10237 8.08786 7.13434 8.02393C7.15659 8.00168 7.14782 7.9639 7.14046 7.93223C7.13727 7.91847 7.13434 7.90586 7.13434 7.89618L6.97468 7.73658C6.95213 7.71398 6.94552 7.72333 6.93229 7.74201C6.92681 7.74977 6.92018 7.75913 6.91081 7.76848C6.87887 7.83233 6.84695 7.88821 6.81502 7.9441C6.7831 7.99998 6.75118 8.05586 6.71924 8.11971C6.68727 8.15168 6.68727 8.21555 6.71924 8.24746Z" />
<path d="M6.33599 8.85418C6.39987 8.91806 6.46374 8.98193 6.52762 9.07772C6.55952 9.10968 6.59149 9.07772 6.6234 9.04581C6.68727 8.95003 6.75115 8.82228 6.81503 8.69453C6.84693 8.66256 6.84693 8.59874 6.81503 8.56683C6.75115 8.50296 6.68727 8.43908 6.65537 8.37521C6.6234 8.3433 6.59149 8.37521 6.55952 8.40718C6.54195 8.43352 6.52439 8.46228 6.50616 8.49213C6.45812 8.57079 6.40547 8.657 6.33599 8.72643C6.30408 8.7584 6.30408 8.82228 6.33599 8.85418Z" />
<path d="M6.01454 9.46535C6.06036 9.51841 6.11092 9.57693 6.17639 9.62057C6.14443 9.68444 6.20824 9.68444 6.24021 9.62057C6.30408 9.52478 6.36796 9.429 6.46374 9.30131C6.49565 9.26934 6.49565 9.20547 6.46374 9.17356C6.39987 9.10968 6.33599 9.04581 6.27212 8.95003C6.24021 8.91806 6.20824 8.91806 6.17639 8.98193C6.14445 9.02983 6.10452 9.07773 6.0646 9.12564C6.02467 9.17354 5.98474 9.22145 5.9528 9.26934C5.92089 9.30131 5.92089 9.36513 5.9528 9.39709C5.97304 9.41731 5.99328 9.44075 6.01454 9.46535Z" />
<path d="M5.55364 10.0677C5.59356 10.1076 5.63347 10.1475 5.66541 10.1954C5.72928 10.2273 5.76122 10.1954 5.79315 10.1635C5.88869 10.068 5.95241 9.97243 6.01609 9.87694L6.01667 9.87607C6.04864 9.84416 6.04864 9.78028 6.01667 9.74832C5.99645 9.72809 5.97623 9.70466 5.95499 9.68007C5.90917 9.62698 5.85864 9.56843 5.79315 9.52478C5.76122 9.49287 5.72928 9.49287 5.69735 9.52478C5.64944 9.57268 5.60952 9.62058 5.56961 9.66849C5.52969 9.71639 5.48977 9.7643 5.44186 9.81219C5.40997 9.84416 5.40997 9.90798 5.44186 9.93994C5.4738 9.98783 5.51372 10.0277 5.55364 10.0677Z" />
<path d="M5.10659 10.5147C5.14651 10.5546 5.18643 10.5946 5.21837 10.6425C5.2503 10.7063 5.28223 10.7063 5.31417 10.6744C5.34732 10.6412 5.37664 10.6081 5.40479 10.5762C5.45797 10.5161 5.50696 10.4607 5.56961 10.4189C5.60154 10.387 5.60154 10.3231 5.56961 10.2912C5.53771 10.2434 5.49785 10.2035 5.45799 10.1636C5.41803 10.1237 5.37806 10.0837 5.3461 10.0357C5.31417 10.0038 5.28224 10.0038 5.2503 10.0357L4.99482 10.2912C4.96288 10.3231 4.96288 10.355 4.99482 10.387C5.02675 10.4349 5.06667 10.4748 5.10659 10.5147Z" />
<path d="M4.57474 10.9324C4.62785 10.9925 4.67678 11.0478 4.73934 11.0895C4.73934 11.1853 4.77128 11.1853 4.80321 11.1534C4.8512 11.1054 4.89919 11.0654 4.94718 11.0254C4.995 10.9856 5.04281 10.9457 5.09063 10.898C5.12256 10.866 5.12256 10.8022 5.09063 10.7702C5.05871 10.7223 5.01881 10.6824 4.97891 10.6425C4.93897 10.6026 4.89903 10.5626 4.86708 10.5147C4.83514 10.4828 4.80321 10.4828 4.77128 10.5147C4.72337 10.5466 4.67548 10.5866 4.62759 10.6265C4.5797 10.6664 4.53181 10.7064 4.4839 10.7383C4.45197 10.7702 4.45197 10.8021 4.4839 10.8341C4.51714 10.8673 4.54653 10.9005 4.57474 10.9324Z" />
<path d="M5.53767 13.0694C5.60154 13.1333 5.63348 13.1333 5.66541 13.1013C5.71325 13.0535 5.7611 13.0136 5.80894 12.9737C5.85689 12.9338 5.90485 12.8938 5.9528 12.8458C5.98477 12.8139 5.98477 12.75 5.9528 12.7181C5.91965 12.685 5.89032 12.6518 5.86217 12.62C5.80899 12.5598 5.76 12.5045 5.69735 12.4627C5.66541 12.4307 5.63348 12.4307 5.56961 12.4627C5.4738 12.5584 5.37804 12.6223 5.28223 12.6862C5.2503 12.7181 5.2503 12.75 5.28223 12.782C5.33017 12.8299 5.37011 12.8779 5.41004 12.9258C5.44992 12.9737 5.4898 13.0215 5.53767 13.0694Z" />
<path d="M6.43183 4.76673C6.39987 4.70291 6.46374 4.70291 6.52762 4.76673C6.67383 4.88372 6.79328 5.02748 6.93498 5.19802C6.94801 5.21371 6.96123 5.22962 6.97468 5.24576C7.01545 5.30696 7.12142 5.55061 7.19265 5.71863C7.21462 5.78103 7.23228 5.83132 7.24429 5.86556C7.22087 5.83988 7.17761 5.78964 7.13434 5.72474C7.07993 5.67032 7.02922 5.6159 6.97969 5.56275C6.88389 5.45996 6.79252 5.3619 6.68727 5.2777C6.64983 5.24025 6.61238 5.19183 6.58137 5.15173C6.55949 5.12344 6.54082 5.0993 6.52762 5.08608C6.51158 5.03803 6.49556 4.98194 6.47955 4.92587C6.46364 4.87016 6.44774 4.81448 6.43183 4.76673Z" />
<path fill-rule="evenodd" clip-rule="evenodd" d="M7.24486 5.86618C7.24467 5.86597 7.24448 5.86577 7.24429 5.86556C7.25577 5.89827 7.26209 5.91634 7.26209 5.91634C7.26209 5.91634 7.25629 5.89893 7.24561 5.867C7.25597 5.87831 7.26209 5.88443 7.26209 5.88443C7.26209 5.88443 7.24029 5.8315 7.20836 5.75577C7.1836 5.68196 7.15137 5.58607 7.11397 5.47525C7.20602 5.68543 7.294 5.91634 7.294 5.91634C7.294 5.91634 7.10374 5.37478 6.95111 4.99523C6.71566 4.30523 6.42354 3.46774 6.36796 3.39362C6.17639 3.13818 6.01667 2.94657 5.85702 2.7869C5.79315 2.72303 5.72928 2.69109 5.79315 2.7869C5.80909 2.83473 5.82503 2.89051 5.84098 2.94631C5.85698 3.00228 5.87297 3.05827 5.88898 3.10625C5.92089 3.17007 5.98477 3.26588 6.04864 3.32975C6.09617 3.38916 6.15254 3.45299 6.21281 3.52125C6.31453 3.63643 6.42736 3.76421 6.52762 3.90458C6.54577 3.9318 6.61295 4.1061 6.69982 4.34166C6.63415 4.17389 6.58235 4.05509 6.55952 4.03227C6.39987 3.80878 6.24021 3.61716 6.08055 3.45749C6.01668 3.39362 5.9528 3.36169 5.98477 3.45749L5.98529 3.45906C6.01703 3.55435 6.04882 3.6498 6.08055 3.77684C6.11252 3.84071 6.17639 3.93647 6.24021 4.00034C6.39969 4.12794 6.55917 4.31927 6.71872 4.51067L6.71924 4.5113C6.73562 4.52768 6.76227 4.57954 6.7952 4.65428C6.79075 4.64775 6.78671 4.64263 6.78312 4.63904L6.78264 4.63847C6.62308 4.44704 6.46358 4.25569 6.30408 4.12808C6.24021 4.06421 6.17639 4.03227 6.24021 4.12808C6.25616 4.17598 6.27213 4.23187 6.2881 4.28775C6.30407 4.34364 6.32004 4.39953 6.33599 4.44743C6.36796 4.5113 6.43183 4.6071 6.49565 4.67097C6.6234 4.79867 6.78312 4.95835 6.94277 5.14995C6.97532 5.18252 7.02632 5.28152 7.07948 5.39801C7.12314 5.52133 7.16207 5.63173 7.19265 5.71863C7.19458 5.72318 7.19648 5.72767 7.19836 5.7321C7.21787 5.78805 7.23381 5.83411 7.24486 5.86618ZM7.08293 5.40559C7.08178 5.40306 7.08063 5.40053 7.07948 5.39801C7.06666 5.36179 7.05342 5.32445 7.03987 5.28626C7.0545 5.32655 7.06891 5.3665 7.08293 5.40559ZM7.08293 5.40559C7.08754 5.41574 7.09216 5.42601 7.09679 5.43638C7.13791 5.55447 7.17421 5.65968 7.20224 5.74127C7.20096 5.73824 7.19966 5.73519 7.19836 5.7321C7.16724 5.64288 7.12701 5.52851 7.08293 5.40559ZM7.20224 5.74127C7.20431 5.74619 7.20635 5.75102 7.20836 5.75577C7.22392 5.80217 7.23653 5.83984 7.24561 5.867C7.24544 5.86682 7.24503 5.86637 7.24486 5.86618C7.23459 5.83609 7.22024 5.79368 7.20224 5.74127ZM7.03987 5.28626C6.95469 5.0517 6.86202 4.80591 6.7952 4.65428C6.81074 4.67706 6.83129 4.717 6.85519 4.76901C6.91773 4.94286 6.98172 5.12235 7.03987 5.28626ZM6.85519 4.76901C6.80071 4.6176 6.74732 4.47047 6.69982 4.34166C6.75351 4.4788 6.81647 4.64867 6.88046 4.82559C6.8717 4.80548 6.86325 4.78656 6.85519 4.76901ZM6.88046 4.82559C6.90235 4.8758 6.92623 4.93336 6.95111 4.99523C7.01059 5.16955 7.06645 5.33445 7.11397 5.47525C7.10825 5.46219 7.10252 5.44921 7.09679 5.43638C7.03216 5.25078 6.9556 5.03332 6.88046 4.82559ZM7.24486 5.86618C7.24478 5.8661 7.24494 5.86627 7.24486 5.86618Z" />
<path d="M5.66541 4.16001C5.63348 4.12808 5.69735 4.09614 5.76122 4.16001L6.14443 4.44743C6.18175 4.48478 6.21909 4.53306 6.25006 4.57309C6.27204 4.60151 6.29081 4.62578 6.30408 4.63904C6.33599 4.76674 6.36796 4.86254 6.43183 4.99028C6.46374 5.05415 6.39987 5.05415 6.33599 4.99028L5.9528 4.70291C5.88898 4.67097 5.82509 4.57517 5.79315 4.5113C5.76122 4.38356 5.72928 4.28776 5.66541 4.16001Z" />
<path d="M4.99482 3.7449C4.93095 3.68103 4.96288 3.6491 5.02675 3.68103C5.09062 3.71297 5.14651 3.75289 5.2024 3.7928C5.25828 3.83272 5.31417 3.87264 5.37804 3.90458C5.44186 3.93647 5.50573 4.03227 5.53767 4.09614C5.56961 4.22388 5.60154 4.31969 5.66541 4.44743C5.69735 4.5113 5.66541 4.5113 5.60154 4.47936C5.504 4.4306 5.40649 4.36321 5.32318 4.30564C5.29739 4.28781 5.27295 4.27092 5.2503 4.25582C5.18643 4.22388 5.12256 4.16001 5.12256 4.09614C5.09063 3.96841 5.05869 3.87265 4.99482 3.7449Z" />
<path d="M5.40997 3.48942C5.40997 3.42556 5.44186 3.39362 5.50573 3.45749C5.63348 3.55329 5.76122 3.6491 5.88898 3.77684C5.92631 3.81419 5.96365 3.86245 5.99462 3.90248C6.0166 3.93089 6.03537 3.95515 6.04864 3.96841C6.08055 4.09614 6.11252 4.19195 6.17639 4.31969C6.20824 4.38356 6.14443 4.38356 6.08055 4.31969L5.69735 4.03227C5.63348 4.00034 5.56961 3.90458 5.53767 3.84071C5.50573 3.71297 5.4738 3.61716 5.40997 3.48942Z" />
<path d="M4.77128 3.04238C4.70741 2.97851 4.73934 2.94657 4.80321 2.97851C4.86705 3.01043 4.92292 3.05033 4.97878 3.09022C5.03469 3.13015 5.0906 3.17008 5.1545 3.20201C5.21837 3.23394 5.28223 3.32975 5.31417 3.39362C5.3461 3.52136 5.37804 3.61716 5.44186 3.7449C5.4738 3.80878 5.44186 3.80878 5.37804 3.77684C5.28046 3.72805 5.18288 3.66063 5.09954 3.60304C5.07378 3.58524 5.04937 3.56837 5.02675 3.55329C4.96288 3.52136 4.89901 3.45749 4.89901 3.39362C4.86708 3.26588 4.83514 3.17007 4.77128 3.04238Z" />
<path d="M5.18643 2.75496C5.18643 2.72303 5.21837 2.72303 5.28223 2.75496C5.40997 2.85077 5.53767 2.94657 5.66541 3.07431C5.70283 3.11173 5.74025 3.1601 5.77125 3.20016C5.79316 3.22848 5.81186 3.25265 5.82508 3.26588C5.85702 3.39362 5.88898 3.48942 5.9528 3.61716C5.98477 3.68103 5.92089 3.68103 5.85702 3.61716C5.79315 3.56926 5.72929 3.51338 5.66543 3.4575C5.60155 3.40161 5.53768 3.34572 5.4738 3.29782C5.40997 3.26588 5.3461 3.17007 5.31417 3.10625C5.28223 2.97851 5.2503 2.8827 5.18643 2.75496Z" />
<path d="M4.96288 2.08437C4.96288 2.05244 4.99482 2.0205 5.05869 2.08437C5.12255 2.13227 5.18642 2.18815 5.25028 2.24403C5.31415 2.29991 5.37801 2.35579 5.44186 2.40368C5.47928 2.4411 5.5167 2.48948 5.5477 2.52956C5.56961 2.55789 5.58832 2.58207 5.60154 2.59529C5.60908 2.61792 5.61663 2.64233 5.62459 2.6681C5.65034 2.75144 5.6805 2.84901 5.72928 2.94657C5.76122 3.01044 5.69735 3.01044 5.63348 2.94657C5.5696 2.89867 5.50575 2.84278 5.44189 2.7869C5.37803 2.73101 5.31417 2.67513 5.2503 2.62722C5.18643 2.56335 5.12256 2.49948 5.09063 2.43562C5.05869 2.30792 5.02675 2.21211 4.96288 2.08437Z" />
<path d="M4.26036 1.66922C4.22843 1.57341 4.26036 1.57341 4.32423 1.60535C4.4219 1.65419 4.51958 1.72169 4.60295 1.77932C4.62862 1.79706 4.65293 1.81386 4.67547 1.82889C4.73934 1.86083 4.80321 1.95663 4.83514 2.0205C4.86708 2.14824 4.89901 2.24405 4.96288 2.37175C4.99482 2.43561 4.96288 2.43562 4.89901 2.40368C4.81891 2.34363 4.7388 2.29611 4.66658 2.25328C4.62364 2.22781 4.58348 2.204 4.54777 2.18018C4.50184 2.15721 4.4559 2.1012 4.42185 2.05968C4.40855 2.04347 4.39707 2.02947 4.3881 2.0205C4.35616 1.89277 4.32423 1.79696 4.26036 1.66922Z" />
<path d="M4.32423 3.36169C4.26036 3.32975 4.29229 3.29782 4.35616 3.32975C4.42 3.36167 4.47587 3.38561 4.53172 3.40955C4.58763 3.43352 4.64353 3.45747 4.70741 3.48942C4.77128 3.52136 4.83514 3.58523 4.86708 3.6491C4.89901 3.77684 4.93095 3.87265 4.99482 4.00034C5.02675 4.06421 4.99482 4.06421 4.93095 4.03227C4.86703 4.00032 4.81111 3.97635 4.75519 3.95239C4.69935 3.92846 4.64351 3.90453 4.57971 3.87265C4.51584 3.84071 4.45197 3.77684 4.45197 3.71297C4.42003 3.58523 4.3881 3.48942 4.32423 3.36169Z" />
<path d="M4.06875 2.65916C4.03681 2.62722 4.06875 2.59529 4.10069 2.62722C4.16456 2.65916 4.22045 2.68311 4.27634 2.70707C4.33222 2.73102 4.3881 2.75497 4.45197 2.7869C4.51584 2.81884 4.57971 2.88271 4.61165 2.94657C4.64354 3.07431 4.67547 3.17007 4.73934 3.29782C4.77128 3.36169 4.73934 3.36169 4.67547 3.32975C4.64251 3.31326 4.61167 3.29677 4.58186 3.28084C4.49618 3.23503 4.419 3.19377 4.32423 3.17007C4.26036 3.13818 4.19649 3.07431 4.19649 3.01044C4.16456 2.88271 4.13262 2.7869 4.06875 2.65916Z" />
<path d="M3.81331 1.98857C3.78138 1.9247 3.81331 1.89277 3.87714 1.9247C3.91014 1.9412 3.94101 1.9577 3.97085 1.97365C4.05651 2.01943 4.13369 2.06069 4.22843 2.08437C4.27436 2.10734 4.3203 2.16335 4.35435 2.20487C4.36765 2.22108 4.37913 2.23508 4.3881 2.24405C4.42003 2.37175 4.45197 2.46755 4.51584 2.59529C4.54777 2.65916 4.51584 2.65916 4.45197 2.62722C4.41896 2.61072 4.38809 2.59422 4.35824 2.57826C4.27258 2.53248 4.19542 2.49123 4.10069 2.46755C4.03681 2.43562 3.97294 2.37175 3.97294 2.30792C3.88871 2.22368 3.85385 2.11475 3.82498 2.02455C3.82102 2.01217 3.81716 2.00013 3.81331 1.98857Z" />
<path d="M3.58977 1.25411C3.55783 1.22217 3.58977 1.19024 3.65364 1.22217C3.71752 1.25411 3.7734 1.28605 3.82929 1.31799C3.88515 1.34992 3.94102 1.38185 4.00488 1.41378C4.05078 1.43673 4.09669 1.49268 4.13074 1.53417C4.14406 1.55041 4.15557 1.56444 4.16456 1.57341C4.19649 1.70115 4.22843 1.79696 4.29229 1.9247C4.32423 1.98857 4.29229 1.98857 4.22843 1.95663C4.06875 1.89277 3.94101 1.82889 3.8452 1.76502C3.78138 1.73309 3.71751 1.66922 3.71751 1.60535C3.68558 1.47765 3.65364 1.38185 3.58977 1.25411Z" />
<path d="M3.58977 3.10625C3.55783 3.04238 3.58977 3.01044 3.65364 3.04238C3.70149 3.05833 3.7573 3.08225 3.81312 3.10617C3.86905 3.13014 3.92499 3.15411 3.97294 3.17007C4.03681 3.20201 4.10069 3.26588 4.10069 3.32975C4.13262 3.45749 4.16456 3.55329 4.22843 3.68103C4.26036 3.7449 4.22843 3.77684 4.16456 3.7449C4.11662 3.72892 4.06069 3.70495 4.00477 3.68098C3.94893 3.65705 3.8931 3.63312 3.84525 3.61716C3.78138 3.58523 3.71751 3.52136 3.71751 3.45749C3.68558 3.32975 3.65364 3.23394 3.58977 3.10625Z" />
<path d="M2.95111 2.91464C2.95111 2.81884 2.95111 2.7869 3.01498 2.81884C3.06289 2.83481 3.1188 2.85079 3.17471 2.86676C3.23056 2.88272 3.28641 2.89868 3.33429 2.91464C3.39816 2.94657 3.46203 3.01044 3.46203 3.07431C3.47799 3.13815 3.50194 3.19402 3.52589 3.2499C3.54984 3.30579 3.5738 3.36168 3.58977 3.42556C3.62171 3.48942 3.58977 3.52136 3.5259 3.48942C3.478 3.47346 3.42211 3.45749 3.36622 3.44152C3.31034 3.42555 3.25445 3.40959 3.20655 3.39362C3.14268 3.36169 3.07881 3.32975 3.07881 3.26588C3.05878 3.18569 3.02615 3.10549 2.99673 3.03319C2.9793 2.99035 2.963 2.95028 2.95111 2.91464Z" />
<path d="M2.34435 2.72303C2.31241 2.65916 2.34435 2.62722 2.40822 2.62722C2.45612 2.64319 2.51201 2.65916 2.56789 2.67513C2.62378 2.69109 2.67967 2.70706 2.72757 2.72303C2.79144 2.72303 2.85531 2.7869 2.85531 2.85077C2.87537 2.93099 2.90802 3.01122 2.93744 3.08352C2.95487 3.12635 2.97117 3.16639 2.98305 3.20201C3.01498 3.26588 2.98305 3.29782 2.91918 3.29782C2.82337 3.26588 2.69564 3.23394 2.59983 3.23394C2.53596 3.23394 2.47209 3.17007 2.47209 3.10625C2.45612 3.04238 2.43217 2.9785 2.40822 2.91463C2.38427 2.85076 2.36031 2.7869 2.34435 2.72303Z" />
<path d="M1.76956 2.59529C1.7057 2.53142 1.73763 2.49948 1.8015 2.49948C1.85336 2.51677 1.90522 2.5247 1.96215 2.5334C2.01039 2.54077 2.06226 2.5487 2.12085 2.56335C2.18472 2.56335 2.24859 2.62722 2.24859 2.69109C2.26454 2.75501 2.28851 2.81893 2.31247 2.88285C2.3364 2.94667 2.36033 3.01049 2.37628 3.07431C2.40822 3.13818 2.37628 3.17007 2.31241 3.17007C2.26456 3.15414 2.21669 3.14616 2.16882 3.13819C2.1209 3.13021 2.07297 3.12222 2.02504 3.10625C1.96118 3.10625 1.92924 3.04239 1.89731 2.97851C1.88134 2.91465 1.85739 2.85078 1.83344 2.78692C1.80949 2.72304 1.78553 2.65917 1.76956 2.59529Z" />
<path d="M2.69564 2.21211C2.69564 2.08437 2.72757 2.05244 2.7595 2.08437C2.77796 2.09052 2.79759 2.09667 2.81796 2.10305C2.90333 2.12979 3.00149 2.16054 3.07881 2.21211C3.14268 2.24405 3.20655 2.30792 3.20655 2.37175C3.22252 2.43561 3.24647 2.49149 3.27041 2.54738C3.29437 2.60327 3.31832 2.65916 3.33429 2.72303C3.36622 2.7869 3.33429 2.81884 3.27042 2.7869C3.22251 2.77093 3.16663 2.75496 3.11075 2.73899C3.05488 2.72302 2.99901 2.70706 2.95111 2.69109C2.88724 2.65916 2.82337 2.59529 2.82337 2.56335C2.80333 2.48319 2.77071 2.40304 2.7413 2.33077C2.72385 2.28789 2.70753 2.24779 2.69564 2.21211Z" />
<path d="M2.08891 1.95663C2.05698 1.89277 2.08891 1.86083 2.15279 1.89277C2.20069 1.90873 2.25657 1.9247 2.31245 1.94067C2.36832 1.95664 2.42419 1.9726 2.47209 1.98857C2.53596 2.0205 2.59983 2.08437 2.59983 2.11631C2.61987 2.19648 2.6525 2.27664 2.68191 2.3489C2.69936 2.39177 2.71568 2.43187 2.72757 2.46755C2.7595 2.53142 2.72757 2.56335 2.6637 2.56335C2.61579 2.54738 2.55991 2.53142 2.50402 2.51545C2.44814 2.49948 2.39225 2.48352 2.34435 2.46755C2.28052 2.46755 2.21665 2.40368 2.21665 2.33986C2.20069 2.27598 2.17673 2.21211 2.15278 2.14824C2.12883 2.08437 2.10488 2.0205 2.08891 1.95663Z" />
<path d="M3.11075 1.66922C3.07881 1.60535 3.11075 1.57341 3.17462 1.60535C3.22252 1.62132 3.27842 1.64527 3.33432 1.66923C3.39019 1.69318 3.44607 1.71712 3.49396 1.73309C3.55783 1.76502 3.62171 1.8289 3.62171 1.89277C3.65364 2.0205 3.68558 2.11631 3.74944 2.24405C3.78138 2.30792 3.74944 2.33986 3.68558 2.30792C3.60821 2.25634 3.51002 2.22559 3.42464 2.19885C3.40429 2.19247 3.38467 2.18633 3.36622 2.18018C3.30235 2.14824 3.23849 2.08437 3.23849 2.0205C3.20655 1.89277 3.17462 1.79696 3.11075 1.66922Z" />
<path d="M2.47209 1.41378C2.44015 1.34991 2.47209 1.31798 2.53596 1.34991C2.55441 1.35606 2.57405 1.36221 2.59441 1.36859C2.67978 1.39533 2.77796 1.42608 2.85531 1.47765C2.91918 1.50959 2.98305 1.57341 2.98305 1.63728C3.01498 1.76502 3.04692 1.86083 3.11075 1.98857C3.14268 2.05244 3.11075 2.08437 3.04692 2.05244C3.02848 2.04629 3.00885 2.04014 2.9885 2.03377C2.90312 2.00703 2.80493 1.97627 2.72757 1.9247C2.6637 1.89277 2.59983 1.82889 2.59983 1.76502C2.57978 1.68485 2.54716 1.6047 2.51775 1.53243C2.5003 1.48956 2.48398 1.44946 2.47209 1.41378Z" />
<path d="M1.83343 1.19024C1.8015 1.1583 1.83343 1.12637 1.8973 1.12637C1.94521 1.14234 2.00109 1.1583 2.05698 1.17427C2.11287 1.19024 2.16875 1.20621 2.21665 1.22217C2.28048 1.25411 2.34435 1.31798 2.34435 1.38185C2.36439 1.46202 2.39702 1.54218 2.42643 1.61445C2.44388 1.65732 2.4602 1.69742 2.47209 1.73309C2.50402 1.79696 2.47209 1.82889 2.40822 1.79696C2.36032 1.78099 2.30444 1.76502 2.24857 1.74905C2.19269 1.73309 2.13681 1.71712 2.08891 1.70115C2.02504 1.70115 1.96117 1.63728 1.96117 1.57341C1.94521 1.50958 1.92127 1.44574 1.89732 1.38189C1.87336 1.31801 1.8494 1.25412 1.83343 1.19024Z" />
<path d="M1.19478 1.09443C1.19478 0.966694 1.22672 0.934757 1.25865 0.966694C1.30652 0.982648 1.36235 0.998604 1.41819 1.01456C1.47412 1.03054 1.53004 1.04652 1.57795 1.0625C1.64183 1.0625 1.7057 1.12637 1.7057 1.19024C1.72167 1.25413 1.74563 1.31802 1.76959 1.38191C1.79353 1.44575 1.81747 1.50959 1.83343 1.57341C1.86537 1.63728 1.83343 1.66922 1.76956 1.66922C1.67376 1.63728 1.54602 1.60535 1.45026 1.60535C1.38639 1.60535 1.32252 1.54152 1.32252 1.47765C1.30655 1.41377 1.28259 1.34989 1.25864 1.28602C1.23469 1.22215 1.21074 1.15829 1.19478 1.09443Z" />
<path d="M0.61999 0.902825C0.588058 0.83895 0.61999 0.775128 0.651927 0.807018C0.703771 0.824306 0.755628 0.832234 0.812558 0.840938C0.860784 0.848311 0.91265 0.856241 0.971232 0.870888C1.0351 0.870888 1.09897 0.934757 1.09897 1.03056C1.11494 1.09443 1.13889 1.1583 1.16284 1.22217C1.18679 1.28604 1.21075 1.34991 1.22672 1.41378C1.25865 1.47765 1.22672 1.50959 1.16285 1.50959C1.06706 1.47766 0.971215 1.44572 0.875426 1.44572C0.811562 1.44572 0.779631 1.38186 0.747696 1.31799C0.734144 1.26378 0.714837 1.20955 0.69467 1.15289C0.667321 1.07606 0.638373 0.994729 0.61999 0.902825Z" />
<path d="M2.85531 0.966694C2.85531 0.870888 2.88724 0.870888 2.91918 0.870888C3.01498 0.902825 3.14268 0.966694 3.23849 1.03056C3.30235 1.0625 3.36622 1.12637 3.36622 1.19024C3.39816 1.31798 3.43009 1.41378 3.49396 1.54152C3.5259 1.60535 3.49396 1.63728 3.43009 1.60535C3.35275 1.55382 3.25458 1.52308 3.16922 1.49634C3.14885 1.48996 3.1292 1.48381 3.11075 1.47765C3.04692 1.44572 2.98305 1.38185 2.98305 1.31798C2.95111 1.19024 2.91918 1.09443 2.85531 0.966694Z" />
<path d="M0.971232 0.264167C0.939301 0.200297 0.971232 0.168362 1.00317 0.168362C1.05107 0.184329 1.10695 0.200296 1.16284 0.216263C1.21873 0.232231 1.27461 0.248199 1.32252 0.264167C1.38638 0.296102 1.45026 0.359972 1.45026 0.423842C1.48214 0.487649 1.50606 0.551456 1.52999 0.615258C1.55396 0.679185 1.57792 0.743107 1.60989 0.807018C1.64183 0.870888 1.60989 0.902825 1.54602 0.902825C1.49809 0.886841 1.44216 0.870857 1.38622 0.854874C1.33039 0.838921 1.27457 0.822969 1.22672 0.807018C1.16285 0.807018 1.09897 0.711258 1.09897 0.647389C1.083 0.583511 1.05905 0.519634 1.0351 0.455756C1.01115 0.391893 0.987199 0.32803 0.971232 0.264167Z" />
</svg>
