<svg width="14" height="14" viewBox="0 0 14 14" xmlns="http://www.w3.org/2000/svg">
<path d="M6.98708 0.000158378C6.45625 -0.00358112 5.92697 0.0589133 5.41106 0.186246V8.89931C5.40973 8.98384 5.37603 9.06449 5.31714 9.12407C5.25826 9.18365 5.17885 9.21744 5.09585 9.21823H4.46484C4.43387 9.21847 4.40316 9.21246 4.37448 9.20056C4.3458 9.18866 4.31972 9.17109 4.29774 9.14887C4.27575 9.12664 4.25831 9.10021 4.2464 9.07109C4.23449 9.04197 4.22836 9.01073 4.22837 8.97919V0.558115C2.9803 1.08623 1.91317 1.97807 1.16092 3.1217C0.408666 4.26534 0.00479751 5.60981 0 6.9864C0.00686616 7.9164 0.193889 8.83587 0.550345 9.6921C0.906801 10.5483 1.42568 11.3245 2.07723 11.976C2.72877 12.6275 3.50018 13.1417 4.3472 13.4889C5.19423 13.8362 6.10022 14.0097 7.01322 13.9996C7.92279 14.0098 8.82538 13.8369 9.66924 13.491C10.5131 13.1451 11.2816 12.633 11.9307 11.9839C12.5798 11.3348 13.0967 10.5616 13.4518 9.70856C13.8069 8.85555 13.9932 7.93953 14 7.01303C13.9773 5.13768 13.227 3.34765 11.9131 2.03375C10.5992 0.719843 8.82832 -0.0112215 6.98708 0.000158378ZM6.85577 9.90871C6.85482 9.9863 6.824 10.0604 6.76994 10.1151C6.71587 10.1698 6.64289 10.2006 6.56671 10.201H5.9357C5.85952 10.2006 5.78653 10.1698 5.73247 10.1151C5.6784 10.0604 5.64758 9.9863 5.64663 9.90871V5.4723C5.64758 5.3947 5.6784 5.32059 5.73247 5.26592C5.78653 5.21125 5.85952 5.1804 5.9357 5.18H6.56671C6.64289 5.1804 6.71587 5.21125 6.76994 5.26592C6.824 5.32059 6.85482 5.3947 6.85577 5.4723V9.90871ZM8.27404 10.3338C8.27309 10.4114 8.24227 10.4855 8.1882 10.5402C8.13414 10.5949 8.06116 10.6257 7.98498 10.6261H7.35397C7.27779 10.6257 7.2048 10.5949 7.15074 10.5402C7.09667 10.4855 7.06585 10.4114 7.0649 10.3338V5.04748C7.06585 4.96988 7.09667 4.89577 7.15074 4.8411C7.2048 4.78644 7.27779 4.75558 7.35397 4.75519H7.98498C8.06116 4.75558 8.13414 4.78644 8.1882 4.8411C8.24227 4.89577 8.27309 4.96988 8.27404 5.04748V10.3338ZM9.69231 9.53806C9.69136 9.61566 9.66054 9.68977 9.60647 9.74444C9.55241 9.79911 9.47943 9.82996 9.40325 9.83036H8.77404C8.69786 9.82996 8.62487 9.79911 8.57081 9.74444C8.51674 9.68977 8.48592 9.61566 8.48498 9.53806V5.89742C8.48592 5.81983 8.51674 5.74572 8.57081 5.69105C8.62487 5.63638 8.69786 5.60552 8.77404 5.60513H9.40505C9.48123 5.60552 9.55421 5.63638 9.60828 5.69105C9.66234 5.74572 9.69317 5.81983 9.69411 5.89742L9.69231 9.53806Z"/>
</svg>
