<svg  viewBox="0 0 12 14" fill="none" xmlns="http://www.w3.org/2000/svg">
<g clip-path="url(#clip0_2106_22811)">
<path d="M1.34114 7.00013L1.34816 9.70756L3.64875 11.0613V12.6465L0.00146484 10.5072V6.20754L1.34114 7.00013ZM1.34114 4.2927V5.87087L0.00146484 5.07828V3.50011L1.34114 2.70752L2.68783 3.50011L1.34114 4.2927ZM4.60968 3.50011L5.94935 2.70752L7.29604 3.50011L5.94935 4.2927L4.60968 3.50011Z" />
<path d="M2.30908 9.1464V7.56123L3.64876 8.35381V9.93197L2.30908 9.1464ZM4.60968 11.6294L5.94935 12.4219L7.29604 11.6294V13.2075L5.94935 14.0001L4.60968 13.2075V11.6294ZM9.21788 3.5001L10.5576 2.70752L11.9042 3.5001V5.07826L10.5576 5.87085V4.29269L9.21788 3.5001V3.5001ZM10.5576 9.70752L10.5646 7.0001L11.9042 6.20752V10.5071L8.25696 12.6464V11.0612L10.5576 9.70752Z" />
<path d="M9.59652 9.14618L8.25684 9.93175V8.35361L9.59652 7.56104V9.14618Z" />
<path d="M9.59669 4.85373L9.6037 6.43891L7.29608 7.79262V10.5071L5.95639 11.2926L4.61671 10.5071V7.79262L2.30908 6.43891V4.85373L3.65578 4.06114L5.94938 5.42187L8.257 4.06114L9.6037 4.85373H9.59669ZM2.30908 2.1463L5.94938 0L9.59669 2.1463L8.257 2.93889L5.94938 1.57816L3.64877 2.93889L2.30908 2.1463Z" />
</g>
<defs>
<clipPath id="clip0_2106_22811">
<rect width="11.9056" height="14" fill="white"/>
</clipPath>
</defs>
</svg>
