<svg width="14" height="8" viewBox="0 0 14 8"  xmlns="http://www.w3.org/2000/svg">
<path d="M3.60724 0.0226973C3.53737 0.0494557 3.41548 0.137164 3.38426 0.183247C3.37236 0.202573 3.34115 0.275415 3.31587 0.34677C3.29209 0.416639 3.23709 0.545971 3.19546 0.635166C3.10775 0.820988 3.07356 0.938427 3.07059 1.06925C3.0691 1.15844 3.07208 1.16587 3.11816 1.20304L3.16573 1.24466L3.17019 1.45129C3.17316 1.64901 3.17465 1.6609 3.21479 1.72928C3.34561 1.95227 3.47196 2.08755 3.51359 2.05336C3.52399 2.04444 3.54183 2.00579 3.55224 1.97011C3.56265 1.93294 3.57603 1.90321 3.58197 1.90321C3.60576 1.90321 3.65333 1.97457 3.76036 2.16782C3.87631 2.37297 3.90902 2.41459 3.93875 2.38486C3.96402 2.35959 3.99821 2.12025 3.99821 1.97457C3.99821 1.90321 4.00416 1.84226 4.01159 1.83632C4.01902 1.83186 4.04281 1.86605 4.06362 1.91065L4.10079 1.99241H4.22566C4.31188 1.99241 4.35648 1.99835 4.36688 2.01173C4.3758 2.02214 4.38769 2.06971 4.39364 2.11579C4.40256 2.19755 4.40553 2.20053 4.4427 2.19161C4.54824 2.16931 4.54378 2.16931 4.55419 2.21688C4.55865 2.24215 4.56311 2.28229 4.56311 2.30459C4.56311 2.35513 4.58987 2.37892 4.63001 2.36256C4.68352 2.34175 4.75191 2.34919 4.79204 2.3804C4.82921 2.40865 4.83069 2.41757 4.83069 2.54541C4.83069 2.67474 4.79353 2.95422 4.77272 2.97652C4.76826 2.98247 4.72812 2.94381 4.68352 2.89178C4.64041 2.83827 4.59879 2.79516 4.59284 2.79516C4.5869 2.79516 4.57352 2.8457 4.56162 2.90814C4.55122 2.97057 4.53338 3.03152 4.52446 3.0449C4.50959 3.06571 4.50067 3.05977 4.465 3.00476C4.44121 2.96909 4.3981 2.91408 4.36837 2.88138C4.27323 2.77286 4.24201 2.813 4.16174 3.14748C4.06213 3.56669 4.04578 3.61723 3.93726 3.82089C3.90753 3.87738 3.90158 3.91306 3.89713 4.06172C3.89118 4.2743 3.9224 4.49728 3.97145 4.58053C4.06362 4.73514 4.56162 5.23314 4.62406 5.23314C4.64933 5.23314 4.6523 5.22125 4.6523 5.13651C4.6523 5.06218 4.65676 5.03988 4.67312 5.03988C4.68501 5.03988 4.75785 5.08002 4.83515 5.12759C4.91246 5.17665 4.99868 5.22571 5.02841 5.23909C5.07746 5.25841 5.0849 5.25841 5.10571 5.2376C5.13395 5.21084 5.12504 5.14692 5.08341 5.07556L5.05814 5.02948L5.21126 5.03691C5.38667 5.04434 5.48033 5.02502 5.53087 4.9715C5.56209 4.93731 5.56357 4.92244 5.56655 4.70243C5.56803 4.44377 5.57993 4.39025 5.65277 4.29511C5.71223 4.21781 5.82372 4.1524 5.85048 4.18064C5.94265 4.28173 5.91143 4.68905 5.76724 5.26287C5.66763 5.65979 5.42235 6.44767 5.30788 6.73904C5.29896 6.76282 5.29153 6.78364 5.29153 6.78661C5.29153 6.80147 5.42978 6.87134 5.54276 6.91148C6.30835 7.18947 7.20624 7.19096 7.93912 6.91594C8.37469 6.75242 8.71065 6.52943 9.08378 6.1563C9.34542 5.89318 9.43461 5.78168 9.66355 5.42491C9.80774 5.19895 9.95194 4.99529 9.96681 4.99529C9.98167 4.99529 10.1794 5.24057 10.2478 5.34463C10.3741 5.53343 10.4945 5.79655 10.4945 5.88129C10.4945 5.94075 10.5258 5.94967 10.6908 5.93926C11.1605 5.90953 11.4772 5.82628 11.6466 5.68803C11.77 5.58546 11.8503 5.3699 11.8518 5.12908C11.8518 4.9938 11.8235 4.77825 11.8027 4.76487C11.7968 4.76189 11.7314 4.81541 11.6585 4.88379L11.5232 5.00867L11.5158 4.95366C11.5099 4.92393 11.5024 4.8273 11.4965 4.73811C11.4905 4.6504 11.4816 4.57905 11.4772 4.57905C11.4712 4.57905 11.4593 4.58648 11.4504 4.5954C11.44 4.6058 11.4236 4.60878 11.4118 4.60432C11.382 4.59243 11.324 4.39768 11.33 4.32336C11.3345 4.26241 11.3359 4.25943 11.3791 4.26389C11.4043 4.26538 11.5426 4.27133 11.6883 4.27579C11.9142 4.2847 11.9677 4.28173 12.0495 4.25943C12.1446 4.23416 12.2234 4.23713 12.2814 4.26835C12.323 4.29065 12.3126 4.3189 12.2532 4.35903C12.1803 4.40809 12.0554 4.5181 12.0554 4.53445C12.0554 4.57905 12.4226 4.59391 12.5862 4.55526C12.7972 4.5062 12.9117 4.44079 13.1481 4.23119C13.3948 4.01266 13.5539 3.82387 13.6178 3.6767C13.6535 3.59196 13.7219 3.51912 13.8557 3.41803C13.9181 3.37195 13.9657 3.32438 13.982 3.2887C14.0058 3.23667 14.0058 3.22775 13.9835 3.1445C13.9285 2.93044 13.8304 2.79664 13.6654 2.71042C13.5613 2.65393 13.4305 2.61826 13.1183 2.55731C12.7512 2.48595 12.6753 2.43838 12.7541 2.33283C12.772 2.30756 12.7824 2.27783 12.7779 2.26742C12.7735 2.25553 12.7214 2.23323 12.662 2.21539C12.439 2.15147 12.1922 2.06228 12.0569 1.99538C11.9425 1.9374 11.8875 1.89727 11.7492 1.76793C11.6541 1.67725 11.55 1.59549 11.5099 1.57617C11.4712 1.55833 11.3657 1.52711 11.275 1.50778C11.0386 1.45575 10.9375 1.429 10.9004 1.40372C10.8677 1.38291 10.7681 1.25358 10.6521 1.08114C10.5466 0.925047 10.4351 0.855179 10.1452 0.765984C9.9014 0.691656 9.74233 0.62922 9.6576 0.577189C9.61895 0.551918 9.58327 0.535565 9.57732 0.540025C9.57286 0.544485 9.55949 0.608407 9.54759 0.679763C9.5357 0.751119 9.52232 0.813555 9.51935 0.816528C9.503 0.834367 9.22798 0.663411 9.0927 0.551918C8.99459 0.471643 8.92918 0.40772 8.8266 0.285821C8.78201 0.232304 8.75376 0.226358 8.7166 0.263522C8.6943 0.287307 8.69281 0.315552 8.70025 0.541512L8.70917 0.794229L8.67349 0.715441C8.63632 0.638139 8.60659 0.626246 8.60659 0.690169C8.60659 0.78085 8.42226 0.957752 8.20224 1.07816C8.07886 1.14506 8.01791 1.1629 8.00007 1.1406C7.99264 1.13019 7.97777 1.07965 7.96736 1.02613C7.88412 0.598001 7.7533 0.227845 7.68938 0.241224C7.676 0.244197 7.65072 0.293254 7.62694 0.364609C7.54964 0.593542 7.37571 0.892343 7.31922 0.892343C7.27908 0.892343 7.20327 0.844773 7.10367 0.757065C6.86284 0.544485 6.26821 0.253116 6.07496 0.253116C5.99468 0.253116 5.86684 0.296227 5.78061 0.35123C5.71966 0.391368 5.7048 0.394341 5.55168 0.395827C5.36883 0.397314 5.22761 0.428532 5.04179 0.508807L4.93327 0.554891L4.80691 0.498401C4.73704 0.467183 4.6419 0.418126 4.59581 0.389881C4.47689 0.318526 4.39661 0.279875 4.19593 0.193653C4.0993 0.152029 3.97294 0.0910797 3.91348 0.0583751C3.79455 -0.00554758 3.71279 -0.0159536 3.60724 0.0226973ZM4.1766 0.535565C4.22863 0.595028 4.23012 0.595028 4.37729 0.611381C4.87826 0.661924 4.93327 0.688682 5.16071 0.974105C5.23207 1.06479 5.32126 1.16587 5.35843 1.20006C5.43424 1.26993 5.59033 1.35913 5.78061 1.44386C5.96792 1.52711 5.9709 1.50035 5.79399 1.33088C5.62452 1.16885 5.62304 1.17033 5.8817 1.19114C6.17902 1.21493 6.23253 1.23723 6.44809 1.43346C6.55066 1.52711 6.58485 1.54792 6.58485 1.51819C6.58485 1.51076 6.55363 1.43643 6.51647 1.35318C6.4793 1.26993 6.45106 1.20006 6.45403 1.1956C6.46295 1.18817 6.81676 1.58806 6.8673 1.66239C6.88811 1.69212 6.95947 1.7828 7.02636 1.86456C7.27165 2.1589 7.43814 2.45622 7.45598 2.63163C7.47382 2.80705 7.38463 3.0345 7.24786 3.16531L7.19435 3.21734V3.14896C7.19435 2.97652 7.10069 2.69407 6.98474 2.51271C6.87473 2.34324 6.64134 2.08012 6.61904 2.10093C6.61607 2.10539 6.62945 2.14255 6.65026 2.18418C6.78702 2.45176 6.81378 2.86651 6.72459 3.29762C6.7127 3.35262 6.66513 3.38979 6.60269 3.38979C6.51944 3.38979 6.49566 3.36452 6.48228 3.2664C6.47038 3.18018 6.43471 3.1222 6.39308 3.1222C6.35146 3.1222 6.27862 3.17721 6.26226 3.22032C6.25334 3.2441 6.23402 3.29911 6.22064 3.3437C6.16861 3.51169 6.11509 3.55926 5.87576 3.64845C5.69737 3.71535 5.63939 3.77035 5.51006 3.99928C5.48925 4.03645 5.43573 4.1078 5.39113 4.15983C5.29153 4.27579 5.26923 4.34268 5.28113 4.50769C5.29748 4.75446 5.25288 4.75892 4.98232 4.53891C4.93921 4.50323 4.8961 4.47796 4.88718 4.48391C4.86786 4.4958 4.87826 4.55377 4.91989 4.64743C4.96151 4.74108 4.95259 4.7723 4.8857 4.7723C4.82921 4.7723 4.76528 4.73068 4.5973 4.58351C4.53784 4.53148 4.47689 4.48985 4.46202 4.48985C4.44567 4.48985 4.41297 4.51958 4.38621 4.55675C4.33269 4.63108 4.2762 4.65486 4.24052 4.61918C4.20782 4.58797 4.18403 4.35011 4.19741 4.20592L4.20782 4.09294L4.42635 4.08402C4.75488 4.07064 4.95408 4.00226 5.20382 3.82089C5.37329 3.69751 5.5829 3.44182 5.62155 3.30951C5.64236 3.24262 5.64682 3.05233 5.63047 2.97652C5.62452 2.95125 5.62452 2.92895 5.63047 2.92895C5.64385 2.92895 5.72264 3.03896 5.75088 3.09693C5.81183 3.22032 5.849 3.04193 5.8044 2.83975C5.72858 2.50676 5.56357 1.99241 5.46249 1.77239C5.44168 1.72928 5.42532 1.69063 5.42532 1.68617C5.42532 1.68023 5.39559 1.63117 5.35843 1.57617C5.28261 1.46319 5.15328 1.33683 5.06706 1.29372C4.9957 1.25655 4.98232 1.25655 4.9407 1.2952C4.92137 1.31304 4.8961 1.32345 4.88421 1.31899C4.87232 1.31453 4.82772 1.2625 4.7861 1.20452C4.67163 1.04843 4.66866 1.04843 4.40256 1.21939C4.30147 1.2848 4.26431 1.29966 4.1989 1.30561C4.09335 1.31453 4.08295 1.29074 4.14687 1.19709C4.22268 1.08857 4.20931 1.07965 3.99078 1.09006C3.88969 1.09452 3.78563 1.09303 3.76185 1.0856C3.70536 1.06925 3.58643 0.971132 3.55819 0.919101C3.52994 0.865585 3.51805 0.72436 3.53291 0.639626L3.54629 0.57273L3.61914 0.574216C3.66076 0.575703 3.75441 0.581649 3.83023 0.587595L3.96551 0.599488L4.02646 0.537052C4.05916 0.504347 4.09484 0.476102 4.10525 0.476102C4.11565 0.476102 4.14687 0.502861 4.1766 0.535565ZM9.50597 1.32345C9.6576 1.49886 9.73193 1.54644 10.0486 1.67279C10.1422 1.71144 10.2329 1.74712 10.2493 1.75456C10.3399 1.79469 10.554 1.87645 10.606 1.88983C10.6387 1.89875 10.8097 1.91065 10.9851 1.91659C11.3553 1.92848 11.3568 1.92848 11.6511 2.09647C11.7522 2.15296 11.8696 2.21093 11.9112 2.22431C12.1194 2.29121 12.1565 2.32094 12.1699 2.43541L12.1788 2.51271H12.0837C12.0317 2.51271 11.9633 2.50528 11.9335 2.49784C11.9038 2.48892 11.7433 2.39081 11.5783 2.27932L11.2765 2.07714L11.165 2.06525C10.9807 2.04592 10.7919 2.0489 10.7919 2.0712C10.7919 2.0816 10.832 2.13363 10.881 2.18864C10.9316 2.24364 10.9881 2.32837 11.0119 2.3804C11.0357 2.43243 11.0773 2.52311 11.104 2.58258C11.165 2.71637 11.2081 2.75799 11.3359 2.80259C11.443 2.83975 11.6883 2.88435 11.7834 2.88435C11.8518 2.88435 12.0257 2.85016 12.1669 2.80705C12.2636 2.77881 12.2829 2.77732 12.442 2.79516C12.6694 2.81894 12.8433 2.85165 12.885 2.87989C12.9251 2.90516 12.9964 3.04787 13.0291 3.16829C13.041 3.21288 13.0544 3.30208 13.0604 3.36749C13.0708 3.52061 13.047 3.57115 12.934 3.63804C12.769 3.73616 12.4568 3.8313 12.3855 3.80454C12.3632 3.79711 12.2383 3.67967 12.1075 3.54588C11.8934 3.32884 11.8577 3.29762 11.7581 3.25005C11.6422 3.19653 11.498 3.15491 11.4816 3.17126C11.4757 3.17572 11.4831 3.20694 11.4965 3.24113C11.5366 3.34073 11.5366 3.33924 11.3686 3.35114C11.0029 3.37641 10.6625 3.49533 10.4648 3.66926C10.3622 3.75846 10.3489 3.7867 10.3979 3.809C10.4336 3.82535 10.4351 3.8313 10.4351 3.95469C10.4351 4.12861 10.4693 4.28024 10.6016 4.70541C10.6863 4.97745 10.7517 5.12462 10.8171 5.193C10.8483 5.22422 10.9405 5.30747 11.0223 5.37882C11.104 5.44869 11.1799 5.5141 11.1917 5.52451C11.2081 5.53937 11.1962 5.54978 11.1248 5.58248C10.9732 5.65235 10.8573 5.69546 10.8142 5.69844C10.7666 5.70141 10.774 5.71479 10.6432 5.36247C10.5525 5.11867 10.4841 4.99826 10.3251 4.80352C10.1957 4.64743 9.90883 4.35606 9.7022 4.16875L9.57138 4.05131L9.54908 3.77778C9.52975 3.52209 9.52232 3.47898 9.50746 3.49533C9.49705 3.50574 9.36623 4.04834 9.34691 4.15835C9.32609 4.28619 9.33501 4.31146 9.45245 4.45715C9.51935 4.5404 9.52827 4.55972 9.52827 4.62067C9.52827 4.75892 9.44948 4.97299 9.26663 5.3372C9.01837 5.83223 8.97229 5.88574 8.88607 5.78168C8.86377 5.75493 8.83404 5.70438 8.82066 5.67168L8.79836 5.60924L8.87417 5.44721C9.01243 5.15881 9.12243 4.90015 9.14027 4.82879C9.16108 4.74257 9.16108 4.54634 9.14027 4.40809C9.13284 4.35011 9.12392 4.22673 9.12392 4.13307C9.12095 3.97996 9.12541 3.95023 9.16257 3.85211C9.26068 3.59047 9.52381 3.19059 9.65909 3.09991L9.71409 3.06274L9.81815 3.1668C9.87613 3.22478 9.93113 3.27086 9.94154 3.27086C9.95194 3.27086 9.95937 3.24856 9.95937 3.21437C9.96235 2.96314 10.2017 2.50379 10.4797 2.22283C10.5287 2.17228 10.5689 2.12323 10.5689 2.11431C10.5689 2.08755 10.4603 2.03849 10.334 2.00727C10.2195 1.97903 10.1407 1.96416 9.89545 1.927C9.82261 1.91511 9.76017 1.90173 9.75571 1.89727C9.75125 1.89281 9.77504 1.85713 9.80774 1.81699C9.85383 1.76199 9.86423 1.73969 9.85234 1.7278C9.84193 1.71739 9.82856 1.70996 9.82261 1.70996C9.79436 1.70996 9.66206 1.64158 9.57881 1.58211C9.3915 1.45129 9.20122 1.18223 9.16554 0.996403C9.15514 0.944373 9.15662 0.945859 9.26366 1.05587C9.32312 1.11682 9.43313 1.23723 9.50597 1.32345ZM10.2047 1.19412C10.3756 1.33088 10.5139 1.484 10.5451 1.56725C10.554 1.59252 10.5495 1.59401 10.5005 1.58657C10.4172 1.57319 10.2968 1.50927 10.2136 1.43346C10.1333 1.36061 10.0738 1.25209 10.056 1.14655L10.0456 1.07965L10.0872 1.1079C10.111 1.12276 10.1645 1.16141 10.2047 1.19412ZM8.53226 1.19709C8.53226 1.39183 8.46834 1.69212 8.39698 1.83186C8.35982 1.90619 8.28549 1.98795 8.23346 2.01619C8.17846 2.04444 8.17846 2.03403 8.24387 1.87645C8.31076 1.71442 8.38361 1.49738 8.38361 1.45724C8.38361 1.42305 8.35833 1.41859 8.32563 1.44832C8.28995 1.47954 8.1294 1.55833 8.04615 1.58509C7.96588 1.61036 7.61059 1.63266 7.61059 1.61184C7.61059 1.59401 7.62099 1.58806 7.95993 1.41264C8.12346 1.32791 8.31374 1.22385 8.38361 1.18074C8.45347 1.13911 8.51442 1.10344 8.52186 1.10195C8.5278 1.10046 8.53226 1.14357 8.53226 1.19709ZM8.80728 1.25655C8.83106 1.39629 8.94404 1.69955 9.05108 1.91659C9.08527 1.98497 9.11203 2.04741 9.11203 2.05782C9.11203 2.06674 9.09716 2.0816 9.07932 2.08903C9.04959 2.10241 9.03175 2.09349 8.94107 2.01471C8.88458 1.96565 8.81471 1.90767 8.78647 1.88537L8.73592 1.84672L8.75228 1.74266C8.76268 1.68469 8.77011 1.5286 8.77011 1.3948C8.7716 1.16439 8.78201 1.11979 8.80728 1.25655ZM3.60427 1.42454C3.66225 1.45427 3.70684 1.46467 3.80942 1.46913C3.96253 1.47657 3.95807 1.46765 3.90158 1.69063C3.88077 1.77091 3.86442 1.86308 3.86442 1.89727C3.86442 1.92997 3.8555 1.97011 3.84361 1.98497C3.79455 2.05187 3.71428 1.93294 3.62806 1.66685C3.56413 1.47211 3.53589 1.44386 3.50913 1.54198C3.50021 1.57319 3.49278 1.64306 3.49278 1.69807C3.49278 1.75307 3.48534 1.80213 3.47642 1.80659C3.4571 1.81996 3.40804 1.77537 3.37534 1.71739C3.34561 1.66239 3.34263 1.35615 3.37236 1.28777L3.3902 1.24317L3.46007 1.31453C3.49872 1.35467 3.56413 1.40372 3.60427 1.42454ZM8.14873 2.78029C8.33306 3.0672 8.35833 3.1222 8.44307 3.38979C8.47726 3.49979 8.51442 3.62021 8.5278 3.65737C8.70322 4.19105 8.71065 4.88974 8.54416 5.37436C8.51591 5.4591 8.4282 5.63005 8.40144 5.65384C8.37171 5.6806 8.37469 5.69398 8.32266 5.27774C8.29738 5.07854 8.28846 5.03542 8.26765 5.02799C8.25873 5.02502 8.24981 5.03394 8.24981 5.04732C8.24981 5.08299 8.16805 5.24057 8.1071 5.32382C8.04467 5.41004 7.87966 5.56316 7.86182 5.55127C7.83803 5.5364 7.81722 5.42193 7.82019 5.32531C7.82168 5.24652 7.81871 5.22719 7.80236 5.23017C7.79046 5.23314 7.7756 5.24503 7.76816 5.25841C7.76222 5.2703 7.73695 5.30152 7.71465 5.32679C7.676 5.37139 7.67154 5.37288 7.61505 5.35504C7.53031 5.32977 7.48423 5.33274 7.41733 5.36693C7.38463 5.38328 7.3549 5.39666 7.35044 5.39666C7.34598 5.39666 7.343 5.34761 7.343 5.28666V5.17516L7.28057 5.1707C7.233 5.16773 7.21516 5.15881 7.21219 5.138C7.20029 5.08151 7.42625 4.90758 7.84844 4.64743C8.12494 4.47647 8.19927 4.39174 8.21562 4.23119C8.22603 4.13159 8.18292 3.52804 8.14427 3.2114C8.12197 3.0345 8.06548 2.80705 8.00453 2.65245C7.91533 2.425 7.93169 2.43987 8.14873 2.78029ZM13.2179 2.96463C13.2536 2.98247 13.3294 3.02409 13.3859 3.05531C13.4439 3.08653 13.5182 3.13112 13.5539 3.15491C13.6178 3.19802 13.6178 3.19951 13.5911 3.22924C13.5584 3.2664 13.429 3.35262 13.383 3.366C13.3607 3.37343 13.3413 3.36749 13.319 3.34519C13.2804 3.30654 13.2893 3.29316 13.3755 3.25154C13.4781 3.20248 13.4766 3.17423 13.3725 3.18761L13.2893 3.19653L13.2402 3.11923C13.1065 2.90665 13.1065 2.90219 13.2179 2.96463ZM4.35796 3.19207C4.37283 3.29613 4.52297 3.63953 4.56014 3.6544C4.58838 3.6648 4.68055 3.61426 4.70731 3.57264C4.72663 3.5429 4.72812 3.52061 4.71177 3.41803C4.70285 3.35114 4.69096 3.28721 4.6865 3.27383C4.67906 3.25154 4.68055 3.25005 4.70285 3.27235C4.71623 3.28424 4.75042 3.34668 4.77718 3.4106C4.84556 3.56818 4.85448 3.57561 4.97638 3.57561C5.06111 3.57561 5.09233 3.56818 5.19193 3.51912C5.25585 3.4879 5.31234 3.4656 5.3168 3.47006C5.35099 3.50425 5.05071 3.72278 4.82326 3.8313C4.71177 3.88482 4.69393 3.88779 4.53933 3.89225C4.27174 3.90117 4.24201 3.86846 4.24498 3.56818C4.24647 3.27383 4.3312 2.99436 4.35796 3.19207ZM11.7507 3.63359C11.9172 3.68116 12.0376 3.75994 12.2041 3.93239C12.3468 4.07956 12.4643 4.13159 12.717 4.16281C12.7898 4.17173 12.8522 4.18213 12.8552 4.1851C12.8656 4.19551 12.824 4.26092 12.772 4.31592C12.7408 4.34714 12.6843 4.38431 12.6397 4.40066C12.5624 4.4289 12.4122 4.44228 12.4122 4.4185C12.4122 4.41255 12.442 4.39174 12.4776 4.37241C12.5148 4.35309 12.5549 4.32633 12.5683 4.31146C12.5906 4.28768 12.5876 4.2847 12.5311 4.27579C12.4538 4.26389 12.326 4.19848 12.2205 4.11969C12.1446 4.06321 12.1372 4.06023 12.109 4.08104C12.0302 4.13902 11.9157 4.18213 11.831 4.18362C11.7849 4.1851 11.7403 4.18064 11.7343 4.17321C11.7284 4.16727 11.7537 4.1301 11.7908 4.09145C11.886 3.99482 11.9707 3.85657 11.9588 3.81941C11.9484 3.78819 11.8741 3.74508 11.7804 3.71683C11.7477 3.70791 11.6273 3.69453 11.5128 3.6871C11.2155 3.67075 11.0312 3.62764 11.168 3.60831C11.2616 3.59345 11.6764 3.61277 11.7507 3.63359ZM13.3532 3.71981C13.3235 3.88333 13.2388 3.98442 13.1332 3.98442C13.0529 3.98442 13.0396 3.95766 13.0812 3.87441C13.1302 3.77035 13.2521 3.67224 13.3294 3.67224C13.3592 3.67224 13.3621 3.67818 13.3532 3.71981ZM10.9673 4.16875C10.9896 4.18064 11.0238 4.2074 11.0446 4.2297C11.0788 4.26687 11.0817 4.28024 11.0817 4.41998C11.0817 4.58499 11.1144 4.69649 11.1903 4.79757L11.2259 4.84663H11.1917C11.1442 4.84514 11.0431 4.79906 11.0119 4.76338C10.9584 4.70243 10.939 4.6281 10.9494 4.51512C10.9569 4.43188 10.9509 4.38133 10.9271 4.28619C10.9093 4.2193 10.8959 4.16132 10.8959 4.15686C10.8959 4.14199 10.9256 4.14645 10.9673 4.16875ZM10.9509 4.86298C11.0624 4.96258 11.1397 5.01015 11.1843 5.01015C11.2244 5.01015 11.2958 4.93731 11.3419 4.84663C11.3746 4.78271 11.385 4.77676 11.4132 4.80501C11.44 4.83176 11.4341 4.93136 11.4014 5.03988C11.385 5.0934 11.3716 5.138 11.3716 5.13948C11.3716 5.14989 11.5069 5.23314 11.5232 5.23314C11.5337 5.23165 11.5604 5.20489 11.5827 5.17368C11.6377 5.0934 11.6838 5.09191 11.6838 5.16922C11.6838 5.24652 11.6466 5.37882 11.6154 5.41301C11.5827 5.45018 11.547 5.44869 11.4459 5.40707C11.2542 5.32828 10.994 5.11421 10.9063 4.96407C10.8706 4.90312 10.8379 4.78717 10.8558 4.78717C10.8602 4.78717 10.9033 4.82136 10.9509 4.86298Z" />
<path d="M2.8537 1.86574C2.49395 1.94304 2.45679 1.96088 2.25164 2.15562C2.12826 2.27306 2.06731 2.31766 1.96473 2.36969C1.80716 2.44847 1.60052 2.52726 1.40727 2.58078C1.32848 2.60159 1.25266 2.62835 1.2378 2.63876C1.21401 2.65659 1.21401 2.66105 1.23928 2.70863C1.30618 2.8335 1.24226 2.87363 0.854262 2.95094C0.521269 3.01635 0.371125 3.06392 0.267065 3.13379C0.119894 3.23339 0.0173204 3.4088 0.00245467 3.58719C-0.00349162 3.67193 -0.00349163 3.67341 0.0604311 3.73585C0.0961088 3.77004 0.168951 3.83099 0.222468 3.87261C0.304229 3.93505 0.328014 3.96478 0.378558 4.06735C0.4514 4.21304 0.568839 4.36021 0.741282 4.52225C1.02968 4.7928 1.16793 4.87902 1.39983 4.93849C1.50241 4.96376 1.54998 4.96822 1.70161 4.96078C1.88297 4.95187 1.94689 4.94146 1.94689 4.91916C1.94689 4.91321 1.9023 4.87159 1.84878 4.82848C1.79526 4.78537 1.73283 4.73631 1.71201 4.71847L1.67336 4.68726L1.7135 4.66198C1.77148 4.62333 1.85621 4.61739 1.93797 4.64414C2.0242 4.67388 2.36462 4.67834 2.53855 4.65306C2.5995 4.64563 2.6545 4.64117 2.66194 4.64712C2.69315 4.66496 2.6664 4.82402 2.60991 4.95633C2.58612 5.01133 2.58463 5.01281 2.55788 4.98903C2.54152 4.97416 2.52517 4.9697 2.52071 4.97714C2.51625 4.98606 2.50585 5.07971 2.49841 5.18823C2.49098 5.29675 2.48206 5.38594 2.47909 5.38892C2.47611 5.39189 2.41368 5.33837 2.34084 5.26999C2.26651 5.20161 2.20258 5.14512 2.19664 5.14363C2.19218 5.14363 2.17583 5.20756 2.16245 5.28634C2.10447 5.60447 2.18029 5.9226 2.34678 6.06531C2.51031 6.20505 2.78829 6.28235 3.25508 6.31803C3.45279 6.33289 3.47212 6.33141 3.48847 6.30762C3.49888 6.29424 3.5078 6.27194 3.5078 6.25708C3.5078 6.21397 3.59104 5.99693 3.64605 5.89881C3.74862 5.71448 4.0281 5.35175 4.06675 5.35175C4.09053 5.35175 4.15743 5.44243 4.19459 5.52568C4.23473 5.61785 4.22581 5.74421 4.16932 5.86462L4.1277 5.95233L4.26744 6.08463C4.34474 6.15599 4.47556 6.26897 4.5588 6.33438C4.72976 6.46817 5.03451 6.6748 5.06275 6.6748C5.07316 6.6748 5.09546 6.63615 5.1133 6.58858C5.2352 6.26451 5.53548 5.28337 5.52062 5.25959C5.51467 5.24918 5.47602 5.25215 5.38534 5.27148C5.36601 5.27445 5.34223 5.30121 5.3229 5.33986C5.30655 5.37554 5.2679 5.42014 5.23668 5.44095C5.1906 5.47217 5.16533 5.47811 5.06721 5.47811C5.00329 5.47663 4.95423 5.48109 4.95572 5.48555C4.95869 5.49001 4.97207 5.51974 4.98694 5.55244C5.0018 5.58515 5.05383 5.69515 5.1014 5.79624C5.14897 5.89733 5.18762 5.98949 5.18762 5.9999C5.18762 6.06531 5.07019 6.23627 5.03302 6.22437C5.00924 6.21694 4.92004 6.09504 4.8695 6.00287C4.84571 5.95976 4.77733 5.82597 4.71638 5.70407C4.61827 5.51082 4.60043 5.48257 4.55434 5.46325C4.4711 5.42906 4.33136 5.31459 4.12472 5.11093C4.01918 5.00687 3.92701 4.92065 3.92106 4.92065C3.90917 4.92065 3.69213 5.15701 3.61334 5.2581C3.48252 5.4246 3.40076 5.58961 3.28184 5.93003C3.25508 6.00733 3.22237 6.0772 3.20751 6.08463C3.18967 6.09653 3.13913 6.08166 2.98898 6.01923C2.88195 5.97463 2.79424 5.93152 2.79573 5.92408C2.79573 5.91517 2.83289 5.87949 2.88046 5.84232C2.92655 5.80516 3.0202 5.72637 3.0871 5.66542C3.23278 5.53609 3.26548 5.47811 3.37698 5.13917C3.50334 4.75266 3.5405 4.59211 3.54793 4.38994C3.55537 4.21452 3.55685 4.20858 3.59104 4.20115C3.64753 4.18628 3.63415 4.15655 3.53158 4.06289C3.40225 3.94545 3.22089 3.85477 3.00087 3.79828C2.85965 3.76112 2.66491 3.73139 2.56085 3.73139C2.50585 3.73139 2.46719 3.72544 2.46719 3.71652C2.46719 3.7076 2.4776 3.67638 2.48949 3.64665C2.53409 3.53962 2.50882 3.52921 2.34678 3.58868C2.16393 3.65557 2.04055 3.75071 1.84135 3.97816C1.68377 4.15952 1.6362 4.19669 1.56336 4.19669C1.49052 4.19669 1.26604 4.1283 1.13671 4.06587C0.950889 3.97667 0.910751 3.90234 0.93751 3.70166C0.953862 3.58422 1.01184 3.3984 1.05792 3.32109C1.09657 3.25568 1.17239 3.22893 1.40429 3.19771C1.65553 3.165 1.71201 3.165 1.82797 3.19622C2.06731 3.26163 2.19515 3.2765 2.34827 3.25717C2.5222 3.23339 2.62477 3.20811 2.72734 3.16054C2.81803 3.11892 2.8433 3.08473 2.95033 2.83647C3.00533 2.71011 3.04101 2.65362 3.11534 2.57037C3.16737 2.5124 3.21048 2.45888 3.21048 2.45145C3.21048 2.43361 2.91317 2.4351 2.80167 2.45293C2.72289 2.46631 2.67977 2.4901 2.41516 2.66551C2.25164 2.77552 2.09555 2.87215 2.06731 2.88255C2.03906 2.89147 1.97365 2.89891 1.92162 2.89891C1.81162 2.89891 1.79972 2.88553 1.82648 2.79187C1.85324 2.70714 1.90378 2.667 2.04203 2.62389C2.10744 2.60456 2.2234 2.55105 2.29624 2.50794C2.41814 2.43658 2.51922 2.38455 2.63815 2.33252C2.66788 2.31914 2.78829 2.31022 3.01277 2.30576C3.19413 2.3013 3.34576 2.29238 3.35171 2.28644C3.35765 2.28049 3.32346 2.23887 3.27589 2.19427C3.22683 2.14967 3.14805 2.05305 3.09899 1.97872C3.00087 1.83006 3.00831 1.83303 2.8537 1.86574ZM0.861695 3.32258C0.861695 3.32704 0.826017 3.3865 0.784393 3.45786C0.707091 3.58422 0.705604 3.5857 0.653574 3.57827C0.625329 3.57381 0.589651 3.56638 0.576272 3.56043C0.55546 3.553 0.549514 3.55746 0.549514 3.57827C0.549514 3.59908 0.571813 3.61692 0.623843 3.64071C0.705604 3.67787 0.714524 3.6972 0.66844 3.73882C0.638708 3.76558 0.635735 3.76558 0.574786 3.73585C0.488564 3.69274 0.385991 3.61544 0.385991 3.59314C0.385991 3.57232 0.467752 3.51881 0.681819 3.40137C0.831963 3.31961 0.861695 3.30623 0.861695 3.32258ZM2.82397 3.99748L2.89087 4.00789L2.83884 4.02573C2.7541 4.05397 2.60247 4.0733 2.46571 4.0733C2.25164 4.0733 2.05095 4.14168 2.03906 4.21898C2.03311 4.25764 2.11636 4.38994 2.20556 4.48359C2.25461 4.53414 2.26948 4.55792 2.2561 4.56684C2.20258 4.59955 2.01676 4.55792 1.92162 4.48954L1.8577 4.44494L1.7685 4.51184C1.66444 4.58765 1.54701 4.64563 1.46822 4.6605C1.437 4.66644 1.41173 4.67685 1.41173 4.6828C1.41173 4.69617 1.54403 4.78686 1.56336 4.78686C1.5693 4.78686 1.57525 4.7928 1.57525 4.80172C1.57525 4.82402 1.45632 4.81956 1.3701 4.79429C1.28537 4.76902 1.19915 4.70212 1.16496 4.63523C1.12928 4.56536 1.14563 4.549 1.24969 4.549C1.29875 4.549 1.38051 4.5386 1.42957 4.52671C1.59904 4.48211 1.67188 4.439 1.80864 4.30223C2.00933 4.10154 2.14163 4.02722 2.35124 4.00046C2.46868 3.98411 2.73626 3.98262 2.82397 3.99748ZM0.735336 4.08073C0.830476 4.12682 0.922644 4.2398 0.927104 4.31561C0.92859 4.36021 0.925617 4.36318 0.870614 4.36764C0.793312 4.37359 0.748715 4.34832 0.702631 4.27101C0.647628 4.17587 0.61641 4.04357 0.649114 4.04357C0.652088 4.04357 0.690738 4.05992 0.735336 4.08073ZM3.08412 4.59657C3.07818 4.63225 3.06777 4.67239 3.06034 4.68577C3.0529 4.69915 3.04696 4.78537 3.04696 4.87605C3.04696 5.05147 3.03507 5.09458 2.96966 5.15255C2.92506 5.19418 2.84776 5.23283 2.80911 5.23283C2.77789 5.23283 2.76897 5.21202 2.79424 5.19566C2.80316 5.18972 2.82249 5.15999 2.83884 5.12877C2.89681 5.0143 2.91465 4.93997 2.91168 4.80321C2.91019 4.65604 2.92209 4.62482 3.00533 4.56833C3.08115 4.51779 3.09602 4.52373 3.08412 4.59657ZM2.64261 5.21945C2.76154 5.435 2.81803 5.44243 3.01723 5.27148C3.07074 5.22539 3.11831 5.18823 3.12575 5.18823C3.14656 5.18823 3.13615 5.25364 3.10345 5.31905C3.06331 5.40527 2.90276 5.57325 2.78532 5.65799C2.67829 5.73529 2.48503 5.82746 2.433 5.82746C2.36462 5.82746 2.31854 5.73232 2.31854 5.58812C2.31854 5.52122 2.32448 5.50041 2.33935 5.50041C2.36611 5.50041 2.40179 5.53609 2.43152 5.59109L2.45382 5.63569L2.51625 5.59704C2.55044 5.57623 2.58761 5.55244 2.5995 5.54649C2.61883 5.5346 2.61734 5.51528 2.58909 5.41419C2.55193 5.2804 2.55044 5.26405 2.57125 5.21202C2.59058 5.16147 2.61139 5.16296 2.64261 5.21945Z" />
<path d="M3.51116 2.4383C3.4175 2.47992 3.4175 2.50074 3.51116 2.59885C3.61671 2.70886 3.75644 2.89914 3.83672 3.04036C3.8724 3.10131 3.9051 3.15186 3.91105 3.15186C3.91551 3.15186 3.93186 3.10726 3.94524 3.05077C3.99875 2.84413 4.03295 2.76089 4.08498 2.70291C4.15336 2.62709 4.18309 2.61223 4.2812 2.60182L4.36297 2.59439L4.36743 2.52898L4.37188 2.46357L4.29012 2.47398C4.22323 2.48141 4.20539 2.47844 4.19498 2.45911C4.18458 2.43979 4.17863 2.44425 4.16228 2.48141C4.13403 2.55128 4.03592 2.62858 3.96159 2.63899C3.85604 2.65534 3.73266 2.5825 3.65536 2.45614C3.61968 2.40114 3.59887 2.39816 3.51116 2.4383Z" />
</svg>
