<svg width="13" height="14" viewBox="0 0 13 14" xmlns="http://www.w3.org/2000/svg">
<path d="M12.4931 10.5646L12.5629 10.4248C12.8202 9.80749 12.5796 9.08784 12.0012 8.74839C11.7944 8.6268 11.5591 8.5625 11.3209 8.5625C10.8451 8.5625 10.3996 8.81716 10.1584 9.22746L10.1206 9.2867L9.38029 10.5701C9.35078 10.6326 9.31591 10.6929 9.27672 10.7497L9.27397 10.7545L9.26875 10.7638L9.26257 10.7724C9.24185 10.8016 9.21987 10.8299 9.19678 10.8571H11.7019C12.0633 10.857 12.3433 10.7533 12.4931 10.5646Z"/>
<path d="M6.43456 13.9996L6.47576 14.0001L6.52307 13.9996C7.0385 13.9925 7.51824 13.8752 7.87416 13.6694L11.5525 11.5461C11.6713 11.4775 11.7886 11.3916 11.9024 11.291C11.8375 11.297 11.7708 11.3001 11.702 11.3001H8.83089H4.69463C4.62653 11.2989 4.55918 11.2925 4.49316 11.2808L5.74829 13.4542C5.94014 13.7867 6.18355 13.9799 6.43456 13.9996Z"/>
<path d="M1.77077 7.43408L0.521828 9.59788C0.330497 9.92935 0.284676 10.2364 0.39271 10.4632C0.407462 10.4896 0.422735 10.5158 0.438307 10.5419C0.701536 10.984 1.04262 11.3408 1.39913 11.5468L5.07681 13.6699C5.19602 13.7389 5.32901 13.7978 5.47258 13.846C5.43496 13.7928 5.39882 13.7364 5.3644 13.6766L3.9286 11.19L3.67349 10.7482C3.63699 10.6954 3.60353 10.6376 3.57373 10.5759L1.93848 7.74269C1.87783 7.66065 1.82762 7.57259 1.78917 7.48132C1.78284 7.46575 1.77665 7.44995 1.77077 7.43408Z"/>
<path d="M1.57341 6.88834L1.79484 6.50538C1.83195 6.41948 1.88008 6.33618 1.93826 6.25721L3.57836 3.41601L3.66888 3.25977L3.67604 3.24718L3.68133 3.23786L3.68751 3.22922C3.70882 3.1989 3.73132 3.16969 3.75486 3.1416H2.37703H1.24931C0.867396 3.1416 0.57876 3.25522 0.435784 3.46183C0.419243 3.48954 0.403671 3.51674 0.387876 3.54445C0.137984 3.99231 0 4.46579 0 4.87602V9.12299C0 9.2606 0.0154966 9.40515 0.0455224 9.55334C0.0726425 9.49425 0.103488 9.43472 0.137761 9.37527L1.57341 6.88834Z"/>
<path d="M4.12 2.69882H8.28308C8.34238 2.70143 8.40057 2.70769 8.45749 2.71789L7.20282 0.544637C7.01014 0.210777 6.76517 0.0175838 6.51319 0.000223963C6.5123 0.000223963 6.51125 0.000223963 6.50984 0.000223963C6.50224 0.000223963 6.48875 0 6.47512 0C6.45917 0 6.44331 0.000223717 6.42751 0.000670751C5.91096 0.0078233 5.43204 0.124872 5.07643 0.33021L1.3986 2.4537C1.27969 2.52254 1.16264 2.608 1.04932 2.70776C1.11391 2.70187 1.18045 2.69889 1.24899 2.69889H4.12V2.69882Z"/>
<path d="M9.02216 2.80897L10.1608 4.79916C10.4014 5.20894 10.8493 5.46517 11.3277 5.46517C11.5671 5.46517 11.8036 5.4005 12.0113 5.27846C12.6546 4.90027 12.8705 4.06938 12.4927 3.42632L12.4374 3.33654C12.1883 2.95381 11.8728 2.6385 11.5517 2.45305L7.87381 0.329493C7.7549 0.260724 7.62213 0.202088 7.479 0.153809C7.51641 0.206857 7.55232 0.263108 7.58659 0.322415L9.02216 2.80897Z"/>
</svg>
