<svg viewBox="0 0 18 14" fill="none" xmlns="http://www.w3.org/2000/svg">
<path d="M16.1501 0.0887989C14.5898 0.363409 13.7628 0.684829 12.9016 1.35575C12.577 1.61164 12.1401 2.04852 11.8718 2.38866C11.722 2.5759 11.6471 2.64767 11.6128 2.63519C10.7359 2.29504 9.99007 2.1515 9.10695 2.1515C8.13645 2.1515 7.28766 2.32313 6.44822 2.68512C6.29531 2.75377 6.16113 2.80682 6.14865 2.80682C6.13928 2.80682 6.07999 2.73817 6.0207 2.65703C5.37786 1.79887 4.46354 1.10299 3.48368 0.725396C2.81587 0.469509 1.30552 0.166813 0.82807 0.191778C0.347502 0.216742 0.269487 0.316601 0.241402 0.91263C0.22892 1.19036 0.188352 1.47745 0.12282 1.79263C0.00735922 2.34809 -0.0332082 3.11888 0.0292032 3.59944C0.238282 5.18782 1.11828 6.8386 2.5319 8.28342L2.77843 8.53307L2.82524 8.89506C3.1529 11.3946 5.09077 13.4136 7.72142 13.9941C7.80567 14.0128 7.79631 13.9972 7.6122 13.7975C6.95688 13.0891 6.86014 12.2809 7.33446 11.4789C7.5373 11.1325 7.68397 10.9765 8.06468 10.6894C8.27376 10.5302 8.48284 10.343 8.55149 10.2525C8.90723 9.7813 9.02581 9.15718 8.96028 8.08683C8.91659 7.34101 8.91659 6.69193 8.96028 6.48285C9.03206 6.14583 9.2661 5.83689 9.48454 5.78697C9.63121 5.75576 9.83716 5.8681 9.97447 6.05533C10.1898 6.35179 10.2491 6.67009 10.299 7.81534C10.3458 8.92002 10.4238 9.3569 10.6485 9.82811C10.7827 10.1058 10.8264 10.1526 11.5535 10.8423C11.9654 11.2324 12.2993 11.7441 12.4054 12.1592C12.4678 12.3963 12.4616 12.7895 12.3929 13.0485C12.3648 13.1671 12.3461 13.2607 12.3586 13.2607C12.3992 13.2607 12.9515 12.8863 13.1699 12.7084C13.5101 12.4338 14.0593 11.8534 14.2933 11.5195C14.4057 11.3603 14.4993 11.2199 14.5055 11.2043C14.5118 11.1887 14.4213 11.2074 14.3027 11.248C14.0312 11.3416 13.6193 11.3978 13.3946 11.3728C12.4522 11.2667 11.7251 10.6894 11.4318 9.8125C11.3538 9.58782 11.3475 9.51917 11.3475 9.12598C11.3475 8.72967 11.3538 8.66725 11.4349 8.43945C11.6377 7.84966 12.0247 7.40342 12.5645 7.13193C12.939 6.94782 13.1044 6.91037 13.5756 6.91349C13.9438 6.91349 14.0281 6.92597 14.2465 6.99775C14.3838 7.04456 14.5867 7.13193 14.6959 7.19746C14.8956 7.31605 15.2888 7.66867 15.4043 7.8403L15.4667 7.92768L15.7163 7.63746C17.002 6.14895 17.6854 4.6854 17.8196 3.122C17.8602 2.66951 17.8258 2.25136 17.6948 1.57419C17.6386 1.2871 17.5887 0.897027 17.5731 0.656743C17.5512 0.241707 17.5512 0.238586 17.4514 0.15121C17.2516 -0.0297828 16.9177 -0.0453857 16.1501 0.0887989ZM16.9458 1.181C17.0082 1.29958 16.9677 2.24824 16.8647 3.07207C16.7243 4.20796 16.4122 5.35321 16.0471 6.0803C15.9004 6.36739 15.3575 7.19122 15.3325 7.16314C15.3263 7.16002 15.2826 6.99463 15.2326 6.79803C14.9611 5.72143 14.4556 4.82271 13.688 4.04569C13.4071 3.76483 13.0514 3.46526 12.7705 3.2749C12.6831 3.21561 12.6145 3.15632 12.6176 3.14072C12.6207 3.12824 12.7518 3.01278 12.9047 2.88171C13.7254 2.19519 14.827 1.61476 15.888 1.31206C16.6026 1.10923 16.8865 1.0749 16.9458 1.181ZM2.01389 1.30582C3.25588 1.61164 4.46978 2.22327 5.37474 3.00029L5.55262 3.1532L5.23432 3.39037C4.66013 3.81788 4.10155 4.40455 3.7146 4.99122C3.35261 5.54356 3.00311 6.37987 2.90013 6.93846C2.87829 7.0508 2.85332 7.14441 2.84084 7.14441C2.79715 7.14441 2.36651 6.47973 2.21985 6.1864C1.76424 5.27207 1.45531 3.94583 1.34296 2.44795C1.3024 1.88625 1.3024 1.35263 1.34296 1.27462C1.38977 1.19036 1.56765 1.1966 2.01389 1.30582ZM6.19233 7.082C6.96624 7.2786 7.60283 7.9152 7.80567 8.69534C7.84936 8.86073 7.86808 9.0386 7.86808 9.2508C7.86808 9.87492 7.659 10.3804 7.20964 10.8298C6.98184 11.0576 6.89446 11.1231 6.64794 11.2417C6.22978 11.4414 5.98638 11.4945 5.5495 11.4758C4.93474 11.4477 4.48226 11.2511 4.05786 10.8267C3.78949 10.5583 3.6241 10.2931 3.50552 9.93733C3.42751 9.70953 3.42127 9.64711 3.42127 9.2352C3.42127 8.8264 3.43063 8.76087 3.50552 8.55179C3.64283 8.1742 3.79573 7.9308 4.07034 7.65931C4.36056 7.37222 4.69134 7.17874 5.06269 7.082C5.37786 7.00087 5.87404 7.00087 6.19233 7.082Z"/>
<path d="M5.47847 7.33166C4.77946 7.40968 4.18343 7.92457 3.98059 8.6267C3.90258 8.88571 3.90882 9.34443 3.99308 9.60968C4.06797 9.84997 4.23648 10.1402 4.39563 10.3024C4.51733 10.4304 4.5579 10.4491 4.5579 10.3742C4.5579 10.2026 4.79194 10.0746 4.96982 10.1495C5.104 10.2057 5.15393 10.2681 5.17265 10.4148C5.18513 10.5115 5.17265 10.5521 5.10712 10.6301C5.06031 10.6832 5.03847 10.7362 5.05095 10.7456C5.13521 10.7986 5.47535 10.8579 5.68131 10.8579C7.26344 10.8548 8.05918 8.95748 6.94514 7.84656C6.54258 7.444 6.04641 7.26925 5.47847 7.33166ZM6.45209 7.80599C6.60187 7.89649 6.69237 8.065 6.69237 8.25223C6.68925 8.60798 6.39592 8.85138 6.04017 8.78585C5.82173 8.74528 5.61889 8.4894 5.61889 8.26159C5.61889 8.13677 5.71251 7.93081 5.79989 7.8528C5.9684 7.70301 6.24925 7.68117 6.45209 7.80599Z" />
<path d="M13.1682 7.2534C12.6845 7.38759 12.2383 7.74957 12.0354 8.17709C11.8825 8.49539 11.8451 8.69823 11.8638 9.08206C11.8825 9.45341 11.9449 9.65 12.1384 9.9527L12.2632 10.1431L12.3475 10.0806C12.5909 9.88716 12.9404 10.1399 12.8312 10.4301C12.8125 10.4832 12.8031 10.5331 12.8125 10.5487C12.8187 10.5612 12.9061 10.6049 13.0059 10.6423C13.2275 10.7266 13.7518 10.7578 14.0201 10.7016C14.4976 10.6049 14.9937 10.2117 15.2059 9.76234C15.4837 9.17879 15.4337 8.48603 15.078 7.96489C14.8658 7.65908 14.5881 7.44376 14.2136 7.30021C13.9702 7.20659 13.4272 7.18475 13.1682 7.2534ZM14.3603 7.68092C14.535 7.78078 14.6193 7.93057 14.6193 8.14589C14.6193 8.4517 14.3946 8.67326 14.0888 8.67326C13.7954 8.67326 13.5427 8.42674 13.5427 8.14276C13.5427 7.74333 14.0045 7.4812 14.3603 7.68092Z" />
<path d="M9.5466 11.6691C9.02858 11.7315 8.80078 11.8626 8.80078 12.0997C8.80078 12.1965 8.82575 12.237 8.98177 12.3868C9.39993 12.7831 10.0147 12.961 10.3892 12.7925C10.6825 12.6583 11.0788 12.2121 11.0788 12.0155C11.0788 11.8345 10.8448 11.7346 10.2831 11.6691C9.971 11.6348 9.84929 11.6348 9.5466 11.6691Z"/>
</svg>
