<svg viewBox="0 0 11 14" fill="none" xmlns="http://www.w3.org/2000/svg">
<path d="M2.31405 2.56189V3.23967C2.31405 3.51657 2.53852 3.74105 2.81543 3.74105H2.9697C3.1614 3.74105 3.3168 3.58564 3.3168 3.39394C3.3168 3.20224 3.47221 3.04683 3.66391 3.04683H7.17796C7.64257 3.04683 7.85777 3.62372 7.50667 3.92801C7.41615 4.00646 7.30055 4.04995 7.18076 4.05062L0.46281 4.08815H0.396037C0.36354 4.08815 0.330864 4.09222 0.299338 4.1001C0.230089 4.11741 0.166176 4.15338 0.115702 4.20386L0.0896747 4.22988C0.0560651 4.26349 0.0307423 4.30447 0.0157116 4.34956C0.00530527 4.38078 0 4.41347 0 4.44638V11.5034C0 11.5477 0.0071349 11.5917 0.0211301 11.6336C0.0327034 11.6684 0.0488538 11.7014 0.0691547 11.7318L0.0974193 11.7742C0.109578 11.7925 0.123509 11.8095 0.139009 11.825L0.145299 11.8312C0.176587 11.8625 0.214535 11.8864 0.256313 11.9009C0.287451 11.9118 0.320196 11.9174 0.353175 11.9174H3.24242C3.79471 11.9174 4.24242 12.3651 4.24242 12.9174V13.595C4.24242 13.6827 4.27084 13.7679 4.32342 13.838C4.34644 13.8687 4.37371 13.896 4.40441 13.919C4.4745 13.9716 4.55976 14 4.64738 14H4.68595C4.77357 14 4.85883 13.9716 4.92893 13.919C4.95962 13.896 4.98689 13.8687 5.00992 13.838C5.06249 13.7679 5.09091 13.6827 5.09091 13.595V12.5215C5.09091 12.1878 5.3614 11.9174 5.69506 11.9174C6.02372 11.9174 6.29209 12.1801 6.29908 12.5087L6.32223 13.5965C6.32408 13.6833 6.3537 13.7682 6.4058 13.8377C6.42882 13.8684 6.45635 13.896 6.48705 13.919C6.55715 13.9716 6.64241 14 6.73003 14H6.79069C6.86397 14 6.93527 13.9762 6.99389 13.9323C7.03595 13.9007 7.07009 13.8598 7.09361 13.8128L7.09642 13.8072C7.12178 13.7564 7.13499 13.7005 7.13499 13.6438V12.3138C7.13499 12.0948 7.31247 11.9174 7.53141 11.9174C7.62414 11.9174 7.71395 11.8848 7.78519 11.8255L9.29477 10.5675L10.1436 9.82935C10.169 9.80726 10.1924 9.78292 10.2134 9.75663L10.2249 9.74228C10.2969 9.65232 10.3361 9.54054 10.3361 9.42533V9.39118C10.3361 9.30356 10.3077 9.21831 10.2551 9.14821C10.2321 9.11751 10.2048 9.09024 10.1741 9.06722L10.1216 9.02787C10.0847 9.00016 10.0453 8.97584 10.004 8.95519C9.94285 8.92459 9.87786 8.90229 9.81077 8.88888L9.80098 8.88692C9.74647 8.87601 9.69101 8.87052 9.63541 8.87052H4.3168C3.76452 8.87052 3.3168 8.42281 3.3168 7.87052V5.82369C3.3168 5.54679 3.09233 5.32231 2.81543 5.32231C2.53852 5.32231 2.31405 5.54679 2.31405 5.82369V9.4876V9.59077C2.31405 9.62438 2.32188 9.65752 2.33691 9.68759C2.34731 9.7084 2.36101 9.7274 2.37746 9.74385L2.40052 9.76691C2.41996 9.78635 2.44127 9.80383 2.46415 9.81908L2.47184 9.8242C2.52055 9.85668 2.57449 9.88054 2.63129 9.89474L2.63563 9.89582C2.6782 9.90647 2.72191 9.91185 2.76579 9.91185H2.89256H7.18397C7.65212 9.91185 7.86485 10.4965 7.50616 10.7974C7.41588 10.8731 7.30181 10.9146 7.18397 10.9146H2.00275C1.45047 10.9146 1.00275 10.4669 1.00275 9.9146V6.05234C1.00275 5.50006 1.45047 5.05234 2.00276 5.05234H7.4069C7.65394 5.05234 7.89224 4.9609 8.07586 4.79564L9.71901 3.3168L10.2301 2.83975C10.2745 2.79833 10.3092 2.74764 10.3318 2.69127C10.3598 2.62112 10.3681 2.54461 10.3557 2.47008L10.3481 2.42494C10.3402 2.377 10.325 2.33051 10.3033 2.28703L10.282 2.24452C10.2423 2.16509 10.1748 2.10299 10.0924 2.07001C10.0496 2.05288 10.0038 2.04408 9.95772 2.04408H8.112C7.56877 2.04408 7.1249 1.61041 7.11227 1.06733L7.09901 0.496966C7.09729 0.423 7.08736 0.349454 7.06942 0.277678L7.05785 0.231405L7.04718 0.199379C7.0291 0.145146 6.99346 0.0984866 6.9459 0.0667766C6.91796 0.048151 6.88664 0.0351792 6.85371 0.0285941L6.79444 0.0167396C6.7391 0.00567204 6.68222 0.00475474 6.62655 0.0140324L6.5413 0.0282409C6.501 0.0349571 6.46381 0.0540965 6.43492 0.082984C6.41341 0.104501 6.39719 0.130731 6.38757 0.159599L6.36364 0.231405L6.35493 0.266245C6.3351 0.345566 6.32507 0.427019 6.32507 0.50878V1.427C6.32507 1.7678 6.04879 2.04408 5.70799 2.04408C5.36719 2.04408 5.09091 1.7678 5.09091 1.427V0.451738C5.09091 0.407862 5.08553 0.364151 5.07489 0.321584L5.0738 0.317242C5.0596 0.26044 5.03574 0.206503 5.00326 0.157786L4.98949 0.137127C4.97999 0.122879 4.96911 0.109604 4.957 0.097495C4.91867 0.05917 4.86933 0.0337775 4.81587 0.0248672L4.73981 0.0121911C4.69145 0.00413082 4.64203 0.00492778 4.59395 0.0145431L4.55444 0.0224463C4.50188 0.0329581 4.4536 0.0587923 4.4157 0.0966933C4.40306 0.109335 4.3917 0.123195 4.38178 0.138071L4.36864 0.157787C4.33616 0.206503 4.3123 0.26044 4.2981 0.317242L4.29701 0.321584C4.28637 0.364151 4.28099 0.407862 4.28099 0.451738V1.04408C4.28099 1.59636 3.83328 2.04408 3.28099 2.04408H2.73099C2.68486 2.04408 2.63915 2.05288 2.59632 2.07001C2.51387 2.10299 2.44638 2.16509 2.40667 2.24452L2.37314 2.31156C2.33428 2.38929 2.31405 2.47499 2.31405 2.56189Z" />
</svg>
