<svg viewBox="0 0 12 14" fill="none" xmlns="http://www.w3.org/2000/svg">
<path d="M0 11.9497C0.978967 12.9287 2.22625 13.5954 3.58411 13.8655C4.94198 14.1356 6.34945 13.997 7.62853 13.4672C8.90761 12.9373 10.0009 12.0401 10.77 10.889C11.5392 9.73785 11.9497 8.38447 11.9497 7C11.9497 5.61553 11.5392 4.26215 10.77 3.11101C10.0009 1.95987 8.90761 1.06266 7.62853 0.532846C6.34945 0.003033 4.94198 -0.13559 3.58411 0.134506C2.22625 0.404603 0.978967 1.07129 0 2.05025L2.4829 4.53315C2.97079 4.04525 3.59241 3.71299 4.26914 3.57838C4.94588 3.44377 5.64733 3.51286 6.28479 3.77691C6.92226 4.04095 7.46711 4.4881 7.85045 5.06181C8.23379 5.63551 8.4384 6.31001 8.4384 7C8.4384 7.68999 8.23379 8.36448 7.85045 8.93819C7.46711 9.5119 6.92226 9.95905 6.28479 10.2231C5.64733 10.4871 4.94588 10.5562 4.26914 10.4216C3.59241 10.287 2.97079 9.95475 2.4829 9.46685L0 11.9497Z"/>
<path d="M6.69974 7C6.69974 7.9665 5.91624 8.75 4.94975 8.75C3.98325 8.75 3.19975 7.9665 3.19975 7C3.19975 6.0335 3.98325 5.25 4.94975 5.25C5.91624 5.25 6.69974 6.0335 6.69974 7Z"/>
</svg>
