<svg width="14" height="14" viewBox="0 0 14 14" fill="#1A53F0" xmlns="http://www.w3.org/2000/svg">
<path d="M12.8378 9.91368L8.93124 13.8256C8.69909 14.0583 8.32327 14.0577 8.09115 13.8262C7.859 13.5946 7.859 13.2188 8.09055 12.9861L10.9914 10.0817H5.04366C2.8149 10.0817 0.996386 8.26853 0.988647 6.03799V0.593717C0.988647 0.265397 1.25402 2.38419e-05 1.58234 2.38419e-05C1.91066 2.38419e-05 2.17603 0.265397 2.17603 0.593717V6.03619C2.18137 7.61246 3.46793 8.89427 5.04363 8.89427H10.9795L8.08994 6.00116C7.85839 5.76844 7.85839 5.39319 8.09055 5.16107C8.20632 5.0459 8.3583 4.98771 8.5103 4.98771C8.66228 4.98771 8.81486 5.0459 8.93064 5.16167L12.8372 9.07419C13.0693 9.30631 13.0693 9.68213 12.8378 9.91368Z" />
</svg>
