<svg width="14" height="14" viewBox="0 0 14 14" xmlns="http://www.w3.org/2000/svg">
<path d="M6.99972 14C3.14009 14 0 10.8598 0 7H1.20609C1.20609 10.1948 3.80528 12.7941 7 12.7941L6.99972 14Z"/>
<path d="M14 7H12.7939C12.7941 3.80501 10.195 1.20614 7 1.20614V0C10.8598 0 14 3.14007 14 7Z"/>
<path d="M9.57157 6.41579C9.39052 5.23823 8.39185 4.36816 7.14603 4.36816C5.87363 4.36816 4.83559 5.22616 4.57637 6.41594H3.46777V7.30396H4.52952C4.67422 8.67709 5.79402 9.68582 7.16701 9.68582C8.22201 9.68582 9.07813 9.26782 9.45475 8.57838L8.52491 7.98291C8.2848 8.37994 7.76233 8.63054 7.1877 8.63054C6.36247 8.63054 5.79833 8.12919 5.67303 7.30396H10.3955L10.6886 6.41594L9.57157 6.41579ZM7.08338 5.32933C7.78331 5.32933 8.31598 5.77837 8.37878 6.41579H5.7147C5.89231 5.74762 6.38345 5.32933 7.08338 5.32933Z"/>
</svg>
