<svg width="14" height="14" viewBox="0 0 14 14" xmlns="http://www.w3.org/2000/svg">
  <path d="M0 0V14H14V0H0ZM4.89431 1.624H6.20325V2.968H4.89431V1.624ZM1.5935 1.624H2.95935V2.968H1.5935V1.624ZM2.90244 4.872V6.216H1.53659V4.872H2.90244ZM2.56098 12.264H1.99187V11.76H2.50407V12.264H2.56098ZM2.95935 9.576H1.5935V8.288H2.95935V9.576ZM5.86179 12.264H5.34959V11.76H5.86179V12.264ZM5.86179 9.128H5.34959V8.624H5.86179V9.128ZM6.26016 6.272H4.89431V4.928H6.26016V6.272ZM9.1626 12.264H8.65041V11.76H9.1626V12.264ZM9.1626 9.128H8.65041V8.624H9.1626V9.128ZM9.1626 5.824H8.65041V5.32H9.1626V5.824ZM9.61789 2.968H8.25203V1.624H9.61789V2.968ZM12.5203 12.264H12.0081V11.76H12.5203V12.264ZM12.5203 9.128H12.0081V8.624H12.5203V9.128ZM12.5203 5.824H12.0081V5.32H12.5203V5.824ZM12.5203 2.576H12.0081V2.072H12.5203V2.576Z"/>
</svg>
