<svg width="14" height="7" viewBox="0 0 14 7" fill="none" xmlns="http://www.w3.org/2000/svg">
<mask id="mask0_2088_22902" style="mask-type:alpha" maskUnits="userSpaceOnUse" x="0" y="0" width="14" height="7">
<rect width="14" height="6.63158" fill="#C4C4C4"/>
</mask>
<g mask="url(#mask0_2088_22902)">
<path d="M9.24426 6.23765L9.06585 6.26735H9.05231C9.03921 6.27084 9.02589 6.27084 9.01279 6.27412L8.9665 6.28067C6.62651 6.66412 4.64681 6.71368 2.91781 6.43593C2.45182 6.35993 1.76768 6.2311 1.18268 5.97998C0.492433 5.68235 0.0993771 5.27925 0.0166171 4.78007C-0.191703 3.5605 1.61635 2.58223 2.21118 2.26167C3.79104 1.40568 5.73776 0.790989 8.1603 0.381119C10.5828 -0.0287504 12.6254 -0.0909842 14.397 0.196165C15.5543 0.384395 17.1137 0.758016 17.2986 1.8518C17.4836 2.94559 16.1354 3.81184 15.1041 4.37042C13.5639 5.20326 11.6801 5.80813 9.34339 6.21778L9.2971 6.22455C9.284 6.22782 9.27068 6.22782 9.25758 6.2311C9.25103 6.23765 9.24753 6.23765 9.24426 6.23765ZM9.04271 6.17214H9.04926L9.23116 6.13917H9.23443C9.24753 6.13589 9.26085 6.13589 9.27417 6.13262L9.32025 6.12607C11.6439 5.71947 13.5176 5.11788 15.0512 4.28831C17.3912 3.0218 17.2425 2.15664 17.1962 1.87233C17.0045 0.722205 15.0281 0.401646 14.3793 0.300106C12.6178 0.0162329 10.5883 0.0754096 8.1758 0.485061C5.76331 0.894713 3.83035 1.50635 2.25638 2.35579C-0.0825204 3.62121 0.0661858 4.48593 0.112479 4.77024C0.307478 5.92037 2.28389 6.23765 2.93178 6.34356C4.65031 6.6211 6.62017 6.57153 8.95012 6.18808L8.99641 6.18153C9.00973 6.17826 9.02284 6.17826 9.03616 6.17498L9.04271 6.17214Z" />
<path d="M9.07221 5.77141C9.02592 5.77796 8.97635 5.78801 8.9235 5.79456C8.82436 5.81115 8.71191 5.82753 8.58962 5.8474L8.57652 5.85068C8.52368 5.85745 8.46734 5.86727 8.40794 5.87382C8.3551 5.88059 8.29876 5.89042 8.23937 5.89697H8.22954C8.14023 5.91029 8.04437 5.92012 7.94851 5.93344H7.9354L7.81312 5.94654C7.77993 5.94981 7.74368 5.95331 7.71049 5.95986H7.70394C6.95364 6.0424 6.23981 6.09197 5.5858 6.10201C4.39616 6.11839 3.44081 6.00943 2.7534 5.77796C2.09569 5.55654 1.67599 5.21939 1.51069 4.77654C1.48233 4.70056 1.46134 4.62202 1.44802 4.54202C1.38841 4.19482 1.47444 3.85111 1.70241 3.524C2.0197 3.06784 2.62129 2.63155 3.49038 2.23173C4.30357 1.85505 5.33468 1.51462 6.55097 1.21699C7.32093 1.02876 7.93912 0.916299 8.2398 0.867603C8.54398 0.814759 9.17178 0.718897 9.95178 0.639631C10.8113 0.553595 12.0671 0.474329 13.181 0.583293C14.1361 0.675879 14.8499 0.89075 15.2991 1.22463C15.6131 1.45915 15.8048 1.75001 15.8612 2.09699C15.8747 2.18005 15.8802 2.26422 15.8775 2.34833V2.34833C15.8644 2.82087 15.5834 3.27376 15.0447 3.69346C14.473 4.13957 13.607 4.55927 12.4735 4.93617C11.8454 5.14427 11.1547 5.33272 10.4176 5.50129C10.3926 5.50835 10.3672 5.51389 10.3416 5.51789L10.0872 5.57401C10.0217 5.58733 9.95833 5.60043 9.89544 5.61375L9.83255 5.62685C9.7963 5.6334 9.76333 5.64017 9.72687 5.64672C9.6904 5.65327 9.65087 5.66332 9.61113 5.66987L9.54846 5.68297C9.42618 5.70612 9.31372 5.72665 9.21458 5.74586C9.16807 5.75481 9.11763 5.76486 9.07221 5.77141ZM7.92863 5.83692H7.94523C8.03782 5.82687 8.1304 5.81377 8.2195 5.80045H8.22954C8.28566 5.7939 8.34178 5.78408 8.39812 5.77731C8.45446 5.77054 8.51363 5.76093 8.56669 5.75416L8.5798 5.75088C8.70208 5.73101 8.81126 5.71464 8.9104 5.70132C9.01609 5.68494 9.09863 5.67162 9.20454 5.65175C9.30367 5.63537 9.41591 5.61222 9.5382 5.58908L9.60109 5.57576C9.63734 5.5692 9.67708 5.56265 9.71354 5.55261C9.74652 5.54606 9.78277 5.53951 9.81596 5.53274L9.87863 5.51964C9.94152 5.50632 10.0042 5.49321 10.0704 5.47989L10.325 5.42377C10.3514 5.41722 10.3745 5.41373 10.401 5.40718C11.1347 5.24188 11.8221 5.05037 12.4468 4.84533C13.5705 4.47192 14.4265 4.05922 14.9884 3.61921C15.5039 3.21589 15.7716 2.78943 15.7847 2.3468C15.7876 2.26928 15.7821 2.19168 15.7684 2.11534C15.7155 1.79543 15.5375 1.52466 15.2427 1.3063C14.806 0.985738 14.1125 0.774143 13.1737 0.685051C12.0666 0.579144 10.8174 0.655135 9.96379 0.74117C9.18379 0.817161 8.55905 0.915862 8.25836 0.965867C7.95768 1.01587 7.33949 1.13117 6.57696 1.31525C5.38382 1.60611 4.32955 1.95331 3.53296 2.32344C2.68025 2.71649 2.09176 3.13968 1.78452 3.58253C1.57314 3.88671 1.49388 4.20727 1.54672 4.52783C1.55939 4.60237 1.57928 4.6755 1.60611 4.74619C1.76159 5.16261 2.15814 5.47989 2.78943 5.69149C3.46636 5.91946 4.40882 6.02515 5.58864 6.00877C6.24374 5.99873 6.95364 5.95265 7.70066 5.86662H7.70721C7.74158 5.86414 7.77577 5.85969 7.80963 5.8533L7.92863 5.83692Z" />
<path d="M5.20893 4.80413L5.19911 4.80063H5.18972L5.19911 4.89322C5.2288 4.88994 5.25523 4.88994 5.28492 4.88667C5.36244 4.88074 5.44025 4.8795 5.51792 4.88296C5.41345 4.86281 5.31028 4.83649 5.20893 4.80413V4.80413ZM6.28896 4.962L6.29988 4.9596L6.28896 4.962ZM6.32565 4.95633H6.32259V4.962L6.32914 4.96069L6.32565 4.95633ZM15.8575 2.10383C15.8011 1.75685 15.6094 1.46599 15.2956 1.23038C14.846 0.896497 14.1322 0.681845 13.1775 0.589258C12.0638 0.480076 10.8078 0.559561 9.94831 0.645378C9.16831 0.724644 8.54052 0.82007 8.23634 0.873351C7.93565 0.922919 7.31768 1.03538 6.5475 1.22382C5.33122 1.52124 4.3001 1.86167 3.48713 2.23835C2.61738 2.63926 2.01579 3.07599 1.69851 3.5315C1.47054 3.85905 1.3845 4.20253 1.44411 4.54951C1.45418 4.60956 1.46878 4.66876 1.48779 4.72661C1.4939 4.74626 1.50067 4.76526 1.50744 4.78426L1.52163 4.82029C1.69632 5.24522 2.11122 5.57015 2.75015 5.78567C3.43778 6.01692 4.3929 6.1261 5.58255 6.10951H5.60199L5.61531 6.09291C5.78672 5.91145 5.97124 5.72388 6.15598 5.56382C6.15969 5.56054 6.16362 5.55748 6.16711 5.55421L6.26975 5.46512H6.11078C5.22837 5.47363 4.51672 5.39458 3.99679 5.22491L3.99221 5.2236L3.99832 5.2212C4.45492 5.03756 4.83334 4.93558 5.18207 4.89628H5.18404C5.43887 4.97598 5.75179 5.02729 6.11711 5.04913C5.9024 5.03777 5.68875 5.01136 5.47774 4.97008C5.43931 4.96222 5.40197 4.95392 5.36528 4.94519C5.35 4.9417 5.33493 4.93777 5.31964 4.93405C5.27597 4.92204 5.23339 4.90981 5.19234 4.89693L5.18251 4.89475H5.17923C5.11678 4.87466 5.05717 4.85238 5.00149 4.82924C4.66127 4.88558 4.28656 4.99956 3.84415 5.18605L3.7365 5.23234L3.72951 5.2354H3.72842L3.84415 5.27907C4.36299 5.47407 5.09342 5.57321 6.01229 5.56993C5.85704 5.70881 5.70833 5.86407 5.56618 6.01277C4.39618 6.02937 3.4642 5.92019 2.78989 5.69549C2.18153 5.49154 1.79109 5.18954 1.62448 4.79496C1.61815 4.78032 1.61225 4.76504 1.60658 4.75019C1.6009 4.73534 1.59478 4.71787 1.58954 4.70128C1.57118 4.64601 1.55702 4.58944 1.54718 4.53204C1.49434 4.21149 1.5736 3.89093 1.7852 3.58696C2.09244 3.1439 2.68049 2.72093 3.53342 2.32766C4.33002 1.95644 5.38428 1.61055 6.57742 1.31969C7.3417 1.13451 7.95901 1.01878 8.25883 0.970304C8.55864 0.921827 9.18425 0.821598 9.96425 0.745607C10.8159 0.65979 12.0662 0.583581 13.1742 0.689488C14.1132 0.77858 14.8069 0.990175 15.243 1.31073C15.5371 1.5291 15.7157 1.79987 15.7686 2.12043C15.7824 2.19677 15.788 2.27437 15.7852 2.35189C15.7719 2.79474 15.5042 3.2212 14.9886 3.6243C14.43 4.06103 13.5806 4.47374 12.4669 4.84387C12.2818 4.74801 12.0835 4.64887 11.8852 4.56305C12.7477 4.25887 13.4055 3.92849 13.8417 3.57801L13.9376 3.49874L13.9177 3.49765L13.8129 3.4887C13.1982 3.44896 12.7388 3.48193 12.3717 3.58784L12.3617 3.59111L12.3518 3.59766C12.137 3.75052 11.8594 3.89835 11.5256 4.03439L11.4793 4.05099C11.39 4.08724 11.2943 4.1237 11.1984 4.15668L11.1388 4.17655C11.1392 4.17295 11.1398 4.16938 11.1406 4.16585C11.1445 4.1427 11.1478 4.11955 11.1504 4.09663C11.1679 3.96426 11.1752 3.83073 11.1722 3.69724C11.1722 3.6754 11.1707 3.65487 11.1694 3.63391C11.1681 3.61295 11.1672 3.59024 11.1655 3.56971C11.1637 3.54919 11.162 3.52604 11.16 3.5042C11.158 3.48237 11.1552 3.46053 11.1524 3.43869C11.1484 3.40987 11.1441 3.38105 11.1391 3.35135C11.134 3.32165 11.1273 3.29392 11.1216 3.26553C11.119 3.2509 11.1159 3.23671 11.1126 3.22186C11.0629 2.99624 10.9805 2.77908 10.8681 2.57725C10.8299 2.50837 10.7883 2.44147 10.7434 2.37679C10.7296 2.35692 10.7156 2.33683 10.7012 2.31718C10.6868 2.29752 10.6768 2.28377 10.6641 2.26761C10.6514 2.25145 10.6368 2.23267 10.6228 2.21542C10.4677 2.02584 10.2853 1.8604 10.0815 1.72453C9.92101 1.61645 9.74787 1.52845 9.56596 1.4625C9.18876 1.32615 8.78393 1.28416 8.38679 1.34021C8.34806 1.34418 8.30957 1.35023 8.27149 1.35834C8.26798 1.35803 8.26444 1.35863 8.26123 1.36008C7.86733 1.43852 7.49858 1.61206 7.18709 1.8656C7.04365 1.97996 6.91466 2.11136 6.80299 2.25691L6.79338 2.26892C6.71833 2.36664 6.6506 2.46977 6.59074 2.57747C6.57895 2.5993 6.56738 2.62114 6.55646 2.64297C6.54707 2.66001 6.53855 2.67769 6.53025 2.69538C6.52196 2.71307 6.51584 2.72508 6.50842 2.74037C6.47562 2.81267 6.44647 2.88657 6.42107 2.96179V2.96353C6.41408 2.98362 6.40753 3.00415 6.40076 3.02424C6.39399 3.04433 6.38854 3.06485 6.38264 3.08538C6.37827 3.10088 6.37369 3.11683 6.36976 3.13277C6.36931 3.13581 6.36858 3.13881 6.36757 3.14172C6.36579 3.14679 6.36433 3.15197 6.36321 3.15722C6.35949 3.17098 6.35622 3.18517 6.35294 3.19937C6.35228 3.20097 6.35183 3.20266 6.35163 3.20439C6.3518 3.20593 6.35141 3.20748 6.35054 3.20876C6.34792 3.21989 6.34574 3.23059 6.34333 3.24217C6.34093 3.25374 6.33897 3.26226 6.337 3.27252C6.33285 3.29436 6.3287 3.31619 6.32521 3.33672C6.31691 3.38454 6.30971 3.43258 6.30337 3.4804C6.30141 3.49656 6.29988 3.51316 6.29857 3.52953C6.2966 3.55137 6.29486 3.57321 6.29355 3.59504C6.28729 3.69305 6.28692 3.79135 6.29246 3.8894C6.29464 3.9287 6.29748 3.96845 6.30184 4.00775C6.30218 4.01639 6.30305 4.02499 6.30447 4.03352C6.3084 4.06125 6.31233 4.08767 6.31626 4.11388C6.31735 4.11955 6.318 4.12501 6.3191 4.13047V4.13331L6.32106 4.14663C6.32084 4.14771 6.32084 4.14883 6.32106 4.14991C6.32156 4.15526 6.32236 4.16058 6.32346 4.16585C6.32499 4.17742 6.32696 4.18768 6.32936 4.20013C6.3506 4.31398 6.37978 4.4262 6.4167 4.53597C6.46593 4.68278 6.52949 4.82438 6.60646 4.95873V4.95873C6.61935 4.98056 6.6331 5.00437 6.64686 5.02751L6.66149 5.05131H6.64424L6.52501 5.05699H6.53047C6.55864 5.05699 6.58616 5.05699 6.61323 5.05546C6.62415 5.05546 6.63507 5.05546 6.64599 5.05546H6.68966L6.77548 5.05219V5.0511L6.72984 4.97947C6.72503 4.97161 6.72001 4.96353 6.71543 4.95523C6.56567 4.7071 6.4639 4.43302 6.41539 4.14729C6.40863 4.10361 6.40207 4.06453 6.3988 4.02151C6.39618 3.99836 6.39378 3.97543 6.39181 3.95229C6.37387 3.75146 6.3829 3.54913 6.41867 3.35069C6.48276 2.97732 6.63719 2.62528 6.8685 2.32525C6.9006 2.28464 6.93401 2.24468 6.96829 2.20603C7.05305 2.1093 7.14574 2.01982 7.2454 1.93853C7.54486 1.6964 7.89875 1.53077 8.27651 1.45595L8.28612 1.45442L8.33591 1.44612L8.39552 1.43608C8.77741 1.38235 9.16665 1.42321 9.52905 1.55508C9.7026 1.61758 9.86795 1.70088 10.0215 1.80315C10.5237 2.13572 10.8778 2.64964 11.0098 3.23736C11.0163 3.2771 11.0264 3.31685 11.0329 3.35965C11.052 3.46889 11.063 3.57939 11.0659 3.69025C11.0694 3.86383 11.0541 4.03727 11.0203 4.20756C11.0195 4.21493 11.0182 4.22223 11.0163 4.22939L10.9997 4.31543L11.0825 4.28879L11.1166 4.27721C11.1535 4.26477 11.1888 4.25188 11.2257 4.23922C11.3249 4.20624 11.4175 4.17 11.5096 4.13353L11.5559 4.11693C11.8909 3.97784 12.1724 3.82913 12.3931 3.67365C12.7235 3.58107 13.1399 3.54809 13.6688 3.57124L13.6649 3.5743C13.222 3.90709 12.5689 4.22 11.7254 4.5065L11.5965 4.55017H11.5978L11.7221 4.59908C11.7257 4.60031 11.7293 4.60177 11.7328 4.60345C11.9733 4.70003 12.2083 4.80974 12.4368 4.93209L12.4567 4.94191H12.47C13.6035 4.56524 14.4695 4.14554 15.0412 3.6992C15.5799 3.27951 15.861 2.82575 15.8741 2.35408C15.8766 2.27032 15.8711 2.18652 15.8575 2.10383V2.10383ZM6.32521 4.95676H6.32259V4.96244L6.32914 4.96113L6.32521 4.95676ZM6.30032 4.96113L6.28874 4.96331L6.30032 4.96113ZM6.29617 5.05939H6.30075C6.31931 5.05939 6.33809 5.0607 6.35731 5.06092H6.40098C6.36233 5.06092 6.32368 5.05874 6.28765 5.05699C6.27796 5.05718 6.26826 5.05681 6.25861 5.0559H6.24267L6.29617 5.05939ZM5.18928 4.80107L5.19867 4.89366C5.22837 4.89038 5.25479 4.89038 5.28449 4.8871C5.362 4.88117 5.43981 4.87993 5.51748 4.88339C5.41315 4.86312 5.31012 4.83666 5.20893 4.80413L5.19911 4.80063L5.18928 4.80107ZM5.2085 4.80456L5.19867 4.80107H5.18928L5.19867 4.89366C5.22837 4.89038 5.25479 4.89038 5.28449 4.8871C5.362 4.88117 5.43981 4.87993 5.51748 4.88339C5.41315 4.86312 5.31012 4.83666 5.20893 4.80413L5.2085 4.80456ZM6.28852 4.96288L6.29944 4.96047L6.28852 4.96288ZM6.32521 4.9572H6.32259V4.96288L6.32914 4.96157L6.32521 4.9572ZM6.32543 4.95698H6.32259V4.96266L6.32914 4.96135L6.32543 4.95698ZM6.28874 4.96244L6.29966 4.96004L6.28874 4.96244ZM5.20893 4.80413L5.19911 4.80063H5.18972L5.19911 4.89322C5.2288 4.88994 5.25523 4.88994 5.28492 4.88667C5.36244 4.88074 5.44025 4.8795 5.51792 4.88296C5.41345 4.86281 5.31028 4.83649 5.20893 4.80413V4.80413Z" />
<path d="M5.20893 4.80413L5.19911 4.80063H5.18972L5.19911 4.89322C5.2288 4.88994 5.25523 4.88994 5.28492 4.88667C5.36244 4.88074 5.44025 4.8795 5.51792 4.88296C5.41345 4.86281 5.31028 4.83649 5.20893 4.80413V4.80413ZM6.28896 4.962L6.29988 4.9596L6.28896 4.962ZM6.32565 4.95633H6.32259V4.962L6.32914 4.96069L6.32565 4.95633ZM15.8575 2.10383C15.8011 1.75685 15.6094 1.46599 15.2956 1.23038C14.846 0.896497 14.1322 0.681845 13.1775 0.589258C12.0638 0.480076 10.8078 0.559561 9.94831 0.645378C9.16831 0.724644 8.54052 0.82007 8.23634 0.873351C7.93565 0.922919 7.31768 1.03538 6.5475 1.22382C5.33122 1.52124 4.3001 1.86167 3.48713 2.23835C2.61738 2.63926 2.01579 3.07599 1.69851 3.5315C1.47054 3.85905 1.3845 4.20253 1.44411 4.54951C1.45418 4.60956 1.46878 4.66876 1.48779 4.72661C1.4939 4.74626 1.50067 4.76526 1.50744 4.78426L1.52163 4.82029C1.69632 5.24522 2.11122 5.57015 2.75015 5.78567C3.43778 6.01692 4.3929 6.1261 5.58255 6.10951H5.60199L5.61531 6.09291C5.78672 5.91145 5.97124 5.72388 6.15598 5.56382C6.15969 5.56054 6.16362 5.55748 6.16711 5.55421L6.26975 5.46512H6.11078C5.22837 5.47363 4.51672 5.39458 3.99679 5.22491L3.99221 5.2236L3.99832 5.2212C4.45492 5.03756 4.83334 4.93558 5.18207 4.89628H5.18404C5.43887 4.97598 5.75179 5.02729 6.11711 5.04913C5.9024 5.03777 5.68875 5.01136 5.47774 4.97008C5.43931 4.96222 5.40197 4.95392 5.36528 4.94519C5.35 4.9417 5.33493 4.93777 5.31964 4.93405C5.27597 4.92204 5.23339 4.90981 5.19234 4.89693L5.18251 4.89475H5.17923C5.11678 4.87466 5.05717 4.85238 5.00149 4.82924C4.66127 4.88558 4.28656 4.99956 3.84415 5.18605L3.7365 5.23234L3.72951 5.2354H3.72842L3.84415 5.27907C4.36299 5.47407 5.09342 5.57321 6.01229 5.56993C5.85704 5.70881 5.70833 5.86407 5.56618 6.01277C4.39618 6.02937 3.4642 5.92019 2.78989 5.69549C2.18153 5.49154 1.79109 5.18954 1.62448 4.79496C1.61815 4.78032 1.61225 4.76504 1.60658 4.75019C1.6009 4.73534 1.59478 4.71787 1.58954 4.70128C1.57118 4.64601 1.55702 4.58944 1.54718 4.53204C1.49434 4.21149 1.5736 3.89093 1.7852 3.58696C2.09244 3.1439 2.68049 2.72093 3.53342 2.32766C4.33002 1.95644 5.38428 1.61055 6.57742 1.31969C7.3417 1.13451 7.95901 1.01878 8.25883 0.970304C8.55864 0.921827 9.18425 0.821598 9.96425 0.745607C10.8159 0.65979 12.0662 0.583581 13.1742 0.689488C14.1132 0.77858 14.8069 0.990175 15.243 1.31073C15.5371 1.5291 15.7157 1.79987 15.7686 2.12043C15.7824 2.19677 15.788 2.27437 15.7852 2.35189C15.7719 2.79474 15.5042 3.2212 14.9886 3.6243C14.43 4.06103 13.5806 4.47374 12.4669 4.84387C12.2818 4.74801 12.0835 4.64887 11.8852 4.56305C12.7477 4.25887 13.4055 3.92849 13.8417 3.57801L13.9376 3.49874L13.9177 3.49765L13.8129 3.4887C13.1982 3.44896 12.7388 3.48193 12.3717 3.58784L12.3617 3.59111L12.3518 3.59766C12.137 3.75052 11.8594 3.89835 11.5256 4.03439L11.4793 4.05099C11.39 4.08724 11.2943 4.1237 11.1984 4.15668L11.1388 4.17655C11.1392 4.17295 11.1398 4.16938 11.1406 4.16585C11.1445 4.1427 11.1478 4.11955 11.1504 4.09663C11.1679 3.96426 11.1752 3.83073 11.1722 3.69724C11.1722 3.6754 11.1707 3.65487 11.1694 3.63391C11.1681 3.61295 11.1672 3.59024 11.1655 3.56971C11.1637 3.54919 11.162 3.52604 11.16 3.5042C11.158 3.48237 11.1552 3.46053 11.1524 3.43869C11.1484 3.40987 11.1441 3.38105 11.1391 3.35135C11.134 3.32165 11.1273 3.29392 11.1216 3.26553C11.119 3.2509 11.1159 3.23671 11.1126 3.22186C11.0629 2.99624 10.9805 2.77908 10.8681 2.57725C10.8299 2.50837 10.7883 2.44147 10.7434 2.37679C10.7296 2.35692 10.7156 2.33683 10.7012 2.31718C10.6868 2.29752 10.6768 2.28377 10.6641 2.26761C10.6514 2.25145 10.6368 2.23267 10.6228 2.21542C10.4677 2.02584 10.2853 1.8604 10.0815 1.72453C9.92101 1.61645 9.74787 1.52845 9.56596 1.4625C9.18876 1.32615 8.78393 1.28416 8.38679 1.34021C8.34806 1.34418 8.30957 1.35023 8.27149 1.35834C8.26798 1.35803 8.26444 1.35863 8.26123 1.36008C7.86733 1.43852 7.49858 1.61206 7.18709 1.8656C7.04365 1.97996 6.91466 2.11136 6.80299 2.25691L6.79338 2.26892C6.71833 2.36664 6.6506 2.46977 6.59074 2.57747C6.57895 2.5993 6.56738 2.62114 6.55646 2.64297C6.54707 2.66001 6.53855 2.67769 6.53025 2.69538C6.52196 2.71307 6.51584 2.72508 6.50842 2.74037C6.47562 2.81267 6.44647 2.88657 6.42107 2.96179V2.96353C6.41408 2.98362 6.40753 3.00415 6.40076 3.02424C6.39399 3.04433 6.38854 3.06485 6.38264 3.08538C6.37827 3.10088 6.37369 3.11683 6.36976 3.13277C6.36931 3.13581 6.36858 3.13881 6.36757 3.14172C6.36579 3.14679 6.36433 3.15197 6.36321 3.15722C6.35949 3.17098 6.35622 3.18517 6.35294 3.19937C6.35228 3.20097 6.35183 3.20266 6.35163 3.20439C6.3518 3.20593 6.35141 3.20748 6.35054 3.20876C6.34792 3.21989 6.34574 3.23059 6.34333 3.24217C6.34093 3.25374 6.33897 3.26226 6.337 3.27252C6.33285 3.29436 6.3287 3.31619 6.32521 3.33672C6.31691 3.38454 6.30971 3.43258 6.30337 3.4804C6.30141 3.49656 6.29988 3.51316 6.29857 3.52953C6.2966 3.55137 6.29486 3.57321 6.29355 3.59504C6.28729 3.69305 6.28692 3.79135 6.29246 3.8894C6.29464 3.9287 6.29748 3.96845 6.30184 4.00775C6.30218 4.01639 6.30305 4.02499 6.30447 4.03352C6.3084 4.06125 6.31233 4.08767 6.31626 4.11388C6.31735 4.11955 6.318 4.12501 6.3191 4.13047V4.13331L6.32106 4.14663C6.32084 4.14771 6.32084 4.14883 6.32106 4.14991C6.32156 4.15526 6.32236 4.16058 6.32346 4.16585C6.32499 4.17742 6.32696 4.18768 6.32936 4.20013C6.3506 4.31398 6.37978 4.4262 6.4167 4.53597C6.46593 4.68278 6.52949 4.82438 6.60646 4.95873V4.95873C6.61935 4.98056 6.6331 5.00437 6.64686 5.02751L6.66149 5.05131H6.64424L6.52501 5.05699H6.53047C6.55864 5.05699 6.58616 5.05699 6.61323 5.05546C6.62415 5.05546 6.63507 5.05546 6.64599 5.05546H6.68966L6.77548 5.05219V5.0511L6.72984 4.97947C6.72503 4.97161 6.72001 4.96353 6.71543 4.95523C6.56567 4.7071 6.4639 4.43302 6.41539 4.14729C6.40863 4.10361 6.40207 4.06453 6.3988 4.02151C6.39618 3.99836 6.39378 3.97543 6.39181 3.95229C6.37387 3.75146 6.3829 3.54913 6.41867 3.35069C6.48276 2.97732 6.63719 2.62528 6.8685 2.32525C6.9006 2.28464 6.93401 2.24468 6.96829 2.20603C7.05305 2.1093 7.14574 2.01982 7.2454 1.93853C7.54486 1.6964 7.89875 1.53077 8.27651 1.45595L8.28612 1.45442L8.33591 1.44612L8.39552 1.43608C8.77741 1.38235 9.16665 1.42321 9.52905 1.55508C9.7026 1.61758 9.86795 1.70088 10.0215 1.80315C10.5237 2.13572 10.8778 2.64964 11.0098 3.23736C11.0163 3.2771 11.0264 3.31685 11.0329 3.35965C11.052 3.46889 11.063 3.57939 11.0659 3.69025C11.0694 3.86383 11.0541 4.03727 11.0203 4.20756C11.0195 4.21493 11.0182 4.22223 11.0163 4.22939L10.9997 4.31543L11.0825 4.28879L11.1166 4.27721C11.1535 4.26477 11.1888 4.25188 11.2257 4.23922C11.3249 4.20624 11.4175 4.17 11.5096 4.13353L11.5559 4.11693C11.8909 3.97784 12.1724 3.82913 12.3931 3.67365C12.7235 3.58107 13.1399 3.54809 13.6688 3.57124L13.6649 3.5743C13.222 3.90709 12.5689 4.22 11.7254 4.5065L11.5965 4.55017H11.5978L11.7221 4.59908C11.7257 4.60031 11.7293 4.60177 11.7328 4.60345C11.9733 4.70003 12.2083 4.80974 12.4368 4.93209L12.4567 4.94191H12.47C13.6035 4.56524 14.4695 4.14554 15.0412 3.6992C15.5799 3.27951 15.861 2.82575 15.8741 2.35408C15.8766 2.27032 15.8711 2.18652 15.8575 2.10383V2.10383ZM6.32521 4.95676H6.32259V4.96244L6.32914 4.96113L6.32521 4.95676ZM6.30032 4.96113L6.28874 4.96331L6.30032 4.96113ZM6.29617 5.05939H6.30075C6.31931 5.05939 6.33809 5.0607 6.35731 5.06092H6.40098C6.36233 5.06092 6.32368 5.05874 6.28765 5.05699C6.27796 5.05718 6.26826 5.05681 6.25861 5.0559H6.24267L6.29617 5.05939ZM5.18928 4.80107L5.19867 4.89366C5.22837 4.89038 5.25479 4.89038 5.28449 4.8871C5.362 4.88117 5.43981 4.87993 5.51748 4.88339C5.41315 4.86312 5.31012 4.83666 5.20893 4.80413L5.19911 4.80063L5.18928 4.80107ZM5.2085 4.80456L5.19867 4.80107H5.18928L5.19867 4.89366C5.22837 4.89038 5.25479 4.89038 5.28449 4.8871C5.362 4.88117 5.43981 4.87993 5.51748 4.88339C5.41315 4.86312 5.31012 4.83666 5.20893 4.80413L5.2085 4.80456ZM6.28852 4.96288L6.29944 4.96047L6.28852 4.96288ZM6.28852 4.96288L6.29944 4.96047L6.28852 4.96288ZM5.20893 4.80413L5.19911 4.80063H5.18972L5.19911 4.89322C5.2288 4.88994 5.25523 4.88994 5.28492 4.88667C5.36244 4.88074 5.44025 4.8795 5.51792 4.88296C5.41345 4.86281 5.31028 4.83649 5.20893 4.80413V4.80413Z" />
<path d="M6.29673 4.95365L6.27948 4.95627H6.27577C6.21506 4.95431 6.15523 4.95169 6.09715 4.94797C6.02305 4.94361 5.95128 4.93778 5.88184 4.93051C5.76654 4.91915 5.6578 4.90394 5.5556 4.88487C5.43623 4.86365 5.31842 4.83447 5.20294 4.79752L5.1929 4.79425H5.18307C5.11953 4.80123 5.05511 4.81041 4.98938 4.82198C4.65485 4.87897 4.288 4.99165 3.85389 5.17136C3.40602 5.00213 3.12412 4.75647 3.01428 4.4405C3.00838 4.42325 3.0027 4.40578 2.99768 4.38787C2.99266 4.36996 2.98982 4.3573 2.98655 4.34201C2.98218 4.32149 2.97868 4.3014 2.97475 4.28218C2.92846 4.01119 3.00118 3.74348 3.18941 3.48908L3.20273 3.47249C3.4604 3.13533 3.92333 2.8115 4.58432 2.51168C4.94162 2.35163 5.30767 2.21187 5.68072 2.09308C6.08863 1.96031 6.53584 1.83563 7.01013 1.72186C7.22107 1.67164 7.4141 1.62709 7.58923 1.59084C7.59774 1.58888 7.60626 1.58713 7.615 1.5856C7.46191 1.66321 7.3178 1.75738 7.18525 1.86642C7.04045 1.98199 6.91035 2.11487 6.79788 2.26209C6.79591 2.26428 6.79395 2.26712 6.79198 2.26974C6.76032 2.31057 6.73018 2.35271 6.7018 2.39551C6.58271 2.57249 6.48769 2.76451 6.41923 2.96654V2.96654C6.41225 2.98663 6.40569 3.00715 6.39892 3.02724C6.39216 3.04733 6.3867 3.06786 6.3808 3.08838C6.37818 3.09726 6.37578 3.10644 6.37359 3.1159C6.37185 3.12245 6.36988 3.129 6.36792 3.13577C6.36748 3.13882 6.36674 3.14181 6.36573 3.14472C6.36395 3.14979 6.36249 3.15497 6.36137 3.16023C6.35765 3.17398 6.35438 3.18818 6.3511 3.20237C6.35044 3.20398 6.34999 3.20567 6.34979 3.20739C6.34996 3.20893 6.34957 3.21048 6.3487 3.21176C6.34608 3.2229 6.3439 3.2336 6.34149 3.24517C6.33909 3.25674 6.33713 3.26526 6.33516 3.27552C6.3347 3.279 6.33397 3.28243 6.33298 3.28579C6.32927 3.3026 6.32621 3.31941 6.32337 3.33623C6.31464 3.38492 6.30787 3.43405 6.30153 3.48341C6.29957 3.49956 6.29804 3.51616 6.29673 3.53254C6.29476 3.55437 6.29302 3.57621 6.29171 3.59805C6.28545 3.69605 6.28508 3.79435 6.29062 3.8924C6.29302 3.93171 6.29608 3.97101 6.30022 4.01054C6.30045 4.01787 6.30125 4.02517 6.30263 4.03237C6.30656 4.0612 6.31092 4.08849 6.31485 4.11557C6.31457 4.11866 6.31517 4.12177 6.3166 4.12452C6.31849 4.13806 6.32046 4.15138 6.3225 4.16448C6.32708 4.19396 6.33232 4.22344 6.33866 4.25183C6.33895 4.2547 6.33946 4.25755 6.34018 4.26035C6.3439 4.27672 6.34761 4.29288 6.3511 4.3086C6.36617 4.37171 6.38255 4.43132 6.40045 4.4881C6.40504 4.5036 6.41006 4.51889 6.41508 4.53417C6.42011 4.54946 6.42753 4.57042 6.43408 4.58855C6.44063 4.60667 6.4474 4.62501 6.45461 4.64314C6.4688 4.67917 6.48365 4.7152 6.49959 4.75079C6.50658 4.76608 6.51313 4.78136 6.52033 4.79621C6.52754 4.81106 6.53453 4.82569 6.54217 4.83988C6.56197 4.8805 6.58337 4.92039 6.60637 4.95955C6.61925 4.98248 6.63301 5.00519 6.64677 5.02833L6.6614 5.05213H6.64415L6.52492 5.05781H6.53038C6.55855 5.05781 6.58606 5.05781 6.61314 5.05628H6.69568L6.78172 5.05301L6.73935 4.98138C6.73433 4.97352 6.72931 4.96544 6.72451 4.95715C6.57485 4.70775 6.47323 4.43252 6.42491 4.1457C6.41836 4.10203 6.41159 4.06294 6.40831 4.01993C6.40548 3.99481 6.40286 3.9697 6.40067 3.94459C6.38371 3.74575 6.39296 3.54554 6.42819 3.34911C6.49242 2.97608 6.64676 2.62437 6.8778 2.32455C6.90247 2.2931 6.92802 2.26231 6.95401 2.23196C7.29705 1.82944 7.76677 1.55554 8.28603 1.45524V1.45371L8.27009 1.36112V1.35938C8.22248 1.36767 8.16484 1.37794 8.0978 1.39016C7.84297 1.43711 7.45493 1.51376 6.99419 1.62381C6.02596 1.85528 5.20622 2.123 4.55178 2.42041C3.88752 2.72437 3.41148 3.0517 3.14377 3.39868L3.13067 3.41528C2.9158 3.69915 2.83325 3.99678 2.8861 4.30096C2.88937 4.32149 2.89374 4.34092 2.89833 4.36036C2.90291 4.37979 2.9075 4.39748 2.91252 4.41669C2.91645 4.43045 2.92082 4.44443 2.9254 4.45818C3.0324 4.78573 3.30274 5.04362 3.72942 5.22639C3.73179 5.2277 3.73428 5.2288 3.73685 5.22966C3.77157 5.24451 3.8076 5.25871 3.8445 5.27334L3.86437 5.27989L3.88097 5.27334C3.92049 5.25674 3.95958 5.24058 3.99779 5.22508L4.00412 5.22268C4.45832 5.04034 4.83391 4.93684 5.18504 4.8971H5.18962C5.23177 4.91042 5.27522 4.92264 5.32064 4.93422C5.27697 4.92221 5.23439 4.90998 5.19334 4.8971L5.18351 4.89491H5.18023C5.11778 4.87482 5.05817 4.85255 5.00249 4.8294C5.06625 4.81848 5.12877 4.8096 5.19006 4.80276L5.19945 4.89535C5.22915 4.89207 5.25557 4.89207 5.28527 4.8888C5.36279 4.88287 5.44059 4.88163 5.51826 4.88509C5.6543 4.91151 5.79161 4.93082 5.92966 4.94295C5.98709 4.94863 6.04649 4.953 6.10741 4.95649C6.16833 4.95998 6.22642 4.96282 6.28778 4.96479H6.29105L6.30197 4.96239L6.31464 4.96086L6.32424 4.95911V4.96479L6.33079 4.96348V4.96479H6.36639C6.42011 4.96479 6.47361 4.96763 6.52492 4.96763H6.60659L6.60462 4.96435H6.51728C6.46662 4.96435 6.41377 4.96195 6.36027 4.96129H6.33844L6.32883 4.95933H6.32272L6.29673 4.95365ZM6.30088 5.06283L6.35613 5.0648H6.3998C6.36115 5.0648 6.3225 5.06262 6.28647 5.06087C6.27677 5.06105 6.26708 5.06069 6.25742 5.05978H6.24913L6.30088 5.06283ZM6.29411 4.95736L6.30066 4.95955L6.29411 4.95736ZM6.602 4.96654H6.51466C6.464 4.96654 6.41115 4.96413 6.35765 4.96348H6.33582L6.32621 4.96151H6.31966V4.96806L6.32621 4.96675V4.96806H6.36268C6.41639 4.96806 6.46989 4.9709 6.52121 4.9709H6.60659L6.602 4.96654Z" />
<path d="M11.0051 4.31748L11.0217 4.23167C11.0582 4.05449 11.0748 3.87381 11.0713 3.69296C11.0684 3.58212 11.0576 3.47163 11.0388 3.36236C11.0322 3.31868 11.0222 3.27982 11.0156 3.24007C10.8837 2.65235 10.5295 2.13843 10.0273 1.80586C9.87378 1.70359 9.70844 1.62029 9.53489 1.55779C9.17249 1.42592 8.78325 1.38506 8.40136 1.43879L8.38477 1.34314C8.60946 1.30668 9.07895 1.23396 9.67312 1.17784C10.3439 1.11233 11.329 1.05228 12.2147 1.13155H12.2212C12.9617 1.19706 13.5235 1.35297 13.8969 1.59426L13.9135 1.60409C14.2077 1.79909 14.3828 2.04693 14.4324 2.34784C14.4399 2.39151 14.4443 2.43566 14.4457 2.47995C14.4588 2.86012 14.254 3.23025 13.8343 3.57395L13.8179 3.58727H13.798C13.2097 3.55081 12.7499 3.5805 12.3933 3.68292C12.1719 3.83839 11.891 3.9871 11.5539 4.12598L11.5076 4.14235C11.415 4.17882 11.3226 4.21507 11.2237 4.24826C11.1776 4.26464 11.1314 4.28123 11.0818 4.29783L11.0051 4.31748ZM9.07174 1.33637C9.2396 1.36032 9.40459 1.4013 9.56415 1.45866C9.74613 1.52461 9.91935 1.61261 10.0799 1.72069C10.4062 1.93823 10.6757 2.23059 10.866 2.57341C10.9784 2.77521 11.0608 2.99228 11.1106 3.2178C11.1204 3.26147 11.1272 3.30384 11.137 3.34685C11.156 3.46022 11.167 3.57478 11.1698 3.68969C11.1736 3.85006 11.1625 4.01043 11.1368 4.16878L11.1962 4.14912C11.2921 4.11593 11.3879 4.07968 11.4772 4.04322L11.5235 4.02684C11.8572 3.89124 12.135 3.74297 12.3498 3.59011L12.3597 3.58334L12.3695 3.58007C12.7331 3.47438 13.1859 3.44468 13.7908 3.48093C14.174 3.16037 14.3625 2.82322 14.3494 2.47951C14.348 2.43847 14.3436 2.3976 14.3361 2.35723C14.2898 2.08951 14.1345 1.86482 13.8734 1.68641L13.8603 1.67637C13.5032 1.44184 12.9512 1.28964 12.2208 1.22042H12.2142C11.3351 1.14094 10.3535 1.20055 9.68251 1.2665C9.45846 1.29008 9.25364 1.31323 9.07174 1.33637Z" />
<path d="M6.32908 4.95857V4.96054L6.33869 4.95857H6.32908ZM6.60466 4.96185H6.51731C6.46665 4.96185 6.41381 4.95945 6.36031 4.95879L6.36533 4.96229C6.41905 4.96229 6.47255 4.96512 6.52386 4.96512H6.60662L6.60466 4.96185ZM6.30331 4.95486L6.28148 4.95814H6.27907C6.21837 4.95617 6.15919 4.95355 6.10133 4.94984C6.03472 4.94613 5.97031 4.94132 5.90764 4.93499C5.77327 4.92233 5.64778 4.90471 5.53118 4.88215C5.42034 4.8616 5.31093 4.83395 5.20363 4.79939L5.19359 4.79611H5.19075L5.18376 4.79371C4.83896 4.67907 4.60509 4.50459 4.4874 4.27313C4.47583 4.25118 4.46554 4.22858 4.45661 4.20544C4.45202 4.19386 4.44744 4.18207 4.44307 4.16984C4.42868 4.12867 4.41773 4.08638 4.41031 4.04341C4.38062 3.88488 4.43346 3.72285 4.56579 3.55755C4.65816 3.44029 4.79049 3.32237 4.96059 3.20358C5.15889 3.06906 5.36716 2.94985 5.58358 2.84699C5.94407 2.67413 6.3149 2.52375 6.69397 2.39672L6.70117 2.3941C6.66056 2.45459 6.62256 2.51661 6.58784 2.58037C6.57605 2.6022 6.56448 2.62404 6.55356 2.64588C6.54417 2.66291 6.53565 2.6806 6.52736 2.69828C6.51906 2.71597 6.51294 2.72798 6.50552 2.74327C6.47272 2.81557 6.44357 2.88947 6.41817 2.96469V2.966C6.41119 2.98609 6.40463 3.00661 6.39787 3.0267C6.3911 3.04679 6.38564 3.06732 6.37974 3.08785C6.37537 3.10335 6.37079 3.11929 6.36686 3.13523C6.36642 3.13828 6.36568 3.14128 6.36467 3.14418C6.36289 3.14925 6.36143 3.15443 6.36031 3.15969C6.35659 3.17345 6.35332 3.18764 6.35004 3.20183C6.34938 3.20344 6.34894 3.20513 6.34873 3.20685C6.3489 3.20839 6.34851 3.20994 6.34764 3.21122C6.34502 3.22236 6.34284 3.23306 6.34044 3.24463C6.33803 3.25621 6.33454 3.27171 6.33192 3.28525C6.3293 3.29879 6.32515 3.31888 6.32231 3.33569C6.31358 3.38438 6.30681 3.43352 6.30047 3.48287C6.29851 3.49903 6.29698 3.51562 6.29567 3.532C6.29371 3.55384 6.29196 3.57567 6.29065 3.59751C6.28475 3.69554 6.28475 3.79383 6.29065 3.89186C6.29305 3.93117 6.29611 3.97047 6.30026 4.01C6.30048 4.01733 6.30128 4.02463 6.30266 4.03184C6.30659 4.06066 6.31096 4.08795 6.31489 4.11503C6.3146 4.11812 6.3152 4.12123 6.31663 4.12398C6.31853 4.13752 6.32049 4.15084 6.32253 4.16395C6.32711 4.19342 6.33236 4.2229 6.33869 4.25129C6.33899 4.25416 6.3395 4.25701 6.34022 4.25981C6.34393 4.27618 6.34764 4.29234 6.35113 4.30807C6.3662 4.37117 6.38258 4.43079 6.40049 4.48756C6.40507 4.50307 6.41009 4.51835 6.41512 4.53364C6.42014 4.54892 6.42756 4.56988 6.43411 4.58801C6.44066 4.60613 6.44743 4.62448 6.45464 4.6426C6.46883 4.67863 6.48368 4.71466 6.49962 4.75025C6.50661 4.76554 6.51316 4.78082 6.52037 4.79567C6.52757 4.81052 6.53456 4.82515 6.5422 4.83935C6.56215 4.87996 6.58355 4.91985 6.6064 4.95901C6.61929 4.98085 6.63304 5.00465 6.6468 5.0278L6.66143 5.0516H6.64418L6.52495 5.05727H6.53041C6.55858 5.05727 6.58609 5.05727 6.61317 5.05575H6.64549C6.64613 5.05553 6.64682 5.05553 6.64746 5.05575H6.69397L6.78 5.05247V5.05138L6.74092 4.98303C6.73502 4.97386 6.72934 4.96447 6.7241 4.9553C6.63851 4.81282 6.5688 4.66139 6.51622 4.50372C6.47669 4.38744 6.44681 4.2681 6.42691 4.14691C6.42036 4.10324 6.41381 4.06415 6.41031 4.02135C6.38393 3.79791 6.39062 3.57181 6.43018 3.35032C6.49441 2.97729 6.64875 2.62558 6.8798 2.32575L6.95273 2.22989L6.97457 2.2002L6.96518 2.20325L6.82433 2.25129L6.80097 2.25915L6.79725 2.26025L6.78939 2.26287C6.55647 2.34017 6.33811 2.41892 6.1343 2.49914C5.92074 2.58342 5.72421 2.66939 5.54472 2.75702C5.04248 2.99832 4.68545 3.24616 4.49045 3.494C4.34175 3.68245 4.28213 3.87396 4.31576 4.05913C4.32277 4.09602 4.33188 4.13247 4.34306 4.16831C4.35026 4.19292 4.35879 4.21712 4.36861 4.24081C4.37254 4.25064 4.3769 4.26046 4.38105 4.27051C4.48521 4.50569 4.68807 4.68977 4.98789 4.82035L4.99247 4.82231L5.00011 4.82581C5.06388 4.81489 5.1264 4.80601 5.18769 4.79917L5.19708 4.89175C5.22678 4.88848 5.2532 4.88848 5.2829 4.8852C5.36042 4.87927 5.43822 4.87803 5.51589 4.88149C5.65157 4.90788 5.78852 4.92719 5.9262 4.93936C5.98363 4.94503 6.04302 4.9494 6.10395 4.9529C6.16487 4.95639 6.22296 4.95923 6.28432 4.96119H6.28759L6.29851 4.95879L6.31117 4.95726L6.32078 4.95552L6.30331 4.95486ZM6.60466 4.96447L6.60269 4.96119H6.51535C6.46468 4.96119 6.41184 4.95879 6.35834 4.95814L6.36336 4.96163C6.41708 4.96163 6.47058 4.96447 6.5219 4.96447H6.60466ZM6.32712 4.95988L6.33672 4.95792H6.32712V4.95988ZM6.30091 5.05815H6.30222L6.35747 5.06011H6.40114C6.36249 5.06011 6.32384 5.05793 6.28781 5.05618C6.27812 5.05637 6.26842 5.056 6.25877 5.05509H6.25047L6.30091 5.05815ZM6.60335 4.96185H6.516C6.46534 4.96185 6.4125 4.95945 6.359 4.95879H6.32275V4.96207L6.3293 4.96076V4.96207H6.36642C6.42014 4.96207 6.47364 4.96491 6.52495 4.96491H6.60662L6.60335 4.96185Z" />
<path d="M11.0058 4.31805L11.0224 4.23223C11.0589 4.05506 11.0755 3.87438 11.072 3.69353C11.0691 3.58269 11.0583 3.4722 11.0395 3.36292C11.0329 3.31925 11.0229 3.28038 11.0163 3.24064C10.8844 2.65292 10.5302 2.139 10.028 1.80642L9.89697 1.71711L10.0555 1.71384C10.5047 1.70665 10.954 1.72648 11.4008 1.77323C11.9559 1.83874 12.3724 1.95164 12.6436 2.11694C12.8549 2.2425 12.9772 2.40081 13.0069 2.5862C13.0168 2.6496 13.0202 2.71384 13.017 2.77793C13.0004 3.09848 12.7955 3.39939 12.4088 3.67322L12.399 3.67977C12.1806 3.83525 11.8968 3.98068 11.5627 4.11934L11.5164 4.13593C11.424 4.1724 11.3314 4.20865 11.2325 4.24162C11.1862 4.25822 11.1399 4.27481 11.0903 4.29119L11.0058 4.31805ZM10.2062 1.80948C10.4774 2.01537 10.7025 2.2757 10.8672 2.57376C10.9795 2.77556 11.0619 2.99263 11.1117 3.21815C11.1216 3.26182 11.1283 3.30418 11.1382 3.3472C11.157 3.46065 11.1678 3.57528 11.1705 3.69025C11.1742 3.85062 11.1632 4.011 11.1375 4.16934L11.1969 4.14969C11.2928 4.1165 11.3886 4.08025 11.4779 4.04378L11.5242 4.02741C11.8579 3.8918 12.1356 3.74353 12.3505 3.59068L12.3603 3.58391C12.7141 3.32951 12.9023 3.05525 12.9156 2.77094C12.919 2.71455 12.9156 2.65796 12.9056 2.60236C12.8792 2.4471 12.7746 2.31478 12.5883 2.20254C12.3306 2.04706 11.9273 1.9381 11.3853 1.87193C10.9937 1.82929 10.6001 1.80844 10.2062 1.80948V1.80948Z" />
<path d="M6.605 4.96186H6.51766C6.467 4.96186 6.41415 4.95946 6.36065 4.95881L6.36568 4.9623C6.41939 4.9623 6.47289 4.96514 6.52421 4.96514H6.60697L6.605 4.96186ZM6.78166 5.05336L6.74257 4.98501C6.73668 4.97584 6.731 4.96645 6.72576 4.95728C6.64017 4.8148 6.57045 4.66337 6.51788 4.5057C6.47834 4.38942 6.44847 4.27008 6.42856 4.14889C6.42201 4.10522 6.41546 4.06613 6.41197 4.02333L6.40214 3.94385H6.40105L6.39188 3.94996L6.33598 3.98621C6.32419 3.99407 6.31218 4.00171 6.3006 4.00979L6.29864 4.0111C6.21363 4.06827 6.1341 4.13318 6.06106 4.20501C5.93812 4.32795 5.87829 4.45089 5.882 4.56815V4.58518C5.88264 4.61316 5.88705 4.64092 5.8951 4.66773C5.8975 4.67668 5.90056 4.68563 5.9034 4.69458C5.92426 4.75445 5.95677 4.80959 5.99904 4.85683C6.02831 4.89002 6.06087 4.92017 6.09621 4.94679C6.09756 4.94813 6.0991 4.94923 6.1008 4.95007L6.10473 4.95335C6.16347 4.95706 6.22374 4.95968 6.2851 4.96164H6.28772L6.28117 4.95815L6.27484 4.95531C6.27292 4.95401 6.27087 4.95291 6.26872 4.95204L6.2554 4.94199H6.25213C6.2423 4.93675 6.23269 4.93107 6.22308 4.92518C6.15349 4.88639 6.09249 4.83386 6.04381 4.77079C6.01619 4.73407 5.99602 4.69231 5.98441 4.64785C5.9831 4.63934 5.98135 4.62973 5.98004 4.62012C5.97873 4.61051 5.97655 4.59479 5.97459 4.58169C5.96454 4.48932 6.01826 4.38669 6.12329 4.27773C6.18157 4.21885 6.24492 4.16521 6.31261 4.11745V4.11745C6.31218 4.12064 6.31218 4.12387 6.31261 4.12706C6.3124 4.12974 6.3124 4.13245 6.31261 4.13513V4.13797L6.31458 4.15129C6.31436 4.15237 6.31436 4.15349 6.31458 4.15457C6.31502 4.15878 6.31582 4.16294 6.31698 4.16702C6.32157 4.1965 6.32681 4.22597 6.33314 4.25436C6.33344 4.25723 6.33395 4.26008 6.33467 4.26288C6.33838 4.27926 6.34209 4.29541 6.34559 4.31114C6.36065 4.37424 6.37703 4.43386 6.39494 4.49063C6.39952 4.50614 6.40454 4.52142 6.40957 4.53671C6.41459 4.55199 6.42201 4.57296 6.42856 4.59108C6.43512 4.6092 6.44188 4.62755 6.44909 4.64567C6.46328 4.6817 6.47813 4.71773 6.49407 4.75332C6.50106 4.76861 6.50761 4.78389 6.51482 4.79874C6.52202 4.81359 6.52901 4.82822 6.53666 4.84242C6.5566 4.88303 6.578 4.92292 6.60085 4.96208C6.61374 4.98392 6.62749 5.00772 6.64125 5.03087L6.65588 5.05467H6.63863L6.5194 5.06034H6.52486C6.55303 5.06034 6.58055 5.06034 6.60762 5.05882H6.69017L6.7762 5.05554L6.78166 5.05336ZM6.60697 4.96601L6.605 4.96274H6.51766C6.467 4.96274 6.41415 4.96033 6.36065 4.95968L6.36568 4.96317C6.41939 4.96317 6.47289 4.96601 6.52421 4.96601H6.60697ZM6.605 4.96274H6.51766C6.467 4.96274 6.41415 4.96033 6.36065 4.95968H6.33882L6.32921 4.96164V4.96295H6.36677C6.42049 4.96295 6.47398 4.96579 6.5253 4.96579H6.60697L6.605 4.96274Z" />
<path d="M11.0061 4.31781L11.0227 4.23199C11.0592 4.05482 11.0758 3.87414 11.0723 3.69329C11.0694 3.58244 11.0586 3.47195 11.0397 3.36268C11.0332 3.31901 11.0231 3.28014 11.0166 3.2404L11 3.16113L11.0793 3.181C11.1857 3.20612 11.2895 3.24151 11.3891 3.28669C11.5677 3.36945 11.673 3.47514 11.7031 3.59742C11.7064 3.61402 11.7097 3.6304 11.713 3.65027C11.7361 3.8123 11.6767 3.97083 11.5313 4.12281L11.5247 4.12958L11.5147 4.13285C11.4223 4.1691 11.3297 4.20557 11.2308 4.23854C11.1845 4.25514 11.1382 4.27173 11.0887 4.28811L11.0061 4.31781ZM11.1286 3.29674L11.1384 3.34631C11.1573 3.45997 11.1681 3.57483 11.1708 3.69001C11.1745 3.85038 11.1635 4.01076 11.1378 4.1691L11.1972 4.14945C11.2898 4.11626 11.3791 4.08394 11.4682 4.04682C11.5839 3.91798 11.6335 3.78915 11.6171 3.66359C11.6136 3.65027 11.6136 3.63717 11.6103 3.61992C11.5872 3.52733 11.4981 3.44522 11.3483 3.37535C11.2771 3.3438 11.2037 3.31752 11.1286 3.29674Z" />
<path d="M13.0652 5.24337C12.9165 5.1807 12.7376 5.08811 12.5496 4.99225L12.4404 4.93613L12.4867 4.8501L12.5959 4.90644C12.7841 5.0023 12.9595 5.09467 13.1049 5.15428L13.0652 5.24337Z" />
<path d="M11.5712 4.10896L11.5083 4.03297C11.7527 3.83355 12.0332 3.68319 12.3346 3.59012C12.3447 3.58733 12.3546 3.58398 12.3643 3.58008L12.3874 3.67594C12.3809 3.67922 12.3708 3.67922 12.3643 3.68249C12.0753 3.77302 11.8061 3.91775 11.5712 4.10896V4.10896Z" />
<path d="M11.2505 4.22531L11.1704 4.1657C11.339 3.94733 11.4844 3.7757 11.6233 3.62372C12.0463 3.16515 12.4627 2.88019 12.9354 2.72842L12.9453 2.72515C13.3486 2.59631 13.8211 2.49717 14.3895 2.42773C14.8699 2.36834 15.358 2.33187 15.8272 2.2989L15.8768 2.29562C16.3572 2.26243 16.8055 2.23011 17.2353 2.17334L17.2484 2.27248C16.8156 2.3286 16.3627 2.36157 15.8834 2.39476L15.8338 2.39804C15.3645 2.43101 14.8787 2.46748 14.3996 2.52687C13.8377 2.59631 13.3682 2.69217 12.9717 2.82101L12.9619 2.82428C12.509 2.96971 12.1059 3.24747 11.6927 3.69359C11.5611 3.83859 11.4189 4.01044 11.2505 4.22531Z" />
<path d="M11.1609 3.71975L11.0781 3.66691C11.1674 3.52803 11.2467 3.40902 11.3229 3.30333C11.7195 2.75131 12.1127 2.3779 12.5689 2.12679L12.5754 2.12351C12.5813 2.12072 12.5869 2.11735 12.592 2.11347C12.939 1.92174 13.3587 1.75316 13.8677 1.59136H13.871C14.304 1.45575 14.7368 1.34679 15.2559 1.21773L15.2856 1.21118C15.7118 1.1055 16.1154 1.00636 16.4986 0.890625L16.5283 0.983212C16.1448 1.09894 15.7385 1.20158 15.312 1.30705L15.2823 1.3136C14.7635 1.44265 14.3304 1.55161 13.8974 1.68722H13.8942C13.3919 1.84575 12.9786 2.01476 12.6348 2.20278C12.6283 2.20605 12.625 2.20933 12.6217 2.20933L12.615 2.2126C12.1754 2.45717 11.7889 2.82075 11.4022 3.36273C11.3295 3.46536 11.2502 3.58415 11.1609 3.71975Z" />
<path d="M10.8673 2.61895L10.7812 2.56938C10.9274 2.30626 11.1038 2.06112 11.3069 1.83895C11.3234 1.82235 11.3398 1.80248 11.3564 1.78611C11.5713 1.56468 11.8456 1.34938 12.1893 1.13101L12.1991 1.12446C12.5 0.933393 12.8238 0.760886 13.1544 0.586194L13.204 0.559554C13.4717 0.417617 13.7261 0.285288 13.9609 0.149902L14.0104 0.235719C13.7724 0.374599 13.5178 0.506709 13.2501 0.648865L13.2014 0.675505C12.8677 0.850196 12.5437 1.02249 12.243 1.21421L12.2332 1.22098C11.896 1.43236 11.6316 1.64068 11.4235 1.85555L11.3739 1.90511C11.1817 2.12565 11.012 2.36478 10.8673 2.61895V2.61895Z" />
<path d="M9.59503 1.52505L9.50244 1.4888C9.53869 1.39949 9.58171 1.31017 9.63346 1.19794C9.72277 1.01604 9.82191 0.834359 9.91449 0.665782L9.94747 0.609444C10.0302 0.456589 10.1193 0.302205 10.1953 0.150879L10.2846 0.194552C10.2086 0.347407 10.1193 0.505284 10.0368 0.657265L10.0036 0.713603C9.91122 0.882181 9.81208 1.06058 9.72277 1.24226C9.67102 1.35035 9.628 1.43879 9.59503 1.52505Z" />
<path d="M7.18223 1.93454C7.11672 1.85855 7.04335 1.78583 6.96387 1.70635C6.82826 1.57096 6.68611 1.4454 6.52714 1.30325L6.48346 1.26678C6.34458 1.14122 6.21247 1.02658 6.08691 0.903424L6.15635 0.833984C6.27864 0.952993 6.41075 1.07178 6.54941 1.19407L6.59308 1.23053C6.75161 1.37269 6.89377 1.50152 7.03265 1.63713C7.11192 1.71639 7.18551 1.79239 7.25407 1.86838L7.18223 1.93454Z" />
<path d="M12.3928 3.67289C12.1713 3.82837 11.8905 3.97707 11.5531 4.11573L11.5069 4.13233C11.4145 4.1688 11.3219 4.20504 11.223 4.23802C11.1872 4.25068 11.1518 4.26357 11.1138 4.27601C11.1024 4.28016 11.092 4.28366 11.0797 4.28759L10.997 4.31423L11.0136 4.22819C11.0149 4.22098 11.0166 4.214 11.0175 4.20635C10.9157 4.23998 10.8055 4.27361 10.6865 4.3103C10.4749 4.37319 10.2469 4.43258 9.99556 4.49219C9.74771 4.55159 9.48327 4.60793 9.21228 4.6575C9.09 4.68064 8.98082 4.70044 8.88474 4.71689C8.79215 4.73021 8.67991 4.74986 8.55413 4.76973C8.27026 4.81603 8.01543 4.85249 7.77414 4.87892C7.51647 4.90861 7.2719 4.93176 7.04043 4.94443C6.93496 4.95054 6.82665 4.95382 6.72293 4.95644H6.71201C6.7166 4.96473 6.72162 4.97281 6.72642 4.98067L6.77206 5.0523H6.7808C6.84259 5.05077 6.90374 5.04815 6.96422 5.04509L7.05594 5.04007C7.2874 5.02697 7.53525 5.00382 7.7927 4.97456C8.03399 4.94814 8.28838 4.91167 8.57597 4.86538C8.62925 4.85839 8.6802 4.85111 8.72883 4.84354L8.81202 4.82979L8.84216 4.82433L8.90767 4.81319C9.00353 4.79659 9.11577 4.77672 9.23805 4.75379C9.51254 4.70423 9.77676 4.64789 10.0281 4.58849C10.1401 4.56229 10.2465 4.53565 10.35 4.50813L10.3556 4.50682C10.4845 4.47276 10.6068 4.43804 10.7253 4.40332C10.8544 4.36707 10.9732 4.32733 11.0856 4.29108L11.1151 4.28082C11.1538 4.26793 11.1907 4.25461 11.2278 4.24151C11.3269 4.20832 11.4195 4.17207 11.5117 4.1356L11.558 4.11923C11.8951 3.98035 12.1761 3.83164 12.3976 3.67617C12.7264 3.58402 13.14 3.55104 13.666 3.57354L13.67 3.57048C13.1402 3.54733 12.7238 3.5803 12.3928 3.67289ZM6.3028 4.95491L6.28096 4.95818H6.27856C6.21785 4.95622 6.15868 4.9536 6.10081 4.94989C6.03421 4.94617 5.96979 4.94137 5.90712 4.93504C5.77275 4.92237 5.64727 4.90476 5.53066 4.88219C5.41982 4.86164 5.31041 4.834 5.20311 4.79943L5.19307 4.79616H5.18324C5.12145 4.80314 5.05856 4.81166 4.99458 4.82258C4.6548 4.87957 4.28074 4.99312 3.83856 5.1796L3.72937 5.2259L3.72217 5.22917L3.72981 5.23223L3.83899 5.27219C4.3849 5.47702 5.1577 5.57615 6.13924 5.56305H6.1578C6.44342 5.55956 6.7511 5.54668 7.06795 5.52375L7.12428 5.52047C7.14394 5.5172 7.16796 5.5172 7.18979 5.51392L7.21622 5.51064C7.34854 5.5006 7.47825 5.49077 7.60294 5.47745C7.67893 5.4709 7.75164 5.46108 7.8213 5.45431L7.96346 5.43793C8.02635 5.43116 8.08902 5.42133 8.14863 5.41478L8.16501 5.41129C8.36328 5.38829 8.55501 5.36187 8.74018 5.33202C8.83932 5.31892 8.92186 5.3056 8.9913 5.2925C9.06074 5.2794 9.14656 5.26608 9.22932 5.24621C9.42432 5.20974 9.61604 5.17021 9.80776 5.1272C9.87327 5.11388 9.93987 5.10078 10.0093 5.08352L10.1447 5.05055C10.2076 5.03396 10.2705 5.02064 10.3364 5.00426C10.4554 4.97784 10.5766 4.94464 10.7033 4.91167L10.7793 4.8918C10.8092 4.88525 10.8356 4.87542 10.8653 4.86865L10.8751 4.86538C11.1747 4.78087 11.4647 4.69287 11.7353 4.60203C11.7394 4.60028 11.7436 4.59897 11.7477 4.59766H11.751C12.6797 4.28366 13.3771 3.93667 13.8298 3.56655L13.9191 3.49274L13.9257 3.48728L13.8001 3.48051C13.1854 3.44099 12.726 3.47396 12.3589 3.57965L12.3491 3.58314L12.339 3.58969C12.1244 3.74255 11.8466 3.89038 11.5128 4.02642L11.4667 4.0428C11.3774 4.07927 11.2815 4.11552 11.1856 4.14871L11.142 4.16443H11.1407C11.1094 4.17535 11.0789 4.18627 11.0476 4.19762L11.0219 4.20592C10.9201 4.23955 10.8098 4.27317 10.6908 4.30986C10.4792 4.37275 10.2513 4.43214 9.99992 4.49176C9.75208 4.55115 9.48764 4.60749 9.21665 4.65706C9.09437 4.68021 8.98518 4.7 8.8891 4.71645C8.79652 4.72977 8.68428 4.74943 8.5585 4.7693C8.27463 4.81559 8.0198 4.85206 7.7785 4.87848C7.52083 4.90818 7.27627 4.93132 7.0448 4.94399C6.93933 4.9501 6.83102 4.95338 6.7273 4.956H6.71529L6.6869 4.95709C6.65982 4.95884 6.63362 4.95949 6.6072 4.96015H6.51876C6.4681 4.96015 6.41526 4.95775 6.36176 4.95709H6.32223V4.96037L6.32878 4.95906V4.96037H6.3659C6.41962 4.96037 6.47312 4.96321 6.52444 4.96321H6.60611L6.60414 4.95993H6.60611C6.61899 4.98286 6.63275 5.00557 6.6465 5.02871L6.66113 5.05252H6.68908C6.71747 5.05252 6.74564 5.05252 6.77403 5.05142H6.7808C6.84259 5.0499 6.90374 5.04728 6.96422 5.04422L7.05594 5.0392C7.2874 5.02609 7.53525 5.00295 7.7927 4.97369C8.03399 4.94726 8.28838 4.9108 8.57597 4.8645C8.62925 4.85752 8.6802 4.85024 8.72883 4.84267L8.81202 4.82891L8.84216 4.82345L8.90767 4.81232C9.00353 4.79572 9.11577 4.77585 9.23805 4.75292C9.51254 4.70335 9.77676 4.64701 10.0281 4.58762C10.1401 4.56142 10.2465 4.53477 10.35 4.50726L10.3556 4.50595C10.4845 4.47189 10.6068 4.43717 10.7253 4.40245C10.8544 4.3662 10.9732 4.32646 11.0856 4.29021L11.1151 4.27994C11.1538 4.26706 11.1907 4.25374 11.2278 4.24064C11.3269 4.20745 11.4195 4.1712 11.5117 4.13473L11.558 4.11835C11.8951 3.97947 12.1761 3.83077 12.3976 3.67529C12.7264 3.58314 13.14 3.55017 13.666 3.57266H13.6732C13.2304 3.90654 12.5792 4.21727 11.7333 4.50464H11.7298L11.5988 4.54831C11.3634 4.6254 11.1166 4.69942 10.8605 4.76908L10.8505 4.77236C10.8208 4.77912 10.7943 4.78895 10.7646 4.7955L10.672 4.81865C10.553 4.85184 10.434 4.88154 10.3227 4.90796C10.2572 4.92455 10.1936 4.93766 10.1309 4.95425L9.99534 4.98723C9.9259 5.00055 9.85995 5.01692 9.79379 5.0309C9.60206 5.07064 9.41034 5.11016 9.21862 5.14663C9.12625 5.16301 9.04393 5.17633 8.97077 5.1903C8.89762 5.20428 8.81792 5.21694 8.72293 5.23005C8.54125 5.25647 8.34625 5.28617 8.15125 5.30931L8.13466 5.31259C8.07526 5.32263 8.01237 5.32918 7.94948 5.33573L7.80755 5.35233C7.73811 5.36216 7.66539 5.36893 7.59268 5.37548C7.46712 5.3853 7.33806 5.39862 7.20923 5.40845L7.18608 5.41173C7.16293 5.41522 7.14241 5.41522 7.12057 5.4185L7.06445 5.42177C6.77752 5.4423 6.50107 5.45474 6.23947 5.45977L6.13902 5.46151H6.11588C5.23521 5.47003 4.52531 5.39142 4.00495 5.2224L4.00015 5.22109H3.99731C4.45391 5.03723 4.82862 4.93482 5.1839 4.89486H5.18062C5.11817 4.87477 5.05856 4.85249 5.00287 4.82935C5.06664 4.81843 5.12916 4.80955 5.19045 4.80271L5.19984 4.89529C5.22954 4.89202 5.25596 4.89202 5.28566 4.88874C5.36318 4.88281 5.44098 4.88157 5.51865 4.88503C5.6544 4.91142 5.79142 4.93074 5.92918 4.9429C5.98661 4.94858 6.046 4.95294 6.10693 4.95644C6.16785 4.95993 6.22593 4.96277 6.28729 4.96473H6.29057L6.30149 4.96233L6.31415 4.9608L6.32376 4.95906" />
<path d="M6.34252 3.37877C6.12197 3.18665 5.8802 3.02035 5.62192 2.88308L5.54265 2.84334C5.26489 2.70773 4.94106 2.60204 4.55434 2.51273C4.21718 2.43347 3.86365 2.38062 3.50335 2.3245L3.44395 2.31446C3.14305 2.26817 2.85896 2.22537 2.58447 2.17252L2.60434 2.07666C2.87861 2.1295 3.16292 2.17252 3.46033 2.2186L3.51995 2.22864C3.88352 2.28476 4.23705 2.33782 4.57748 2.41709C4.97403 2.50618 5.30136 2.61864 5.58545 2.75403L5.66494 2.79377C5.93093 2.9336 6.17942 3.10446 6.40519 3.30278L6.34252 3.37877Z" />
<path d="M6.43458 4.55582C6.30247 4.45341 6.18019 4.36082 6.06118 4.27828C5.52248 3.90138 5.04317 3.67669 4.55075 3.57755L4.51778 3.571C4.14088 3.49828 3.70132 3.47186 3.16916 3.49173H3.16589C2.68658 3.50811 2.18762 3.55724 1.74805 3.60091H1.73822C1.28206 3.64721 0.852319 3.69023 0.452494 3.7066L0.449219 3.60747C0.845768 3.59109 1.27551 3.54807 1.72818 3.50178H1.73822C2.17779 3.4581 2.67719 3.40919 3.15934 3.3926H3.16261C3.70132 3.37272 4.15093 3.39915 4.53416 3.47514L4.56735 3.48169C5.07286 3.5841 5.56528 3.81229 6.11402 4.19901C6.23303 4.28483 6.35859 4.37371 6.4907 4.47983L6.43458 4.55582Z" />
<path d="M6.5535 4.9651H6.5238C6.47248 4.9651 6.41898 4.96292 6.36527 4.96226L6.36024 4.95877C6.24669 4.88715 6.14319 4.82557 6.04493 4.77076C6.00125 4.7463 5.95758 4.72294 5.91609 4.70066L5.90452 4.69477C5.3942 4.424 4.94371 4.29014 4.48515 4.27289C4.46331 4.27289 4.44257 4.27158 4.42139 4.27136H4.38099C3.99099 4.27136 3.54444 4.32748 3.01337 4.4395C2.99678 4.44277 2.9804 4.44605 2.96381 4.44976C2.9507 4.45282 2.93716 4.45544 2.92384 4.45828C2.47773 4.55545 2.02724 4.67992 1.62327 4.79194L1.56911 4.80679L1.52042 4.81967C1.05115 4.952 0.608309 5.07428 0.195164 5.1601L0.175293 5.06424C0.582979 4.97864 1.02364 4.85745 1.48744 4.72577L1.494 4.72381L1.54356 4.71071L1.5892 4.69804C1.99427 4.5858 2.44934 4.4609 2.89764 4.36023L2.94131 4.35041L2.9863 4.3408C3.5119 4.22812 3.95671 4.17157 4.34365 4.16895H4.44191C4.91183 4.17899 5.37127 4.30564 5.88312 4.56768C5.90845 4.58056 5.934 4.59432 5.95976 4.60786C5.96697 4.61179 5.97418 4.61528 5.9816 4.61965C6.1493 4.70918 6.33295 4.82033 6.54935 4.96139L6.5535 4.9651Z" />
<path d="M6.31294 4.95772L6.30027 4.95925L6.28935 4.96165H6.28608C6.22472 4.95969 6.16445 4.95706 6.10571 4.95335C6.04697 4.94964 5.98539 4.94549 5.92796 4.93981L5.90809 4.93523C5.89936 4.93283 5.89084 4.9313 5.88189 4.92933C5.77452 4.90552 5.66543 4.89026 5.55565 4.88369V4.88369C5.54801 4.88369 5.54015 4.8826 5.5325 4.88238H5.51962C5.44195 4.87893 5.36414 4.88017 5.28662 4.8861C5.25693 4.88937 5.23051 4.88937 5.20081 4.89265L5.18945 4.80006V4.79351C5.21909 4.7898 5.2489 4.78761 5.27876 4.78696C5.52164 4.77017 5.76561 4.79393 6.00068 4.85727C6.07434 4.87634 6.14902 4.89905 6.22472 4.9254C6.23433 4.92868 6.24415 4.93195 6.25376 4.93567H6.26031L6.27036 4.94222L6.29743 4.95292L6.30398 4.9551C6.30676 4.9561 6.30961 4.9569 6.3125 4.9575L6.31294 4.95772Z" />
<path d="M1.88412 6.20147L1.84766 6.11215C2.13153 5.99315 2.42938 5.84772 2.74295 5.69246L2.7661 5.68241C3.11548 5.51056 3.47665 5.33303 3.84023 5.18018L3.87648 5.26927C3.51618 5.42212 3.15588 5.59681 2.80911 5.76845L2.78597 5.78155C2.46912 5.93703 2.17149 6.08246 1.88412 6.20147Z" />
<path d="M9.0723 5.77228C9.02601 5.77883 8.97644 5.78887 8.92359 5.79543C8.82446 5.81202 8.712 5.8284 8.58972 5.84827L8.56002 5.85154C8.51045 5.85831 8.46088 5.86486 8.40716 5.87142C8.35345 5.87797 8.29798 5.88801 8.23859 5.89456H8.22876C8.13945 5.90788 8.04359 5.91771 7.94772 5.93103H7.93855L7.81627 5.94413C7.07565 6.03271 6.33102 6.08373 5.58524 6.09699L5.46973 6.10026L5.54899 6.01444C5.72368 5.82927 5.91584 5.63427 6.10757 5.46853L6.12067 5.45521H6.13727C6.46481 5.45194 6.81813 5.43534 7.18542 5.40564L7.21184 5.40237C7.34286 5.39232 7.47387 5.37922 7.59528 5.3694C7.67128 5.36263 7.74814 5.3528 7.81998 5.34625L7.95209 5.32965C8.01498 5.3231 8.07438 5.31633 8.13071 5.30651L8.15037 5.30323C8.34886 5.28009 8.54037 5.25039 8.72226 5.22397C8.81805 5.21057 8.90067 5.19732 8.97011 5.18422C9.04282 5.1709 9.12536 5.1578 9.21795 5.14055C9.40967 5.1043 9.6014 5.06456 9.79312 5.02482C9.85863 5.01172 9.92523 4.99512 9.99467 4.98114L10.1434 4.94468C10.203 4.93158 10.2624 4.91826 10.3218 4.901C10.4343 4.87466 10.55 4.84496 10.669 4.81191L10.7613 4.78877C11.0985 4.69618 11.4226 4.60032 11.7222 4.4979L11.742 4.49463L11.7551 4.4979C12.0001 4.59573 12.2484 4.72129 12.4805 4.8403L12.5862 4.89314L12.474 4.92961C11.7591 5.16316 11.033 5.36073 10.2984 5.5216L10.1004 5.56527C10.0276 5.58165 9.95842 5.59497 9.89226 5.60894L9.82937 5.62226C9.79312 5.62881 9.75993 5.63536 9.72368 5.64213C9.68743 5.6489 9.64769 5.65851 9.61122 5.66528L9.54855 5.67838C9.42627 5.70153 9.31381 5.72205 9.21467 5.74127C9.16835 5.75627 9.12066 5.76665 9.0723 5.77228V5.77228ZM7.92873 5.83779H7.94205C8.03463 5.82774 8.127 5.81464 8.21631 5.80132H8.22636C8.28248 5.79477 8.3386 5.78494 8.39144 5.77817C8.44428 5.7714 8.49735 5.76507 8.5443 5.75852L8.57072 5.75503C8.693 5.73537 8.80197 5.71878 8.9011 5.70546C8.95023 5.69512 8.99987 5.6874 9.04981 5.68231C9.0961 5.67576 9.14567 5.66593 9.19524 5.65589C9.29438 5.63951 9.40684 5.61637 9.52912 5.59322L9.59201 5.5799C9.62826 5.57335 9.6645 5.5668 9.70425 5.55675C9.73722 5.5502 9.77369 5.54365 9.80666 5.53688L9.86955 5.52378C9.93506 5.51046 10.0049 5.49408 10.0777 5.48011L10.2726 5.43643C11.0098 5.27135 11.7005 5.08705 12.3253 4.88463C12.1336 4.78549 11.9322 4.68963 11.7335 4.61036C11.4361 4.7095 11.1155 4.80864 10.7817 4.89773L10.7057 4.9176C10.5801 4.95057 10.4578 4.98311 10.3388 5.01019C10.2794 5.02329 10.2198 5.03988 10.1604 5.05386L10.0076 5.09011C9.93812 5.1067 9.87195 5.11981 9.80579 5.13378C9.61406 5.17745 9.41906 5.21632 9.22756 5.25279C9.13497 5.26917 9.05287 5.28576 8.9795 5.29646C8.9102 5.30956 8.8265 5.32274 8.72838 5.33599C8.54335 5.3651 8.3517 5.39152 8.15342 5.41525L8.13355 5.41875C8.07394 5.4253 8.01454 5.43185 7.95166 5.44189L7.81954 5.45827C7.74683 5.46482 7.67084 5.47487 7.59157 5.48142C7.46579 5.49474 7.33696 5.50456 7.20485 5.51461L7.17843 5.51788C6.81485 5.54431 6.46765 5.56156 6.14382 5.56745C5.98856 5.70284 5.83308 5.85831 5.68787 6.0103C6.33882 5.99698 7.0461 5.94479 7.78985 5.85744L7.92851 5.83757L7.92873 5.83779Z" />
<path d="M5.12947 6.5885L5.06396 6.51578C5.18297 6.40988 5.32164 6.26117 5.46707 6.10591L5.54983 6.0166L5.62254 6.08604L5.53978 6.17186C5.39042 6.33061 5.25263 6.47932 5.12947 6.5885Z" />
<path d="M11.1154 4.18979L11.0718 4.27881L11.7218 4.59738L11.7654 4.50836L11.1154 4.18979Z" />
<path d="M6.64994 5.05518L6.64645 5.05845C6.61413 5.09011 6.39227 5.30586 6.23854 5.45893C6.23706 5.46071 6.23545 5.46239 6.23374 5.46395L6.18068 5.51702L6.1084 5.46723L6.11495 5.46068L6.12172 5.45391C6.12172 5.45391 6.44643 5.10562 6.52482 5.06085L6.64405 5.05518H6.64994Z" />
<path d="M6.68947 5.05508H6.64427L6.52504 5.06075H6.40232C6.36367 5.06075 6.32502 5.05857 6.28899 5.05682C6.2793 5.05701 6.2696 5.05664 6.25995 5.05573H6.20121L6.17937 5.05464H6.16038C6.15493 5.05508 6.14945 5.05508 6.144 5.05464H6.11758C5.90287 5.04328 5.68922 5.01687 5.47821 4.97559C5.43977 4.96773 5.40243 4.95943 5.36575 4.9507C5.35046 4.9472 5.3354 4.94327 5.32011 4.93956C5.27644 4.92755 5.23386 4.91532 5.1928 4.90244L5.18298 4.90026H5.1797C5.11725 4.88017 5.05764 4.85789 5.00195 4.83475C5.06572 4.82383 5.12824 4.81495 5.18953 4.80811L5.19892 4.90069C5.22862 4.89742 5.25504 4.89742 5.28474 4.89414C5.36225 4.88821 5.44006 4.88697 5.51773 4.89043C5.6534 4.91681 5.79036 4.93613 5.92804 4.9483C5.98547 4.95397 6.04486 4.95834 6.10579 4.96183C6.16671 4.96533 6.22479 4.96817 6.28615 4.97013H6.28943L6.30035 4.96773L6.31301 4.9662L6.32262 4.96445V4.97013L6.32917 4.96882V4.97013H6.36629C6.42001 4.97013 6.47351 4.97297 6.52483 4.97297H6.60649L6.60453 4.9697H6.60649C6.61938 4.99153 6.63313 5.01533 6.64689 5.03848L6.66152 5.06228L6.68947 5.05508Z" />
<path d="M11.1483 4.09575C11.145 4.11911 11.1413 4.14248 11.1371 4.16562C11.1317 4.19576 11.1258 4.22589 11.1192 4.25559L11.1147 4.27633L11.1133 4.28114V4.2831L11.0869 4.29206C10.9577 4.33573 10.8314 4.37329 10.7251 4.40495C10.6091 4.43945 10.4849 4.47308 10.3539 4.50714L10.3482 4.50845C10.2471 4.53466 10.1405 4.56064 10.0279 4.5875C9.74398 4.65585 9.48085 4.70738 9.23891 4.75302C9.13693 4.77246 9.03146 4.79145 8.90787 4.81285L8.84105 4.82465L8.81091 4.83011L8.72772 4.84386C8.68011 4.85129 8.62858 4.85871 8.57486 4.8657C8.29492 4.9109 8.03812 4.94649 7.79071 4.97488C7.5361 5.00371 7.28848 5.02576 7.05133 5.04039L6.96399 5.04541C6.9035 5.04847 6.84236 5.05109 6.78056 5.05262H6.77379C6.7454 5.05262 6.71724 5.05262 6.68885 5.05262H6.6609L6.64627 5.02882C6.63251 5.00567 6.61875 4.98296 6.60587 4.96003C6.58287 4.91985 6.56147 4.87997 6.54167 4.84037C6.53403 4.82552 6.52682 4.81045 6.51983 4.7967C6.51285 4.78294 6.50608 4.76656 6.498 4.75128C6.4814 4.71525 6.46655 4.67943 6.45301 4.64362C6.44581 4.6255 6.43926 4.60737 6.43249 4.58903C6.42572 4.57069 6.41895 4.54973 6.41284 4.52985C6.40803 4.51632 6.40345 4.50256 6.39886 4.48858C6.38095 4.43181 6.36458 4.3722 6.34951 4.30909C6.34602 4.29337 6.3423 4.27721 6.33859 4.26083C6.33787 4.25803 6.33736 4.25519 6.33706 4.25231C6.33335 4.23572 6.32986 4.21934 6.3268 4.20209C6.32374 4.18811 6.32112 4.17436 6.3185 4.16016L6.31195 4.11649L6.29841 4.02915L6.29645 4.01037C6.27116 3.78324 6.27851 3.55367 6.31828 3.32863C6.37705 2.99533 6.50491 2.67802 6.69365 2.39709C6.72357 2.35189 6.75545 2.308 6.78842 2.26454C6.90361 2.11653 7.03436 1.98132 7.17842 1.86122C7.44765 1.64178 7.76018 1.48165 8.09555 1.3913C8.14709 1.37755 8.19906 1.36532 8.25146 1.35506L8.37222 1.33475C8.79159 1.27335 9.21973 1.32257 9.61423 1.47753C10.0087 1.6325 10.3559 1.88783 10.6214 2.21825C10.6353 2.2355 10.6491 2.25297 10.6626 2.27044C10.6762 2.28791 10.6878 2.30363 10.6998 2.32001C10.7118 2.33638 10.7282 2.35975 10.7419 2.37962C10.783 2.44004 10.8213 2.50212 10.857 2.56589C10.9684 2.76696 11.0511 2.9826 11.1029 3.20657C11.1096 3.22687 11.1155 3.24653 11.1201 3.2664C11.1271 3.29301 11.1328 3.31998 11.1369 3.34719C11.1371 3.34886 11.1371 3.35055 11.1369 3.35222C11.142 3.38126 11.1463 3.41008 11.1502 3.43956C11.1531 3.4614 11.1557 3.48323 11.1579 3.50507C11.1601 3.52691 11.1618 3.54874 11.1634 3.57058C11.1649 3.59242 11.1664 3.61294 11.1673 3.63478C11.1682 3.65662 11.1695 3.67343 11.1701 3.69308V3.6981C11.1745 3.83104 11.1672 3.9641 11.1483 4.09575V4.09575Z" />
</g>
</svg>
