<svg viewBox="0 0 19 19" fill="#6B93C0" xmlns="http://www.w3.org/2000/svg">
<g >
<path d="M16.892 2.10577C16.6206 1.83048 16.1786 1.83436 15.9033 2.10577L13.4219 4.58723C10.3472 3.19141 7.06701 3.53261 3.93804 5.57594C1.6078 7.09583 0.19259 9.00733 0.134431 9.08876C-0.0516788 9.34466 -0.0439242 9.69361 0.153817 9.94176C1.47985 11.5702 2.86791 12.8381 4.287 13.7221L2.10409 15.905C1.83268 16.1764 1.83268 16.6184 2.10409 16.8937C2.23979 17.0294 2.41815 17.0992 2.5965 17.0992C2.77486 17.0992 2.95321 17.0294 3.08892 16.8937L16.892 3.09448C17.1635 2.82307 17.1635 2.38106 16.892 2.10577ZM7.77268 10.2364C7.67187 10.0077 7.62146 9.75953 7.62146 9.49975C7.62146 8.99958 7.81533 8.52655 8.17204 8.16984C8.73036 7.61151 9.55623 7.47968 10.2386 7.77048L7.77268 10.2364ZM11.27 6.743C10.0021 5.92877 8.29223 6.07611 7.18721 7.18113C6.56684 7.8015 6.22952 8.62348 6.22952 9.49587C6.22952 10.1317 6.41175 10.7405 6.74907 11.2639L5.3106 12.7024C4.05049 11.9735 2.80976 10.8956 1.60392 9.48812C2.1196 8.88326 3.20912 7.7162 4.70187 6.743C7.28414 5.06026 9.85478 4.6958 12.3595 5.65348L11.27 6.743Z" />
<path d="M18.8462 9.05773C17.8885 7.87904 16.8959 6.88645 15.8878 6.09937C15.5815 5.86285 15.1434 5.91713 14.903 6.21956C14.6665 6.52199 14.7208 6.96012 15.0232 7.20051C15.8219 7.82475 16.6206 8.60021 17.3961 9.50749C16.9386 10.0426 16.0468 11.0041 14.8371 11.8843C12.5068 13.5786 10.1533 14.1912 7.84635 13.7027C7.47025 13.6213 7.09804 13.8656 7.02049 14.2416C6.93907 14.6177 7.18334 14.99 7.55943 15.0675C8.16041 15.1955 8.76527 15.2575 9.374 15.2575C10.289 15.2575 11.2118 15.114 12.1307 14.8271C13.3366 14.451 14.5347 13.8307 15.694 12.9854C17.6481 11.5547 18.8152 9.97664 18.8656 9.91073C19.0517 9.65483 19.0439 9.30587 18.8462 9.05773Z" />
</g>
<defs>

<rect width="19" height="19" fill="white"/>

</defs>
</svg>
