<svg width="14" height="14" viewBox="0 0 14 14" fill="#8B9BC7" xmlns="http://www.w3.org/2000/svg">
<path d="M7 0C3.15 0 0 2.94682 0 6.54848C0 10.1501 3.15 13.097 7 13.097C10.85 13.097 14 10.1501 14 6.54848C14 2.94682 10.85 0 7 0ZM8.4 10.1501C8.05 10.2593 7.81667 10.3684 7.58333 10.4776C7.35 10.4776 7.11667 10.5867 6.88333 10.5867C6.41667 10.5867 6.06667 10.4776 5.83333 10.2593C5.6 10.041 5.48333 9.82272 5.48333 9.49529C5.48333 9.38615 5.48333 9.27701 5.48333 9.16787C5.48333 9.05873 5.48333 8.94959 5.6 8.7313L6.06667 7.20333C6.06667 7.09418 6.18333 6.8759 6.18333 6.76676C6.18333 6.65762 6.18333 6.54848 6.18333 6.43934C6.18333 6.22105 6.18333 6.11191 6.06667 6.00277C5.95 6.00277 5.83333 6.00277 5.6 6.00277C5.48333 6.00277 5.36667 6.00277 5.25 6.00277C5.13333 6.00277 5.01667 6.11191 4.9 6.11191L5.01667 5.67535C5.36667 5.56621 5.6 5.45707 5.83333 5.34792C6.06667 5.23878 6.3 5.23878 6.65 5.23878C7.11667 5.23878 7.46667 5.34792 7.7 5.56621C7.93333 5.78449 8.05 6.00277 8.05 6.3302C8.05 6.43934 8.05 6.54848 8.05 6.65762C8.05 6.76676 8.05 6.98504 7.93333 7.09418L7.46667 8.62216C7.46667 8.7313 7.35 8.84045 7.35 9.05873C7.35 9.16787 7.35 9.27701 7.35 9.38615C7.35 9.60443 7.35 9.71358 7.46667 9.82272C7.46667 9.82272 7.7 9.82272 7.93333 9.82272C8.05 9.82272 8.16667 9.82272 8.28333 9.82272C8.4 9.82272 8.51667 9.71358 8.63333 9.71358L8.4 10.1501ZM8.4 4.14737C8.16667 4.25651 7.93333 4.36565 7.58333 4.36565C7.35 4.36565 7.11667 4.25651 6.88333 4.14737C6.65 3.92909 6.53333 3.7108 6.53333 3.49252C6.53333 3.27424 6.65 3.05596 6.88333 2.83767C7.11667 2.61939 7.35 2.51025 7.7 2.51025C8.05 2.51025 8.28333 2.61939 8.4 2.83767C8.63333 3.05596 8.75 3.27424 8.75 3.49252C8.63333 3.7108 8.63333 3.92909 8.4 4.14737Z" />
</svg>
