<svg width="14" height="14" viewBox="0 0 14 14" xmlns="http://www.w3.org/2000/svg">
<path d="M4.25041 10.1474L1.03601 10.5058L2.92041 6.15455L0.991211 3.52255L5.68401 2.98775L6.96081 0.0561523L9.75521 3.85295L12.9668 3.49175L11.088 7.82055L13.0032 10.4358L8.33281 10.9678L7.04201 13.9442L4.25041 10.1474ZM5.58321 9.85615C5.46001 9.91495 5.32841 9.96815 5.19401 10.0046L5.07081 10.0382L6.88241 12.4994L7.52641 11.021L7.41161 11.007C6.77881 10.9258 6.20481 10.587 5.83241 10.0718L5.65321 9.82255L5.58321 9.85615ZM4.95321 7.62735L6.41481 9.64615C6.71161 10.055 7.19041 10.3014 7.69721 10.3014C7.75601 10.3014 7.81481 10.2986 7.87081 10.2902L11.6816 9.85615L10.164 7.78695C10.0884 7.68615 10.0016 7.59095 9.90641 7.50975L9.81681 7.43695L8.73041 9.88975L6.84041 7.38655L4.95321 7.62735ZM5.01481 5.16615C4.44921 5.22495 3.95641 5.58895 3.72961 6.11255L2.20081 9.64615L4.74321 9.36055C4.86921 9.34655 4.99241 9.31855 5.11001 9.27375L5.21921 9.23175L3.64561 7.05895L6.74801 6.66415L7.48441 4.90295L5.01481 5.16615ZM7.41721 6.94695L8.56801 8.47015L9.26801 6.88535L9.57601 6.18815C9.80561 5.66735 9.74121 5.05695 9.40241 4.59775L7.12321 1.49815L6.09841 3.85295C6.04801 3.96775 6.01161 4.09095 5.98921 4.21695L5.96961 4.33175L8.62681 4.04895L7.41721 6.94695ZM10.2088 4.53335L10.2536 4.64255C10.5 5.23335 10.4944 5.90535 10.2368 6.48495L10.1108 6.76495L10.1696 6.80415C10.2844 6.88255 10.3936 6.96935 10.4916 7.07015L10.5812 7.15975L11.7992 4.35415L10.2088 4.53335ZM2.31841 4.10495L3.28721 5.42655L3.36001 5.33415C3.74361 4.83295 4.32321 4.51095 4.94201 4.44375L5.24721 4.41295L5.25281 4.34015C5.26401 4.18895 5.28921 4.03495 5.33121 3.88655L5.36481 3.76055L2.31841 4.10495Z" />
<path d="M6.32242 13.9999C4.30642 13.8039 2.49482 12.7567 1.30762 11.0935L2.11962 11.0039C2.25402 11.1691 2.39682 11.3259 2.54522 11.4771C3.42722 12.3619 4.52762 12.9583 5.73722 13.2047L6.32242 13.9999Z" />
<path d="M8.01364 13.2468C9.32124 13.0368 10.5084 12.4236 11.4548 11.4744C11.5388 11.3904 11.6228 11.298 11.7096 11.2028L12.6924 11.0908C11.5108 12.754 9.70204 13.804 7.68604 14L8.01364 13.2468Z" />
<path d="M12.894 9.24295C13.1628 8.52895 13.3 7.77295 13.3 7.00015C13.3 6.31695 13.1908 5.64495 12.9808 5.00375L13.3756 4.09375C13.79 5.00935 14 5.98655 14 7.00015C14 8.01375 13.79 8.98815 13.3784 9.90375L12.894 9.24295Z" />
<path d="M0.6272 9.91209C0.2128 8.99649 0 8.01929 0 7.00009C0 5.97529 0.2128 4.99249 0.6328 4.07129L1.1144 4.72929C0.84 5.45449 0.7 6.21609 0.7 7.00009C0.7 7.68609 0.8092 8.35809 1.022 9.00209L0.6272 9.91209Z" />
<path d="M1.33838 2.8644C2.52278 1.2292 4.32038 0.1932 6.31678 0L5.99198 0.7504C4.68158 0.9604 3.49158 1.5736 2.54518 2.5228C2.47238 2.5956 2.40238 2.6712 2.32958 2.7496L1.33838 2.8644Z" />
<path d="M11.8803 2.996C11.7459 2.8308 11.6031 2.6712 11.4547 2.5256C10.5755 1.6408 9.4751 1.0444 8.27111 0.798L7.68311 0C9.6963 0.196 11.5079 1.246 12.6895 2.9064L11.8803 2.996Z" />
</svg>
