<svg viewBox="0 0 11 14" fill="none" xmlns="http://www.w3.org/2000/svg">
<path fill-rule="evenodd" clip-rule="evenodd" d="M0.034101 0C0.034101 0 3.20131 1.89993 4.23515 4.0631C4.61094 3.95643 5.00586 3.89837 5.40854 3.89837C5.81876 3.89837 6.22091 3.95862 6.603 4.06915C7.63382 1.90346 10.8069 0 10.8069 0C10.9192 1.23454 10.8142 4.19777 9.56215 6.6764C9.48969 6.54797 9.41986 6.42795 9.35006 6.31294C9.76638 5.42441 9.88789 4.85168 9.89806 3.75918C9.658 4.75084 9.51787 5.30906 9.07889 5.89205C8.80889 5.49858 8.49498 5.11433 8.00989 4.57379L8.01036 4.5595C8.17159 3.54854 8.41907 2.93973 8.93539 1.83379C7.92602 3.05673 7.44382 4.04895 7.4583 4.93316L7.45007 4.9249C7.45651 5.42581 7.62211 5.89202 7.9414 6.34571L8.0023 5.87017L8.27775 6.04415C8.24352 5.93687 8.20927 5.84748 8.17711 5.76348C8.14232 5.67264 8.10997 5.58811 8.08257 5.49405C8.08619 5.49716 8.0898 5.50026 8.09342 5.50337C8.09249 5.50026 8.09159 5.49716 8.09067 5.49405C8.48646 5.83367 8.84239 6.22165 9.44042 6.90906L9.43252 6.9236L9.42473 6.91575C9.45327 7.07519 9.46812 7.23731 9.46812 7.40121C9.46812 7.66554 9.42949 7.99671 9.35714 8.37043C9.47056 8.43824 9.58235 8.53118 9.65504 8.67706C9.50173 8.67972 9.39594 8.69291 9.27905 8.73462C9.27493 8.7523 9.27073 8.77006 9.26647 8.7879C9.68165 9.20212 9.86996 9.49592 10.1409 10.0457C9.71478 9.6795 9.44538 9.45309 9.14141 9.26576C9.12774 9.31411 9.11365 9.36279 9.09916 9.41175C9.33269 9.83838 9.37784 10.1529 9.27095 10.6953C9.0702 10.5157 8.92569 10.3896 8.79727 10.3195C8.70295 10.575 8.6001 10.832 8.48957 11.0862C8.41537 11.1603 8.35579 11.2407 8.29691 11.3202C8.13927 11.5329 7.9865 11.7391 7.57099 11.8C7.59331 12.3878 7.46749 12.6454 7.33368 12.9194C7.26663 13.0567 7.19758 13.198 7.14416 13.3871C7.03879 13.5143 6.9312 13.6328 6.82171 13.741C6.14455 14.0911 6.10928 14.0738 5.47689 13.7641L5.39779 13.7254C4.68875 14.0718 4.63769 14.0903 4.03636 13.7809C3.89261 13.6428 3.75205 13.4869 3.61541 13.3165C3.56558 13.1618 3.50564 13.039 3.44721 12.9194C3.31338 12.6454 3.18758 12.3878 3.2099 11.8C2.79439 11.7391 2.64162 11.5329 2.48397 11.3202C2.4445 11.2669 2.40472 11.2132 2.36043 11.1613C2.23877 10.8859 2.12604 10.6066 2.02339 10.3292C1.89406 10.3989 1.74873 10.5256 1.54609 10.7069C1.43886 10.1627 1.48465 9.84796 1.72013 9.41923C1.70588 9.37108 1.69199 9.32321 1.67848 9.27565C1.37337 9.46332 1.10359 9.68998 0.676215 10.0573C0.947577 9.50657 1.1361 9.21265 1.55288 8.79725C1.54887 8.78056 1.54491 8.76392 1.54102 8.74734C1.42294 8.70476 1.31664 8.69137 1.16202 8.68868C1.23515 8.54194 1.34785 8.44875 1.46198 8.38085C1.38832 8.00284 1.34899 7.66798 1.34899 7.40121C1.34899 7.23849 1.36362 7.07749 1.39174 6.91917C1.99509 6.22546 2.35257 5.83536 2.75028 5.49405C2.72291 5.58811 2.69053 5.67264 2.65575 5.76345C2.62358 5.84746 2.58935 5.93684 2.55511 6.04415L2.83058 5.87014L2.89148 6.34571C3.77297 5.09305 3.48315 3.7452 1.90558 1.8338C2.42189 2.93973 2.66936 3.54857 2.83058 4.5595L2.83106 4.57379C2.34599 5.11433 2.03205 5.49858 1.76206 5.89205C1.32308 5.30906 1.18295 4.75084 0.942896 3.75918C0.953072 4.85168 1.07458 5.42441 1.4909 6.31294C1.42111 6.42792 1.35129 6.54795 1.27884 6.67635C0.0268287 4.19771 -0.0781308 1.23453 0.034101 0ZM4.29506 9.23377L3.93552 8.53785L2.92641 8.35225C2.97044 9.08912 3.44836 9.37296 4.29506 9.23377ZM7.02078 8.53785L6.66123 9.23377C7.50794 9.37296 7.98585 9.08912 8.02989 8.35225L7.02078 8.53785ZM4.76267 12.1649C4.60581 12.2759 4.50898 12.4283 4.50898 12.5965C4.50898 12.936 4.90365 13.2112 5.3905 13.2112C5.87733 13.2112 6.272 12.936 6.272 12.5965C6.272 12.4196 6.16486 12.2601 5.99332 12.148C5.81951 12.2181 5.59756 12.2601 5.35571 12.2601C5.13409 12.2601 4.92914 12.2248 4.76267 12.1649Z" />
</svg>
