<svg viewBox="0 0 10 14" fill="none" xmlns="http://www.w3.org/2000/svg">
<path fill-rule="evenodd" clip-rule="evenodd" d="M4.10658 0.559999C4.10658 0.25072 4.3573 0 4.66658 0C4.97585 0 5.22658 0.25072 5.22658 0.56V3.01266L7.04961 1.06467C7.26094 0.838854 7.61532 0.827112 7.84114 1.03844C8.06695 1.24977 8.07869 1.60415 7.86736 1.82997L5.91176 3.91961H8.86667C9.17595 3.91961 9.42667 4.17033 9.42667 4.47961C9.42667 4.78889 9.17595 5.03961 8.86667 5.03961H6.00483L7.96082 7.12967C8.17216 7.35548 8.16041 7.70986 7.9346 7.92119C7.70878 8.13252 7.3544 8.12078 7.14307 7.89497L5.22658 5.84711V11.1998H6.25397C6.56325 11.1998 6.81397 11.4505 6.81397 11.7598C6.81397 12.0691 6.56325 12.3198 6.25397 12.3198H5.22658V13.44C5.22658 13.7493 4.97585 14 4.66658 14C4.3573 14 4.10658 13.7493 4.10658 13.44V12.3198H3.08064C2.77136 12.3198 2.52064 12.0691 2.52064 11.7598C2.52064 11.4505 2.77136 11.1998 3.08064 11.1998H4.10658V5.84852L2.1914 7.89497C1.98007 8.12078 1.62569 8.13252 1.39988 7.92119C1.17406 7.70986 1.16232 7.35548 1.37365 7.12967L3.32964 5.03961H0.559999C0.25072 5.03961 0 4.78889 0 4.47961C0 4.17033 0.25072 3.91961 0.56 3.91961H3.42271L1.46711 1.82997C1.25578 1.60415 1.26752 1.24977 1.49334 1.03844C1.71915 0.827112 2.07353 0.838854 2.28486 1.06467L4.10658 3.01125V0.559999Z" />
</svg>
