<svg width="13" height="13" viewBox="0 0 13 13" fill="#1A53F0" xmlns="http://www.w3.org/2000/svg">
<path d="M11.7758 1.22465C10.1423 -0.408884 7.48446 -0.408858 5.85093 1.22467C4.73514 2.34046 4.34757 3.98479 4.83071 5.47661L0.112568 10.1948C0.0411445 10.2662 0.000976562 10.3629 0.000976562 10.4641V12.6187C0.000976562 12.8292 0.171322 12.9995 0.381836 12.9995H2.53643C2.63759 12.9995 2.7343 12.9594 2.8057 12.8879L3.34426 12.349C3.42645 12.2668 3.46662 12.1515 3.45324 12.0358L3.38628 11.4571L4.18817 11.3816C4.37042 11.3645 4.51436 11.2205 4.53148 11.0383L4.60699 10.2364L5.18572 10.3037C5.2932 10.3182 5.40144 10.2821 5.48289 10.21C5.56396 10.1375 5.61045 10.034 5.61045 9.92546V9.21632H6.30671C6.40787 9.21632 6.50458 9.17615 6.57598 9.10473L7.55268 8.14095C9.04413 8.62446 10.66 8.2661 11.7758 7.14955C13.4093 5.51604 13.4093 2.85818 11.7758 1.22465ZM10.6984 3.91783C10.2528 4.36341 9.52825 4.36341 9.08267 3.91783C8.63709 3.47225 8.63709 2.74773 9.08267 2.30215C9.52825 1.85657 10.2528 1.85657 10.6984 2.30215C11.1439 2.74773 11.1439 3.47225 10.6984 3.91783Z" />
</svg>
