<svg viewBox="0 0 12 14" fill="none" xmlns="http://www.w3.org/2000/svg">
<path d="M10.3997 0.0150058C10.3339 0.0314629 10.2286 0.100583 10.1397 0.189451C10.0015 0.330982 9.98829 0.354023 9.97513 0.541634L9.95867 0.745702L9.23127 1.4764C8.833 1.87795 8.48082 2.21697 8.4512 2.23013C8.42158 2.24001 8.35246 2.30584 8.30308 2.37496C8.25042 2.44408 7.30578 3.40188 6.19986 4.5078L4.1921 6.51557L4.18222 5.39977L4.17564 4.28727L4.30071 4.14903C4.49491 3.93838 4.51136 3.69482 4.34679 3.44467C4.21843 3.24718 3.84979 3.18465 3.58318 3.3163C3.45152 3.38213 3.43178 3.40846 3.37582 3.5862C3.29683 3.83635 3.33632 4.02067 3.50419 4.18853L3.6161 4.30044V5.38661V6.47607L3.50419 6.60114C3.40215 6.70976 3.31987 6.89737 3.31987 7.01586C3.31987 7.13106 3.46469 7.42729 3.5371 7.4602L3.6161 7.49641V8.61879V9.74116L3.52394 9.79382C3.45482 9.83332 3.41532 9.89586 3.36924 10.0374C3.31328 10.2184 3.31328 10.2382 3.36595 10.4027C3.42848 10.5969 3.54368 10.7088 3.75434 10.7747C4.01107 10.857 4.35996 10.6496 4.43895 10.3698C4.47187 10.2447 4.47187 10.1987 4.4225 10.0571C4.38958 9.9551 4.33034 9.85965 4.27109 9.81357L4.17564 9.73787L4.18222 8.75373L4.1921 7.76631L6.09454 9.66217C7.13792 10.7055 7.99369 11.5778 7.99369 11.5975C7.99369 11.6173 7.95419 11.6436 7.90482 11.6535C7.85216 11.6666 7.72379 11.716 7.61518 11.7654C7.184 11.9563 6.97993 12.0122 6.4566 12.0781C5.74894 12.1669 4.83063 12.1143 4.31717 11.9596C3.88928 11.8312 3.27708 11.5547 3.0401 11.3902C2.98743 11.3507 2.91173 11.3046 2.86894 11.2881C2.58917 11.1631 1.71365 10.304 1.48325 9.92877C1.45363 9.87611 1.3878 9.77737 1.34172 9.70496C1.2331 9.54038 1.15411 9.3824 0.989539 9.01705C0.798636 8.58916 0.765722 8.46738 0.666979 7.90784C0.591277 7.4602 0.581402 7.34501 0.59786 6.87762C0.6209 6.12389 0.739391 5.55447 0.979665 5.03443C1.04549 4.8896 1.12449 4.71845 1.15411 4.64933C1.22981 4.48805 1.62149 3.89559 1.76961 3.72773C2.00988 3.45125 2.42131 3.06945 2.655 2.90158C2.78995 2.80613 2.93806 2.69752 2.98414 2.66131C3.03351 2.62181 3.10922 2.57903 3.1553 2.56586C3.20138 2.55269 3.29024 2.50661 3.35278 2.46712C3.55685 2.33875 3.82016 2.23013 4.22501 2.11164C4.87013 1.92074 4.959 1.90757 5.68969 1.90757C6.43356 1.90757 6.60471 1.93061 7.27616 2.13797C7.48023 2.20051 7.67113 2.2433 7.70405 2.23343C7.73367 2.22355 7.83241 2.13139 7.92457 2.02607L8.08914 1.83845L7.62176 1.66072C6.97335 1.42044 6.3381 1.3217 5.57449 1.34145C5.00837 1.35791 4.52782 1.42374 4.15918 1.53564C3.77079 1.65084 3.12567 1.91745 2.94465 2.03265C2.85249 2.09189 2.6945 2.19064 2.59246 2.25317C2.48714 2.31242 2.35219 2.41116 2.28307 2.4737C2.21724 2.53295 2.15141 2.58232 2.13166 2.58232C2.079 2.58232 1.27589 3.41176 1.1574 3.5862C1.09816 3.67507 0.989539 3.83306 0.917128 3.9318C0.844716 4.03054 0.772305 4.14903 0.752556 4.19511C0.736099 4.24119 0.647231 4.42551 0.555071 4.60654C0.176557 5.37344 -0.0373854 6.39708 0.00540313 7.23968C0.035026 7.82226 0.0942716 8.1152 0.334546 8.89527C0.443163 9.23428 0.778888 9.90573 0.973082 10.169C1.05537 10.2777 1.13107 10.3896 1.14094 10.4159C1.15082 10.4422 1.29893 10.6167 1.47009 10.8043C1.80252 11.1663 2.25015 11.5613 2.49701 11.7094C2.5793 11.7621 2.70437 11.8444 2.77678 11.8938C2.97098 12.032 3.68522 12.3546 3.93866 12.4237C4.53769 12.585 4.67264 12.6179 4.89975 12.6574C5.05445 12.687 5.37043 12.7034 5.73906 12.7002C6.24924 12.6969 6.38418 12.687 6.72649 12.6113C7.3749 12.4698 7.69417 12.3677 8.05294 12.1933C8.24055 12.1044 8.40841 12.0287 8.42816 12.0287C8.44791 12.0287 8.76059 12.3249 9.11936 12.687C9.76119 13.3288 9.77764 13.3486 9.78752 13.4934C9.80068 13.7205 9.89613 13.8719 10.0673 13.941C10.4392 14.0924 10.7848 13.9443 10.8901 13.5888C10.9955 13.2334 10.617 12.8219 10.2417 12.8943C10.166 12.9075 10.087 12.8417 9.54724 12.3019C9.00087 11.7555 8.94491 11.6897 9.00087 11.6568C9.13582 11.5844 9.57028 11.1993 9.84347 10.9129C10.5083 10.2118 10.8967 9.51734 11.2226 8.44105C11.374 7.95063 11.4201 6.97966 11.3345 6.20288C11.2654 5.60055 11.0185 4.85669 10.6894 4.27082C10.561 4.047 10.4623 3.82647 10.4623 3.7771C10.459 3.54341 10.2714 3.30972 10.0344 3.25048C9.96196 3.23073 9.89284 3.18136 9.84676 3.11224C9.80727 3.05299 9.7184 2.96412 9.64599 2.91146C9.57687 2.86209 9.49129 2.78309 9.45508 2.7403C9.42217 2.69422 9.32343 2.60865 9.23785 2.55269C9.14898 2.49345 9.07986 2.44079 9.07986 2.43091C9.07986 2.42104 9.37609 2.12152 9.73485 1.75946C10.2746 1.21967 10.403 1.10776 10.4623 1.12422C10.5018 1.13409 10.6235 1.11434 10.7322 1.08143C10.9264 1.02547 10.9362 1.0156 11.0152 0.844445C11.2292 0.377063 10.8803 -0.0903198 10.3997 0.0150058ZM8.7178 2.87525C8.7178 2.89171 8.7573 2.92133 8.80996 2.94108C8.85934 2.96412 9.01403 3.0892 9.15886 3.22414L9.41559 3.46442L9.37609 3.5862C9.24114 3.99763 9.56041 4.41235 9.96196 4.34652L10.0903 4.32677L10.2714 4.6987C10.3734 4.89948 10.4787 5.12 10.505 5.18254C10.5742 5.33724 10.742 6.02514 10.7947 6.34112C10.8441 6.66039 10.8144 7.68073 10.7486 7.96379C10.6104 8.55296 10.5083 8.85577 10.324 9.23099C10.1101 9.67862 9.98171 9.87282 9.61636 10.3106C9.34317 10.6463 9.23127 10.7516 8.8363 11.0709L8.54665 11.3046L6.4928 9.25074C5.36384 8.11849 4.43895 7.17385 4.43895 7.15081C4.43895 7.12777 4.46528 7.06853 4.4982 7.02245C4.58048 6.90066 8.64539 2.84563 8.68489 2.84563C8.70464 2.84563 8.7178 2.8588 8.7178 2.87525Z" />
<path d="M8.17163 8.25664C7.78654 8.3488 7.55614 8.84252 7.7273 9.21446C7.79971 9.37903 8.01036 9.57323 8.17493 9.62589C8.35595 9.68513 8.63243 9.64893 8.76079 9.55018C8.99448 9.37245 9.04056 9.30662 9.08006 9.119C9.16564 8.6977 8.95828 8.32576 8.58964 8.24677C8.38887 8.20398 8.38887 8.20398 8.17163 8.25664Z" />
<path d="M5.32775 3.29648C5.22243 3.3656 5.20268 3.39523 5.16318 3.53346C5.10723 3.73095 5.24876 3.97122 5.45282 4.03047C5.61081 4.07326 5.82804 3.9778 5.90045 3.83627C5.96628 3.7112 5.96628 3.50713 5.90045 3.41168C5.78525 3.24711 5.48574 3.18787 5.32775 3.29648Z" />
</svg>
