<svg viewBox="0 0 14 14" fill="none" xmlns="http://www.w3.org/2000/svg">
<path d="M7 0C10.866 0 14 3.13401 14 7C14 10.866 10.866 14 7 14C3.13401 14 0 10.866 0 7C0 3.13401 3.13401 0 7 0ZM7 0.494118C3.4069 0.494118 0.494118 3.4069 0.494118 7C0.494118 10.5931 3.4069 13.5059 7 13.5059C10.5931 13.5059 13.5059 10.5931 13.5059 7C13.5059 3.4069 10.5931 0.494118 7 0.494118Z"/>
<path d="M11.4116 4.2413V3.60543H9.39738C9.2893 3.19457 9.18122 2.83261 9.06332 2.5L8.38537 2.61739C8.50327 2.91087 8.62118 3.24348 8.72926 3.60543H6.59716V4.2413H11.4116ZM6.25327 8.9663V4.90652H5.26092C5.46725 4.60326 5.67358 4.23152 5.87991 3.78152V3.31196H4.25873C4.34716 3.1163 4.42576 2.92065 4.50437 2.71522L3.87555 2.51957C3.58079 3.47826 3.119 4.25109 2.5 4.84783L2.64738 5.54239C2.77511 5.425 2.90284 5.30761 3.02074 5.18043V8.9663H6.25327ZM4.58297 4.90652H3.26638C3.52183 4.59348 3.76747 4.2413 3.98362 3.86957H5.22162C5.00546 4.26087 4.79913 4.61304 4.58297 4.90652ZM8.631 11.5C9.12227 11.5 9.37773 11.2261 9.37773 10.688V7.9H10.94V5.12174H7.1179V7.9H8.68996V10.5217C8.68996 10.7663 8.5917 10.8935 8.3952 10.8935C8.16921 10.8935 7.93341 10.8739 7.6976 10.8446L7.83515 11.5H8.631ZM4.35699 6.64783H3.62991V5.4837H4.35699V6.64783ZM5.6441 6.64783H4.92686V5.4837H5.6441V6.64783ZM10.2718 7.2837H7.78603V5.74783H10.2718V7.2837ZM5.6441 8.37935H4.92686V7.21522H5.6441V8.37935ZM4.35699 8.37935H3.62991V7.21522H4.35699V8.37935ZM10.9793 11.05L11.5 10.688C11.2347 10.062 10.8614 9.33804 10.3701 8.50652L9.84935 8.81956C10.321 9.63152 10.7041 10.375 10.9793 11.05ZM6.86245 11.2163C7.29476 10.5413 7.66812 9.73913 7.98253 8.81956L7.41266 8.54565C7.10808 9.42609 6.74454 10.1891 6.33188 10.8348L6.86245 11.2163ZM6.04694 10.5511L6.52838 10.4337C6.39083 9.96413 6.25327 9.55326 6.09607 9.20109L5.63428 9.33804C5.79148 9.72935 5.92904 10.1304 6.04694 10.5511ZM5.00546 11.1185L5.51638 11.0598C5.45742 10.3163 5.34934 9.72935 5.19214 9.29891L4.70087 9.35761C4.85808 9.76848 4.95633 10.3554 5.00546 11.1185ZM3.12882 11.3826C3.33515 10.8054 3.46288 10.15 3.52183 9.40652L2.99127 9.33804C2.94214 10.0424 2.80458 10.6685 2.58843 11.2163L3.12882 11.3826ZM3.95415 11.2652L4.46507 11.2065C4.44541 10.4337 4.39629 9.81739 4.32751 9.36739L3.8559 9.42609C3.90502 9.85652 3.9345 10.4728 3.95415 11.2652Z"/>
</svg>
