<svg width="12" height="15" viewBox="0 0 12 15" fill="none" xmlns="http://www.w3.org/2000/svg">
<path d="M10 5.33333H11.3333C11.5101 5.33333 11.6797 5.40357 11.8047 5.5286C11.9298 5.65362 12 5.82319 12 6V14C12 14.1768 11.9298 14.3464 11.8047 14.4714C11.6797 14.5964 11.5101 14.6667 11.3333 14.6667H0.666667C0.489856 14.6667 0.320286 14.5964 0.195262 14.4714C0.0702379 14.3464 0 14.1768 0 14V6C0 5.82319 0.0702379 5.65362 0.195262 5.5286C0.320286 5.40357 0.489856 5.33333 0.666667 5.33333H2V4.66667C2 3.6058 2.42143 2.58839 3.17157 1.83824C3.92172 1.08809 4.93913 0.666667 6 0.666667C7.06087 0.666667 8.07828 1.08809 8.82843 1.83824C9.57857 2.58839 10 3.6058 10 4.66667V5.33333ZM8.66667 5.33333V4.66667C8.66667 3.95942 8.38572 3.28115 7.88562 2.78105C7.38552 2.28095 6.70724 2 6 2C5.29276 2 4.61448 2.28095 4.11438 2.78105C3.61428 3.28115 3.33333 3.95942 3.33333 4.66667V5.33333H8.66667ZM5.33333 9.33333V10.6667H6.66667V9.33333H5.33333ZM2.66667 9.33333V10.6667H4V9.33333H2.66667ZM8 9.33333V10.6667H9.33333V9.33333H8Z" fill="#1A53F0"/>
</svg>
