<svg viewBox="0 0 13 13" fill="#1A53F0" xmlns="http://www.w3.org/2000/svg">
<path d="M7.67572 10.6548C6.57955 10.6548 5.56689 10.3207 4.72127 9.75696L1.66243 12.8158C1.42221 13.0559 1.0255 13.0559 0.775047 12.8158L0.17998 12.2207C-0.0601339 11.9806 -0.0601339 11.5839 0.17998 11.3334L3.24927 8.28495C2.68563 7.43933 2.35145 6.42667 2.35145 5.3305C2.35145 2.39693 4.74215 0.00622559 7.67572 0.00622559C10.6093 0.00622559 13 2.39693 13 5.3305C13 8.26397 10.6197 10.6548 7.67572 10.6548ZM7.67572 2.09418C5.89053 2.09418 4.4394 3.5453 4.4394 5.3305C4.4394 7.1157 5.89053 8.56682 7.67572 8.56682C9.46092 8.56682 10.912 7.1157 10.912 5.3305C10.912 3.5453 9.46092 2.09418 7.67572 2.09418Z" />
</svg>
