<svg width="15" height="11" viewBox="0 0 15 11" fill="#1A53F0" xmlns="http://www.w3.org/2000/svg">
<path d="M0.821533 3.14671L7.29003 6.51089C7.35492 6.54463 7.42697 6.56224 7.5001 6.56224C7.57324 6.56224 7.64529 6.54463 7.71018 6.51089L14.1787 3.14732V8.99107C14.1787 9.49508 13.9859 9.98 13.6397 10.3464C13.2936 10.7127 12.8204 10.9327 12.3172 10.9612L12.2055 10.9643H2.79475C2.29074 10.9643 1.80582 10.7715 1.43946 10.4253C1.07311 10.0792 0.853104 9.60599 0.824569 9.10279L0.821533 8.99107V3.14671ZM2.79475 0.0357132H12.2055C12.7095 0.0356802 13.1944 0.228514 13.5607 0.574657C13.9271 0.920799 14.1471 1.39401 14.1756 1.89721L14.1787 2.00893V2.12064L7.5001 5.5935L0.821533 2.12064V2.00893C0.8215 1.50492 1.01433 1.02 1.36048 0.653645C1.70662 0.287293 2.17983 0.0672838 2.68303 0.038749L2.79475 0.0357132H12.2055H2.79475Z" />
</svg>
