<svg viewBox="0 0 14 10" fill="none" xmlns="http://www.w3.org/2000/svg">
<path opacity="0.95" d="M6.06674 0H1.40002C1.02871 0 0.67261 0.147515 0.410055 0.410065C0.147501 0.672615 0 1.02873 0 1.40002V7.93343C0.000532006 8.22976 0.0950704 8.51826 0.270012 8.75743C0.444948 8.9966 0.691263 9.17412 0.973501 9.26437C1.25574 9.35467 1.55934 9.35304 1.84061 9.2598C2.12186 9.16656 2.36631 8.98642 2.5387 8.74543L7.20542 2.21203C7.35442 2.00277 7.44295 1.75651 7.46139 1.50026C7.47977 1.24401 7.42727 0.987665 7.30972 0.759229C7.19212 0.530839 7.01399 0.339177 6.79474 0.205242C6.5755 0.0713543 6.32364 0.00032667 6.06674 0ZM2.33336 3.2667C2.14874 3.2667 1.96833 3.21196 1.81482 3.10939C1.66133 3.00686 1.54171 2.86107 1.47106 2.69055C1.40042 2.51998 1.38194 2.33233 1.41795 2.15127C1.45396 1.97024 1.54285 1.80392 1.67339 1.67339C1.80392 1.54286 1.97024 1.45396 2.15126 1.41794C2.33233 1.38196 2.51998 1.40044 2.69055 1.47104C2.86107 1.5417 3.00686 1.66135 3.10939 1.81484C3.21196 1.96833 3.2667 2.14874 3.2667 2.33336C3.2667 2.58088 3.16838 2.81828 2.99333 2.99333C2.81828 3.16838 2.58088 3.2667 2.33336 3.2667Z" />
<path opacity="0.95" d="M9.56658 8.86656C10.2109 8.86656 10.7333 8.34422 10.7333 7.69988C10.7333 7.05555 10.2109 6.5332 9.56658 6.5332C8.92225 6.5332 8.3999 7.05555 8.3999 7.69988C8.3999 8.34422 8.92225 8.86656 9.56658 8.86656Z" />
<path opacity="0.95" d="M14.0003 1.40002V7.93342C14.0008 8.28278 13.8707 8.61971 13.6355 8.87806C13.4003 9.13641 13.077 9.29746 12.7291 9.32961C12.3812 9.36181 12.0339 9.26274 11.7553 9.05185C11.4768 8.84101 11.2871 8.53366 11.2236 8.19009C11.2087 8.10535 11.2009 8.01948 11.2003 7.93342V6.86941C11.1978 6.57387 11.1018 6.28673 10.9262 6.04905C10.7505 5.81137 10.5041 5.63539 10.2224 5.5463C9.94055 5.45722 9.63782 5.4596 9.35744 5.55307C9.07706 5.64654 8.83351 5.82635 8.66158 6.06674L7.93358 7.08875L6.76223 8.73143C6.53879 9.0155 6.21422 9.20217 5.85632 9.25238C5.49843 9.30264 5.13504 9.21253 4.84206 9.00094C4.54908 8.78935 4.3493 8.47266 4.28443 8.11715C4.21961 7.76164 4.29475 7.39479 4.4942 7.09342L9.16092 0.560006C9.28986 0.387991 9.45675 0.248036 9.64855 0.150922C9.84035 0.0538071 10.0519 0.00214669 10.2669 0H12.6003C12.9716 0 13.3277 0.147515 13.5902 0.410065C13.8528 0.672615 14.0003 1.02873 14.0003 1.40002Z" />
</svg>
