<svg viewBox="0 0 14 14" fill="none" xmlns="http://www.w3.org/2000/svg">
<path d="M6.99903 0C5.61456 0 4.26116 0.410535 3.11002 1.17971C1.95887 1.94888 1.06168 3.04212 0.531869 4.32121C0.00205506 5.60029 -0.136567 7.00775 0.13353 8.36562C0.403627 9.72349 1.07029 10.9708 2.04926 11.9498C3.02823 12.9287 4.27553 13.5954 5.6334 13.8655C6.99127 14.1356 8.39873 13.997 9.67782 13.4672C10.9569 12.9373 12.0502 12.0401 12.8193 10.889C13.5885 9.73783 13.9991 8.38447 13.9991 7C13.9991 5.14348 13.2615 3.36299 11.9488 2.05023C10.636 0.737476 8.85554 0 6.99903 0ZM9.44655 10.4996H4.55198C4.27284 10.4996 4.00515 10.3887 3.80777 10.1913C3.61038 9.9939 3.49947 9.72621 3.49947 9.44707V4.5525C3.49947 4.27336 3.61038 4.00564 3.80777 3.80825C4.00515 3.61087 4.27284 3.49999 4.55198 3.49999H9.44655C9.72569 3.49999 9.99339 3.61087 10.1908 3.80825C10.3882 4.00564 10.4991 4.27336 10.4991 4.5525V9.44707C10.4991 9.72621 10.3882 9.9939 10.1908 10.1913C9.99339 10.3887 9.72569 10.4996 9.44655 10.4996Z"/>
</svg>
