<svg viewBox="0 0 14 14" fill="none" xmlns="http://www.w3.org/2000/svg">
<g clip-path="url(#clip0_2118_22802)">
<path fill-rule="evenodd" clip-rule="evenodd" d="M12.5806 2.76933C11.5222 1.41413 9.96816 0.557331 8.24896 0.557331C4.92536 0.557331 2.49496 3.64573 2.49496 6.99173C2.49496 9.32413 4.04336 11.0685 5.76536 11.0685C5.92496 11.0685 6.08456 11.0545 6.24416 11.0237C5.09056 10.1837 4.35416 8.64933 4.35416 6.98893C4.35416 4.34293 6.14336 2.28213 8.25176 2.28213C10.5506 2.28213 12.1522 4.56693 12.1522 6.98893C12.1466 8.77813 11.5082 10.5561 10.3854 11.8693C9.40536 13.0145 8.13696 13.7425 6.74256 13.9721C6.74256 13.9721 6.86016 13.9805 7.01136 13.9805C10.8726 13.9805 14.003 10.8501 14.003 6.98613C14.0002 5.40693 13.471 3.94253 12.5806 2.76933ZM11.5194 6.99453C11.5194 4.66213 9.97096 2.91493 8.24896 2.91493C8.08656 2.91493 7.92976 2.92893 7.77016 2.95973C8.92376 3.79973 9.66016 5.33413 9.66016 6.99453C9.66016 9.64053 7.87096 11.7013 5.76256 11.7013C3.46096 11.7013 1.86216 9.41653 1.86216 6.99453C1.86776 5.20533 2.50616 3.42733 3.62896 2.11413C4.60896 0.968931 5.87736 0.240931 7.27176 0.0113316C7.27176 0.0113316 7.15696 0.00293156 7.00296 0.00293156C3.14456 0.000131566 0.0141602 3.13053 0.0141602 6.99453C0.0141602 8.58213 0.54336 10.0437 1.43376 11.2169C2.49216 12.5721 4.04616 13.4289 5.76536 13.4289C9.08896 13.4289 11.5194 10.3405 11.5194 6.99453Z" />
</g>
<defs>
<clipPath id="clip0_2118_22802">
<rect width="14" height="14" fill="white"/>
</clipPath>
</defs>
</svg>
