<svg viewBox="0 0 14 14" fill="none" xmlns="http://www.w3.org/2000/svg">
<path d="M5.79823 5.97877L6.24185 7.28902H5.24111L5.71053 5.97877H5.79823ZM8.19174 7.99057H7.45924V8.24849H9.2647V7.99057H8.54251V5.9272H9.2647V5.66927H7.45924V5.9272H8.19174V7.99057ZM4.89549 8.24849L5.1431 7.55726H6.33469L6.56683 8.24849H6.94855L6.02003 5.66927H5.49387L4.54988 8.24849H4.89549ZM10.7039 10.7039H3.29639V3.29639H10.7039V10.7039Z" />
<path d="M7.72217 14C11.0287 13.6595 13.6596 11.0287 14 7.72217H13.1282C12.8187 10.5903 10.647 12.8754 7.72217 13.2004V14Z" />
<path d="M0 7.72217C0.340458 11.0287 2.97126 13.6595 6.27782 14V13.2004C3.35299 12.8754 1.18644 10.5851 0.871776 7.72217H0Z" />
<path d="M14 6.27782C13.6596 2.97126 11.0287 0.340456 7.72217 0V0.799558C10.647 1.12454 12.8136 3.41488 13.1282 6.27782H14Z" />
<path d="M6.27781 0C2.97126 0.340456 0.340456 2.97126 0 6.27781H0.871776C1.18128 3.40973 3.35299 1.12454 6.27781 0.799558V0Z" />
</svg>
