<svg viewBox="0 0 9 14" fill="none" xmlns="http://www.w3.org/2000/svg">
<g clip-path="url(#clip0_1478_22228)">
<path d="M3.11628 9.11577H3.75992C4.36148 9.11577 4.8116 8.99795 5.11028 8.76237C5.40897 8.5226 5.55828 8.17556 5.55828 7.7212C5.55828 7.2627 5.43207 6.92407 5.17969 6.70529C4.93149 6.48657 4.54026 6.3772 4.00601 6.3772H3.11628V9.11577ZM7.53336 7.6518C7.53336 8.64461 7.22208 9.4039 6.59945 9.92976C5.98108 10.4556 5.09976 10.7185 3.95553 10.7185H3.11628V13.9998H1.16016V4.77441H4.10697C5.22596 4.77441 6.07574 5.0163 6.65626 5.50005C7.24098 5.97966 7.53336 6.69689 7.53336 7.6518Z" />
<path d="M8.07813 1.61523H1.07812V3.23062H8.07813V1.61523Z" />
</g>
<defs>
<clipPath id="clip0_1478_22228">
<rect width="8.61539" height="14" />
</clipPath>
</defs>
</svg>
