<svg  viewBox="0 0 14 13" fill="none" xmlns="http://www.w3.org/2000/svg">
<path d="M10.5729 3.71859C10.3177 3.57275 9.98958 3.57275 9.69792 3.71859L7.65625 4.92171L6.27083 5.68734L4.26562 6.89046C4.01042 7.0363 3.68229 7.0363 3.39062 6.89046L1.82292 5.94255C1.56771 5.79671 1.38542 5.50505 1.38542 5.17692V3.354C1.38542 3.06234 1.53125 2.77067 1.82292 2.58838L3.39062 1.67692C3.64583 1.53109 3.97396 1.53109 4.26562 1.67692L5.83333 2.62484C6.08854 2.77067 6.27083 3.06234 6.27083 3.39046V4.59359L7.65625 3.7915V2.55192C7.65625 2.26025 7.51042 1.96859 7.21875 1.7863L4.30208 0.0727539C4.04688 -0.0730794 3.71875 -0.0730794 3.42708 0.0727539L0.4375 1.82275C0.145833 1.96859 0 2.26025 0 2.55192V5.979C0 6.27067 0.145833 6.56234 0.4375 6.74463L3.39062 8.45817C3.64583 8.604 3.97396 8.604 4.26562 8.45817L6.27083 7.2915L7.65625 6.48942L9.66146 5.32275C9.91667 5.17692 10.2448 5.17692 10.5365 5.32275L12.1042 6.23421C12.3594 6.38005 12.5417 6.67171 12.5417 6.99984V8.82275C12.5417 9.11442 12.3958 9.40609 12.1042 9.58838L10.5729 10.4998C10.3177 10.6457 9.98958 10.6457 9.69792 10.4998L8.13021 9.58838C7.875 9.44255 7.69271 9.15088 7.69271 8.82275V7.65609L6.30729 8.45817V9.6613C6.30729 9.95296 6.45312 10.2446 6.74479 10.4269L9.69792 12.1405C9.95312 12.2863 10.2812 12.2863 10.5729 12.1405L13.526 10.4269C13.7812 10.2811 13.9635 9.98942 13.9635 9.6613V6.19775C13.9635 5.90609 13.8177 5.61442 13.526 5.43213L10.5729 3.71859Z" fill="#1A53F0"/>
</svg>
