<svg viewBox="0 0 13 14" fill="none" xmlns="http://www.w3.org/2000/svg">
<path fill-rule="evenodd" clip-rule="evenodd" d="M6.3909 0.0691738C6.22949 -0.0230579 6.02966 -0.0230579 5.86825 0.0691738L0.261324 3.30882C0.0999178 3.40105 0 3.57398 0 3.76229V10.2377C0 10.4222 0.0999178 10.5951 0.261324 10.6912L2.53253 12.0017V5.43399C2.53253 5.25337 2.62476 5.08427 2.78233 4.9882L4.3349 4.0313L5.86056 3.08977C6.02966 2.986 6.24102 2.986 6.40627 3.08977L7.93193 4.0313L9.4845 4.9882C9.63821 5.08427 9.73434 5.24953 9.73434 5.43399V8.5468C9.73434 8.72747 9.6421 8.89657 9.4845 8.99261L7.93193 9.94951L6.40627 10.891C6.26023 10.9795 6.1142 10.8334 6.1142 10.6605V9.42684C6.1142 9.25775 6.26408 9.13093 6.40627 9.04258L7.68214 8.25475C7.83586 8.15867 7.93193 7.99342 7.93193 7.80896V6.54462C7.93193 6.364 7.8397 6.1949 7.68214 6.09883L6.40627 5.31101C6.23717 5.20726 6.02581 5.20726 5.86056 5.31101L4.58469 6.09883C4.43097 6.1949 4.3349 6.36016 4.3349 6.54462V7.46309V11.3214V12.9701C4.3349 12.9932 4.3349 13.0162 4.33105 13.0393L5.87593 13.9309C6.03734 14.023 6.23718 14.023 6.39858 13.9309L12.0093 10.6912C12.1708 10.599 12.2706 10.426 12.2706 10.2377V3.75844C12.2706 3.57398 12.1708 3.40105 12.0093 3.30497L6.3909 0.0691738Z"/>
</svg>
