<svg viewBox="0 0 14 14" fill="none" xmlns="http://www.w3.org/2000/svg">
<path fill-rule="evenodd" clip-rule="evenodd" d="M7 0.543757C3.43432 0.543757 0.543757 3.43432 0.543757 7C0.543757 10.5657 3.43432 13.4562 7 13.4562C10.5657 13.4562 13.4562 10.5657 13.4562 7C13.4562 3.43432 10.5657 0.543757 7 0.543757ZM0 7C0 3.13401 3.13401 0 7 0C10.866 0 14 3.13401 14 7C14 10.866 10.866 14 7 14C3.13401 14 0 10.866 0 7Z"/>
<path fill-rule="evenodd" clip-rule="evenodd" d="M2.35076 7.00002L7.0006 2.35018L11.6504 7.00002L7.0006 11.6499L2.35076 7.00002ZM3.11975 7.00002L7.0006 10.8809L10.8815 7.00002L7.0006 3.11917L3.11975 7.00002Z"/>
<path fill-rule="evenodd" clip-rule="evenodd" d="M6.15185 6.5362L4.51134 4.89569L4.89584 4.5112L6.53634 6.1517L6.15185 6.5362Z"/>
<path fill-rule="evenodd" clip-rule="evenodd" d="M9.10443 9.48893L6.80772 7.19222L7.19222 6.80772L9.48893 9.10443L9.10443 9.48893Z"/>
<path fill-rule="evenodd" clip-rule="evenodd" d="M9.48911 4.89541L5.55188 8.83264L5.16739 8.44814L9.10462 4.51092L9.48911 4.89541Z"/>
</svg>
