<svg width="14" height="14" viewBox="0 0 14 14"  xmlns="http://www.w3.org/2000/svg">
<path d="M4.89591 0.301831L4.68799 0.610361L5.57333 2.46154C6.06296 3.48103 6.50563 4.39321 6.55258 4.48711L6.64648 4.65479L6.60624 4.4804C6.58612 4.3865 6.39832 3.38713 6.19039 2.27374L5.80809 0.241467L5.45931 0.120738L5.10383 8.49739e-06L4.89591 0.301831Z"/>
<path d="M7.19027 2.61625L7.0293 2.74368L7.18356 3.50159C7.26405 3.91073 7.35124 4.27962 7.37136 4.31316C7.39148 4.3467 7.49209 4.00463 7.59941 3.54854C7.70001 3.09246 7.7805 2.71685 7.76709 2.71015C7.76038 2.71015 7.67319 2.64978 7.57258 2.58942C7.35124 2.45527 7.38478 2.44857 7.19027 2.61625Z"/>
<path d="M12.0727 3.03114C11.7508 3.33297 11.0398 4.01039 10.4831 4.53355C9.92643 5.06342 9.49046 5.49268 9.51729 5.49268C9.54412 5.48597 10.4093 5.02988 11.4422 4.46648L13.3203 3.44028L13.3404 3.06468L13.3605 2.68908L13.0453 2.58176C12.8709 2.5214 12.7099 2.47445 12.6898 2.47445C12.6697 2.48116 12.388 2.72932 12.0727 3.03114Z"/>
<path d="M9.35669 3.06482C9.16218 3.08494 9.14877 3.10507 8.93414 3.80261C8.8067 4.19833 8.69268 4.58064 8.67256 4.65442C8.65244 4.7282 8.8939 4.49345 9.20913 4.12456C9.75241 3.50079 9.78595 3.45384 9.71888 3.27275C9.63839 3.0447 9.62498 3.03799 9.35669 3.06482Z"/>
<path d="M4.25181 3.80252C4.20486 3.82935 4.15791 3.95008 4.15121 4.0641C4.13108 4.25861 4.17133 4.29885 4.8018 4.70799C5.1707 4.94945 5.47923 5.13725 5.49264 5.12384C5.50605 5.11042 5.32496 4.80189 5.09021 4.42629C4.74144 3.86959 4.64083 3.75557 4.49998 3.75557C4.40608 3.74887 4.29876 3.77569 4.25181 3.80252Z"/>
<path d="M0.221337 6.74031L0 7.03543L0.221337 7.33725C0.40243 7.57871 0.476209 7.63237 0.610353 7.60554C0.704253 7.58542 1.59631 7.46469 2.58897 7.33725C3.58834 7.20311 4.50722 7.08238 4.63466 7.05555C4.79563 7.02872 4.26576 6.93482 2.89079 6.76043C1.80423 6.61958 0.804861 6.49215 0.677424 6.47203C0.462795 6.4452 0.422552 6.46532 0.221337 6.74031Z"/>
<path d="M10.8719 6.80759C10.4829 6.89479 10.1207 6.97527 10.0671 6.98869C9.96647 7.00881 10.9725 7.26368 11.4622 7.34417C11.6835 7.3777 11.7238 7.35758 11.8177 7.19661C11.925 7.02222 11.925 7.0021 11.7908 6.82101C11.717 6.7204 11.6366 6.63991 11.6164 6.63991C11.5963 6.64662 11.261 6.7204 10.8719 6.80759Z"/>
<path d="M3.97708 7.8742C3.56124 7.91444 3.20576 7.9748 3.18563 7.99493C3.16551 8.01505 3.13868 8.12907 3.13868 8.2498C3.12527 8.41748 3.16551 8.49126 3.29295 8.56503C3.44721 8.65223 3.50087 8.63211 4.13134 8.27663C4.85572 7.86078 4.98316 7.76688 4.8356 7.7803C4.78194 7.787 4.39292 7.82725 3.97708 7.8742Z"/>
<path d="M4.46699 8.83987C3.7359 9.16181 3.7292 9.16852 3.70908 9.40998C3.68895 9.6179 3.70908 9.65814 3.87005 9.71851C3.97066 9.75875 4.07126 9.77887 4.09138 9.77217C4.18528 9.73192 5.3188 8.51122 5.26514 8.51122C5.2316 8.51793 4.87612 8.65878 4.46699 8.83987Z"/>
<path d="M9.50426 8.57136C9.5378 8.6049 10.2689 9.29573 11.1341 10.1073L12.6969 11.5762L13.0255 11.4756L13.3542 11.3682V10.9859V10.6036L11.7646 9.74511C10.8859 9.27561 10.0207 8.80611 9.84633 8.6988C9.52438 8.51099 9.38353 8.45734 9.50426 8.57136Z"/>
<path d="M5.20509 9.66431C4.60815 10.2009 4.5612 10.2814 4.66851 10.5765C4.68863 10.6301 4.78924 10.657 4.94351 10.6436C5.18496 10.6234 5.19167 10.6167 5.51362 9.89235C5.69471 9.48992 5.83556 9.15456 5.82885 9.14786C5.81544 9.13444 5.54044 9.36919 5.20509 9.66431Z"/>
<path d="M5.66108 11.449C5.01719 12.8106 4.73549 13.4746 4.77574 13.5417C4.80256 13.5953 4.90317 13.7295 4.99037 13.8368C5.15134 14.0313 5.15134 14.0313 5.46657 13.9441C5.64096 13.8971 5.80193 13.8099 5.82205 13.763C5.869 13.649 6.63362 9.49053 6.62021 9.47041C6.6135 9.45699 6.17753 10.349 5.66108 11.449Z"/>
<path d="M8.31012 10.3354C8.35707 10.7915 8.41073 11.1671 8.41743 11.1805C8.43085 11.1872 8.53146 11.2275 8.64548 11.261C8.83328 11.3079 8.87352 11.2945 8.98754 11.1336L9.12169 10.9525L8.73267 10.2952C8.51804 9.93297 8.31012 9.61103 8.27658 9.57749C8.24305 9.54396 8.25646 9.87932 8.31012 10.3354Z"/>
<path d="M7.33125 9.88606C7.29101 10.0336 7.21052 10.4092 7.15015 10.7177L7.03613 11.2812L7.1904 11.4019C7.39161 11.5561 7.44527 11.5561 7.63307 11.4019L7.78063 11.2744L7.61295 10.5165C7.51905 10.094 7.43856 9.71838 7.42515 9.68484C7.41173 9.6446 7.37149 9.7385 7.33125 9.88606Z"/>
</svg>
