<svg width="14" height="14" viewBox="0 0 14 14" xmlns="http://www.w3.org/2000/svg">
  <path fill-rule="evenodd" clip-rule="evenodd" d="M7 14C10.866 14 14 10.866 14 7C14 3.13401 10.866 0 7 0C3.13401 0 0 3.13401 0 7C0 10.866 3.13401 14 7 14ZM8.0001 2.91046C7.3813 2.55319 6.6189 2.55319 6.0001 2.91046L3.95865 4.08909C3.91211 4.11596 3.86691 4.14454 3.82312 4.17473L10.8632 4.99549C10.6934 4.62109 10.4095 4.30152 10.0415 4.08909L8.0001 2.91046ZM11.0415 6.38624L10.9675 7.0212L2.95865 6.08749V7.93237L11.0371 7.55703L11.0415 7.65204V6.38624ZM3.95865 9.91046C3.94685 9.90364 3.93514 9.89672 3.92352 9.8897L10.4625 9.58588C10.3389 9.71072 10.1978 9.82025 10.0415 9.91046L8.0001 11.0891C7.38129 11.4464 6.6189 11.4464 6.0001 11.0891L3.95865 9.91046Z"/>
</svg>
