<svg viewBox="0 0 26 26" xmlns="http://www.w3.org/2000/svg">
<path d="M11.2254 0.116262C8.38608 0.546618 5.74148 1.86263 3.75018 3.85225C1.97246 5.62357 0.766369 7.86267 0.169606 10.4885C0.00628171 11.2182 0 11.318 0 12.9958C0 14.6735 0.00628171 14.7733 0.169606 15.5031C1.06161 19.4449 3.35443 22.526 6.79053 24.4033C8.6562 25.4137 10.9176 26 12.9969 26C13.9391 26 15.1515 25.8503 16.0121 25.632C16.6842 25.4636 18.1353 24.9647 18.5248 24.7713C19.2158 24.4283 20.114 23.9044 20.4721 23.6362C21.2008 23.0998 21.3578 22.9688 21.9923 22.3763C23.3491 21.1164 24.4359 19.5197 25.1394 17.7671C25.8241 16.0457 26 15.0727 26 12.9958C26 10.9188 25.8241 9.94584 25.1394 8.22442C24.4359 6.47181 23.3491 4.87513 21.9923 3.61524C21.3578 3.02272 21.2008 2.89175 20.4721 2.35536C20.114 2.08717 19.2158 1.56326 18.5248 1.22022C18.1353 1.02687 16.6842 0.527906 16.0121 0.359507C14.561 -0.00848007 12.7016 -0.102036 11.2254 0.116262ZM14.5045 1.23893C15.8488 1.38862 16.4706 1.56326 17.9783 2.19943C19.9758 3.0352 22.0488 4.88136 23.3051 6.94583C23.5815 7.39489 24.1783 8.68596 24.3291 9.15998C24.4924 9.65894 24.7437 10.7192 24.8504 11.3429C24.951 11.9542 24.951 14.0373 24.8504 14.6486C24.7437 15.2723 24.4924 16.3326 24.3291 16.8315C24.1783 17.3056 23.5815 18.5966 23.3051 19.0457C22.0488 21.1102 19.9758 22.9563 17.9783 23.7921C16.4706 24.4283 15.8488 24.6029 14.5045 24.7526C13.1727 24.9085 12.821 24.9085 11.4892 24.7526C10.1198 24.5967 9.60474 24.4532 7.94008 23.7547C7.46267 23.5613 6.41991 22.9501 5.96134 22.607C4.35951 21.4033 3.04663 19.8378 2.2677 18.2037C1.60184 16.8004 1.40082 16.1517 1.21865 14.8419C1.05533 13.6569 1.05533 12.3346 1.21865 11.1496C1.40082 9.83982 1.60184 9.19116 2.2677 7.78783C3.04663 6.15372 4.35951 4.58822 5.96134 3.38447C6.41991 3.04144 7.46267 2.43021 7.94008 2.23686C9.56705 1.55078 10.1324 1.39486 11.4076 1.23893C12.6765 1.08924 13.223 1.08924 14.5045 1.23893Z"/>
<path d="M12.4709 6.02958C10.4301 6.25872 8.81288 7.07214 7.90799 8.32092C7.43951 8.96822 7.3625 9.22027 7.3625 10.0967C7.3625 10.7555 7.38175 10.9216 7.50369 11.2309C7.80531 11.9928 8.38932 12.6687 9.20435 13.2186C9.60224 13.4879 11.3414 14.2727 11.9896 14.4731C12.2656 14.5591 12.9073 14.8168 13.4207 15.0403C14.1908 15.384 14.4154 15.5157 14.7748 15.825C15.2626 16.2547 15.4358 16.5182 15.5385 17.0108C15.7118 17.893 15.1471 18.4773 13.7416 18.8668C12.6506 19.1704 11.1168 18.9584 9.69209 18.3111C9.35196 18.1622 8.5305 17.5951 8.07485 17.2113L7.77323 16.9478L7.40742 17.2571C7.20206 17.429 7.02878 17.5722 7.01595 17.5779C6.84909 17.6352 8.02993 18.5746 8.76795 18.9699C9.89745 19.5828 10.552 19.789 11.8099 19.9552C12.5928 20.0525 13.7159 19.9895 14.7363 19.7833C16.9697 19.3365 18.5612 18.1622 18.9399 16.69C19.0618 16.2203 18.9912 15.3152 18.7923 14.8398C18.2275 13.4535 17.0338 12.6 14.0368 11.4371C12.4709 10.8242 11.3928 10.1253 11.0462 9.49522C10.8344 9.11716 10.7895 8.37247 10.9499 8.08605C11.1168 7.79391 11.3607 7.58769 11.7842 7.37574C12.7854 6.87738 14.0111 6.88311 15.423 7.3872C16.1097 7.63352 16.7065 8.00013 17.4061 8.60733C17.7013 8.85938 17.958 9.05987 17.9836 9.05414C18.0029 9.04269 18.189 8.89948 18.3944 8.73336L18.7602 8.43548L18.3879 8.0746C17.6628 7.37574 17.0467 6.9633 16.084 6.52795C15.2241 6.14415 13.5427 5.91502 12.4709 6.02958ZM9.73701 8.32092C9.64717 8.81355 9.7691 9.37493 10.0836 9.97641C10.3788 10.5206 10.7895 10.9159 11.5917 11.4085C12.0345 11.6834 13.671 12.4224 14.608 12.7718C14.8198 12.852 15.3653 13.1098 15.8145 13.3504C17.0916 14.0263 17.6884 14.6851 17.8553 15.5959C17.9901 16.3578 17.7719 16.9822 17.1622 17.5493C16.6231 18.0591 16.5718 18.0705 16.6552 17.6753C16.7386 17.2686 16.6295 16.627 16.3985 16.0828C16.2509 15.7506 16.1354 15.6074 15.7375 15.2522C15.2433 14.8111 14.762 14.5018 14.2101 14.2497C13.6774 14.0149 11.7136 13.2473 11.6302 13.2473C11.5211 13.2473 10.828 12.9322 10.2183 12.6C9.67284 12.3021 9.16585 11.8897 8.88989 11.5288C8.64602 11.2023 8.45349 10.4347 8.49841 9.92485C8.54976 9.26609 8.73587 8.89948 9.26211 8.40111C9.5124 8.16625 9.73701 7.97722 9.75627 7.97722C9.78194 7.97722 9.77552 8.13188 9.73701 8.32092Z"/>
</svg>
