<svg viewBox="0 0 13 14" fill="#6B93C0" xmlns="http://www.w3.org/2000/svg">
<path fill-rule="evenodd" clip-rule="evenodd" d="M12.92 5.38983V0H0.00315906V5.38983C0.00315906 5.48275 0.00245921 5.58233 0.00171831 5.68775C-0.00646069 6.85152 -0.0196413 8.72696 0.848503 10.2034C2.0658 12.2542 4.2975 13.8136 6.46158 14C8.60876 13.8136 10.8405 12.2542 12.0578 10.2034C12.9426 8.74057 12.9295 6.8491 12.9214 5.68344C12.9207 5.57953 12.92 5.48139 12.92 5.38983ZM11.8435 5.62874V1.07694H1.07958V5.61438C1.07958 5.69303 1.079 5.77742 1.07838 5.86682C1.07155 6.85465 1.06048 8.45461 1.78588 9.69233C2.80295 11.4298 4.65344 12.7508 6.46156 12.9231C8.26968 12.7652 10.1202 11.4441 11.1372 9.70669C11.8626 8.45589 11.8516 6.86706 11.8447 5.88113C11.8441 5.79182 11.8435 5.70746 11.8435 5.62874Z" />
<path fill-rule="evenodd" clip-rule="evenodd" d="M10.9747 2.33765V5.89138C10.9747 5.9517 10.9751 6.01635 10.9756 6.08481V6.08497V6.08502C10.9766 6.22852 10.9778 6.3887 10.975 6.56061L6.4398 3.43285H5.50108L10.9399 7.24004C10.8828 7.84387 10.74 8.50259 10.3901 9.06516C9.5648 10.4174 8.05178 11.4455 6.59607 11.5684C5.12889 11.4455 3.61587 10.4174 2.79059 9.06516C2.20202 8.09169 2.21095 6.85513 2.2165 6.08781C2.217 6.0183 2.21747 5.95264 2.21747 5.89138V5.89055L7.53492 9.61276L7.92606 9.22163L2.21747 5.23344V2.33765H10.9747Z" />
</svg>
