<svg width="8" height="14" viewBox="0 0 8 14" xmlns="http://www.w3.org/2000/svg">
<path d="M7.90864 1.4025C8.08046 0.765835 7.79966 -0.0166483 7.11625 0.000269659C5.80202 -0.0179598 5.58789 1.81652 5.73535 3.41924L4.34161 4.60793C3.82233 4.16397 3.09661 4.07672 2.44399 4.23167C0.261711 4.76678 -0.542215 7.87847 0.370704 9.66347C-0.0754988 10.7102 -0.0126755 11.9952 0.596355 12.9665C1.10924 13.9899 2.66325 14.3219 2.35423 13.65C2.28115 13.559 2.28115 13.5915 2.1696 13.5797C0.71176 13.4873 0.347626 11.2974 0.750223 10.2481C2.04266 11.7687 4.89038 11.248 5.89561 9.89391C7.38167 7.9019 6.8752 5.48676 6.56877 3.31769C7.11113 2.77737 7.71631 2.17847 7.90864 1.4025ZM0.610473 9.01248C-0.131911 6.11691 2.34525 3.77337 3.9403 4.95295H3.94158C2.5581 6.04791 1.42209 7.43319 0.610473 9.01248ZM5.26864 9.3523C4.40956 10.8808 1.85418 11.2154 0.89768 9.67648C1.17591 8.85624 1.60287 8.0959 2.1555 7.43451L2.16319 7.4319C2.78889 6.68587 3.4723 5.99193 4.20699 5.35527C4.53651 6.36949 3.72361 7.74046 2.77222 7.67407C2.82864 8.56982 4.15826 7.87327 4.41726 7.51522C5.03912 6.8356 5.09554 5.58961 4.6519 4.96207L5.7892 4.00512C6.02512 6.72492 6.18667 7.52954 5.26864 9.3523ZM6.49184 2.69794C6.25463 0.151308 7.24833 0.399978 7.37526 0.618702C7.71759 1.31526 6.80982 2.48051 6.49184 2.69794Z"/>
</svg>
