<svg viewBox="0 0 14 7" fill="none" xmlns="http://www.w3.org/2000/svg">
<path fill-rule="evenodd" clip-rule="evenodd" d="M7.19457 3.9251C10.7459 3.48906 13.5375 2.42488 13.4299 1.54821C13.3223 0.671512 10.3561 0.31431 6.80475 0.750351C3.25343 1.18642 0.461776 2.2506 0.569417 3.12727C0.677064 4.00394 3.64324 4.36114 7.19457 3.9251Z" fill="#1A53F0" stroke="#1A53F0" stroke-width="0.976562"/>
<path fill-rule="evenodd" clip-rule="evenodd" d="M7.15808 3.67499C10.4935 3.26546 13.124 2.33646 13.0336 1.59998C12.9432 0.863521 10.166 0.598479 6.83063 1.00801C3.49525 1.41754 0.864717 2.34654 0.955144 3.08303C1.04557 3.81948 3.82274 4.08453 7.15808 3.67499Z" fill="#0A2778"/>
<path fill-rule="evenodd" clip-rule="evenodd" d="M6.95388 5.9726C8.71641 5.9726 10.2094 4.81632 10.7188 3.21943C10.7306 3.18273 10.6657 3.22638 10.5438 3.26374C10.333 3.32836 9.93298 3.44084 9.32939 3.56628C8.5037 3.73792 7.31894 3.91128 6.91466 3.95944C6.49595 4.00933 5.64196 4.05502 4.90503 4.08042C4.47082 4.09536 4.14668 4.12049 3.90656 4.11192C3.73914 4.10595 3.57048 4.04661 3.6111 4.11192C4.3089 5.23352 5.53781 5.9726 6.95388 5.9726Z" fill="#0A2778"/>
<path fill-rule="evenodd" clip-rule="evenodd" d="M7.21252 5.65166C8.00685 5.65166 8.57425 5.18423 8.57425 5.09817C8.57425 5.01211 8.00685 5.309 7.21252 5.309C6.41822 5.309 5.62622 5.22294 5.62622 5.309C5.62622 5.36327 6.02798 5.5253 6.51852 5.58996C6.80586 5.62783 6.91911 5.65166 7.21252 5.65166Z" fill="#1A53F0"/>
</svg>
