<svg width="14" height="14" viewBox="0 0 14 14" xmlns="http://www.w3.org/2000/svg">
  <path fill-rule="evenodd" clip-rule="evenodd" d="M13.7928 6.99993C13.7928 10.7526 10.7526 13.7928 6.99993 13.7928C3.24727 13.7928 0.207031 10.7526 0.207031 6.99993C0.207031 3.24727 3.24727 0.207031 6.99993 0.207031C10.7526 0.207031 13.7928 3.24727 13.7928 6.99993ZM7.99398 5.02012L7.00818 3.53727L6.04724 5.06154C5.79872 4.86272 5.61647 4.59763 5.52534 4.29941C5.43422 4.00118 5.4425 3.6781 5.54191 3.37988C5.64132 3.08165 5.82357 2.82485 6.08037 2.63432C6.32889 2.44378 6.6354 2.34437 6.9502 2.33609C7.26499 2.32781 7.5715 2.41893 7.83659 2.59289C8.10168 2.76686 8.30049 3.02366 8.41647 3.31361C8.53245 3.60355 8.54901 3.92662 8.47446 4.23313C8.3999 4.53964 8.23422 4.81301 7.99398 5.02012ZM5.75748 9.0378L3.95156 9.01295L4.69712 7.39757C4.3989 7.30644 4.07582 7.30644 3.77759 7.39757C3.47937 7.49698 3.21428 7.67922 3.02375 7.92774C2.83322 8.17626 2.72552 8.48277 2.71724 8.79757C2.70896 9.11236 2.7918 9.41887 2.96576 9.68396C3.13972 9.94904 3.38825 10.1479 3.67819 10.2721C3.96813 10.3881 4.2912 10.4129 4.59771 10.3467C4.90422 10.2721 5.17759 10.1147 5.39298 9.87449C5.5918 9.64253 5.71606 9.35259 5.75748 9.0378ZM10.007 9.01292L8.20109 9.06262C8.24251 9.37742 8.38334 9.66736 8.58216 9.89931C8.79754 10.1313 9.0792 10.2887 9.38571 10.3549C9.69222 10.4212 10.0153 10.3964 10.3052 10.2721C10.5952 10.1478 10.8437 9.94073 11.0094 9.67564C11.1751 9.40227 11.2579 9.09576 11.2413 8.78097C11.2248 8.46617 11.1171 8.16795 10.9183 7.91943C10.7194 7.67091 10.4543 7.48866 10.1561 7.39754C9.8579 7.30641 9.53482 7.3147 9.23659 7.4141L10.007 9.01292Z"/>
</svg>
