<svg viewBox="0 0 10 14" fill="none" xmlns="http://www.w3.org/2000/svg">
<path d="M3.1985 0.138385C1.29672 0.711315 0.272691 2.22605 0.392383 4.29802C0.44558 5.16918 0.638417 5.70287 1.13713 6.32289C1.89518 7.2647 2.62664 7.64142 4.90744 8.25359C6.26395 8.61462 6.68287 8.78728 6.9422 9.08552C7.38772 9.58781 7.29463 10.5139 6.75601 10.977C6.2307 11.4322 4.6747 11.495 3.91665 11.0868C3.40463 10.82 3.01896 10.3491 2.75963 9.67414C2.65323 9.39945 2.52024 9.14046 2.4604 9.10121C2.32741 9.01488 1.75554 9.13261 0.817955 9.44654C0.0732042 9.68984 -0.0464879 9.78402 0.0133582 10.0901C0.412332 12.0522 1.92178 13.5434 3.83021 13.8573C5.85832 14.1948 7.34783 13.9358 8.4716 13.0568C9.58208 12.1778 10.1606 10.6473 9.9611 9.06982C9.72172 7.16267 8.59129 6.26796 5.4128 5.47527C3.57752 5.01222 3.17855 4.74537 3.1187 3.92914C3.07881 3.4033 3.25834 3.09722 3.75041 2.82252C4.08954 2.63416 4.20923 2.61062 4.82764 2.61062C5.87162 2.61847 6.33044 2.90101 6.80921 3.86636C6.98875 4.23523 7.01535 4.25877 7.26138 4.24308C7.57391 4.22738 9.12326 3.70154 9.33604 3.54457C9.41584 3.48179 9.48233 3.35621 9.48233 3.26988C9.48233 2.96379 9.05011 2.13972 8.61789 1.62173C8.07928 0.986008 7.56061 0.609286 6.74936 0.287503C6.1509 0.0442038 6.07111 0.036356 4.92738 0.00496197C3.8967 -0.0107346 3.65732 0.00496197 3.1985 0.138385Z" fill="#1A53F0"/>
</svg>
