<svg viewBox="0 0 10 14" fill="none" xmlns="http://www.w3.org/2000/svg">
<path fill-rule="evenodd" clip-rule="evenodd" d="M0.651409 11.5689C1.06725 12.3066 1.67172 12.9205 2.40291 13.3477C3.13409 13.7749 3.9657 14 4.81252 14C5.65935 14 6.49096 13.7749 7.22214 13.3477C7.95333 12.9205 8.5578 12.3066 8.97364 11.5689C9.40038 10.8298 9.62505 9.99145 9.62505 9.13802C9.62505 8.28458 9.40038 7.44619 8.97364 6.70711L5.31386 0.292866C5.26376 0.203996 5.19093 0.130042 5.10283 0.0785811C5.01474 0.0271197 4.91455 0 4.81252 0C4.7105 0 4.61031 0.0271197 4.52222 0.0785811C4.43412 0.130042 4.36129 0.203996 4.31118 0.292866L0.651409 6.70711C0.224664 7.44619 0 8.28458 0 9.13802C0 9.99145 0.224664 10.8298 0.651409 11.5689ZM3.78156 3.34441L4.56185 1.97679C4.58691 1.93235 4.62332 1.89537 4.66737 1.86964C4.71142 1.84391 4.76151 1.83035 4.81252 1.83035C4.86354 1.83035 4.91363 1.84391 4.95768 1.86964C5.00172 1.89537 5.03814 1.93235 5.06319 1.97679L8.06507 7.23799C8.33455 7.70447 8.50161 8.22298 8.55516 8.75904C8.60871 9.29509 8.54751 9.8364 8.37563 10.347C8.33829 10.1729 8.28693 10.0022 8.22205 9.83646C7.80741 8.77757 6.86986 7.96046 5.43489 7.4077C4.44835 7.02904 3.81859 6.47212 3.56271 5.7522C3.23315 4.82467 3.57737 3.81296 3.78156 3.34441ZM2.451 5.67643L1.55997 7.23799C1.22638 7.8157 1.05075 8.47106 1.05075 9.13817C1.05075 9.80529 1.22638 10.4606 1.55997 11.0384C1.82964 11.5161 2.20117 11.9286 2.64818 12.2465C3.09519 12.5645 3.60672 12.7802 4.14645 12.8782C4.68619 12.9763 5.24089 12.9543 5.77118 12.8139C6.30147 12.6734 6.79433 12.418 7.21479 12.0656C7.44712 11.4716 7.45542 10.8133 7.23813 10.2137C6.93363 9.44862 6.20052 8.83787 5.05931 8.39799C3.76931 7.90285 2.93131 7.12984 2.56881 6.10112C2.51999 5.96238 2.48063 5.82049 2.451 5.67643Z"/>
</svg>
