<svg width="18" height="20" viewBox="0 0 24 24" fill="white" xmlns="http://www.w3.org/2000/svg">
<path fill-rule="evenodd" clip-rule="evenodd" d="M12.25 24C10.7983 24 9.37273 23.6141 8.11927 22.8818C6.86581 22.1494 5.82957 21.0971 5.1167 19.8324C4.38514 18.5655 4 17.1282 4 15.6652C4 14.2021 4.38514 12.7649 5.1167 11.4979L11.3906 0.502056C11.4765 0.349707 11.6014 0.22293 11.7524 0.13471C11.9034 0.0464909 12.0751 0 12.25 0C12.4249 0 12.5967 0.0464909 12.7477 0.13471C12.8987 0.22293 13.0236 0.349707 13.1095 0.502056L19.3834 11.4979C20.1149 12.7649 20.5001 14.2021 20.5001 15.6652C20.5001 17.1282 20.1149 18.5655 19.3834 19.8324C18.6705 21.0971 17.6343 22.1494 16.3808 22.8818C15.1274 23.6141 13.7017 24 12.25 24ZM11.8203 3.38878L10.4827 5.73328C10.1326 6.5365 9.54254 8.27086 10.1075 9.86092C10.5462 11.0951 11.6257 12.0498 13.317 12.6989C15.7769 13.6465 17.3841 15.0473 18.0949 16.8625C18.2062 17.1466 18.2942 17.4393 18.3582 17.7377C18.6529 16.8624 18.7578 15.9344 18.666 15.0155C18.5742 14.0965 18.2878 13.2077 17.8258 12.408L12.6798 3.38878C12.6368 3.3126 12.5744 3.24921 12.4989 3.2051C12.4234 3.16099 12.3375 3.13775 12.25 3.13775C12.1626 3.13775 12.0767 3.16099 12.0012 3.2051C11.9257 3.24921 11.8633 3.3126 11.8203 3.38878ZM6.67424 12.408L8.20172 9.73102C8.25251 9.97798 8.31998 10.2212 8.40368 10.4591C9.0251 12.2226 10.4617 13.5477 12.6731 14.3966C14.6295 15.1506 15.8862 16.1976 16.4082 17.5091C16.7807 18.5372 16.7665 19.6656 16.3682 20.6839C15.6474 21.2879 14.8025 21.7259 13.8934 21.9666C12.9844 22.2074 12.0335 22.245 11.1082 22.077C10.1829 21.9089 9.30604 21.5392 8.53973 20.9941C7.77343 20.449 7.13652 19.7418 6.67424 18.9229C6.10236 17.9325 5.80129 16.8091 5.80129 15.6654C5.80129 14.5218 6.10236 13.3983 6.67424 12.408Z"/>
</svg>
