<svg viewBox="0 0 13 14" fill="none" xmlns="http://www.w3.org/2000/svg">
<path fill-rule="evenodd" clip-rule="evenodd" d="M4.10753 13.0488C4.0421 12.991 4.00107 12.9105 3.99291 12.8236L3.3425 5.90423H5.6572V13.6561C5.6572 13.9517 5.30835 14.109 5.08674 13.9134L4.10753 13.0488ZM5.6572 5.76691V4.80095L3.21897 4.59027L3.32956 5.76691H5.6572ZM5.6572 4.66311L3.20593 4.45136L2.82283 0.375388C2.80385 0.174011 2.96227 0 3.16458 0H5.31397C5.50356 0 5.6572 0.153684 5.6572 0.34326V4.66311Z"/>
<path fill-rule="evenodd" clip-rule="evenodd" d="M10.1811 5.76692H11.9456C12.0404 5.76692 12.1173 5.69015 12.1173 5.59536V4.58317C12.1173 4.48169 12.0298 4.40249 11.929 4.41235L10.2905 4.57225L10.1811 5.76692ZM10.1514 4.58592L7.70973 4.82429V5.76692H10.0433L10.1514 4.58592ZM7.57242 4.83775V5.76692H1.07105C0.976256 5.76692 0.899414 5.69015 0.899414 5.59536V4.58084C0.899414 4.48032 0.985481 4.40132 1.08567 4.4098L6.8638 4.90402C6.87419 4.90498 6.88469 4.90487 6.89508 4.90381L7.57242 4.83775Z"/>
<path fill-rule="evenodd" clip-rule="evenodd" d="M8.29711 13.89C8.08154 14.1086 7.70947 13.9559 7.70947 13.6489V3.00015H10.2993L9.39836 12.6631C9.39105 12.742 9.35659 12.8159 9.30103 12.8723L8.29711 13.89ZM10.3122 2.86283H7.70947V1.38284L10.4662 1.21086L10.3122 2.86283ZM7.70947 0.34326V1.24526L10.4792 1.07248L10.5442 0.375133C10.5629 0.17384 10.4045 0 10.2023 0H8.0527C7.86311 0 7.70947 0.153684 7.70947 0.34326Z"/>
<path fill-rule="evenodd" clip-rule="evenodd" d="M5.65696 2.86301V1.38732L2.9036 1.25182L3.05428 2.86301H5.65696ZM5.79427 2.86301H12.7351C12.8109 2.86301 12.8724 2.80151 12.8724 2.7257V1.20031C12.8724 1.12105 12.8055 1.05824 12.7264 1.06327L6.76574 1.44189L5.79427 1.39408V2.86301ZM2.75378 1.24445L2.91824 2.86301H0.137302C0.0614776 2.86301 0 2.80151 0 2.7257V1.25315C0 1.17467 0.0656661 1.11215 0.144056 1.11601L2.75378 1.24445Z"/>
</svg>
