<svg viewBox="0 0 11 14" xmlns="http://www.w3.org/2000/svg">
<path d="M7.15534 14C6.08738 14 5.28641 13.7491 4.80583 13.2975C4.32524 12.7957 4.05825 12.2939 4.05825 11.7419C4.05825 11.5412 4.11165 11.3907 4.21845 11.2401C4.32524 11.0896 4.43204 10.9892 4.53883 10.9391C4.69903 10.8387 4.85922 10.7885 5.07281 10.7885C5.28641 10.7885 5.4466 10.8387 5.6068 10.9391C5.76699 11.0394 5.87379 11.1398 5.92718 11.2401C6.03398 11.3907 6.08738 11.5412 6.08738 11.7419C6.08738 11.9928 6.03398 12.1935 5.87379 12.3441C5.76699 12.4946 5.6068 12.595 5.4466 12.6452C5.6068 12.8459 5.82039 12.9462 6.14078 13.0466C6.46116 13.147 6.78155 13.1971 7.10194 13.1971C7.52913 13.1971 7.95631 13.0968 8.3301 12.8459C8.70388 12.6452 8.97087 12.2939 9.13107 11.8423C9.29126 11.3907 9.39806 10.8889 9.39806 10.3369C9.39806 9.73477 9.29126 9.23297 9.13107 8.78136C8.91748 8.32975 8.70388 8.02867 8.3301 7.82796C7.95631 7.62724 7.58252 7.52688 7.15534 7.52688C6.88835 7.52688 6.56796 7.62724 6.14078 7.82796L5.3932 8.17921V7.82796L8.75728 3.56272H4.05825V7.9785C4.05825 8.32975 4.16505 8.63082 4.32524 8.88172C4.48544 9.13262 4.75243 9.23298 5.12621 9.23298C5.3932 9.23298 5.66019 9.13262 5.92718 8.98208C6.19417 8.78136 6.40777 8.58064 6.56796 8.37993C6.62136 8.32975 6.62136 8.27957 6.67476 8.27957C6.72815 8.22939 6.72816 8.22939 6.78155 8.22939C6.83495 8.22939 6.94175 8.27957 6.99515 8.32975C7.10194 8.43011 7.10194 8.53046 7.10194 8.63082C7.10194 8.681 7.04854 8.78136 7.04854 8.83154C6.83495 9.23297 6.62136 9.53405 6.24757 9.78495C5.87379 10.0358 5.5534 10.086 5.12621 10.086C4.11165 10.086 3.41748 9.8853 2.99029 9.53405C2.6165 9.1828 2.40291 8.63082 2.40291 8.02867V3.6129H0V2.75986H2.40291V0.903225L1.86893 0.401433V0H3.47087L4.05825 0.301074V2.81003H10.2524L10.8398 3.36201L7.04854 6.92473C7.26213 6.82437 7.52913 6.77419 7.74272 6.77419C8.1699 6.77419 8.59709 6.92473 9.13107 7.12545C9.66505 7.37634 10.0388 7.67742 10.3058 8.12903C10.5728 8.53046 10.7864 8.9319 10.8398 9.33333C10.9466 9.73477 11 10.0358 11 10.3871C11 11.0896 10.8398 11.6918 10.5194 12.2939C10.199 12.8961 9.77184 13.3477 9.13107 13.5986C8.54369 13.8495 7.90291 14 7.15534 14Z" />
</svg>
