<svg viewBox="0 0 14 14" fill="none" xmlns="http://www.w3.org/2000/svg">
<path d="M13.4641 4.21769C12.8079 3.61175 11.9 2.68644 11.1607 2.03019L11.1169 1.99956C11.0441 1.94111 10.9621 1.89526 10.8741 1.86394C9.0913 1.53144 0.794111 -0.0195017 0.632236 0.000185777C0.586878 0.00653829 0.543522 0.0229836 0.505361 0.0483108L0.463799 0.0811233C0.412621 0.133098 0.373751 0.195889 0.350049 0.264873L0.339111 0.293311V0.448623V0.472686C1.27317 3.07362 4.9613 11.5939 5.68755 13.5933C5.7313 13.7289 5.81442 13.9871 5.96974 14.0002H6.00474C6.08786 14.0002 6.44224 13.5321 6.44224 13.5321C6.44224 13.5321 12.7772 5.84956 13.4182 5.03144C13.5011 4.93066 13.5744 4.82226 13.6369 4.70769C13.6529 4.61804 13.6454 4.52579 13.6151 4.43992C13.5848 4.35405 13.5328 4.27748 13.4641 4.21769ZM8.06755 5.11237L10.7713 2.87019L12.3572 4.33144L8.06755 5.11237ZM7.01755 4.96581L2.36255 1.15081L9.89411 2.53987L7.01755 4.96581ZM7.43755 5.9655L12.2019 5.19769L6.75505 11.7602L7.43755 5.9655ZM1.73036 1.53144L6.62817 5.68769L5.91942 11.7646L1.73036 1.53144Z"/>
</svg>
