<svg viewBox="0 0 14 13" fill="none" xmlns="http://www.w3.org/2000/svg">
<g clip-path="url(#clip0_1694_21956)">
<path d="M1.2172 1.73992C2.27427 1.73995 3.18438 1.94586 3.92187 2.35197C4.62702 2.74028 5.29146 3.36871 5.93403 3.97645C7.00341 4.98784 8.10918 6.03369 9.43367 6.03369C9.44554 6.03369 9.45769 6.03361 9.46959 6.03344C10.4768 6.01938 11.087 4.90946 11.6255 3.93019C11.9085 3.41547 12.1529 2.97094 12.4404 2.70567C12.9147 2.26806 13.426 2.00102 13.9602 1.91201L14.0002 1.90534V0.23548C14.0002 0.23548 13.0298 -0.237915 11.9259 0.890961C11.2171 1.61577 10.6504 4.21949 9.13298 4.24295C7.10653 4.27428 5.72759 1.58152 4.07881 0.575373C2.35656 -0.475607 0.00537109 0.23548 0.00537109 0.23548V1.82697C0.415034 1.7696 0.822554 1.73989 1.2172 1.73992Z" />
<path d="M13.9987 5.0052L14 4.82099V4.32127C13.6974 4.43649 13.3678 4.62151 13.0274 4.91339C12.1716 5.6469 11.4875 8.28184 9.65546 8.30559C7.20894 8.33731 5.54414 5.61224 3.55354 4.59399C2.39742 4.0026 1.00715 3.9627 0 4.04371V5.0052L0.00135625 4.82099C0.0303845 8.78965 3.15207 12.1821 7 12.1821C10.848 12.1821 13.9696 8.97386 13.9987 5.0052Z" />
<path d="M3.6643 4.37731C4.42109 4.76441 5.13556 5.39217 5.82652 5.99927C6.98102 7.01359 8.17482 8.0625 9.61313 8.0625C9.62606 8.0625 9.63934 8.06242 9.6523 8.06225C10.7523 8.04797 11.4113 6.93461 11.9927 5.95228C12.2973 5.43764 12.5604 4.99314 12.8691 4.72857C13.1993 4.44552 13.5507 4.23197 13.9135 4.09381L14 4.06086V2.15157C13.605 2.2174 13.1186 2.41023 12.6051 2.88408C11.8101 3.61756 11.1747 6.25253 9.47276 6.27627C7.20003 6.30797 5.65351 3.58293 3.80433 2.56468C2.52037 1.85768 0.925618 1.93866 0 2.07241V3.79993C0.259678 3.77954 0.518185 3.76885 0.768524 3.76885C1.90074 3.76887 2.87501 3.97358 3.6643 4.37731Z" />
</g>
<defs>
<clipPath id="clip0_1694_21956">
<rect width="14" height="12.182" fill="white"/>
</clipPath>
</defs>
</svg>
