<svg width="18" height="20" viewBox="0 0 15 16" fill="none" xmlns="http://www.w3.org/2000/svg">
<path d="M7.48104 10.3239L9.68809 13.7878L11.7269 12.6063L8.82834 8.03775L7.48104 10.3239Z" />
<path d="M13.5835 11.2168L13.582 10.2702L10.4149 5.33723L9.23982 7.33102L12.2973 12.2759L13.4028 11.6353C13.5112 11.5472 13.5768 11.418 13.5837 11.2785L13.5835 11.2168Z" />
<path d="M0.311573 12.1098L1.87268 13.0093L7.06762 4.67812L6.18592 4.65483C5.43472 4.64421 4.62551 4.83949 4.25406 5.44581L1.304 10.0182L0.311523 11.5432L0.311573 12.1098Z" />
<path d="M10.0659 4.67791L7.74227 4.68635L2.48507 13.3617L4.32259 14.4197L4.8223 13.5722L10.0659 4.67791Z" />
<path d="M14.5627 4.66601C14.5432 4.18005 14.2801 3.73516 13.868 3.47616L8.09117 0.1541C7.68347 -0.0512174 7.17412 -0.0514658 6.76577 0.15395C6.71751 0.178281 1.14794 3.40844 1.14794 3.40844C1.07087 3.44538 0.996641 3.48942 0.926779 3.53937C0.558847 3.80308 0.334563 4.21282 0.311523 4.66303V11.5432L1.304 10.0182L1.29531 4.70955C1.2965 4.69014 1.29893 4.67107 1.30236 4.6522C1.32475 4.52728 1.39451 4.41585 1.49953 4.34058C1.52575 4.32181 7.19041 1.0429 7.20844 1.03386C7.34161 0.966976 7.51077 0.966281 7.64409 1.03182L13.3461 4.31173C13.4811 4.39763 13.5656 4.54331 13.5731 4.70255V11.2786C13.5662 11.4181 13.5112 11.5472 13.4028 11.6353L12.2973 12.2759L11.7269 12.6063L9.68809 13.7878L7.62046 14.9862C7.50909 15.0264 7.3789 15.0242 7.26847 14.9793L4.8223 13.5722L4.32259 14.4197L6.52088 15.6855C6.59358 15.7268 6.65837 15.7635 6.7115 15.7933C6.79383 15.8395 6.84989 15.8704 6.8697 15.8799C7.02596 15.9558 7.25074 16 7.45333 16C7.63908 16 7.82017 15.9659 7.99157 15.8988L13.9969 12.4209C14.3416 12.1538 14.5444 11.7511 14.5627 11.3148V4.66601Z" />
</svg>
