<svg width="18" height="20" viewBox="0 0 14 14" fill="none" xmlns="http://www.w3.org/2000/svg">
<path fill-rule="evenodd" clip-rule="evenodd" d="M14 7C14 10.866 10.866 14 7 14C3.13401 14 0 10.866 0 7C0 3.13401 3.13401 0 7 0C10.866 0 14 3.13401 14 7ZM5.0164 9.78565H3.6579C3.37243 9.78565 3.23143 9.78565 3.14545 9.73065C3.05259 9.67044 2.99584 9.57071 2.98896 9.46063C2.9838 9.35921 3.05431 9.23536 3.19532 8.98773L6.54963 3.07529C6.69236 2.82422 6.76458 2.69869 6.85572 2.65226C6.95374 2.6024 7.07068 2.6024 7.1687 2.65226C7.25984 2.69869 7.33207 2.82422 7.47479 3.07529L8.16437 4.27903L8.16788 4.28517C8.32204 4.55452 8.40022 4.69111 8.43435 4.83446C8.47217 4.99095 8.47217 5.15604 8.43435 5.31252C8.39995 5.45697 8.32257 5.59455 8.16608 5.86797L6.40414 8.98258L6.39959 8.99055C6.24441 9.26212 6.16577 9.39976 6.05678 9.5036C5.93813 9.61712 5.79539 9.69961 5.63891 9.74613C5.49617 9.78565 5.33626 9.78565 5.0164 9.78565ZM8.44707 9.78565H10.3936C10.6808 9.78565 10.8253 9.78565 10.9113 9.72898C11.0042 9.66876 11.0626 9.56726 11.0678 9.45727C11.0728 9.35912 11.0038 9.24009 10.8686 9.00686C10.864 8.99891 10.8593 8.99083 10.8546 8.98261L9.87951 7.31458L9.86842 7.2958C9.7314 7.0641 9.66224 6.94709 9.57341 6.90187C9.47545 6.85199 9.36015 6.85199 9.26218 6.90187C9.17275 6.9483 9.10053 7.07039 8.9578 7.3163L7.98621 8.98434L7.98288 8.99008C7.84065 9.23559 7.76957 9.35828 7.7747 9.45895C7.78158 9.56903 7.83832 9.67044 7.93118 9.73065C8.01545 9.78565 8.15989 9.78565 8.44707 9.78565Z" fill="white"/>
</svg>
