<svg width="18" height="20" viewBox="0 0 16 15" fill="none" xmlns="http://www.w3.org/2000/svg">
<path d="M0.415527 0C0.368815 0 0.350558 0.0533919 0.380089 0.0829226C0.401096 0.187956 0.434193 0.280899 0.465463 0.36871C0.488522 0.433462 0.510587 0.495423 0.526077 0.557385C0.526077 0.666873 0.599071 0.739873 0.672067 0.739873C0.818007 0.739873 0.927493 0.776367 1.03699 0.812867C1.10998 0.812867 1.14648 0.776367 1.10998 0.703373C1.08707 0.611739 1.04979 0.520106 1.01617 0.437498C0.996229 0.388497 0.977581 0.342671 0.963993 0.301905C0.963993 0.228911 0.891 0.119419 0.818007 0.119419C0.763251 0.10116 0.69935 0.0829009 0.635448 0.0646415C0.571622 0.0464038 0.507796 0.028166 0.453083 0.00992825C0.43915 0.00297134 0.426547 0 0.415527 0Z" />
<path d="M16 12.5277H12.7154L10.3433 10.1556L9.57687 10.9219C9.64676 9.55919 9.34861 8.46407 8.6824 7.63659C8.62574 7.46452 8.55894 7.28233 8.482 7.09C8.47533 7.06333 8.46744 7.03788 8.459 7.0141C8.24866 6.22314 8.04264 5.56561 7.8616 5.08277C7.7886 4.93679 7.7156 4.7908 7.67913 4.68131H8.15353L10.3797 6.87107L12.6059 4.68131H15.8905L12.022 8.51333L12.314 8.80527L16 12.5277Z" />
<path d="M8.4758 7.07752C8.47784 7.08165 8.4799 7.08581 8.482 7.09C8.55783 7.27955 8.61397 7.44942 8.66065 7.60983C8.65086 7.5979 8.641 7.58603 8.63106 7.57421C8.60952 7.52128 8.58664 7.467 8.56213 7.41137C8.53332 7.29769 8.50452 7.18637 8.4758 7.07752Z" />
<path d="M8.44128 7.15262C8.44268 7.15605 8.44407 7.15951 8.44547 7.163C8.48826 7.24858 8.52688 7.33136 8.56213 7.41137C8.5719 7.44995 8.58169 7.48881 8.59147 7.52793C8.6048 7.54326 8.61799 7.55869 8.63106 7.57421C8.65564 7.63464 8.67845 7.69331 8.69992 7.75022C8.72628 7.84805 8.75011 7.94333 8.77394 8.03861L8.774 8.1848L8.66447 8.0754C8.66447 8.06026 8.6582 8.03886 8.65087 8.01379C8.6405 7.97837 8.628 7.93564 8.628 7.89293C8.59518 7.69622 8.53295 7.4406 8.44128 7.15262Z" />
<path d="M8.43835 7.14541C8.42918 7.11541 8.41942 7.0848 8.409 7.05353C8.42014 7.08695 8.4309 7.11999 8.44128 7.15262C8.4403 7.1502 8.43933 7.1478 8.43835 7.14541Z" />
<path fill-rule="evenodd" clip-rule="evenodd" d="M8.336 7.05353C8.38309 7.21829 8.39981 7.38308 8.41553 7.53808C8.42418 7.62336 8.43252 7.70568 8.44547 7.7834C8.44547 7.8564 8.44547 7.9294 8.482 7.9294L8.59147 8.03887V7.89293C8.55847 7.66173 8.52542 7.43058 8.43835 7.14541C8.36786 6.97352 8.29953 6.87107 8.29953 6.87107V7.017C8.29953 7.23593 8.29953 7.41847 8.263 7.60093V7.74693L8.37253 7.8564C8.37253 7.8564 8.409 7.81993 8.409 7.74693C8.409 7.55542 8.38111 7.3639 8.34968 7.14805C8.34517 7.11707 8.34059 7.08559 8.336 7.05353ZM8.29953 6.87107C8.29953 6.87107 8.29953 6.944 8.336 7.05353C8.336 6.944 8.29953 6.87107 8.29953 6.87107Z" />
<path d="M8.79197 8.00359C8.76105 7.88686 8.72453 7.76453 8.6824 7.63659C8.67519 7.62764 8.66794 7.61872 8.66065 7.60983C8.67448 7.65737 8.68748 7.70408 8.69992 7.75022C8.73338 7.83895 8.76355 7.9234 8.79197 8.00359Z" />
<path d="M8.8834 8.2578C8.85767 8.18915 8.83194 8.11646 8.80478 8.03974C8.80055 8.02779 8.79628 8.01574 8.79197 8.00359C8.79838 8.02777 8.80454 8.0517 8.81047 8.0754C8.82263 8.11188 8.83073 8.14431 8.83749 8.17134C8.85099 8.22537 8.85909 8.2578 8.8834 8.2578Z" />
<path d="M8.8834 8.2578L8.99293 8.36733C8.93333 8.42693 8.92239 8.38922 8.9005 8.31375C8.89558 8.29678 8.89011 8.27791 8.8834 8.2578Z" />
<path d="M8.4758 7.07752C8.40694 6.9378 8.37253 6.83453 8.37253 6.83453C8.37253 6.83453 8.42126 6.90766 8.459 7.0141C8.4646 7.03514 8.4702 7.05628 8.4758 7.07752Z" />
<path d="M0 0.824473C0 0.779501 0.0258074 0.750562 0.0516147 0.776367C0.110897 0.796129 0.170179 0.805191 0.235253 0.815139C0.290369 0.823565 0.34964 0.832625 0.416586 0.84936C0.48958 0.84936 0.562574 0.922307 0.562574 0.9953C0.578064 1.05726 0.600128 1.11922 0.623186 1.18397C0.654457 1.27178 0.687555 1.36473 0.70856 1.46976C0.74506 1.54275 0.70856 1.61575 0.635569 1.57925C0.580818 1.561 0.526067 1.55188 0.471317 1.54275C0.416576 1.53363 0.361835 1.52451 0.307095 1.50626C0.234101 1.50626 0.197604 1.43327 0.161107 1.36028C0.142852 1.28725 0.115465 1.2051 0.0880821 1.12296C0.0607192 1.04088 0.0333596 0.958804 0.0151176 0.88586C0.00442785 0.864481 0 0.843102 0 0.824473Z" />
<path d="M5.12457 13.6775C5.17016 13.7322 5.21575 13.7869 5.27045 13.8416C5.28868 13.8233 5.31604 13.8233 5.3434 13.8233C5.37077 13.8233 5.39814 13.8233 5.41639 13.8051C5.47114 13.7686 5.52589 13.7229 5.58064 13.6773C5.63538 13.6317 5.69012 13.5861 5.74486 13.5496C5.78136 13.5131 5.78136 13.4766 5.74486 13.4401C5.7069 13.4022 5.67332 13.3642 5.64109 13.3278C5.58037 13.2591 5.52442 13.1959 5.45289 13.1482C5.41639 13.1117 5.34339 13.1117 5.3069 13.1482C5.25221 13.1847 5.1975 13.2303 5.14279 13.2759C5.08802 13.3215 5.03325 13.3671 4.97847 13.4037C4.94198 13.4401 4.94198 13.4766 4.97847 13.5131C5.03326 13.5679 5.07891 13.6227 5.12457 13.6775Z" />
<path d="M9.0294 9.7359C9.05677 9.76327 9.08413 9.79063 9.1024 9.82713V9.68113C9.1024 9.49027 9.07463 9.29935 9.04335 9.08426C9.03875 9.05263 9.03408 9.02048 9.0294 8.98773C9.0294 8.87827 8.99293 8.80527 8.99293 8.80527L8.88347 8.6958V8.80527C8.91993 9.0242 8.91993 9.2432 8.91993 9.4622C8.91993 9.5352 8.91993 9.6082 8.9564 9.64467C8.97467 9.68117 9.00203 9.70853 9.0294 9.7359Z" />
<path d="M8.7748 10.5579C8.84747 10.6306 8.92007 10.7033 8.9564 10.776C8.98595 10.8351 8.9916 10.8224 9.01198 10.7768C9.0168 10.7661 9.02243 10.7535 9.0294 10.7395C9.04762 10.6484 9.05673 10.5572 9.06585 10.4661C9.07498 10.3747 9.08412 10.2834 9.1024 10.1921C9.1024 10.1191 9.1024 10.0461 9.06587 10.0096L8.88347 9.82713C8.847 9.79067 8.847 9.82713 8.847 9.90007L8.84621 9.90402C8.80994 10.0852 8.77374 10.2661 8.73747 10.4111C8.73747 10.4841 8.73747 10.5571 8.774 10.5571L8.7748 10.5579Z" />
<path d="M8.51847 11.4694C8.59147 11.5424 8.66447 11.6154 8.73747 11.7249C8.73747 11.7249 8.774 11.6883 8.774 11.6519C8.78949 11.5899 8.81156 11.5279 8.83463 11.4631C8.86586 11.3753 8.89892 11.2824 8.91993 11.1775V11.0315C8.84714 10.9586 8.77393 10.8853 8.73747 10.8125C8.701 10.776 8.66447 10.8125 8.66447 10.8855C8.64621 10.9586 8.6188 11.0317 8.59139 11.1047C8.56405 11.1776 8.53671 11.2505 8.51847 11.3234C8.49304 11.3489 8.50307 11.3921 8.51148 11.4283C8.51513 11.444 8.51847 11.4584 8.51847 11.4694Z" />
<path d="M8.22403 12.2773C8.27642 12.338 8.33419 12.4049 8.409 12.4548C8.409 12.5277 8.44533 12.4914 8.4818 12.455C8.5183 12.382 8.54587 12.3088 8.57323 12.2358C8.6006 12.1628 8.62797 12.0898 8.66447 12.0168C8.68994 11.9914 8.67989 11.9482 8.67147 11.912C8.66782 11.8963 8.66447 11.8819 8.66447 11.8709C8.59147 11.7979 8.51846 11.7249 8.44547 11.6154C8.40903 11.579 8.3726 11.6153 8.3361 11.6518C8.31724 11.6895 8.29828 11.7249 8.28005 11.759C8.22772 11.8569 8.18058 11.9451 8.15353 12.0533C8.117 12.0898 8.117 12.1628 8.15353 12.1993C8.17665 12.2224 8.19976 12.2492 8.22403 12.2773Z" />
<path d="M7.3688 13.6955C7.41444 13.7412 7.46008 13.7868 7.4966 13.8416C7.4966 13.8781 7.5696 13.8781 7.60613 13.8416C7.64266 13.7868 7.68832 13.732 7.73397 13.6772C7.77955 13.6225 7.82513 13.5678 7.8616 13.5131C7.89807 13.4766 7.89807 13.4037 7.8616 13.3672C7.82508 13.3124 7.77944 13.2668 7.7338 13.2211C7.68821 13.1755 7.64262 13.1299 7.60613 13.0752C7.5696 13.0387 7.53313 13.0387 7.4966 13.0752C7.4601 13.1299 7.41448 13.1847 7.36887 13.2394C7.32325 13.2942 7.27763 13.3489 7.24113 13.4037C7.20467 13.4401 7.20467 13.5131 7.24113 13.5496C7.27762 13.6043 7.32321 13.6499 7.3688 13.6955Z" />
<path d="M6.79741 14.2093C6.85817 14.278 6.91415 14.3413 6.98573 14.389C6.98573 14.462 7.0222 14.462 7.05873 14.4255C7.11337 14.3708 7.15894 14.3162 7.2045 14.2615C7.25017 14.2067 7.29584 14.1519 7.35067 14.0971C7.38713 14.0605 7.38713 13.9876 7.35067 13.9511C7.31418 13.8964 7.26858 13.8508 7.22296 13.8052C7.17731 13.7595 7.13165 13.7139 7.09513 13.6591C7.05873 13.6226 7.0222 13.6226 6.98573 13.6591C6.94776 13.697 6.91417 13.735 6.88193 13.7715C6.8212 13.8401 6.76525 13.9034 6.69373 13.9511C6.65724 13.9876 6.65724 14.0605 6.69373 14.0971C6.73166 14.135 6.76521 14.1729 6.79741 14.2093Z" />
<path d="M8.70101 9.37097C8.72838 9.39834 8.75574 9.42572 8.774 9.4622C8.81047 9.4622 8.81047 9.42567 8.81047 9.35267V8.73227C8.81047 8.6895 8.79795 8.64673 8.78758 8.6113C8.78025 8.58627 8.774 8.5649 8.774 8.5498L8.66447 8.44033C8.66447 8.44033 8.628 8.4768 8.628 8.5498C8.628 8.66429 8.61802 8.7688 8.60849 8.86854C8.59979 8.95959 8.59147 9.04666 8.59147 9.13373C8.59147 9.20667 8.59147 9.27967 8.628 9.27967C8.64624 9.31618 8.67363 9.34358 8.70101 9.37097Z" />
<path d="M8.336 10.1921C8.409 10.2651 8.482 10.3381 8.51847 10.4111C8.628 10.4475 8.66447 10.4111 8.66447 10.3381C8.68273 10.2468 8.70098 10.1647 8.71923 10.0826C8.73748 10.0005 8.75573 9.91837 8.774 9.82713C8.774 9.75413 8.774 9.68113 8.73747 9.68113C8.71392 9.63404 8.67514 9.60212 8.63096 9.56576C8.60672 9.54581 8.58086 9.52453 8.555 9.49867C8.52695 9.47066 8.52043 9.48567 8.50241 9.5272C8.49696 9.53975 8.49046 9.55472 8.482 9.57167C8.44547 9.75413 8.409 9.90007 8.336 10.0461L8.336 10.1921Z" />
<path d="M8.08053 11.0315L8.29953 11.2505C8.336 11.2869 8.37253 11.2505 8.37253 11.2139C8.44547 11.0679 8.482 10.9219 8.51847 10.776V10.6301C8.44547 10.5571 8.37253 10.4841 8.336 10.4111C8.29953 10.3745 8.263 10.4111 8.263 10.4475C8.22651 10.5205 8.19915 10.5935 8.1718 10.6665C8.14442 10.7395 8.11705 10.8125 8.08053 10.8855C8.044 10.9219 8.044 10.9949 8.08053 11.0315Z" />
<path d="M7.74962 11.8029C7.80199 11.8635 7.85975 11.9304 7.9346 11.9803C7.9346 12.0168 8.00753 12.0168 8.00753 11.9803C8.04407 11.9073 8.0806 11.8434 8.11713 11.7794C8.1536 11.7156 8.19007 11.6518 8.22653 11.5789C8.263 11.5424 8.263 11.4694 8.22653 11.4329C8.15353 11.3599 8.08053 11.2869 8.00753 11.1775C7.97113 11.141 7.93473 11.1773 7.89827 11.2137C7.82527 11.3597 7.75213 11.4694 7.67913 11.5789C7.6426 11.6154 7.6426 11.6883 7.67913 11.7249C7.70225 11.748 7.72536 11.7748 7.74962 11.8029Z" />
<path d="M7.33227 12.6006C7.37793 12.6462 7.4236 12.6919 7.46013 12.7467C7.47838 12.7284 7.49665 12.7193 7.51492 12.7102C7.53315 12.7011 7.55138 12.692 7.5696 12.6737C7.59582 12.6344 7.62674 12.5951 7.65899 12.5541C7.71655 12.4809 7.77832 12.4024 7.82507 12.3088C7.8616 12.2723 7.8616 12.1993 7.82507 12.1628C7.80203 12.1397 7.77898 12.113 7.75477 12.085C7.70236 12.0243 7.64453 11.9573 7.5696 11.9073C7.53313 11.8709 7.4966 11.8709 7.46013 11.9438C7.43392 11.9831 7.40301 12.0225 7.37077 12.0635C7.31322 12.1367 7.25145 12.2152 7.20467 12.3088C7.16813 12.3453 7.16813 12.4183 7.20467 12.4548C7.24113 12.5095 7.2867 12.555 7.33227 12.6006Z" />
<path d="M6.8214 13.1481C6.86704 13.1938 6.91268 13.2394 6.9492 13.2942C6.98573 13.3307 7.05873 13.3307 7.09513 13.2942C7.13166 13.2394 7.17734 13.1846 7.22301 13.1298C7.2686 13.0751 7.3142 13.0204 7.35067 12.9657C7.38713 12.9292 7.38713 12.8562 7.35067 12.8197C7.31413 12.7649 7.26845 12.7193 7.22277 12.6736C7.17718 12.628 7.1316 12.5825 7.09513 12.5278C7.05873 12.4913 7.0222 12.4913 6.98573 12.5278C6.93088 12.5826 6.88518 12.6374 6.83948 12.6922C6.79393 12.7469 6.74838 12.8016 6.69373 12.8562C6.65724 12.8927 6.65724 12.9657 6.69373 13.0022C6.73022 13.0569 6.77581 13.1025 6.8214 13.1481Z" />
<path d="M6.28654 13.6619C6.34726 13.7306 6.40322 13.7939 6.47475 13.8416C6.43826 13.8781 6.51125 13.9146 6.54775 13.8781C6.5857 13.8401 6.62365 13.8066 6.66009 13.7743C6.72876 13.7136 6.79204 13.6577 6.83973 13.5861C6.8762 13.5496 6.8762 13.4766 6.83973 13.4401C6.80323 13.3854 6.75761 13.3398 6.71199 13.2942C6.66637 13.2486 6.62075 13.2029 6.58425 13.1482C6.54775 13.1117 6.51125 13.1117 6.47475 13.1482C6.43682 13.1861 6.39888 13.2197 6.36246 13.2519C6.29378 13.3126 6.2305 13.3686 6.18283 13.4401C6.14633 13.4766 6.14633 13.5131 6.18283 13.5496C6.22076 13.5875 6.25432 13.6255 6.28654 13.6619Z" />
<path d="M8.37254 9.1155C8.39989 9.14286 8.42724 9.17022 8.44547 9.20667C8.50246 9.1782 8.51496 9.14972 8.53509 9.10386C8.54074 9.09099 8.54699 9.07674 8.555 9.06073C8.59147 8.87827 8.59147 8.6958 8.59147 8.51333C8.59147 8.44033 8.59147 8.36733 8.555 8.36733L8.44547 8.2578C8.44547 8.2578 8.409 8.29433 8.409 8.36733C8.37253 8.5498 8.336 8.73227 8.29953 8.87827V9.0242C8.31778 9.06072 8.34516 9.08811 8.37254 9.1155Z" />
<path d="M8.00753 9.82713C8.08053 9.90007 8.15353 9.97307 8.19 10.0461C8.263 10.0461 8.29953 10.0461 8.29953 9.97307C8.31501 9.91113 8.33707 9.84919 8.36012 9.78445C8.39138 9.69664 8.42448 9.6037 8.44547 9.49867V9.35267L8.263 9.1702C8.23501 9.14221 8.22851 9.15718 8.21048 9.19866C8.20502 9.21123 8.1985 9.22623 8.19 9.2432C8.15353 9.3892 8.08053 9.5352 8.00753 9.68113C7.97107 9.71767 7.97107 9.79067 8.00753 9.82713Z" />
<path d="M7.67913 10.5935C7.75213 10.6665 7.82507 10.7395 7.89807 10.849L7.97107 10.776C7.98993 10.7383 8.00879 10.703 8.02703 10.6688C8.07932 10.571 8.12645 10.4828 8.15353 10.3745C8.19 10.3381 8.19 10.2651 8.15353 10.2286C8.08053 10.1556 8.00753 10.0826 7.97107 10.0096C7.9346 9.97307 7.89807 10.0096 7.89807 10.0461C7.86157 10.1191 7.82508 10.1829 7.7886 10.2468C7.75212 10.3107 7.71563 10.3745 7.67913 10.4475C7.6426 10.4841 7.6426 10.5571 7.67913 10.5935Z" />
<path d="M7.27517 11.3649C7.32755 11.4256 7.38533 11.4925 7.46013 11.5424C7.4966 11.5424 7.53313 11.5424 7.5696 11.5059C7.6061 11.4512 7.6426 11.3873 7.6791 11.3234C7.7156 11.2596 7.7521 11.1957 7.7886 11.1409C7.82507 11.1045 7.82507 11.0315 7.7886 10.9949C7.71574 10.9221 7.64246 10.8488 7.5696 10.7395C7.53313 10.703 7.4966 10.7395 7.46013 10.776C7.44005 10.8061 7.41996 10.839 7.39911 10.8731C7.3442 10.963 7.28401 11.0616 7.20467 11.1409C7.16813 11.1775 7.16813 11.2505 7.20467 11.2869C7.22778 11.31 7.25089 11.3368 7.27517 11.3649Z" />
<path d="M6.85797 12.0533C6.9036 12.0989 6.94923 12.1446 6.98573 12.1993C7.0222 12.1993 7.05873 12.1993 7.09513 12.1628C7.13163 12.1081 7.17727 12.0533 7.2229 11.9986C7.26853 11.9438 7.31417 11.8891 7.35067 11.8343C7.38713 11.7979 7.38713 11.7249 7.35067 11.6883L7.09513 11.4329C7.05873 11.3964 7.0222 11.3964 6.98573 11.4329C6.94927 11.4876 6.90368 11.5423 6.8581 11.597C6.81243 11.6518 6.76677 11.7066 6.73027 11.7613C6.69373 11.7979 6.69373 11.8709 6.73027 11.9073C6.76673 11.9621 6.81235 12.0077 6.85797 12.0533Z" />
<path d="M6.34708 12.5643C6.39268 12.6099 6.43827 12.6555 6.47475 12.7102C6.51125 12.7832 6.54775 12.7832 6.58425 12.7467C6.63901 12.692 6.68464 12.6372 6.73027 12.5825C6.77588 12.5277 6.82148 12.473 6.8762 12.4183C6.91273 12.3818 6.91273 12.3088 6.8762 12.2723C6.83968 12.2175 6.79404 12.1719 6.74841 12.1263C6.70281 12.0806 6.65722 12.035 6.62074 11.9803C6.58425 11.9438 6.54775 11.9438 6.51125 11.9803C6.47326 12.0183 6.43967 12.0563 6.40742 12.0928C6.34671 12.1614 6.29078 12.2247 6.21927 12.2723C6.18283 12.3088 6.18283 12.3818 6.21927 12.4183C6.25579 12.4731 6.30143 12.5187 6.34708 12.5643Z" />
<path d="M8.15355 8.75057C8.18091 8.77794 8.20828 8.80532 8.22653 8.8418C8.22653 8.8418 8.263 8.8418 8.263 8.7688C8.29927 8.62385 8.33547 8.44296 8.37174 8.26175L8.37253 8.2578V8.11187L8.263 8.0024C8.263 8.0024 8.22653 8.03887 8.22653 8.0754C8.20829 8.14827 8.18095 8.22117 8.15361 8.29407C8.1262 8.36715 8.09879 8.44024 8.08053 8.51333C8.044 8.5498 8.044 8.6228 8.08053 8.65927C8.09878 8.69578 8.12616 8.72318 8.15355 8.75057Z" />
<path d="M7.67913 9.42567C7.75213 9.49867 7.82507 9.57167 7.8616 9.64467C7.89807 9.68113 7.9346 9.64467 7.97107 9.6082C8.0075 9.53527 8.03485 9.46233 8.0622 9.3894C8.0896 9.31633 8.117 9.24327 8.15353 9.1702C8.17896 9.14478 8.16893 9.1016 8.16053 9.0654C8.15688 9.04967 8.15353 9.03526 8.15353 9.0242L7.97107 8.8418C7.94529 8.81598 7.93774 8.82666 7.92262 8.84802C7.91635 8.85688 7.90878 8.86757 7.89807 8.87827C7.86157 8.95123 7.82508 9.0151 7.7886 9.07897C7.75212 9.14283 7.71563 9.2067 7.67913 9.27967C7.6426 9.3162 7.6426 9.3892 7.67913 9.42567Z" />
<path d="M7.24113 10.1191C7.31413 10.1921 7.38713 10.2651 7.46013 10.3745C7.4966 10.4111 7.53313 10.3745 7.5696 10.3381C7.6426 10.2286 7.7156 10.0826 7.7886 9.9366C7.82507 9.90007 7.82507 9.82713 7.7886 9.79067C7.7156 9.71767 7.6426 9.64467 7.60613 9.57167C7.5696 9.5352 7.53313 9.57167 7.4966 9.6082C7.47652 9.63831 7.45645 9.67118 7.43561 9.70529C7.38071 9.79519 7.32054 9.89371 7.24113 9.97307C7.20467 10.0096 7.20467 10.0826 7.24113 10.1191Z" />
<path d="M6.87376 10.8175C6.92613 10.8782 6.98391 10.9451 7.05873 10.9949C7.0222 11.0679 7.09513 11.0679 7.13167 10.9949C7.20467 10.8855 7.27767 10.776 7.38713 10.6301C7.4236 10.5935 7.4236 10.5205 7.38713 10.4841C7.31413 10.4111 7.24113 10.3381 7.16813 10.2286C7.13167 10.1921 7.09513 10.1921 7.05873 10.2651C7.02223 10.3198 6.9766 10.3746 6.93097 10.4293C6.88533 10.484 6.8397 10.5388 6.8032 10.5935C6.76673 10.6301 6.76673 10.703 6.8032 10.7395C6.82633 10.7626 6.84946 10.7894 6.87376 10.8175Z" />
<path d="M6.34701 11.5059C6.39263 11.5515 6.43826 11.5971 6.47475 11.6519C6.54775 11.6883 6.58425 11.6519 6.62074 11.6154C6.72993 11.5063 6.80276 11.3971 6.87554 11.2879L6.8762 11.2869C6.91273 11.2505 6.91273 11.1775 6.8762 11.1409C6.85308 11.1178 6.82998 11.091 6.80571 11.0629C6.75334 11.0023 6.69559 10.9354 6.62074 10.8855C6.58425 10.849 6.54775 10.849 6.51125 10.8855C6.45651 10.9402 6.41089 10.9949 6.36526 11.0497C6.31964 11.1045 6.27402 11.1592 6.21927 11.2139C6.18283 11.2505 6.18283 11.3234 6.21927 11.3599C6.25577 11.4147 6.30139 11.4603 6.34701 11.5059Z" />
<path d="M5.83611 12.0168C5.88173 12.0624 5.92735 12.1081 5.96385 12.1628C6.00034 12.2358 6.03684 12.2358 6.07334 12.1993C6.11122 12.1614 6.14473 12.1235 6.1769 12.0871C6.23768 12.0184 6.29367 11.9551 6.36527 11.9073C6.40176 11.8709 6.40176 11.7979 6.36527 11.7613C6.32881 11.7067 6.28326 11.6611 6.23771 11.6156C6.19203 11.5699 6.14635 11.5242 6.10983 11.4694C6.07334 11.4329 6.03684 11.4329 6.00034 11.4694L5.70837 11.7613C5.67187 11.7979 5.67187 11.8343 5.70837 11.8709C5.74486 11.9256 5.79048 11.9712 5.83611 12.0168Z" />
<path d="M5.22828 12.4942C5.28897 12.5628 5.34489 12.6261 5.41639 12.6737C5.41639 12.7832 5.45289 12.7832 5.48938 12.7467C5.54423 12.6919 5.59907 12.6462 5.65392 12.6005C5.70857 12.5549 5.76321 12.5094 5.81786 12.4548C5.85435 12.4183 5.85435 12.3453 5.81786 12.3088C5.78138 12.2541 5.73579 12.2085 5.69019 12.1629C5.64454 12.1172 5.59889 12.0716 5.56238 12.0168C5.52588 11.9803 5.48938 11.9803 5.45289 12.0168C5.39814 12.0533 5.34341 12.0989 5.28867 12.1446C5.23394 12.1902 5.17921 12.2358 5.12446 12.2723C5.08797 12.3088 5.08797 12.3453 5.12446 12.3818C5.16245 12.4198 5.19604 12.4578 5.22828 12.4942Z" />
<path d="M6.32877 14.9365C6.40176 15.0095 6.43826 15.0095 6.47475 14.9729C6.52943 14.9183 6.58411 14.8727 6.63878 14.8271C6.69359 14.7814 6.7484 14.7358 6.8032 14.6809C6.83973 14.6445 6.83973 14.5715 6.8032 14.535C6.76531 14.4971 6.7318 14.4592 6.69963 14.4228C6.63884 14.3541 6.58285 14.2908 6.51125 14.2431C6.47475 14.2065 6.43826 14.2065 6.36527 14.2431C6.25577 14.3525 6.14633 14.4255 6.03684 14.4985C6.00034 14.535 6.00034 14.5715 6.03684 14.608C6.09163 14.6628 6.13727 14.7176 6.18291 14.7723C6.22848 14.827 6.27406 14.8817 6.32877 14.9365Z" />
<path d="M7.35067 5.44769C7.31413 5.37475 7.38713 5.37475 7.46013 5.44769C7.62723 5.58139 7.76374 5.74569 7.92569 5.94059C7.94059 5.95852 7.9557 5.97671 7.97107 5.99515C8.01766 6.0651 8.13877 6.34356 8.22018 6.53558C8.24528 6.60689 8.26546 6.66436 8.27919 6.70349C8.25243 6.67415 8.20298 6.61673 8.15353 6.54256C8.09134 6.48036 8.03339 6.41817 7.97678 6.35743C7.86731 6.23995 7.76288 6.12788 7.6426 6.03165C7.5998 5.98885 7.557 5.93352 7.52157 5.88769C7.49656 5.85536 7.47522 5.82777 7.46013 5.81267C7.44181 5.75775 7.4235 5.69364 7.4052 5.62957C7.38702 5.5659 7.36884 5.50227 7.35067 5.44769Z" />
<path fill-rule="evenodd" clip-rule="evenodd" d="M8.27984 6.70421C8.27962 6.70397 8.27941 6.70373 8.27919 6.70349C8.29231 6.74088 8.29953 6.76153 8.29953 6.76153C8.29953 6.76153 8.2929 6.74164 8.2807 6.70515C8.29253 6.71806 8.29953 6.72507 8.29953 6.72507C8.29953 6.72507 8.27462 6.66457 8.23812 6.57802C8.20983 6.49367 8.173 6.38408 8.13026 6.25743C8.23545 6.49764 8.336 6.76153 8.336 6.76153C8.336 6.76153 8.11856 6.1426 7.94413 5.70884C7.67504 4.92026 7.34118 3.96313 7.27767 3.87842C7.05873 3.58649 6.8762 3.36751 6.69373 3.18503C6.62074 3.11203 6.54775 3.07553 6.62074 3.18503C6.63896 3.23969 6.65718 3.30344 6.67541 3.36721C6.69369 3.43118 6.71197 3.49517 6.73027 3.55C6.76673 3.62294 6.83973 3.73243 6.91273 3.80543C6.96706 3.87333 7.03148 3.94628 7.10036 4.02428C7.21661 4.15592 7.34556 4.30195 7.46013 4.46237C7.48088 4.49348 7.55766 4.69268 7.65694 4.96189C7.58188 4.77016 7.52268 4.63439 7.4966 4.60831C7.31413 4.35289 7.13167 4.1339 6.9492 3.95141C6.8762 3.87842 6.8032 3.84193 6.83973 3.95141L6.84033 3.95322C6.8766 4.06211 6.91293 4.1712 6.9492 4.31639C6.98573 4.38938 7.05873 4.49882 7.13167 4.57181C7.31393 4.71765 7.4962 4.93631 7.67853 5.15505L7.67913 5.15577C7.69785 5.17449 7.72831 5.23376 7.76595 5.31917C7.76086 5.31171 7.75624 5.30586 7.75213 5.30176L7.75159 5.3011C7.56924 5.08234 7.38695 4.86365 7.20467 4.71781C7.13167 4.64481 7.05873 4.60831 7.13167 4.71781C7.1499 4.77255 7.16815 4.83642 7.1864 4.90029C7.20465 4.96416 7.2229 5.02803 7.24113 5.08277C7.27767 5.15577 7.35067 5.26526 7.4236 5.33825C7.5696 5.48419 7.75213 5.66668 7.9346 5.88566C7.97179 5.92288 8.03008 6.03602 8.09084 6.16916C8.14073 6.31009 8.18522 6.43626 8.22018 6.53558C8.22238 6.54077 8.22455 6.54591 8.2267 6.55097C8.249 6.61491 8.26721 6.66756 8.27984 6.70421ZM8.09478 6.17782C8.09346 6.17492 8.09215 6.17203 8.09084 6.16916C8.07618 6.12776 8.06106 6.08508 8.04557 6.04144C8.06229 6.08748 8.07876 6.13314 8.09478 6.17782ZM8.09478 6.17782C8.10005 6.18942 8.10533 6.20116 8.11062 6.213C8.15762 6.34797 8.1991 6.4682 8.23113 6.56145C8.22967 6.55799 8.22819 6.5545 8.2267 6.55097C8.19113 6.44901 8.14516 6.3183 8.09478 6.17782ZM8.23113 6.56145C8.2335 6.56707 8.23583 6.5726 8.23812 6.57802C8.25591 6.63105 8.27032 6.6741 8.2807 6.70515C8.28051 6.70493 8.28004 6.70442 8.27984 6.70421C8.26811 6.66982 8.2517 6.62135 8.23113 6.56145ZM8.04557 6.04144C7.94822 5.77337 7.84231 5.49247 7.76595 5.31917C7.78371 5.34521 7.80719 5.39086 7.8345 5.4503C7.90598 5.64898 7.9791 5.85412 8.04557 6.04144ZM7.8345 5.4503C7.77224 5.27725 7.71123 5.10911 7.65694 4.96189C7.7183 5.11863 7.79025 5.31277 7.86338 5.51496C7.85337 5.49198 7.84372 5.47035 7.8345 5.4503ZM7.86338 5.51496C7.8884 5.57234 7.91569 5.63813 7.94413 5.70884C8.01211 5.90805 8.07595 6.09651 8.13026 6.25743C8.12372 6.24251 8.11717 6.22767 8.11062 6.213C8.03675 6.00089 7.94926 5.75237 7.86338 5.51496ZM8.27984 6.70421C8.27975 6.70411 8.27993 6.70431 8.27984 6.70421Z" />
<path d="M6.47475 4.7543C6.43826 4.71781 6.51125 4.68131 6.58425 4.7543L7.0222 5.08277C7.06486 5.12546 7.10753 5.18064 7.14292 5.22639C7.16805 5.25887 7.1895 5.28661 7.20467 5.30176C7.24113 5.4477 7.27767 5.55719 7.35067 5.70318C7.38713 5.77617 7.31413 5.77617 7.24113 5.70318L6.8032 5.37475C6.73027 5.33825 6.65724 5.22877 6.62074 5.15577C6.58425 5.00978 6.54775 4.90029 6.47475 4.7543Z" />
<path d="M5.70837 4.27989C5.63537 4.20689 5.67187 4.1704 5.74486 4.20689C5.81786 4.24339 5.88173 4.28901 5.9456 4.33463C6.00947 4.38026 6.07334 4.42588 6.14633 4.46237C6.21927 4.49882 6.29227 4.60831 6.32877 4.68131C6.36527 4.82729 6.40176 4.93679 6.47475 5.08277C6.51125 5.15577 6.47475 5.15577 6.40176 5.11927C6.29029 5.06354 6.17885 4.98652 6.08364 4.92073C6.05416 4.90035 6.02623 4.88105 6.00034 4.86379C5.92735 4.82729 5.85435 4.7543 5.85435 4.68131C5.81786 4.53532 5.78136 4.42588 5.70837 4.27989Z" />
<path d="M6.18283 3.98791C6.18283 3.91492 6.21927 3.87842 6.29227 3.95141C6.43826 4.06091 6.58425 4.1704 6.73027 4.31639C6.77292 4.35908 6.8156 4.41423 6.85099 4.45997C6.87611 4.49244 6.89757 4.52017 6.91273 4.53532C6.9492 4.68131 6.98573 4.7908 7.05873 4.93679C7.09513 5.00978 7.0222 5.00978 6.9492 4.93679L6.51125 4.60831C6.43826 4.57181 6.36527 4.46237 6.32877 4.38938C6.29227 4.24339 6.25577 4.1339 6.18283 3.98791Z" />
<path d="M5.45289 3.47701C5.37989 3.40401 5.41639 3.36751 5.48938 3.40401C5.56235 3.44049 5.62619 3.48609 5.69004 3.53168C5.75393 3.57732 5.81783 3.62295 5.89085 3.65944C5.96385 3.69593 6.03684 3.80543 6.07334 3.87842C6.10983 4.02441 6.14633 4.1339 6.21927 4.27989C6.25577 4.35289 6.21927 4.35289 6.14633 4.31639C6.03481 4.26063 5.92329 4.18357 5.82804 4.11776C5.7986 4.09741 5.77071 4.07814 5.74486 4.06091C5.67187 4.02441 5.59887 3.95141 5.59887 3.87842C5.56238 3.73243 5.52588 3.62294 5.45289 3.47701Z" />
<path d="M5.92735 3.14853C5.92735 3.11203 5.96385 3.11203 6.03684 3.14853C6.18283 3.25802 6.32877 3.36751 6.47475 3.5135C6.51752 3.55626 6.56029 3.61154 6.59571 3.65733C6.62075 3.68969 6.64213 3.71732 6.65724 3.73243C6.69373 3.87842 6.73027 3.98791 6.8032 4.1339C6.83973 4.20689 6.76673 4.20689 6.69373 4.1339C6.62075 4.07916 6.54776 4.0153 6.47477 3.95143C6.40177 3.88756 6.32877 3.82368 6.25577 3.76893C6.18283 3.73243 6.10983 3.62294 6.07334 3.55C6.03684 3.40401 6.00034 3.29452 5.92735 3.14853Z" />
<path d="M5.67187 2.38214C5.67187 2.34564 5.70837 2.30915 5.78136 2.38214C5.85435 2.43688 5.92734 2.50075 6.00032 2.5646C6.07331 2.62847 6.1463 2.69234 6.21927 2.74706C6.26204 2.78983 6.30481 2.84512 6.34023 2.89092C6.36527 2.9233 6.38665 2.95093 6.40176 2.96605C6.41038 2.99191 6.419 3.01981 6.42811 3.04926C6.45754 3.1445 6.492 3.25601 6.54775 3.36751C6.58425 3.44051 6.51125 3.44051 6.43826 3.36751C6.36526 3.31277 6.29228 3.2489 6.2193 3.18503C6.14632 3.12116 6.07334 3.05729 6.00034 3.00254C5.92735 2.92955 5.85435 2.85655 5.81786 2.78356C5.78136 2.63762 5.74486 2.52813 5.67187 2.38214Z" />
<path d="M4.86898 1.90768C4.83249 1.79819 4.86898 1.79819 4.94197 1.83469C5.0536 1.8905 5.16523 1.96765 5.26052 2.03351C5.28985 2.05378 5.31764 2.07298 5.34339 2.09016C5.41639 2.12666 5.48938 2.23615 5.52588 2.30915C5.56238 2.45513 5.59887 2.56463 5.67187 2.71057C5.70837 2.78356 5.67187 2.78356 5.59887 2.74706C5.50732 2.67843 5.41577 2.62413 5.33323 2.57518C5.28416 2.54607 5.23826 2.51885 5.19745 2.49163C5.14496 2.46538 5.09246 2.40137 5.05354 2.35392C5.03834 2.3354 5.02522 2.31939 5.01497 2.30915C4.97847 2.16316 4.94197 2.05367 4.86898 1.90768Z" />
<path d="M4.94197 3.84193C4.86898 3.80543 4.90548 3.76893 4.97847 3.80543C5.05143 3.84191 5.11528 3.86927 5.17911 3.89663C5.243 3.92402 5.30689 3.9514 5.37989 3.98791C5.45289 4.02441 5.52588 4.09741 5.56238 4.1704C5.59887 4.31639 5.63537 4.42588 5.70837 4.57181C5.74486 4.64481 5.70837 4.64481 5.63537 4.60831C5.56232 4.57179 5.49841 4.5444 5.4345 4.51702C5.37069 4.48967 5.30687 4.46232 5.23395 4.42588C5.16096 4.38938 5.08797 4.31639 5.08797 4.24339C5.05147 4.09741 5.01497 3.98791 4.94197 3.84193Z" />
<path d="M4.65 3.03904C4.6135 3.00254 4.65 2.96605 4.6865 3.00254C4.7595 3.03904 4.82337 3.06641 4.88724 3.09379C4.95111 3.12116 5.01498 3.14853 5.08797 3.18503C5.16096 3.22153 5.23395 3.29452 5.27045 3.36751C5.3069 3.5135 5.34339 3.62294 5.41639 3.76893C5.45289 3.84193 5.41639 3.84193 5.34339 3.80543C5.30572 3.78658 5.27048 3.76774 5.23641 3.74953C5.1385 3.69718 5.05028 3.65002 4.94197 3.62294C4.86898 3.58649 4.79599 3.5135 4.79599 3.44051C4.75949 3.29452 4.72299 3.18503 4.65 3.03904Z" />
<path d="M4.35807 2.27265C4.32157 2.19965 4.35807 2.16316 4.43102 2.19965C4.46873 2.21851 4.50401 2.23737 4.53812 2.2556C4.63602 2.30793 4.72421 2.35507 4.83249 2.38214C4.88498 2.40839 4.93748 2.4724 4.9764 2.51985C4.9916 2.53838 5.00472 2.55438 5.01497 2.56463C5.05147 2.71057 5.08797 2.82005 5.16096 2.96605C5.19745 3.03904 5.16096 3.03904 5.08797 3.00254C5.05024 2.98368 5.01496 2.96482 4.98085 2.94659C4.88295 2.89426 4.79476 2.84712 4.6865 2.82005C4.6135 2.78356 4.54051 2.71057 4.54051 2.63762C4.44424 2.54135 4.4044 2.41686 4.37141 2.31377C4.36687 2.29962 4.36247 2.28587 4.35807 2.27265Z" />
<path d="M4.10259 1.43327C4.06609 1.39677 4.10259 1.36027 4.17559 1.39677C4.24859 1.43327 4.31246 1.46977 4.37633 1.50628C4.44018 1.54277 4.50403 1.57926 4.57701 1.61575C4.62947 1.64198 4.68193 1.70592 4.72084 1.75334C4.73607 1.7719 4.74923 1.78793 4.75949 1.79819C4.79599 1.94417 4.83249 2.05367 4.90548 2.19965C4.94198 2.27265 4.90548 2.27265 4.83249 2.23615C4.65 2.16316 4.50401 2.09016 4.39452 2.01717C4.32157 1.98067 4.24858 1.90768 4.24858 1.83469C4.21209 1.68875 4.17559 1.57925 4.10259 1.43327Z" />
<path d="M4.10259 3.55C4.06609 3.47701 4.10259 3.44051 4.17559 3.47701C4.23028 3.49523 4.29406 3.52257 4.35785 3.5499C4.42177 3.5773 4.48571 3.6047 4.54051 3.62294C4.6135 3.65944 4.6865 3.73243 4.6865 3.80543C4.72299 3.95141 4.75949 4.06091 4.83249 4.20689C4.86898 4.27989 4.83249 4.31639 4.75949 4.27989C4.70471 4.26163 4.64079 4.23423 4.57688 4.20684C4.51306 4.17948 4.44925 4.15214 4.39457 4.1339C4.32157 4.09741 4.24858 4.02441 4.24858 3.95141C4.21209 3.80543 4.17559 3.69593 4.10259 3.55Z" />
<path d="M3.3727 3.33101C3.3727 3.22153 3.3727 3.18503 3.44569 3.22153C3.50045 3.23978 3.56435 3.25804 3.62824 3.2763C3.69207 3.29454 3.7559 3.31278 3.81061 3.33101C3.88361 3.36751 3.95661 3.44051 3.95661 3.5135C3.97485 3.58646 4.00222 3.65031 4.02959 3.71417C4.05696 3.77804 4.08434 3.84192 4.10259 3.91492C4.13909 3.98791 4.10259 4.02441 4.0296 3.98791C3.97485 3.96966 3.91098 3.95142 3.84711 3.93317C3.78324 3.91492 3.71937 3.89667 3.66463 3.87842C3.59163 3.84193 3.51864 3.80543 3.51864 3.73243C3.49575 3.64079 3.45846 3.54913 3.42484 3.46651C3.40491 3.41754 3.38628 3.37175 3.3727 3.33101Z" />
<path d="M2.67925 3.11203C2.64276 3.03904 2.67925 3.00254 2.75225 3.00254C2.807 3.02079 2.87087 3.03904 2.93474 3.05729C2.99861 3.07553 3.06248 3.09378 3.11722 3.11203C3.19021 3.11203 3.26321 3.18503 3.26321 3.25802C3.28613 3.3497 3.32345 3.44139 3.35708 3.52402C3.377 3.57297 3.39562 3.61873 3.4092 3.65944C3.44569 3.73243 3.4092 3.76893 3.33621 3.76893C3.22671 3.73243 3.08073 3.69593 2.97123 3.69593C2.89824 3.69593 2.82525 3.62294 2.82525 3.55C2.807 3.477 2.77962 3.404 2.75225 3.33101C2.72487 3.25802 2.6975 3.18502 2.67925 3.11203Z" />
<path d="M2.02236 2.96605C1.94937 2.89305 1.98586 2.85655 2.05885 2.85655C2.11813 2.87631 2.1774 2.88537 2.24246 2.89532C2.29758 2.90374 2.35687 2.91281 2.42383 2.92955C2.49682 2.92955 2.56981 3.00254 2.56981 3.07553C2.58805 3.14859 2.61544 3.22164 2.64283 3.29469C2.67017 3.36762 2.69752 3.44056 2.71575 3.5135C2.75225 3.58649 2.71575 3.62294 2.64276 3.62294C2.58807 3.60473 2.53336 3.59561 2.47865 3.5865C2.42388 3.57738 2.36911 3.56826 2.31433 3.55C2.24134 3.55 2.20485 3.47701 2.16835 3.40402C2.1501 3.33103 2.12273 3.25803 2.09536 3.18505C2.06798 3.11205 2.04061 3.03905 2.02236 2.96605Z" />
<path d="M3.08073 2.52813C3.08073 2.38214 3.11722 2.34564 3.15372 2.38214C3.17481 2.38917 3.19725 2.3962 3.22052 2.40349C3.31809 2.43405 3.43028 2.46919 3.51864 2.52813C3.59163 2.56463 3.66463 2.63762 3.66463 2.71057C3.68288 2.78356 3.71025 2.84742 3.73762 2.91129C3.76499 2.97516 3.79237 3.03904 3.81061 3.11203C3.84711 3.18503 3.81061 3.22153 3.73762 3.18503C3.68287 3.16678 3.61901 3.14853 3.55515 3.13027C3.49129 3.11203 3.42744 3.09378 3.3727 3.07553C3.29971 3.03904 3.22671 2.96605 3.22671 2.92955C3.20381 2.83793 3.16653 2.74633 3.13292 2.66374C3.11297 2.61474 3.09432 2.5689 3.08073 2.52813Z" />
<path d="M2.38733 2.23615C2.35083 2.16316 2.38733 2.12666 2.46033 2.16316C2.51507 2.18141 2.57894 2.19966 2.6428 2.21791C2.70665 2.23616 2.77051 2.2544 2.82525 2.27265C2.89824 2.30915 2.97123 2.38214 2.97123 2.41864C2.99414 2.51026 3.03142 2.60187 3.06504 2.68446C3.08498 2.73346 3.10363 2.77928 3.11722 2.82005C3.15372 2.89305 3.11722 2.92955 3.04423 2.92955C2.98948 2.9113 2.92561 2.89305 2.86174 2.8748C2.79787 2.85655 2.734 2.8383 2.67925 2.82005C2.60631 2.82005 2.53332 2.74706 2.53332 2.67412C2.51507 2.60112 2.48769 2.52812 2.46032 2.45513C2.43295 2.38213 2.40558 2.30914 2.38733 2.23615Z" />
<path d="M3.55514 1.90768C3.51864 1.83469 3.55514 1.79819 3.62813 1.83469C3.68289 1.85294 3.74677 1.88031 3.81065 1.90769C3.87451 1.93506 3.93837 1.96243 3.9931 1.98067C4.06609 2.01717 4.13909 2.09017 4.13909 2.16316C4.17559 2.30915 4.21209 2.41864 4.28508 2.56463C4.32157 2.63762 4.28508 2.67412 4.21209 2.63762C4.12367 2.57868 4.01146 2.54353 3.91388 2.51297C3.89062 2.50568 3.86819 2.49866 3.84711 2.49163C3.77412 2.45513 3.70113 2.38214 3.70113 2.30915C3.66463 2.16316 3.62813 2.05367 3.55514 1.90768Z" />
<path d="M2.82525 1.61575C2.78875 1.54275 2.82525 1.50626 2.89824 1.54275C2.91933 1.54978 2.94177 1.55681 2.96504 1.5641C3.06261 1.59467 3.17481 1.62981 3.26321 1.68875C3.33621 1.72524 3.4092 1.79819 3.4092 1.87118C3.44569 2.01717 3.48219 2.12666 3.55514 2.27265C3.59163 2.34564 3.55514 2.38214 3.48219 2.34564C3.46112 2.33862 3.43869 2.33159 3.41543 2.32431C3.31785 2.29374 3.20564 2.2586 3.11722 2.19965C3.04423 2.16316 2.97123 2.09016 2.97123 2.01717C2.94833 1.92554 2.91104 1.83394 2.87743 1.75135C2.85749 1.70235 2.83884 1.65652 2.82525 1.61575Z" />
<path d="M2.09535 1.36027C2.05885 1.32377 2.09535 1.28728 2.16835 1.28728C2.22309 1.30553 2.28696 1.32378 2.35083 1.34202C2.4147 1.36027 2.47857 1.37852 2.53332 1.39677C2.60626 1.43327 2.67925 1.50626 2.67925 1.57925C2.70216 1.67088 2.73945 1.7625 2.77307 1.84509C2.79301 1.89408 2.81166 1.93991 2.82525 1.98067C2.86174 2.05367 2.82525 2.09016 2.75225 2.05367C2.69751 2.03542 2.63365 2.01717 2.56979 1.99892C2.50593 1.98067 2.44207 1.96242 2.38733 1.94417C2.31433 1.94417 2.24134 1.87118 2.24134 1.79819C2.2231 1.72523 2.19573 1.65227 2.16837 1.5793C2.14099 1.5063 2.1136 1.43328 2.09535 1.36027Z" />
<path d="M1.36546 1.25078C1.36546 1.10479 1.40196 1.06829 1.43845 1.10479C1.49316 1.12303 1.55698 1.14126 1.62079 1.1595C1.6847 1.17776 1.74861 1.19602 1.80337 1.21428C1.87637 1.21428 1.94937 1.28728 1.94937 1.36027C1.96762 1.43329 1.995 1.50631 2.02238 1.57932C2.04975 1.65228 2.07711 1.72524 2.09535 1.79819C2.13185 1.87118 2.09535 1.90768 2.02236 1.90768C1.91287 1.87118 1.76688 1.83469 1.65744 1.83469C1.58444 1.83469 1.51145 1.76174 1.51145 1.68875C1.4932 1.61574 1.46582 1.54274 1.43845 1.46973C1.41108 1.39675 1.38371 1.32376 1.36546 1.25078Z" />
<path d="M0.70856 1.0318C0.672067 0.9588 0.70856 0.88586 0.74506 0.922307C0.804309 0.942064 0.863574 0.951125 0.928637 0.961072C0.983753 0.969498 1.04303 0.978561 1.10998 0.9953C1.18297 0.9953 1.25597 1.06829 1.25597 1.17779C1.27422 1.25078 1.30159 1.32377 1.32896 1.39676C1.35633 1.46976 1.38371 1.54275 1.40196 1.61575C1.43845 1.68875 1.40196 1.72524 1.32897 1.72524C1.21949 1.68875 1.10996 1.65225 1.00049 1.65225C0.9275 1.65225 0.891006 1.57927 0.85451 1.50628C0.839021 1.44432 0.816957 1.38234 0.793909 1.31759C0.762652 1.22978 0.729569 1.13683 0.70856 1.0318Z" />
<path d="M3.26321 1.10479C3.26321 0.9953 3.29971 0.9953 3.33621 0.9953C3.44569 1.0318 3.59163 1.10479 3.70113 1.17779C3.77412 1.21428 3.84711 1.28728 3.84711 1.36027C3.88361 1.50626 3.92011 1.61575 3.9931 1.76174C4.0296 1.83469 3.9931 1.87118 3.92011 1.83469C3.83171 1.77579 3.71953 1.74066 3.62197 1.7101C3.59868 1.70281 3.57623 1.69578 3.55514 1.68875C3.48219 1.65225 3.4092 1.57925 3.4092 1.50626C3.3727 1.36027 3.33621 1.25078 3.26321 1.10479Z" />
<path d="M1.10998 0.301905C1.07349 0.228911 1.10998 0.192414 1.14648 0.192414C1.20122 0.210662 1.26509 0.22891 1.32896 0.247158C1.39283 0.265407 1.4567 0.283656 1.51145 0.301905C1.58444 0.338402 1.65744 0.411397 1.65744 0.484391C1.69387 0.557313 1.72122 0.630236 1.74856 0.703152C1.77595 0.776212 1.80334 0.849265 1.83987 0.922307C1.87637 0.9953 1.83987 1.0318 1.76688 1.0318C1.71211 1.01353 1.64818 0.995265 1.58425 0.976998C1.52045 0.958767 1.45665 0.940536 1.40196 0.922307C1.32897 0.922307 1.25597 0.812867 1.25597 0.739873C1.23772 0.66687 1.21034 0.593867 1.18297 0.520864C1.1556 0.447878 1.12823 0.374891 1.10998 0.301905Z" />
</svg>
