<svg width="18" height="18" viewBox="0 0 19 29" fill="white" xmlns="http://www.w3.org/2000/svg">
<path d="M10.9953 0.211966C10.3933 0.474806 7.97687 1.5092 4.80584 2.85732C3.43229 3.44235 2.27919 3.94259 2.2368 3.9765C2.20289 4.01042 1.70264 7.96996 1.11761 12.7689C0.541063 17.5678 0.0492989 21.5952 0.0323415 21.7224C0.00690548 21.9174 0.0832136 22.0107 0.591935 22.4007C0.914125 22.6466 1.26175 22.9094 1.3635 22.9772C1.56698 23.1214 4.43278 25.275 6.6542 26.9537C7.81578 27.827 8.18036 28.0645 8.39233 28.0645C8.60429 28.0645 11.4786 26.8944 13.9204 25.8176C14.0646 25.7498 14.7259 25.47 15.4042 25.1817C16.0825 24.8934 16.7099 24.6306 16.8032 24.5882C16.8965 24.5458 17.1847 24.4186 17.4391 24.3084L17.9054 24.1049L18.4481 19.6621C18.7448 17.2202 18.9992 15.1768 18.9992 15.126C19.0076 15.0073 19.0585 15.0412 12.9284 10.4033L10.9105 8.88566L10.3 9.11459C9.96088 9.24177 9.54543 9.40286 9.38433 9.46221C9.22324 9.52156 8.8417 9.6657 8.54494 9.77592L8.00231 9.97941L8.46016 10.3186C8.71452 10.5136 10.3509 11.743 12.0975 13.0657C13.8441 14.3883 15.4805 15.6177 15.7264 15.8043C16.1334 16.1095 16.1758 16.1689 16.1334 16.3978C16.1079 16.5419 15.9299 17.9155 15.7349 19.4586C15.5399 20.9932 15.3618 22.282 15.3279 22.3074C15.3025 22.3413 14.5309 22.6805 13.6237 23.062C12.7165 23.4436 11.3175 24.0371 10.5205 24.3847C9.72348 24.7239 8.96888 25.0291 8.85018 25.0545C8.65517 25.1054 8.33298 24.8934 6.44223 23.4775C5.23826 22.5787 4.23777 21.8157 4.21233 21.7902C4.1869 21.7648 3.87319 21.5274 3.5086 21.2561C2.96597 20.8491 2.84727 20.7219 2.88118 20.5778C2.90662 20.476 3.32207 17.1185 3.79688 13.108L4.67866 5.83334L5.1026 5.63832C5.33152 5.5281 6.17939 5.172 6.96791 4.83285C7.7649 4.4937 9.00279 3.95955 9.72348 3.64583C10.4442 3.33212 11.1225 3.05233 11.2242 3.01841C11.3853 2.96754 11.6651 3.13711 12.7504 3.95107C13.488 4.50218 14.1154 4.98547 14.1409 5.01938C14.1663 5.0533 14.0561 6.0877 13.912 7.30863C13.7593 8.53804 13.6322 9.63179 13.6322 9.75049C13.6322 9.92854 13.8441 10.1236 14.8616 10.8782C15.5399 11.3869 16.1079 11.7854 16.1249 11.7684C16.1588 11.726 17.1169 3.79845 17.083 3.78149C17.066 3.76454 16.5149 3.35756 15.8451 2.87427C15.1753 2.39099 14.3528 1.789 14.0222 1.54312C12.4621 0.406975 11.8432 -1.90735e-06 11.6566 -1.90735e-06C11.5464 -1.90735e-06 11.2496 0.0932636 10.9953 0.211966Z"/>
<path d="M7.85816 10.8019C7.85816 10.8273 7.66315 12.4383 7.42574 14.3799C7.19682 16.3215 7.01877 17.924 7.03572 17.9409C7.05268 17.9579 8.14643 17.5085 9.47759 16.9489C10.8003 16.3893 12.1145 15.8382 12.3943 15.728C12.6741 15.6178 13.0895 15.4482 13.31 15.3465L13.7169 15.1684L13.0132 14.6343C12.6232 14.346 12.1908 14.0238 12.0466 13.922L11.7753 13.7355L10.7494 14.134C10.1813 14.346 9.69803 14.4986 9.6726 14.4732C9.63868 14.4392 9.6726 13.939 9.74043 13.354L9.85913 12.2857L8.85864 11.5226C8.30753 11.1071 7.85816 10.7849 7.85816 10.8019Z"/>
</svg>
