<svg width="18" height="24" viewBox="0 0 18 24" fill="white" xmlns="http://www.w3.org/2000/svg">
<path d="M17.9532 9.64852C18.3265 7.12571 16.421 5.77031 13.8141 4.86671L14.66 1.45092L12.595 0.932407L11.7717 4.25875C11.2298 4.1223 10.6729 3.99343 10.119 3.86608L10.9483 0.518509L8.8848 0L8.03892 3.41428C7.59039 3.31118 7.14939 3.2096 6.72042 3.10196L6.72343 3.09135L3.87722 2.37574L3.32635 4.59684C3.32635 4.59684 4.85857 4.95009 4.82546 4.97284C5.66081 5.18358 5.81283 5.73999 5.78724 6.18269L3.47084 15.5401C3.36849 15.7963 3.10961 16.1799 2.52411 16.0344C2.54518 16.0647 1.02349 15.6569 1.02349 15.6569L0 18.0371L2.68666 18.7118C3.18637 18.8377 3.67554 18.9696 4.15718 19.0939L3.30226 22.5491L5.3643 23.0676L6.21018 19.6488C6.7731 19.8034 7.31947 19.9444 7.85529 20.0793L7.01242 23.4815L9.07596 24L9.93087 20.5509C13.4514 21.2225 16.0989 20.9511 17.2112 17.7445C18.1083 15.1626 17.1676 13.6723 15.3147 12.7004C16.6648 12.3881 17.6808 11.4936 17.9532 9.64852ZM13.2361 16.3103C12.598 18.8922 8.28275 17.4974 6.88298 17.1472L8.01484 12.5685C9.41461 12.9203 13.9014 13.6177 13.2361 16.3103ZM13.8743 9.61061C13.2918 11.9591 9.70059 10.7659 8.53411 10.4733L9.56061 6.32217C10.7271 6.61478 14.4809 7.16058 13.8743 9.61061Z" />
</svg>
