<svg width="16" height="16" viewBox="0 0 16 16" xmlns="http://www.w3.org/2000/svg">
<path d="M7.98523 0.000181003C7.37857 -0.00409271 6.77368 0.0673295 6.18407 0.212852V10.1706C6.18255 10.2672 6.14403 10.3594 6.07674 10.4275C6.00944 10.4956 5.91868 10.5342 5.82383 10.5351H5.10268C5.06729 10.5354 5.03219 10.5285 4.99941 10.5149C4.96663 10.5013 4.93682 10.4812 4.9117 10.4558C4.88658 10.4305 4.86664 10.4002 4.85303 10.367C4.83942 10.3337 4.83242 10.298 4.83242 10.2619V0.637846C3.40605 1.24141 2.18648 2.26065 1.32677 3.56766C0.467047 4.87467 0.00548287 6.41121 0 7.98446C0.00784705 9.04731 0.221588 10.0981 0.628966 11.0767C1.03634 12.0552 1.62935 12.9422 2.37397 13.6869C3.1186 14.4315 4.0002 15.0191 4.96823 15.4159C5.93626 15.8128 6.97168 16.0111 8.01511 15.9995C9.05462 16.0111 10.0861 15.8136 11.0506 15.4183C12.015 15.023 12.8933 14.4377 13.6351 13.6959C14.3769 12.954 14.9677 12.0704 15.3735 11.0955C15.7793 10.1206 15.9922 9.07375 16 8.01489C15.974 5.87163 15.1166 3.82589 13.615 2.32428C12.1134 0.822677 10.0895 -0.0128246 7.98523 0.000181003ZM7.83517 11.3242C7.83409 11.4129 7.79886 11.4976 7.73707 11.5601C7.67528 11.6226 7.59187 11.6578 7.50481 11.6583H6.78365C6.69659 11.6578 6.61318 11.6226 6.55139 11.5601C6.4896 11.4976 6.45438 11.4129 6.4533 11.3242V6.25405C6.45438 6.16537 6.4896 6.08068 6.55139 6.0182C6.61318 5.95572 6.69659 5.92046 6.78365 5.92H7.50481C7.59187 5.92046 7.67528 5.95572 7.73707 6.0182C7.79886 6.08068 7.83409 6.16537 7.83517 6.25405V11.3242ZM9.45604 11.8101C9.45496 11.8988 9.41974 11.9835 9.35795 12.0459C9.29616 12.1084 9.21275 12.1437 9.12569 12.1441H8.40453C8.31747 12.1437 8.23406 12.1084 8.17227 12.0459C8.11048 11.9835 8.07526 11.8988 8.07418 11.8101V5.76854C8.07526 5.67987 8.11048 5.59517 8.17227 5.53269C8.23406 5.47021 8.31747 5.43495 8.40453 5.4345H9.12569C9.21275 5.43495 9.29616 5.47021 9.35795 5.53269C9.41974 5.59517 9.45496 5.67987 9.45604 5.76854V11.8101ZM11.0769 10.9006C11.0758 10.9893 11.0406 11.074 10.9788 11.1365C10.917 11.199 10.8336 11.2342 10.7466 11.2347H10.0275C9.94041 11.2342 9.857 11.199 9.79521 11.1365C9.73342 11.074 9.6982 10.9893 9.69712 10.9006V6.73991C9.6982 6.65123 9.73342 6.56653 9.79521 6.50405C9.857 6.44157 9.94041 6.40631 10.0275 6.40586H10.7486C10.8357 6.40631 10.9191 6.44157 10.9809 6.50405C11.0427 6.56653 11.0779 6.65123 11.079 6.73991L11.0769 10.9006Z"/>
</svg>
