<svg width="18" height="20" viewBox="0 0 14 16" fill="white" xmlns="http://www.w3.org/2000/svg">
<g clip-path="url(#clip0_2106_22801)">
<path d="M1.53253 8.00008L1.54054 11.0943L4.1698 12.6414V14.453L0.00146484 12.0081V7.09426L1.53253 8.00008ZM1.53253 4.90587V6.70949L0.00146484 5.80367V4.00006L1.53253 3.09424L3.0716 4.00006L1.53253 4.90587ZM5.26799 4.00006L6.79905 3.09424L8.33813 4.00006L6.79905 4.90587L5.26799 4.00006Z" />
<path d="M2.63867 10.453V8.64133L4.16973 9.54714V11.3508L2.63867 10.453ZM5.26792 13.2906L6.79898 14.1964L8.33805 13.2906V15.0942L6.79898 16L5.26792 15.0942V13.2906ZM10.5344 4.00005L12.0655 3.09424L13.6046 4.00005V5.80366L12.0655 6.70947V4.90586L10.5344 4.00005V4.00005ZM12.0655 11.0942L12.0735 8.00005L13.6046 7.09424V12.0081L9.43625 14.453V12.6413L12.0655 11.0942Z" />
<path d="M10.9676 10.4527L9.43652 11.3505V9.54691L10.9676 8.64111V10.4527Z" />
<path d="M10.9674 5.54712L10.9754 7.35876L8.33809 8.90586V12.0081L6.80703 12.9059L5.27596 12.0081V8.90586L2.63867 7.35876V5.54712L4.17776 4.64131L6.79901 6.19642L9.4363 4.64131L10.9754 5.54712H10.9674ZM2.63867 2.45292L6.79901 0L10.9674 2.45292L9.4363 3.35873L6.79901 1.80362L4.16974 3.35873L2.63867 2.45292Z" />
</g>
<defs>
<clipPath id="clip0_2106_22801">
<rect width="13.6064" height="16" fill="white"/>
</clipPath>
</defs>
</svg>

