<svg width="26" height="14" viewBox="0 0 26 14"  xmlns="http://www.w3.org/2000/svg">
<path d="M6.69929 0.0420851C6.56953 0.0917784 6.34315 0.254662 6.28518 0.340245C6.26309 0.376134 6.20512 0.51141 6.15818 0.643926C6.11401 0.77368 6.01187 1.01386 5.93457 1.17951C5.77168 1.5246 5.70818 1.7427 5.70266 1.98564C5.6999 2.15129 5.70542 2.16509 5.79101 2.23411L5.87935 2.31141L5.88763 2.69515C5.89315 3.06233 5.89592 3.08442 5.97045 3.21141C6.2134 3.62552 6.44806 3.87675 6.52536 3.81325C6.54469 3.79669 6.57782 3.72491 6.59714 3.65865C6.61647 3.58963 6.64131 3.53442 6.65236 3.53442C6.69653 3.53442 6.78487 3.66693 6.98364 4.02583C7.19898 4.40681 7.25972 4.48411 7.31493 4.42889C7.36187 4.38196 7.42536 3.93748 7.42536 3.66693C7.42536 3.53442 7.43641 3.42123 7.45021 3.41018C7.46401 3.4019 7.50818 3.4654 7.54684 3.54822L7.61585 3.70006H7.84776C8.00788 3.70006 8.0907 3.7111 8.11003 3.73595C8.12659 3.75527 8.14868 3.84362 8.15972 3.9292C8.17628 4.08104 8.1818 4.08656 8.25082 4.07C8.44683 4.02859 8.43855 4.02859 8.45788 4.11693C8.46616 4.16386 8.47444 4.2384 8.47444 4.27981C8.47444 4.37368 8.52414 4.41785 8.59868 4.38748C8.69806 4.34883 8.82506 4.36264 8.8996 4.42061C8.96861 4.47307 8.97137 4.48963 8.97137 4.72705C8.97137 4.96724 8.90236 5.48626 8.86371 5.52767C8.85542 5.53871 8.78088 5.46693 8.69806 5.3703C8.618 5.27092 8.5407 5.19086 8.52966 5.19086C8.51861 5.19086 8.49377 5.28472 8.47168 5.40067C8.45236 5.51662 8.41923 5.62981 8.40266 5.65466C8.37506 5.69331 8.35849 5.68227 8.29223 5.58012C8.24806 5.51386 8.168 5.41172 8.11279 5.35098C7.9361 5.14945 7.87812 5.22399 7.72904 5.84515C7.54407 6.62368 7.51371 6.71754 7.31217 7.09576C7.25696 7.20067 7.24591 7.26693 7.23763 7.543C7.22659 7.93779 7.28457 8.3519 7.37567 8.5065C7.54684 8.79362 8.47168 9.71846 8.58763 9.71846C8.63456 9.71846 8.64009 9.69638 8.64009 9.53902C8.64009 9.40098 8.64837 9.35957 8.67874 9.35957C8.70082 9.35957 8.8361 9.43411 8.97966 9.52245C9.12322 9.61356 9.28334 9.70466 9.33855 9.72951C9.42966 9.7654 9.44346 9.7654 9.48211 9.72675C9.53456 9.67705 9.518 9.55834 9.4407 9.42583L9.39377 9.34024L9.67812 9.35405C10.0039 9.36785 10.1778 9.33196 10.2717 9.23257C10.3297 9.16908 10.3324 9.14147 10.3379 8.73288C10.3407 8.25251 10.3628 8.15313 10.4981 7.97644C10.6085 7.83288 10.8155 7.71141 10.8652 7.76386C11.0364 7.95159 10.9784 8.70803 10.7106 9.77368C10.5257 10.5108 10.0701 11.974 9.85757 12.5151C9.84101 12.5593 9.8272 12.5979 9.8272 12.6034C9.8272 12.631 10.084 12.7608 10.2938 12.8353C11.7155 13.3516 13.383 13.3544 14.7441 12.8436C15.553 12.5399 16.1769 12.1258 16.8698 11.4329C17.3557 10.9442 17.5214 10.7372 17.9465 10.0746C18.2143 9.65497 18.4821 9.27675 18.5097 9.27675C18.5373 9.27675 18.9045 9.73227 19.0315 9.92552C19.2662 10.2761 19.4898 10.7648 19.4898 10.9221C19.4898 11.0326 19.5478 11.0491 19.8542 11.0298C20.7266 10.9746 21.3146 10.82 21.6293 10.5632C21.8585 10.3728 22.0076 9.97245 22.0103 9.52521C22.0103 9.27399 21.9579 8.87368 21.9192 8.84883C21.9082 8.84331 21.7867 8.9427 21.6514 9.06969L21.4002 9.30159L21.3864 9.19945C21.3754 9.14423 21.3616 8.96478 21.3505 8.79914C21.3395 8.63626 21.3229 8.50374 21.3146 8.50374C21.3036 8.50374 21.2815 8.51754 21.2649 8.53411C21.2456 8.55343 21.2152 8.55895 21.1932 8.55067C21.1379 8.52859 21.0303 8.16693 21.0413 8.02889C21.0496 7.9157 21.0524 7.91018 21.1324 7.91846C21.1793 7.92122 21.4361 7.93227 21.7066 7.94055C22.1263 7.95711 22.2257 7.95159 22.3775 7.91018C22.5542 7.86325 22.7005 7.86877 22.8082 7.92675C22.8855 7.96816 22.8662 8.02061 22.7557 8.09515C22.6205 8.18626 22.3886 8.39055 22.3886 8.42092C22.3886 8.50374 23.0705 8.53135 23.3741 8.45957C23.7662 8.36846 23.9787 8.24699 24.4177 7.85773C24.876 7.4519 25.1714 7.10129 25.2901 6.82797C25.3563 6.67061 25.4833 6.53534 25.7318 6.34761C25.8478 6.26202 25.9361 6.17368 25.9665 6.10742C26.0106 6.0108 26.0106 5.99423 25.9692 5.83963C25.8671 5.44208 25.6849 5.19362 25.3784 5.03349C25.1852 4.92859 24.9422 4.86233 24.3625 4.74914C23.6806 4.61662 23.5398 4.52828 23.6861 4.33227C23.7192 4.28534 23.7386 4.23012 23.7303 4.2108C23.722 4.18871 23.6254 4.1473 23.5149 4.11417C23.1008 3.99546 22.6425 3.82981 22.3913 3.70558C22.1787 3.59791 22.0766 3.52337 21.8198 3.28319C21.6432 3.11478 21.4499 2.96294 21.3754 2.92705C21.3036 2.89392 21.1076 2.83595 20.9392 2.80006C20.5002 2.70343 20.3125 2.65374 20.2435 2.60681C20.1827 2.56816 19.9978 2.32797 19.7824 2.00773C19.5864 1.71785 19.3793 1.5881 18.841 1.42245C18.3882 1.28442 18.0928 1.16847 17.9355 1.07184C17.8637 1.02491 17.7974 0.994539 17.7864 1.00282C17.7781 1.0111 17.7533 1.12982 17.7312 1.26233C17.7091 1.39485 17.6843 1.5108 17.6787 1.51632C17.6484 1.54945 17.1376 1.23196 16.8864 1.02491C16.7042 0.875827 16.5827 0.757116 16.3922 0.530735C16.3094 0.431349 16.257 0.420306 16.1879 0.489324C16.1465 0.533496 16.1438 0.58595 16.1576 1.00558L16.1741 1.47491L16.1079 1.32859C16.0389 1.18503 15.9836 1.16294 15.9836 1.28166C15.9836 1.45006 15.6413 1.77859 15.2327 2.00221C15.0036 2.12644 14.8904 2.15957 14.8573 2.11816C14.8435 2.09883 14.8159 2.00497 14.7965 1.90558C14.6419 1.11049 14.399 0.423067 14.2803 0.447913C14.2554 0.453435 14.2085 0.544539 14.1643 0.677054C14.0208 1.10221 13.6978 1.65712 13.5928 1.65712C13.5183 1.65712 13.3775 1.56877 13.1925 1.40589C12.7453 1.0111 11.641 0.469999 11.2821 0.469999C11.133 0.469999 10.8956 0.550061 10.7355 0.652208C10.6223 0.726748 10.5947 0.732269 10.3103 0.73503C9.97076 0.737791 9.70849 0.795766 9.3634 0.944846L9.16187 1.03043L8.9272 0.925521C8.79745 0.867545 8.62076 0.776441 8.53518 0.723987C8.31432 0.591472 8.16524 0.519692 7.79254 0.35957C7.61309 0.282269 7.37843 0.169079 7.268 0.108343C7.04714 -0.0103689 6.8953 -0.029694 6.69929 0.0420851ZM7.75665 0.994539C7.85328 1.10497 7.85604 1.10497 8.12935 1.13534C9.05972 1.2292 9.16187 1.27889 9.58426 1.80896C9.71677 1.97736 9.88242 2.16509 9.95144 2.22859C10.0922 2.35834 10.3821 2.52399 10.7355 2.68135C11.0833 2.83595 11.0889 2.78626 10.7603 2.47153C10.4456 2.17061 10.4428 2.17337 10.9232 2.21202C11.4754 2.25619 11.5747 2.29761 11.9751 2.66202C12.1655 2.83595 12.229 2.8746 12.229 2.81938C12.229 2.80558 12.1711 2.66754 12.102 2.51294C12.033 2.35834 11.9806 2.22859 11.9861 2.2203C12.0027 2.2065 12.6597 2.94914 12.7536 3.08718C12.7922 3.14239 12.9247 3.3108 13.049 3.46264C13.5045 4.00926 13.8137 4.56141 13.8468 4.88718C13.88 5.21294 13.7143 5.63534 13.4603 5.87828L13.3609 5.97491V5.84791C13.3609 5.52767 13.187 5.00313 12.9717 4.66632C12.7674 4.35159 12.334 3.86294 12.2925 3.90159C12.287 3.90988 12.3119 3.97889 12.3505 4.05619C12.6045 4.55313 12.6542 5.32337 12.4886 6.12399C12.4665 6.22613 12.3781 6.29515 12.2622 6.29515C12.1076 6.29515 12.0634 6.24822 12.0386 6.06601C12.0165 5.90589 11.9502 5.79822 11.8729 5.79822C11.7956 5.79822 11.6603 5.90037 11.63 5.98043C11.6134 6.0246 11.5775 6.12675 11.5527 6.20957C11.456 6.52153 11.3567 6.60987 10.9122 6.77552C10.5809 6.89975 10.4732 7.0019 10.233 7.42705C10.1944 7.49607 10.095 7.62859 10.0122 7.72521C9.8272 7.94055 9.78579 8.06478 9.80788 8.37122C9.83825 8.82951 9.75542 8.83779 9.25297 8.4292C9.17291 8.36294 9.09285 8.31601 9.07628 8.32705C9.04039 8.34914 9.05972 8.45681 9.13702 8.63073C9.21432 8.80466 9.19775 8.86264 9.07352 8.86264C8.96861 8.86264 8.8499 8.78534 8.53794 8.51202C8.42751 8.4154 8.31432 8.3381 8.28671 8.3381C8.25634 8.3381 8.19561 8.39331 8.14591 8.46233C8.04653 8.60037 7.94162 8.64454 7.87536 8.57828C7.81463 8.5203 7.77045 8.07859 7.7953 7.8108L7.81463 7.60098L8.22045 7.58442C8.83058 7.55957 9.20052 7.43257 9.66432 7.09576C9.97904 6.86662 10.3683 6.39178 10.4401 6.14607C10.4787 6.02184 10.487 5.66846 10.4567 5.52767C10.4456 5.48073 10.4456 5.43932 10.4567 5.43932C10.4815 5.43932 10.6278 5.64362 10.6803 5.75129C10.7935 5.98043 10.8625 5.64914 10.7797 5.27368C10.6389 4.65527 10.3324 3.70006 10.1447 3.29147C10.106 3.21141 10.0757 3.13963 10.0757 3.13135C10.0757 3.1203 10.0205 3.0292 9.95144 2.92705C9.81064 2.71724 9.57045 2.48257 9.41033 2.40251C9.27782 2.3335 9.25297 2.3335 9.17567 2.40527C9.13978 2.4384 9.09285 2.45773 9.07076 2.44945C9.04868 2.44116 8.96585 2.34454 8.88855 2.23687C8.67598 1.94699 8.67045 1.94699 8.17628 2.26448C7.98855 2.38595 7.91953 2.41356 7.79806 2.4246C7.60205 2.44116 7.58272 2.39699 7.70144 2.22307C7.84223 2.02153 7.81739 2.00497 7.41156 2.02429C7.22383 2.03257 7.03058 2.02981 6.98641 2.01601C6.8815 1.98564 6.66064 1.80343 6.60818 1.70681C6.55573 1.60742 6.53365 1.34515 6.56125 1.18779L6.5861 1.06356L6.72138 1.06632C6.79868 1.06908 6.9726 1.08012 7.1134 1.09116L7.36463 1.11325L7.47782 0.9973C7.53855 0.936564 7.60481 0.88411 7.62414 0.88411C7.64346 0.88411 7.70144 0.933803 7.75665 0.994539ZM17.6539 2.45773C17.9355 2.7835 18.0735 2.87184 18.6616 3.1065C18.8355 3.17828 19.0039 3.24454 19.0343 3.25834C19.2027 3.33288 19.6002 3.48472 19.6968 3.50957C19.7576 3.52613 20.0751 3.54822 20.4008 3.55926C21.0882 3.58135 21.091 3.58135 21.6376 3.89331C21.8254 3.99822 22.0435 4.10589 22.1208 4.13073C22.5073 4.25497 22.5763 4.31018 22.6011 4.52276L22.6177 4.66632H22.441C22.3444 4.66632 22.2174 4.65251 22.1622 4.63871C22.107 4.62215 21.8088 4.43994 21.5024 4.23288L20.9419 3.85742L20.7349 3.83534C20.3925 3.79945 20.0419 3.80497 20.0419 3.84638C20.0419 3.8657 20.1165 3.96233 20.2076 4.06448C20.3014 4.16662 20.4063 4.32399 20.4505 4.42061C20.4947 4.51724 20.572 4.68564 20.6217 4.79607C20.7349 5.04454 20.8149 5.12184 21.0524 5.20466C21.2511 5.27368 21.7066 5.3565 21.8833 5.3565C22.0103 5.3565 22.3333 5.293 22.5956 5.21294C22.7751 5.16049 22.8109 5.15773 23.1063 5.19086C23.5287 5.23503 23.8517 5.29576 23.929 5.34822C24.0036 5.39515 24.1361 5.66018 24.1968 5.8838C24.2189 5.96662 24.2438 6.13227 24.2548 6.25374C24.2741 6.5381 24.23 6.63196 24.0201 6.75619C23.7137 6.9384 23.1339 7.11509 23.0014 7.0654C22.96 7.05159 22.7281 6.83349 22.4852 6.58503C22.0876 6.18196 22.0214 6.12399 21.8364 6.03564C21.6211 5.93626 21.3533 5.85895 21.3229 5.88932C21.3119 5.89761 21.3257 5.95558 21.3505 6.01908C21.4251 6.20405 21.4251 6.20129 21.1131 6.22337C20.4339 6.2703 19.8017 6.49116 19.4346 6.81417C19.2441 6.97981 19.2192 7.03227 19.3103 7.07368C19.3766 7.10405 19.3793 7.11509 19.3793 7.34423C19.3793 7.66724 19.4428 7.94883 19.6886 8.7384C19.8459 9.24362 19.9674 9.51693 20.0889 9.64392C20.1468 9.7019 20.318 9.8565 20.4698 9.98902C20.6217 10.1188 20.7625 10.2402 20.7846 10.2596C20.8149 10.2872 20.7928 10.3065 20.6603 10.3672C20.3787 10.497 20.1634 10.5771 20.0833 10.5826C19.995 10.5881 20.0088 10.6129 19.7659 9.95865C19.5974 9.50589 19.4705 9.28227 19.1751 8.92061C18.9349 8.63073 18.402 8.08963 18.0183 7.74178L17.7754 7.52368L17.734 7.0157C17.6981 6.54086 17.6843 6.4608 17.6566 6.49116C17.6373 6.51049 17.3944 7.51816 17.3585 7.72245C17.3198 7.95988 17.3364 8.00681 17.5545 8.27736C17.6787 8.43196 17.6953 8.46785 17.6953 8.58104C17.6953 8.83779 17.549 9.23534 17.2094 9.91172C16.7484 10.831 16.6628 10.9304 16.5027 10.7372C16.4613 10.6875 16.406 10.5936 16.3812 10.5329L16.3398 10.4169L16.4806 10.116C16.7373 9.58043 16.9416 9.10006 16.9747 8.96754C17.0134 8.80742 17.0134 8.443 16.9747 8.18626C16.9609 8.07859 16.9444 7.84945 16.9444 7.67552C16.9389 7.39116 16.9471 7.33595 17.0162 7.15374C17.1984 6.66785 17.687 5.92521 17.9382 5.75681L18.0404 5.68779L18.2336 5.88104C18.3413 5.98871 18.4435 6.07429 18.4628 6.07429C18.4821 6.07429 18.4959 6.03288 18.4959 5.96938C18.5014 5.50282 18.9459 4.64975 19.4622 4.12797C19.5533 4.03411 19.6278 3.943 19.6278 3.92644C19.6278 3.87675 19.4263 3.78564 19.1916 3.72767C18.979 3.67521 18.8327 3.64761 18.3772 3.57859C18.2419 3.5565 18.126 3.53165 18.1177 3.52337C18.1094 3.51509 18.1536 3.44883 18.2143 3.37429C18.2999 3.27215 18.3192 3.23073 18.2971 3.20865C18.2778 3.18932 18.253 3.17552 18.2419 3.17552C18.1895 3.17552 17.9438 3.04853 17.7892 2.9381C17.4413 2.69515 17.0879 2.19546 17.0217 1.85037C17.0024 1.75374 17.0051 1.7565 17.2039 1.9608C17.3143 2.07399 17.5186 2.29761 17.6539 2.45773ZM18.9514 2.21754C19.2689 2.47153 19.5257 2.75589 19.5836 2.91049C19.6002 2.95742 19.5919 2.96018 19.5008 2.94638C19.3462 2.92153 19.1226 2.80282 18.968 2.66202C18.8189 2.52675 18.7085 2.32521 18.6754 2.1292L18.656 2.00497L18.7333 2.05742C18.7775 2.08503 18.8769 2.15681 18.9514 2.21754ZM15.8456 2.22307C15.8456 2.58472 15.7269 3.14239 15.5944 3.4019C15.5254 3.53994 15.3873 3.69178 15.2907 3.74423C15.1886 3.79669 15.1886 3.77736 15.31 3.48472C15.4343 3.1838 15.5695 2.78073 15.5695 2.70619C15.5695 2.6427 15.5226 2.63442 15.4619 2.68963C15.3956 2.74761 15.0974 2.89392 14.9428 2.94362C14.7938 2.99055 14.134 3.03196 14.134 2.99331C14.134 2.96018 14.1533 2.94914 14.7827 2.62337C15.0864 2.46601 15.4398 2.27276 15.5695 2.1927C15.6993 2.1154 15.8125 2.04914 15.8263 2.04638C15.8373 2.04362 15.8456 2.12368 15.8456 2.22307ZM16.3563 2.3335C16.4005 2.593 16.6103 3.15619 16.8091 3.55926C16.8726 3.68626 16.9223 3.80221 16.9223 3.82153C16.9223 3.8381 16.8947 3.8657 16.8616 3.87951C16.8063 3.90435 16.7732 3.88779 16.6048 3.74147C16.4999 3.65037 16.3701 3.5427 16.3177 3.50129L16.2238 3.42951L16.2542 3.23626C16.2735 3.12859 16.2873 2.83871 16.2873 2.59024C16.2901 2.16233 16.3094 2.07951 16.3563 2.3335ZM6.69377 2.64546C6.80144 2.70067 6.88426 2.72 7.07475 2.72828C7.35911 2.74208 7.35082 2.72552 7.24591 3.13963C7.20726 3.28871 7.1769 3.45988 7.1769 3.52337C7.1769 3.58411 7.16033 3.65865 7.13825 3.68626C7.04714 3.81049 6.89806 3.58963 6.73794 3.09546C6.61923 2.7338 6.56677 2.68135 6.51708 2.86356C6.50052 2.92153 6.48671 3.05129 6.48671 3.15343C6.48671 3.25558 6.47291 3.34669 6.45634 3.35497C6.42045 3.37981 6.32935 3.29699 6.26861 3.18932C6.2134 3.08718 6.20788 2.51846 6.26309 2.39147L6.29622 2.30865L6.42598 2.44116C6.49776 2.5157 6.61923 2.60681 6.69377 2.64546ZM15.1333 5.16325C15.4757 5.69607 15.5226 5.79822 15.68 6.29515C15.7435 6.49945 15.8125 6.72307 15.8373 6.79208C16.1631 7.78319 16.1769 9.08073 15.8677 9.98073C15.8152 10.1381 15.6524 10.4556 15.6027 10.4998C15.5474 10.5494 15.553 10.5743 15.4563 9.80129C15.4094 9.43135 15.3928 9.35129 15.3542 9.33748C15.3376 9.33196 15.3211 9.34853 15.3211 9.37337C15.3211 9.43963 15.1692 9.73227 15.056 9.88687C14.9401 10.047 14.6336 10.3313 14.6005 10.3093C14.5563 10.2817 14.5177 10.0691 14.5232 9.88963C14.526 9.74331 14.5205 9.70742 14.4901 9.71294C14.468 9.71846 14.4404 9.74055 14.4266 9.7654C14.4155 9.78748 14.3686 9.84546 14.3272 9.89239C14.2554 9.97521 14.2471 9.97797 14.1422 9.94484C13.9849 9.89791 13.8993 9.90343 13.7751 9.96693C13.7143 9.9973 13.6591 10.0221 13.6508 10.0221C13.6425 10.0221 13.637 9.93104 13.637 9.81785V9.6108L13.5211 9.60251C13.4327 9.59699 13.3996 9.58043 13.3941 9.54178C13.372 9.43687 13.7916 9.11386 14.5757 8.63073C15.0892 8.31325 15.2272 8.15589 15.2576 7.85773C15.2769 7.67276 15.1968 6.5519 15.1251 5.96386C15.0836 5.63534 14.9787 5.21294 14.8655 4.92583C14.6999 4.50343 14.7303 4.53104 15.1333 5.16325ZM24.5474 5.50558C24.6137 5.53871 24.7545 5.61601 24.8594 5.67399C24.9671 5.73196 25.1051 5.81478 25.1714 5.85895C25.2901 5.93902 25.2901 5.94178 25.2404 5.99699C25.1797 6.06601 24.9395 6.22613 24.8539 6.25098C24.8125 6.26478 24.7766 6.25374 24.7352 6.21233C24.6634 6.14055 24.68 6.1157 24.8401 6.0384C25.0306 5.9473 25.0278 5.89484 24.8346 5.91969L24.68 5.93626L24.5889 5.7927C24.3404 5.39791 24.3404 5.38963 24.5474 5.50558ZM8.09346 5.92797C8.12107 6.12122 8.3999 6.75895 8.46892 6.78656C8.52137 6.80589 8.69254 6.71202 8.74223 6.63472C8.77812 6.57951 8.78088 6.5381 8.75052 6.34761C8.73395 6.22337 8.71187 6.10466 8.70358 6.07981C8.68978 6.0384 8.69254 6.03564 8.73395 6.07705C8.7588 6.09914 8.82229 6.21509 8.87199 6.3338C8.99898 6.62644 9.01555 6.64024 9.24193 6.64024C9.39929 6.64024 9.45726 6.62644 9.64223 6.53534C9.76095 6.47736 9.86585 6.43595 9.87414 6.44423C9.93763 6.50773 9.37996 6.91356 8.95757 7.11509C8.75052 7.21448 8.71739 7.22 8.43027 7.22828C7.93334 7.24484 7.87812 7.18411 7.88364 6.62644C7.88641 6.07981 8.04377 5.5608 8.09346 5.92797ZM21.8226 6.74791C22.1318 6.83626 22.3554 6.98257 22.6646 7.30282C22.9297 7.57613 23.1478 7.67276 23.6171 7.73073C23.7524 7.7473 23.8683 7.76662 23.8738 7.77215C23.8932 7.79147 23.8159 7.91294 23.7192 8.01509C23.6612 8.07307 23.5563 8.14208 23.4735 8.17245C23.33 8.22491 23.0511 8.24975 23.0511 8.20558C23.0511 8.19454 23.1063 8.15589 23.1726 8.12C23.2416 8.08411 23.3162 8.03441 23.341 8.00681C23.3824 7.96264 23.3769 7.95711 23.272 7.94055C23.1284 7.91846 22.891 7.79699 22.695 7.65067C22.5542 7.54576 22.5404 7.54024 22.4879 7.57889C22.3416 7.68656 22.129 7.76662 21.9717 7.76938C21.8861 7.77215 21.8033 7.76386 21.7922 7.75006C21.7812 7.73902 21.8281 7.67 21.8971 7.59822C22.0738 7.41877 22.2312 7.16202 22.2091 7.093C22.1898 7.03503 22.0517 6.95497 21.8778 6.90251C21.8171 6.88595 21.5935 6.8611 21.3809 6.8473C20.8287 6.81693 20.4864 6.73687 20.7404 6.70098C20.9143 6.67337 21.6846 6.70926 21.8226 6.74791ZM24.7987 6.90803C24.7435 7.21172 24.5861 7.39945 24.3901 7.39945C24.241 7.39945 24.2162 7.34975 24.2935 7.19515C24.3846 7.0019 24.6109 6.81969 24.7545 6.81969C24.8097 6.81969 24.8152 6.83073 24.7987 6.90803ZM20.3677 7.74178C20.4091 7.76386 20.4726 7.81356 20.5113 7.85497C20.5747 7.92399 20.5803 7.94883 20.5803 8.20834C20.5803 8.51478 20.641 8.72184 20.7818 8.90957L20.8481 9.00067H20.7846C20.6962 8.99791 20.5085 8.91233 20.4505 8.84607C20.3511 8.73288 20.3152 8.59484 20.3346 8.38503C20.3484 8.23043 20.3373 8.13656 20.2932 7.95988C20.26 7.83564 20.2352 7.72797 20.2352 7.71969C20.2352 7.69208 20.2904 7.70037 20.3677 7.74178ZM20.3373 9.03104C20.5444 9.21601 20.6879 9.30435 20.7708 9.30435C20.8453 9.30435 20.9778 9.16908 21.0634 9.00067C21.1241 8.88196 21.1435 8.87092 21.1959 8.92337C21.2456 8.97307 21.2346 9.15803 21.1738 9.35957C21.1435 9.45895 21.1186 9.54178 21.1186 9.54454C21.1186 9.56386 21.3698 9.71846 21.4002 9.71846C21.4195 9.7157 21.4692 9.66601 21.5106 9.60803C21.6128 9.45895 21.6984 9.45619 21.6984 9.59975C21.6984 9.74331 21.6293 9.98902 21.5714 10.0525C21.5106 10.1215 21.4444 10.1188 21.2566 10.0415C20.9005 9.89515 20.4174 9.4976 20.2545 9.21877C20.1882 9.10558 20.1275 8.89024 20.1606 8.89024C20.1689 8.89024 20.249 8.95374 20.3373 9.03104Z" />
<path d="M5.29965 3.4655C4.63155 3.60906 4.56253 3.64219 4.18155 4.00385C3.95241 4.22195 3.83922 4.30477 3.64873 4.40139C3.35609 4.54771 2.97235 4.69403 2.61345 4.79342C2.46713 4.83207 2.32634 4.88176 2.29873 4.90109C2.25456 4.93422 2.25456 4.9425 2.30149 5.03084C2.42572 5.26274 2.30701 5.33728 1.58646 5.48084C0.968055 5.60231 0.689221 5.69066 0.49597 5.82041C0.222657 6.00538 0.032166 6.33115 0.0045586 6.66244C-0.00648434 6.8198 -0.00648434 6.82256 0.112227 6.93851C0.178485 7.00201 0.313761 7.1152 0.413148 7.1925C0.564988 7.30845 0.60916 7.36366 0.703025 7.55415C0.838301 7.82471 1.0564 8.09802 1.37664 8.39894C1.91223 8.90139 2.16898 9.06152 2.59965 9.17194C2.79014 9.21888 2.87848 9.22716 3.16008 9.21336C3.49689 9.19679 3.6156 9.17747 3.6156 9.13606C3.6156 9.12501 3.53278 9.04771 3.43339 8.96765C3.33401 8.88759 3.21806 8.79648 3.1794 8.76336L3.10763 8.70538L3.18217 8.65845C3.28983 8.58667 3.4472 8.57563 3.59904 8.62532C3.75916 8.68053 4.39137 8.68882 4.71437 8.64188C4.82756 8.62808 4.92971 8.6198 4.94352 8.63084C5.00149 8.66397 4.9518 8.95937 4.84689 9.20507C4.80272 9.30722 4.79996 9.30998 4.75026 9.26581C4.7199 9.2382 4.68953 9.22992 4.68125 9.24372C4.67296 9.26029 4.65364 9.43421 4.63983 9.63575C4.62603 9.83728 4.60947 10.0029 4.60394 10.0084C4.59842 10.014 4.48247 9.91458 4.3472 9.78759C4.20916 9.6606 4.09045 9.55569 4.0794 9.55293C4.07112 9.55293 4.04075 9.67164 4.01591 9.81796C3.90824 10.4088 4.04904 10.9996 4.35824 11.2646C4.66192 11.5241 5.17818 11.6677 6.04505 11.7339C6.41223 11.7615 6.44812 11.7588 6.47848 11.7146C6.49781 11.6897 6.51437 11.6483 6.51437 11.6207C6.51437 11.5407 6.66897 11.1376 6.77112 10.9554C6.96161 10.613 7.48063 9.93943 7.55241 9.93943C7.59658 9.93943 7.72081 10.1078 7.78983 10.2624C7.86437 10.4336 7.84781 10.6683 7.7429 10.8919L7.6656 11.0548L7.92511 11.3005C8.06867 11.433 8.31161 11.6428 8.46621 11.7643C8.7837 12.0127 9.34965 12.3965 9.4021 12.3965C9.42143 12.3965 9.46284 12.3247 9.49597 12.2364C9.72235 11.6345 10.28 9.81244 10.2524 9.76826C10.2414 9.74894 10.1696 9.75446 10.0012 9.79035C9.96529 9.79587 9.92112 9.84556 9.88523 9.91734C9.85486 9.9836 9.78308 10.0664 9.72511 10.1051C9.63953 10.163 9.59259 10.1741 9.41039 10.1741C9.29167 10.1713 9.20057 10.1796 9.20333 10.1879C9.20885 10.1962 9.2337 10.2514 9.26131 10.3121C9.28891 10.3729 9.38554 10.5772 9.47388 10.7649C9.56223 10.9526 9.634 11.1238 9.634 11.1431C9.634 11.2646 9.41591 11.5821 9.34689 11.56C9.30272 11.5462 9.13707 11.3198 9.04321 11.1486C8.99904 11.0686 8.87204 10.8201 8.75885 10.5937C8.57664 10.2348 8.54351 10.1824 8.45793 10.1465C8.30333 10.083 8.04382 9.87041 7.66008 9.49219C7.46407 9.29894 7.2929 9.13882 7.28186 9.13882C7.25977 9.13882 6.8567 9.57777 6.71039 9.7655C6.46744 10.0747 6.3156 10.3811 6.09474 11.0134C6.04505 11.1569 5.98431 11.2867 5.9567 11.3005C5.92358 11.3226 5.82971 11.295 5.55088 11.179C5.3521 11.0962 5.18922 11.0161 5.19198 11.0023C5.19198 10.9857 5.261 10.9195 5.34934 10.8505C5.43493 10.7815 5.60885 10.6351 5.73309 10.5219C6.00364 10.2818 6.06437 10.1741 6.27143 9.54464C6.50609 8.82685 6.57511 8.52869 6.58891 8.15323C6.60272 7.82747 6.60548 7.81642 6.66897 7.80262C6.77388 7.77501 6.74904 7.7198 6.55855 7.54587C6.31836 7.32777 5.98155 7.15937 5.57296 7.05446C5.31069 6.98544 4.94904 6.93023 4.75578 6.93023C4.65364 6.93023 4.58186 6.91918 4.58186 6.90262C4.58186 6.88606 4.60118 6.82808 4.62327 6.77287C4.70609 6.57409 4.65916 6.55477 4.35824 6.6652C4.01867 6.78943 3.78953 6.96612 3.41959 7.38851C3.12695 7.72532 3.03861 7.79434 2.90333 7.79434C2.76806 7.79434 2.35118 7.66734 2.111 7.55139C1.76591 7.38575 1.69137 7.24771 1.74106 6.87501C1.77143 6.65691 1.8791 6.31182 1.96468 6.16826C2.03646 6.04679 2.17726 5.9971 2.60793 5.93912C3.0745 5.87839 3.1794 5.87839 3.39474 5.93636C3.83922 6.05783 4.07664 6.08544 4.361 6.04955C4.68401 6.00538 4.8745 5.95845 5.06499 5.8701C5.23339 5.7928 5.28032 5.72931 5.4791 5.26826C5.58124 5.0336 5.6475 4.92869 5.78554 4.77409C5.88216 4.66642 5.96223 4.56704 5.96223 4.55323C5.96223 4.52011 5.41008 4.52287 5.20302 4.55599C5.05671 4.58084 4.97664 4.62501 4.48523 4.95078C4.18155 5.15507 3.89167 5.33452 3.83922 5.35385C3.78677 5.37041 3.66529 5.38422 3.56867 5.38422C3.36437 5.38422 3.34229 5.35937 3.39198 5.18544C3.44167 5.02808 3.53554 4.95354 3.79229 4.87348C3.91376 4.83759 4.1291 4.7382 4.26437 4.65814C4.49075 4.52563 4.67848 4.429 4.89934 4.33238C4.95456 4.30753 5.17818 4.29096 5.59505 4.28268C5.93186 4.2744 6.21345 4.25784 6.2245 4.24679C6.23554 4.23575 6.17204 4.15845 6.0837 4.07563C5.99259 3.9928 5.84628 3.81336 5.75517 3.67532C5.57296 3.39925 5.58677 3.40477 5.29965 3.4655ZM1.60026 6.17103C1.60026 6.17931 1.53401 6.28974 1.45671 6.42225C1.31315 6.65691 1.31039 6.65968 1.21376 6.64587C1.16131 6.63759 1.09505 6.62379 1.0702 6.61274C1.03155 6.59894 1.02051 6.60722 1.02051 6.64587C1.02051 6.68452 1.06192 6.71765 1.15855 6.76182C1.31039 6.83084 1.32695 6.86673 1.24137 6.94403C1.18615 6.99372 1.18063 6.99372 1.06744 6.93851C0.907319 6.85845 0.716828 6.71489 0.716828 6.67348C0.716828 6.63483 0.868669 6.53544 1.26621 6.31734C1.54505 6.1655 1.60026 6.14066 1.60026 6.17103ZM5.24444 7.4244L5.36867 7.44372L5.27204 7.47685C5.11468 7.52931 4.83309 7.5652 4.5791 7.5652C4.18155 7.5652 3.80885 7.69219 3.78677 7.83575C3.77572 7.90753 3.93032 8.15323 4.09597 8.32716C4.18707 8.42102 4.21468 8.4652 4.18983 8.48176C4.09045 8.5425 3.74536 8.4652 3.56867 8.3382L3.44996 8.25538L3.28431 8.37961C3.09106 8.52041 2.87296 8.62808 2.72664 8.65569C2.66867 8.66673 2.62174 8.68606 2.62174 8.6971C2.62174 8.72195 2.86744 8.89035 2.90333 8.89035C2.91437 8.89035 2.92542 8.90139 2.92542 8.91796C2.92542 8.95937 2.70456 8.95109 2.54444 8.90415C2.38707 8.85722 2.22695 8.73299 2.16345 8.60875C2.0972 8.479 2.12756 8.44863 2.32082 8.44863C2.41192 8.44863 2.56376 8.42931 2.65487 8.40722C2.96959 8.3244 3.10486 8.24434 3.35885 7.99035C3.73155 7.61765 3.97726 7.47961 4.36652 7.42992C4.58462 7.39955 5.08155 7.39679 5.24444 7.4244ZM1.3656 7.579C1.54229 7.66458 1.71345 7.8744 1.72174 8.0152C1.7245 8.09802 1.71898 8.10354 1.61683 8.11182C1.47327 8.12287 1.39045 8.07593 1.30487 7.93237C1.20272 7.75569 1.14474 7.50998 1.20548 7.50998C1.211 7.50998 1.28278 7.54035 1.3656 7.579ZM5.72756 8.53698C5.71652 8.60323 5.6972 8.67777 5.68339 8.70262C5.66959 8.72747 5.65855 8.88759 5.65855 9.05599C5.65855 9.38176 5.63646 9.46182 5.51499 9.56949C5.43217 9.64679 5.28861 9.71857 5.21683 9.71857C5.15885 9.71857 5.14229 9.67992 5.18922 9.64955C5.20578 9.63851 5.24167 9.58329 5.27204 9.52532C5.37971 9.31274 5.41284 9.17471 5.40732 8.92072C5.40456 8.64741 5.42664 8.58943 5.58124 8.48452C5.72204 8.39066 5.74965 8.4017 5.72756 8.53698ZM4.90763 9.69372C5.12848 10.094 5.23339 10.1078 5.60333 9.79035C5.70272 9.70477 5.79106 9.63575 5.80486 9.63575C5.84351 9.63575 5.82419 9.75722 5.76345 9.87869C5.68891 10.0388 5.39075 10.3508 5.17266 10.5081C4.97388 10.6517 4.61499 10.8229 4.51836 10.8229C4.39137 10.8229 4.30579 10.6462 4.30579 10.3784C4.30579 10.2542 4.31683 10.2155 4.34444 10.2155C4.39413 10.2155 4.46039 10.2818 4.5156 10.3839L4.55701 10.4667L4.67296 10.395C4.73646 10.3563 4.80548 10.3121 4.82756 10.3011C4.86345 10.279 4.86069 10.2431 4.80824 10.0554C4.73922 9.80691 4.73646 9.77655 4.77511 9.67992C4.811 9.58606 4.84965 9.58882 4.90763 9.69372Z" />
<path d="M6.52009 4.52836C6.34617 4.60566 6.34617 4.64431 6.52009 4.82652C6.71611 5.03082 6.97561 5.38419 7.12469 5.64646C7.19095 5.75965 7.25169 5.85352 7.26273 5.85352C7.27101 5.85352 7.30138 5.77069 7.32623 5.66579C7.42561 5.28204 7.48911 5.12744 7.58574 5.01977C7.71273 4.87898 7.76795 4.85137 7.95015 4.83204L8.10199 4.81824L8.11028 4.69677L8.11856 4.57529L7.96672 4.59462C7.84249 4.60842 7.80936 4.6029 7.79003 4.56701C7.77071 4.53112 7.75966 4.53941 7.7293 4.60842C7.67684 4.73818 7.49463 4.88174 7.3566 4.90106C7.16058 4.93143 6.93144 4.79615 6.78788 4.56149C6.72163 4.45934 6.68298 4.45382 6.52009 4.52836Z" />
</svg>
