<svg width="15" height="16" viewBox="0 0 15 16" xmlns="http://www.w3.org/2000/svg">
<path d="M14.2774 12.0738L14.3573 11.914C14.6513 11.2085 14.3763 10.386 13.7153 9.99809C13.479 9.85913 13.2101 9.78564 12.9378 9.78564C12.3941 9.78564 11.8849 10.0767 11.6093 10.5456L11.5661 10.6133L10.72 12.08C10.6863 12.1514 10.6464 12.2204 10.6016 12.2853L10.5985 12.2907L10.5925 12.3014L10.5854 12.3112C10.5618 12.3446 10.5366 12.377 10.5103 12.408H13.3732C13.7863 12.4079 14.1062 12.2894 14.2774 12.0738Z"/>
<path d="M7.35348 15.9993L7.40057 15.9998L7.45464 15.9993C8.04369 15.9912 8.59197 15.8571 8.99872 15.622L13.2025 13.1953C13.3383 13.117 13.4723 13.0187 13.6024 12.9038C13.5282 12.9107 13.452 12.9141 13.3734 12.9141H10.0921H5.36501C5.28718 12.9129 5.21021 12.9055 5.13477 12.8921L6.56918 15.376C6.78843 15.756 7.06661 15.9768 7.35348 15.9993Z"/>
<path d="M2.02365 8.49561L0.596303 10.9685C0.377642 11.3473 0.325275 11.6982 0.448741 11.9574C0.4656 11.9875 0.483055 12.0175 0.500851 12.0474C0.801681 12.5526 1.19149 12.9604 1.59893 13.1958L5.80194 15.6222C5.93818 15.701 6.09017 15.7683 6.25425 15.8235C6.21125 15.7627 6.16995 15.6981 6.13062 15.6299L4.48972 12.788L4.19817 12.2831C4.15645 12.2228 4.11822 12.1567 4.08416 12.0862L2.21532 8.84829C2.14601 8.75454 2.08862 8.6539 2.04468 8.54959C2.03744 8.53179 2.03037 8.51374 2.02365 8.49561Z"/>
<path d="M1.79817 7.87277L2.05123 7.4351C2.09363 7.33693 2.14864 7.24173 2.21514 7.15148L4.08951 3.90442L4.19297 3.72587L4.20114 3.71148L4.20719 3.70083L4.21426 3.69095C4.23861 3.6563 4.26432 3.62292 4.29123 3.59082H2.71658H1.42777C0.991299 3.59082 0.661434 3.72067 0.498034 3.95679C0.479131 3.98846 0.461334 4.01954 0.443283 4.05122C0.157694 4.56305 0 5.10416 0 5.57299V10.4266C0 10.5839 0.0177102 10.7491 0.0520251 10.9184C0.0830192 10.8509 0.118271 10.7829 0.15744 10.7149L1.79817 7.87277Z"/>
<path d="M4.70902 3.08433H9.46678C9.53456 3.08731 9.60105 3.09447 9.66611 3.10613L8.23221 0.622436C8.01201 0.240886 7.73205 0.0200956 7.44407 0.000255955C7.44305 0.000255955 7.44186 0.000255955 7.44024 0.000255955C7.43156 0.000255955 7.41614 0 7.40056 0C7.38234 0 7.36421 0.000255674 7.34615 0.000766565C6.75582 0.00894082 6.20848 0.142709 5.80207 0.377379L1.59888 2.8042C1.46299 2.88287 1.32922 2.98054 1.19971 3.09455C1.27353 3.08783 1.34957 3.08442 1.42791 3.08442H4.70902V3.08433Z"/>
<path d="M10.311 3.21071L11.6122 5.48519C11.8872 5.95351 12.3991 6.24634 12.9459 6.24634C13.2194 6.24634 13.4897 6.17243 13.7271 6.03295C14.4623 5.60074 14.709 4.65116 14.2773 3.91625L14.214 3.81364C13.9293 3.37624 13.5688 3.01589 13.2018 2.80395L8.99856 0.377049C8.86267 0.298457 8.71093 0.231446 8.54736 0.17627C8.59011 0.236895 8.63115 0.301182 8.67032 0.368961L10.311 3.21071Z"/>
</svg>
