<svg width="21" height="16" viewBox="0 0 21 16" fill="none" xmlns="http://www.w3.org/2000/svg">
<path d="M18.4572 0.101485C16.6741 0.415326 15.729 0.782663 14.7446 1.54943C14.3737 1.84187 13.8745 2.34117 13.5677 2.7299C13.3966 2.94388 13.311 3.02591 13.2717 3.01164C12.2696 2.62291 11.4172 2.45886 10.4079 2.45886C9.2988 2.45886 8.32875 2.65501 7.3694 3.0687C7.19464 3.14717 7.04129 3.20779 7.02702 3.20779C7.01633 3.20779 6.94856 3.12933 6.8808 3.03661C6.14613 2.05586 5.10119 1.26056 3.98135 0.829024C3.21814 0.536582 1.49202 0.190644 0.946366 0.219175C0.397145 0.247706 0.307986 0.36183 0.275888 1.04301C0.261623 1.36041 0.21526 1.68852 0.140366 2.04872C0.00841054 2.68354 -0.0379523 3.56443 0.0333751 4.11365C0.272322 5.92893 1.27804 7.81554 2.8936 9.46677L3.17535 9.75208L3.22884 10.1658C3.60331 13.0224 5.81803 15.3299 8.82447 15.9932C8.92077 16.0146 8.91007 15.9968 8.69965 15.7685C7.95071 14.959 7.84016 14.0353 8.38224 13.1187C8.61406 12.7229 8.78168 12.5445 9.21677 12.2164C9.45572 12.0346 9.69467 11.8206 9.77313 11.7171C10.1797 11.1786 10.3152 10.4654 10.2403 9.24209C10.1904 8.38973 10.1904 7.64792 10.2403 7.40898C10.3223 7.02381 10.5898 6.67074 10.8395 6.61368C11.0071 6.57801 11.2425 6.7064 11.3994 6.92038C11.6455 7.25919 11.7132 7.62296 11.7703 8.93181C11.8238 10.1943 11.9129 10.6936 12.1697 11.2321C12.3231 11.5495 12.373 11.603 13.204 12.3912C13.6747 12.837 14.0563 13.4219 14.1776 13.8962C14.2489 14.1672 14.2418 14.6166 14.1633 14.9126C14.1312 15.0481 14.1098 15.1551 14.1241 15.1551C14.1705 15.1551 14.8017 14.7272 15.0514 14.5239C15.4401 14.21 16.0678 13.5467 16.3352 13.1651C16.4636 12.9832 16.5706 12.8227 16.5778 12.8049C16.5849 12.7871 16.4815 12.8085 16.3459 12.8548C16.0357 12.9618 15.5649 13.026 15.3081 12.9975C14.2311 12.8762 13.4001 12.2164 13.0649 11.2143C12.9757 10.9575 12.9686 10.8791 12.9686 10.4297C12.9686 9.97676 12.9757 9.90543 13.0685 9.64509C13.3003 8.97104 13.7425 8.46105 14.3595 8.15078C14.7874 7.94036 14.9765 7.89757 15.515 7.90113C15.9358 7.90113 16.0321 7.9154 16.2818 7.99743C16.4387 8.05092 16.6705 8.15078 16.7953 8.22567C17.0236 8.3612 17.4729 8.7642 17.6049 8.96035L17.6762 9.0602L17.9615 8.72853C19.4309 7.02737 20.2119 5.35475 20.3652 3.568C20.4116 3.05087 20.3724 2.57298 20.2226 1.79908C20.1584 1.47097 20.1013 1.02517 20.0835 0.750564C20.0585 0.276237 20.0585 0.272671 19.9444 0.172813C19.7162 -0.0340368 19.3346 -0.0518686 18.4572 0.101485ZM19.3667 1.34971C19.438 1.48524 19.3916 2.56941 19.2739 3.51093C19.1134 4.80909 18.7568 6.11795 18.3395 6.94891C18.1719 7.27702 17.5514 8.21854 17.5228 8.18644C17.5157 8.18288 17.4658 7.99386 17.4087 7.76918C17.0984 6.53878 16.5207 5.51167 15.6434 4.62364C15.3224 4.30267 14.9158 3.9603 14.5949 3.74275C14.495 3.67499 14.4165 3.60723 14.4201 3.58939C14.4237 3.57513 14.5735 3.44317 14.7482 3.29339C15.6862 2.50879 16.9451 1.84544 18.1577 1.4995C18.9744 1.26769 19.2989 1.22846 19.3667 1.34971ZM2.30159 1.49237C3.721 1.84187 5.10832 2.54088 6.14256 3.42891L6.34585 3.60366L5.98208 3.8747C5.32587 4.3633 4.68749 5.03377 4.24526 5.70425C3.83156 6.3355 3.43212 7.29129 3.31443 7.92967C3.28947 8.05805 3.26094 8.16505 3.24667 8.16505C3.19674 8.16505 2.70459 7.40541 2.53697 7.07017C2.01628 6.02522 1.66321 4.50952 1.53482 2.79766C1.48845 2.15571 1.48845 1.54587 1.53482 1.45671C1.58831 1.36041 1.79159 1.36755 2.30159 1.49237ZM7.07695 8.09372C7.96141 8.3184 8.68895 9.04594 8.92077 9.93753C8.9707 10.1265 8.99209 10.3298 8.99209 10.5723C8.99209 11.2856 8.75315 11.8634 8.23959 12.3769C7.97924 12.6373 7.87939 12.7122 7.59764 12.8477C7.11975 13.0759 6.84157 13.1366 6.34228 13.1152C5.63971 13.0831 5.12258 12.8584 4.63756 12.3734C4.33085 12.0667 4.14183 11.7635 4.00631 11.3569C3.91715 11.0966 3.91002 11.0253 3.91002 10.5545C3.91002 10.0873 3.92072 10.0124 4.00631 9.77348C4.16323 9.34195 4.33798 9.06377 4.65182 8.7535C4.98349 8.42539 5.36153 8.20428 5.78593 8.09372C6.14613 8.00099 6.71318 8.00099 7.07695 8.09372Z"/>
<path d="M6.26278 8.37869C5.46391 8.46785 4.78274 9.0563 4.55092 9.85874C4.46176 10.1547 4.4689 10.679 4.56519 10.9821C4.65078 11.2568 4.84337 11.5884 5.02525 11.7739C5.16434 11.9201 5.2107 11.9415 5.2107 11.8559C5.2107 11.6598 5.47818 11.5135 5.68146 11.5991C5.83482 11.6633 5.89188 11.7346 5.91328 11.9023C5.92754 12.0128 5.91328 12.0592 5.83838 12.1483C5.78489 12.209 5.75992 12.2696 5.77419 12.2803C5.87048 12.3409 6.25921 12.4087 6.4946 12.4087C8.30274 12.4051 9.21217 10.2368 7.93897 8.96715C7.47891 8.50708 6.91186 8.30737 6.26278 8.37869ZM7.37549 8.92078C7.54667 9.02421 7.6501 9.21679 7.6501 9.43077C7.64653 9.83734 7.31129 10.1155 6.90473 10.0406C6.65508 9.99426 6.42327 9.70182 6.42327 9.44147C6.42327 9.29882 6.53026 9.06344 6.63012 8.97428C6.8227 8.80309 7.14367 8.77813 7.37549 8.92078Z"/>
<path d="M15.0505 8.28995C14.4977 8.4433 13.9877 8.857 13.7559 9.3456C13.5812 9.70937 13.5384 9.94118 13.5598 10.3798C13.5812 10.8042 13.6525 11.0289 13.8736 11.3749L14.0163 11.5924L14.1125 11.5211C14.3907 11.3 14.7902 11.5888 14.6653 11.9205C14.6439 11.9811 14.6332 12.0382 14.6439 12.056C14.6511 12.0703 14.7509 12.1202 14.865 12.163C15.1183 12.2593 15.7174 12.295 16.0241 12.2308C16.5698 12.1202 17.1368 11.6709 17.3793 11.1573C17.6967 10.4904 17.6397 9.69867 17.2331 9.10308C16.9906 8.75358 16.6732 8.5075 16.2452 8.34345C15.9671 8.23646 15.3465 8.21149 15.0505 8.28995ZM16.4129 8.77854C16.6126 8.89267 16.7089 9.06385 16.7089 9.30993C16.7089 9.65944 16.4521 9.91265 16.1026 9.91265C15.7673 9.91265 15.4785 9.63091 15.4785 9.30637C15.4785 8.84987 16.0063 8.5503 16.4129 8.77854Z"/>
<path d="M10.911 13.3365C10.3189 13.4078 10.0586 13.5576 10.0586 13.8286C10.0586 13.9392 10.0871 13.9855 10.2654 14.1567C10.7433 14.6096 11.4459 14.8129 11.8739 14.6203C12.2091 14.467 12.662 13.957 12.662 13.7323C12.662 13.5255 12.3946 13.4113 11.7526 13.3365C11.396 13.2972 11.2569 13.2972 10.911 13.3365Z" />
</svg>
