<svg width="13" height="16"  viewBox="0 0 23 29" fill="black" xmlns="http://www.w3.org/2000/svg">
<path d="M13.4585 27.84V29C10.6754 29 8.07611 27.4601 6.13969 24.6645C4.25249 21.9433 3.21397 18.3338 3.21397 14.5C3.21397 10.6662 4.25249 7.05667 6.13969 4.3355C8.07511 1.54183 10.6744 0 13.4585 0V1.16C8.47384 1.16 4.41921 7.14463 4.41921 14.5C4.41921 21.8554 8.47384 27.84 13.4585 27.84ZM4.79284 3.86667H3.2652C3.14936 4.01876 3.03587 4.17503 2.92472 4.3355C1.03852 7.05667 0 10.671 0 14.5C0 18.329 1.03851 21.9433 2.92572 24.6645C3.03687 24.825 3.15036 24.9812 3.2662 25.1333H4.79384C2.61135 22.6973 1.20524 18.8384 1.20524 14.5C1.20524 10.1616 2.61135 6.30653 4.79284 3.86667ZM21.7435 19.3333H18.5296C18.0595 20.7563 17.3886 22.0081 16.571 23.0067H18.0455C18.5831 22.2182 19.0294 21.3754 19.3762 20.4933H21.2976C19.9708 23.518 17.6769 25.52 15.0655 25.52C10.9677 25.52 7.63319 20.5765 7.63319 14.5C7.63319 8.42353 10.9677 3.48 15.0655 3.48C17.9952 3.48 20.5333 6.00687 21.7435 9.66667H23C22.6125 8.35856 22.022 7.11428 21.2484 5.97593C19.6153 3.62017 17.4197 2.32 15.0655 2.32C12.7113 2.32 10.5157 3.61823 8.88262 5.97593C7.29974 8.26307 6.42795 11.2907 6.42795 14.5C6.42795 17.7093 7.29974 20.7389 8.88262 23.0241C10.5147 25.3837 12.7113 26.68 15.0655 26.68C17.4197 26.68 19.6153 25.3818 21.2484 23.0241C22.022 21.8857 22.6125 20.6414 23 19.3333H21.7435ZM18.5296 9.66667H19.786C19.4001 8.36528 18.8134 7.12704 18.0455 5.99333H16.5721C17.1905 6.7626 17.6995 7.60783 18.0856 8.50667H16.1633C15.8139 7.61804 15.3636 6.7693 14.8204 5.97593C14.6848 5.7826 14.5442 5.5941 14.4006 5.41333H12.8368C13.8904 6.4873 14.7451 7.9518 15.3156 9.66667H18.5296ZM12.8368 23.5867H14.4006C14.5442 23.4059 14.6848 23.2203 14.8204 23.0241C15.5941 21.8857 16.1846 20.6414 16.5721 19.3333H15.3156C14.7481 21.0501 13.8904 22.5146 12.8368 23.5867Z" />
</svg>
