<svg width="17" height="16" viewBox="0 0 17 16" fill="black" xmlns="http://www.w3.org/2000/svg">
<path d="M8.25806 0.869852C11.3813 0.869852 14.0281 2.87315 15.0074 5.64086C15.1133 5.98353 15.4045 6.24712 15.775 6.24712C16.1456 6.24712 16.5161 6.08896 16.5161 5.64086V1.08072C16.5161 0.474465 16.0132 0 15.4309 0H1.08519C0.502895 0 0 0.500824 0 1.08072V14.9193C0 15.5255 0.502895 16 1.08519 16H15.4045C16.0132 16 16.4897 15.4992 16.4897 14.9193V10.3591C16.4897 9.9374 16.1985 9.62109 15.775 9.62109C15.3515 9.62109 15.0868 9.9374 14.9545 10.3591C14.0281 13.1532 11.3813 15.1565 8.25806 15.1565C4.28784 15.1565 1.08519 11.9671 1.08519 8.01318C1.08519 4.05931 4.28784 0.869852 8.25806 0.869852Z" />
</svg>
