<svg width="17" height="19" viewBox="0 0 20 26" fill="none" xmlns="http://www.w3.org/2000/svg">
<path d="M4.29752 4.74846V6.01653C4.29752 6.53078 4.7144 6.94766 5.22865 6.94766H5.51515C5.87117 6.94766 6.15978 6.65905 6.15978 6.30303C6.15978 5.94701 6.44839 5.6584 6.80441 5.6584H13.3305C14.1933 5.6584 14.593 6.72977 13.941 7.29488C13.7728 7.44058 13.5582 7.52134 13.3357 7.52259L0.859504 7.59229H0.735497C0.675145 7.59229 0.614462 7.59983 0.555913 7.61447C0.427309 7.64662 0.308612 7.71343 0.214876 7.80716L0.166539 7.8555C0.104121 7.91792 0.0570928 7.99401 0.0291787 8.07775C0.00985265 8.13573 0 8.19645 0 8.25756V21.3635C0 21.4457 0.0132505 21.5274 0.0392416 21.6053C0.0607348 21.6698 0.0907286 21.7311 0.12843 21.7877L0.180921 21.8664C0.203503 21.9003 0.229374 21.9319 0.25816 21.9606L0.269841 21.9723C0.327948 22.0304 0.398423 22.0747 0.476011 22.1017C0.533838 22.1219 0.59465 22.1322 0.655897 22.1322H6.87879C7.43107 22.1322 7.87879 22.5799 7.87879 23.1322V25.2479C7.87879 25.4107 7.93157 25.569 8.0292 25.6992C8.07196 25.7562 8.1226 25.8068 8.17961 25.8496C8.30979 25.9472 8.46813 26 8.63086 26H8.70248C8.8652 26 9.02354 25.9472 9.15372 25.8496C9.21073 25.8068 9.26137 25.7562 9.30413 25.6992C9.40177 25.569 9.45455 25.4107 9.45455 25.2479V23.1322C9.45455 22.5799 9.90226 22.1322 10.4545 22.1322H10.696C11.24 22.1322 11.6842 22.5671 11.6958 23.111L11.7413 25.2507C11.7447 25.4119 11.7997 25.5695 11.8965 25.6985C11.9392 25.7555 11.9904 25.8068 12.0474 25.8496C12.1776 25.9472 12.3359 26 12.4986 26H12.6113C12.7474 26 12.8798 25.9559 12.9887 25.8742C13.0668 25.8156 13.1302 25.7397 13.1738 25.6523L13.1791 25.6419C13.2262 25.5477 13.2507 25.4438 13.2507 25.3385V22.8684C13.2507 22.4618 13.5803 22.1322 13.9869 22.1322C14.1591 22.1322 14.3259 22.0718 14.4582 21.9616L17.2617 19.6253L18.8409 18.2522C18.8863 18.2127 18.928 18.1692 18.9656 18.1222L18.9891 18.0928C19.1228 17.9257 19.1956 17.7181 19.1956 17.5042V17.4408C19.1956 17.278 19.1428 17.1197 19.0452 16.9895C19.0024 16.9325 18.9518 16.8819 18.8948 16.8391L18.7664 16.7428C18.7184 16.7068 18.6672 16.6752 18.6136 16.6484L18.5275 16.6053C18.448 16.5656 18.3636 16.5366 18.2764 16.5192L18.1467 16.4932C18.0821 16.4803 18.0164 16.4738 17.9506 16.4738H7.15978C6.6075 16.4738 6.15978 16.0261 6.15978 15.4738V10.8154C6.15978 10.3012 5.7429 9.8843 5.22865 9.8843C4.7144 9.8843 4.29752 10.3012 4.29752 10.8154V17.6198V17.8114C4.29752 17.8738 4.31205 17.9354 4.33997 17.9912C4.35929 18.0299 4.38472 18.0652 4.41528 18.0957L4.45811 18.1385C4.49421 18.1747 4.53379 18.2071 4.57628 18.2354L4.59056 18.2449C4.68103 18.3053 4.78119 18.3496 4.88668 18.3759L4.89475 18.378C4.9738 18.3977 5.05498 18.4077 5.13647 18.4077H5.3719H13.3417C14.2111 18.4077 14.6062 19.4936 13.94 20.0523C13.7723 20.1929 13.5605 20.27 13.3417 20.27H2.86226C2.30997 20.27 1.86226 19.8223 1.86226 19.27V10.3829C1.86226 9.83064 2.30998 9.38292 2.86226 9.38292H14.0846C14.3316 9.38292 14.5699 9.29148 14.7536 9.12621L18.0496 6.15978L18.9988 5.27383C19.0812 5.19691 19.1457 5.10275 19.1875 4.99808C19.2397 4.86779 19.255 4.7257 19.232 4.58729L19.218 4.50346C19.2031 4.41442 19.1751 4.32809 19.1347 4.24735L19.0952 4.16839C19.0215 4.02088 18.8961 3.90556 18.743 3.84431C18.6635 3.81249 18.5786 3.79614 18.4929 3.79614H14.2277C13.6845 3.79614 13.2406 3.36247 13.228 2.81939L13.1817 0.827545C13.1799 0.753579 13.17 0.680033 13.1521 0.608256L13.1074 0.429752L13.0876 0.370275C13.054 0.269557 12.9879 0.182904 12.8995 0.124014C12.8476 0.0894233 12.7895 0.0653328 12.7283 0.0531033L12.6182 0.0310878C12.5155 0.0105338 12.4098 0.00883019 12.3064 0.0260601L12.1481 0.0524474C12.0733 0.0649203 12.0042 0.100465 11.9506 0.154113C11.9106 0.194073 11.8805 0.242787 11.8626 0.296398L11.8182 0.429752L11.7764 0.596824C11.7566 0.676144 11.7466 0.757597 11.7466 0.839359V2.79614C11.7466 3.34843 11.2988 3.79614 10.7466 3.79614H10.4545C9.90226 3.79614 9.45455 3.34843 9.45455 2.79614V0.838943C9.45455 0.757457 9.44455 0.67628 9.42479 0.597227L9.42277 0.589163C9.3964 0.483675 9.35209 0.383505 9.29177 0.293032L9.2662 0.254665C9.24856 0.228204 9.22834 0.20355 9.20586 0.181062C9.13468 0.109887 9.04305 0.0627297 8.94376 0.0461819L8.80251 0.0226405C8.7127 0.00767152 8.62091 0.00915157 8.53162 0.0270086L8.45824 0.041686C8.36063 0.061208 8.27098 0.109186 8.20059 0.179573C8.17712 0.203051 8.15601 0.22879 8.1376 0.256417L8.11319 0.293032C8.05287 0.383505 8.00856 0.483674 7.98219 0.589163L7.98017 0.597228C7.96041 0.67628 7.95041 0.757457 7.95041 0.838943V2.79614C7.95041 3.34843 7.5027 3.79614 6.95041 3.79614H5.07184C4.98617 3.79614 4.90128 3.81249 4.82174 3.84431C4.66861 3.90556 4.54328 4.02088 4.46952 4.16839L4.40309 4.30125C4.33367 4.44011 4.29752 4.59322 4.29752 4.74846Z"/>
</svg>
