<svg width="18" height="20" viewBox="0 0 14 16" fill="none" xmlns="http://www.w3.org/2000/svg">
<path d="M0 13.6569C1.11882 14.7757 2.54428 15.5376 4.09613 15.8463C5.64798 16.155 7.25651 15.9965 8.71832 15.391C10.1801 14.7855 11.4296 13.7602 12.3086 12.4446C13.1877 11.129 13.6568 9.58225 13.6568 8C13.6568 6.41775 13.1877 4.87103 12.3086 3.55544C11.4296 2.23985 10.1801 1.21447 8.71832 0.608967C7.25651 0.00346629 5.64798 -0.15496 4.09613 0.153721C2.54428 0.462403 1.11882 1.22433 0 2.34315L2.8376 5.18074C3.39519 4.62315 4.10561 4.24342 4.87902 4.08958C5.65243 3.93574 6.45409 4.0147 7.18262 4.31646C7.91116 4.61823 8.53384 5.12926 8.97195 5.78492C9.41005 6.44059 9.64388 7.21144 9.64388 8C9.64388 8.78856 9.41005 9.55941 8.97195 10.2151C8.53384 10.8707 7.91116 11.3818 7.18262 11.6835C6.45409 11.9853 5.65243 12.0643 4.87902 11.9104C4.10561 11.7566 3.39519 11.3769 2.8376 10.8193L0 13.6569Z"/>
<path d="M7.65685 8C7.65685 9.10457 6.76142 10 5.65685 10C4.55228 10 3.65685 9.10457 3.65685 8C3.65685 6.89543 4.55228 6 5.65685 6C6.76142 6 7.65685 6.89543 7.65685 8Z"/>
</svg>
