<svg width="16" height="16" viewBox="0 0 16 16" xmlns="http://www.w3.org/2000/svg">
<path d="M7.99968 16C3.58867 16 0 12.4112 0 8H1.37839C1.37839 11.6513 4.34889 14.6219 8 14.6219L7.99968 16Z"/>
<path d="M16 8H14.6216C14.6219 4.34858 11.6514 1.37844 8 1.37844V0C12.4112 0 16 3.58866 16 8Z"/>
<path d="M10.9387 7.33233C10.7317 5.98654 9.59041 4.99219 8.16661 4.99219C6.71244 4.99219 5.52611 5.97275 5.22985 7.3325H3.96289V8.34738H5.17632C5.34169 9.91668 6.62146 11.0695 8.19059 11.0695C9.3963 11.0695 10.3747 10.5918 10.8052 9.80386L9.74248 9.12333C9.46807 9.57707 8.87096 9.86347 8.21424 9.86347C7.27112 9.86347 6.62639 9.2905 6.48319 8.34738H11.8803L12.2153 7.3325L10.9387 7.33233ZM8.09501 6.09066C8.89493 6.09066 9.5037 6.60385 9.57547 7.33233H6.53081C6.73379 6.56871 7.2951 6.09066 8.09501 6.09066Z"/>
</svg>
