<svg width="16" height="10" viewBox="0 0 16 10" xmlns="http://www.w3.org/2000/svg">
  <path d="M7.39932 0.0236148C6.70569 0.109227 5.93868 0.378293 5.38133 0.731224C4.57762 1.23965 3.97484 1.94202 3.48563 2.94141C3.31441 3.2891 3.25151 3.43761 2.96148 4.1557C2.62776 4.98736 2.52992 5.19004 2.32725 5.48356C2.03722 5.90114 1.72796 6.20166 0.953962 6.82016C0.721587 7.00536 0.476981 7.20629 0.408841 7.26744C0.125797 7.52253 0 7.71297 0 7.88769C0 8.07289 0.0995895 8.1917 0.314493 8.26333C0.44029 8.30352 0.464751 8.30527 0.891064 8.30527C1.14091 8.30352 1.53228 8.28954 1.78213 8.27207C2.64349 8.20917 3.29169 8.27556 3.82633 8.47998C4.04473 8.56385 4.28409 8.67392 4.82223 8.93775C5.93518 9.48461 6.47681 9.69078 7.14598 9.82357C7.48843 9.89171 7.68411 9.90918 8.08946 9.90918C8.50704 9.90743 8.66428 9.89171 9.0277 9.81483C10.5233 9.49859 11.7568 8.53939 12.4539 7.15212C12.5954 6.87083 12.6846 6.63146 12.6846 6.53362C12.6846 6.43054 12.6304 6.35366 12.5343 6.32221C12.3945 6.27504 12.3054 6.33794 12.1779 6.57555C11.9595 6.98439 11.5891 7.42643 11.2117 7.72869C10.6351 8.1917 9.93099 8.48523 9.19019 8.57608C8.998 8.59879 8.49131 8.59879 8.29039 8.57433C6.89963 8.41184 5.6731 7.49632 5.12798 6.20864C5.0878 6.11255 4.97947 5.81378 4.97947 5.79806C4.97947 5.76137 6.44885 5.12364 7.37311 4.76023C7.56006 4.6851 7.74177 4.61521 7.77497 4.60124C8.41094 4.34789 9.83315 3.8482 10.5093 3.64028C10.6246 3.60534 10.7504 3.5669 10.7889 3.55293C10.8273 3.5407 10.9461 3.50575 11.0509 3.4743C11.1575 3.4446 11.2903 3.40442 11.348 3.38694C11.7061 3.27687 12.4347 3.08992 12.4994 3.08992C12.536 3.08992 12.5692 3.1039 12.5937 3.13011C12.6531 3.19301 12.7859 3.61582 12.861 3.97225C12.896 4.13823 12.9082 4.17318 12.9571 4.22035C12.9903 4.25529 13.0305 4.27801 13.0567 4.27801C13.1493 4.27801 14.0054 3.79054 14.6099 3.39393C15.3211 2.92569 15.7893 2.50462 15.9483 2.19012C16.0584 1.96998 15.992 1.79701 15.7561 1.69218C15.5202 1.58909 14.9506 1.57162 14.3094 1.6485C13.4586 1.74983 12.3089 2.00317 11.1208 2.34737C10.9671 2.3928 10.8133 2.43822 10.7801 2.44696C9.71085 2.74922 7.80991 3.42538 6.45584 3.98273C6.31257 4.04214 6.15009 4.10678 6.09767 4.1295C5.90897 4.20637 5.38482 4.43351 5.11401 4.55581C4.962 4.62395 4.83271 4.67986 4.82922 4.67986C4.80825 4.67986 4.82747 4.29198 4.85892 4.0963C5.07557 2.72301 5.92295 1.61879 7.18092 1.06843C8.08946 0.670073 9.08186 0.633382 10.0428 0.961852C10.2507 1.03349 10.2577 1.03523 10.3293 1.01077C10.4691 0.961852 10.5268 0.794123 10.4482 0.664831C10.4202 0.621152 10.3643 0.584461 10.1826 0.497102C9.64445 0.236771 9.15175 0.0917549 8.57867 0.0236148C8.31485 -0.00783453 7.65266 -0.00783453 7.39932 0.0236148Z"/>
</svg>

