<svg width="16" height="16" viewBox="0 0 16 16" xmlns="http://www.w3.org/2000/svg">
  <path d="M0 0V16H16V0H0ZM5.5935 1.856H7.08943V3.392H5.5935V1.856ZM1.82114 1.856H3.38211V3.392H1.82114V1.856ZM3.31707 5.568V7.104H1.7561V5.568H3.31707ZM2.92683 14.016H2.27642V13.44H2.86179V14.016H2.92683ZM3.38211 10.944H1.82114V9.472H3.38211V10.944ZM6.69919 14.016H6.11382V13.44H6.69919V14.016ZM6.69919 10.432H6.11382V9.856H6.69919V10.432ZM7.15447 7.168H5.5935V5.632H7.15447V7.168ZM10.4715 14.016H9.88618V13.44H10.4715V14.016ZM10.4715 10.432H9.88618V9.856H10.4715V10.432ZM10.4715 6.656H9.88618V6.08H10.4715V6.656ZM10.9919 3.392H9.43089V1.856H10.9919V3.392ZM14.3089 14.016H13.7236V13.44H14.3089V14.016ZM14.3089 10.432H13.7236V9.856H14.3089V10.432ZM14.3089 6.656H13.7236V6.08H14.3089V6.656ZM14.3089 2.944H13.7236V2.368H14.3089V2.944Z" />
</svg>
