<svg width="26" height="13" viewBox="0 0 26 13" fill="none" xmlns="http://www.w3.org/2000/svg">

<path d="M17.1679 11.5845L16.8366 11.6396H16.8114C16.7871 11.6461 16.7624 11.6461 16.738 11.6522L16.6521 11.6644C12.3064 12.3765 8.6298 12.4686 5.41878 11.9527C4.55337 11.8116 3.28284 11.5723 2.19641 11.106C0.914518 10.5532 0.184558 9.8046 0.0308602 8.87755C-0.356019 6.61264 3.0018 4.79585 4.10647 4.20053C7.04051 2.61084 10.6558 1.46926 15.1548 0.708072C19.6538 -0.0531146 23.4472 -0.168692 26.7373 0.364585C28.8866 0.714155 31.7825 1.40802 32.126 3.43934C32.4695 5.47066 29.9657 7.07941 28.0504 8.11677C25.1902 9.66347 21.6916 10.7868 17.352 11.5476L17.266 11.5602C17.2417 11.5662 17.217 11.5662 17.1926 11.5723C17.1805 11.5845 17.174 11.5845 17.1679 11.5845ZM16.7936 11.4628H16.8058L17.1436 11.4016H17.1497C17.174 11.3955 17.1987 11.3955 17.2235 11.3894L17.309 11.3773C21.6243 10.6222 25.1042 9.50491 27.9523 7.96429C32.298 5.61219 32.0218 4.00547 31.9358 3.47746C31.5798 1.34152 27.9093 0.746193 26.7044 0.55762C23.433 0.0304258 19.664 0.140325 15.1836 0.901107C10.7033 1.66189 7.11351 2.79779 4.19042 4.37531C-0.153252 6.72538 0.122916 8.3313 0.20889 8.8593C0.571031 10.9952 4.24152 11.5845 5.44474 11.7812C8.63629 12.2966 12.2946 12.2045 16.6217 11.4924L16.7076 11.4803C16.7324 11.4742 16.7567 11.4742 16.7814 11.4681L16.7936 11.4628Z" />
<path d="M16.8485 10.7189C16.7626 10.7311 16.6705 10.7497 16.5724 10.7619C16.3882 10.7927 16.1794 10.8231 15.9523 10.86L15.928 10.8661C15.8298 10.8787 15.7252 10.8969 15.6149 10.9091C15.5168 10.9217 15.4121 10.9399 15.3018 10.9521H15.2836C15.1177 10.9768 14.9397 10.9951 14.7617 11.0198H14.7373L14.5102 11.0441C14.4486 11.0502 14.3813 11.0567 14.3196 11.0689H14.3075C12.914 11.2222 11.5883 11.3142 10.3738 11.3329C8.16443 11.3633 6.39022 11.1609 5.1136 10.7311C3.89213 10.3198 3.11269 9.6937 2.80571 8.87128C2.75303 8.73017 2.71405 8.58431 2.68932 8.43574C2.57861 7.79094 2.73839 7.15263 3.16176 6.54514C3.751 5.69798 4.86825 4.88772 6.48227 4.14519C7.99248 3.44564 9.90741 2.81342 12.1662 2.26068C13.5961 1.91111 14.7442 1.70226 15.3026 1.61182C15.8675 1.51368 17.0335 1.33565 18.482 1.18844C20.0782 1.02866 22.4104 0.881455 24.4791 1.08382C26.2529 1.25576 27.5785 1.65481 28.4127 2.27487C28.9959 2.71041 29.3519 3.25058 29.4566 3.89498C29.4817 4.04923 29.4919 4.20554 29.487 4.36175V4.36175C29.4627 5.23932 28.9407 6.0804 27.9403 6.85983C26.8786 7.68834 25.2702 8.46777 23.1651 9.16773C21.9988 9.5542 20.7161 9.90417 19.347 10.2172C19.3006 10.2303 19.2535 10.2406 19.2059 10.2481L18.7334 10.3523C18.6118 10.377 18.4942 10.4014 18.3774 10.4261L18.2606 10.4504C18.1933 10.4626 18.132 10.4752 18.0643 10.4873C17.9966 10.4995 17.9232 10.5182 17.8494 10.5303L17.733 10.5546C17.5059 10.5976 17.297 10.6358 17.1129 10.6714C17.0266 10.6881 16.9329 10.7067 16.8485 10.7189ZM14.7247 10.8406H14.7556C14.9275 10.8219 15.0995 10.7976 15.2649 10.7728H15.2836C15.3878 10.7607 15.492 10.7424 15.5966 10.7298C15.7013 10.7173 15.8112 10.6994 15.9097 10.6869L15.934 10.6808C16.1611 10.6439 16.3639 10.6135 16.548 10.5887C16.7443 10.5583 16.8976 10.5336 17.0943 10.4967C17.2784 10.4662 17.4868 10.4233 17.7139 10.3803L17.8307 10.3555C17.898 10.3434 17.9719 10.3312 18.0396 10.3125C18.1008 10.3004 18.1681 10.2882 18.2298 10.2756L18.3462 10.2513C18.463 10.2266 18.5793 10.2022 18.7022 10.1775L19.1751 10.0733C19.2241 10.0611 19.2671 10.0546 19.3162 10.0425C20.6788 9.73547 21.9554 9.37982 23.1156 8.99902C25.2025 8.30556 26.7922 7.5391 27.8357 6.72195C28.7931 5.97293 29.2903 5.18092 29.3146 4.35891C29.3199 4.21494 29.3097 4.07082 29.2842 3.92904C29.1861 3.33493 28.8556 2.83207 28.3081 2.42654C27.497 1.83121 26.2091 1.43825 24.4657 1.2728C22.4096 1.07611 20.0896 1.21724 18.5043 1.37702C17.0558 1.51814 15.8955 1.70144 15.3371 1.79431C14.7787 1.88718 13.6306 2.1013 12.2145 2.44317C9.99866 2.98334 8.04074 3.62813 6.56135 4.31551C4.97774 5.04547 3.88483 5.8314 3.31424 6.65382C2.92169 7.21873 2.77448 7.81405 2.87262 8.40938C2.89615 8.54781 2.9331 8.68363 2.98292 8.81491C3.27166 9.58826 4.00811 10.1775 5.18051 10.5705C6.43767 10.9938 8.18795 11.1901 10.379 11.1597C11.5956 11.1411 12.914 11.0555 14.3014 10.8957H14.3135C14.3774 10.8911 14.4409 10.8828 14.5037 10.871L14.7247 10.8406Z" />
<path d="M9.67429 8.9209L9.65604 8.91441H9.6386L9.65604 9.08636C9.71119 9.08028 9.76026 9.08028 9.81542 9.0742C9.95938 9.06318 10.1039 9.06088 10.2481 9.0673C10.0541 9.02989 9.8625 8.981 9.67429 8.9209V8.9209ZM11.6801 9.2141L11.7003 9.20964L11.6801 9.2141ZM11.7482 9.20356H11.7425V9.2141L11.7547 9.21167L11.7482 9.20356ZM29.4501 3.90607C29.3455 3.26168 28.9895 2.72151 28.4067 2.28394C27.5717 1.66388 26.246 1.26524 24.473 1.09329C22.4048 0.890524 20.0722 1.03814 18.476 1.19751C17.0274 1.34472 15.8615 1.52194 15.2966 1.62089C14.7382 1.71295 13.5905 1.9218 12.1602 2.27177C9.90139 2.82411 7.98646 3.45634 6.47666 4.15588C4.86141 4.90044 3.74417 5.71151 3.15493 6.55745C2.73155 7.16575 2.57177 7.80366 2.68248 8.44805C2.70117 8.55957 2.72828 8.66952 2.76359 8.77694C2.77494 8.81344 2.78752 8.84872 2.80009 8.884L2.82645 8.95091C3.15087 9.74008 3.92139 10.3435 5.10798 10.7438C6.385 11.1732 8.15881 11.376 10.3682 11.3452H10.4042L10.429 11.3144C10.7473 10.9774 11.09 10.629 11.4331 10.3318C11.44 10.3257 11.4473 10.32 11.4538 10.3139L11.6444 10.1485H11.3491C9.71038 10.1643 8.38875 10.0175 7.42317 9.70237L7.41465 9.69993L7.42601 9.69547C8.27398 9.35442 8.97677 9.16503 9.62441 9.09204H9.62806C10.1013 9.24006 10.6824 9.33536 11.3609 9.37591C10.9622 9.35482 10.5654 9.30576 10.1735 9.22911C10.1021 9.21451 10.0328 9.1991 9.96465 9.18288C9.93626 9.17639 9.90828 9.16909 9.87989 9.1622C9.79879 9.13989 9.71971 9.11718 9.64347 9.09326L9.62522 9.0892H9.61914C9.50315 9.05189 9.39244 9.01053 9.28903 8.96754C8.65721 9.07217 7.96131 9.28386 7.1397 9.63018L6.93978 9.71615L6.9268 9.72183H6.92477L7.1397 9.80294C8.10325 10.1651 9.45976 10.3492 11.1662 10.3431C10.8779 10.601 10.6017 10.8894 10.3377 11.1655C8.16489 11.1964 6.43407 10.9936 5.18179 10.5763C4.05197 10.1975 3.32688 9.63667 3.01745 8.90387C3.00569 8.8767 2.99474 8.84831 2.9842 8.82074C2.97366 8.79316 2.9623 8.76072 2.95257 8.7299C2.91846 8.62727 2.89216 8.5222 2.87389 8.41561C2.77575 7.82028 2.92296 7.22496 3.31593 6.66046C3.88651 5.83763 4.97861 5.05211 6.56263 4.32175C8.04202 3.63234 9.99993 2.98997 12.2158 2.4498C13.6351 2.10591 14.7816 1.89098 15.3384 1.80095C15.8952 1.71092 17.057 1.52478 18.5056 1.38365C20.0872 1.22428 22.4093 1.08275 24.4669 1.27943C26.2107 1.44489 27.4991 1.83785 28.309 2.43317C28.8552 2.83871 29.187 3.34157 29.2851 3.93689C29.3107 4.07866 29.3211 4.22278 29.3159 4.36676C29.2912 5.18918 28.794 5.98119 27.8365 6.7298C26.7992 7.54087 25.2216 8.30733 23.1534 8.99471C22.8095 8.81668 22.4413 8.63257 22.0731 8.47319C23.6749 7.90829 24.8964 7.29471 25.7067 6.64383L25.8847 6.49662L25.8478 6.49459L25.6531 6.47797C24.5116 6.40416 23.6583 6.4654 22.9766 6.66208L22.958 6.66816L22.9397 6.68033C22.5407 6.9642 22.0252 7.23875 21.4052 7.4914L21.3192 7.52222C21.1533 7.58954 20.9757 7.65726 20.7977 7.7185L20.687 7.7554C20.6876 7.74872 20.6887 7.74208 20.6902 7.73553C20.6975 7.69254 20.7036 7.64955 20.7085 7.60697C20.741 7.36114 20.7546 7.11317 20.749 6.86525C20.749 6.8247 20.7462 6.78658 20.7437 6.74765C20.7413 6.70872 20.7397 6.66654 20.7364 6.62842C20.7332 6.5903 20.73 6.54731 20.7263 6.50676C20.7227 6.46621 20.7174 6.42565 20.7121 6.3851C20.7048 6.33157 20.6967 6.27804 20.6874 6.22289C20.678 6.16773 20.6655 6.11623 20.6549 6.06351C20.6501 6.03634 20.6444 6.00998 20.6383 5.98241C20.5459 5.5634 20.3929 5.16011 20.1841 4.78527C20.1132 4.65736 20.0359 4.53311 19.9525 4.41299C19.927 4.37609 19.901 4.33878 19.8743 4.30228C19.8475 4.26578 19.8289 4.24023 19.8053 4.21022C19.7818 4.18021 19.7546 4.14534 19.7287 4.1133C19.4407 3.76123 19.1018 3.45398 18.7234 3.20166C18.4253 3.00093 18.1037 2.8375 17.7659 2.71502C17.0654 2.4618 16.3136 2.38383 15.576 2.48792C15.5041 2.49528 15.4326 2.50652 15.3619 2.52158C15.3554 2.52101 15.3488 2.52212 15.3428 2.52483C14.6113 2.6705 13.9265 2.99279 13.348 3.46364C13.0816 3.67602 12.8421 3.92005 12.6347 4.19035L12.6168 4.21266C12.4775 4.39414 12.3517 4.58567 12.2405 4.78568C12.2186 4.82623 12.1971 4.86678 12.1768 4.90734C12.1594 4.93897 12.1436 4.97182 12.1282 5.00466C12.1128 5.03751 12.1014 5.05982 12.0876 5.0882C12.0267 5.22248 11.9726 5.35972 11.9254 5.49941V5.50266C11.9124 5.53997 11.9003 5.57809 11.8877 5.6154C11.8751 5.65271 11.865 5.69083 11.854 5.72895C11.8459 5.75774 11.8374 5.78734 11.8301 5.81695C11.8293 5.82261 11.8279 5.82817 11.8261 5.83357C11.8227 5.84299 11.82 5.85261 11.8179 5.86237C11.811 5.88792 11.805 5.91428 11.7989 5.94064C11.7976 5.94362 11.7968 5.94676 11.7964 5.94996C11.7967 5.95282 11.796 5.95569 11.7944 5.95807C11.7896 5.97875 11.7855 5.99863 11.781 6.02012C11.7766 6.04161 11.7729 6.05743 11.7693 6.07649C11.7616 6.11704 11.7539 6.1576 11.7474 6.19572C11.732 6.28453 11.7186 6.37375 11.7068 6.46256C11.7032 6.49257 11.7003 6.52339 11.6979 6.5538C11.6943 6.59436 11.691 6.63491 11.6886 6.67546C11.677 6.85748 11.6763 7.04003 11.6865 7.22212C11.6906 7.29512 11.6959 7.36893 11.704 7.44192C11.7046 7.45796 11.7062 7.47394 11.7089 7.48977C11.7162 7.54128 11.7235 7.59035 11.7308 7.63901C11.7328 7.64955 11.734 7.65969 11.736 7.66983V7.6751L11.7397 7.69984C11.7393 7.70185 11.7393 7.70392 11.7397 7.70592C11.7406 7.71587 11.7421 7.72575 11.7441 7.73553C11.747 7.75702 11.7506 7.77608 11.7551 7.7992C11.7945 8.01063 11.8487 8.21905 11.9173 8.42291C12.0087 8.69554 12.1268 8.95851 12.2697 9.20802V9.20802C12.2936 9.24857 12.3192 9.29278 12.3447 9.33576L12.3719 9.37997H12.3399L12.1184 9.39051H12.1286C12.1809 9.39051 12.232 9.39051 12.2823 9.38767C12.3026 9.38767 12.3228 9.38767 12.3431 9.38767H12.4242L12.5836 9.38159V9.37956L12.4988 9.24655C12.4899 9.23195 12.4806 9.21694 12.4721 9.20153C12.194 8.74071 12.0049 8.23171 11.9149 7.70106C11.9023 7.61995 11.8901 7.54736 11.884 7.46747C11.8792 7.42448 11.8747 7.3819 11.8711 7.33892C11.8377 6.96594 11.8545 6.59019 11.9209 6.22167C12.04 5.52826 12.3268 4.87447 12.7563 4.31728C12.816 4.24185 12.878 4.16764 12.9417 4.09586C13.0991 3.91622 13.2712 3.75005 13.4563 3.59908C14.0124 3.14941 14.6697 2.84182 15.3712 2.70285L15.3891 2.70002L15.4815 2.6846L15.5922 2.66595C16.3015 2.56617 17.0243 2.64206 17.6974 2.88697C18.0197 3.00304 18.3267 3.15772 18.6118 3.34765C19.5445 3.96529 20.2022 4.91971 20.4473 6.0112C20.4595 6.08501 20.4781 6.15881 20.4903 6.2383C20.5257 6.44118 20.5461 6.64639 20.5515 6.85228C20.558 7.17463 20.5296 7.49675 20.4668 7.81299C20.4654 7.82668 20.463 7.84024 20.4595 7.85354L20.4286 8.01332L20.5823 7.96384L20.6456 7.94235C20.7141 7.91924 20.7798 7.89531 20.8484 7.87179C21.0325 7.81055 21.2044 7.74323 21.3756 7.67551L21.4615 7.64469C22.0836 7.38636 22.6064 7.11019 23.0163 6.82145C23.6299 6.64951 24.4033 6.58827 25.3855 6.63126L25.3782 6.63694C24.5558 7.25497 23.3428 7.8361 21.7762 8.36816L21.537 8.44927H21.5394L21.7701 8.54011C21.7769 8.54239 21.7836 8.5451 21.79 8.54822C22.2367 8.72759 22.6731 8.93134 23.0975 9.15855L23.1344 9.1768H23.1591C25.2642 8.47725 26.8726 7.69781 27.9343 6.8689C28.9347 6.08947 29.4566 5.24677 29.481 4.37081C29.4857 4.21527 29.4754 4.05963 29.4501 3.90607V3.90607ZM11.7474 9.20437H11.7425V9.21492L11.7547 9.21248L11.7474 9.20437ZM11.7011 9.21248L11.6797 9.21654L11.7011 9.21248ZM11.6934 9.39497H11.702C11.7364 9.39497 11.7713 9.3974 11.807 9.39781H11.8881C11.8163 9.39781 11.7445 9.39376 11.6776 9.39051C11.6596 9.39086 11.6416 9.39018 11.6237 9.38848H11.5941L11.6934 9.39497ZM9.63779 8.91523L9.65523 9.08717C9.71038 9.08109 9.75945 9.08109 9.8146 9.07501C9.95857 9.06399 10.1031 9.06169 10.2473 9.06811C10.0535 9.03047 9.8622 8.98131 9.67429 8.9209L9.65604 8.91441L9.63779 8.91523ZM9.67348 8.92171L9.65523 8.91523H9.63779L9.65523 9.08717C9.71038 9.08109 9.75945 9.08109 9.8146 9.07501C9.95857 9.06399 10.1031 9.06169 10.2473 9.06811C10.0535 9.03047 9.8622 8.98131 9.67429 8.9209L9.67348 8.92171ZM11.6792 9.21573L11.6995 9.21126L11.6792 9.21573ZM11.7474 9.20518H11.7425V9.21573L11.7547 9.21329L11.7474 9.20518ZM11.7478 9.20478H11.7425V9.21532L11.7547 9.21289L11.7478 9.20478ZM11.6797 9.21492L11.6999 9.21045L11.6797 9.21492ZM9.67429 8.9209L9.65604 8.91441H9.6386L9.65604 9.08636C9.71119 9.08028 9.76026 9.08028 9.81542 9.0742C9.95938 9.06318 10.1039 9.06088 10.2481 9.0673C10.0541 9.02989 9.8625 8.981 9.67429 8.9209V8.9209Z" />
<path d="M9.67429 8.9209L9.65604 8.91441H9.6386L9.65604 9.08636C9.71119 9.08028 9.76026 9.08028 9.81542 9.0742C9.95938 9.06318 10.1039 9.06088 10.2481 9.0673C10.0541 9.02989 9.8625 8.981 9.67429 8.9209V8.9209ZM11.6801 9.2141L11.7003 9.20964L11.6801 9.2141ZM11.7482 9.20356H11.7425V9.2141L11.7547 9.21167L11.7482 9.20356ZM29.4501 3.90607C29.3455 3.26168 28.9895 2.72151 28.4067 2.28394C27.5717 1.66388 26.246 1.26524 24.473 1.09329C22.4048 0.890524 20.0722 1.03814 18.476 1.19751C17.0274 1.34472 15.8615 1.52194 15.2966 1.62089C14.7382 1.71295 13.5905 1.9218 12.1602 2.27177C9.90139 2.82411 7.98646 3.45634 6.47666 4.15588C4.86141 4.90044 3.74417 5.71151 3.15493 6.55745C2.73155 7.16575 2.57177 7.80366 2.68248 8.44805C2.70117 8.55957 2.72828 8.66952 2.76359 8.77694C2.77494 8.81344 2.78752 8.84872 2.80009 8.884L2.82645 8.95091C3.15087 9.74008 3.92139 10.3435 5.10798 10.7438C6.385 11.1732 8.15881 11.376 10.3682 11.3452H10.4042L10.429 11.3144C10.7473 10.9774 11.09 10.629 11.4331 10.3318C11.44 10.3257 11.4473 10.32 11.4538 10.3139L11.6444 10.1485H11.3491C9.71038 10.1643 8.38875 10.0175 7.42317 9.70237L7.41465 9.69993L7.42601 9.69547C8.27398 9.35442 8.97677 9.16503 9.62441 9.09204H9.62806C10.1013 9.24006 10.6824 9.33536 11.3609 9.37591C10.9622 9.35482 10.5654 9.30576 10.1735 9.22911C10.1021 9.21451 10.0328 9.1991 9.96465 9.18288C9.93626 9.17639 9.90828 9.16909 9.87989 9.1622C9.79879 9.13989 9.71971 9.11718 9.64347 9.09326L9.62522 9.0892H9.61914C9.50315 9.05189 9.39244 9.01053 9.28903 8.96754C8.65721 9.07217 7.96131 9.28386 7.1397 9.63018L6.93978 9.71615L6.9268 9.72183H6.92477L7.1397 9.80294C8.10325 10.1651 9.45976 10.3492 11.1662 10.3431C10.8779 10.601 10.6017 10.8894 10.3377 11.1655C8.16489 11.1964 6.43407 10.9936 5.18179 10.5763C4.05197 10.1975 3.32688 9.63667 3.01745 8.90387C3.00569 8.8767 2.99474 8.84831 2.9842 8.82074C2.97366 8.79316 2.9623 8.76072 2.95257 8.7299C2.91846 8.62727 2.89216 8.5222 2.87389 8.41561C2.77575 7.82028 2.92296 7.22496 3.31593 6.66046C3.88651 5.83763 4.97861 5.05211 6.56263 4.32175C8.04202 3.63234 9.99993 2.98997 12.2158 2.4498C13.6351 2.10591 14.7816 1.89098 15.3384 1.80095C15.8952 1.71092 17.057 1.52478 18.5056 1.38365C20.0872 1.22428 22.4093 1.08275 24.4669 1.27943C26.2107 1.44489 27.4991 1.83785 28.309 2.43317C28.8552 2.83871 29.187 3.34157 29.2851 3.93689C29.3107 4.07866 29.3211 4.22278 29.3159 4.36676C29.2912 5.18918 28.794 5.98119 27.8365 6.7298C26.7992 7.54087 25.2216 8.30733 23.1534 8.99471C22.8095 8.81668 22.4413 8.63257 22.0731 8.47319C23.6749 7.90829 24.8964 7.29471 25.7067 6.64383L25.8847 6.49662L25.8478 6.49459L25.6531 6.47797C24.5116 6.40416 23.6583 6.4654 22.9766 6.66208L22.958 6.66816L22.9397 6.68033C22.5407 6.9642 22.0252 7.23875 21.4052 7.4914L21.3192 7.52222C21.1533 7.58954 20.9757 7.65726 20.7977 7.7185L20.687 7.7554C20.6876 7.74872 20.6887 7.74208 20.6902 7.73553C20.6975 7.69254 20.7036 7.64955 20.7085 7.60697C20.741 7.36114 20.7546 7.11317 20.749 6.86525C20.749 6.8247 20.7462 6.78658 20.7437 6.74765C20.7413 6.70872 20.7397 6.66654 20.7364 6.62842C20.7332 6.5903 20.73 6.54731 20.7263 6.50676C20.7227 6.46621 20.7174 6.42565 20.7121 6.3851C20.7048 6.33157 20.6967 6.27804 20.6874 6.22289C20.678 6.16773 20.6655 6.11623 20.6549 6.06351C20.6501 6.03634 20.6444 6.00998 20.6383 5.98241C20.5459 5.5634 20.3929 5.16011 20.1841 4.78527C20.1132 4.65736 20.0359 4.53311 19.9525 4.41299C19.927 4.37609 19.901 4.33878 19.8743 4.30228C19.8475 4.26578 19.8289 4.24023 19.8053 4.21022C19.7818 4.18021 19.7546 4.14534 19.7287 4.1133C19.4407 3.76123 19.1018 3.45398 18.7234 3.20166C18.4253 3.00093 18.1037 2.8375 17.7659 2.71502C17.0654 2.4618 16.3136 2.38383 15.576 2.48792C15.5041 2.49528 15.4326 2.50652 15.3619 2.52158C15.3554 2.52101 15.3488 2.52212 15.3428 2.52483C14.6113 2.6705 13.9265 2.99279 13.348 3.46364C13.0816 3.67602 12.8421 3.92005 12.6347 4.19035L12.6168 4.21266C12.4775 4.39414 12.3517 4.58567 12.2405 4.78568C12.2186 4.82623 12.1971 4.86678 12.1768 4.90734C12.1594 4.93897 12.1436 4.97182 12.1282 5.00466C12.1128 5.03751 12.1014 5.05982 12.0876 5.0882C12.0267 5.22248 11.9726 5.35972 11.9254 5.49941V5.50266C11.9124 5.53997 11.9003 5.57809 11.8877 5.6154C11.8751 5.65271 11.865 5.69083 11.854 5.72895C11.8459 5.75774 11.8374 5.78734 11.8301 5.81695C11.8293 5.82261 11.8279 5.82817 11.8261 5.83357C11.8227 5.84299 11.82 5.85261 11.8179 5.86237C11.811 5.88792 11.805 5.91428 11.7989 5.94064C11.7976 5.94362 11.7968 5.94676 11.7964 5.94996C11.7967 5.95282 11.796 5.95569 11.7944 5.95807C11.7896 5.97875 11.7855 5.99863 11.781 6.02012C11.7766 6.04161 11.7729 6.05743 11.7693 6.07649C11.7616 6.11704 11.7539 6.1576 11.7474 6.19572C11.732 6.28453 11.7186 6.37375 11.7068 6.46256C11.7032 6.49257 11.7003 6.52339 11.6979 6.5538C11.6943 6.59436 11.691 6.63491 11.6886 6.67546C11.677 6.85748 11.6763 7.04003 11.6865 7.22212C11.6906 7.29512 11.6959 7.36893 11.704 7.44192C11.7046 7.45796 11.7062 7.47394 11.7089 7.48977C11.7162 7.54128 11.7235 7.59035 11.7308 7.63901C11.7328 7.64955 11.734 7.65969 11.736 7.66983V7.6751L11.7397 7.69984C11.7393 7.70185 11.7393 7.70392 11.7397 7.70592C11.7406 7.71587 11.7421 7.72575 11.7441 7.73553C11.747 7.75702 11.7506 7.77608 11.7551 7.7992C11.7945 8.01063 11.8487 8.21905 11.9173 8.42291C12.0087 8.69554 12.1268 8.95851 12.2697 9.20802V9.20802C12.2936 9.24857 12.3192 9.29278 12.3447 9.33576L12.3719 9.37997H12.3399L12.1184 9.39051H12.1286C12.1809 9.39051 12.232 9.39051 12.2823 9.38767C12.3026 9.38767 12.3228 9.38767 12.3431 9.38767H12.4242L12.5836 9.38159V9.37956L12.4988 9.24655C12.4899 9.23195 12.4806 9.21694 12.4721 9.20153C12.194 8.74071 12.0049 8.23171 11.9149 7.70106C11.9023 7.61995 11.8901 7.54736 11.884 7.46747C11.8792 7.42448 11.8747 7.3819 11.8711 7.33892C11.8377 6.96594 11.8545 6.59019 11.9209 6.22167C12.04 5.52826 12.3268 4.87447 12.7563 4.31728C12.816 4.24185 12.878 4.16764 12.9417 4.09586C13.0991 3.91622 13.2712 3.75005 13.4563 3.59908C14.0124 3.14941 14.6697 2.84182 15.3712 2.70285L15.3891 2.70002L15.4815 2.6846L15.5922 2.66595C16.3015 2.56617 17.0243 2.64206 17.6974 2.88697C18.0197 3.00304 18.3267 3.15772 18.6118 3.34765C19.5445 3.96529 20.2022 4.91971 20.4473 6.0112C20.4595 6.08501 20.4781 6.15881 20.4903 6.2383C20.5257 6.44118 20.5461 6.64639 20.5515 6.85228C20.558 7.17463 20.5296 7.49675 20.4668 7.81299C20.4654 7.82668 20.463 7.84024 20.4595 7.85354L20.4286 8.01332L20.5823 7.96384L20.6456 7.94235C20.7141 7.91924 20.7798 7.89531 20.8484 7.87179C21.0325 7.81055 21.2044 7.74323 21.3756 7.67551L21.4615 7.64469C22.0836 7.38636 22.6064 7.11019 23.0163 6.82145C23.6299 6.64951 24.4033 6.58827 25.3855 6.63126L25.3782 6.63694C24.5558 7.25497 23.3428 7.8361 21.7762 8.36816L21.537 8.44927H21.5394L21.7701 8.54011C21.7769 8.54239 21.7836 8.5451 21.79 8.54822C22.2367 8.72759 22.6731 8.93134 23.0975 9.15855L23.1344 9.1768H23.1591C25.2642 8.47725 26.8726 7.69781 27.9343 6.8689C28.9347 6.08947 29.4566 5.24677 29.481 4.37081C29.4857 4.21527 29.4754 4.05963 29.4501 3.90607V3.90607ZM11.7474 9.20437H11.7425V9.21492L11.7547 9.21248L11.7474 9.20437ZM11.7011 9.21248L11.6797 9.21654L11.7011 9.21248ZM11.6934 9.39497H11.702C11.7364 9.39497 11.7713 9.3974 11.807 9.39781H11.8881C11.8163 9.39781 11.7445 9.39376 11.6776 9.39051C11.6596 9.39086 11.6416 9.39018 11.6237 9.38848H11.5941L11.6934 9.39497ZM9.63779 8.91523L9.65523 9.08717C9.71038 9.08109 9.75945 9.08109 9.8146 9.07501C9.95857 9.06399 10.1031 9.06169 10.2473 9.06811C10.0535 9.03047 9.8622 8.98131 9.67429 8.9209L9.65604 8.91441L9.63779 8.91523ZM9.67348 8.92171L9.65523 8.91523H9.63779L9.65523 9.08717C9.71038 9.08109 9.75945 9.08109 9.8146 9.07501C9.95857 9.06399 10.1031 9.06169 10.2473 9.06811C10.0535 9.03047 9.8622 8.98131 9.67429 8.9209L9.67348 8.92171ZM11.6792 9.21573L11.6995 9.21126L11.6792 9.21573ZM11.6792 9.21573L11.6995 9.21126L11.6792 9.21573ZM9.67429 8.9209L9.65604 8.91441H9.6386L9.65604 9.08636C9.71119 9.08028 9.76026 9.08028 9.81542 9.0742C9.95938 9.06318 10.1039 9.06088 10.2481 9.0673C10.0541 9.02989 9.8625 8.981 9.67429 8.9209V8.9209Z" />
<path d="M11.6939 9.1995L11.6618 9.20437H11.6549C11.5422 9.20072 11.4311 9.19585 11.3232 9.18896C11.1856 9.18084 11.0523 9.17003 10.9233 9.15651C10.7092 9.13543 10.5073 9.10717 10.3175 9.07176C10.0958 9.03235 9.87699 8.97816 9.66254 8.90954L9.64389 8.90346H9.62564C9.50763 8.91644 9.38799 8.93347 9.26593 8.95496C8.64465 9.06081 7.96335 9.27006 7.15715 9.60382C6.3254 9.28953 5.80186 8.8333 5.59788 8.2465C5.58693 8.21446 5.57638 8.18202 5.56705 8.14876C5.55773 8.11551 5.55246 8.09199 5.54637 8.0636C5.53826 8.02548 5.53177 7.98817 5.52447 7.95248C5.4385 7.44922 5.57354 6.95203 5.92311 6.47958L5.94785 6.44876C6.42638 5.82262 7.28611 5.22121 8.51366 4.66442C9.17722 4.36717 9.85703 4.10763 10.5498 3.88701C11.3074 3.64044 12.1379 3.40888 13.0187 3.1976C13.4105 3.10433 13.769 3.0216 14.0942 2.95428C14.11 2.95063 14.1258 2.94739 14.1421 2.94455C13.8578 3.08867 13.5901 3.26356 13.344 3.46606C13.075 3.6807 12.8334 3.92748 12.6246 4.20089C12.6209 4.20495 12.6173 4.21022 12.6136 4.21508C12.5548 4.29092 12.4988 4.36919 12.4461 4.44867C12.225 4.77734 12.0485 5.13395 11.9214 5.50914V5.50914C11.9084 5.54645 11.8962 5.58457 11.8836 5.62188C11.8711 5.65919 11.8609 5.69731 11.85 5.73543C11.8451 5.75192 11.8407 5.76895 11.8366 5.78653C11.8334 5.79869 11.8297 5.81086 11.8261 5.82343C11.8252 5.82909 11.8239 5.83466 11.822 5.84006C11.8187 5.84947 11.816 5.85909 11.8139 5.86885C11.807 5.8944 11.8009 5.92076 11.7948 5.94712C11.7936 5.9501 11.7928 5.95324 11.7924 5.95645C11.7927 5.9593 11.792 5.96218 11.7904 5.96456C11.7855 5.98524 11.7815 6.00511 11.777 6.0266C11.7725 6.0481 11.7689 6.06391 11.7652 6.08297C11.7644 6.08942 11.763 6.0958 11.7612 6.10203C11.7543 6.13326 11.7486 6.16448 11.7433 6.19571C11.7271 6.28614 11.7145 6.37739 11.7028 6.46904C11.6991 6.49905 11.6963 6.52987 11.6939 6.56029C11.6902 6.60084 11.687 6.64139 11.6845 6.68195C11.6729 6.86396 11.6722 7.04651 11.6825 7.22861C11.687 7.3016 11.6926 7.3746 11.7003 7.448C11.7008 7.46161 11.7023 7.47517 11.7048 7.48855C11.7121 7.54208 11.7202 7.59277 11.7275 7.64306C11.727 7.6488 11.7281 7.65457 11.7308 7.65969C11.7343 7.68483 11.7379 7.70957 11.7417 7.7339C11.7502 7.78865 11.76 7.84339 11.7717 7.89611C11.7723 7.90145 11.7732 7.90674 11.7746 7.91193C11.7815 7.94234 11.7883 7.97235 11.7948 8.00155C11.8228 8.11875 11.8532 8.22946 11.8865 8.3349C11.895 8.36369 11.9043 8.39208 11.9137 8.42047C11.923 8.44886 11.9368 8.48779 11.9489 8.52145C11.9611 8.55511 11.9737 8.58917 11.9871 8.62283C12.0134 8.68974 12.041 8.75666 12.0706 8.82276C12.0836 8.85115 12.0957 8.87953 12.1091 8.90711C12.1225 8.93469 12.1355 8.96186 12.1497 8.98822C12.1864 9.06365 12.2262 9.13772 12.2689 9.21045C12.2928 9.25303 12.3184 9.29521 12.3439 9.33819L12.3711 9.3824H12.3391L12.1176 9.39294H12.1278C12.1801 9.39294 12.2312 9.39294 12.2815 9.3901H12.4348L12.5945 9.38402L12.5159 9.251C12.5065 9.2364 12.4972 9.2214 12.4883 9.20599C12.2104 8.74282 12.0216 8.23168 11.9319 7.69902C11.9197 7.61792 11.9072 7.54533 11.9011 7.46544C11.8958 7.4188 11.8909 7.37216 11.8869 7.32553C11.8554 6.95625 11.8726 6.58444 11.938 6.21964C12.0573 5.52687 12.3439 4.8737 12.773 4.31687C12.8188 4.25848 12.8663 4.2013 12.9145 4.14493C13.5516 3.3974 14.4239 2.88873 15.3883 2.70244V2.6996L15.3587 2.52766V2.52441C15.2703 2.53982 15.1632 2.55888 15.0387 2.58159C14.5654 2.66878 13.8448 2.81113 12.9891 3.01552C11.191 3.44538 9.66862 3.94257 8.45324 4.4949C7.2196 5.05941 6.33554 5.6673 5.83836 6.31169L5.81402 6.34251C5.41498 6.86971 5.26169 7.42245 5.35983 7.98736C5.36591 8.02548 5.37402 8.06157 5.38254 8.09766C5.39105 8.13376 5.39957 8.16661 5.4089 8.20229C5.4162 8.22784 5.42431 8.25379 5.43282 8.27934C5.63153 8.88764 6.13358 9.36658 6.926 9.70601C6.9304 9.70845 6.93502 9.71048 6.93979 9.71209C7.00427 9.73967 7.07118 9.76603 7.13971 9.7932L7.17662 9.80537L7.20744 9.7932C7.28084 9.76238 7.35343 9.73237 7.4244 9.70358L7.43616 9.69912C8.27967 9.3605 8.97719 9.16827 9.62929 9.09447H9.6378C9.71607 9.1192 9.79677 9.14191 9.88112 9.16341C9.80001 9.1411 9.72094 9.11839 9.6447 9.09447L9.62645 9.09041H9.62036C9.50438 9.0531 9.39367 9.01174 9.29026 8.96875C9.40868 8.94847 9.52479 8.93198 9.63861 8.91928L9.65605 9.09122C9.7112 9.08514 9.76027 9.08514 9.81543 9.07906C9.95939 9.06804 10.1039 9.06574 10.2481 9.07216C10.5008 9.12123 10.7558 9.1571 11.0122 9.17963C11.1188 9.19017 11.2291 9.19828 11.3423 9.20477C11.4554 9.21126 11.5633 9.21653 11.6772 9.22018H11.6833L11.7036 9.21572L11.7271 9.21288L11.745 9.20964V9.22018L11.7571 9.21775V9.22018H11.8232C11.923 9.22018 12.0223 9.22545 12.1176 9.22545H12.2693L12.2657 9.21937H12.1034C12.0094 9.21937 11.9112 9.21491 11.8119 9.21369H11.7713L11.7535 9.21004H11.7421L11.6939 9.1995ZM11.7016 9.40227L11.8042 9.40592H11.8853C11.8135 9.40592 11.7417 9.40186 11.6748 9.39862C11.6568 9.39896 11.6388 9.39828 11.6209 9.39659H11.6055L11.7016 9.40227ZM11.689 9.20639L11.7012 9.21045L11.689 9.20639ZM12.2608 9.22343H12.0986C12.0045 9.22343 11.9064 9.21897 11.807 9.21775H11.7664L11.7486 9.2141H11.7364V9.22626L11.7486 9.22383V9.22626H11.8163C11.9161 9.22626 12.0154 9.23154 12.1107 9.23154H12.2693L12.2608 9.22343Z" />
<path d="M20.4392 8.01818L20.47 7.85881C20.5377 7.52977 20.5686 7.19422 20.562 6.85836C20.5567 6.65251 20.5365 6.44731 20.5016 6.24438C20.4894 6.16327 20.4708 6.09109 20.4586 6.01728C20.2136 4.92579 19.5559 3.97137 18.6232 3.35373C18.3381 3.1638 18.031 3.00912 17.7087 2.89305C17.0357 2.64814 16.3128 2.57225 15.6036 2.67203L15.5728 2.49441C15.99 2.42668 16.8619 2.29164 17.9654 2.18742C19.2112 2.06576 21.0406 1.95424 22.6854 2.10145H22.6976C24.0727 2.22311 25.1162 2.51266 25.8096 2.96077L25.8405 2.97902C26.3867 3.34116 26.712 3.80144 26.804 4.36027C26.8179 4.44138 26.8262 4.52336 26.8288 4.60562C26.8531 5.31165 26.4727 5.99903 25.6933 6.63734L25.6628 6.66208H25.6259C24.5334 6.59435 23.6794 6.64951 23.0171 6.8397C22.6059 7.12844 22.0844 7.40461 21.4583 7.66253L21.3723 7.69294C21.2003 7.76067 21.0288 7.82799 20.8451 7.88963C20.7595 7.92004 20.6736 7.95086 20.5815 7.98169L20.4392 8.01818ZM16.8486 2.48184C17.1603 2.52631 17.4667 2.60241 17.763 2.70893C18.101 2.83141 18.4227 2.99484 18.7209 3.19558C19.3268 3.59958 19.8273 4.14253 20.1808 4.77918C20.3895 5.15396 20.5425 5.55709 20.635 5.97591C20.6533 6.05702 20.6659 6.13569 20.6841 6.21558C20.7194 6.42612 20.7397 6.63888 20.7449 6.85227C20.7519 7.15011 20.7314 7.44795 20.6837 7.74201L20.794 7.70552C20.972 7.64388 21.1501 7.57656 21.3159 7.50883L21.4019 7.47842C22.0216 7.22658 22.5374 6.95122 22.9364 6.66735L22.9547 6.65478L22.9729 6.64869C23.6481 6.45242 24.4892 6.39726 25.6126 6.46458C26.3243 5.86926 26.6742 5.24311 26.6499 4.6048C26.6474 4.52859 26.6391 4.45268 26.6252 4.37771C26.5392 3.88052 26.2509 3.46323 25.7658 3.13191L25.7415 3.11325C25.0785 2.67771 24.0533 2.39505 22.6968 2.2665H22.6846C21.0519 2.11888 19.229 2.22959 17.9828 2.35207C17.5668 2.39586 17.1864 2.43885 16.8486 2.48184Z" />
<path d="M11.754 9.20913V9.21278L11.7719 9.20913H11.754ZM12.2658 9.21521H12.1036C12.0095 9.21521 11.9114 9.21075 11.812 9.20953L11.8213 9.21602C11.9211 9.21602 12.0204 9.22129 12.1157 9.22129H12.2694L12.2658 9.21521ZM11.7062 9.20223L11.6656 9.20832H11.6611C11.5484 9.20467 11.4385 9.1998 11.331 9.19291C11.2073 9.18601 11.0877 9.17709 10.9713 9.16533C10.7218 9.14181 10.4887 9.1091 10.2722 9.06719C10.0663 9.02903 9.86315 8.97769 9.66389 8.91349L9.64523 8.90741H9.63996L9.62698 8.90295C8.98664 8.69005 8.55232 8.36602 8.33374 7.93616C8.31225 7.8954 8.29315 7.85342 8.27655 7.81044C8.26804 7.78895 8.25952 7.76705 8.25141 7.74434C8.2247 7.66788 8.20435 7.58935 8.19058 7.50954C8.13543 7.21512 8.23357 6.91421 8.47932 6.60722C8.65086 6.38945 8.89662 6.17046 9.21253 5.94985C9.5808 5.70003 9.96758 5.47864 10.3695 5.28762C11.039 4.96659 11.7277 4.68732 12.4317 4.45141L12.445 4.44654C12.3696 4.55887 12.299 4.67404 12.2346 4.79246C12.2127 4.83301 12.1912 4.87357 12.1709 4.91412C12.1535 4.94575 12.1376 4.9786 12.1222 5.01145C12.1068 5.0443 12.0955 5.0666 12.0817 5.09499C12.0208 5.22926 11.9666 5.36651 11.9195 5.5062V5.50863C11.9065 5.54594 11.8943 5.58406 11.8817 5.62137C11.8692 5.65868 11.859 5.6968 11.8481 5.73492C11.84 5.76371 11.8315 5.79332 11.8242 5.82292C11.8233 5.82858 11.822 5.83415 11.8201 5.83955C11.8168 5.84896 11.8141 5.85858 11.812 5.86834C11.8051 5.89389 11.799 5.92025 11.7929 5.94661C11.7917 5.94959 11.7909 5.95273 11.7905 5.95594C11.7908 5.95879 11.7901 5.96167 11.7885 5.96405C11.7836 5.98473 11.7796 6.0046 11.7751 6.02609C11.7706 6.04759 11.7641 6.07638 11.7593 6.10152C11.7544 6.12667 11.7467 6.16398 11.7414 6.1952C11.7252 6.28564 11.7126 6.37688 11.7009 6.46853C11.6972 6.49854 11.6944 6.52936 11.692 6.55978C11.6883 6.60033 11.6851 6.64088 11.6826 6.68144C11.6717 6.86349 11.6717 7.04604 11.6826 7.2281C11.6871 7.30109 11.6928 7.37409 11.7005 7.44749C11.7009 7.4611 11.7024 7.47466 11.7049 7.48804C11.7122 7.54157 11.7203 7.59226 11.7276 7.64255C11.7271 7.64829 11.7282 7.65406 11.7309 7.65918C11.7344 7.68432 11.7381 7.70906 11.7418 7.73339C11.7504 7.78814 11.7601 7.84288 11.7719 7.8956C11.7724 7.90094 11.7733 7.90623 11.7747 7.91142C11.7816 7.94184 11.7885 7.97184 11.795 8.00104C11.8229 8.11824 11.8534 8.22895 11.8866 8.33439C11.8951 8.36318 11.9045 8.39157 11.9138 8.41996C11.9231 8.44835 11.9369 8.48728 11.9491 8.52094C11.9612 8.5546 11.9738 8.58866 11.9872 8.62232C12.0135 8.68923 12.0411 8.75615 12.0707 8.82225C12.0837 8.85064 12.0959 8.87902 12.1093 8.9066C12.1226 8.93418 12.1356 8.96135 12.1498 8.98771C12.1868 9.06314 12.2266 9.13721 12.269 9.20994C12.293 9.25049 12.3185 9.2947 12.3441 9.33768L12.3712 9.38189H12.3392L12.1178 9.39243H12.1279C12.1802 9.39243 12.2313 9.39243 12.2816 9.38959H12.3416C12.3428 9.38919 12.3441 9.38919 12.3453 9.38959H12.4317L12.5914 9.38351V9.38148L12.5188 9.25455C12.5079 9.23752 12.4973 9.22008 12.4876 9.20305C12.3287 8.93845 12.1992 8.65722 12.1015 8.3644C12.0281 8.14846 11.9727 7.92683 11.9357 7.70176C11.9235 7.62065 11.9114 7.54806 11.9049 7.46858C11.8559 7.05362 11.8683 6.6337 11.9418 6.22237C12.0611 5.5296 12.3477 4.87643 12.7768 4.31961L12.9122 4.14158L12.9528 4.08643L12.9353 4.0921L12.6738 4.18132L12.6304 4.19592L12.6235 4.19795L12.6089 4.20281C12.1763 4.34637 11.7708 4.49264 11.3923 4.6416C10.9957 4.79814 10.6307 4.95778 10.2973 5.12054C9.3646 5.56865 8.70155 6.02893 8.33941 6.48921C8.06324 6.83919 7.95253 7.19484 8.01499 7.53873C8.028 7.60723 8.04493 7.67493 8.06568 7.7415C8.07906 7.7872 8.0949 7.83214 8.11312 7.87614C8.12042 7.89439 8.12853 7.91264 8.13624 7.93129C8.32968 8.36805 8.70642 8.70992 9.26322 8.95243L9.27173 8.95608L9.28593 8.96256C9.40434 8.94229 9.52046 8.9258 9.63428 8.91309L9.65172 9.08503C9.70687 9.07895 9.75594 9.07895 9.81109 9.07287C9.95506 9.06185 10.0996 9.05955 10.2438 9.06597C10.4958 9.11498 10.7501 9.15085 11.0058 9.17344C11.1125 9.18398 11.2228 9.1921 11.3359 9.19858C11.449 9.20507 11.5569 9.21034 11.6709 9.21399H11.677L11.6972 9.20953L11.7208 9.20669L11.7386 9.20345L11.7062 9.20223ZM12.2658 9.22008L12.2621 9.21399H12.0999C12.0058 9.21399 11.9077 9.20953 11.8083 9.20832L11.8177 9.21481C11.9174 9.21481 12.0168 9.22008 12.1121 9.22008H12.2658ZM11.7504 9.21156L11.7682 9.20791H11.7504V9.21156ZM11.7017 9.39405H11.7041L11.8067 9.3977H11.8878C11.8161 9.3977 11.7443 9.39365 11.6774 9.3904C11.6594 9.39075 11.6414 9.39007 11.6234 9.38837H11.608L11.7017 9.39405ZM12.2634 9.21521H12.1011C12.0071 9.21521 11.9089 9.21075 11.8096 9.20953H11.7422V9.21562L11.7544 9.21318V9.21562H11.8234C11.9231 9.21562 12.0225 9.22089 12.1178 9.22089H12.2694L12.2634 9.21521Z" />
<path d="M20.4397 8.01826L20.4705 7.85888C20.5382 7.52985 20.5691 7.1943 20.5625 6.85843C20.5573 6.65258 20.5371 6.44739 20.5021 6.24445C20.49 6.16335 20.4713 6.09116 20.4591 6.01736C20.2141 4.92587 19.5564 3.97145 18.6237 3.35381L18.3804 3.18795L18.6748 3.18186C19.5091 3.16851 20.3434 3.20535 21.1733 3.29217C22.2041 3.41383 22.9775 3.62349 23.4812 3.93048C23.8737 4.16366 24.1008 4.45767 24.156 4.80197C24.1743 4.91971 24.1806 5.03902 24.1746 5.15803C24.1438 5.75335 23.7634 6.31218 23.0452 6.82072L23.027 6.83288C22.6214 7.12162 22.0943 7.39171 21.4738 7.64922L21.3878 7.68004C21.2163 7.74777 21.0443 7.81509 20.8606 7.87632C20.7746 7.90714 20.6887 7.93796 20.5966 7.96838L20.4397 8.01826ZM18.9546 3.35949C19.4583 3.74186 19.8764 4.22533 20.1822 4.77885C20.3908 5.15363 20.5438 5.55676 20.6364 5.97559C20.6546 6.05669 20.6672 6.13537 20.6854 6.21526C20.7204 6.42594 20.7404 6.63884 20.7454 6.85235C20.7524 7.15018 20.7319 7.44802 20.6842 7.74209L20.7945 7.70559C20.9725 7.64395 21.1506 7.57663 21.3164 7.50891L21.4024 7.47849C22.0221 7.22666 22.5379 6.9513 22.9369 6.66743L22.9552 6.65485C23.6122 6.18241 23.9617 5.67306 23.9865 5.14505C23.9926 5.04032 23.9864 4.93523 23.9678 4.83198C23.9187 4.54365 23.7245 4.29789 23.3786 4.08945C22.9 3.80071 22.151 3.59835 21.1445 3.47547C20.4172 3.39628 19.6862 3.35756 18.9546 3.35949V3.35949Z" />
<path d="M12.2659 9.21531H12.1037C12.0096 9.21531 11.9114 9.21084 11.8121 9.20963L11.8214 9.21612C11.9212 9.21612 12.0205 9.22139 12.1158 9.22139H12.2695L12.2659 9.21531ZM12.594 9.38522L12.5214 9.25829C12.5104 9.24126 12.4999 9.22382 12.4901 9.20679C12.3312 8.94219 12.2017 8.66097 12.1041 8.36815C12.0307 8.1522 11.9752 7.93057 11.9382 7.7055C11.926 7.6244 11.9139 7.55181 11.9074 7.47232L11.8891 7.32471H11.8871L11.8701 7.33606L11.7663 7.40338C11.7444 7.41798 11.7221 7.43217 11.7006 7.44718L11.6969 7.44961C11.539 7.55577 11.3913 7.67633 11.2557 7.80973C11.0274 8.03804 10.9163 8.26636 10.9232 8.48413V8.51576C10.9243 8.56772 10.9325 8.61928 10.9475 8.66905C10.9519 8.68568 10.9576 8.70231 10.9629 8.71893C11.0016 8.83011 11.062 8.93251 11.1405 9.02024C11.1949 9.08189 11.2553 9.13787 11.321 9.18732C11.3235 9.1898 11.3263 9.19185 11.3295 9.19341L11.3368 9.19949C11.4459 9.20638 11.5578 9.21125 11.6718 9.2149H11.6766L11.6645 9.20841L11.6527 9.20314C11.6491 9.20072 11.6453 9.19868 11.6414 9.19706L11.6166 9.1784H11.6105C11.5923 9.16867 11.5744 9.15813 11.5566 9.14718C11.4273 9.07514 11.3141 8.97759 11.2237 8.86046C11.1724 8.79226 11.1349 8.71471 11.1133 8.63215C11.1109 8.61633 11.1077 8.59849 11.1052 8.58065C11.1028 8.5628 11.0988 8.5336 11.0951 8.50927C11.0764 8.33773 11.1762 8.14713 11.3713 7.94477C11.4795 7.83542 11.5972 7.73581 11.7229 7.64711V7.64711C11.7221 7.65303 11.7221 7.65903 11.7229 7.66495C11.7225 7.66994 11.7225 7.67496 11.7229 7.67995V7.68523L11.7265 7.70996C11.7261 7.71197 11.7261 7.71404 11.7265 7.71605C11.7273 7.72387 11.7288 7.7316 11.731 7.73916C11.7395 7.79391 11.7492 7.84866 11.761 7.90138C11.7615 7.90671 11.7625 7.912 11.7638 7.91719C11.7707 7.94761 11.7776 7.97762 11.7841 8.00682C11.8121 8.12401 11.8425 8.23473 11.8758 8.34016C11.8843 8.36896 11.8936 8.39734 11.9029 8.42573C11.9123 8.45412 11.926 8.49305 11.9382 8.52671C11.9504 8.56037 11.9629 8.59443 11.9763 8.62809C12.0027 8.69501 12.0303 8.76192 12.0599 8.82802C12.0728 8.85641 12.085 8.8848 12.0984 8.91237C12.1118 8.93995 12.1248 8.96712 12.1389 8.99348C12.176 9.06891 12.2157 9.14299 12.2582 9.21571C12.2821 9.25626 12.3076 9.30047 12.3332 9.34345L12.3604 9.38766H12.3283L12.1069 9.3982H12.117C12.1694 9.3982 12.2205 9.3982 12.2707 9.39536H12.424L12.5838 9.38928L12.594 9.38522ZM12.2695 9.22301L12.2659 9.21693H12.1037C12.0096 9.21693 11.9114 9.21247 11.8121 9.21125L11.8214 9.21774C11.9212 9.21774 12.0205 9.22301 12.1158 9.22301H12.2695ZM12.2659 9.21693H12.1037C12.0096 9.21693 11.9114 9.21247 11.8121 9.21125H11.7715L11.7537 9.2149V9.21733H11.8234C11.9232 9.21733 12.0226 9.2226 12.1179 9.2226H12.2695L12.2659 9.21693Z" />
<path d="M20.4396 8.01823L20.4704 7.85885C20.5381 7.52982 20.569 7.19427 20.5625 6.8584C20.5572 6.65255 20.537 6.44736 20.502 6.24443C20.4899 6.16332 20.4712 6.09113 20.459 6.01733L20.4282 5.87012L20.5754 5.90702C20.7732 5.95366 20.9659 6.0194 21.1509 6.1033C21.4826 6.257 21.6781 6.45328 21.734 6.68037C21.7401 6.71119 21.7462 6.74161 21.7523 6.77851C21.7953 7.07942 21.685 7.37384 21.4149 7.65609L21.4027 7.66866L21.3841 7.67474C21.2125 7.74206 21.0406 7.80978 20.8569 7.87102C20.7709 7.90184 20.6849 7.93266 20.5929 7.96308L20.4396 8.01823ZM20.6671 6.12195L20.6853 6.21401C20.7203 6.42511 20.7404 6.6384 20.7454 6.85232C20.7524 7.15015 20.7319 7.448 20.6841 7.74206L20.7944 7.70556C20.9664 7.64392 21.1322 7.5839 21.2977 7.51496C21.5126 7.2757 21.6047 7.03643 21.5743 6.80325C21.5678 6.77851 21.5678 6.75418 21.5617 6.72214C21.5187 6.5502 21.3532 6.39772 21.075 6.26795C20.9428 6.20935 20.8065 6.16056 20.6671 6.12195Z" />
<path d="M24.2637 9.73671C23.9876 9.62033 23.6554 9.44838 23.3063 9.27035L23.1035 9.16613L23.1895 9.00635L23.3923 9.11097C23.7418 9.289 24.0675 9.46055 24.3376 9.57126L24.2637 9.73671Z" />
<path d="M21.4894 7.63162L21.3726 7.49049C21.8264 7.12016 22.3474 6.84091 22.9071 6.66807C22.9258 6.66289 22.9442 6.65666 22.9623 6.64941L23.0052 6.82744C22.9931 6.83353 22.9744 6.83353 22.9623 6.83961C22.4255 7.00774 21.9256 7.27652 21.4894 7.63162V7.63162Z" />
<path d="M20.8939 7.84693L20.7451 7.73622C21.0582 7.33069 21.3283 7.01194 21.5862 6.72969C22.3717 5.87807 23.1451 5.34885 24.023 5.067L24.0413 5.06092C24.7903 4.82165 25.6679 4.63754 26.7235 4.50858C27.6157 4.39827 28.522 4.33055 29.3935 4.26931L29.4856 4.26323C30.3778 4.20159 31.2103 4.14157 32.0084 4.03613L32.0327 4.22025C31.229 4.32447 30.3879 4.3857 29.4978 4.44734L29.4057 4.45343C28.5342 4.51466 27.6319 4.58239 26.7422 4.69269C25.6987 4.82165 24.8268 4.99968 24.0904 5.23895L24.0721 5.24503C23.231 5.51511 22.4824 6.03095 21.7152 6.85946C21.4706 7.12873 21.2066 7.44789 20.8939 7.84693Z" />
<path d="M20.7279 6.90742L20.5742 6.80928C20.7401 6.55136 20.8873 6.33034 21.0288 6.13406C21.7653 5.10887 22.4956 4.41541 23.3428 3.94905L23.355 3.94296C23.3658 3.93777 23.3761 3.93152 23.3858 3.92431C24.0302 3.56825 24.8096 3.25518 25.7549 2.95468H25.761C26.5652 2.70284 27.3689 2.50048 28.3329 2.26081L28.388 2.24864C29.1796 2.05237 29.9291 1.86825 30.6408 1.65332L30.6959 1.82527C29.9838 2.0402 29.2291 2.2308 28.4371 2.42667L28.382 2.43884C27.4184 2.67851 26.6142 2.88087 25.8101 3.13271H25.804C24.8713 3.42713 24.1036 3.74101 23.4653 4.09017C23.4531 4.09626 23.447 4.10234 23.4409 4.10234L23.4284 4.10842C22.612 4.56262 21.8942 5.23783 21.176 6.24437C21.041 6.43497 20.8938 6.65558 20.7279 6.90742Z" />
<path d="M20.1818 4.86369L20.022 4.77163C20.2934 4.28298 20.621 3.82772 20.9981 3.41512C21.0289 3.3843 21.0593 3.3474 21.0901 3.31698C21.4892 2.90577 21.9985 2.50592 22.6369 2.10038L22.6551 2.08822C23.2139 1.73337 23.8153 1.413 24.4293 1.08858L24.5214 1.0391C25.0186 0.775504 25.491 0.529751 25.927 0.27832L26.019 0.437695C25.577 0.695614 25.1041 0.940962 24.6069 1.20496L24.5165 1.25444C23.8968 1.57887 23.295 1.89883 22.7366 2.25489L22.7184 2.26746C22.0922 2.66002 21.6011 3.0469 21.2146 3.44594L21.1226 3.538C20.7658 3.94757 20.4506 4.39166 20.1818 4.86369V4.86369Z" />
<path d="M17.8189 2.8323L17.647 2.76498C17.7143 2.59911 17.7942 2.43325 17.8903 2.22481C18.0562 1.887 18.2403 1.54959 18.4122 1.23652L18.4735 1.13189C18.6271 0.848021 18.7926 0.561308 18.9337 0.280273L19.0996 0.36138C18.9585 0.645254 18.7926 0.938454 18.6393 1.22071L18.5777 1.32533C18.4061 1.63841 18.222 1.96973 18.0562 2.30713C17.96 2.50787 17.8802 2.67211 17.8189 2.8323Z" />
<path d="M13.3379 3.59272C13.2162 3.45159 13.0799 3.31655 12.9323 3.16894C12.6805 2.9175 12.4165 2.68432 12.1213 2.42032L12.0402 2.3526C11.7822 2.11941 11.5369 1.90651 11.3037 1.67779L11.4327 1.54883C11.6598 1.76984 11.9051 1.99045 12.1626 2.21755L12.2437 2.28528C12.5382 2.54928 12.8022 2.78855 13.0601 3.04038C13.2073 3.18759 13.344 3.32872 13.4713 3.46984L13.3379 3.59272Z" />
<path d="M23.0161 6.82136C22.6049 7.1101 22.0834 7.38627 21.4568 7.64378L21.3709 7.67461C21.1993 7.74233 21.0274 7.80965 20.8437 7.87088C20.7772 7.8944 20.7115 7.91833 20.6409 7.94145C20.6198 7.94915 20.6003 7.95564 20.5776 7.96294L20.4239 8.01241L20.4548 7.85263C20.4572 7.83925 20.4604 7.82627 20.4621 7.81208C20.2731 7.87453 20.0683 7.93699 19.8473 8.00511C19.4543 8.12191 19.0309 8.23221 18.5642 8.34293C18.1039 8.45323 17.6128 8.55786 17.1095 8.64991C16.8824 8.6929 16.6796 8.72967 16.5012 8.76022C16.3293 8.78496 16.1208 8.82145 15.8872 8.85836C15.36 8.94433 14.8868 9.01206 14.4387 9.06112C13.9601 9.11628 13.5059 9.15926 13.0761 9.18278C12.8802 9.19414 12.679 9.20022 12.4864 9.20509H12.4661C12.4747 9.2205 12.484 9.2355 12.4929 9.2501L12.5777 9.38312H12.5939C12.7087 9.38028 12.8222 9.37541 12.9345 9.36974L13.1049 9.36041C13.5347 9.33608 13.995 9.29309 14.4731 9.23875C14.9212 9.18968 15.3937 9.12196 15.9278 9.03598C16.0267 9.023 16.1214 9.00949 16.2117 8.99543L16.3662 8.96988L16.4221 8.95974L16.5438 8.93906C16.7218 8.90824 16.9303 8.87133 17.1574 8.82875C17.6671 8.7367 18.1578 8.63207 18.6246 8.52176C18.8326 8.4731 19.0301 8.42363 19.2223 8.37253L19.2329 8.3701C19.4721 8.30683 19.6992 8.24235 19.9194 8.17787C20.1591 8.11055 20.3797 8.03675 20.5886 7.96943L20.6433 7.95037C20.7151 7.92644 20.7836 7.9017 20.8526 7.87737C21.0367 7.81573 21.2086 7.74841 21.3798 7.68069L21.4657 7.65027C22.0919 7.39235 22.6138 7.11618 23.025 6.82744C23.6358 6.65631 24.4038 6.59507 25.3808 6.63684L25.3881 6.63117C24.4042 6.58818 23.6309 6.64942 23.0161 6.82136ZM11.7062 9.20225L11.6656 9.20833H11.6612C11.5484 9.20468 11.4385 9.19982 11.3311 9.19292C11.2074 9.18603 11.0877 9.17711 10.9713 9.16535C10.7218 9.14183 10.4888 9.10911 10.2722 9.06721C10.0664 9.02905 9.86317 8.97771 9.6639 8.91351L9.64525 8.90743H9.627C9.51223 8.9204 9.39544 8.93622 9.27662 8.9565C8.64561 9.06234 7.95093 9.27322 7.12972 9.61954L6.92696 9.70552L6.91357 9.7116L6.92777 9.71728L7.13054 9.79149C8.14437 10.1719 9.57955 10.356 11.4024 10.3317H11.4369C11.9673 10.3252 12.5387 10.3012 13.1272 10.2587L13.2318 10.2526C13.2683 10.2465 13.3129 10.2465 13.3535 10.2404L13.4025 10.2343C13.6483 10.2157 13.8892 10.1974 14.1207 10.1727C14.2618 10.1605 14.3969 10.1423 14.5263 10.1297L14.7903 10.0993C14.907 10.0867 15.0234 10.0685 15.1341 10.0563L15.1646 10.0498C15.5328 10.0071 15.8888 9.95803 16.2327 9.90261C16.4169 9.87828 16.5701 9.85354 16.6991 9.82921C16.8281 9.80487 16.9874 9.78014 17.1411 9.74323C17.5033 9.67551 17.8593 9.60211 18.2154 9.52222C18.3371 9.49748 18.4607 9.47315 18.5897 9.44111L18.8411 9.37987C18.9579 9.34905 19.0747 9.32432 19.1972 9.2939C19.4182 9.24483 19.6433 9.18319 19.8785 9.12195L20.0196 9.08505C20.0752 9.07289 20.1242 9.05464 20.1794 9.04206L20.1976 9.03598C20.754 8.87904 21.2926 8.71561 21.795 8.54691C21.8027 8.54366 21.8105 8.54123 21.8182 8.5388H21.8242C23.549 7.95564 24.8442 7.31125 25.6849 6.62387L25.8508 6.4868L25.8629 6.47666L25.6298 6.46409C24.4882 6.39069 23.6349 6.45192 22.9532 6.6482L22.935 6.65469L22.9163 6.66685C22.5177 6.95073 22.0019 7.22527 21.3818 7.47792L21.2962 7.50834C21.1304 7.57606 20.9523 7.64338 20.7743 7.70502L20.6932 7.73422H20.6908C20.6328 7.7545 20.576 7.77477 20.518 7.79586L20.4702 7.81127C20.2812 7.87372 20.0764 7.93617 19.8554 8.0043C19.4624 8.1211 19.039 8.2314 18.5723 8.34211C18.112 8.45242 17.6209 8.55705 17.1176 8.6491C16.8905 8.69209 16.6877 8.72886 16.5093 8.75941C16.3374 8.78415 16.1289 8.82064 15.8953 8.85755C15.3681 8.94352 14.8949 9.01124 14.4468 9.06031C13.9682 9.11547 13.514 9.15845 13.0842 9.18197C12.8883 9.19333 12.6872 9.19941 12.4945 9.20428H12.4722L12.4195 9.20631C12.3692 9.20955 12.3206 9.21077 12.2715 9.21198H12.1072C12.0132 9.21198 11.915 9.20752 11.8157 9.20631H11.7423V9.21239L11.7544 9.20995V9.21239H11.8234C11.9231 9.21239 12.0225 9.21766 12.1178 9.21766H12.2695L12.2658 9.21158H12.2695C12.2934 9.25416 12.3189 9.29633 12.3445 9.33932L12.3717 9.38352H12.4236C12.4763 9.38352 12.5286 9.38352 12.5813 9.3815H12.5939C12.7087 9.37866 12.8222 9.37379 12.9345 9.36811L13.1049 9.35879C13.5347 9.33445 13.995 9.29147 14.4731 9.23713C14.9212 9.18806 15.3937 9.12033 15.9278 9.03436C16.0267 9.02138 16.1214 9.00786 16.2117 8.99381L16.3662 8.96826L16.4221 8.95812L16.5438 8.93744C16.7218 8.90662 16.9303 8.86971 17.1574 8.82713C17.6671 8.73508 18.1578 8.63045 18.6246 8.52014C18.8326 8.47148 19.0301 8.422 19.2223 8.37091L19.2329 8.36847C19.4721 8.30521 19.6992 8.24073 19.9194 8.17625C20.1591 8.10893 20.3797 8.03512 20.5886 7.96781L20.6433 7.94875C20.7151 7.92482 20.7836 7.90008 20.8526 7.87575C21.0367 7.81411 21.2086 7.74679 21.3798 7.67907L21.4657 7.64865C22.0919 7.39073 22.6138 7.11456 23.025 6.82582C23.6358 6.65469 24.4038 6.59345 25.3808 6.63522H25.3942C24.5717 7.25528 23.3624 7.83236 21.7914 8.36604H21.7849L21.5416 8.44715C21.1044 8.5903 20.6462 8.72778 20.1705 8.85714L20.1518 8.86322C20.0967 8.8758 20.0476 8.89404 19.9924 8.90621L19.8205 8.9492C19.5995 9.01084 19.3785 9.06599 19.1716 9.11506C19.05 9.14588 18.932 9.17021 18.8156 9.20103L18.5637 9.26227C18.4348 9.28701 18.3123 9.31742 18.1894 9.34338C17.8334 9.41718 17.4773 9.49058 17.1213 9.55831C16.9497 9.58872 16.7968 9.61346 16.661 9.63942C16.5251 9.66537 16.3771 9.68889 16.2007 9.71322C15.8633 9.76229 15.5012 9.81744 15.139 9.86043L15.1082 9.86651C14.9979 9.88517 14.8811 9.89733 14.7643 9.9095L14.5007 9.94032C14.3717 9.95857 14.2367 9.97114 14.1017 9.98331C13.8685 10.0016 13.6288 10.0263 13.3895 10.0445L13.3466 10.0506C13.3036 10.0571 13.2654 10.0571 13.2249 10.0632L13.1207 10.0693C12.5878 10.1074 12.0744 10.1305 11.5886 10.1398L11.402 10.1431H11.359C9.72352 10.1589 8.40513 10.0129 7.43874 9.69903L7.42982 9.6966H7.42455C8.27252 9.35514 8.96841 9.16494 9.62822 9.09073H9.62213C9.50615 9.05342 9.39544 9.01205 9.29203 8.96907C9.41045 8.94879 9.52656 8.9323 9.64038 8.91959L9.65782 9.09154C9.71297 9.08546 9.76204 9.08546 9.8172 9.07937C9.96116 9.06836 10.1057 9.06606 10.2499 9.07248C10.502 9.12149 10.7565 9.15737 11.0123 9.17995C11.119 9.19049 11.2293 9.1986 11.3424 9.20509C11.4556 9.21158 11.5634 9.21685 11.6774 9.2205H11.6835L11.7037 9.21604L11.7273 9.2132L11.7451 9.20995" />
<path d="M11.7786 6.27513C11.3689 5.91835 10.92 5.6095 10.4403 5.35457L10.2931 5.28076C9.77724 5.02893 9.17584 4.83265 8.45764 4.66678C7.83149 4.51958 7.17493 4.42144 6.5058 4.31721L6.3955 4.29856C5.83667 4.21259 5.30907 4.1331 4.79932 4.03496L4.83622 3.85693C5.34557 3.95507 5.87358 4.03496 6.42591 4.12053L6.53662 4.13919C7.21184 4.24341 7.8684 4.34195 8.50062 4.48916C9.23707 4.65462 9.84497 4.86347 10.3726 5.1149L10.5202 5.18871C11.0142 5.44838 11.4756 5.7657 11.8949 6.13401L11.7786 6.27513Z" />
<path d="M11.9506 8.46018C11.7053 8.26999 11.4782 8.09804 11.2572 7.94475C10.2567 7.2448 9.36658 6.82751 8.4521 6.64339L8.39086 6.63123C7.69091 6.49618 6.87457 6.44711 5.88629 6.48402H5.88021C4.99006 6.51443 4.06341 6.60568 3.24708 6.68679H3.22883C2.38167 6.77276 1.58358 6.85265 0.841044 6.88306L0.834961 6.69895C1.57141 6.66854 2.3695 6.58865 3.21017 6.50267H3.22883C4.04517 6.42157 4.97262 6.33073 5.86804 6.29991H5.87412C6.87457 6.263 7.70957 6.31207 8.42128 6.4532L8.48292 6.46536C9.42173 6.65556 10.3362 7.07934 11.3553 7.79754C11.5763 7.95692 11.8095 8.12197 12.0549 8.31906L11.9506 8.46018Z" />
<path d="M12.1714 9.22125H12.1163C12.021 9.22125 11.9216 9.2172 11.8218 9.21598L11.8125 9.20949C11.6016 9.07648 11.4094 8.96212 11.2269 8.86033C11.1458 8.81491 11.0647 8.77151 10.9877 8.73015L10.9662 8.7192C10.0184 8.21634 9.18181 7.96775 8.33019 7.93571C8.28964 7.93571 8.25111 7.93328 8.21178 7.93287H8.13675C7.41247 7.93287 6.58315 8.03709 5.59689 8.24513C5.56607 8.25122 5.53566 8.2573 5.50484 8.26419C5.48051 8.26987 5.45536 8.27474 5.43062 8.28001C4.60212 8.46047 3.7655 8.69162 3.01527 8.89966L2.91469 8.92724L2.82426 8.95117C1.95277 9.19692 1.13035 9.42402 0.363076 9.58339L0.326172 9.40536C1.0833 9.24639 1.90167 9.02132 2.76302 8.77679L2.77519 8.77314L2.86725 8.7488L2.952 8.72528C3.70427 8.51684 4.5494 8.28487 5.38196 8.09792L5.46307 8.07967L5.54661 8.06183C6.52273 7.85258 7.3488 7.74754 8.06741 7.74268H8.2499C9.1226 7.76133 9.97585 7.99654 10.9264 8.48318C10.9735 8.50711 11.0209 8.53266 11.0688 8.5578C11.0821 8.5651 11.0955 8.57159 11.1093 8.5797C11.4208 8.74597 11.7618 8.95238 12.1637 9.21436L12.1714 9.22125Z" />
<path d="M11.7237 9.20817L11.7002 9.21101L11.6799 9.21547H11.6738C11.5598 9.21182 11.4479 9.20695 11.3388 9.20006C11.2297 9.19317 11.1154 9.18546 11.0087 9.17492L10.9718 9.1664C10.9556 9.16194 10.9398 9.1591 10.9232 9.15545C10.7238 9.11123 10.5212 9.08288 10.3173 9.07069V9.07069C10.3031 9.07069 10.2885 9.06867 10.2743 9.06826H10.2504C10.1061 9.06184 9.96163 9.06414 9.81767 9.07516C9.76252 9.08124 9.71345 9.08124 9.65829 9.08732L9.63721 8.91538V8.90321C9.69225 8.89632 9.74761 8.89226 9.80307 8.89104C10.2541 8.85987 10.7072 8.904 11.1438 9.02163C11.2806 9.05704 11.4193 9.09922 11.5598 9.14815C11.5777 9.15423 11.5959 9.16032 11.6138 9.16721H11.6259L11.6446 9.17938L11.6949 9.19925L11.7071 9.2033C11.7122 9.20517 11.7175 9.20666 11.7229 9.20777L11.7237 9.20817Z" />
<path d="M3.49888 11.5173L3.43115 11.3514C3.95835 11.1304 4.51149 10.8603 5.09384 10.572L5.13683 10.5533C5.78568 10.2342 6.45643 9.90448 7.13165 9.62061L7.19897 9.78606C6.52984 10.0699 5.8607 10.3944 5.21672 10.7131L5.17373 10.7374C4.5853 11.0262 4.03256 11.2963 3.49888 11.5173Z" />
<path d="M16.8487 10.719C16.7627 10.7311 16.6707 10.7498 16.5725 10.762C16.3884 10.7928 16.1796 10.8232 15.9525 10.8601L15.8973 10.8662C15.8053 10.8787 15.7132 10.8909 15.6134 10.9031C15.5137 10.9152 15.4107 10.9339 15.3004 10.9461H15.2821C15.1163 10.9708 14.9382 10.9891 14.7602 11.0138H14.7432L14.5161 11.0381C13.1406 11.2026 11.7578 11.2974 10.3727 11.322L10.1582 11.3281L10.3054 11.1687C10.6298 10.8248 10.9867 10.4627 11.3428 10.1549L11.3671 10.1301H11.3979C12.0062 10.1241 12.6624 10.0932 13.3445 10.0381L13.3936 10.032C13.6369 10.0133 13.8802 9.98901 14.1057 9.97076C14.2468 9.95819 14.3895 9.93994 14.523 9.92777L14.7683 9.89695C14.8851 9.88479 14.9954 9.87221 15.1 9.85397L15.1365 9.84788C15.5052 9.8049 15.8608 9.74974 16.1986 9.70067C16.3765 9.6758 16.5299 9.6512 16.6589 9.62687C16.794 9.60213 16.9472 9.5778 17.1192 9.54576C17.4752 9.47844 17.8313 9.40463 18.1874 9.33083C18.309 9.3065 18.4327 9.27567 18.5617 9.24972L18.8378 9.182C18.9486 9.15766 19.0589 9.13293 19.1692 9.10089C19.3781 9.05195 19.5931 8.9968 19.814 8.93543L19.9855 8.89245C20.6116 8.7205 21.2135 8.54247 21.7699 8.35227L21.8068 8.34619L21.8311 8.35227C22.2861 8.53395 22.7472 8.76713 23.1783 8.98815L23.3745 9.08629L23.1661 9.15402C21.8385 9.58774 20.4901 9.95467 19.1258 10.2534L18.758 10.3345C18.6229 10.3649 18.4944 10.3897 18.3715 10.4156L18.2547 10.4404C18.1874 10.4525 18.1257 10.4647 18.0584 10.4773C17.9911 10.4898 17.9173 10.5077 17.8496 10.5203L17.7332 10.5446C17.5061 10.5876 17.2972 10.6257 17.1131 10.6614C17.0271 10.6892 16.9385 10.7085 16.8487 10.719V10.719ZM14.7249 10.8406H14.7497C14.9216 10.822 15.0931 10.7976 15.259 10.7729H15.2777C15.3819 10.7607 15.4861 10.7425 15.5842 10.7299C15.6824 10.7173 15.7809 10.7056 15.8681 10.6934L15.9172 10.6869C16.1443 10.6504 16.3466 10.6196 16.5308 10.5949C16.622 10.5757 16.7142 10.5613 16.8069 10.5519C16.8929 10.5397 16.985 10.5215 17.077 10.5028C17.2611 10.4724 17.47 10.4294 17.6971 10.3864L17.8139 10.3617C17.8812 10.3495 17.9485 10.3374 18.0223 10.3187C18.0835 10.3065 18.1513 10.2944 18.2125 10.2818L18.3293 10.2575C18.451 10.2327 18.5807 10.2023 18.7158 10.1764L19.0779 10.0953C20.447 9.78867 21.7297 9.4464 22.8899 9.07047C22.5339 8.88636 22.16 8.70833 21.7909 8.56112C21.2386 8.74524 20.6433 8.92935 20.0232 9.09481L19.8821 9.13171C19.6489 9.19295 19.4218 9.25337 19.2008 9.30366C19.0905 9.32799 18.9798 9.35881 18.8695 9.38476L18.5856 9.45208C18.4566 9.4829 18.3338 9.50723 18.2109 9.53319C17.8548 9.61429 17.4927 9.68648 17.137 9.7542C16.9651 9.78462 16.8126 9.81544 16.6763 9.83531C16.5477 9.85964 16.3922 9.88411 16.21 9.90871C15.8664 9.96278 15.5104 10.0119 15.1422 10.0559L15.1053 10.0624C14.9946 10.0746 14.8843 10.0867 14.7675 10.1054L14.5222 10.1358C14.3871 10.148 14.246 10.1666 14.0988 10.1788C13.8652 10.2035 13.6259 10.2218 13.3806 10.2404L13.3315 10.2465C12.6563 10.2956 12.0115 10.3276 11.4101 10.3386C11.1218 10.59 10.833 10.8787 10.5633 11.161C11.7722 11.1363 13.0858 11.0393 14.467 10.8771L14.7245 10.8402L14.7249 10.8406Z" />
<path d="M9.52645 12.2354L9.40479 12.1004C9.6258 11.9037 9.88332 11.6275 10.1534 11.3392L10.3071 11.1733L10.4421 11.3023L10.2884 11.4617C10.0111 11.7565 9.75517 12.0327 9.52645 12.2354Z" />
<path d="M20.6435 7.78096L20.5625 7.94629L21.7697 8.53793L21.8507 8.3726L20.6435 7.78096Z" />
<path d="M12.3504 9.38818L12.344 9.39427C12.2839 9.45307 11.8719 9.85374 11.5864 10.138C11.5837 10.1413 11.5807 10.1444 11.5775 10.1473L11.479 10.2459L11.3447 10.1534L11.3569 10.1413L11.3695 10.1287C11.3695 10.1287 11.9725 9.48186 12.1181 9.39873L12.3395 9.38818H12.3504Z" />
<path d="M12.4235 9.38737H12.3396L12.1181 9.39791H11.8902C11.8185 9.39791 11.7467 9.39386 11.6798 9.39061C11.6618 9.39096 11.6438 9.39028 11.6258 9.38859H11.5167L11.4762 9.38656H11.4409C11.4308 9.38737 11.4206 9.38737 11.4105 9.38656H11.3614C10.9627 9.36547 10.5659 9.31641 10.174 9.23976C10.1026 9.22516 10.0333 9.20975 9.96517 9.19352C9.93678 9.18704 9.9088 9.17974 9.88041 9.17284C9.79931 9.15054 9.72023 9.12783 9.64399 9.1039L9.62574 9.09985H9.61966C9.50367 9.06254 9.39296 9.02117 9.28955 8.97819C9.40797 8.95791 9.52408 8.94142 9.6379 8.92871L9.65534 9.10066C9.7105 9.09458 9.75956 9.09457 9.81472 9.08849C9.95868 9.07748 10.1032 9.07517 10.2474 9.0816C10.4994 9.1306 10.7537 9.16647 11.0094 9.18906C11.1161 9.19961 11.2264 9.20772 11.3395 9.21421C11.4527 9.2207 11.5605 9.22597 11.6745 9.22962H11.6806L11.7009 9.22516L11.7244 9.22232L11.7422 9.21907V9.22962L11.7544 9.22718V9.22962H11.8233C11.9231 9.22962 12.0224 9.23489 12.1177 9.23489H12.2694L12.2658 9.22881H12.2694C12.2933 9.26936 12.3189 9.31356 12.3444 9.35655L12.3716 9.40075L12.4235 9.38737Z" />
<path d="M20.7044 7.60639C20.6983 7.64978 20.6914 7.69317 20.6837 7.73616C20.6736 7.79212 20.6626 7.84808 20.6504 7.90324L20.6419 7.94176L20.6395 7.95068V7.95433L20.5904 7.97096C20.3503 8.05207 20.1159 8.12182 19.9185 8.18062C19.7031 8.2447 19.4724 8.30715 19.229 8.37041L19.2185 8.37284C19.0307 8.42151 18.8328 8.46977 18.6236 8.51965C18.0964 8.64658 17.6077 8.74229 17.1584 8.82704C16.969 8.86313 16.7731 8.89842 16.5436 8.93816L16.4195 8.96006L16.3635 8.9702L16.209 8.99574C16.1206 9.00953 16.0249 9.02332 15.9252 9.0363C15.4053 9.12024 14.9284 9.18635 14.4689 9.23906C13.996 9.2926 13.5362 9.33355 13.0958 9.36072L12.9335 9.37005C12.8212 9.37573 12.7077 9.3806 12.5929 9.38343H12.5803C12.5276 9.38343 12.4753 9.38343 12.4226 9.38343H12.3707L12.3435 9.33923C12.3179 9.29624 12.2924 9.25407 12.2685 9.21149C12.2257 9.13687 12.186 9.06279 12.1492 8.98926C12.135 8.96168 12.1217 8.9337 12.1087 8.90815C12.0957 8.8826 12.0831 8.85218 12.0681 8.8238C12.0373 8.75688 12.0097 8.69038 11.9846 8.62387C11.9712 8.59021 11.959 8.55655 11.9465 8.52249C11.9339 8.48842 11.9213 8.44949 11.91 8.41259C11.901 8.38744 11.8925 8.36189 11.884 8.33594C11.8508 8.2305 11.8203 8.11979 11.7924 8.00259C11.7859 7.97339 11.779 7.94338 11.7721 7.91297C11.7708 7.90777 11.7698 7.90249 11.7693 7.89715C11.7624 7.86633 11.7559 7.83592 11.7502 7.80388C11.7445 7.77793 11.7396 7.75238 11.7348 7.72602L11.7226 7.64491L11.6975 7.4827L11.6938 7.44782C11.6469 7.02602 11.6605 6.59967 11.7344 6.18175C11.8435 5.56276 12.081 4.97346 12.4315 4.45174C12.487 4.36779 12.5463 4.28628 12.6075 4.20558C12.8214 3.9307 13.0642 3.67959 13.3318 3.45656C13.8318 3.04902 14.4122 2.75163 15.035 2.58385C15.1307 2.5583 15.2272 2.53559 15.3246 2.51653L15.5488 2.47882C16.3277 2.36479 17.1228 2.4562 17.8554 2.74399C18.5881 3.03178 19.2328 3.50598 19.7258 4.11961C19.7518 4.15164 19.7773 4.18409 19.8025 4.21653C19.8276 4.24897 19.8491 4.27817 19.8714 4.30858C19.8937 4.339 19.9241 4.38239 19.9497 4.4193C20.0259 4.53149 20.0972 4.6468 20.1634 4.76522C20.3702 5.13865 20.5239 5.53912 20.62 5.95505C20.6326 5.99277 20.6435 6.02926 20.6521 6.06617C20.6651 6.1156 20.6755 6.16568 20.6833 6.21622C20.6837 6.21931 20.6837 6.22245 20.6833 6.22554C20.6926 6.27948 20.7007 6.33301 20.708 6.38776C20.7133 6.42831 20.7182 6.46886 20.7222 6.50942C20.7263 6.54997 20.7295 6.59052 20.7324 6.63108C20.7352 6.67163 20.738 6.70975 20.7397 6.7503C20.7413 6.79086 20.7437 6.82208 20.7449 6.85858V6.86791C20.7531 7.11478 20.7396 7.3619 20.7044 7.60639V7.60639Z" />
</svg>
