<svg width="16" height="16" viewBox="0 0 16 16" xmlns="http://www.w3.org/2000/svg">
<path d="M1.95176 2.79308C2.0517 2.66841 2.15762 2.54851 2.26355 2.42862C2.2683 2.42265 2.27904 2.42145 2.28381 2.41548C2.29332 2.40366 2.30883 2.3965 2.31835 2.38467L2.32786 2.37273C2.40171 2.30502 2.48029 2.23134 2.57087 2.16721C2.89137 1.92587 3.224 1.74257 3.57474 1.62183C4.69968 1.23014 5.95197 1.47161 6.93395 2.39112C8.30518 3.66591 8.18237 5.71953 7.08782 7.08448C5.70455 9.11936 3.3276 11.9584 6.61874 14.5015C7.21051 14.9588 7.64949 15.3358 9.51351 15.87C8.29435 16.0929 7.16403 16.0235 5.90586 15.7048C5.01586 15.2066 3.61664 14.1398 3.14059 12.6989C2.42108 10.5139 4.4073 7.2476 5.36719 5.98954C6.6852 4.24855 4.55262 2.36377 2.98262 4.46792C2.16193 5.56453 0.726188 8.66748 1.22512 10.9691C1.51685 12.2744 1.90571 13.2258 3.44749 14.5327C3.16157 14.3654 2.88394 14.1755 2.61461 13.9632C-0.967608 10.6536 -0.551999 5.53623 1.95176 2.79308Z"/>
<path d="M14.0776 13.3377C13.9792 13.4636 13.8748 13.5847 13.7705 13.7058C13.7659 13.7118 13.7552 13.713 13.7506 13.7189C13.7412 13.731 13.7259 13.7382 13.7165 13.7501L13.7072 13.7622C13.6345 13.8306 13.5571 13.9049 13.4679 13.9697C13.1521 14.2135 12.8246 14.3986 12.4792 14.5204C11.3712 14.9161 10.1381 14.6722 9.17084 13.7436C7.82051 12.4562 7.94146 10.3823 9.01942 9.00368C10.3816 6.94877 12.7225 4.08163 9.48127 1.51333C8.89848 1.05155 8.46615 0.670693 6.63037 0.131189C7.83106 -0.0937788 8.94425 -0.0238071 10.1834 0.298087C11.0599 0.801303 12.4379 1.87862 12.9068 3.33378C13.6154 5.5404 11.6593 8.83906 10.7139 10.1095C9.41594 11.8678 11.5161 13.7711 13.0624 11.6463C13.8706 10.5388 15.2846 7.40512 14.7932 5.08068C14.5059 3.76252 14.1229 2.8017 12.6045 1.48185C12.886 1.65081 13.1595 1.84244 13.4247 2.05699C16.9527 5.3993 16.5434 10.5674 14.0776 13.3377Z"/>
</svg>
