<svg width="16" height="16" viewBox="0 0 16 16"  xmlns="http://www.w3.org/2000/svg">
<path d="M4.85761 11.5968L1.18401 12.0064L3.33761 7.03356L1.13281 4.02556L6.49601 3.41436L7.95521 0.0639648L11.1488 4.40316L14.8192 3.99036L12.672 8.93756L14.8608 11.9264L9.52321 12.5344L8.04801 15.936L4.85761 11.5968ZM6.38081 11.264C6.24001 11.3312 6.08961 11.392 5.93601 11.4336L5.79521 11.472L7.86561 14.2848L8.60161 12.5952L8.47041 12.5792C7.74721 12.4864 7.09121 12.0992 6.66561 11.5104L6.46081 11.2256L6.38081 11.264ZM5.66081 8.71676L7.33121 11.024C7.67041 11.4912 8.21761 11.7728 8.79681 11.7728C8.86401 11.7728 8.93121 11.7696 8.99521 11.76L13.3504 11.264L11.616 8.89916C11.5296 8.78396 11.4304 8.67516 11.3216 8.58236L11.2192 8.49916L9.97761 11.3024L7.81761 8.44156L5.66081 8.71676ZM5.73121 5.90396C5.08481 5.97116 4.52161 6.38716 4.26241 6.98556L2.51521 11.024L5.42081 10.6976C5.56481 10.6816 5.70561 10.6496 5.84001 10.5984L5.96481 10.5504L4.16641 8.06716L7.71201 7.61596L8.55361 5.60316L5.73121 5.90396ZM8.47681 7.93916L9.79201 9.67996L10.592 7.86876L10.944 7.07196C11.2064 6.47676 11.1328 5.77916 10.7456 5.25436L8.14081 1.71196L6.96961 4.40316C6.91201 4.53436 6.87041 4.67516 6.84481 4.81916L6.82241 4.95036L9.85921 4.62716L8.47681 7.93916ZM11.6672 5.18076L11.7184 5.30556C12 5.98076 11.9936 6.74876 11.6992 7.41116L11.5552 7.73116L11.6224 7.77596C11.7536 7.86556 11.8784 7.96476 11.9904 8.07996L12.0928 8.18236L13.4848 4.97596L11.6672 5.18076ZM2.64961 4.69116L3.75681 6.20156L3.84001 6.09596C4.27841 5.52316 4.94081 5.15516 5.64801 5.07836L5.99681 5.04316L6.00321 4.95996C6.01601 4.78716 6.04481 4.61116 6.09281 4.44156L6.13121 4.29756L2.64961 4.69116Z" />
<path d="M7.22583 16.0002C4.92183 15.7762 2.85143 14.5794 1.49463 12.6786L2.42263 12.5762C2.57623 12.765 2.73943 12.9442 2.90903 13.117C3.91703 14.1282 5.17463 14.8098 6.55703 15.0914L7.22583 16.0002Z" />
<path d="M9.15858 15.1393C10.653 14.8993 12.0098 14.1985 13.0914 13.1137C13.1874 13.0177 13.2834 12.9121 13.3826 12.8033L14.5058 12.6753C13.1554 14.5761 11.0882 15.7761 8.78418 16.0001L9.15858 15.1393Z" />
<path d="M14.7358 10.563C15.043 9.74702 15.1998 8.88302 15.1998 7.99982C15.1998 7.21902 15.075 6.45102 14.835 5.71822L15.2862 4.67822C15.7598 5.72462 15.9998 6.84142 15.9998 7.99982C15.9998 9.15822 15.7598 10.2718 15.2894 11.3182L14.7358 10.563Z" />
<path d="M0.7168 11.328C0.2432 10.2816 0 9.16483 0 8.00003C0 6.82883 0.2432 5.70563 0.7232 4.65283L1.2736 5.40483C0.96 6.23363 0.8 7.10403 0.8 8.00003C0.8 8.78403 0.9248 9.55203 1.168 10.288L0.7168 11.328Z" />
<path d="M1.52979 3.2736C2.88339 1.4048 4.93778 0.2208 7.21938 0L6.84818 0.8576C5.35058 1.0976 3.99059 1.7984 2.90899 2.8832C2.82579 2.9664 2.74578 3.0528 2.66259 3.1424L1.52979 3.2736Z" />
<path d="M13.5776 3.424C13.424 3.2352 13.2608 3.0528 13.0912 2.8864C12.0864 1.8752 10.8288 1.1936 9.45276 0.912L8.78076 0C11.0816 0.224 13.152 1.424 14.5024 3.3216L13.5776 3.424Z" />
</svg>
