<svg width="18" height="20" viewBox="0 0 13 16" fill="none" xmlns="http://www.w3.org/2000/svg">
<path fill-rule="evenodd" clip-rule="evenodd" d="M0.0389726 0C0.0389726 0 3.65863 2.17135 4.84017 4.64354C5.26964 4.52164 5.72098 4.45528 6.18119 4.45528C6.65001 4.45528 7.10961 4.52413 7.54628 4.65045C8.72436 2.17539 12.3508 0 12.3508 0C12.479 1.4109 12.3591 4.79745 10.9282 7.63017C10.8454 7.4834 10.7656 7.34623 10.6858 7.21479C11.1616 6.19933 11.3004 5.54478 11.3121 4.29621C11.0377 5.42953 10.8776 6.0675 10.3759 6.73377C10.0673 6.2841 9.70854 5.84495 9.15416 5.22718L9.1547 5.21086C9.33896 4.05548 9.62179 3.35969 10.2119 2.09576C9.05831 3.49341 8.50722 4.62737 8.52377 5.6379L8.51436 5.62846C8.52173 6.20093 8.71098 6.73374 9.07589 7.25224L9.14548 6.70877L9.46029 6.9076C9.42117 6.78499 9.38202 6.68284 9.34527 6.58684C9.30551 6.48302 9.26854 6.38641 9.23723 6.27891C9.24136 6.28246 9.24549 6.28602 9.24962 6.28957C9.24856 6.28602 9.24754 6.28246 9.24648 6.27891C9.69881 6.66706 10.1056 7.11046 10.789 7.89607L10.78 7.91268L10.7711 7.90372C10.8037 8.08593 10.8207 8.27122 10.8207 8.45852C10.8207 8.76062 10.7766 9.1391 10.6939 9.5662C10.8235 9.64371 10.9513 9.74992 11.0343 9.91664C10.8591 9.91968 10.7382 9.93476 10.6046 9.98243C10.5999 10.0026 10.5951 10.0229 10.5903 10.0433C11.0647 10.5167 11.28 10.8525 11.5895 11.4808C11.1026 11.0623 10.7947 10.8035 10.4473 10.5894C10.4317 10.6447 10.4156 10.7003 10.399 10.7563C10.6659 11.2439 10.7175 11.6033 10.5954 12.2231C10.3659 12.018 10.2008 11.8738 10.054 11.7938C9.94623 12.0857 9.82868 12.3795 9.70236 12.67C9.61756 12.7546 9.54947 12.8465 9.48219 12.9373C9.30202 13.1805 9.12743 13.4161 8.65256 13.4857C8.67807 14.1575 8.53427 14.4519 8.38135 14.765C8.30472 14.9219 8.22581 15.0835 8.16476 15.2995C8.04433 15.4449 7.92137 15.5803 7.79623 15.704C7.02234 16.1041 6.98204 16.0844 6.2593 15.7304L6.1689 15.6861C5.35857 16.0821 5.30022 16.1032 4.61298 15.7496C4.44869 15.5918 4.28806 15.4136 4.1319 15.2189C4.07495 15.042 4.00645 14.9018 3.93967 14.765C3.78672 14.4519 3.64295 14.1575 3.66846 13.4857C3.19359 13.4161 3.019 13.1805 2.83882 12.9373C2.79371 12.8765 2.74825 12.8151 2.69764 12.7558C2.5586 12.4411 2.42976 12.1219 2.31245 11.8048C2.16464 11.8844 1.99855 12.0293 1.76696 12.2364C1.64441 11.6146 1.69675 11.2548 1.96587 10.7648C1.94957 10.7098 1.9337 10.6551 1.91827 10.6007C1.56956 10.8152 1.26125 11.0743 0.772818 11.4941C1.08294 10.8646 1.29841 10.5287 1.77472 10.054C1.77014 10.0349 1.76562 10.0159 1.76116 9.99696C1.62622 9.9483 1.50474 9.933 1.32802 9.92993C1.4116 9.76221 1.5404 9.65571 1.67084 9.57811C1.58665 9.14611 1.5417 8.7634 1.5417 8.45852C1.5417 8.27256 1.55842 8.08856 1.59056 7.90762C2.2801 7.11481 2.68865 6.66898 3.14318 6.27891C3.11189 6.38641 3.0749 6.48302 3.03515 6.5868C2.99838 6.68281 2.95926 6.78496 2.92012 6.9076L3.23495 6.70874L3.30455 7.25224C4.31197 5.82062 3.98074 4.28023 2.1778 2.09577C2.76787 3.35969 3.0507 4.05551 3.23495 5.21086L3.2355 5.22718C2.68113 5.84495 2.32235 6.2841 2.01378 6.73377C1.51209 6.0675 1.35195 5.42953 1.0776 4.29621C1.08923 5.54478 1.22809 6.19933 1.70388 7.21479C1.62412 7.34619 1.54434 7.48337 1.46154 7.63011C0.0306613 4.79739 -0.0892924 1.41089 0.0389726 0ZM4.90864 10.5529L4.49774 9.75754L3.34447 9.54543C3.39479 10.3876 3.94098 10.712 4.90864 10.5529ZM8.02374 9.75754L7.61284 10.5529C8.5805 10.712 9.12669 10.3876 9.17701 9.54543L8.02374 9.75754ZM5.44305 13.9028C5.26379 14.0297 5.15312 14.2038 5.15312 14.396C5.15312 14.784 5.60417 15.0985 6.16057 15.0985C6.71695 15.0985 7.168 14.784 7.168 14.396C7.168 14.1938 7.04555 14.0116 6.84951 13.8834C6.65087 13.9635 6.39721 14.0116 6.12082 14.0116C5.86754 14.0116 5.6333 13.9712 5.44305 13.9028Z" />
</svg>
