<svg width="17" height="19" viewBox="0 0 17 24" fill="none" xmlns="http://www.w3.org/2000/svg">
<path fill-rule="evenodd" clip-rule="evenodd" d="M7.04015 0.959999C7.04015 0.429806 7.46996 0 8.00015 0C8.53034 0 8.96015 0.429806 8.96015 0.96V5.16349L12.0841 1.82547C12.4463 1.43836 13.0538 1.41823 13.441 1.78051C13.8281 2.14279 13.8482 2.7503 13.4859 3.13741L10.1332 6.71991H15.2C15.7302 6.71991 16.16 7.14972 16.16 7.67991C16.16 8.2101 15.7302 8.63991 15.2 8.63991H10.2932L13.6461 12.2226C14.0084 12.6097 13.9883 13.2172 13.6011 13.5795C13.214 13.9418 12.6065 13.9217 12.2442 13.5345L8.96015 10.0254V19.2H10.7202C11.2504 19.2 11.6802 19.6298 11.6802 20.16C11.6802 20.6902 11.2504 21.12 10.7202 21.12H8.96015V23.04C8.96015 23.5702 8.53034 24 8.00015 24C7.46996 24 7.04015 23.5702 7.04015 23.04V21.12H5.28023C4.75003 21.12 4.32023 20.6902 4.32023 20.16C4.32023 19.6298 4.75003 19.2 5.28023 19.2H7.04015V10.025L3.7557 13.5345C3.39342 13.9217 2.78591 13.9418 2.3988 13.5795C2.01169 13.2172 1.99156 12.6097 2.35384 12.2226L5.70673 8.63991H0.96C0.429807 8.63991 0 8.2101 0 7.67991C0 7.14972 0.429806 6.71991 0.96 6.71991H5.86673L2.51403 3.13741C2.15175 2.7503 2.17188 2.14279 2.55899 1.78051C2.9461 1.41823 3.55361 1.43836 3.91589 1.82547L7.04015 5.16387V0.959999Z" />
</svg>
