<svg width="18" height="20" viewBox="0 0 14 16" fill="none" xmlns="http://www.w3.org/2000/svg">
<path d="M11.8854 0.0171492C11.8102 0.0359573 11.6898 0.114951 11.5882 0.216515C11.4302 0.378265 11.4152 0.404598 11.4001 0.61901L11.3813 0.852231L10.55 1.68731C10.0949 2.14623 9.69237 2.53368 9.65851 2.54872C9.62466 2.56001 9.54566 2.63524 9.48924 2.71424C9.42905 2.79323 8.34947 3.88786 7.08556 5.15177L4.79097 7.44636L4.77968 6.17117L4.77216 4.89974L4.9151 4.74175C5.13704 4.50101 5.15584 4.22265 4.96776 3.93676C4.82106 3.71107 4.39976 3.6396 4.09506 3.79006C3.9446 3.86529 3.92203 3.89539 3.85808 4.09851C3.7678 4.3844 3.81294 4.59505 4.00479 4.78689L4.13268 4.91479V6.15612V7.40122L4.00479 7.54416C3.88818 7.6683 3.79413 7.88271 3.79413 8.01813C3.79413 8.14979 3.95965 8.48833 4.0424 8.52595L4.13268 8.56733V9.85004V11.1328L4.02736 11.1929C3.94836 11.2381 3.90322 11.3096 3.85056 11.4713C3.78661 11.6782 3.78661 11.7008 3.8468 11.8888C3.91827 12.1108 4.04993 12.2387 4.29067 12.3139C4.58408 12.4079 4.98281 12.171 5.07309 11.8512C5.1107 11.7083 5.1107 11.6556 5.05428 11.4939C5.01666 11.3773 4.94895 11.2682 4.88125 11.2155L4.77216 11.129L4.77968 10.0043L4.79097 8.87578L6.96519 11.0425C8.15762 12.2349 9.13565 13.2317 9.13565 13.2543C9.13565 13.2769 9.09051 13.307 9.03408 13.3183C8.9739 13.3333 8.82719 13.3897 8.70306 13.4462C8.21029 13.6643 7.97707 13.7283 7.37897 13.8035C6.57022 13.9051 5.52072 13.8449 4.93391 13.6681C4.4449 13.5214 3.74523 13.2054 3.4744 13.0173C3.41421 12.9722 3.32769 12.9195 3.27879 12.9007C2.95905 12.7578 1.95846 11.776 1.69515 11.3472C1.66129 11.287 1.58606 11.1741 1.5334 11.0914C1.40926 10.9033 1.31898 10.7227 1.1309 10.3052C0.912727 9.81619 0.875111 9.67701 0.762262 9.03753C0.675745 8.52595 0.66446 8.39429 0.683268 7.86014C0.709599 6.99873 0.845018 6.34797 1.11962 5.75363C1.19485 5.58812 1.28513 5.39251 1.31898 5.31352C1.4055 5.1292 1.85313 4.45211 2.02241 4.26026C2.29701 3.94429 2.76721 3.50794 3.03429 3.3161C3.18851 3.20701 3.35779 3.08288 3.41045 3.0415C3.46687 2.99636 3.55339 2.94746 3.60605 2.93241C3.65872 2.91736 3.76028 2.8647 3.83175 2.81956C4.06497 2.67286 4.3659 2.54872 4.82858 2.41331C5.56586 2.19513 5.66743 2.18009 6.50251 2.18009C7.35263 2.18009 7.54824 2.20642 8.31561 2.4434C8.54883 2.51487 8.76701 2.56377 8.80462 2.55249C8.83848 2.5412 8.95133 2.43588 9.05665 2.3155L9.24473 2.10109L8.71058 1.89796C7.96954 1.62336 7.24355 1.51052 6.37085 1.53309C5.72385 1.55189 5.17465 1.62713 4.75335 1.75502C4.30948 1.88668 3.5722 2.19137 3.36531 2.32303C3.25998 2.39074 3.07943 2.50359 2.96281 2.57506C2.84244 2.64277 2.68822 2.75561 2.60922 2.82708C2.53399 2.89479 2.45876 2.95122 2.43619 2.95122C2.376 2.95122 1.45816 3.89915 1.32274 4.09851C1.25504 4.20008 1.1309 4.38064 1.04815 4.49349C0.96539 4.60633 0.882634 4.74175 0.860065 4.79442C0.841256 4.84708 0.739692 5.05773 0.634367 5.26462C0.20178 6.14108 -0.0427262 7.31094 0.00617501 8.27392C0.0400297 8.93973 0.107739 9.27451 0.382338 10.166C0.506472 10.5535 0.890158 11.3208 1.11209 11.6218C1.20613 11.7459 1.29265 11.8738 1.30394 11.9039C1.31522 11.934 1.48449 12.1333 1.6801 12.3478C2.06002 12.7615 2.57161 13.2129 2.85373 13.3822C2.94777 13.4424 3.09071 13.5364 3.17347 13.5929C3.3954 13.7508 4.21168 14.1195 4.50132 14.1985C5.18594 14.3828 5.34016 14.4204 5.59972 14.4656C5.77651 14.4994 6.13763 14.5182 6.55893 14.5145C7.14198 14.5107 7.29621 14.4994 7.68742 14.4129C8.42846 14.2511 8.79334 14.1345 9.20336 13.9352C9.41777 13.8336 9.60961 13.7471 9.63218 13.7471C9.65475 13.7471 10.0121 14.0856 10.4221 14.4994C11.1556 15.2329 11.1744 15.2555 11.1857 15.421C11.2008 15.6806 11.3099 15.8536 11.5055 15.9326C11.9305 16.1056 12.3255 15.9364 12.4459 15.5301C12.5663 15.1238 12.1337 14.6536 11.7048 14.7364C11.6183 14.7514 11.528 14.6762 10.9111 14.0593C10.2867 13.4349 10.2228 13.3596 10.2867 13.322C10.4409 13.2393 10.9375 12.7992 11.2497 12.4719C12.0095 11.6707 12.4534 10.877 12.8258 9.64691C12.9988 9.08643 13.0515 7.97675 12.9537 7.08901C12.8747 6.40063 12.5926 5.5505 12.2164 4.88093C12.0697 4.62514 11.9569 4.37311 11.9569 4.31669C11.9531 4.04961 11.7387 3.78254 11.4679 3.71483C11.3851 3.69226 11.3061 3.63583 11.2534 3.55684C11.2083 3.48913 11.1067 3.38757 11.024 3.32738C10.945 3.27096 10.8472 3.18068 10.8058 3.13178C10.7682 3.07911 10.6553 2.98131 10.5575 2.91736C10.456 2.84965 10.377 2.78947 10.377 2.77818C10.377 2.7669 10.7155 2.42459 11.1255 2.01081C11.7425 1.39391 11.8892 1.26601 11.9569 1.28482C12.002 1.2961 12.1412 1.27353 12.2653 1.23592C12.4873 1.17197 12.4985 1.16068 12.5888 0.96508C12.8333 0.430929 12.4346 -0.103223 11.8854 0.0171492ZM9.9632 3.286C9.9632 3.30481 10.0083 3.33867 10.0685 3.36124C10.125 3.38757 10.3018 3.53051 10.4673 3.68474L10.7607 3.95933L10.7155 4.09851C10.5613 4.56872 10.9262 5.04268 11.3851 4.96745L11.5318 4.94488L11.7387 5.36994C11.8553 5.5994 11.9757 5.85143 12.0058 5.9229C12.0848 6.0997 12.2766 6.88588 12.3368 7.247C12.3932 7.61187 12.3594 8.77798 12.2841 9.10148C12.1261 9.77481 12.0095 10.1209 11.7989 10.5497C11.5544 11.0613 11.4077 11.2832 10.9901 11.7835C10.6779 12.1672 10.55 12.2876 10.0986 12.6525L9.7676 12.9195L7.42034 10.5723C6.13011 9.27827 5.07309 8.19869 5.07309 8.17236C5.07309 8.14602 5.10318 8.07832 5.1408 8.02565C5.23484 7.88647 9.88045 3.25215 9.92559 3.25215C9.94816 3.25215 9.9632 3.2672 9.9632 3.286Z" />
<path d="M9.33901 9.43634C8.8989 9.54166 8.63559 10.1059 8.83119 10.531C8.91395 10.7191 9.15469 10.941 9.34277 11.0012C9.54966 11.0689 9.86563 11.0275 10.0123 10.9147C10.2794 10.7115 10.3321 10.6363 10.3772 10.4219C10.475 9.9404 10.238 9.51533 9.81673 9.42505C9.58728 9.37615 9.58728 9.37615 9.33901 9.43634Z" />
<path d="M6.08886 3.7673C5.96849 3.8463 5.94592 3.88015 5.90078 4.03814C5.83683 4.26384 5.99858 4.53843 6.2318 4.60614C6.41236 4.65504 6.66062 4.54596 6.74337 4.38421C6.81861 4.24127 6.81861 4.00805 6.74337 3.89896C6.61172 3.71088 6.26942 3.64317 6.08886 3.7673Z" />
</svg>
