<svg width="18" height="20" viewBox="0 0 16 16" fill="none" xmlns="http://www.w3.org/2000/svg">
<path d="M8 0C12.4183 0 16 3.58172 16 8C16 12.4183 12.4183 16 8 16C3.58172 16 0 12.4183 0 8C0 3.58172 3.58172 0 8 0ZM8 0.564706C3.8936 0.564706 0.564706 3.8936 0.564706 8C0.564706 12.1064 3.8936 15.4353 8 15.4353C12.1064 15.4353 15.4353 12.1064 15.4353 8C15.4353 3.8936 12.1064 0.564706 8 0.564706Z"/>
<path d="M13.0418 4.84721V4.1205H10.7399C10.6163 3.65093 10.4928 3.23727 10.3581 2.85714L9.58328 2.9913C9.71803 3.32671 9.85278 3.70683 9.97629 4.1205H7.53961V4.84721H13.0418ZM7.1466 10.2472V5.60745H6.01248C6.24828 5.26087 6.48409 4.83603 6.7199 4.32174V3.78509H4.86712C4.96818 3.56149 5.05802 3.33789 5.14785 3.10311L4.4292 2.8795C4.09233 3.97516 3.56457 4.85839 2.85714 5.54037L3.02558 6.33416C3.17155 6.2 3.31753 6.06584 3.45228 5.9205V10.2472H7.1466ZM5.23768 5.60745H3.733C4.02495 5.24969 4.30568 4.84721 4.55271 4.42236H5.96756C5.72052 4.86957 5.48472 5.27205 5.23768 5.60745ZM9.86401 13.1429C10.4255 13.1429 10.7174 12.8298 10.7174 12.2149V9.02857H12.5028V5.85342H8.13475V9.02857H9.93138V12.0248C9.93138 12.3043 9.81909 12.4497 9.59451 12.4497C9.33624 12.4497 9.06675 12.4273 8.79726 12.3938L8.95446 13.1429H9.86401ZM4.97941 7.59752H4.14847V6.26708H4.97941V7.59752ZM6.45041 7.59752H5.63069V6.26708H6.45041V7.59752ZM11.7392 8.32422H8.89832V6.56894H11.7392V8.32422ZM6.45041 9.5764H5.63069V8.24596H6.45041V9.5764ZM4.97941 9.5764H4.14847V8.24596H4.97941V9.5764ZM12.5477 12.6286L13.1429 12.2149C12.8397 11.4994 12.413 10.6721 11.8515 9.72174L11.2564 10.0795C11.7954 11.0075 12.2333 11.8571 12.5477 12.6286ZM7.8428 12.8186C8.33687 12.0472 8.76357 11.1304 9.12289 10.0795L8.47162 9.76646C8.12352 10.7727 7.70805 11.6447 7.23643 12.3826L7.8428 12.8186ZM6.91079 12.0584L7.46101 11.9242C7.30381 11.3876 7.1466 10.918 6.96694 10.5155L6.43918 10.672C6.61884 11.1193 6.77604 11.5776 6.91079 12.0584ZM5.72052 12.7068L6.30443 12.6398C6.23706 11.7901 6.11354 11.1193 5.93387 10.6273L5.37243 10.6944C5.55209 11.164 5.66438 11.8348 5.72052 12.7068ZM3.5758 13.0087C3.8116 12.3491 3.95758 11.6 4.02495 10.7503L3.41859 10.672C3.36245 11.477 3.20524 12.1925 2.9582 12.8186L3.5758 13.0087ZM4.51903 12.8745L5.10293 12.8075C5.08047 11.9242 5.02433 11.2199 4.94573 10.7056L4.40674 10.7727C4.46288 11.2646 4.49657 11.9689 4.51903 12.8745Z"/>
</svg>
