<svg width="18" height="20" viewBox="0 0 16 11" fill="none" xmlns="http://www.w3.org/2000/svg">
<path opacity="0.95" d="M6.93333 0H1.6C1.17565 0 0.768688 0.168587 0.468629 0.46864C0.168571 0.768693 0 1.17568 0 1.6V9.06666C0.000608 9.40533 0.108651 9.73503 0.308581 10.0084C0.508506 10.2817 0.790005 10.4846 1.11256 10.5877C1.43511 10.6909 1.78208 10.6891 2.10352 10.5825C2.42496 10.4759 2.70432 10.2701 2.90133 9.99466L8.23466 2.528C8.40495 2.28885 8.50613 2.00741 8.52719 1.71456C8.54821 1.42171 8.48821 1.12875 8.35386 0.867679C8.21946 0.606666 8.01589 0.387627 7.76533 0.23456C7.51477 0.0815468 7.22693 0.000373333 6.93333 0ZM2.66666 3.73333C2.45568 3.73333 2.24949 3.67077 2.07406 3.55355C1.89864 3.43637 1.76193 3.26976 1.68119 3.07488C1.60046 2.87995 1.57934 2.66549 1.62049 2.45856C1.66165 2.25168 1.76324 2.0616 1.91242 1.91243C2.06159 1.76325 2.25168 1.66165 2.45856 1.62048C2.66549 1.57936 2.87994 1.60048 3.07488 1.68117C3.26976 1.76192 3.43637 1.89867 3.55354 2.07408C3.67077 2.24949 3.73333 2.45568 3.73333 2.66667C3.73333 2.94955 3.62096 3.22085 3.4209 3.4209C3.22085 3.62096 2.94954 3.73333 2.66666 3.73333Z" />
<path opacity="0.95" d="M10.9334 10.1335C11.6698 10.1335 12.2668 9.5365 12.2668 8.80013C12.2668 8.06376 11.6698 7.4668 10.9334 7.4668C10.1971 7.4668 9.6001 8.06376 9.6001 8.80013C9.6001 9.5365 10.1971 10.1335 10.9334 10.1335Z" />
<path opacity="0.95" d="M15.9998 1.6V9.06666C16.0004 9.46591 15.8517 9.85098 15.5829 10.1462C15.3141 10.4415 14.9447 10.6255 14.5471 10.6623C14.1495 10.6991 13.7526 10.5859 13.4342 10.3448C13.1158 10.1039 12.8991 9.75263 12.8265 9.35999C12.8094 9.26314 12.8005 9.16501 12.7998 9.06666V7.85066C12.7969 7.5129 12.6873 7.18474 12.4865 6.91312C12.2858 6.64149 12.0042 6.44037 11.6822 6.33856C11.3601 6.23674 11.0142 6.23946 10.6937 6.34629C10.3733 6.45312 10.095 6.65861 9.89847 6.93333L9.06647 8.10133L7.72781 9.97866C7.47245 10.3033 7.10151 10.5166 6.6925 10.574C6.28349 10.6315 5.86818 10.5285 5.53336 10.2867C5.19853 10.0448 4.97021 9.68293 4.89608 9.27663C4.822 8.87034 4.90786 8.45109 5.13581 8.10666L10.4691 0.64C10.6165 0.443413 10.8072 0.283466 11.0264 0.17248C11.2456 0.061493 11.4874 0.00245333 11.7331 0H14.3998C14.8241 0 15.2311 0.168587 15.5312 0.46864C15.8312 0.768693 15.9998 1.17568 15.9998 1.6Z" />
</svg>
