<svg width="18" height="20" viewBox="0 0 16 16" fill="none" xmlns="http://www.w3.org/2000/svg">
<path d="M7.99903 0C6.41677 0 4.87004 0.469183 3.55444 1.34824C2.23885 2.22729 1.21349 3.47671 0.60799 4.93852C0.00248814 6.40033 -0.155937 8.00886 0.152746 9.56071C0.461428 11.1126 1.22333 12.538 2.34215 13.6569C3.46097 14.7757 4.88646 15.5376 6.43831 15.8463C7.99016 16.155 9.59869 15.9965 11.0605 15.391C12.5223 14.7855 13.7718 13.7601 14.6508 12.4445C15.5299 11.129 15.9991 9.58225 15.9991 8C15.9991 5.87826 15.1562 3.84342 13.6559 2.34312C12.1556 0.84283 10.1208 0 7.99903 0ZM10.7962 11.9995H5.2024C4.88339 11.9995 4.57745 11.8728 4.35187 11.6472C4.12629 11.4216 3.99953 11.1157 3.99953 10.7967V5.20285C3.99953 4.88384 4.12629 4.57787 4.35187 4.35229C4.57745 4.12671 4.88339 3.99998 5.2024 3.99998H10.7962C11.1152 3.99998 11.4212 4.12671 11.6467 4.35229C11.8723 4.57787 11.9991 4.88384 11.9991 5.20285V10.7967C11.9991 11.1157 11.8723 11.4216 11.6467 11.6472C11.4212 11.8728 11.1152 11.9995 10.7962 11.9995Z"/>
</svg>
