<svg width="18" height="20" viewBox="0 0 16 16"  xmlns="http://www.w3.org/2000/svg">
<path d="M5.44484 11.9436L5.26807 12.0456V11.8433C5.26807 11.8433 5.26635 11.947 5.31313 11.973C5.35993 11.9972 5.44484 11.9436 5.44484 11.9436Z" />
<path d="M0.928955 11.7344C1.92018 13.6059 3.6167 15.0087 5.64422 15.6315C7.67172 16.2558 9.86558 16.0501 11.7407 15.0589C13.6173 14.0695 15.021 12.3761 15.6466 10.3523C16.2722 8.32846 16.0608 6.14038 15.0695 4.26709C15.9637 7.08135 12.8497 8.06901 12.8497 8.06901L9.08232 10.0358L5.16419 12.075C5.16419 12.075 2.4955 13.7893 0.928955 11.7344Z"/>
<path d="M0.905029 11.748C1.89625 13.6195 3.59278 15.0224 5.62029 15.645C7.6478 16.2695 9.84164 16.0637 11.7167 15.0726C13.5934 14.0832 14.9971 12.3898 15.6227 10.366C16.2483 8.34213 16.042 6.15405 15.049 4.28076C15.9433 7.09503 12.8258 8.08268 12.8258 8.08268L9.05838 10.0494L5.142 12.0887C5.14028 12.0887 2.47159 13.8029 0.905029 11.748Z" fill="url(#paint0_linear_37587_474803)"/>
<path d="M12.8704 7.92725L13.0315 8.01368L12.8027 8.09676C12.8027 8.09676 12.9206 8.05701 12.9363 8.01196C12.9535 7.96704 12.8704 7.92725 12.8704 7.92725Z" />
<path d="M15.118 11.6517C16.0867 9.76798 16.2652 7.57644 15.6153 5.55957C14.9655 3.54445 13.5392 1.86833 11.6521 0.901418C9.76325 -0.065511 7.56942 -0.243665 5.54884 0.404987C3.52826 1.05363 1.84907 2.47547 0.880371 4.36088C2.6774 2.01709 5.27678 4.00109 5.27678 4.00109L9.051 5.95742L12.9709 7.99157C12.9709 7.99157 15.9082 9.19198 15.118 11.6517Z" />
<path d="M15.0988 11.6428C16.0641 9.76431 16.2425 7.57968 15.5944 5.56973C14.9463 3.55979 13.5254 1.88886 11.6434 0.925401C9.76144 -0.0380575 7.5728 -0.216211 5.55915 0.430705C3.54378 1.07589 1.86978 2.496 0.904541 4.37448C2.69638 2.03762 5.28709 4.0147 5.28709 4.0147L9.04919 5.96411L12.957 7.99308C12.957 7.99308 15.8873 9.19003 15.0988 11.6428Z" fill="url(#paint1_linear_37587_474803)"/>
<path d="M5.26983 4.18931L5.26636 3.97656L5.45179 4.08034C5.45179 4.08034 5.35821 4.02499 5.30968 4.0544C5.26463 4.0838 5.26983 4.18931 5.26983 4.18931Z" />
<path d="M8.00086 0.019043C5.87978 0.019043 3.84361 0.859695 2.3429 2.35764C0.84219 3.85558 0 5.88629 0 8.00346C0 10.1206 0.84219 12.1531 2.3429 13.6494C3.84361 15.1472 5.87804 15.988 8.00086 15.988C5.27846 15.5312 5.27846 12.0095 5.27846 12.0095V8.00346V3.92478C5.27673 3.92478 5.27673 0.505098 8.00086 0.019043Z"/>
<path d="M8.00086 0C5.87804 0 3.84361 0.840652 2.3429 2.3386C0.84219 3.83654 0 5.86725 0 7.98617C0 10.1034 0.84219 12.1358 2.3429 13.632C3.84361 15.13 5.87804 15.9706 8.00086 15.9706C5.27846 15.1023 5.27846 12.0165 5.27846 12.0165V7.9948V3.99914C5.27673 3.99914 5.17794 0.517194 8.00086 0Z" fill="url(#paint2_linear_37587_474803)"/>
<path d="M7.98019 15.9861C5.27856 14.7579 5.28203 12.0146 5.28203 12.0146C5.28203 12.0146 1.93231 13.9 0.805909 11.4888C0.804174 11.4888 2.69306 16.0016 7.98019 15.9861Z"/>
<defs>
<linearGradient id="paint0_linear_37587_474803" x1="14.0199" y1="6.05117" x2="2.4013" y2="17.5447" gradientUnits="userSpaceOnUse">
<stop stop-opacity="0.6"/>
<stop offset="0.6555" stop-opacity="0"/>
</linearGradient>
<linearGradient id="paint1_linear_37587_474803" x1="2.94175" y1="4.20193" x2="18.9819" y2="7.15042" gradientUnits="userSpaceOnUse">
<stop stop-opacity="0.6"/>
<stop offset="0.6458" stop-opacity="0"/>
</linearGradient>
<linearGradient id="paint2_linear_37587_474803" x1="7.07462" y1="14.0777" x2="2.33185" y2="-0.558794" gradientUnits="userSpaceOnUse">
<stop stop-opacity="0.6"/>
<stop offset="0.6755" stop-opacity="0"/>
</linearGradient>
</defs>
</svg>
