<svg width="20" height="20" viewBox="0 0 14 14" fill="none" xmlns="http://www.w3.org/2000/svg">
<g clip-path="url(#clip0_33803_473769)">
<path d="M7 14C10.866 14 14 10.866 14 7C14 3.13401 10.866 0 7 0C3.13401 0 0 3.13401 0 7C0 10.866 3.13401 14 7 14Z" fill="white"/>
<path d="M4.95891 8.85897C4.54171 8.85897 4.20011 8.76097 3.93411 8.56497C3.67091 8.36617 3.53931 8.08057 3.53931 7.71377C3.53931 7.63537 3.54771 7.54297 3.56451 7.43097C3.60931 7.17897 3.67371 6.87657 3.75771 6.52097C3.99571 5.55777 4.61171 5.07617 5.60291 5.07617C5.87171 5.07617 6.11531 5.12097 6.32811 5.21337C6.54091 5.30017 6.70891 5.43457 6.83211 5.61377C6.95531 5.79017 7.01691 6.00017 7.01691 6.24377C7.01691 6.31657 7.00851 6.40897 6.99171 6.52097C6.93851 6.83177 6.87691 7.13697 6.80131 7.43097C6.67811 7.90977 6.46811 8.27097 6.16571 8.50897C5.86611 8.74417 5.46291 8.85897 4.95891 8.85897ZM5.03451 8.10297C5.23051 8.10297 5.39571 8.04417 5.53291 7.92937C5.67291 7.81457 5.77371 7.63817 5.83251 7.39737C5.91371 7.06697 5.97531 6.78137 6.01731 6.53497C6.03131 6.46217 6.03971 6.38657 6.03971 6.30817C6.03971 5.98897 5.87451 5.82937 5.54131 5.82937C5.34531 5.82937 5.17731 5.88817 5.03731 6.00297C4.90011 6.11777 4.80211 6.29417 4.74331 6.53497C4.67891 6.77017 4.61731 7.05577 4.55291 7.39737C4.53891 7.46737 4.53051 7.54017 4.53051 7.61857C4.52771 7.94337 4.69851 8.10297 5.03451 8.10297Z" fill="#6B93C0"/>
<path d="M7.26036 8.80859C7.22116 8.80859 7.19316 8.79739 7.17076 8.77219C7.15396 8.74419 7.14836 8.71339 7.15396 8.67699L7.87916 5.26099C7.88476 5.22179 7.90436 5.19099 7.93796 5.16579C7.96876 5.14059 8.00236 5.12939 8.03876 5.12939H9.43596C9.82516 5.12939 10.136 5.21059 10.3712 5.37019C10.6092 5.53259 10.7296 5.76499 10.7296 6.07019C10.7296 6.15699 10.7184 6.24939 10.6988 6.34459C10.612 6.74779 10.4356 7.04459 10.1668 7.23779C9.90356 7.43099 9.54236 7.52619 9.08316 7.52619H8.37476L8.13396 8.67699C8.12556 8.71619 8.10876 8.74699 8.07516 8.77219C8.04436 8.79739 8.01076 8.80859 7.97436 8.80859H7.26036ZM9.11956 6.80099C9.26796 6.80099 9.39396 6.76179 9.50316 6.68059C9.61516 6.59939 9.68796 6.48459 9.72436 6.33339C9.73556 6.27459 9.74116 6.22139 9.74116 6.17659C9.74116 6.07579 9.71036 5.99739 9.65156 5.94419C9.59276 5.88819 9.48916 5.86019 9.34636 5.86019H8.71636L8.51756 6.80099H9.11956V6.80099Z" fill="#6B93C0"/>
</g>
<defs>
<clipPath id="clip0_33803_473769">
<rect width="14" height="14" fill="white"/>
</clipPath>
</defs>
</svg>
