<svg width="16" height="16" viewBox="0 0 16 16" fill="white" xmlns="http://www.w3.org/2000/svg">
<path d="M7.38007 0C7.67528 0 7.91144 0.0597006 8.20664 0.0597006C8.67897 0.0597006 9.15129 0.119406 9.62362 0.119406C9.68266 0.119406 9.7417 0.119405 9.85978 0.179106C9.80074 0.238808 9.80074 0.238806 9.7417 0.298508C9.50554 0.417911 9.26937 0.597018 8.97417 0.716421C8.79705 0.776122 8.61993 0.776122 8.4428 0.716421C8.08856 0.537316 7.73432 0.358211 7.38007 0.179106C7.32103 0.119405 7.20295 0.119402 7.32103 0.0597006L7.38007 0ZM7.32103 10.4478C7.97048 10.3881 8.61993 10.3284 9.26937 10.209C9.32841 10.209 9.44649 10.1493 9.44649 10.0896C9.44649 10.0299 9.44649 9.91045 9.38745 9.85075C8.38376 8.65672 7.38007 7.46269 6.31734 6.26866C6.2583 6.20896 6.19926 6.14926 6.14022 6.14926C6.08118 6.14926 6.02214 6.26866 6.02214 6.32836C5.6679 7.64179 5.37269 8.95523 5.01845 10.2687C4.95941 10.5075 5.07749 10.6269 5.31365 10.5672C5.25461 10.6866 7.32103 10.4478 7.32103 10.4478ZM10.8044 5.31343C10.7454 5.31343 10.6273 5.31343 10.5683 5.31343L7.61624 5.61194C7.32103 5.67164 7.02583 5.67164 6.73063 5.73134C6.55351 5.73134 6.49447 5.85075 6.61255 6.02985L6.67159 6.08956L9.68266 9.67165L9.7417 9.73134C9.80074 9.79104 9.85978 9.79104 9.91882 9.73134C9.91882 9.73134 9.91882 9.67165 9.97786 9.67165C9.97786 9.61194 10.0369 9.61195 10.0369 9.55225L10.9225 6.14926C10.9815 5.97015 11.0406 5.73135 11.0406 5.55224C11.0406 5.43284 10.9816 5.31343 10.8044 5.31343ZM6.73063 5.37314L9.7417 5.07463C10.0369 5.01493 10.3911 5.01493 10.7454 4.95523C10.9225 4.95523 10.9815 4.83582 10.8635 4.65672L10.8044 4.59702L8.91513 1.79105C8.79705 1.55224 8.61993 1.61194 8.50185 1.79105C8.20664 2.32836 7.8524 2.92538 7.5572 3.46269L6.61255 5.13433C6.49447 5.31343 6.55351 5.43284 6.73063 5.43284V5.37314ZM8.50185 10.7463C7.43911 10.8657 6.43542 10.9851 5.37269 11.0448C5.13653 11.0448 5.07749 11.2239 5.19557 11.403C5.84502 12.3582 6.49446 13.3134 7.14391 14.2687C7.26199 14.4478 7.43911 14.4478 7.49816 14.2687C8.1476 13.1343 8.79705 12 9.44649 10.8657C9.50554 10.806 9.50554 10.7463 9.44649 10.6866C9.44649 10.6269 9.32841 10.6269 9.32841 10.6269L8.50185 10.7463ZM5.43173 6.08956C5.37269 6.08956 5.37269 6.08956 5.31365 6.14926L1.83026 7.52239C1.5941 7.64179 1.5941 7.76119 1.77122 7.9403C2.59779 8.71642 3.42435 9.49254 4.25092 10.2687C4.42804 10.4478 4.54612 10.3881 4.60517 10.1493L5.43173 6.92537C5.49078 6.68657 5.54982 6.44776 5.60886 6.20896C5.6679 6.08955 5.54982 6.02985 5.43173 6.08956ZM14.2288 8.05971C13.4022 7.28359 12.5756 6.50746 11.7491 5.73134C11.572 5.55224 11.4539 5.61194 11.3948 5.85075C11.1587 6.86567 10.8635 7.9403 10.6273 8.95523C10.5683 9.19404 10.5092 9.43284 10.4502 9.67165C10.4502 9.73135 10.4502 9.85075 10.4502 9.91045C10.5092 9.97015 10.6273 9.91045 10.6863 9.91045H10.7454L12.5756 9.19403L14.2288 8.53731C14.3469 8.47761 14.4059 8.47761 14.4059 8.29851C14.3469 8.17911 14.2878 8.11941 14.2288 8.05971ZM7.91144 1.43284L3.83764 2.32836C3.60148 2.38806 3.54244 2.50746 3.71956 2.68657C4.369 3.46269 5.01845 4.23881 5.72694 5.01493C5.90406 5.25373 6.02214 5.19403 6.19926 4.95523L8.08856 1.73134C8.08856 1.67164 8.1476 1.61194 8.1476 1.61194C8.20664 1.49254 8.1476 1.43284 8.02952 1.43284C7.97048 1.43284 7.91144 1.43284 7.91144 1.43284ZM12.2804 13.3731C11.631 12.597 10.9815 11.8209 10.3321 11.0448C10.155 10.806 9.97786 10.806 9.85978 11.1045C9.26937 12.1791 8.61993 13.2537 8.02952 14.3284C7.97048 14.3881 7.97048 14.5075 7.97048 14.6269C8.08856 14.6269 8.1476 14.6269 8.26568 14.6269C9.09225 14.4478 9.97786 14.2687 10.8044 14.0896L12.2804 13.791C12.3985 13.791 12.4576 13.6716 12.4576 13.6119C12.3985 13.4328 12.3395 13.3731 12.2804 13.3731ZM5.43173 5.25373C4.78229 4.47761 4.0738 3.64179 3.42435 2.86567C3.24723 2.68657 3.12915 2.68657 3.07011 2.92537C2.59779 4.23881 2.12546 5.55224 1.5941 6.86568C1.5941 6.92538 1.5941 6.98508 1.5941 7.10448C1.65314 7.10448 1.77122 7.10448 1.83026 7.10448C2.1845 6.98508 2.53875 6.80597 2.89299 6.68657L5.37269 5.67164C5.49078 5.67164 5.60886 5.55224 5.60886 5.43284C5.49077 5.37313 5.49078 5.31344 5.43173 5.25373ZM14.1697 8.89552C12.9889 9.37314 11.8081 9.85075 10.6863 10.3284C10.4502 10.4478 10.3911 10.5672 10.5683 10.7463L11.0406 11.3433C11.5129 11.9403 12.0443 12.5373 12.5166 13.1343C12.6937 13.3134 12.8118 13.3134 12.8708 13.0746V13.0149L14.2878 9.19403C14.2878 9.13433 14.3469 9.07463 14.3469 9.01493C14.3469 8.95522 14.2878 8.89552 14.2878 8.89552C14.2878 8.89552 14.2288 8.89552 14.1697 8.89552ZM14.524 7.52239L13.8155 3.64179C13.7565 3.40298 13.6384 3.34329 13.4613 3.52239L11.9262 4.83582C11.69 5.01493 11.69 5.19403 11.9262 5.37314L13.6384 6.98508C13.8745 7.22388 14.1107 7.46269 14.3469 7.64179C14.4059 7.70149 14.4059 7.70149 14.4649 7.70149L14.524 7.64179C14.524 7.58209 14.524 7.52239 14.524 7.52239ZM11.69 4.53731C12.2214 4.1194 12.6937 3.64179 13.2251 3.22388C13.4022 3.04478 13.4022 2.92538 13.1661 2.86567L10.8044 2.08955C10.3321 1.91045 9.91882 1.79105 9.44649 1.61194C9.38745 1.61194 9.32841 1.61194 9.26937 1.61194C9.26937 1.67164 9.26937 1.73134 9.32841 1.79105C9.38745 1.85075 9.44649 1.97015 9.50554 2.02985C10.0959 2.86567 10.6273 3.70149 11.2177 4.53731C11.2768 4.65672 11.3948 4.71642 11.5129 4.77612C11.572 4.65672 11.631 4.59701 11.69 4.53731ZM4.369 11.4627C4.25092 11.5821 4.13284 11.7015 3.95572 11.8209C3.54244 12.1791 3.18819 12.5373 2.77491 12.8358C2.59779 12.9552 2.65683 13.1343 2.83395 13.194H2.89299L4.19188 13.6716L6.55351 14.4478C6.61255 14.4478 6.67159 14.4478 6.73063 14.4478C6.73063 14.3881 6.73063 14.3284 6.67159 14.2687C6.02214 13.3134 5.43173 12.4179 4.78229 11.4627C4.72325 11.403 4.60517 11.3433 4.54613 11.2836C4.48708 11.3433 4.42804 11.403 4.369 11.4627ZM4.01476 10.6269C3.36531 10.0299 2.77491 9.43283 2.12546 8.83582C1.94834 8.71642 1.83026 8.53731 1.65314 8.41791C1.5941 8.41791 1.53506 8.35822 1.47601 8.35822C1.47601 8.41792 1.47601 8.47761 1.41697 8.53731V8.59702L1.53506 9.31343C1.71218 10.3881 1.8893 11.403 2.12546 12.4776C2.1845 12.7164 2.30258 12.7164 2.4797 12.597C3.01107 12.1194 3.54244 11.7015 4.0738 11.2239C4.13284 11.1642 4.19188 11.1045 4.19188 10.9851C4.19188 10.806 4.13284 10.6866 4.01476 10.6269ZM4.01476 1.85075C4.0738 1.85075 4.19188 1.85075 4.25092 1.85075L7.32103 1.19403C7.43911 1.13433 7.61624 1.13433 7.73432 1.07463C7.79336 1.07463 7.79336 1.01492 7.8524 0.955223C7.79336 0.895522 7.79336 0.895523 7.73432 0.835822H7.67528C7.26199 0.597016 6.84871 0.417912 6.37638 0.179106C6.19926 0.0597033 5.90406 0.119404 5.72694 0.238807C5.13653 0.716419 4.60517 1.19403 4.01476 1.61194C3.95572 1.67164 3.89668 1.67164 3.83764 1.73134L4.01476 1.85075ZM2.53875 3.10448C2.4797 3.10448 2.4797 3.16418 2.42066 3.16418C1.83026 3.70149 1.29889 4.17911 0.708487 4.71642C0.531365 4.83582 0.472325 5.07463 0.590406 5.25373C0.767528 5.73135 0.885609 6.20896 1.06273 6.68657C1.06273 6.74627 1.12177 6.80597 1.18081 6.80597C1.23985 6.74627 1.29889 6.74627 1.29889 6.68657L2.59779 3.22388C2.53875 3.22388 2.53875 3.16418 2.53875 3.10448ZM11.9852 14.209C11.9262 14.209 11.8672 14.209 11.8672 14.209C11.7491 14.209 11.631 14.2687 11.5129 14.2687L8.32472 14.9851C8.26568 14.9851 8.20664 15.0448 8.1476 15.1045C8.20664 15.1642 8.20664 15.2239 8.26568 15.2239C8.67897 15.4627 9.15129 15.7015 9.56458 15.8806C9.7417 16 9.97786 15.9403 10.155 15.8209C10.7454 15.3433 11.2768 14.8657 11.8672 14.3881C11.9262 14.3284 11.9852 14.2687 11.9852 14.209ZM13.5203 12.9552C13.5793 12.8955 13.6384 12.8955 13.6974 12.8358C14.2288 12.3582 14.7601 11.8209 15.3506 11.3433C15.5277 11.2239 15.5867 11.0448 15.5277 10.8657C15.3506 10.3284 15.1734 9.79105 14.9963 9.25374C14.9373 9.13433 14.8782 9.13433 14.8192 9.25374C14.8192 9.25374 14.7601 9.31344 14.7601 9.37314C14.3469 10.5075 13.9336 11.6418 13.5203 12.7761C13.5203 12.7761 13.4613 12.8358 13.5203 12.9552ZM1.71218 12C1.71218 11.9403 1.71218 11.8806 1.71218 11.8806C1.47601 10.7463 1.29889 9.61194 1.06273 8.47762C1.06273 8.41791 1.00369 8.35821 0.944649 8.29851C0.885609 8.35821 0.826568 8.35821 0.767528 8.41791C0.590406 8.65672 0.413284 8.95523 0.177122 9.19403C0 9.37314 0 9.67165 0.177122 9.85075C0.649446 10.5672 1.06273 11.2239 1.53506 11.9403C1.5941 11.9403 1.5941 12 1.71218 12ZM14.3469 4C14.3469 4.0597 14.3469 4.1194 14.3469 4.1194C14.524 5.25373 14.7601 6.38806 14.9373 7.58209C14.9373 7.6418 14.9963 7.7612 15.0554 7.7612C15.1144 7.7612 15.1734 7.70149 15.2325 7.64179C15.4096 7.40298 15.6458 7.10448 15.8229 6.86568C15.941 6.68657 15.941 6.44776 15.8229 6.26866C15.3506 5.55224 14.8782 4.83582 14.4649 4.1194C14.4059 4.0597 14.4059 4 14.3469 4ZM3.12915 13.791C3.18819 13.8507 3.18819 13.8507 3.24723 13.9104L5.13653 15.5821C5.31365 15.7612 5.54982 15.7612 5.72694 15.6418C5.90406 15.5224 6.08118 15.4627 6.2583 15.3433C6.37638 15.2836 6.49447 15.2239 6.61255 15.1642C6.67159 15.1045 6.73063 15.0448 6.73063 15.0448C6.73063 14.9851 6.67159 14.9254 6.61255 14.9254H6.55351L3.36531 13.8508C3.24723 13.7313 3.18819 13.7313 3.12915 13.791ZM12.8708 2.26866C12.8118 2.20896 12.8118 2.20895 12.7528 2.14925L10.8635 0.477614C10.6863 0.298509 10.4502 0.29851 10.2731 0.417913C9.97786 0.597018 9.68266 0.716418 9.38745 0.895523C9.32841 0.955224 9.26937 1.01493 9.26937 1.07463C9.32841 1.13433 9.38745 1.19403 9.44649 1.19403C10.5092 1.55224 11.572 1.97015 12.6937 2.32836C12.7528 2.26866 12.8118 2.26866 12.8708 2.26866ZM6.2583 15.8806C7.08487 15.9403 7.97048 16 8.85609 16C8.85609 15.9403 8.79705 15.8806 8.73801 15.8806C8.38376 15.7015 8.08856 15.5224 7.73432 15.3433C7.5572 15.2239 7.32103 15.2239 7.14391 15.3433C6.90775 15.4627 6.67159 15.5821 6.37638 15.7612C6.31734 15.7612 6.31734 15.8209 6.2583 15.8209V15.8806ZM0.295203 6.02985C0.295203 6.14925 0.236162 6.26866 0.236162 6.38806C0.177122 7.10448 0.118081 7.7612 0 8.47762C0 8.53732 0 8.59702 0 8.65672C0.0590406 8.59702 0.0590406 8.59701 0.118081 8.53731C0.295203 8.29851 0.472325 8.0597 0.649446 7.8209C0.767528 7.64179 0.767528 7.46269 0.708487 7.28359C0.590406 6.92538 0.472325 6.56717 0.354244 6.20896C0.354244 6.14926 0.295203 6.08956 0.295203 6.08956V6.02985ZM15.7048 10.0299C15.7048 9.97015 15.7638 9.91045 15.7638 9.85075C15.7638 9.61195 15.8229 9.37313 15.8229 9.13433C15.8819 8.59701 15.941 8.11941 16 7.58209C16 7.52239 16 7.46269 15.941 7.46269C15.8819 7.46269 15.8229 7.52239 15.8229 7.52239C15.6458 7.76119 15.4686 7.9403 15.3506 8.17911C15.2325 8.35821 15.1734 8.59702 15.2325 8.77612C15.3506 9.13433 15.4686 9.49254 15.5867 9.85075C15.6458 9.91045 15.6458 9.97015 15.7048 10.0299ZM14.2878 12.7761C13.9926 13.0746 13.6384 13.3731 13.3432 13.6716C13.2841 13.7313 13.2841 13.791 13.2841 13.8508C13.2841 13.9702 13.3432 14.0299 13.4613 13.9702C13.5203 13.9105 13.5793 13.8507 13.6384 13.791C13.7565 13.6119 13.9336 13.4328 14.0517 13.2537L14.2878 12.7761ZM3.30627 14.3284C3.01107 14.0299 2.71587 13.7313 2.4797 13.3731C2.42066 13.3731 2.36162 13.3731 2.30258 13.3731C2.24354 13.3731 2.1845 13.3731 2.1845 13.3731C2.1845 13.4328 2.1845 13.4925 2.1845 13.4925C2.24354 13.5522 2.30258 13.6119 2.36162 13.6716C2.59779 13.8507 2.83395 14.0299 3.07011 14.209C3.07011 14.2687 3.18819 14.3284 3.30627 14.3284ZM14.9373 4.23881V4.17911C14.7601 3.8209 14.583 3.46269 14.4059 3.10448C14.3469 2.98508 14.2878 2.86567 14.1697 2.98507C14.0517 3.10448 14.1107 3.16418 14.1697 3.28358C14.4059 3.58209 14.6421 3.8806 14.9373 4.23881ZM4.25092 1.01493C4.19188 1.01493 4.19188 1.01493 4.19188 1.07463L3.18819 1.61194C3.12915 1.61194 3.12915 1.67164 3.07011 1.67164C3.01107 1.73135 3.01107 1.79104 3.01107 1.85075C3.07011 1.85075 3.18819 1.91045 3.24723 1.85075C3.36531 1.79104 3.42435 1.73135 3.54244 1.67164C3.7786 1.43284 4.01476 1.25373 4.25092 1.01493ZM1.06273 11.8209C1.06273 11.8209 1.06273 11.8806 1.06273 11.8209C1.23985 12.2388 1.41697 12.597 1.65314 12.8955C1.65314 12.9552 1.71218 12.9552 1.77122 13.0149C1.83026 13.0746 1.8893 13.0746 1.94834 13.0746L2.00738 12.9552C2.00738 12.8955 1.94834 12.7761 1.8893 12.7164C1.77122 12.5373 1.65314 12.4179 1.53506 12.2388L1.06273 11.8209ZM1.71218 3.22388C1.77122 3.16418 1.83026 3.10448 1.8893 3.04478C2.12546 2.80597 2.36162 2.56717 2.59779 2.32836C2.65683 2.26866 2.71587 2.14926 2.65683 2.02985C2.53875 1.97015 2.4797 2.02985 2.42066 2.14925C2.1845 2.50746 1.94834 2.86567 1.71218 3.22388ZM11.7491 15.0448H11.8081C12.1624 14.8657 12.5166 14.6866 12.8708 14.5075C12.9299 14.4478 12.9889 14.4478 12.9889 14.3881C12.9889 14.3284 12.9889 14.3284 12.9889 14.2687C12.9889 14.209 12.9299 14.209 12.8708 14.209C12.7528 14.209 12.6937 14.2687 12.6347 14.3284C12.3985 14.5075 12.1624 14.6866 11.9852 14.8657C11.8672 14.8657 11.8081 14.9254 11.7491 15.0448ZM12.7528 1.67164C13.048 2.02985 13.2841 2.26866 13.5203 2.56717C13.5793 2.62687 13.6384 2.62687 13.6974 2.68657C13.7565 2.68657 13.8155 2.68657 13.8155 2.68657C13.8155 2.62687 13.8155 2.56717 13.8155 2.50747C13.7565 2.44776 13.6974 2.38806 13.6384 2.32836C13.4022 2.14926 13.1661 1.97015 12.8708 1.79105L12.7528 1.67164Z" />
</svg>
