<svg width="15" height="16" viewBox="0 0 15 16" fill="none" xmlns="http://www.w3.org/2000/svg">
<path d="M14.624 2.8284C14.4611 2.2012 13.9376 1.57397 12.9953 0.875741C12.239 0.319527 11.4363 0 10.7964 0C10.6685 0 10.5521 0.0118334 10.4358 0.0355034C10.1449 0.0946735 9.88896 0.307694 9.7261 0.627221C9.52833 1.00592 9.4818 1.5148 9.60976 1.8225C9.6563 1.91717 9.71446 2.0355 9.78426 2.142C9.16766 2.5207 8.81863 2.62724 8.77209 2.63907C10.3776 3.18344 11.7155 4.31954 12.5532 5.79881L12.5648 5.65681C12.5997 5.26627 12.716 4.81657 12.8789 4.35504C13.0418 4.40237 13.2047 4.42604 13.3675 4.42604C13.798 4.42604 14.1703 4.24854 14.403 3.929C14.6356 3.60947 14.7287 3.18344 14.624 2.8284Z" fill="white"/>
<path d="M12.9487 4.01188C14.0074 4.30774 14.4379 3.47934 14.2983 2.92314C14.147 2.36691 13.6584 1.79887 12.7975 1.15981C11.9366 0.52076 11.064 0.260407 10.5056 0.37875C9.94717 0.497094 9.78426 1.36101 9.9239 1.69237C9.98207 1.82254 10.11 2.01187 10.2845 2.22491C10.0635 2.37874 9.85407 2.49711 9.67957 2.60361C10.7499 3.08881 11.6806 3.84621 12.3787 4.79294C12.4601 4.47341 12.5764 4.18941 12.6811 3.94088C12.7626 3.95271 12.8557 3.97638 12.9487 4.01188Z" fill="url(#paint0_radial_18003_421999)"/>
<path d="M6.88733 15.6094C10.4791 15.6094 13.3907 12.6476 13.3907 8.99407C13.3907 5.34046 10.4791 2.37866 6.88733 2.37866C3.29559 2.37866 0.383911 5.34046 0.383911 8.99407C0.383911 12.6476 3.29559 15.6094 6.88733 15.6094Z" fill="url(#paint1_radial_18003_421999)"/>
<path opacity="0.6" d="M13.7631 2.3787C12.8789 1.43197 12.1344 1.18344 11.2385 0.982254C10.5405 0.816574 10.7266 0.414206 11.5759 0.497046C11.1687 0.355036 10.7848 0.319533 10.5056 0.378703C9.94718 0.497046 9.78428 1.36097 9.92391 1.6923C9.98208 1.8225 10.11 2.01183 10.2845 2.22487C9.97045 2.43787 9.70285 2.59174 9.48181 2.71007C9.58651 2.7574 9.71448 2.81657 9.86574 2.8994C10.2613 3.11244 10.6917 3.46747 10.6917 3.46747C10.0402 2.8994 10.1798 2.63907 11.0757 2C11.3549 1.79883 11.8668 1.8225 12.3438 2.071C12.8208 2.31953 13.3792 2.94677 13.3792 2.94677L12.844 3.98817C12.8789 4 12.9138 4.01184 12.9487 4.02367C13.2861 4.11834 13.5537 4.09467 13.7631 4.01184C14.0074 3.858 14.6473 3.3373 13.7631 2.3787Z" fill="#DCDCDC"/>
<path d="M11.2269 1.55028C11.4596 1.64495 11.7621 1.81061 12.1344 2.05915C12.5765 2.35501 12.9604 2.68635 13.2047 2.94672C12.7975 3.49108 12.5299 4.23665 12.367 4.75738C12.4485 4.87572 12.5415 4.99405 12.623 5.11238C12.7044 4.81655 12.844 4.37868 13.0302 3.94078C13.0767 3.95265 13.1349 3.95265 13.1931 3.95265C13.3327 3.95265 13.4955 3.92895 13.6235 3.82245C13.7166 3.75145 13.8213 3.62128 13.8097 3.38458C13.8097 3.15975 13.6351 2.87572 13.2745 2.53251C13.0185 2.28398 12.6695 2.01181 12.3205 1.76328C11.32 1.08873 10.6219 0.899376 10.3078 1.2189C10.0984 1.43191 10.1217 1.69228 10.1915 1.88161C9.81919 2.13015 9.50505 2.30765 9.29565 2.42601C9.43525 2.47335 9.56322 2.53251 9.70285 2.59168C10.0751 2.39051 10.6103 2.04731 11.2269 1.55028ZM13.4257 3.24258C13.4606 3.30175 13.4723 3.36092 13.4723 3.39642C13.4723 3.50292 13.4374 3.53845 13.4141 3.56212C13.3676 3.59762 13.2745 3.62128 13.1931 3.62128C13.2629 3.47925 13.3443 3.36092 13.4257 3.24258ZM10.5521 1.47925C10.587 1.44375 10.6801 1.42008 10.8314 1.44375C10.715 1.53845 10.5987 1.62128 10.4823 1.70411C10.4707 1.62128 10.4823 1.53845 10.5521 1.47925Z" fill="white"/>
<path d="M6.88734 1.98816C3.083 1.98816 0 5.12426 0 8.9941C0 12.8639 3.083 16 6.88734 16C10.6917 16 13.7747 12.8639 13.7747 8.9941C13.7747 5.12426 10.68 1.98816 6.88734 1.98816ZM6.88734 15.6095C3.29244 15.6095 0.383924 12.6509 0.383924 8.9941C0.383924 5.3373 3.29244 2.37869 6.88734 2.37869C10.4822 2.37869 13.3907 5.3373 13.3907 8.9941C13.3907 12.6509 10.4706 15.6095 6.88734 15.6095Z" fill="white"/>
<path opacity="0.6" d="M6.88733 15.6094C10.4791 15.6094 13.3907 12.6476 13.3907 8.99407C13.3907 5.34046 10.4791 2.37866 6.88733 2.37866C3.29559 2.37866 0.383911 5.34046 0.383911 8.99407C0.383911 12.6476 3.29559 15.6094 6.88733 15.6094Z" fill="url(#paint2_linear_18003_421999)"/>
<path opacity="0.6" d="M6.84083 14.8048C3.29242 14.2249 0.884187 10.8284 1.46589 7.21897C1.72185 5.62134 2.51296 4.26037 3.62982 3.27814C2.00105 4.2367 0.79112 5.90534 0.46537 7.94088C-0.104697 11.5503 2.30355 14.9468 5.84029 15.5266C7.81806 15.858 9.72606 15.2308 11.1338 14C9.88893 14.7337 8.37649 15.0533 6.84083 14.8048Z" fill="#DCDCDC"/>
<path opacity="0.6" d="M7.92272 2.47342C6.28232 2.20122 4.68845 2.57992 3.38545 3.42015C3.36218 3.44382 3.33891 3.46749 3.33891 3.46749C3.83918 3.15982 4.57212 2.88762 4.57212 2.88762C2.68741 4.00005 2.10571 5.26632 2.10571 5.26632C2.83865 3.82252 4.99095 2.80479 6.67788 2.73375C8.36482 2.66275 9.47005 3.17165 10.8196 4.27222C12.1691 5.38466 12.9835 7.65686 12.9021 9.45566C12.8323 11.2545 11.9016 12.7101 11.9016 12.7101C12.5414 11.8699 12.9254 11.2545 13.1697 10.6273C13.2162 10.4379 13.2627 10.2486 13.286 10.0474C13.8677 6.44976 11.4711 3.05329 7.92272 2.47342Z" fill="url(#paint3_linear_18003_421999)"/>
<path d="M13.065 8.93494C13.065 12.4024 10.2961 15.219 6.8873 15.219C3.47853 15.219 0.697998 12.4024 0.697998 8.93494H13.065Z" fill="url(#paint4_linear_18003_421999)"/>
<g opacity="0.6">
<path opacity="0.6" d="M12.5764 8.93494C12.5764 12.3195 9.94714 15.0888 6.64307 15.219C6.72453 15.219 6.80597 15.219 6.8874 15.219C10.2962 15.219 13.0651 12.4024 13.0651 8.93494H12.5764Z" fill="url(#paint5_linear_18003_421999)"/>
</g>
<g opacity="0.7">
<path opacity="0.7" d="M1.57057 8.93494H0.697998C0.697998 12.4024 3.4669 15.219 6.87567 15.219C7.0269 15.219 7.16651 15.219 7.30614 15.2071C4.10677 14.9704 1.57057 12.2485 1.57057 8.93494Z" fill="url(#paint6_linear_18003_421999)"/>
</g>
<path d="M13.0533 8.99405C13.0533 8.27218 11.8201 7.85798 10.1797 7.71595C8.99307 7.62128 7.79474 7.73962 6.42194 8.16565C5.23527 8.52068 4.16493 8.46152 3.38547 8.36685C1.652 8.16565 0.697998 8.14198 0.697998 8.99405C0.697998 10.2248 3.1644 11.7633 6.86404 11.2308C8.73711 10.9586 9.70274 10.4024 10.808 10.0237C12.0063 9.62129 13.0533 9.63312 13.0533 8.99405Z" fill="url(#paint7_linear_18003_421999)"/>
<path d="M8.91169 6.01182C9.48996 6.01182 9.95876 5.53495 9.95876 4.94672C9.95876 4.35849 9.48996 3.88165 8.91169 3.88165C8.33342 3.88165 7.86462 4.35849 7.86462 4.94672C7.86462 5.53495 8.33342 6.01182 8.91169 6.01182Z" fill="white"/>
<path d="M10.6219 6.80477C10.8661 6.80477 11.064 6.6034 11.064 6.35507C11.064 6.1067 10.8661 5.90533 10.6219 5.90533C10.3777 5.90533 10.1798 6.1067 10.1798 6.35507C10.1798 6.6034 10.3777 6.80477 10.6219 6.80477Z" fill="white"/>
<g opacity="0.6">
<path opacity="0.6" d="M12.2041 4.09466C12.1925 4.09466 12.1808 4.09466 12.1808 4.09466C12.111 4.08283 12.0645 4.01183 12.0761 3.929C12.1808 3.3846 12.6229 2.86389 12.6462 2.84023C12.6927 2.78106 12.7858 2.78106 12.8323 2.82839C12.8905 2.87573 12.8905 2.97039 12.844 3.01773C12.8323 3.02956 12.4251 3.5148 12.3321 3.98816C12.3204 4.05916 12.2623 4.09466 12.2041 4.09466Z" fill="url(#paint8_linear_18003_421999)"/>
</g>
<path opacity="0.2" d="M6.4576 13.929C6.6375 13.929 6.78337 13.7807 6.78337 13.5977C6.78337 13.4147 6.6375 13.2663 6.4576 13.2663C6.2777 13.2663 6.13184 13.4147 6.13184 13.5977C6.13184 13.7807 6.2777 13.929 6.4576 13.929Z" fill="white"/>
<g opacity="0.4">
<path opacity="0.6" d="M6.2708 13.811C6.14284 13.6808 6.14284 13.4678 6.2708 13.3376C6.29407 13.3139 6.31734 13.3021 6.3406 13.2784C6.29407 13.2903 6.25917 13.3139 6.22427 13.3494C6.0963 13.4796 6.0963 13.6926 6.22427 13.8228C6.32897 13.9293 6.49184 13.953 6.61984 13.882C6.50347 13.9293 6.36387 13.9057 6.2708 13.811Z" fill="url(#paint9_linear_18003_421999)"/>
</g>
<path opacity="0.3" d="M6.57322 13.5029C6.61178 13.5029 6.64305 13.4711 6.64305 13.4319C6.64305 13.3927 6.61178 13.3609 6.57322 13.3609C6.53468 13.3609 6.50342 13.3927 6.50342 13.4319C6.50342 13.4711 6.53468 13.5029 6.57322 13.5029Z" fill="white"/>
<path opacity="0.2" d="M8.15621 13.7633C8.33611 13.7633 8.48194 13.615 8.48194 13.432C8.48194 13.249 8.33611 13.1006 8.15621 13.1006C7.97631 13.1006 7.83044 13.249 7.83044 13.432C7.83044 13.615 7.97631 13.7633 8.15621 13.7633Z" fill="white"/>
<g opacity="0.4">
<path opacity="0.6" d="M7.96929 13.6453C7.84132 13.5152 7.84132 13.3021 7.96929 13.172C7.99256 13.1483 8.01582 13.1365 8.03909 13.1128C7.99256 13.1246 7.95766 13.1483 7.92276 13.1838C7.79479 13.314 7.79479 13.527 7.92276 13.6572C8.02746 13.7637 8.19033 13.7874 8.31833 13.7163C8.20196 13.7637 8.06236 13.74 7.96929 13.6453Z" fill="url(#paint10_linear_18003_421999)"/>
</g>
<path opacity="0.3" d="M8.27183 13.3373C8.31039 13.3373 8.34163 13.3055 8.34163 13.2663C8.34163 13.227 8.31039 13.1953 8.27183 13.1953C8.23329 13.1953 8.20203 13.227 8.20203 13.2663C8.20203 13.3055 8.23329 13.3373 8.27183 13.3373Z" fill="white"/>
<path opacity="0.2" d="M7.31779 14.5325C7.45272 14.5325 7.56212 14.4212 7.56212 14.284C7.56212 14.1467 7.45272 14.0355 7.31779 14.0355C7.18285 14.0355 7.07349 14.1467 7.07349 14.284C7.07349 14.4212 7.18285 14.5325 7.31779 14.5325Z" fill="white"/>
<g opacity="0.4">
<path opacity="0.6" d="M7.17819 14.4382C7.08512 14.3435 7.08512 14.1779 7.17819 14.0832C7.18982 14.0713 7.21309 14.0595 7.22472 14.0477C7.18982 14.0595 7.16655 14.0832 7.14329 14.1069C7.05022 14.2015 7.05022 14.3672 7.14329 14.4619C7.22472 14.5447 7.34105 14.5566 7.44575 14.4974C7.35269 14.5329 7.24799 14.5092 7.17819 14.4382Z" fill="url(#paint11_linear_18003_421999)"/>
</g>
<path opacity="0.3" d="M7.39932 14.2012C7.42502 14.2012 7.44585 14.18 7.44585 14.1538C7.44585 14.1277 7.42502 14.1065 7.39932 14.1065C7.37362 14.1065 7.35278 14.1277 7.35278 14.1538C7.35278 14.18 7.37362 14.2012 7.39932 14.2012Z" fill="white"/>
<path opacity="0.2" d="M8.81864 14.355C8.95357 14.355 9.06297 14.2437 9.06297 14.1065C9.06297 13.9692 8.95357 13.858 8.81864 13.858C8.68371 13.858 8.57434 13.9692 8.57434 14.1065C8.57434 14.2437 8.68371 14.355 8.81864 14.355Z" fill="white"/>
<g opacity="0.4">
<path opacity="0.6" d="M8.67904 14.2607C8.58597 14.166 8.58597 14.0003 8.67904 13.9056C8.69067 13.8938 8.71394 13.882 8.72557 13.8701C8.69067 13.882 8.66741 13.9056 8.64414 13.9293C8.55107 14.024 8.55107 14.1897 8.64414 14.2843C8.72557 14.3672 8.84191 14.379 8.94661 14.3198C8.85354 14.3553 8.74884 14.3317 8.67904 14.2607Z" fill="url(#paint12_linear_18003_421999)"/>
</g>
<path opacity="0.3" d="M8.90005 14.0237C8.92575 14.0237 8.94658 14.0025 8.94658 13.9764C8.94658 13.9502 8.92575 13.929 8.90005 13.929C8.87435 13.929 8.85352 13.9502 8.85352 13.9764C8.85352 14.0025 8.87435 14.0237 8.90005 14.0237Z" fill="white"/>
<path opacity="0.2" d="M5.0724 13.8107C5.36793 13.8107 5.60753 13.567 5.60753 13.2663C5.60753 12.9657 5.36793 12.7219 5.0724 12.7219C4.77683 12.7219 4.53723 12.9657 4.53723 13.2663C4.53723 13.567 4.77683 13.8107 5.0724 13.8107Z" fill="white"/>
<g opacity="0.4">
<path opacity="0.6" d="M4.77019 13.6095C4.56079 13.3965 4.56079 13.0533 4.77019 12.8403C4.80512 12.8048 4.84002 12.7811 4.88655 12.7574C4.81675 12.7811 4.75855 12.8284 4.70039 12.8758C4.49098 13.0888 4.49098 13.432 4.70039 13.645C4.87492 13.8225 5.14249 13.858 5.35189 13.7278C5.15412 13.8107 4.92145 13.7752 4.77019 13.6095Z" fill="url(#paint13_linear_18003_421999)"/>
</g>
<path opacity="0.3" d="M5.25855 13.1006C5.32281 13.1006 5.37491 13.0476 5.37491 12.9823C5.37491 12.9169 5.32281 12.8639 5.25855 12.8639C5.19431 12.8639 5.14221 12.9169 5.14221 12.9823C5.14221 13.0476 5.19431 13.1006 5.25855 13.1006Z" fill="white"/>
<path opacity="0.2" d="M9.85438 12.4734C10.1499 12.4734 10.3895 12.2297 10.3895 11.929C10.3895 11.6283 10.1499 11.3846 9.85438 11.3846C9.55881 11.3846 9.31921 11.6283 9.31921 11.929C9.31921 12.2297 9.55881 12.4734 9.85438 12.4734Z" fill="white"/>
<g opacity="0.4">
<path opacity="0.6" d="M9.53986 12.2722C9.33043 12.0592 9.33043 11.716 9.53986 11.5029C9.57476 11.4674 9.60966 11.4438 9.6562 11.4201C9.5864 11.4438 9.52823 11.4911 9.47006 11.5384C9.26063 11.7515 9.26063 12.0947 9.47006 12.3077C9.64456 12.4852 9.91213 12.5207 10.1216 12.3905C9.92376 12.4734 9.70273 12.4379 9.53986 12.2722Z" fill="url(#paint14_linear_18003_421999)"/>
</g>
<path opacity="0.3" d="M10.0402 11.7634C10.1044 11.7634 10.1565 11.7104 10.1565 11.645C10.1565 11.5796 10.1044 11.5267 10.0402 11.5267C9.97593 11.5267 9.92383 11.5796 9.92383 11.645C9.92383 11.7104 9.97593 11.7634 10.0402 11.7634Z" fill="white"/>
<defs>
<radialGradient id="paint0_radial_18003_421999" cx="0" cy="0" r="1" gradientUnits="userSpaceOnUse" gradientTransform="translate(14.0861 2.17754) scale(5.19974 5.28927)">
<stop stop-color="#FFEAFF" stop-opacity="0.6"/>
<stop offset="0.6807" stop-color="white"/>
<stop offset="1" stop-color="white"/>
</radialGradient>
<radialGradient id="paint1_radial_18003_421999" cx="0" cy="0" r="1" gradientUnits="userSpaceOnUse" gradientTransform="translate(11.1931 4.43326) scale(12.7219 12.941)">
<stop stop-color="#FFEAFF" stop-opacity="0.6"/>
<stop offset="0.6807" stop-color="white"/>
<stop offset="1" stop-color="white"/>
</radialGradient>
<linearGradient id="paint2_linear_18003_421999" x1="5.84413" y1="15.5156" x2="7.9946" y2="2.47313" gradientUnits="userSpaceOnUse">
<stop stop-color="#81FFFF"/>
<stop offset="0.6202" stop-color="white" stop-opacity="0"/>
</linearGradient>
<linearGradient id="paint3_linear_18003_421999" x1="11.4705" y1="4.50142" x2="6.00902" y2="9.42769" gradientUnits="userSpaceOnUse">
<stop offset="0.2888" stop-color="white"/>
<stop offset="0.7796" stop-color="white" stop-opacity="0"/>
</linearGradient>
<linearGradient id="paint4_linear_18003_421999" x1="0.703231" y1="12.0733" x2="13.062" y2="12.0733" gradientUnits="userSpaceOnUse">
<stop stop-color="#96B9FF"/>
<stop offset="0.9952" stop-color="#D1EBFF"/>
</linearGradient>
<linearGradient id="paint5_linear_18003_421999" x1="13.6471" y1="9.48634" x2="6.81203" y2="15.8365" gradientUnits="userSpaceOnUse">
<stop offset="0.2888" stop-color="white"/>
<stop offset="0.7796" stop-color="white" stop-opacity="0"/>
</linearGradient>
<linearGradient id="paint6_linear_18003_421999" x1="0.703231" y1="12.0733" x2="7.31511" y2="12.0733" gradientUnits="userSpaceOnUse">
<stop stop-color="#A8CFF0"/>
<stop offset="0.9952" stop-color="#D1EBFF"/>
</linearGradient>
<linearGradient id="paint7_linear_18003_421999" x1="0.711531" y1="9.51612" x2="13.0537" y2="9.51612" gradientUnits="userSpaceOnUse">
<stop stop-color="#A8CFF0"/>
<stop offset="0.9952" stop-color="#D1EBFF"/>
</linearGradient>
<linearGradient id="paint8_linear_18003_421999" x1="12.8512" y1="2.78259" x2="11.942" y2="4.235" gradientUnits="userSpaceOnUse">
<stop offset="0.2888" stop-color="white"/>
<stop offset="0.7796" stop-color="white" stop-opacity="0"/>
</linearGradient>
<linearGradient id="paint9_linear_18003_421999" x1="6.12797" y1="13.6081" x2="6.62017" y2="13.6081" gradientUnits="userSpaceOnUse">
<stop offset="0.2888" stop-color="white"/>
<stop offset="0.7796" stop-color="white" stop-opacity="0"/>
</linearGradient>
<linearGradient id="paint10_linear_18003_421999" x1="7.82526" y1="13.4402" x2="8.31749" y2="13.4402" gradientUnits="userSpaceOnUse">
<stop offset="0.2888" stop-color="white"/>
<stop offset="0.7796" stop-color="white" stop-opacity="0"/>
</linearGradient>
<linearGradient id="paint11_linear_18003_421999" x1="7.07195" y1="14.2872" x2="7.44149" y2="14.2872" gradientUnits="userSpaceOnUse">
<stop offset="0.2888" stop-color="white"/>
<stop offset="0.7796" stop-color="white" stop-opacity="0"/>
</linearGradient>
<linearGradient id="paint12_linear_18003_421999" x1="8.56777" y1="14.1092" x2="8.93731" y2="14.1092" gradientUnits="userSpaceOnUse">
<stop offset="0.2888" stop-color="white"/>
<stop offset="0.7796" stop-color="white" stop-opacity="0"/>
</linearGradient>
<linearGradient id="paint13_linear_18003_421999" x1="4.53798" y1="13.2802" x2="5.34185" y2="13.2802" gradientUnits="userSpaceOnUse">
<stop offset="0.2888" stop-color="white"/>
<stop offset="0.7796" stop-color="white" stop-opacity="0"/>
</linearGradient>
<linearGradient id="paint14_linear_18003_421999" x1="9.3121" y1="11.9424" x2="10.116" y2="11.9424" gradientUnits="userSpaceOnUse">
<stop offset="0.2888" stop-color="white"/>
<stop offset="0.7796" stop-color="white" stop-opacity="0"/>
</linearGradient>
</defs>
</svg>
