<svg width="13" height="20" viewBox="0 0 13 20" fill="none" xmlns="http://www.w3.org/2000/svg">
<path d="M4.45463 13.0227H5.3741C6.23347 13.0227 6.8765 12.8544 7.30319 12.5179C7.72989 12.1753 7.94319 11.6796 7.94319 11.0305C7.94319 10.3755 7.76289 9.89173 7.40234 9.57919C7.04778 9.26673 6.48888 9.1105 5.72566 9.1105H4.45463V13.0227ZM10.7647 10.9313C10.7647 12.3497 10.32 13.4343 9.43058 14.1856C8.54719 14.9368 7.28816 15.3123 5.65355 15.3123H4.45463V19.9999H1.66016V6.8208H5.86989C7.46845 6.8208 8.68243 7.16635 9.51173 7.85742C10.347 8.54258 10.7647 9.56719 10.7647 10.9313Z" />
<path d="M11.5391 2.30762H1.53906V4.61531H11.5391V2.30762Z" />
</svg>
