<svg width="13" height="17" viewBox="0 0 13 17" fill="#6A4BFF" xmlns="http://www.w3.org/2000/svg">
<path d="M6.56051 0.00366211C4.82265 0.0103737 3.15793 0.691877 1.92907 1.89967C0.700215 3.10747 0.00682857 4.74366 0 6.45173C0.000146324 7.16349 0.116888 7.87058 0.345745 8.54587C0.428156 8.76716 0.593673 8.94903 0.808285 9.05411C1.0229 9.15918 1.2703 9.17947 1.49967 9.11082C1.72132 9.02743 1.90234 8.86419 2.0059 8.65429C2.10947 8.4444 2.1278 8.20362 2.05718 7.98092C1.86282 7.45482 1.77617 6.89616 1.80219 6.33704C1.82987 5.43552 2.12362 4.56135 2.6477 3.82097C3.17177 3.08059 3.90356 2.50594 4.75395 2.16698C5.60434 1.82803 6.53666 1.73939 7.43739 1.91187C8.33811 2.08434 9.16839 2.51049 9.82712 3.13842C10.4859 3.76634 10.9446 4.56897 11.1476 5.44857C11.3506 6.32816 11.289 7.24678 10.9703 8.09258C10.6516 8.93838 10.0896 9.67487 9.35269 10.2124C8.61579 10.7499 7.73578 11.0652 6.81981 11.12C6.81981 11.12 5.89927 11.1752 5.44116 11.2304C5.27243 11.2544 5.10509 11.287 4.93983 11.3281C4.93419 11.3338 4.92747 11.3383 4.92005 11.3413C4.91263 11.3444 4.90466 11.346 4.89661 11.346C4.88856 11.346 4.88059 11.3444 4.87317 11.3413C4.86575 11.3383 4.85902 11.3338 4.85339 11.3281C4.84533 11.3178 4.84096 11.3051 4.84096 11.292C4.84096 11.279 4.84533 11.2663 4.85339 11.2559L4.99601 10.4913L5.86037 6.66837C5.91023 6.43911 5.86539 6.19977 5.73571 6.00301C5.60603 5.80625 5.40214 5.66818 5.16888 5.61917C4.93563 5.57017 4.69212 5.61424 4.49193 5.7417C4.29174 5.86915 4.15126 6.06955 4.1014 6.29881C4.1014 6.29881 2.04422 15.6566 2.04422 15.7415C2.0159 15.8509 2.01004 15.9647 2.02697 16.0763C2.04391 16.188 2.0833 16.2951 2.14285 16.3916C2.20239 16.4881 2.2809 16.572 2.37379 16.6383C2.46668 16.7046 2.57208 16.7521 2.68384 16.778H2.73138C2.84324 16.8064 2.95976 16.8125 3.07405 16.7959C3.18835 16.7793 3.29809 16.7403 3.3968 16.6813C3.49552 16.6223 3.58119 16.5445 3.64876 16.4524C3.71634 16.3602 3.76444 16.2558 3.79023 16.1451C3.78858 16.131 3.78858 16.1167 3.79023 16.1026C3.81616 15.9922 4.07547 14.7476 4.07547 14.7476C4.17143 14.2888 4.40799 13.8699 4.75335 13.5472C5.0987 13.2244 5.53629 13.0133 6.00731 12.9423C6.20612 12.9125 7.04023 12.8573 7.04023 12.8573C8.69967 12.6947 10.2337 11.9166 11.33 10.6815C12.4264 9.4464 13.0026 7.84708 12.9415 6.20908C12.8804 4.57109 12.1865 3.01755 11.001 1.86471C9.81552 0.71186 8.22762 0.046356 6.56051 0.00366211V0.00366211Z" />
</svg>
