<svg width="18" height="20" viewBox="0 0 16 14" fill="none" xmlns="http://www.w3.org/2000/svg">
<path d="M12.0833 4.25016C11.7917 4.0835 11.4167 4.0835 11.0833 4.25016L8.75 5.62516L7.16667 6.50016L4.875 7.87516C4.58333 8.04183 4.20833 8.04183 3.875 7.87516L2.08333 6.79183C1.79167 6.62516 1.58333 6.29183 1.58333 5.91683V3.8335C1.58333 3.50016 1.75 3.16683 2.08333 2.9585L3.875 1.91683C4.16667 1.75016 4.54167 1.75016 4.875 1.91683L6.66667 3.00016C6.95833 3.16683 7.16667 3.50016 7.16667 3.87516V5.25016L8.75 4.3335V2.91683C8.75 2.5835 8.58333 2.25016 8.25 2.04183L4.91667 0.0834961C4.625 -0.0831706 4.25 -0.0831706 3.91667 0.0834961L0.5 2.0835C0.166667 2.25016 0 2.5835 0 2.91683V6.8335C0 7.16683 0.166667 7.50016 0.5 7.7085L3.875 9.66683C4.16667 9.8335 4.54167 9.8335 4.875 9.66683L7.16667 8.3335L8.75 7.41683L11.0417 6.0835C11.3333 5.91683 11.7083 5.91683 12.0417 6.0835L13.8333 7.12516C14.125 7.29183 14.3333 7.62516 14.3333 8.00016V10.0835C14.3333 10.4168 14.1667 10.7502 13.8333 10.9585L12.0833 12.0002C11.7917 12.1668 11.4167 12.1668 11.0833 12.0002L9.29167 10.9585C9 10.7918 8.79167 10.4585 8.79167 10.0835V8.75016L7.20833 9.66683V11.0418C7.20833 11.3752 7.375 11.7085 7.70833 11.9168L11.0833 13.8752C11.375 14.0418 11.75 14.0418 12.0833 13.8752L15.4583 11.9168C15.75 11.7502 15.9583 11.4168 15.9583 11.0418V7.0835C15.9583 6.75016 15.7917 6.41683 15.4583 6.2085L12.0833 4.25016Z"/>
</svg>
