<svg width="18" height="20" viewBox="0 0 16 16" fill="none" xmlns="http://www.w3.org/2000/svg">
<path fill-rule="evenodd" clip-rule="evenodd" d="M7.93115 0.552589C3.85608 0.552589 0.552589 3.85608 0.552589 7.93115C0.552589 12.0062 3.85608 15.3097 7.93115 15.3097C12.0062 15.3097 15.3097 12.0062 15.3097 7.93115C15.3097 3.85608 12.0062 0.552589 7.93115 0.552589ZM-0.0688477 7.93115C-0.0688477 3.51288 3.51288 -0.0688477 7.93115 -0.0688477C12.3494 -0.0688477 15.9312 3.51288 15.9312 7.93115C15.9312 12.3494 12.3494 15.9312 7.93115 15.9312C3.51288 15.9312 -0.0688477 12.3494 -0.0688477 7.93115Z"/>
<path fill-rule="evenodd" clip-rule="evenodd" d="M2.61773 7.93118L7.93184 2.61707L13.2459 7.93118L7.93184 13.2453L2.61773 7.93118ZM3.49658 7.93118L7.93184 12.3664L12.3671 7.93118L7.93184 3.49591L3.49658 7.93118Z"/>
<path fill-rule="evenodd" clip-rule="evenodd" d="M6.96183 7.40109L5.08697 5.52623L5.52639 5.08681L7.40125 6.96167L6.96183 7.40109Z"/>
<path fill-rule="evenodd" clip-rule="evenodd" d="M10.3362 10.7756L7.71141 8.15083L8.15083 7.71141L10.7756 10.3362L10.3362 10.7756Z"/>
<path fill-rule="evenodd" clip-rule="evenodd" d="M10.7758 5.52591L6.27616 10.0256L5.83674 9.58617L10.3364 5.08649L10.7758 5.52591Z"/>
</svg>
