<svg width="16" height="16" viewBox="0 0 16 16" xmlns="http://www.w3.org/2000/svg">
<path d="M5.59553 0.345057L5.35791 0.69766L6.36973 2.81328C6.92929 3.9784 7.4352 5.02088 7.48886 5.12819L7.59617 5.31982L7.55018 5.12053C7.52718 5.01321 7.31256 3.87109 7.07493 2.59865L6.63801 0.276069L6.23942 0.138094L5.83316 0.000119077L5.59553 0.345057Z"/>
<path d="M8.21717 2.98973L8.0332 3.13537L8.2095 4.00155C8.30149 4.46913 8.40114 4.89072 8.42413 4.92905C8.44713 4.96737 8.56211 4.57644 8.68475 4.0552C8.79973 3.53397 8.89171 3.10471 8.87638 3.09704C8.86872 3.09704 8.76907 3.02806 8.65409 2.95907C8.40114 2.80576 8.43946 2.7981 8.21717 2.98973Z"/>
<path d="M13.7973 3.46467C13.4294 3.80961 12.6169 4.5838 11.9806 5.1817C11.3444 5.78725 10.8462 6.27783 10.8768 6.27783C10.9075 6.27017 11.8963 5.74893 13.0768 5.10504L15.223 3.93226L15.246 3.503L15.269 3.07374L14.9088 2.9511C14.7095 2.88211 14.5255 2.82846 14.5025 2.82846C14.4795 2.83612 14.1576 3.11974 13.7973 3.46467Z"/>
<path d="M10.6929 3.50281C10.4706 3.5258 10.4552 3.5488 10.21 4.34599C10.0643 4.79824 9.934 5.23516 9.91101 5.31948C9.88801 5.4038 10.164 5.13551 10.5242 4.71392C11.1451 4.00105 11.1834 3.94739 11.1068 3.74043C11.0148 3.47981 10.9995 3.47215 10.6929 3.50281Z"/>
<path d="M4.85949 4.3461C4.80584 4.37676 4.75218 4.51474 4.74451 4.64505C4.72152 4.86734 4.76751 4.91333 5.48805 5.38091C5.90964 5.65686 6.26224 5.87149 6.27757 5.85616C6.2929 5.84083 6.08594 5.48823 5.81765 5.05897C5.41906 4.42275 5.30408 4.29244 5.14311 4.29244C5.03579 4.28478 4.91315 4.31544 4.85949 4.3461Z"/>
<path d="M0.252954 7.70371L0 8.04098L0.252954 8.38592C0.459917 8.66187 0.544235 8.72319 0.697541 8.69253C0.804855 8.66954 1.82434 8.53156 2.9588 8.38592C4.10093 8.23261 5.15107 8.09464 5.29671 8.06398C5.48068 8.03332 4.87512 7.926 3.30374 7.72671C2.06196 7.56574 0.919834 7.4201 0.774193 7.3971C0.528904 7.36644 0.482913 7.38943 0.252954 7.70371Z"/>
<path d="M12.4254 7.78025C11.9808 7.8799 11.5669 7.97188 11.5056 7.98721C11.3906 8.01021 12.5404 8.30149 13.1 8.39347C13.3529 8.4318 13.3989 8.4088 13.5062 8.22484C13.6289 8.02554 13.6289 8.00254 13.4756 7.79558C13.3912 7.6806 13.2993 7.58862 13.2763 7.58862C13.2533 7.59628 12.87 7.6806 12.4254 7.78025Z"/>
<path d="M4.54544 8.99881C4.07019 9.0448 3.66393 9.11379 3.64093 9.13678C3.61794 9.15978 3.58728 9.29009 3.58728 9.42806C3.57195 9.6197 3.61794 9.70401 3.76358 9.78833C3.93988 9.88798 4.0012 9.86499 4.72174 9.45873C5.54959 8.98348 5.69523 8.87616 5.52659 8.89149C5.46527 8.89916 5.02068 8.94515 4.54544 8.99881Z"/>
<path d="M5.10547 10.103C4.26995 10.4709 4.26229 10.4786 4.23929 10.7545C4.2163 10.9922 4.23929 11.0382 4.42326 11.1071C4.53824 11.1531 4.65322 11.1761 4.67621 11.1685C4.78353 11.1225 6.07896 9.7274 6.01764 9.7274C5.97931 9.73506 5.57305 9.89603 5.10547 10.103Z"/>
<path d="M10.8619 9.79593C10.9003 9.83426 11.7358 10.6238 12.7246 11.5513L14.5106 13.23L14.8862 13.115L15.2618 12.9924V12.5554V12.1185L13.4451 11.1374C12.441 10.6008 11.4522 10.0642 11.2529 9.94157C10.8849 9.72695 10.724 9.66562 10.8619 9.79593Z"/>
<path d="M5.94839 11.0454C5.26618 11.6586 5.21252 11.7506 5.33516 12.0879C5.35816 12.1492 5.47314 12.1799 5.64944 12.1646C5.92539 12.1416 5.93306 12.1339 6.30099 11.306C6.50795 10.8461 6.66892 10.4629 6.66126 10.4552C6.64593 10.4399 6.33165 10.7081 5.94839 11.0454Z"/>
<path d="M6.46973 13.0846C5.73386 14.6407 5.41192 15.3995 5.45791 15.4762C5.48857 15.5375 5.60355 15.6908 5.7032 15.8135C5.88717 16.0358 5.88717 16.0358 6.24744 15.9361C6.44674 15.8824 6.6307 15.7828 6.6537 15.7291C6.70735 15.5988 7.5812 10.8464 7.56587 10.8234C7.5582 10.808 7.05996 11.8275 6.46973 13.0846Z"/>
<path d="M9.49721 11.8121C9.55087 12.3333 9.61219 12.7626 9.61985 12.7779C9.63519 12.7856 9.75016 12.8316 9.88047 12.8699C10.0951 12.9236 10.1411 12.9082 10.2714 12.7243L10.4247 12.5173L9.98012 11.7661C9.73483 11.3522 9.49721 10.9843 9.45888 10.9459C9.42056 10.9076 9.43589 11.2909 9.49721 11.8121Z"/>
<path d="M8.37829 11.2985C8.3323 11.4671 8.24031 11.8964 8.17133 12.249L8.04102 12.8929L8.21732 13.0309C8.44728 13.2072 8.5086 13.2072 8.72323 13.0309L8.89186 12.8852L8.70023 12.019C8.59292 11.5361 8.50093 11.1069 8.4856 11.0685C8.47027 11.0226 8.42428 11.1299 8.37829 11.2985Z"/>
</svg>
