<svg width="16" height="16" viewBox="0 0 16 16" xmlns="http://www.w3.org/2000/svg">
  <path fill-rule="evenodd" clip-rule="evenodd" d="M8 16C12.4183 16 16 12.4183 16 8C16 3.58172 12.4183 0 8 0C3.58172 0 0 3.58172 0 8C0 12.4183 3.58172 16 8 16ZM8.99984 3.24385C8.38103 2.88659 7.61864 2.88659 6.99984 3.24385L4.38104 4.75582C4.30917 4.79731 4.2405 4.8429 4.17527 4.89217L12.5192 5.86494C12.368 5.40375 12.0514 5.00569 11.6186 4.75582L8.99984 3.24385ZM12.6186 7.30007L12.5508 7.88217L3.38104 6.81313V9.20822L12.6186 8.77903V7.30007ZM4.38104 11.2439C4.34031 11.2203 4.30061 11.1955 4.26198 11.1694L12.1459 10.8031C11.9991 10.9768 11.8217 11.1266 11.6186 11.2439L8.99984 12.7558C8.38104 13.1131 7.61864 13.1131 6.99984 12.7558L4.38104 11.2439Z" />
</svg>
