<svg width="15" height="16" viewBox="0 0 15 16" fill="white" xmlns="http://www.w3.org/2000/svg">
<path fill-rule="evenodd" clip-rule="evenodd" d="M14.7657 6.15981V0H0.00361036V6.15981C0.00361036 6.266 0.00281053 6.3798 0.00196379 6.50028C-0.00738365 7.83031 -0.0224472 9.97367 0.969717 11.661C2.36091 14.0048 4.91143 15.7869 7.38467 16C9.83858 15.7869 12.3891 14.0048 13.7803 11.661C14.7915 9.98922 14.7765 7.82754 14.7673 6.49536C14.7665 6.37661 14.7657 6.26444 14.7657 6.15981ZM13.5354 6.43278V1.23073H1.23375V6.41637C1.23375 6.50626 1.23308 6.6027 1.23237 6.70487C1.22456 7.83382 1.21191 9.66234 2.04094 11.0769C3.2033 13.0625 5.31816 14.5723 7.38458 14.7692C9.451 14.5887 11.5658 13.0789 12.7282 11.0933C13.5572 9.66381 13.5446 7.848 13.5368 6.72123C13.5361 6.61916 13.5354 6.52274 13.5354 6.43278Z" />
<path fill-rule="evenodd" clip-rule="evenodd" d="M12.5424 2.67163V6.73304C12.5424 6.80203 12.5429 6.87599 12.5435 6.95429C12.5447 7.11833 12.546 7.30146 12.5428 7.49799L7.35954 3.92331H6.28672L12.5027 8.27449C12.4374 8.96454 12.2742 9.71732 11.8743 10.3602C10.9311 11.9056 9.20196 13.0806 7.53829 13.2211C5.86152 13.0806 4.13236 11.9056 3.18917 10.3602C2.51652 9.24768 2.52673 7.83447 2.53307 6.95753C2.53364 6.87809 2.53419 6.80306 2.53419 6.73304V6.73198L8.61127 10.9859L9.05828 10.5389L2.53419 5.981V2.67163H12.5424Z" />
</svg>
