<svg width="10" height="16" viewBox="0 0 10 16" xmlns="http://www.w3.org/2000/svg">
<path d="M9.03845 1.60285C9.23481 0.87524 8.9139 -0.0190266 8.13286 0.000308182C6.63088 -0.0205255 6.38617 2.07602 6.55469 3.9077L4.96184 5.2662C4.36838 4.75882 3.53899 4.65911 2.79313 4.83619C0.299098 5.44775 -0.619675 9.00396 0.423662 11.044C-0.0862843 12.2403 -0.0144862 13.7088 0.681549 14.8189C1.26771 15.9884 3.04371 16.3679 2.69055 15.6C2.60703 15.4959 2.60703 15.5332 2.47955 15.5197C0.81344 15.4141 0.397287 12.9114 0.857398 11.7121C2.33447 13.45 5.58901 12.8548 6.73785 11.3073C8.43619 9.03074 7.85738 6.27058 7.50716 3.79164C8.127 3.17414 8.81864 2.48968 9.03845 1.60285ZM0.697684 10.3C-0.150756 6.99075 2.68029 4.31242 4.5032 5.66051H4.50466C2.92354 6.9119 1.62525 8.49508 0.697684 10.3ZM6.0213 10.6883C5.0395 12.4352 2.11906 12.8176 1.02592 11.0588C1.3439 10.1214 1.83185 9.25245 2.46343 8.49658L2.47222 8.4936C3.1873 7.641 3.96834 6.84792 4.80799 6.1203C5.18458 7.27941 4.25555 8.84624 3.16826 8.77036C3.23273 9.79408 4.75229 8.99802 5.04829 8.58882C5.759 7.81211 5.82347 6.38813 5.31645 5.67094L6.61623 4.57728C6.88585 7.68563 7.07048 8.60519 6.0213 10.6883ZM7.41924 3.08336C7.14815 0.172923 8.2838 0.457117 8.42886 0.707088C8.82011 1.50315 7.78265 2.83487 7.41924 3.08336Z"/>
</svg>
