<svg width="18" height="20" viewBox="0 0 16 8" fill="none" xmlns="http://www.w3.org/2000/svg">
<path fill-rule="evenodd" clip-rule="evenodd" d="M8.2225 4.48576C12.2812 3.98743 15.4716 2.77123 15.3486 1.76932C15.2256 0.767373 11.8357 0.359142 7.777 0.857474C3.71834 1.35584 0.527884 2.57204 0.650902 3.57395C0.773927 4.57586 4.16384 4.98409 8.2225 4.48576Z" fill="white" stroke="white" stroke-width="0.976562"/>
<path fill-rule="evenodd" clip-rule="evenodd" d="M8.18077 4.2002C11.9926 3.73217 14.999 2.67045 14.8956 1.82875C14.7923 0.987091 11.6184 0.684185 7.80654 1.15222C3.99468 1.62026 0.988353 2.68197 1.0917 3.52367C1.19505 4.36533 4.36894 4.66824 8.18077 4.2002Z" fill="#C3CEEB"/>
<path fill-rule="evenodd" clip-rule="evenodd" d="M7.94719 6.8259C9.96151 6.8259 11.6678 5.50443 12.25 3.67942C12.2634 3.63747 12.1893 3.68736 12.05 3.73006C11.8091 3.80391 11.3519 3.93246 10.6621 4.07582C9.7184 4.27197 8.3644 4.4701 7.90237 4.52514C7.42384 4.58216 6.44785 4.63438 5.60564 4.6634C5.1094 4.68048 4.73896 4.7092 4.46453 4.6994C4.2732 4.69258 4.08044 4.62477 4.12687 4.6994C4.92435 5.98123 6.32882 6.8259 7.94719 6.8259Z" fill="#C3CEEB"/>
<path fill-rule="evenodd" clip-rule="evenodd" d="M8.24285 6.45904C9.15066 6.45904 9.79911 5.92483 9.79911 5.82648C9.79911 5.72813 9.15066 6.06743 8.24285 6.06743C7.33507 6.06743 6.42993 5.96908 6.42993 6.06743C6.42993 6.12945 6.88908 6.31462 7.44971 6.38853C7.77809 6.43181 7.90752 6.45904 8.24285 6.45904Z" fill="white"/>
</svg>
