<svg width="16" height="16" viewBox="0 0 16 16" xmlns="http://www.w3.org/2000/svg">
  <path fill-rule="evenodd" clip-rule="evenodd" d="M15.7634 8.00013C15.7634 12.2889 12.2889 15.7634 8.00013 15.7634C3.71137 15.7634 0.236816 12.2889 0.236816 8.00013C0.236816 3.71137 3.71137 0.236816 8.00013 0.236816C12.2889 0.236816 15.7634 3.71137 15.7634 8.00013ZM9.13619 5.73748L8.00956 4.04281L6.91134 5.78482C6.62731 5.5576 6.41903 5.25464 6.31489 4.91382C6.21074 4.57299 6.22021 4.20376 6.33382 3.86293C6.44743 3.5221 6.65572 3.22861 6.94921 3.01086C7.23323 2.7931 7.58353 2.67949 7.94329 2.67003C8.30305 2.66056 8.65335 2.7647 8.95631 2.96352C9.25927 3.16233 9.48649 3.45583 9.61903 3.78719C9.75158 4.11855 9.77051 4.48778 9.6853 4.83808C9.6001 5.18837 9.41075 5.5008 9.13619 5.73748ZM6.58018 10.3291L4.51628 10.3007L5.36835 8.45457C5.02752 8.35043 4.65829 8.35043 4.31746 8.45457C3.97663 8.56818 3.67367 8.77646 3.45592 9.06049C3.23817 9.34451 3.11509 9.69481 3.10563 10.0546C3.09616 10.4143 3.19083 10.7646 3.38965 11.0676C3.58847 11.3705 3.87249 11.5978 4.20385 11.7398C4.53521 11.8723 4.90444 11.9007 5.25474 11.825C5.60503 11.7398 5.91746 11.5599 6.16361 11.2853C6.39083 11.0202 6.53284 10.6889 6.58018 10.3291ZM11.4368 10.3007L9.37288 10.3575C9.42022 10.7173 9.58117 11.0486 9.80839 11.3137C10.0545 11.5788 10.3764 11.7587 10.7267 11.8344C11.077 11.9102 11.4463 11.8818 11.7776 11.7397C12.109 11.5977 12.393 11.361 12.5824 11.0581C12.7717 10.7457 12.8664 10.3954 12.8474 10.0356C12.8285 9.67584 12.7054 9.33501 12.4782 9.05098C12.251 8.76696 11.948 8.55868 11.6072 8.45454C11.2664 8.35039 10.8971 8.35986 10.5563 8.47347L11.4368 10.3007Z"/>
</svg>
