<svg width="16" height="16" viewBox="0 0 16 16" xmlns="http://www.w3.org/2000/svg">
  <path fill-rule="evenodd" clip-rule="evenodd" d="M16 8C16 12.4183 12.4183 16 8 16C3.58172 16 0 12.4183 0 8C0 3.58172 3.58172 0 8 0C12.4183 0 16 3.58172 16 8ZM15.3333 8C15.3333 12.0501 12.0501 15.3333 8 15.3333C3.94991 15.3333 0.666667 12.0501 0.666667 8C0.666667 3.94991 3.94991 0.666667 8 0.666667C12.0501 0.666667 15.3333 3.94991 15.3333 8Z"/>
  <path d="M14.2869 6.46062C14.2058 6.21116 13.9845 6.03457 13.7238 6.01097L10.1676 5.68814L8.7622 2.39776C8.65844 2.15602 8.42234 2 8.15956 2C7.89678 2 7.66059 2.15602 7.55746 2.39776L6.15205 5.68814L2.59533 6.01097C2.33461 6.03502 2.11383 6.21166 2.03224 6.46062C1.95113 6.71008 2.02604 6.98368 2.22323 7.1566L4.91139 9.51377L4.1188 13.0047C4.06081 13.2614 4.16043 13.5268 4.37343 13.6807C4.48788 13.7639 4.62239 13.8055 4.75736 13.8055C4.87335 13.8055 4.98943 13.7746 5.0931 13.7126L8.15956 11.8791L11.2255 13.7126C11.4504 13.847 11.7332 13.8347 11.9457 13.6807C12.1587 13.5268 12.2583 13.2614 12.2003 13.0047L11.4077 9.51377L14.0959 7.1566C14.293 6.98368 14.368 6.71063 14.2869 6.46062Z"/>
</svg>
