<svg width="18" height="20" viewBox="0 0 12 16" fill="none" xmlns="http://www.w3.org/2000/svg">
<path d="M3.8382 0.158154C1.55607 0.812931 0.327229 2.54405 0.47086 4.91202C0.534696 5.90764 0.7661 6.51757 1.36456 7.22616C2.27422 8.30251 3.15196 8.73305 5.88892 9.43267C7.51674 9.84527 8.01944 10.0426 8.33064 10.3834C8.86527 10.9575 8.75355 12.0159 8.10722 12.5451C7.47684 13.0653 5.60964 13.1371 4.69998 12.6707C4.08556 12.3657 3.62275 11.8275 3.31155 11.0562C3.18388 10.7422 3.02429 10.4462 2.95248 10.4014C2.79289 10.3027 2.10665 10.4373 0.981546 10.796C0.0878451 11.0741 -0.0557854 11.1817 0.0160298 11.5316C0.494798 13.7739 2.30614 15.4782 4.59625 15.8369C7.02999 16.2226 8.81739 15.9266 10.1659 14.922C11.4985 13.9175 12.1927 12.1684 11.9533 10.3655C11.6661 8.18591 10.3096 7.16338 6.49536 6.25745C4.29303 5.72825 3.81426 5.42328 3.74244 4.49045C3.69457 3.88949 3.91001 3.53968 4.50049 3.22574C4.90745 3.01047 5.05108 2.98356 5.79317 2.98356C7.04595 2.99253 7.59653 3.31544 8.17105 4.41869C8.3865 4.84026 8.41842 4.86717 8.71366 4.84923C9.08869 4.83129 10.9479 4.23033 11.2033 4.05094C11.299 3.97918 11.3788 3.83567 11.3788 3.73701C11.3788 3.38719 10.8601 2.44539 10.3415 1.8534C9.69513 1.12687 9.07273 0.696326 8.09924 0.328575C7.38108 0.050518 7.28533 0.0415487 5.91286 0.00567055C4.67604 -0.0122681 4.38878 0.00567055 3.8382 0.158154Z"/>
</svg>
