<svg width="18" height="20" viewBox="0 0 11 16" fill="none" xmlns="http://www.w3.org/2000/svg">
<path d="M0.744467 13.2216C1.21971 14.0647 1.91054 14.7663 2.74618 15.2545C3.58182 15.7427 4.53223 16 5.50003 16C6.46783 16 7.41824 15.7427 8.25388 15.2545C9.08951 14.7663 9.78034 14.0647 10.2556 13.2216C10.7433 12.377 11.0001 11.4188 11.0001 10.4434C11.0001 9.46809 10.7433 8.50993 10.2556 7.66527L6.07299 0.334704C6.01572 0.233138 5.93249 0.14862 5.83181 0.089807C5.73113 0.0309939 5.61663 0 5.50003 0C5.38343 0 5.26893 0.0309939 5.16825 0.089807C5.06757 0.14862 4.98433 0.233138 4.92707 0.334704L0.744467 7.66527C0.256759 8.50993 0 9.46809 0 10.4434C0 11.4188 0.256759 12.377 0.744467 13.2216ZM4.32179 3.82219L5.21355 2.25918C5.24218 2.2084 5.2838 2.16614 5.33414 2.13674C5.38448 2.10733 5.44173 2.09183 5.50003 2.09183C5.55833 2.09183 5.61558 2.10733 5.66592 2.13674C5.71626 2.16614 5.75787 2.2084 5.78651 2.25918L9.21723 8.27199C9.5252 8.80511 9.71613 9.39769 9.77732 10.0103C9.83852 10.623 9.76858 11.2416 9.57215 11.8251C9.52948 11.6262 9.47078 11.4311 9.39663 11.2417C8.92275 10.0315 7.85127 9.09767 6.21131 8.46595C5.08383 8.03319 4.36411 7.39671 4.07167 6.57395C3.69503 5.51391 4.08843 4.35767 4.32179 3.82219ZM2.80115 6.48735L1.78283 8.27199C1.40157 8.93223 1.20086 9.68121 1.20086 10.4436C1.20086 11.206 1.40157 11.955 1.78283 12.6153C2.09102 13.1612 2.51562 13.6326 3.02649 13.996C3.53736 14.3594 4.12196 14.6059 4.73881 14.718C5.35565 14.83 5.98959 14.8049 6.59563 14.6444C7.20167 14.4839 7.76495 14.1919 8.24547 13.7893C8.511 13.1104 8.52048 12.3581 8.27215 11.6727C7.92415 10.7984 7.08631 10.1004 5.78207 9.59771C4.30779 9.03183 3.35007 8.14839 2.93579 6.97271C2.87999 6.81415 2.83501 6.65199 2.80115 6.48735Z"/>
</svg>
