<svg width="18" height="20" viewBox="0 0 15 16" fill="none" xmlns="http://www.w3.org/2000/svg">
<path fill-rule="evenodd" clip-rule="evenodd" d="M4.69411 14.9129C4.61934 14.8469 4.57244 14.7548 4.56311 14.6556L3.81979 6.74769H6.46516V15.6069C6.46516 15.9448 6.06648 16.1246 5.81321 15.901L4.69411 14.9129ZM6.46516 6.59076V5.48681L3.67862 5.24602L3.80501 6.59076H6.46516ZM6.46516 5.32927L3.66371 5.08727L3.22589 0.429015C3.20419 0.198869 3.38524 0 3.61645 0H6.0729C6.28957 0 6.46516 0.175639 6.46516 0.392297V5.32927Z" />
<path fill-rule="evenodd" clip-rule="evenodd" d="M11.6355 6.59076H13.6521C13.7604 6.59076 13.8483 6.50303 13.8483 6.39469V5.23791C13.8483 5.12194 13.7483 5.03141 13.6331 5.04268L11.7605 5.22542L11.6355 6.59076ZM11.6015 5.24106L8.81105 5.51347V6.59076H11.478L11.6015 5.24106ZM8.65413 5.52886V6.59076H1.22399C1.11565 6.59076 1.02783 6.50303 1.02783 6.39469V5.23524C1.02783 5.12036 1.12619 5.03008 1.2407 5.03978L7.84428 5.6046C7.85615 5.60569 7.86815 5.60557 7.88003 5.60436L8.65413 5.52886Z" />
<path fill-rule="evenodd" clip-rule="evenodd" d="M9.48262 15.8743C9.23626 16.1241 8.81104 15.9496 8.81104 15.5988V3.42874H11.7709L10.7412 14.4721C10.7328 14.5623 10.6935 14.6468 10.63 14.7112L9.48262 15.8743ZM11.7855 3.27181H8.81104V1.58039L11.9616 1.38384L11.7855 3.27181ZM8.81104 0.392297V1.42315L11.9764 1.22569L12.0507 0.428724C12.0721 0.198675 11.8911 0 11.66 0H9.2033C8.98663 0 8.81104 0.175639 8.81104 0.392297Z" />
<path fill-rule="evenodd" clip-rule="evenodd" d="M6.46509 3.27201V1.58551L3.3184 1.43065L3.4906 3.27201H6.46509ZM6.62202 3.27201H14.5544C14.641 3.27201 14.7113 3.20173 14.7113 3.11508V1.37178C14.7113 1.2812 14.6348 1.20942 14.5444 1.21517L7.73228 1.64788L6.62202 1.59324V3.27201ZM3.14718 1.42223L3.33513 3.27201H0.156916C0.0702601 3.27201 0 3.20173 0 3.11508V1.43218C0 1.34248 0.075047 1.27103 0.164636 1.27544L3.14718 1.42223Z" />
</svg>
