<svg width="13" height="18" viewBox="0 0 13 20" fill="white" xmlns="http://www.w3.org/2000/svg">
<path d="M8.45631 20C7.19417 20 6.24757 19.6416 5.67961 18.9964C5.11165 18.2796 4.79612 17.5627 4.79612 16.7742C4.79612 16.4875 4.85922 16.2724 4.98544 16.0573C5.11165 15.8423 5.23786 15.6989 5.36408 15.6272C5.5534 15.4839 5.74272 15.4122 5.99514 15.4122C6.24757 15.4122 6.43689 15.4839 6.62621 15.6272C6.81553 15.7706 6.94175 15.914 7.00485 16.0573C7.13107 16.2724 7.19417 16.4875 7.19417 16.7742C7.19417 17.1326 7.13107 17.4194 6.94175 17.6344C6.81553 17.8495 6.62621 17.9928 6.43689 18.0645C6.62621 18.3513 6.87864 18.4946 7.25728 18.638C7.63592 18.7814 8.01456 18.8531 8.3932 18.8531C8.89806 18.8531 9.40291 18.7097 9.84466 18.3513C10.2864 18.0645 10.6019 17.5627 10.7913 16.9176C10.9806 16.2724 11.1068 15.5556 11.1068 14.767C11.1068 13.9068 10.9806 13.19 10.7913 12.5448C10.5388 11.8996 10.2864 11.4695 9.84466 11.1828C9.40291 10.8961 8.96116 10.7527 8.45631 10.7527C8.14078 10.7527 7.76214 10.8961 7.25728 11.1828L6.37379 11.6846V11.1828L10.3495 5.0896H4.79612V11.3979C4.79612 11.8996 4.92233 12.3297 5.11165 12.6882C5.30097 13.0466 5.6165 13.19 6.05825 13.19C6.37379 13.19 6.68932 13.0466 7.00485 12.8315C7.32039 12.5448 7.57281 12.2581 7.76214 11.9713C7.82524 11.8996 7.82524 11.828 7.88835 11.828C7.95146 11.7563 7.95146 11.7563 8.01456 11.7563C8.07767 11.7563 8.20388 11.828 8.26699 11.8996C8.3932 12.043 8.3932 12.1864 8.3932 12.3297C8.3932 12.4014 8.3301 12.5448 8.3301 12.6165C8.07767 13.19 7.82524 13.6201 7.38349 13.9785C6.94175 14.3369 6.56311 14.4086 6.05825 14.4086C4.85922 14.4086 4.03883 14.1219 3.53398 13.6201C3.09223 13.1183 2.83981 12.3297 2.83981 11.4695V5.16129H0V3.94265H2.83981V1.29032L2.20874 0.573476V0H4.10194L4.79612 0.430106V4.01434H12.1165L12.8107 4.80287L8.3301 9.89248C8.58252 9.74911 8.89806 9.67742 9.15048 9.67742C9.65534 9.67742 10.1602 9.89247 10.7913 10.1792C11.4223 10.5376 11.8641 10.9677 12.1796 11.6129C12.4951 12.1864 12.7476 12.7599 12.8107 13.3333C12.9369 13.9068 13 14.3369 13 14.8387C13 15.8423 12.8107 16.7025 12.432 17.5627C12.0534 18.4229 11.5485 19.0681 10.7913 19.4265C10.0971 19.7849 9.3398 20 8.45631 20Z" />
</svg>
