<svg width="18" height="20" viewBox="0 0 16 16" fill="none" xmlns="http://www.w3.org/2000/svg">
<path d="M15.3875 4.82021C14.6375 4.12771 13.6 3.07021 12.755 2.32021L12.705 2.28521C12.6218 2.21841 12.528 2.16601 12.4275 2.13021C10.39 1.75021 0.907451 -0.0222877 0.722451 0.000212316C0.670613 0.00747233 0.621064 0.026267 0.577451 0.0552123L0.529951 0.0927123C0.471462 0.152113 0.427039 0.223873 0.399951 0.302712L0.387451 0.335212V0.512712V0.540212C1.45495 3.51271 5.66995 13.2502 6.49995 15.5352C6.54995 15.6902 6.64495 15.9852 6.82245 16.0002H6.86245C6.95745 16.0002 7.36245 15.4652 7.36245 15.4652C7.36245 15.4652 14.6025 6.68521 15.335 5.75021C15.4298 5.63504 15.5135 5.51115 15.585 5.38021C15.6032 5.27776 15.5946 5.17233 15.56 5.07419C15.5254 4.97605 15.4659 4.88855 15.3875 4.82021ZM9.21995 5.84271L12.31 3.28021L14.1225 4.95021L9.21995 5.84271ZM8.01995 5.67521L2.69995 1.31521L11.3075 2.90271L8.01995 5.67521ZM8.49995 6.81771L13.945 5.94021L7.71995 13.4402L8.49995 6.81771ZM1.97745 1.75021L7.57495 6.50021L6.76495 13.4452L1.97745 1.75021Z"/>
</svg>
