<svg width="16" height="14" viewBox="0 0 16 14" fill="none" xmlns="http://www.w3.org/2000/svg">
<g clip-path="url(#clip0_1694_21944)">
<path d="M1.39081 1.98834C2.59888 1.98837 3.63901 2.2237 4.48186 2.68783C5.28775 3.1316 6.04711 3.84981 6.78148 4.54437C8.00362 5.70024 9.26737 6.89551 10.7811 6.89551C10.7946 6.89551 10.8085 6.89541 10.8221 6.89522C11.9732 6.87916 12.6706 5.61068 13.286 4.49151C13.6094 3.90325 13.8887 3.39522 14.2173 3.09205C14.7593 2.59192 15.3438 2.28674 15.9543 2.18501L16 2.1774V0.268981C16 0.268981 14.891 -0.272043 13.6293 1.0181C12.8192 1.84645 12.1717 4.82213 10.4374 4.84895C8.12148 4.88476 6.54554 1.80732 4.66122 0.657429C2.69294 -0.543691 0.00585938 0.268981 0.00585938 0.268981V2.08783C0.474046 2.02226 0.939783 1.98831 1.39081 1.98834Z" />
<path d="M15.9985 5.72016L16 5.50963V4.93852C15.6542 5.0702 15.2775 5.28166 14.8884 5.61523C13.9104 6.45353 13.1286 9.46489 11.0348 9.49203C8.23878 9.52828 6.33616 6.41392 4.06118 5.2502C2.73991 4.57433 1.15102 4.52873 0 4.62131V5.72016L0.00155 5.50963C0.0347251 10.0452 3.60237 13.9224 8 13.9224C12.3977 13.9224 15.9653 10.2558 15.9985 5.72016Z" />
<path d="M4.18778 5.00271C5.05267 5.44511 5.86922 6.16255 6.65888 6.85637C7.9783 8.0156 9.34266 9.21436 10.9864 9.21436C11.0012 9.21436 11.0164 9.21426 11.0312 9.21407C12.2884 9.19775 13.0415 7.92533 13.706 6.80268C14.0541 6.21452 14.3547 5.70652 14.7075 5.40415C15.0849 5.08067 15.4865 4.8366 15.9011 4.67871L16 4.64105V2.45901C15.5485 2.53424 14.9927 2.75462 14.4059 3.29616C13.4973 4.13443 12.771 7.14581 10.826 7.17295C8.22861 7.20917 6.46115 4.09484 4.34781 2.93113C2.88043 2.12313 1.05785 2.21568 0 2.36854V4.34284C0.296775 4.31955 0.592211 4.30732 0.878314 4.30732C2.17228 4.30735 3.28573 4.54131 4.18778 5.00271Z" />
</g>
<defs>
<clipPath id="clip0_1694_21944">
<rect width="16" height="13.9223" fill="white"/>
</clipPath>
</defs>
</svg>
