<svg width="187" height="110" viewBox="0 0 187 110" fill="none" xmlns="http://www.w3.org/2000/svg">
  <path
    d="M12.5188 59.9191H0.5V49.9338H49.4338H49.9338V49.4338V22.4706H59.9191V49.4338V49.9338H60.4191H89.4163H89.7766L89.8906 49.5919L98.1688 24.7571C103.005 10.2476 116.53 0.5 131.824 0.5C147.117 0.5 160.642 10.2476 165.478 24.7571L173.756 49.5919L173.87 49.9338H174.231H186.25V59.9191H137.316H136.816V60.4191V87.3824H126.831V60.4191V59.9191H126.331H97.3337H96.9734L96.8594 60.261L88.5812 85.0958C83.7447 99.6054 70.2203 109.353 54.9265 109.353C39.6326 109.353 26.1082 99.6054 21.2713 85.0958L12.9932 60.261L12.8792 59.9191H12.5188ZM24.0988 59.9191H23.4051L23.6245 60.5772L30.7448 81.9385C33.614 90.5461 40.7415 96.8175 49.3243 98.7436L49.9338 98.8804V98.2558V60.4191V59.9191H49.4338H24.0988ZM59.9191 98.2558V98.8804L60.5286 98.7436C69.1115 96.8175 76.2386 90.5461 79.1082 81.9385L78.6338 81.7804L79.1082 81.9385L86.2288 60.5772L86.4482 59.9191H85.7545H60.4191H59.9191V60.4191V98.2558ZM100.521 49.2757L100.302 49.9338H100.995H126.331H126.831V49.4338V11.5972V10.9725L126.221 11.1093C117.638 13.0355 110.511 19.3068 107.641 27.9144L108.116 28.0726L107.641 27.9144L100.521 49.2757ZM137.426 11.1093L136.816 10.9725V11.5972V49.4338V49.9338H137.316H162.652H163.345L163.126 49.2757L156.005 27.9144C153.136 19.3068 146.009 13.0355 137.426 11.1093Z"
    fill="#C3CEEB" stroke="white" />
  <path d="M49.4338 0H60.4191V10.9853H49.4338V0Z" fill="#C3CEEB" />
</svg>
