<svg width="20" height="20" viewBox="0 0 20 20" fill="none" xmlns="http://www.w3.org/2000/svg">
<path d="M3.19421 0H4.76611V4.76616H0V3.19426C0 1.42441 1.42444 0 3.19421 0Z" fill="white"/>
<path d="M7.61523 0H16.7555C18.5254 0 19.9498 1.42441 19.9498 3.19426V12.3346H7.61523V0Z" fill="white"/>
<path d="M4.76611 7.61497H0V12.3811H4.76611V7.61497Z" fill="white"/>
<path d="M16.8063 19.9495H15.2344V15.2338H20.0005V16.7553C20.0005 18.5251 18.5762 19.9495 16.8063 19.9495Z" fill="white"/>
<path d="M12.3813 15.2338H7.61523V20H12.3813V15.2338Z" fill="white"/>
<path d="M0 16.8057V15.2338H4.76611V20H3.19421C1.42444 20 0 18.5756 0 16.8057Z" fill="white"/>
</svg>
