<svg width="28" height="24" viewBox="2 0 20 24" fill="none" xmlns="http://www.w3.org/2000/svg">

<path d="M11.2947 15.4271C11.0814 15.2127 10.7367 15.2127 10.5234 15.426L8.50144 17.4496H7.09088C6.78924 17.4496 6.54544 17.694 6.54544 17.9956V19.0871H5.45452C5.15288 19.0871 4.90908 19.3314 4.90908 19.6331V20.7245H3.8182C3.51713 20.7245 3.27277 20.9689 3.27277 21.2705V22.6822L3.04697 22.908H1.09092V20.9509L10.2033 11.8309C10.4166 11.6182 10.4166 11.2724 10.2038 11.0591L10.044 10.8988C9.89841 10.7537 9.81877 10.5606 9.81877 10.3549V10.3527C9.81877 10.0511 9.57497 9.8078 9.27333 9.8078C8.97169 9.8078 8.72789 10.0532 8.72789 10.3549C8.72789 10.7438 8.84625 11.1147 9.0661 11.4256L0.159797 20.3389C0.0572813 20.4414 0 20.58 0 20.7251V23.4545C0 23.7556 0.244359 24 0.545438 24H3.27272C3.41728 24 3.55636 23.9422 3.65836 23.8402L4.2038 23.2942C4.30636 23.1916 4.36359 23.0531 4.36359 22.9085V21.8171H5.45452C5.75616 21.8171 5.99995 21.5727 5.99995 21.2711V20.1796H7.09088C7.39252 20.1796 7.63631 19.9353 7.63631 19.6336V18.5422H8.72724C8.87231 18.5422 9.01088 18.4844 9.11288 18.3824L11.2947 16.199C11.508 15.9856 11.508 15.6403 11.2947 15.4271Z" fill="white"/>
<path d="M19.7494 6.41995L17.5676 4.23651C16.925 3.59231 15.8025 3.59231 15.16 4.23651C14.4962 4.90087 14.4962 5.98195 15.16 6.64579L17.3418 8.82923C17.663 9.15103 18.0907 9.32831 18.5456 9.32831C19.0005 9.32831 19.4281 9.15103 19.7494 8.82923C20.4132 8.16487 20.4132 7.08379 19.7494 6.41995ZM18.9781 8.05687C18.7468 8.28815 18.3443 8.28815 18.113 8.05687L15.9312 5.87343C15.6934 5.63507 15.6934 5.24671 15.9312 5.00779C16.0469 4.89215 16.2002 4.82835 16.3638 4.82835C16.5274 4.82835 16.6807 4.89215 16.7964 5.00779L18.9782 7.19123C19.2165 7.42959 19.2165 7.81851 18.9781 8.05687Z" fill="white"/>
<path d="M23.4545 6.8525L17.1349 0.527941C16.4307 -0.175699 15.2056 -0.176262 14.5014 0.527941L9.27268 5.7605C8.92088 6.1123 8.72724 6.5803 8.72724 7.0783C8.72724 7.5763 8.92088 8.0443 9.27268 8.3961L14.5014 13.6287L14.1807 13.9499C14.0356 14.095 13.8425 14.1752 13.6374 14.1752H13.6368C13.4312 14.1752 13.2376 14.095 13.0919 13.9494L11.5673 12.4238C11.3541 12.2105 11.0094 12.2105 10.7961 12.4238L7.79607 15.426C7.58279 15.6393 7.58279 15.9845 7.79607 16.1978C7.90243 16.3041 8.04207 16.3576 8.18171 16.3576C8.32135 16.3576 8.46099 16.3041 8.56735 16.1978L11.1817 13.5818L12.3206 14.7212C12.6724 15.073 13.1394 15.2667 13.6374 15.2667C13.6379 15.2667 13.6384 15.2667 13.639 15.2667C14.1354 15.2661 14.6017 15.0719 14.9519 14.7212L15.6583 14.0143C15.8716 13.801 15.8716 13.4557 15.6583 13.2425L10.044 7.62378C9.89776 7.47814 9.81816 7.2845 9.81816 7.07835C9.81816 6.87214 9.8978 6.67855 10.044 6.53235L15.2727 1.3003C15.5645 1.00794 16.0718 1.0085 16.3636 1.3003L22.6832 7.62486C22.8294 7.7705 22.9091 7.96414 22.9091 8.1703C22.9091 8.37646 22.8294 8.5701 22.6832 8.7163L17.4545 13.9483C17.3083 14.0945 17.1152 14.1747 16.9091 14.1747C16.6074 14.1747 16.3636 14.419 16.3636 14.7207C16.3636 15.0223 16.6074 15.2667 16.9091 15.2667C17.406 15.2667 17.874 15.073 18.2258 14.7207L23.4545 9.4881C23.8063 9.1363 24 8.6683 24 8.1703C24 7.67178 23.8063 7.20378 23.4545 6.8525Z" fill="white"/>

<defs>
<clipPath id="clip0">
<rect width="26" height="26" fill="white"/>
</clipPath>
</defs>
</svg>
