<svg width="28" height="22" viewBox="0 0 28 22" fill="none" xmlns="http://www.w3.org/2000/svg">
<path d="M14.6667 0C10.6231 0 7.3333 3.28982 7.3333 7.33335C7.3333 7.81494 7.38568 8.30908 7.48907 8.80546L6.66995 9.21499C6.53834 9.28078 6.44617 9.40612 6.42245 9.55157C6.39873 9.69702 6.44664 9.84474 6.55093 9.94903L7.14355 10.5417L6.68521 11H5.9583C5.70496 11 5.49996 11.205 5.49996 11.4583V12.1853L4.85186 12.8333H4.125C3.87166 12.8333 3.66665 13.0384 3.66665 13.2917V14.0186L3.01855 14.6667H2.29165C2.03831 14.6667 1.8333 14.8717 1.8333 15.125V15.8519L0.134277 17.5509C0.0483398 17.6369 0 17.7532 0 17.875V21.5417C0 21.795 0.205004 22 0.458348 22H4.125C4.24673 22 4.36313 21.9517 4.44907 21.8657L11.4583 14.8564L12.051 15.4491C12.1548 15.5534 12.303 15.6022 12.4484 15.5775C12.5939 15.5538 12.7192 15.4616 12.785 15.33L13.1945 14.5109C17.858 15.4831 22 11.8585 22 7.33335C22 3.28982 18.7102 0 14.6667 0ZM13.0603 13.5387C12.8526 13.4859 12.6328 13.5844 12.5361 13.7778L12.2492 14.3511L11.7824 13.8843C11.6033 13.7052 11.3133 13.7052 11.1343 13.8843L3.93521 21.0833H0.916652V18.0648L2.61572 16.3657C2.70166 16.2798 2.75 16.1634 2.75 16.0417V15.5833H3.20835C3.33008 15.5833 3.44648 15.535 3.53242 15.449L4.44907 14.5324C4.53501 14.4464 4.58335 14.3301 4.58335 14.2083V13.75H5.0417C5.16343 13.75 5.27983 13.7017 5.36577 13.6157L6.28242 12.6991C6.36836 12.6131 6.4167 12.4968 6.4167 12.375V11.9167H6.875C6.99673 11.9167 7.11313 11.8683 7.19907 11.7824L8.11572 10.8657C8.29477 10.6867 8.29477 10.3966 8.11572 10.2176L7.64887 9.75077L8.22224 9.46387C8.4156 9.36719 8.51499 9.14878 8.46128 8.93973C8.3212 8.39545 8.25 7.8552 8.25 7.33335C8.25 3.79513 11.1285 0.916695 14.6667 0.916695C18.2048 0.916695 21.0833 3.79517 21.0833 7.33335C21.0833 11.3934 17.2945 14.6291 13.0603 13.5387Z" fill="white"/>
<path d="M16.9583 2.75C15.6947 2.75 14.6666 3.77811 14.6666 5.04165C14.6666 6.30519 15.6947 7.3333 16.9583 7.3333C18.2218 7.3333 19.2499 6.30523 19.2499 5.04165C19.2499 3.77807 18.2218 2.75 16.9583 2.75ZM16.9583 6.41665C16.2001 6.41665 15.5833 5.79988 15.5833 5.04165C15.5833 4.28343 16.2001 3.66665 16.9583 3.66665C17.7165 3.66665 18.3333 4.28343 18.3333 5.04165C18.3333 5.79988 17.7165 6.41665 16.9583 6.41665Z" fill="white"/>
<path d="M9.30094 12.0509L2.88429 18.4676C2.70524 18.6467 2.70524 18.9367 2.88429 19.1157C2.97379 19.2052 3.0911 19.25 3.20836 19.25C3.32562 19.25 3.44288 19.2052 3.53243 19.1157L9.94908 12.6991C10.1281 12.52 10.1281 12.23 9.94908 12.051C9.77003 11.8719 9.47999 11.8719 9.30094 12.0509Z" fill="white"/>
<ellipse cx="20.5" cy="13" rx="7.5" ry="5" fill="#AFBCCB"/>

<path d="M27.875 13.1996L26.6369 11.9615C23.7048 9.04481 19.2941 9.04493 16.3784 11.9607L15.1267 13.1981C15.0459 13.278 15.0003 13.3868 15 13.5003C14.9997 13.614 15.0447 13.7229 15.1249 13.8033L16.3631 15.0415C17.8274 16.4981 19.6632 17.2263 21.4996 17.2263C23.336 17.2263 25.1729 16.4977 26.6376 15.0405L27.875 13.8031C27.9551 13.7232 28 13.6147 28 13.5014C28 13.3882 27.9551 13.2797 27.875 13.1996ZM26.0348 14.4363C23.4497 17.0084 19.5504 17.0081 16.9658 14.4372L16.0319 13.5031L16.98 12.5658C19.5541 9.99177 23.4471 9.99189 26.0341 12.5658L26.9697 13.5014L26.0348 14.4363Z" fill="white"/>
<path d="M21.5 10.9554C20.0962 10.9554 18.9541 12.0976 18.9541 13.5014C18.9541 14.9052 20.0962 16.0473 21.5 16.0473C22.9038 16.0473 24.0459 14.9052 24.0459 13.5014C24.0459 12.0976 22.9038 10.9554 21.5 10.9554ZM21.5 15.1939C20.5667 15.1939 19.8075 14.4347 19.8075 13.5014C19.8075 12.568 20.5667 11.8088 21.5 11.8088C22.4333 11.8088 23.1924 12.5682 23.1924 13.5014C23.1924 14.4346 22.4333 15.1939 21.5 15.1939Z" fill="white"/>
<path d="M21.5 12.3351V13.1885C21.6756 13.1885 21.813 13.3261 21.813 13.5014C21.813 13.6768 21.6756 13.8144 21.5 13.8144C21.3245 13.8144 21.1871 13.6768 21.1871 13.5014H20.3337C20.3337 14.1445 20.857 14.6677 21.5 14.6677C22.1432 14.6677 22.6663 14.1446 22.6663 13.5014C22.6663 12.8583 22.1431 12.3351 21.5 12.3351Z" fill="white"/>

<defs>
<clipPath id="clip0">
<rect width="13" height="13" fill="white" transform="translate(15 7)"/>
</clipPath>
</defs>
</svg>




