<svg width="16" height="22" viewBox="0 0 16 22" fill="none" xmlns="http://www.w3.org/2000/svg">
<path d="M15.3333 19.5164C13.0589 20.31 10.8032 21.0662 8.56622 21.8785C8.1076 22.0466 7.73321 22.0373 7.28394 21.8692C5.20609 21.1036 3.12823 20.3753 1.04101 19.6471C0.760223 19.5444 0.666626 19.423 0.666626 19.1149C0.675986 15.651 0.675986 12.1777 0.666626 8.71384C0.666626 8.34037 0.816381 8.11629 1.13461 8.00425C1.42476 7.89221 1.72427 7.77083 2.02378 7.74282C2.39817 7.69614 2.44497 7.50941 2.45433 7.18263C2.45433 6.0809 2.34201 4.96984 2.7164 3.89612C3.40902 1.85139 4.84106 0.618953 6.95635 0.12411C10.1948 -0.622822 13.6205 2.10348 13.5737 5.56738C13.5643 6.15559 13.5549 6.75314 13.583 7.34135C13.5924 7.47206 13.7515 7.65879 13.8732 7.69614C15.3333 8.09762 15.3333 8.09762 15.3333 9.58215C15.3333 12.8687 15.3333 16.1645 15.3333 19.5164ZM12.9091 14.0824C12.9091 13.1301 12.9091 12.1871 12.9091 11.2347C12.9091 10.4318 12.9091 10.3758 12.1042 10.3197C10.382 10.1984 8.65046 10.0957 6.91891 10.0863C5.73959 10.077 4.56027 10.245 3.38094 10.3384C2.9504 10.3758 2.75384 10.5718 2.7632 11.0667C2.80064 13.1021 2.78192 15.1468 2.77256 17.1822C2.77256 17.4996 2.8568 17.6397 3.16567 17.7517C4.65386 18.2652 6.12334 18.8161 7.61153 19.3296C7.79873 19.395 8.04208 19.3856 8.22927 19.3203C9.65195 18.8161 11.0653 18.2746 12.4879 17.7704C12.7968 17.6584 12.9185 17.5183 12.9091 17.1728C12.8904 16.1365 12.9091 15.1094 12.9091 14.0824ZM11.2525 7.32267C11.2525 6.63176 11.3086 5.93151 11.2431 5.24994C11.084 3.62536 9.78298 2.42093 8.16375 2.3369C6.5726 2.25287 5.12185 3.30791 4.84106 4.89514C4.70066 5.68876 4.81298 6.51972 4.81298 7.32267C6.94699 7.32267 9.09036 7.32267 11.2525 7.32267Z" fill="white"/>
</svg>
