<svg width="19" height="19" viewBox="0 0 19 19" fill="none" xmlns="http://www.w3.org/2000/svg">
<mask id="path-1-outside-1_25986_1751" maskUnits="userSpaceOnUse" x="0" y="0" width="19" height="19" fill="black">
<rect fill="white" width="19" height="19"/>
<path fill-rule="evenodd" clip-rule="evenodd" d="M2.42259 1.24408C2.09715 0.918641 1.56951 0.918641 1.24408 1.24408C0.918641 1.56951 0.918641 2.09715 1.24408 2.42259L7.98816 9.16667L1.24408 15.9107C0.918641 16.2362 0.918641 16.7638 1.24408 17.0893C1.56951 17.4147 2.09715 17.4147 2.42259 17.0893L9.16667 10.3452L15.9107 17.0893C16.2362 17.4147 16.7638 17.4147 17.0893 17.0893C17.4147 16.7638 17.4147 16.2362 17.0893 15.9107L10.3452 9.16667L17.0893 2.42259C17.4147 2.09715 17.4147 1.56951 17.0893 1.24408C16.7638 0.918641 16.2362 0.918641 15.9107 1.24408L9.16667 7.98816L2.42259 1.24408Z"/>
</mask>
<path fill-rule="evenodd" clip-rule="evenodd" d="M2.42259 1.24408C2.09715 0.918641 1.56951 0.918641 1.24408 1.24408C0.918641 1.56951 0.918641 2.09715 1.24408 2.42259L7.98816 9.16667L1.24408 15.9107C0.918641 16.2362 0.918641 16.7638 1.24408 17.0893C1.56951 17.4147 2.09715 17.4147 2.42259 17.0893L9.16667 10.3452L15.9107 17.0893C16.2362 17.4147 16.7638 17.4147 17.0893 17.0893C17.4147 16.7638 17.4147 16.2362 17.0893 15.9107L10.3452 9.16667L17.0893 2.42259C17.4147 2.09715 17.4147 1.56951 17.0893 1.24408C16.7638 0.918641 16.2362 0.918641 15.9107 1.24408L9.16667 7.98816L2.42259 1.24408Z" fill="white"/>
<path d="M1.24408 1.24408L1.95118 1.95118L1.95118 1.95118L1.24408 1.24408ZM2.42259 1.24408L1.71548 1.95118L1.71548 1.95118L2.42259 1.24408ZM1.24408 2.42259L0.536971 3.1297H0.536971L1.24408 2.42259ZM7.98816 9.16667L8.69526 9.87377L9.40237 9.16667L8.69526 8.45956L7.98816 9.16667ZM1.24408 15.9107L1.95118 16.6179L1.95118 16.6179L1.24408 15.9107ZM1.24408 17.0893L1.95119 16.3822L1.95118 16.3822L1.24408 17.0893ZM2.42259 17.0893L1.71548 16.3822L1.71548 16.3822L2.42259 17.0893ZM9.16667 10.3452L9.87378 9.63807L9.16667 8.93097L8.45956 9.63807L9.16667 10.3452ZM15.9107 17.0893L16.6179 16.3822L15.9107 17.0893ZM17.0893 17.0893L17.7964 17.7964V17.7964L17.0893 17.0893ZM17.0893 15.9107L17.7964 15.2036V15.2036L17.0893 15.9107ZM10.3452 9.16667L9.63807 8.45956L8.93097 9.16667L9.63807 9.87377L10.3452 9.16667ZM17.0893 2.42259L17.7964 3.1297V3.12969L17.0893 2.42259ZM17.0893 1.24408L17.7964 0.536972L17.7964 0.53697L17.0893 1.24408ZM15.9107 1.24408L15.2036 0.53697L15.2036 0.536971L15.9107 1.24408ZM9.16667 7.98816L8.45956 8.69526L9.16667 9.40237L9.87378 8.69526L9.16667 7.98816ZM1.95118 1.95118C1.8861 2.01627 1.78057 2.01627 1.71548 1.95118L3.1297 0.536971C2.41373 -0.17899 1.25293 -0.17899 0.536971 0.536971L1.95118 1.95118ZM1.95118 1.71548C2.01627 1.78057 2.01627 1.8861 1.95118 1.95118L0.536971 0.536971C-0.17899 1.25293 -0.17899 2.41373 0.536971 3.1297L1.95118 1.71548ZM8.69526 8.45956L1.95118 1.71548L0.536971 3.1297L7.28105 9.87377L8.69526 8.45956ZM1.95118 16.6179L8.69526 9.87377L7.28105 8.45956L0.536971 15.2036L1.95118 16.6179ZM1.95118 16.3822C2.01627 16.4472 2.01627 16.5528 1.95118 16.6179L0.536971 15.2036C-0.17899 15.9196 -0.178991 17.0804 0.536971 17.7964L1.95118 16.3822ZM1.71548 16.3822C1.78057 16.3171 1.8861 16.3171 1.95119 16.3822L0.53697 17.7964C1.25293 18.5123 2.41374 18.5123 3.1297 17.7964L1.71548 16.3822ZM8.45956 9.63807L1.71548 16.3822L3.1297 17.7964L9.87378 11.0523L8.45956 9.63807ZM16.6179 16.3822L9.87378 9.63807L8.45956 11.0523L15.2036 17.7964L16.6179 16.3822ZM16.3822 16.3822C16.4472 16.3171 16.5528 16.3171 16.6179 16.3822L15.2036 17.7964C15.9196 18.5123 17.0804 18.5123 17.7964 17.7964L16.3822 16.3822ZM16.3822 16.6179C16.3171 16.5528 16.3171 16.4472 16.3822 16.3822L17.7964 17.7964C18.5123 17.0804 18.5123 15.9196 17.7964 15.2036L16.3822 16.6179ZM9.63807 9.87377L16.3822 16.6179L17.7964 15.2036L11.0523 8.45956L9.63807 9.87377ZM16.3822 1.71548L9.63807 8.45956L11.0523 9.87377L17.7964 3.1297L16.3822 1.71548ZM16.3822 1.95118C16.3171 1.8861 16.3171 1.78057 16.3822 1.71548L17.7964 3.12969C18.5123 2.41373 18.5123 1.25293 17.7964 0.536972L16.3822 1.95118ZM16.6179 1.95119C16.5528 2.01627 16.4472 2.01627 16.3822 1.95119L17.7964 0.53697C17.0804 -0.17899 15.9196 -0.17899 15.2036 0.53697L16.6179 1.95119ZM9.87378 8.69526L16.6179 1.95118L15.2036 0.536971L8.45956 7.28105L9.87378 8.69526ZM1.71548 1.95118L8.45956 8.69526L9.87378 7.28105L3.1297 0.536971L1.71548 1.95118Z" fill="white" mask="url(#path-1-outside-1_25986_1751)"/>
</svg>
