<svg width="69" height="62" viewBox="0 0 69 62" fill="none" xmlns="http://www.w3.org/2000/svg">
<path d="M53.9074 60.7438L12.733 13.3646C12.0875 12.6114 12.1592 11.4816 12.9124 10.836L23.726 1.4391C24.4792 0.793508 25.609 0.86524 26.2546 1.61843L67.429 48.9976C68.0745 49.7508 68.0028 50.8806 67.2496 51.5262L56.418 60.9411C55.6828 61.5687 54.553 61.497 53.9074 60.7438Z" fill="#6A4BFF" stroke="#6A4BFF" stroke-miterlimit="10"/>
<path d="M28.2471 12.9701C28.2471 15.1502 26.4798 16.9175 24.2997 16.9175C22.1196 16.9175 20.3523 15.1502 20.3523 12.9701C20.3523 10.79 22.1196 9.02268 24.2997 9.02268C26.4798 9.02268 28.2471 10.79 28.2471 12.9701Z" fill="#6A4BFF" stroke="white"/>
<path d="M24.2997 8.57632C26.7206 8.57632 28.6933 10.549 28.6933 12.9699C28.6933 15.3909 26.7206 17.3635 24.2997 17.3635C21.8787 17.3635 19.9061 15.3909 19.9061 12.9699C19.9061 10.549 21.8787 8.57632 24.2997 8.57632ZM24.2997 8.48665C21.8249 8.48665 19.8164 10.4952 19.8164 12.9699C19.8164 15.4447 21.8249 17.4532 24.2997 17.4532C26.7744 17.4532 28.7829 15.4447 28.7829 12.9699C28.7829 10.4952 26.7744 8.48665 24.2997 8.48665Z" fill="#8B9BC7"/>
<g style="mix-blend-mode:screen" opacity="0.5">
<path d="M43.416 44.9988L24.7297 23.515C24.6042 23.3715 24.6221 23.1384 24.7656 23.0129L34.2522 14.7637C34.3956 14.6381 34.6288 14.6561 34.7543 14.7995L53.4406 36.3013C53.5661 36.4447 53.5482 36.6779 53.4047 36.8034L43.9181 45.0526C43.7567 45.1782 43.5415 45.1602 43.416 44.9988Z" fill="url(#paint0_linear_18379_428030)"/>
</g>
<path d="M0.25 58.0009V40.7472H55.5029C60.2606 40.7472 64.1298 44.6164 64.1298 49.3741C64.1298 54.1317 60.2605 58.0009 55.5029 58.0009H0.25Z" fill="white" stroke="#8B9BC7" stroke-width="0.5"/>
<path d="M54.6065 53.948C57.033 53.948 59.0001 51.9809 59.0001 49.5544C59.0001 47.1279 57.033 45.1608 54.6065 45.1608C52.18 45.1608 50.2129 47.1279 50.2129 49.5544C50.2129 51.9809 52.18 53.948 54.6065 53.948Z" fill="white"/>
<mask id="path-7-inside-1_18379_428030" fill="white">
<path d="M54.6068 45.2491C56.974 45.2491 58.9107 47.1859 58.9107 49.553C58.9107 51.9202 56.974 53.857 54.6068 53.857C52.2396 53.857 50.3029 51.9202 50.3029 49.553C50.3029 47.1859 52.2396 45.2491 54.6068 45.2491ZM54.6068 45.0698C52.132 45.0698 50.1235 47.0783 50.1235 49.553C50.1235 52.0278 52.132 54.0363 54.6068 54.0363C57.0816 54.0363 59.0901 52.0278 59.0901 49.553C59.0901 47.0783 57.0816 45.0698 54.6068 45.0698Z"/>
</mask>
<path d="M54.6068 45.2491C56.974 45.2491 58.9107 47.1859 58.9107 49.553C58.9107 51.9202 56.974 53.857 54.6068 53.857C52.2396 53.857 50.3029 51.9202 50.3029 49.553C50.3029 47.1859 52.2396 45.2491 54.6068 45.2491ZM54.6068 45.0698C52.132 45.0698 50.1235 47.0783 50.1235 49.553C50.1235 52.0278 52.132 54.0363 54.6068 54.0363C57.0816 54.0363 59.0901 52.0278 59.0901 49.553C59.0901 47.0783 57.0816 45.0698 54.6068 45.0698Z" fill="black"/>
<path d="M54.6068 46.2491C56.4217 46.2491 57.9107 47.7382 57.9107 49.553H59.9107C59.9107 46.6336 57.5263 44.2491 54.6068 44.2491V46.2491ZM57.9107 49.553C57.9107 51.3679 56.4217 52.857 54.6068 52.857V54.857C57.5263 54.857 59.9107 52.4725 59.9107 49.553H57.9107ZM54.6068 52.857C52.7919 52.857 51.3029 51.3679 51.3029 49.553H49.3029C49.3029 52.4725 51.6874 54.857 54.6068 54.857V52.857ZM51.3029 49.553C51.3029 47.7382 52.7919 46.2491 54.6068 46.2491V44.2491C51.6874 44.2491 49.3029 46.6336 49.3029 49.553H51.3029ZM54.6068 44.0698C51.5798 44.0698 49.1235 46.526 49.1235 49.553H51.1235C51.1235 47.6306 52.6843 46.0698 54.6068 46.0698V44.0698ZM49.1235 49.553C49.1235 52.5801 51.5798 55.0363 54.6068 55.0363V53.0363C52.6843 53.0363 51.1235 51.4755 51.1235 49.553H49.1235ZM54.6068 55.0363C57.6339 55.0363 60.0901 52.5801 60.0901 49.553H58.0901C58.0901 51.4755 56.5293 53.0363 54.6068 53.0363V55.0363ZM60.0901 49.553C60.0901 46.526 57.6339 44.0698 54.6068 44.0698V46.0698C56.5293 46.0698 58.0901 47.6306 58.0901 49.553H60.0901Z" fill="#6A4BFF" mask="url(#path-7-inside-1_18379_428030)"/>
<path d="M45.778 31.1697L39.1901 23.5896C38.8945 23.2494 38.3791 23.2133 38.039 23.509C37.6988 23.8046 37.6627 24.32 37.9584 24.6601L44.5463 32.2402C44.8419 32.5803 45.3573 32.6164 45.6974 32.3208C46.0376 32.0252 46.0736 31.5098 45.778 31.1697Z" fill="white"/>
<path d="M42.504 36.3318L33.5986 26.0851C33.303 25.745 32.7876 25.7089 32.4474 26.0045C32.1073 26.3001 32.0712 26.8155 32.3668 27.1557L41.2722 37.4023C41.5679 37.7425 42.0832 37.7786 42.4234 37.483C42.7635 37.1873 42.7996 36.672 42.504 36.3318Z" fill="white"/>
<path d="M46.3566 36.2639L33.6279 21.618C33.3323 21.2779 32.8169 21.2418 32.4767 21.5374C32.1366 21.833 32.1005 22.3484 32.3961 22.6886L45.1249 37.3344C45.4205 37.6745 45.9359 37.7106 46.276 37.415C46.6162 37.1194 46.6523 36.604 46.3566 36.2639Z" fill="white"/>
<defs>
<linearGradient id="paint0_linear_18379_428030" x1="24.6458" y1="29.9074" x2="53.5245" y2="29.9074" gradientUnits="userSpaceOnUse">
<stop stop-color="#4776E6"/>
<stop offset="1" stop-color="#8E54E9"/>
</linearGradient>
</defs>
</svg>
