<svg width="74" height="74" viewBox="0 0 74 74" fill="none" xmlns="http://www.w3.org/2000/svg">
<g clip-path="url(#clip0_25531_797)">
<path d="M53.9587 74.0006C42.908 74.0006 33.917 65.0096 33.917 53.9589C33.917 42.9083 42.908 33.9173 53.9587 33.9173C65.0093 33.9173 74.0003 42.9083 74.0003 53.9589C74.0003 65.0096 65.0093 74.0006 53.9587 74.0006ZM53.9587 37.0006C44.61 37.0006 37.0003 44.6103 37.0003 53.9589C37.0003 63.3076 44.61 70.9173 53.9587 70.9173C63.3073 70.9173 70.917 63.3076 70.917 53.9589C70.917 44.6103 63.3073 37.0006 53.9587 37.0006Z" fill="#C3CEEB"/>
<path d="M53.9585 64.7492C53.5638 64.7492 53.1691 64.5981 52.867 64.2991L43.617 55.0491C43.0157 54.4478 43.0157 53.4704 43.617 52.8692C44.2182 52.2679 45.1956 52.2679 45.7969 52.8692L53.9554 61.0276L62.1139 52.8692C62.7151 52.2679 63.6926 52.2679 64.2938 52.8692C64.8951 53.4704 64.8951 54.4478 64.2938 55.0491L55.0438 64.2991C54.7478 64.5981 54.3531 64.7492 53.9585 64.7492Z" fill="#C3CEEB"/>
<path d="M53.9587 63.9798C53.1077 63.9798 52.417 63.2891 52.417 62.4381V44.7089C52.417 43.8579 53.1077 43.1673 53.9587 43.1673C54.8097 43.1673 55.5003 43.8579 55.5003 44.7089V62.4381C55.5003 63.2891 54.8097 63.9798 53.9587 63.9798Z" fill="#C3CEEB"/>
<path d="M30.8333 24.6666C30.6514 24.6666 30.4726 24.6327 30.2999 24.571L1.00825 13.7794C0.403917 13.5543 0 12.9808 0 12.3333C0 11.6858 0.403917 11.1123 1.00825 10.8872L30.2999 0.095522C30.6422 -0.0308946 31.0214 -0.0308946 31.3667 0.095522L60.6584 10.8872C61.2627 11.1123 61.6667 11.6858 61.6667 12.3333C61.6667 12.9808 61.2627 13.5543 60.6584 13.7794L31.3667 24.571C31.1941 24.6327 31.0152 24.6666 30.8333 24.6666ZM6.00017 12.3333L30.8333 21.4815L55.6665 12.3333L30.8333 3.18502L6.00017 12.3333Z" fill="#C3CEEB"/>
<path d="M26.5783 60.0948C26.3995 60.0948 26.2207 60.0639 26.0449 59.9992L1.00825 50.78C0.403917 50.5549 0 49.9814 0 49.3339V12.3339C0 11.4829 0.690667 10.7923 1.54167 10.7923C2.39267 10.7923 3.08333 11.4829 3.08333 12.3339V48.2579L27.1118 57.107C27.9103 57.3999 28.3204 58.2879 28.0244 59.0865C27.7963 59.7094 27.2043 60.0948 26.5783 60.0948Z" fill="#C3CEEB"/>
<path d="M60.1247 27.7506C59.2737 27.7506 58.583 27.0599 58.583 26.2089V12.3339C58.583 11.4829 59.2737 10.7923 60.1247 10.7923C60.9757 10.7923 61.6663 11.4829 61.6663 12.3339V26.2089C61.6663 27.0599 60.9757 27.7506 60.1247 27.7506Z" fill="#C3CEEB"/>
<path d="M30.8337 40.1752C29.9827 40.1752 29.292 39.4845 29.292 38.6335V23.1244C29.292 22.2734 29.9827 21.5827 30.8337 21.5827C31.6847 21.5827 32.3753 22.2734 32.3753 23.1244V38.6335C32.3753 39.4876 31.6847 40.1752 30.8337 40.1752Z" fill="#C3CEEB"/>
</g>
<defs>
<clipPath id="clip0_25531_797">
<rect width="74" height="74" fill="white"/>
</clipPath>
</defs>
</svg>
