<svg width="171" height="24" viewBox="0 0 171 24" fill="none" xmlns="http://www.w3.org/2000/svg">
<path d="M33.3765 17.8185C31.7995 16.3239 31.0312 14.4252 31.0312 12.163C31.0312 9.94118 31.7995 8.04254 33.3765 6.54786C34.9534 5.05318 36.9347 4.28564 39.2395 4.28564C41.3421 4.28564 43.1617 4.93199 44.6577 6.18429C46.1943 7.43659 47.0838 9.05246 47.4073 10.9511H44.5769C44.2938 9.7392 43.6873 8.72928 42.7169 7.96174C41.7464 7.19421 40.5738 6.83064 39.2395 6.83064C37.703 6.83064 36.4091 7.35579 35.3578 8.36571C34.3065 9.37563 33.7808 10.6683 33.7808 12.163C33.7808 13.6577 34.3065 14.9504 35.3578 15.9603C36.4091 16.9702 37.703 17.4954 39.2395 17.4954C40.5738 17.4954 41.706 17.0914 42.7169 16.3239C43.6873 15.5563 44.3343 14.5868 44.5769 13.3749H47.4073C47.1243 15.3139 46.1943 16.8894 44.6577 18.1417C43.1212 19.394 41.3421 20.0404 39.2395 20.0404C36.9347 20.0808 34.9534 19.3536 33.3765 17.8185Z" fill="none"/>
<path d="M49.9141 19.8383V4.56836H52.6232V19.8383H49.9141Z" fill="none"/>
<path d="M66.0882 4.56836V7.03256H61.8426V19.8383H59.1739V7.03256H54.9282V4.56836H66.0882Z" fill="none"/>
<path d="M77.5718 19.8383L76.3183 16.6066H69.2018L67.9079 19.8383H64.9966L71.1831 4.56836H74.3774L80.5639 19.8383H77.5718ZM70.1318 14.1424H75.3479L72.7196 7.43652L70.1318 14.1424Z" fill="none"/>
<path d="M88.6912 4.56836C90.996 4.56836 92.856 5.2955 94.3925 6.74978C95.929 8.20406 96.6568 10.0219 96.6568 12.2033C96.6568 14.3848 95.8886 16.2026 94.3925 17.6569C92.856 19.1112 90.9555 19.8383 88.6912 19.8383H82.626V4.56836H88.6912ZM88.6508 17.3337C90.1468 17.3337 91.4003 16.849 92.4112 15.839C93.4221 14.8695 93.9073 13.6172 93.9073 12.1629C93.9073 10.7087 93.4221 9.45636 92.4112 8.48684C91.4003 7.51732 90.1468 7.03256 88.6508 7.03256H85.2947V17.3337H88.6508Z" fill="none"/>
<path d="M101.954 17.3337H108.221V19.7979H99.2446V4.56836H108.1V7.03256H101.954V10.9106H107.332V13.3748H101.954V17.3337Z" fill="none"/>
<path d="M113.518 17.3337H119.098V19.7979H110.85V4.56836H113.559V17.3337H113.518Z" fill="none"/>
<path d="M122.737 19.9999C122.211 19.9999 121.767 19.8383 121.443 19.5151C121.12 19.1919 120.917 18.788 120.917 18.2628C120.917 17.778 121.079 17.3337 121.443 17.0105C121.807 16.6873 122.211 16.4854 122.737 16.4854C123.263 16.4854 123.707 16.6469 124.031 17.0105C124.395 17.3337 124.557 17.778 124.557 18.2628C124.557 18.788 124.395 19.1919 124.031 19.5151C123.707 19.8383 123.263 19.9999 122.737 19.9999Z" fill="none"/>
<path d="M133.938 20.0808C131.592 20.0808 129.611 19.3132 128.034 17.8185C126.457 16.3239 125.689 14.4252 125.689 12.163C125.689 9.94118 126.457 8.04254 128.034 6.54786C129.611 5.05318 131.592 4.28564 133.938 4.28564C136.283 4.28564 138.264 5.05318 139.801 6.54786C141.378 8.04254 142.146 9.94118 142.146 12.163C142.146 14.4252 141.378 16.2835 139.801 17.8185C138.264 19.3536 136.283 20.0808 133.938 20.0808ZM137.86 16.0007C138.911 14.9908 139.437 13.6981 139.437 12.2034C139.437 10.7087 138.911 9.41603 137.86 8.40611C136.809 7.39619 135.515 6.87103 133.938 6.87103C132.401 6.87103 131.107 7.39619 130.056 8.40611C129.005 9.41603 128.479 10.7087 128.479 12.2034C128.479 13.6981 129.005 14.9908 130.056 16.0007C131.107 17.0106 132.401 17.5358 133.938 17.5358C135.515 17.5358 136.809 17.0106 137.86 16.0007Z" fill="none"/>
<path d="M155.368 4.56836H158.077V19.8383H155.327L147.483 9.05239V19.8383H144.774V4.56836H147.523L155.368 15.3543V4.56836Z" fill="none"/>
<path d="M164.183 17.3337H170.45V19.7979H161.474V4.56836H170.288V7.03256H164.142V10.9106H169.52V13.3748H164.142V17.3337H164.183Z" fill="none"/>
<path d="M12.3274 1.30263C16.9897 1.30263 20.9407 4.30263 22.4026 8.44737C22.5607 8.96053 22.9953 9.35526 23.5484 9.35526C24.1016 9.35526 24.6547 9.11842 24.6547 8.44737V1.61842C24.6547 0.710526 23.904 0 23.0348 0H1.61994C0.750705 0 0 0.75 0 1.61842V22.3421C0 23.25 0.750705 23.9605 1.61994 23.9605H22.9953C23.904 23.9605 24.6152 23.2105 24.6152 22.3421V15.5132C24.6152 14.8816 24.1806 14.4079 23.5484 14.4079C22.9163 14.4079 22.5212 14.8816 22.3236 15.5132C20.9407 19.6974 16.9897 22.6974 12.3274 22.6974C6.40075 22.6974 1.61994 17.9211 1.61994 12C1.61994 6.07895 6.40075 1.30263 12.3274 1.30263Z" fill="none"/>
</svg>
