<svg width="75" height="65" viewBox="0 0 75 65" fill="none" xmlns="http://www.w3.org/2000/svg">
<path fill-rule="evenodd" clip-rule="evenodd" d="M0.655125 3.20632L1.63108 0.644452C1.6608 0.566418 1.7067 0.495552 1.76574 0.436505L1.78419 0.41806C1.88345 0.318802 2.01807 0.263038 2.15844 0.263038C2.1876 0.263038 2.2167 0.265447 2.24546 0.27024L2.9284 0.384064C3.49512 0.478517 4.05135 0.627655 4.58931 0.829388L5.88479 1.31519L10.0934 2.89342L12.9868 3.94558L13.3932 4.09798C14.516 4.51902 15.7054 4.73469 16.9045 4.73469H25.6831C26.974 4.73469 28.2527 4.48474 29.4486 3.99864L30.8734 3.4195L34.2929 2.10431L38.2385 0.526077L39.9863 0.0267005C40.0483 0.00898664 40.1125 0 40.177 0C40.4398 0 40.6801 0.148507 40.7977 0.383607L40.8689 0.526077L41.1319 1.05215L42.4525 4.13358C42.6237 4.53288 42.7463 4.95127 42.8177 5.37978C42.9206 5.99722 42.916 6.62781 42.804 7.24367L42.4471 9.20634L40.8689 15.7823L40.4334 18.2502C40.2 19.5725 40.2354 20.9282 40.5373 22.2366L40.8689 23.6735L42.5324 28.4262C42.6501 28.7625 42.7102 29.1162 42.7102 29.4724C42.7102 29.8128 42.6553 30.151 42.5476 30.4739L40.1983 37.5221C40.1224 37.7497 39.9592 37.9378 39.7447 38.0451C39.6191 38.1079 39.4806 38.1406 39.3402 38.1406H38.8695C38.6252 38.1406 38.3818 38.1097 38.1453 38.0486L30.8154 36.1571C30.5136 36.0792 30.1938 36.113 29.915 36.2525C29.8526 36.2836 29.7929 36.3198 29.7364 36.3606L25.4139 39.4824C25.197 39.6391 24.9574 39.7619 24.7036 39.8465C24.4346 39.9361 24.1529 39.9818 23.8694 39.9818H19.2294C18.9275 39.9818 18.6277 39.9332 18.3413 39.8377C18.1045 39.7588 17.8793 39.6486 17.6716 39.5102L14.2107 37.2029C13.5773 36.7807 12.8616 36.4976 12.1108 36.3725L11.991 36.3525C11.7784 36.3171 11.5634 36.2993 11.3479 36.2993C11.0387 36.2993 10.7307 36.336 10.4301 36.4085L3.54015 38.0716C3.35342 38.1167 3.15777 38.1084 2.97553 38.0476C2.65603 37.9411 2.40923 37.6844 2.31533 37.361L0.780162 32.0732C0.331959 30.5294 0.262549 28.9003 0.577817 27.324L0.734173 26.5422C0.83594 26.0333 0.977159 25.5332 1.15655 25.0463L2.50634 21.3826C2.65317 20.984 2.72832 20.5626 2.72832 20.1379C2.72832 19.8654 2.69739 19.5938 2.63612 19.3283L0.360978 9.46938L0.256091 9.01487C-0.189964 7.08197 -0.0510645 5.06007 0.655125 3.20632ZM1.14996 6.57734L2.56977 2.08127C2.66408 1.78264 2.9411 1.57961 3.25427 1.57961C3.59661 1.57961 3.9306 1.68535 4.21058 1.88236L17.2326 11.046C17.6648 11.3501 17.8096 11.9247 17.5733 12.3974C17.4977 12.5485 17.3874 12.6795 17.2515 12.7797L13.7321 15.3729C12.8896 15.9936 11.955 16.4783 10.9623 16.8092L10.8824 16.8358L5.28684 18.3619C5.15987 18.3965 5.02885 18.4141 4.89725 18.4141C4.23614 18.4141 3.65513 17.9758 3.47351 17.3401L3.25427 16.5728L1.16445 8.67792C0.982397 7.99017 0.977414 7.26753 1.14996 6.57734ZM35.0819 4.20999L25.4164 11.0019C25.3719 11.0333 25.3301 11.0684 25.2916 11.1069C24.899 11.4995 24.9282 12.1446 25.3548 12.5002L28.8413 15.4056C29.1428 15.6568 29.4723 15.8723 29.8234 16.0478L30.1715 16.2219C30.6384 16.4553 31.1259 16.645 31.6278 16.7884L37.9865 18.6051C38.1485 18.6514 38.322 18.6353 38.4727 18.56C38.657 18.4678 38.7889 18.2964 38.8309 18.0947L39.2019 16.3098L40.6057 11.8381L41.3948 8.41861L41.4948 7.91906C41.6017 7.38456 41.5672 6.83142 41.3948 6.3143L40.6057 4.20999L40.0046 2.40657C39.8923 2.0698 39.5772 1.84265 39.2222 1.84265C39.0942 1.84265 38.9679 1.87246 38.8534 1.92972L38.5014 2.10569L35.0819 4.20999ZM25.0865 26.6071V25.5545C25.0865 25.3563 25.1326 25.1608 25.2213 24.9835L25.4872 24.4517C25.5693 24.2873 25.6929 24.1473 25.8458 24.0454C26.1852 23.8191 26.6247 23.8087 26.9745 24.0186L27.5481 24.3627C27.6596 24.4296 27.7827 24.4749 27.9109 24.4963L28.801 24.6447C29.0465 24.6856 29.1824 24.9524 29.0711 25.175L29.0616 25.194C29.0421 25.2329 29.032 25.2757 29.032 25.3191C29.032 25.4372 28.9578 25.5426 28.8465 25.5824L25.3861 26.8182C25.3619 26.8269 25.3364 26.8313 25.3107 26.8313C25.1868 26.8313 25.0865 26.7309 25.0865 26.6071ZM14.289 24.5559L13.8733 24.6945C13.8092 24.7159 13.7509 24.7519 13.7031 24.7997C13.5865 24.9163 13.5457 25.0889 13.5979 25.2454L13.6582 25.4262C13.7322 25.6484 13.9066 25.8227 14.1287 25.8968L14.5649 26.0422L15.8801 26.3052L16.9894 26.5271C17.1229 26.5538 17.2614 26.5352 17.3831 26.4744C17.5904 26.3707 17.7214 26.1588 17.7214 25.927V25.7756C17.7214 25.6064 17.6713 25.441 17.5775 25.3002L17.325 24.9215C17.2387 24.7921 17.1399 24.6716 17.03 24.5617L16.6692 24.2009L16.5922 24.1239C16.4731 24.0048 16.3116 23.9379 16.1432 23.9379H15.8801C15.5371 23.9379 15.2017 24.0394 14.9163 24.2297L14.8069 24.3026C14.6463 24.4097 14.4721 24.4949 14.289 24.5559ZM17.9844 34.1964L18.0917 33.7671C18.1887 33.3791 18.4772 33.0676 18.8565 32.9412C18.9758 32.9015 19.1007 32.8812 19.2264 32.8812H21.4039H21.667H23.5577C23.6982 32.8812 23.8367 32.9139 23.9622 32.9767C24.1768 33.084 24.34 33.2721 24.4158 33.4996L24.5604 33.9333L24.7876 34.8423C24.8114 34.9374 24.8234 35.0351 24.8234 35.1331V35.1689C24.8234 35.5473 24.6343 35.9007 24.3194 36.1106C24.1335 36.2345 23.9151 36.3007 23.6916 36.3007H18.7735H18.5792C18.3668 36.3007 18.1631 36.2163 18.0129 36.0661C17.8299 35.8832 17.7466 35.6232 17.7891 35.368L17.9844 34.1964Z" fill="#6A4BFF"/>
<path d="M50.8428 64.5307V47.9552L66.2778 64.5307H74.8646V64.103L57.1117 45.2283L73.4949 27.316V27.1021H64.8555L50.8428 42.9291V27.1021H43.8892V64.5307H50.8428Z" fill="#6A4BFF"/>
</svg>
