<svg width="77" height="77" viewBox="0 0 77 77" fill="none" xmlns="http://www.w3.org/2000/svg">
<g clip-path="url(#clip0_18379_428005)">
<path d="M36.2372 49.4951C35.5529 48.8073 34.447 48.8073 33.7627 49.4916L27.2754 55.9841H22.7499C21.7821 55.9841 20.9999 56.7681 20.9999 57.7359V61.2376H17.4999C16.5321 61.2376 15.75 62.0216 15.75 62.9893V66.491H12.2501C11.2841 66.491 10.5001 67.275 10.5001 68.2428V72.7718L9.77569 73.4964H3.50004V67.2174L32.7355 37.9574C33.4198 37.2749 33.4198 36.1654 32.7373 35.4812L32.2247 34.9667C31.7574 34.5013 31.5019 33.8817 31.5019 33.2219V33.2148C31.5019 32.2471 30.7197 31.4665 29.7519 31.4665C28.7842 31.4665 28.002 32.254 28.002 33.2218C28.002 34.4695 28.3817 35.6594 29.0871 36.657L0.512682 65.2538C0.183777 65.5828 0 66.0272 0 66.4928V75.2498C0 76.2157 0.783986 76.9997 1.74995 76.9997H10.5C10.9638 76.9997 11.41 76.8143 11.7372 76.487L13.4872 74.7353C13.8162 74.4062 13.9999 73.9618 13.9999 73.498V69.9963H17.4999C18.4677 69.9963 19.2499 69.2123 19.2499 68.2446V64.7429H22.7499C23.7177 64.7429 24.4998 63.9589 24.4998 62.9911V59.4894H27.9999C28.4653 59.4894 28.9099 59.304 29.2371 58.9768L36.2371 51.9716C36.9215 51.287 36.9215 50.1792 36.2372 49.4951Z" fill="#C3CEEB"/>
<path d="M63.3622 20.5978L56.3623 13.5926C54.3008 11.5258 50.6993 11.5258 48.6378 13.5926C46.5081 15.7241 46.5081 19.1926 48.6378 21.3224L55.6377 28.3276C56.6685 29.36 58.0405 29.9288 59.4999 29.9288C60.9594 29.9288 62.3315 29.36 63.3621 28.3276C65.4919 26.1961 65.4919 22.7277 63.3622 20.5978ZM60.8877 25.8496C60.1457 26.5917 58.8543 26.5917 58.1123 25.8496L51.1123 18.8444C50.3494 18.0797 50.3494 16.8337 51.1123 16.0672C51.4833 15.6962 51.9751 15.4915 52.5001 15.4915C53.0251 15.4915 53.5169 15.6962 53.8879 16.0672L60.8879 23.0724C61.6524 23.8371 61.6525 25.0849 60.8877 25.8496Z" fill="#C3CEEB"/>
<path d="M75.2498 21.985L54.9743 1.69373C52.7149 -0.563786 48.7845 -0.56559 46.5253 1.69373L29.7497 18.4815C28.621 19.6102 27.9997 21.1117 27.9997 22.7095C27.9997 24.3072 28.621 25.8087 29.7497 26.9374L46.5252 43.7252L45.4962 44.756C45.0307 45.2215 44.4111 45.4788 43.7532 45.4788H43.7514C43.0916 45.4788 42.4703 45.2215 42.0031 44.7543L37.1118 39.8596C36.4275 39.1753 35.3215 39.1753 34.6372 39.8596L25.0122 49.4916C24.328 50.1759 24.328 51.2837 25.0122 51.9678C25.3535 52.3091 25.8015 52.4805 26.2495 52.4805C26.6975 52.4805 27.1455 52.3091 27.4868 51.9678L35.8745 43.5748L39.5285 47.2305C40.6572 48.3592 42.1553 48.9805 43.753 48.9805C43.7548 48.9805 43.7565 48.9805 43.7583 48.9805C45.3508 48.9787 46.847 48.3557 47.9706 47.2305L50.2368 44.9625C50.9211 44.2782 50.9211 43.1704 50.2368 42.4863L32.2242 24.4596C31.7551 23.9923 31.4998 23.371 31.4998 22.7096C31.4998 22.0481 31.7553 21.4269 32.2242 20.9579L48.9997 4.17172C49.9359 3.23373 51.5634 3.23553 52.4997 4.17172L72.7753 24.463C73.2443 24.9303 73.4998 25.5516 73.4998 26.213C73.4998 26.8744 73.2443 27.4957 72.7753 27.9647L55.9998 44.7507C55.5307 45.2198 54.9113 45.477 54.2498 45.477C53.2821 45.477 52.4999 46.2609 52.4999 47.2287C52.4999 48.1965 53.2821 48.9805 54.2498 48.9805C55.8441 48.9805 57.3456 48.3592 58.4743 47.2287L75.2498 30.4409C76.3785 29.3122 76.9997 27.8107 76.9997 26.213C76.9997 24.6136 76.3785 23.1121 75.2498 21.985Z" fill="#C3CEEB"/>
</g>
<defs>
<clipPath id="clip0_18379_428005">
<rect width="77" height="77" fill="white"/>
</clipPath>
</defs>
</svg>
