<svg width="74" height="65" viewBox="0 0 74 65" fill="none" xmlns="http://www.w3.org/2000/svg">
<path d="M41.2751 20.5742C40.0514 20.5742 39.0592 21.566 39.0587 22.7897L39.0532 36.081C39.0532 36.6698 39.2869 37.2326 39.7026 37.6481L49.2287 47.1724C50.0942 48.0377 51.4973 48.0376 52.3628 47.1722C53.2283 46.3066 53.2282 44.9033 52.3626 44.0378L43.8646 35.5416C43.6223 35.2993 43.4862 34.9706 43.4863 34.628L43.4916 22.7916C43.4921 21.5672 42.4996 20.5742 41.2751 20.5742Z" fill="#6A4BFF"/>
<path d="M41.625 0C25.3475 0 11.8759 12.0887 9.61961 27.75H3.11697C1.96673 27.75 1.39069 29.1407 2.20403 29.9541L10.6496 38.3996C11.1538 38.9038 11.9712 38.9038 12.4754 38.3996L20.9209 29.9541C21.7343 29.1407 21.1583 27.75 20.008 27.75H14.2927C16.5051 14.6468 27.9016 4.62505 41.625 4.62505C56.9272 4.62505 69.3751 17.0728 69.3751 32.3751C69.3751 47.6774 56.9273 60.1251 41.625 60.1251C33.7971 60.1251 26.4873 56.9009 21.2374 51.2046C20.3723 50.266 18.9267 50.0798 17.9205 50.8653C16.9137 51.6513 16.7294 53.1115 17.5841 54.0608C23.7251 60.8805 32.3635 64.75 41.625 64.75C59.4769 64.75 74 50.2246 74 32.3751C74 14.5255 59.4769 0.00013427 41.625 0Z" fill="#6A4BFF"/>
</svg>
