<svg width="69" height="69" viewBox="0 0 69 69" fill="none" xmlns="http://www.w3.org/2000/svg">
<path d="M56.2708 12.7303C50.4557 6.91513 42.7242 3.71268 34.5004 3.71268C26.2766 3.71268 18.5449 6.91525 12.7297 12.7303C6.91461 18.5454 3.71191 26.2771 3.71191 34.5009C3.71191 42.7246 6.91449 50.4562 12.7296 56.2714C18.5449 62.0865 26.2766 65.289 34.5004 65.289C42.7241 65.289 50.4557 62.0865 56.2708 56.2714C62.0859 50.4563 65.2885 42.7247 65.2885 34.5009C65.2884 26.2771 62.0859 18.5454 56.2708 12.7303ZM34.5004 61.681C19.513 61.681 7.31991 49.488 7.31991 34.5009C7.32003 19.5138 19.5131 7.32067 34.5004 7.32067C49.4874 7.32067 61.6804 19.5137 61.6805 34.5009C61.6804 49.488 49.4874 61.681 34.5004 61.681Z" fill="#C3CEEB"/>
<path d="M51.8901 32.6958H36.3036L36.3037 17.1091C36.3037 16.1128 35.496 15.3051 34.4997 15.3051C33.5034 15.3051 32.6957 16.1128 32.6957 17.1091L32.6956 32.6958H17.1092C16.1129 32.6958 15.3052 33.5035 15.3052 34.4998C15.3052 35.496 16.1129 36.3037 17.1092 36.3037H32.6956V51.8903C32.6956 52.8866 33.5033 53.6943 34.4996 53.6943C35.4959 53.6943 36.3036 52.8866 36.3036 51.8903V36.3037H51.8901C52.8864 36.3037 53.6941 35.496 53.6941 34.4998C53.6941 33.5035 52.8864 32.6958 51.8901 32.6958Z" fill="#C3CEEB"/>
</svg>
