<svg width="170" height="142" viewBox="0 0 170 142" fill="none" xmlns="http://www.w3.org/2000/svg">
  <path
    d="M149.335 64.9364C148.541 56.98 146.372 49.3129 142.881 42.1452C142.713 41.7998 142.307 41.6459 141.952 41.7905L141.784 41.8605C141.598 41.9352 141.448 42.0845 141.378 42.2758C141.308 42.4625 141.313 42.6725 141.402 42.8545C141.892 43.8624 142.372 44.9217 142.83 45.9997C145.415 52.1082 147.053 58.5526 147.706 65.1557C147.729 65.3844 147.86 65.5897 148.056 65.7064C148.173 65.7764 148.299 65.809 148.429 65.809C148.523 65.809 148.616 65.7904 148.705 65.753L148.877 65.683C149.185 65.5617 149.367 65.2584 149.335 64.9364Z"
    fill="#C3CEEB" />
  <path
    d="M43.1588 17.2872C43.3034 17.4459 43.4994 17.5299 43.7048 17.5299C43.8494 17.5299 43.9941 17.4879 44.1201 17.3992C45.1047 16.7085 46.136 16.0319 47.172 15.3973C47.354 15.2853 47.48 15.0986 47.5126 14.8839C47.5453 14.6693 47.48 14.4546 47.3353 14.296L47.2186 14.1606C46.9853 13.8993 46.5933 13.8386 46.2947 14.0253C45.24 14.6739 44.1901 15.3646 43.1681 16.0739C42.9954 16.1906 42.8881 16.3772 42.8601 16.5872C42.8368 16.7925 42.9021 17.0025 43.0374 17.1565L43.1588 17.2872Z"
    fill="#C3CEEB" />
  <path
    d="M35.0853 24.9685C36.8072 23.2466 38.6272 21.6133 40.4938 20.1154C40.6524 19.9894 40.7458 19.8027 40.7644 19.6067C40.7784 19.4061 40.7131 19.2101 40.5778 19.0607L40.4564 18.9254C40.1998 18.6407 39.7611 18.6081 39.4625 18.8461C25.8923 29.7377 17.1052 45.1745 14.716 62.3193C14.6693 62.6553 14.8606 62.9773 15.1733 63.0986L15.3459 63.1686C15.4299 63.2013 15.5186 63.2199 15.6073 63.2199C15.7333 63.2199 15.8639 63.1873 15.9759 63.1173C16.1672 63.0053 16.2979 62.8093 16.3259 62.59C17.1099 56.8968 18.6498 51.3157 20.8991 46.0005C24.2403 38.1141 29.0095 31.0397 35.0853 24.9685Z"
    fill="#C3CEEB" />
  <path
    d="M108.733 135.499C108.658 135.317 108.513 135.173 108.331 135.098C108.15 135.023 107.944 135.028 107.762 135.107L107.711 135.131C107.678 135.145 107.646 135.159 107.632 135.163C99.4745 138.612 90.8088 140.362 81.8771 140.362C79.0678 140.362 76.2539 140.185 73.5147 139.839C73.3093 139.811 73.0993 139.877 72.9407 140.017C72.782 140.157 72.6934 140.353 72.6934 140.563V140.74C72.6934 141.109 72.964 141.417 73.328 141.463C76.1372 141.818 79.0118 142 81.8724 142C91.0841 142 100.011 140.185 108.411 136.605C108.775 136.451 108.947 136.031 108.798 135.663L108.733 135.499Z"
    fill="#C3CEEB" />
  <path
    d="M81.871 9.51758C65.1835 9.51758 49.4994 16.0134 37.6978 27.815C25.9008 39.6119 19.4004 55.3007 19.4004 71.9882V73.9668C19.4004 90.6542 25.8962 106.338 37.6978 118.14C49.4947 129.937 65.1835 136.437 81.871 136.437C98.5584 136.437 114.243 129.942 126.044 118.14C137.841 106.343 144.342 90.6542 144.342 73.9668V71.9882C144.342 55.3007 137.846 39.6166 126.044 27.815C114.243 16.0134 98.5584 9.51758 81.871 9.51758ZM142.624 71.9835V73.9621C142.624 82.1658 141.019 90.1222 137.85 97.612C134.789 104.845 130.412 111.345 124.831 116.922C119.25 122.503 112.754 126.88 105.521 129.942C98.0311 133.11 90.0747 134.715 81.871 134.715C73.6672 134.715 65.7108 133.11 58.2211 129.942C50.988 126.88 44.4876 122.503 38.9111 116.922C33.3299 111.341 28.9527 104.845 25.8915 97.612C22.7229 90.1222 21.1177 82.1658 21.1177 73.9621V71.9835C21.1177 63.7798 22.7229 55.8234 25.8915 48.3383C28.9527 41.1052 33.3299 34.6047 38.9111 29.0283C44.4922 23.4471 50.988 19.0699 58.2211 16.0087C65.7108 12.8401 73.6672 11.2349 81.871 11.2349C90.0747 11.2349 98.0311 12.8401 105.516 16.0087C112.749 19.0699 119.25 23.4471 124.826 29.0283C130.407 34.6094 134.785 41.1052 137.846 48.3383C141.019 55.828 142.624 63.7844 142.624 71.9835Z"
    fill="#C3CEEB" />
  <path
    d="M108.117 103.768H55.6276C50.1958 103.768 45.7812 99.703 45.7812 94.7052V68.0594C45.7812 64.0835 48.5485 60.607 52.669 59.417L64.4146 56.0105C65.0446 55.8238 65.7073 56.1925 65.8939 56.8224C66.0759 57.4571 65.7119 58.1151 65.0819 58.3017L53.3363 61.7083C50.2471 62.6042 48.1705 65.1568 48.1705 68.0641V94.7098C48.1705 98.3917 51.5211 101.392 55.6369 101.392H108.121C112.237 101.392 115.588 98.3964 115.588 94.7098V68.0641C115.588 65.1615 113.511 62.6042 110.422 61.7083L98.6855 58.3064C98.0555 58.1244 97.6915 57.4618 97.8735 56.8271C98.0555 56.1925 98.7228 55.8285 99.3528 56.0151L111.089 59.417C115.21 60.6116 117.977 64.0882 117.977 68.0594V94.7052C117.963 99.6983 113.544 103.768 108.117 103.768Z"
    fill="#6B93C0" />
  <path
    d="M72.9499 86.0069C72.6746 86.0069 72.3946 85.9136 72.1706 85.7176L47.7088 64.5176C47.2095 64.0883 47.1581 63.3323 47.5875 62.8377C48.0168 62.3384 48.7727 62.287 49.2674 62.7164L73.7292 83.9163C74.2286 84.3456 74.2799 85.1016 73.8506 85.5963C73.6173 85.8669 73.2859 86.0069 72.9499 86.0069Z"
    fill="#6B93C0" />
  <path
    d="M90.7986 86.0062C90.4626 86.0062 90.1313 85.8662 89.898 85.5955C89.4687 85.0962 89.52 84.3449 90.0193 83.9156L114.477 62.7203C114.976 62.2909 115.727 62.3423 116.156 62.8416C116.586 63.3409 116.534 64.0922 116.035 64.5215L91.5779 85.7168C91.354 85.9082 91.074 86.0062 90.7986 86.0062Z"
    fill="#6B93C0" />
  <path
    d="M113.866 101.774C113.633 101.774 113.4 101.709 113.194 101.564L83.1605 81.0272C82.4092 80.5139 81.3546 80.5139 80.5986 81.0272L50.5649 101.564C50.0236 101.938 49.2816 101.798 48.9083 101.252C48.535 100.711 48.675 99.9685 49.221 99.5952L79.2547 79.0579C80.8273 77.9846 82.9412 77.9846 84.5091 79.0579L114.543 99.5952C115.084 99.9685 115.224 100.711 114.855 101.252C114.617 101.592 114.244 101.774 113.866 101.774Z"
    fill="#6B93C0" />
  <path
    d="M99.0074 73.0899C98.3494 73.0899 97.8174 72.5579 97.8174 71.8999V45.4735C97.8174 44.9742 97.4114 44.5682 96.9121 44.5682H66.8458C66.3465 44.5682 65.9405 44.9742 65.9405 45.4735V71.8953C65.9405 72.5533 65.4085 73.0852 64.7505 73.0852C64.0925 73.0852 63.5605 72.5533 63.5605 71.8953V45.4735C63.5605 43.6582 65.0352 42.1836 66.8504 42.1836H96.9168C98.732 42.1836 100.207 43.6582 100.207 45.4735V71.8953C100.197 72.5533 99.6653 73.0899 99.0074 73.0899Z"
    fill="#6B93C0" />
  <path
    d="M90.7707 51.2832H71.3814C70.7234 51.2832 70.1914 50.7513 70.1914 50.0933C70.1914 49.4353 70.7234 48.9033 71.3814 48.9033H90.7707C91.4287 48.9033 91.9607 49.4353 91.9607 50.0933C91.9653 50.7466 91.4287 51.2832 90.7707 51.2832Z"
    fill="#6B93C0" />
  <path
    d="M92.3623 58.2276H81.0786C80.4207 58.2276 79.8887 57.6956 79.8887 57.0376C79.8887 56.3796 80.4207 55.8477 81.0786 55.8477H92.3623C93.0202 55.8477 93.5522 56.3796 93.5522 57.0376C93.5522 57.6956 93.0202 58.2276 92.3623 58.2276Z"
    fill="#6B93C0" />
  <path
    d="M76.4445 58.2276H71.3814C70.7234 58.2276 70.1914 57.6956 70.1914 57.0376C70.1914 56.3796 70.7234 55.8477 71.3814 55.8477H76.4445C77.1025 55.8477 77.6345 56.3796 77.6345 57.0376C77.6392 57.6956 77.1072 58.2276 76.4445 58.2276Z"
    fill="#6B93C0" />
  <path
    d="M89.9776 65.1709H87.0611C86.4031 65.1709 85.8711 64.639 85.8711 63.981C85.8711 63.323 86.4031 62.791 87.0611 62.791H89.9776C90.6356 62.791 91.1676 63.323 91.1676 63.981C91.1676 64.639 90.6356 65.1709 89.9776 65.1709Z"
    fill="#6B93C0" />
  <path
    d="M82.231 65.1709H71.3814C70.7234 65.1709 70.1914 64.639 70.1914 63.981C70.1914 63.323 70.7234 62.791 71.3814 62.791H82.231C82.889 62.791 83.421 63.323 83.421 63.981C83.4256 64.639 82.889 65.1709 82.231 65.1709Z"
    fill="#6B93C0" />
  <path
    d="M91.564 72.1192H71.3814C70.7234 72.1192 70.1914 71.5872 70.1914 70.9292C70.1914 70.2712 70.7234 69.7393 71.3814 69.7393H91.564C92.222 69.7393 92.754 70.2712 92.754 70.9292C92.7587 71.5825 92.222 72.1192 91.564 72.1192Z"
    fill="#6B93C0" />
  <circle cx="23" cy="106" r="15" fill="url(#paint0_linear_29437_490307)" />
  <circle cx="142" cy="86" r="10" fill="url(#paint1_linear_29437_490307)" />
  <circle cx="60" cy="9" r="9" fill="url(#paint2_linear_29437_490307)" />
  <circle cx="125" cy="135" r="5" fill="url(#paint3_linear_29437_490307)" />
  <circle cx="165" cy="63" r="5" fill="url(#paint4_linear_29437_490307)" />
  <circle cx="5" cy="51" r="5" fill="url(#paint5_linear_29437_490307)" />
  <defs>
    <linearGradient id="paint0_linear_29437_490307" x1="8" y1="106" x2="38" y2="106" gradientUnits="userSpaceOnUse">
      <stop stop-color="#F3E7FF" />
      <stop offset="1" stop-color="#CDE6FF" />
    </linearGradient>
    <linearGradient id="paint1_linear_29437_490307" x1="132" y1="86" x2="152" y2="86" gradientUnits="userSpaceOnUse">
      <stop stop-color="#F3E7FF" />
      <stop offset="1" stop-color="#CDE6FF" />
    </linearGradient>
    <linearGradient id="paint2_linear_29437_490307" x1="51" y1="9" x2="69" y2="9" gradientUnits="userSpaceOnUse">
      <stop stop-color="#F3E7FF" />
      <stop offset="1" stop-color="#CDE6FF" />
    </linearGradient>
    <linearGradient id="paint3_linear_29437_490307" x1="120" y1="135" x2="130" y2="135" gradientUnits="userSpaceOnUse">
      <stop stop-color="#F3E7FF" />
      <stop offset="1" stop-color="#CDE6FF" />
    </linearGradient>
    <linearGradient id="paint4_linear_29437_490307" x1="160" y1="63" x2="170" y2="63" gradientUnits="userSpaceOnUse">
      <stop stop-color="#F3E7FF" />
      <stop offset="1" stop-color="#CDE6FF" />
    </linearGradient>
    <linearGradient id="paint5_linear_29437_490307" x1="0" y1="51" x2="10" y2="51" gradientUnits="userSpaceOnUse">
      <stop stop-color="#F3E7FF" />
      <stop offset="1" stop-color="#CDE6FF" />
    </linearGradient>
  </defs>
</svg>
