<svg width="48" height="48" viewBox="0 0 48 48" fill="none" xmlns="http://www.w3.org/2000/svg">
<path fill-rule="evenodd" clip-rule="evenodd" d="M25.629 11.844L29.577 15.792L25.629 19.74V11.844ZM25.629 36.156L29.577 32.208L25.629 28.26V36.156ZM21.399 24.027L12.825 15.399L15.306 12.918L22.131 19.74V3.384L34.542 15.792L26.361 24.03L34.596 32.265L22.188 44.676V28.26L15.306 35.082L12.825 32.601L21.399 24.03V24.027ZM23.709 48C34.203 48 41.421 43.035 41.421 23.97C41.421 4.965 34.203 0 23.712 0C13.221 0 6 4.965 6 24.03C6 43.032 13.218 48 23.709 48Z" fill="#1A53F0"/>
</svg>
