<svg width="145" height="130" viewBox="0 0 145 130" fill="none" xmlns="http://www.w3.org/2000/svg">
<path d="M114.496 127.682L27.1886 27.2182C25.8197 25.6212 25.9718 23.2255 27.5689 21.8566L50.4985 1.93108C52.0956 0.562148 54.4912 0.714251 55.8601 2.31134L143.167 102.776C144.536 104.373 144.384 106.768 142.787 108.137L119.82 128.101C118.26 129.432 115.865 129.28 114.496 127.682Z" fill="#C3CEEB" stroke="#C3CEEB" stroke-miterlimit="10"/>
<path d="M60.646 26.3816C60.646 31.3137 56.6477 35.312 51.7156 35.312C46.7834 35.312 42.7852 31.3137 42.7852 26.3816C42.7852 21.4495 46.7834 17.4512 51.7156 17.4512C56.6477 17.4512 60.646 21.4495 60.646 26.3816Z" fill="#C3CEEB" stroke="#6B93C0"/>
<path d="M51.7149 17.0654C56.8484 17.0654 61.0313 21.2482 61.0313 26.3817C61.0313 31.5152 56.8484 35.698 51.7149 35.698C46.5815 35.698 42.3986 31.5152 42.3986 26.3817C42.3986 21.2482 46.5815 17.0654 51.7149 17.0654ZM51.7149 16.8752C46.4674 16.8752 42.2085 21.1341 42.2085 26.3817C42.2085 31.6293 46.4674 35.8882 51.7149 35.8882C56.9625 35.8882 61.2214 31.6293 61.2214 26.3817C61.2214 21.1341 56.9625 16.8752 51.7149 16.8752Z" fill="#6B93C0"/>
<g style="mix-blend-mode:screen" opacity="0.5">
<path d="M92.2499 94.2961L52.627 48.7412C52.3608 48.437 52.3988 47.9427 52.703 47.6765L72.8187 30.1846C73.1229 29.9184 73.6172 29.9564 73.8834 30.2606L113.506 75.8536C113.772 76.1578 113.734 76.6521 113.43 76.9183L93.3146 94.4102C92.9724 94.6764 92.5161 94.6383 92.2499 94.2961Z" fill="#6B93C0"/>
</g>
<path d="M0.189697 122.397V84.7515H117.88C128.261 84.7515 136.702 93.1932 136.702 103.574C136.702 113.955 128.261 122.397 117.88 122.397H0.189697Z" fill="white"/>
<mask id="path-6-inside-1" fill="white">
<path d="M117.88 84.941C128.147 84.941 136.513 93.3067 136.513 103.574C136.513 113.841 128.147 122.206 117.88 122.206H0.380258V84.941H117.88ZM117.88 84.5608H0V122.587H117.88C128.375 122.587 136.893 114.069 136.893 103.574C136.893 93.0786 128.375 84.5608 117.88 84.5608Z"/>
</mask>
<path d="M117.88 84.941C128.147 84.941 136.513 93.3067 136.513 103.574C136.513 113.841 128.147 122.206 117.88 122.206H0.380258V84.941H117.88ZM117.88 84.5608H0V122.587H117.88C128.375 122.587 136.893 114.069 136.893 103.574C136.893 93.0786 128.375 84.5608 117.88 84.5608Z" fill="black"/>
<path d="M0.380258 122.206H-0.619742V123.206H0.380258V122.206ZM0.380258 84.941V83.941H-0.619742V84.941H0.380258ZM0 84.5608V83.5608H-1V84.5608H0ZM0 122.587H-1V123.587H0V122.587ZM117.88 85.941C127.595 85.941 135.513 93.859 135.513 103.574H137.513C137.513 92.7544 128.699 83.941 117.88 83.941V85.941ZM135.513 103.574C135.513 113.288 127.595 121.206 117.88 121.206V123.206C128.699 123.206 137.513 114.393 137.513 103.574H135.513ZM117.88 121.206H0.380258V123.206H117.88V121.206ZM1.38026 122.206V84.941H-0.619742V122.206H1.38026ZM0.380258 85.941H117.88V83.941H0.380258V85.941ZM117.88 83.5608H0V85.5608H117.88V83.5608ZM-1 84.5608V122.587H1V84.5608H-1ZM0 123.587H117.88V121.587H0V123.587ZM117.88 123.587C128.927 123.587 137.893 114.621 137.893 103.574H135.893C135.893 113.517 127.823 121.587 117.88 121.587V123.587ZM137.893 103.574C137.893 92.5263 128.927 83.5608 117.88 83.5608V85.5608C127.823 85.5608 135.893 93.6309 135.893 103.574H137.893Z" fill="#C3CEEB" mask="url(#path-6-inside-1)"/>
<path d="M115.98 113.271C121.125 113.271 125.296 109.1 125.296 103.954C125.296 98.809 121.125 94.6379 115.98 94.6379C110.834 94.6379 106.663 98.809 106.663 103.954C106.663 109.1 110.834 113.271 115.98 113.271Z" fill="white"/>
<mask id="path-9-inside-2" fill="white">
<path d="M115.979 94.8283C120.999 94.8283 125.106 98.935 125.106 103.954C125.106 108.974 120.999 113.081 115.979 113.081C110.96 113.081 106.853 108.974 106.853 103.954C106.853 98.935 110.96 94.8283 115.979 94.8283ZM115.979 94.448C110.732 94.448 106.473 98.7069 106.473 103.954C106.473 109.202 110.732 113.461 115.979 113.461C121.227 113.461 125.486 109.202 125.486 103.954C125.486 98.7069 121.227 94.448 115.979 94.448Z"/>
</mask>
<path d="M115.979 94.8283C120.999 94.8283 125.106 98.935 125.106 103.954C125.106 108.974 120.999 113.081 115.979 113.081C110.96 113.081 106.853 108.974 106.853 103.954C106.853 98.935 110.96 94.8283 115.979 94.8283ZM115.979 94.448C110.732 94.448 106.473 98.7069 106.473 103.954C106.473 109.202 110.732 113.461 115.979 113.461C121.227 113.461 125.486 109.202 125.486 103.954C125.486 98.7069 121.227 94.448 115.979 94.448Z" fill="black"/>
<path d="M115.979 95.8283C120.446 95.8283 124.106 99.4873 124.106 103.954H126.106C126.106 98.3828 121.551 93.8283 115.979 93.8283V95.8283ZM124.106 103.954C124.106 108.422 120.446 112.081 115.979 112.081V114.081C121.551 114.081 126.106 109.526 126.106 103.954H124.106ZM115.979 112.081C111.512 112.081 107.853 108.422 107.853 103.954H105.853C105.853 109.526 110.408 114.081 115.979 114.081V112.081ZM107.853 103.954C107.853 99.4873 111.512 95.8283 115.979 95.8283V93.8283C110.408 93.8283 105.853 98.3828 105.853 103.954H107.853ZM115.979 93.448C110.18 93.448 105.473 98.1546 105.473 103.954H107.473C107.473 99.2592 111.284 95.448 115.979 95.448V93.448ZM105.473 103.954C105.473 109.754 110.18 114.461 115.979 114.461V112.461C111.284 112.461 107.473 108.65 107.473 103.954H105.473ZM115.979 114.461C121.779 114.461 126.486 109.754 126.486 103.954H124.486C124.486 108.65 120.675 112.461 115.979 112.461V114.461ZM126.486 103.954C126.486 98.1546 121.779 93.448 115.979 93.448V95.448C120.675 95.448 124.486 99.2592 124.486 103.954H126.486Z" fill="#C3CEEB" mask="url(#path-9-inside-2)"/>
<path d="M97.2573 64.9733L83.2881 48.9002C82.6613 48.179 81.5684 48.1024 80.8472 48.7293C80.1259 49.3561 80.0494 50.4489 80.6763 51.1702L94.6454 67.2432C95.2723 67.9645 96.3651 68.041 97.0863 67.4142C97.8076 66.7873 97.8841 65.6945 97.2573 64.9733Z" fill="#6B93C0"/>
<path d="M90.3162 75.9188L71.4329 54.1915C70.8061 53.4702 69.7132 53.3937 68.992 54.0205C68.2707 54.6474 68.1942 55.7402 68.821 56.4615L87.7043 78.1888C88.3312 78.91 89.424 78.9866 90.1453 78.3597C90.8665 77.7329 90.9431 76.64 90.3162 75.9188Z" fill="#6B93C0"/>
<path d="M98.4858 75.7774L71.4954 44.722C70.8686 44.0007 69.7757 43.9242 69.0545 44.551C68.3332 45.1779 68.2567 46.2707 68.8835 46.992L95.8739 78.0474C96.5008 78.7687 97.5936 78.8452 98.3149 78.2184C99.0361 77.5915 99.1127 76.4987 98.4858 75.7774Z" fill="#6B93C0"/>
</svg>