<svg width="364" height="240" viewBox="0 0 364 240" fill="none" xmlns="http://www.w3.org/2000/svg">
<path d="M363.887 238.472C363.887 238.549 361.903 238.664 358.165 238.741C357.554 238.741 356.868 238.779 356.181 238.779C353.969 238.817 351.298 238.856 348.17 238.894C347.14 238.894 346.072 238.932 344.966 238.932C344.775 238.932 344.546 238.932 344.317 238.932C344.203 238.932 344.127 238.932 344.012 238.932C343.821 238.932 343.631 238.932 343.44 238.932C342.982 238.932 342.486 238.932 341.99 238.932C341.227 238.932 340.426 238.932 339.625 238.971C339.129 238.971 338.595 238.971 338.061 238.971C337.947 238.971 337.832 238.971 337.718 238.971C336.65 238.971 335.505 239.009 334.361 239.009C331.881 239.047 329.287 239.047 326.541 239.086C322.764 239.124 318.721 239.124 314.486 239.162C309.031 239.2 303.195 239.239 297.015 239.277C272.524 239.392 242.693 239.469 210.001 239.507C200.845 239.507 191.423 239.507 181.886 239.507C180.208 239.507 178.567 239.507 176.927 239.507C131.875 239.507 90.905 239.392 59.7386 239.239C50.5833 239.2 42.2672 239.124 34.9429 239.086C33.5696 239.086 32.2345 239.047 30.9374 239.047C30.3652 239.047 29.793 239.047 29.2208 239.047C28.8775 239.047 28.5342 239.047 28.1908 239.047C26.8938 239.047 25.635 239.009 24.4524 239.009C24.2235 239.009 23.9946 239.009 23.8039 239.009C23.2698 239.009 22.7358 239.009 22.2017 239.009C21.9728 239.009 21.7439 239.009 21.5151 239.009C21.248 239.009 20.981 239.009 20.7521 239.009C19.9129 239.009 19.1118 239.009 18.3488 238.971C17.8911 238.971 17.4333 238.971 17.0137 238.932C16.4796 238.932 15.9456 238.932 15.4115 238.894C13.8475 238.856 12.3979 238.856 11.0627 238.817C11.0246 238.817 10.9483 238.817 10.9101 238.817C3.85288 238.702 0 238.587 0 238.434C0 238.319 3.50955 238.204 9.95644 238.089C10.7957 238.089 11.6731 238.051 12.6267 238.051C13.3134 238.051 14.0001 238.013 14.7248 238.013C15.1445 238.013 15.6022 238.013 16.0219 238.013C16.5178 238.013 17.0518 238.013 17.5477 237.974C18.1963 237.974 18.8448 237.974 19.5314 237.936C19.684 237.936 19.8366 237.936 19.9892 237.936C20.0273 237.936 20.0655 237.936 20.1418 237.936C20.9047 237.936 21.7058 237.936 22.5069 237.898C22.7358 237.898 23.0028 237.898 23.2317 237.898C24.4906 237.898 25.8257 237.859 27.1609 237.859C27.8475 237.859 28.496 237.859 29.2208 237.821H29.259C30.5178 237.821 31.853 237.783 33.1881 237.783C41.0083 237.706 50.0492 237.668 60.082 237.591C90.9813 237.438 131.532 237.323 176.088 237.323H181.924C191.27 237.323 200.426 237.323 209.39 237.323C242.502 237.361 272.677 237.438 297.396 237.553C303.767 237.591 309.756 237.629 315.364 237.668C319.255 237.706 322.993 237.706 326.464 237.744C328.982 237.783 331.385 237.783 333.712 237.821C335.048 237.821 336.383 237.859 337.642 237.859C337.718 237.859 337.756 237.859 337.794 237.859C338.824 237.859 339.816 237.898 340.77 237.898C341.113 237.898 341.494 237.898 341.838 237.898C342.181 237.898 342.563 237.898 342.906 237.898C343.478 237.898 344.012 237.898 344.584 237.936C344.775 237.936 345.004 237.936 345.195 237.936C345.271 237.936 345.347 237.936 345.385 237.936C346.644 237.936 347.865 237.974 349.009 237.974C352.023 238.013 354.617 238.051 356.753 238.089C357.211 238.089 357.669 238.128 358.089 238.128C361.865 238.281 363.887 238.396 363.887 238.472Z" fill="#FFCCE0"/>
<path d="M321.437 239.661C323.127 229.524 327.939 220.067 334.752 212.386C341.878 204.365 351.786 197.703 354.127 187.201C355.115 182.76 354.049 177.247 349.992 175.21C347.391 173.903 344.141 174.321 341.696 172.728C338.991 170.951 338.185 167.189 338.887 164.028C339.589 160.867 341.488 158.098 343.204 155.354C350.512 143.703 355.453 130.509 357.586 116.898C358.184 113.11 358.574 109.217 357.872 105.455C357.17 101.693 355.271 98.0097 352.099 95.8674C346.507 92.1315 338.445 94.3521 333.998 99.4204C329.551 104.489 328.121 111.543 328.017 118.283C327.913 125.023 328.927 131.763 328.667 138.504C328.485 142.71 327.523 147.386 324.038 149.764C318.576 153.473 310.826 149.137 304.637 151.462C298.395 153.787 296.367 162.121 298.291 168.522C300.216 174.922 304.897 180.043 308.72 185.529C319.721 201.178 324.636 220.694 321.437 239.661Z" fill="url(#paint0_linear_17431_431123)"/>
<path d="M347.652 101.38C347.704 101.354 347.86 101.746 348.12 102.503C348.198 102.686 348.25 102.895 348.302 103.13C348.354 103.366 348.432 103.627 348.51 103.888C348.536 103.966 348.536 104.019 348.562 104.097C348.588 104.175 348.588 104.254 348.614 104.332C348.64 104.489 348.692 104.646 348.718 104.802C348.77 105.116 348.874 105.482 348.926 105.847C349.186 107.337 349.368 109.165 349.342 111.308C349.316 113.45 349.108 115.879 348.614 118.518C348.354 119.824 348.042 121.209 347.652 122.62C347.262 124.031 346.794 125.494 346.273 126.957C345.233 129.935 343.933 133.018 342.503 136.231C341.774 137.825 341.046 139.471 340.292 141.143C339.928 141.979 339.538 142.815 339.174 143.677C338.81 144.539 338.419 145.401 338.081 146.289C337.717 147.177 337.353 148.066 336.989 148.954C336.911 149.189 336.807 149.398 336.729 149.633C336.651 149.868 336.547 150.077 336.469 150.313C336.287 150.757 336.131 151.227 335.949 151.697C335.767 152.167 335.611 152.612 335.429 153.082C335.351 153.317 335.247 153.552 335.169 153.787C335.091 154.022 335.013 154.257 334.935 154.493C334.623 155.433 334.284 156.374 333.972 157.34C333.894 157.575 333.816 157.81 333.738 158.046C333.66 158.281 333.582 158.516 333.504 158.777C333.348 159.247 333.218 159.744 333.062 160.214C332.776 161.181 332.464 162.095 332.204 163.062C331.944 164.002 331.684 164.943 331.424 165.883C331.372 166.118 331.294 166.353 331.242 166.589C331.19 166.824 331.138 167.059 331.06 167.294C330.956 167.764 330.826 168.234 330.722 168.679C330.618 169.149 330.488 169.593 330.383 170.063C330.331 170.298 330.279 170.533 330.227 170.742C330.175 170.978 330.123 171.213 330.071 171.422C329.863 172.336 329.681 173.25 329.499 174.139C329.447 174.374 329.395 174.583 329.343 174.818L329.265 175.158L329.213 175.497C329.135 175.941 329.057 176.385 328.979 176.83C328.823 177.718 328.667 178.58 328.485 179.442C327.315 186.339 326.717 192.635 326.457 197.939C326.404 199.271 326.352 200.525 326.3 201.727C326.274 202.929 326.274 204.052 326.248 205.097C326.222 206.142 326.248 207.135 326.248 208.023C326.248 208.937 326.248 209.747 326.274 210.505C326.378 213.483 326.378 215.129 326.3 215.129C326.248 215.129 326.17 214.737 326.092 213.954C326.014 213.17 325.884 212.02 325.754 210.531C325.702 209.8 325.676 208.964 325.624 208.049C325.572 207.135 325.52 206.168 325.52 205.097C325.494 204.026 325.494 202.903 325.468 201.701C325.494 200.499 325.52 199.219 325.52 197.887C325.676 192.557 326.17 186.209 327.289 179.233C327.445 178.371 327.601 177.483 327.757 176.594C327.835 176.15 327.913 175.706 327.991 175.262L328.043 174.922L328.121 174.583C328.173 174.348 328.225 174.139 328.251 173.904C328.433 172.989 328.641 172.075 328.823 171.16C328.875 170.925 328.927 170.69 328.979 170.455C329.031 170.22 329.083 169.985 329.135 169.75C329.239 169.279 329.369 168.809 329.473 168.365C329.577 167.895 329.707 167.425 329.811 166.954C329.863 166.719 329.915 166.484 329.993 166.249C330.045 166.014 330.123 165.779 330.175 165.544C330.435 164.603 330.696 163.662 330.956 162.696C331.216 161.729 331.528 160.789 331.814 159.822C331.97 159.352 332.1 158.855 332.256 158.385C332.334 158.15 332.412 157.889 332.49 157.654C332.568 157.419 332.646 157.183 332.724 156.922C333.062 155.956 333.374 154.989 333.712 154.048C333.79 153.813 333.868 153.578 333.946 153.343C334.024 153.108 334.128 152.873 334.206 152.638C334.388 152.167 334.571 151.697 334.727 151.253C334.909 150.783 335.065 150.339 335.247 149.868C335.325 149.633 335.429 149.398 335.507 149.189C335.585 148.954 335.689 148.745 335.793 148.51C336.157 147.595 336.547 146.707 336.911 145.819C337.275 144.931 337.665 144.069 338.029 143.206C338.419 142.344 338.784 141.508 339.174 140.672C339.954 139 340.682 137.354 341.436 135.761C342.893 132.573 344.219 129.517 345.285 126.617C345.831 125.154 346.299 123.743 346.716 122.359C347.132 120.974 347.444 119.642 347.73 118.361C348.276 115.775 348.562 113.424 348.64 111.334C348.718 109.244 348.64 107.441 348.458 105.978C348.432 105.612 348.354 105.273 348.328 104.933C348.302 104.776 348.276 104.62 348.25 104.463C348.25 104.384 348.224 104.306 348.224 104.228C348.198 104.149 348.198 104.097 348.172 104.019C348.12 103.731 348.068 103.47 348.016 103.235C347.964 103 347.938 102.791 347.886 102.582C347.678 101.798 347.6 101.406 347.652 101.38Z" fill="url(#paint1_linear_17431_431123)"/>
<path d="M349.733 180.252C349.811 180.33 349.472 180.801 348.796 181.584C348.64 181.793 348.432 182.002 348.25 182.237C348.042 182.473 347.834 182.734 347.6 183.021C347.132 183.596 346.586 184.223 346.014 184.954C345.728 185.32 345.416 185.686 345.103 186.078C344.791 186.47 344.479 186.888 344.115 187.306C343.959 187.515 343.777 187.724 343.595 187.959C343.517 188.063 343.413 188.168 343.335 188.299C343.257 188.403 343.153 188.534 343.075 188.638C342.737 189.108 342.373 189.579 342.009 190.075C340.552 192.034 339.018 194.229 337.484 196.606C335.975 198.984 334.623 201.309 333.427 203.451C333.14 204 332.854 204.522 332.568 205.019C332.49 205.149 332.438 205.28 332.36 205.411C332.282 205.541 332.23 205.672 332.178 205.776C332.048 206.038 331.918 206.273 331.788 206.508C331.554 207.004 331.294 207.448 331.06 207.919C330.826 208.363 330.618 208.807 330.41 209.225C329.994 210.061 329.656 210.818 329.318 211.472C329.161 211.811 329.005 212.125 328.875 212.386C328.745 212.673 328.615 212.935 328.511 213.17C328.069 214.11 327.757 214.607 327.679 214.58C327.601 214.554 327.705 213.98 328.017 212.987C328.095 212.726 328.173 212.464 328.277 212.151C328.381 211.837 328.511 211.524 328.615 211.184C328.875 210.479 329.161 209.695 329.526 208.833C329.708 208.389 329.89 207.945 330.098 207.474C330.306 207.004 330.514 206.534 330.748 206.011C330.852 205.75 330.982 205.515 331.086 205.254C331.138 205.123 331.216 204.993 331.268 204.862C331.32 204.731 331.398 204.601 331.45 204.47C331.71 203.947 331.97 203.399 332.256 202.85C333.401 200.656 334.727 198.278 336.287 195.875C337.848 193.471 339.434 191.251 340.968 189.317C341.358 188.847 341.749 188.377 342.113 187.907C342.217 187.802 342.295 187.671 342.399 187.567C342.503 187.462 342.581 187.358 342.685 187.227C342.867 187.018 343.049 186.809 343.231 186.6C343.595 186.182 343.933 185.79 344.271 185.399C344.609 185.033 344.947 184.667 345.259 184.327C345.884 183.648 346.508 183.047 347.028 182.525C347.288 182.264 347.548 182.028 347.782 181.793C348.016 181.584 348.224 181.375 348.432 181.219C349.212 180.539 349.681 180.2 349.733 180.252Z" fill="url(#paint2_linear_17431_431123)"/>
<path d="M304.845 156.217C304.923 156.165 305.469 156.739 306.406 157.837C306.64 158.124 306.9 158.411 307.186 158.751C307.472 159.091 307.732 159.482 308.044 159.9C308.642 160.736 309.37 161.651 310.073 162.748C310.437 163.297 310.801 163.845 311.191 164.446C311.399 164.734 311.555 165.047 311.763 165.361C311.945 165.674 312.153 165.988 312.335 166.327C312.517 166.667 312.725 166.98 312.933 167.32C313.037 167.477 313.141 167.66 313.245 167.842C313.349 168.025 313.427 168.208 313.531 168.365C313.921 169.07 314.312 169.828 314.702 170.586C316.236 173.642 317.744 177.117 319.019 180.853C320.267 184.615 321.177 188.272 321.827 191.616C321.957 192.452 322.114 193.288 322.244 194.072C322.27 194.281 322.322 194.464 322.348 194.673C322.374 194.882 322.4 195.065 322.426 195.274C322.478 195.666 322.53 196.058 322.556 196.423C322.608 196.789 322.634 197.181 322.686 197.547C322.738 197.913 322.79 198.278 322.79 198.618C322.842 199.323 322.894 200.003 322.92 200.656C323.024 201.936 323.024 203.112 323.05 204.13C323.05 204.653 323.076 205.123 323.05 205.567C323.024 206.011 323.024 206.403 322.998 206.769C322.92 208.206 322.842 209.016 322.738 209.016C322.634 209.016 322.556 208.206 322.478 206.795C322.452 206.429 322.426 206.038 322.426 205.593C322.4 205.149 322.348 204.679 322.296 204.183C322.192 203.164 322.14 202.014 321.983 200.734C321.905 200.107 321.827 199.428 321.749 198.749C321.723 198.409 321.645 198.043 321.593 197.704C321.541 197.338 321.489 196.972 321.437 196.606C321.385 196.241 321.333 195.849 321.255 195.483C321.229 195.3 321.203 195.091 321.177 194.908C321.151 194.725 321.099 194.516 321.073 194.333C320.917 193.55 320.761 192.74 320.605 191.904C319.903 188.612 318.967 185.007 317.744 181.323C316.47 177.639 315.04 174.217 313.583 171.187C313.193 170.429 312.829 169.697 312.491 168.992C312.413 168.809 312.309 168.626 312.231 168.469C312.153 168.287 312.049 168.13 311.945 167.947C311.763 167.607 311.581 167.268 311.399 166.954C311.217 166.615 311.035 166.301 310.879 165.988C310.697 165.674 310.541 165.361 310.359 165.047C309.994 164.446 309.656 163.871 309.318 163.323C308.694 162.226 308.018 161.259 307.472 160.397C307.186 159.979 306.952 159.561 306.718 159.195C306.484 158.829 306.25 158.516 306.042 158.202C305.183 156.974 304.767 156.295 304.845 156.217Z" fill="url(#paint3_linear_17431_431123)"/>
<path d="M40.3909 239C41.5863 231.832 44.9884 225.145 49.8065 219.713C54.8453 214.042 61.8518 209.331 63.5069 201.905C64.2057 198.764 63.4517 194.866 60.5829 193.425C58.7439 192.502 56.4452 192.797 54.7166 191.67C52.804 190.414 52.234 187.754 52.7305 185.518C53.227 183.283 54.5694 181.325 55.7832 179.385C60.9507 171.146 64.4448 161.817 65.9527 152.192C66.3757 149.513 66.6515 146.761 66.155 144.1C65.6585 141.44 64.316 138.835 62.0725 137.32C58.1187 134.679 52.4179 136.249 49.2732 139.833C46.1285 143.417 45.1171 148.405 45.0436 153.171C44.97 157.937 45.6872 162.703 45.5033 167.47C45.3746 170.444 44.6942 173.751 42.2299 175.432C38.3681 178.055 32.8879 174.988 28.5111 176.633C24.0976 178.277 22.6632 184.17 24.0241 188.696C25.3849 193.222 28.695 196.843 31.3983 200.722C39.1772 211.788 42.6529 225.588 40.3909 239Z" fill="url(#paint4_linear_17431_431123)"/>
<path d="M58.9277 141.219C58.9645 141.2 59.0748 141.477 59.2587 142.013C59.3139 142.142 59.3507 142.29 59.3874 142.456C59.4242 142.623 59.4794 142.807 59.5346 142.992C59.553 143.048 59.553 143.084 59.5713 143.14C59.5897 143.195 59.5897 143.251 59.6081 143.306C59.6265 143.417 59.6633 143.528 59.6817 143.639C59.7185 143.86 59.792 144.119 59.8288 144.378C60.0127 145.431 60.1414 146.724 60.123 148.239C60.1047 149.754 59.9575 151.472 59.6081 153.337C59.4242 154.261 59.2036 155.24 58.9277 156.238C58.6519 157.235 58.3208 158.27 57.953 159.304C57.2175 161.41 56.298 163.59 55.2865 165.863C54.7716 166.99 54.2567 168.153 53.7234 169.336C53.4659 169.927 53.1901 170.518 52.9326 171.128C52.6752 171.737 52.3993 172.347 52.1603 172.975C51.9028 173.603 51.6453 174.231 51.3879 174.859C51.3327 175.026 51.2592 175.173 51.204 175.34C51.1488 175.506 51.0753 175.654 51.0201 175.82C50.8914 176.134 50.781 176.467 50.6523 176.799C50.5236 177.132 50.4132 177.446 50.2845 177.778C50.2293 177.944 50.1558 178.111 50.1006 178.277C50.0454 178.443 49.9903 178.61 49.9351 178.776C49.7144 179.441 49.4753 180.106 49.2547 180.789C49.1995 180.956 49.1443 181.122 49.0892 181.288C49.034 181.454 48.9788 181.621 48.9237 181.805C48.8133 182.138 48.7214 182.489 48.611 182.822C48.4087 183.505 48.1881 184.152 48.0042 184.835C47.8203 185.5 47.6364 186.165 47.4525 186.83C47.4157 186.997 47.3605 187.163 47.3237 187.329C47.287 187.495 47.2502 187.662 47.195 187.828C47.1215 188.16 47.0295 188.493 46.9559 188.807C46.8824 189.14 46.7904 189.454 46.7169 189.786C46.6801 189.952 46.6433 190.119 46.6065 190.266C46.5698 190.433 46.533 190.599 46.4962 190.747C46.3491 191.393 46.2204 192.04 46.0916 192.668C46.0548 192.834 46.0181 192.982 45.9813 193.148L45.9261 193.389L45.8893 193.629C45.8342 193.943 45.779 194.257 45.7238 194.571C45.6135 195.199 45.5032 195.809 45.3744 196.418C44.5469 201.295 44.1239 205.747 43.94 209.498C43.9032 210.44 43.8665 211.327 43.8297 212.176C43.8113 213.026 43.8113 213.82 43.7929 214.559C43.7745 215.298 43.7929 216 43.7929 216.628C43.7929 217.275 43.7929 217.848 43.8113 218.383C43.8848 220.489 43.8848 221.653 43.8297 221.653C43.7929 221.653 43.7377 221.376 43.6826 220.822C43.6274 220.268 43.5354 219.455 43.4435 218.402C43.4067 217.885 43.3883 217.294 43.3515 216.647C43.3148 216 43.278 215.317 43.278 214.559C43.2596 213.802 43.2596 213.008 43.2412 212.158C43.2596 211.308 43.278 210.403 43.278 209.461C43.3883 205.692 43.7377 201.203 44.5285 196.27C44.6388 195.661 44.7492 195.033 44.8595 194.405C44.9147 194.091 44.9698 193.776 45.025 193.462L45.0618 193.222L45.117 192.982C45.1537 192.816 45.1905 192.668 45.2089 192.502C45.3376 191.855 45.4848 191.209 45.6135 190.562C45.6503 190.396 45.6871 190.229 45.7238 190.063C45.7606 189.897 45.7974 189.731 45.8342 189.564C45.9077 189.232 45.9997 188.899 46.0732 188.585C46.1468 188.253 46.2387 187.92 46.3123 187.588C46.3491 187.421 46.3859 187.255 46.441 187.089C46.4778 186.923 46.533 186.756 46.5698 186.59C46.7537 185.925 46.9376 185.26 47.1215 184.577C47.3054 183.893 47.526 183.228 47.7283 182.544C47.8387 182.212 47.9306 181.861 48.0409 181.528C48.0961 181.362 48.1513 181.177 48.2065 181.011C48.2616 180.845 48.3168 180.679 48.372 180.494C48.611 179.81 48.8317 179.127 49.0708 178.462C49.1259 178.295 49.1811 178.129 49.2363 177.963C49.2914 177.797 49.365 177.63 49.4202 177.464C49.5489 177.132 49.6776 176.799 49.788 176.485C49.9167 176.152 50.027 175.838 50.1558 175.506C50.2109 175.34 50.2845 175.173 50.3397 175.026C50.3948 174.859 50.4684 174.712 50.542 174.545C50.7994 173.899 51.0753 173.271 51.3327 172.642C51.5902 172.014 51.866 171.405 52.1235 170.795C52.3993 170.185 52.6568 169.594 52.9326 169.003C53.4843 167.821 53.9992 166.657 54.5325 165.53C55.5624 163.276 56.5002 161.115 57.2542 159.064C57.6404 158.03 57.9714 157.032 58.2657 156.053C58.5599 155.074 58.7806 154.132 58.9829 153.227C59.3691 151.398 59.5713 149.735 59.6265 148.257C59.6817 146.779 59.6265 145.505 59.4978 144.47C59.4794 144.211 59.4242 143.971 59.4058 143.731C59.3874 143.62 59.3691 143.509 59.3507 143.399C59.3507 143.343 59.3323 143.288 59.3323 143.232C59.3139 143.177 59.3139 143.14 59.2955 143.084C59.2587 142.881 59.2219 142.697 59.1852 142.53C59.1484 142.364 59.13 142.216 59.0932 142.068C58.9461 141.514 58.8909 141.237 58.9277 141.219Z" fill="url(#paint5_linear_17431_431123)"/>
<path d="M60.3989 196.991C60.4541 197.046 60.215 197.379 59.7369 197.933C59.6266 198.081 59.4794 198.229 59.3507 198.395C59.2036 198.561 59.0565 198.746 58.891 198.949C58.56 199.355 58.1738 199.799 57.7692 200.316C57.5669 200.575 57.3462 200.833 57.1256 201.11C56.9049 201.388 56.6842 201.683 56.4267 201.979C56.3164 202.126 56.1877 202.274 56.0589 202.441C56.0038 202.514 55.9302 202.588 55.875 202.681C55.8199 202.755 55.7463 202.847 55.6912 202.921C55.4521 203.253 55.1946 203.586 54.9372 203.937C53.9073 205.322 52.8223 206.874 51.7374 208.555C50.6707 210.236 49.7145 211.881 48.8686 213.395C48.6663 213.783 48.464 214.153 48.2617 214.504C48.2065 214.596 48.1697 214.689 48.1146 214.781C48.0594 214.873 48.0226 214.966 47.9858 215.04C47.8939 215.224 47.802 215.391 47.71 215.557C47.5445 215.908 47.3606 216.222 47.1951 216.554C47.0296 216.869 46.8825 217.183 46.7353 217.478C46.4411 218.069 46.202 218.605 45.963 219.067C45.8526 219.307 45.7423 219.529 45.6503 219.713C45.5584 219.917 45.4664 220.101 45.3929 220.268C45.0803 220.933 44.8596 221.284 44.8044 221.265C44.7493 221.247 44.8228 220.84 45.0435 220.138C45.0987 219.954 45.1538 219.769 45.2274 219.547C45.3009 219.326 45.3929 219.104 45.4664 218.864C45.6503 218.365 45.8526 217.811 46.1101 217.201C46.2388 216.887 46.3675 216.573 46.5147 216.24C46.6618 215.908 46.8089 215.575 46.9744 215.206C47.048 215.021 47.1399 214.855 47.2135 214.67C47.2503 214.578 47.3054 214.485 47.3422 214.393C47.379 214.301 47.4342 214.208 47.4709 214.116C47.6548 213.746 47.8387 213.359 48.041 212.971C48.8502 211.419 49.788 209.738 50.8914 208.038C51.9948 206.338 53.1166 204.768 54.2016 203.401C54.4774 203.069 54.7533 202.736 55.0107 202.404C55.0843 202.33 55.1395 202.237 55.213 202.163C55.2866 202.09 55.3417 202.016 55.4153 201.923C55.544 201.775 55.6728 201.628 55.8015 201.48C56.059 201.184 56.298 200.907 56.5371 200.63C56.7762 200.371 57.0152 200.113 57.2359 199.873C57.6772 199.392 58.1186 198.967 58.4864 198.598C58.6703 198.413 58.8542 198.247 59.0197 198.081C59.1852 197.933 59.3323 197.785 59.4794 197.674C60.0311 197.194 60.3622 196.954 60.3989 196.991Z" fill="url(#paint6_linear_17431_431123)"/>
<path d="M28.6584 179.995C28.7136 179.958 29.0998 180.364 29.7618 181.14C29.9273 181.344 30.1112 181.547 30.3135 181.787C30.5158 182.027 30.6997 182.304 30.9204 182.6C31.3433 183.191 31.8582 183.838 32.3548 184.613C32.6122 185.001 32.8697 185.389 33.1455 185.814C33.2926 186.017 33.403 186.239 33.5501 186.461C33.6788 186.682 33.826 186.904 33.9547 187.144C34.0834 187.384 34.2305 187.606 34.3776 187.846C34.4512 187.957 34.5248 188.086 34.5983 188.216C34.6719 188.345 34.7271 188.474 34.8006 188.585C35.0765 189.084 35.3523 189.62 35.6282 190.156C36.7132 192.317 37.7798 194.774 38.6809 197.416C39.5636 200.076 40.2072 202.662 40.667 205.027C40.7589 205.618 40.8692 206.209 40.9612 206.763C40.9796 206.911 41.0164 207.041 41.0348 207.188C41.0532 207.336 41.0715 207.465 41.0899 207.613C41.1267 207.89 41.1635 208.167 41.1819 208.426C41.2187 208.685 41.237 208.962 41.2738 209.22C41.3106 209.479 41.3474 209.738 41.3474 209.978C41.3842 210.477 41.4209 210.957 41.4393 211.419C41.5129 212.324 41.5129 213.155 41.5313 213.876C41.5313 214.245 41.5497 214.578 41.5313 214.892C41.5129 215.206 41.5129 215.483 41.4945 215.742C41.4393 216.758 41.3842 217.33 41.3106 217.33C41.237 217.33 41.1819 216.758 41.1267 215.76C41.1083 215.502 41.0899 215.224 41.0899 214.91C41.0715 214.596 41.0348 214.264 40.998 213.913C40.9244 213.192 40.8876 212.379 40.7773 211.474C40.7221 211.031 40.667 210.551 40.6118 210.07C40.5934 209.83 40.5382 209.571 40.5015 209.331C40.4647 209.073 40.4279 208.814 40.3911 208.555C40.3543 208.297 40.3176 208.02 40.2624 207.761C40.244 207.632 40.2256 207.484 40.2072 207.355C40.1888 207.225 40.152 207.078 40.1337 206.948C40.0233 206.394 39.913 205.821 39.8026 205.23C39.3061 202.902 38.6441 200.353 37.7798 197.748C36.8787 195.143 35.8672 192.723 34.8374 190.58C34.5615 190.045 34.3041 189.527 34.065 189.029C34.0098 188.899 33.9363 188.77 33.8811 188.659C33.8259 188.53 33.7524 188.419 33.6788 188.29C33.5501 188.05 33.4214 187.809 33.2926 187.588C33.1639 187.348 33.0352 187.126 32.9248 186.904C32.7961 186.682 32.6858 186.461 32.557 186.239C32.2996 185.814 32.0605 185.408 31.8215 185.02C31.3801 184.244 30.902 183.56 30.5158 182.951C30.3135 182.655 30.148 182.36 29.9825 182.101C29.817 181.842 29.6515 181.621 29.5043 181.399C28.8975 180.531 28.6032 180.05 28.6584 179.995Z" fill="url(#paint7_linear_17431_431123)"/>
<path d="M31.7757 239.412C31.7466 232.66 33.3649 225.908 36.5871 219.976C37.3744 218.526 38.2638 217.105 38.7595 215.523C39.2552 213.941 39.3135 212.14 38.4825 210.705C37.6514 209.269 35.7706 208.405 34.2689 209.094C33.4524 209.46 32.8692 210.207 32.1548 210.749C31.4404 211.305 30.4198 211.657 29.6763 211.144C28.8452 210.573 28.8889 209.343 29.0347 208.347C29.72 203.513 30.3907 198.695 31.0759 193.861C31.3821 191.723 31.6737 189.541 31.3384 187.417C30.9884 185.279 29.895 183.169 28.0287 182.115C26.2792 181.134 24.0776 181.236 22.226 182.027C20.3889 182.818 18.8726 184.224 17.6188 185.791C16.1899 187.563 14.9944 189.687 15.009 191.972C15.0236 196.131 18.7706 199.134 20.9138 202.678C21.8906 204.304 22.503 206.56 21.22 207.966C19.6162 209.709 16.6565 208.581 14.4841 209.504C12.6033 210.309 11.6848 212.623 12.0201 214.644C12.37 216.666 13.726 218.394 15.3006 219.697C16.8752 221.001 18.6977 221.968 20.3889 223.125C25.9001 226.874 30.0845 232.952 31.7757 239.412Z" fill="url(#paint8_linear_17431_431123)"/>
<path d="M21.4387 186.714C21.4387 186.714 21.4825 186.729 21.5554 186.772C21.6283 186.816 21.7157 186.89 21.847 186.992C22.0948 187.197 22.4447 187.519 22.853 187.988C23.0571 188.222 23.2758 188.486 23.4945 188.794C23.7132 189.101 23.9319 189.438 24.1651 189.819C24.6025 190.581 25.0399 191.474 25.3898 192.528C25.5648 193.056 25.7398 193.598 25.8856 194.184C26.0314 194.769 26.148 195.385 26.2501 196.029C26.2938 196.351 26.3375 196.673 26.3813 197.01C26.425 197.347 26.4396 197.684 26.4688 198.021C26.5125 198.709 26.5416 199.412 26.5562 200.145C26.5708 200.877 26.5562 201.609 26.5416 202.371C26.5271 203.132 26.4979 203.894 26.4688 204.685C26.4396 205.476 26.4104 206.267 26.3959 207.072C26.3667 207.878 26.3813 208.698 26.3813 209.533C26.4104 211.188 26.4833 212.814 26.6145 214.366C26.6583 214.762 26.6874 215.142 26.7312 215.523C26.7458 215.626 26.7458 215.714 26.7603 215.816L26.7749 215.963L26.7895 216.109C26.8187 216.3 26.8332 216.49 26.8624 216.666C26.8916 216.856 26.9061 217.032 26.9353 217.222C26.9499 217.31 26.9645 217.413 26.9645 217.501C26.979 217.588 26.9936 217.676 27.0082 217.779C27.0665 218.145 27.1103 218.496 27.1686 218.863C27.1832 218.951 27.1977 219.038 27.2123 219.126C27.2269 219.214 27.2415 219.302 27.2561 219.39C27.2852 219.566 27.3144 219.741 27.3435 219.917C27.3727 220.093 27.4019 220.254 27.431 220.43C27.4456 220.518 27.4602 220.606 27.4748 220.679C27.4893 220.767 27.5039 220.84 27.5185 220.928C27.5914 221.265 27.6497 221.587 27.708 221.909C27.7226 221.997 27.7372 222.07 27.7518 222.158C27.7664 222.231 27.7809 222.319 27.7955 222.392C27.8247 222.554 27.8684 222.715 27.8976 222.861C27.9705 223.169 28.0288 223.476 28.1017 223.784C28.1746 224.077 28.2475 224.384 28.3204 224.663C28.3495 224.809 28.3933 224.956 28.4224 225.087C28.4516 225.234 28.4953 225.366 28.5245 225.512C28.5974 225.79 28.6703 226.054 28.7432 226.318C28.7724 226.449 28.8161 226.581 28.8453 226.713C28.8744 226.845 28.9182 226.962 28.9473 227.094C29.0202 227.343 29.0931 227.577 29.166 227.812C29.2389 228.046 29.2972 228.28 29.3701 228.5C29.443 228.72 29.5159 228.939 29.5742 229.144C29.6471 229.349 29.7055 229.555 29.7638 229.745C29.7929 229.847 29.8221 229.935 29.8513 230.023C29.8804 230.111 29.9096 230.199 29.9387 230.287C30.0554 230.638 30.172 230.961 30.2741 231.239C30.3761 231.532 30.4636 231.781 30.5365 232C30.6094 232.22 30.6823 232.411 30.726 232.557C30.8281 232.865 30.8718 233.026 30.8573 233.026C30.8427 233.026 30.7552 232.879 30.624 232.586C30.5511 232.44 30.4782 232.264 30.3761 232.044C30.2887 231.825 30.172 231.576 30.0554 231.297C29.9387 231.019 29.8221 230.697 29.6763 230.345C29.6471 230.258 29.6034 230.17 29.5742 230.082C29.5451 229.994 29.5013 229.891 29.4722 229.803C29.3993 229.613 29.3264 229.423 29.2535 229.218C29.1806 229.013 29.1077 228.808 29.0202 228.588C28.9473 228.368 28.8744 228.134 28.8015 227.899C28.7286 227.665 28.6411 227.431 28.5682 227.182C28.5245 227.065 28.4953 226.933 28.4516 226.801C28.4079 226.669 28.3787 226.537 28.335 226.406C28.2621 226.142 28.1746 225.878 28.1017 225.6C28.0579 225.468 28.0288 225.322 27.985 225.175C27.9413 225.029 27.9121 224.897 27.8684 224.75C27.7955 224.458 27.708 224.165 27.6351 223.872C27.5622 223.564 27.4893 223.257 27.4164 222.949C27.3727 222.788 27.3435 222.641 27.2998 222.48C27.2852 222.407 27.2561 222.319 27.2415 222.246C27.2269 222.158 27.2123 222.085 27.1832 221.997C27.1103 221.675 27.0374 221.338 26.979 221.001C26.9645 220.913 26.9499 220.84 26.9207 220.752C26.9061 220.664 26.8916 220.576 26.877 220.503C26.8478 220.327 26.8187 220.166 26.7749 219.99C26.7458 219.815 26.7166 219.639 26.6729 219.463C26.6583 219.375 26.6437 219.287 26.6291 219.2C26.6145 219.112 26.6 219.024 26.5854 218.936C26.5271 218.584 26.4687 218.218 26.4104 217.852C26.3958 217.764 26.3813 217.662 26.3667 217.574C26.3521 217.486 26.3375 217.383 26.3375 217.295C26.3084 217.105 26.2938 216.929 26.2646 216.739C26.2355 216.549 26.2209 216.358 26.1917 216.168L26.1772 216.021L26.1626 215.875C26.148 215.772 26.148 215.684 26.1334 215.582C26.0897 215.201 26.0459 214.806 26.0168 214.41C25.8856 212.843 25.7981 211.203 25.7689 209.533C25.7689 208.698 25.7689 207.863 25.7835 207.058C25.7981 206.237 25.8418 205.447 25.871 204.656C25.9001 203.865 25.9293 203.103 25.9585 202.342C25.9876 201.595 25.9876 200.848 25.9876 200.13C25.9876 199.412 25.9585 198.709 25.9147 198.036C25.8856 197.699 25.871 197.362 25.8418 197.04C25.8127 196.717 25.7689 196.395 25.7398 196.073C25.6523 195.443 25.5502 194.843 25.419 194.271C25.2878 193.7 25.142 193.144 24.967 192.631C24.6317 191.606 24.238 190.712 23.8298 189.951C23.6257 189.57 23.4216 189.233 23.2175 188.925C23.0133 188.618 22.8238 188.34 22.6343 188.105C22.2698 187.622 21.949 187.285 21.7157 187.051C21.6137 186.934 21.5262 186.846 21.4679 186.787C21.4679 186.758 21.4387 186.729 21.4387 186.714Z" fill="url(#paint9_linear_17431_431123)"/>
<path d="M36.2812 210.983C36.2958 210.998 36.252 211.071 36.1646 211.188C36.1208 211.247 36.0625 211.32 35.9896 211.408C35.9604 211.452 35.9167 211.496 35.873 211.554C35.8292 211.598 35.7855 211.657 35.7418 211.715C35.6543 211.832 35.5522 211.964 35.4356 212.096C35.3335 212.243 35.2169 212.389 35.0857 212.55C34.9544 212.711 34.8378 212.902 34.692 213.092C34.5462 213.282 34.415 213.487 34.2692 213.707C34.2255 213.766 34.1963 213.81 34.1526 213.868C34.1088 213.927 34.0797 213.985 34.0505 214.044C33.9776 214.161 33.9047 214.278 33.8318 214.396C33.7589 214.513 33.686 214.645 33.6131 214.762C33.5402 214.894 33.4673 215.011 33.3798 215.157C33.3069 215.289 33.234 215.421 33.1611 215.567C33.1174 215.64 33.0882 215.699 33.0445 215.772C33.0153 215.846 32.9716 215.919 32.9279 215.992C32.855 216.138 32.7821 216.285 32.7092 216.431C32.6363 216.578 32.5634 216.739 32.4905 216.885C32.4176 217.047 32.3447 217.208 32.2863 217.369C32.2134 217.53 32.1405 217.691 32.0822 217.867C32.0093 218.028 31.951 218.204 31.8781 218.379C31.8198 218.555 31.7615 218.731 31.6886 218.907C31.4407 219.61 31.222 220.357 31.0471 221.133C30.8721 221.909 30.7409 222.671 30.6534 223.418C30.6388 223.608 30.6097 223.784 30.5951 223.974C30.5805 224.15 30.5659 224.34 30.5513 224.516C30.5368 224.692 30.5368 224.868 30.5222 225.043C30.5076 225.219 30.5076 225.395 30.5076 225.571C30.5076 225.746 30.5076 225.908 30.493 226.083C30.493 226.244 30.493 226.42 30.493 226.581C30.493 226.669 30.493 226.742 30.493 226.83C30.493 226.904 30.493 226.991 30.5076 227.065C30.5222 227.226 30.5222 227.372 30.5222 227.533C30.5368 227.68 30.5513 227.841 30.5513 227.987C30.5659 228.134 30.5659 228.28 30.5951 228.427C30.6097 228.573 30.6242 228.705 30.6388 228.837C30.6534 228.91 30.6534 228.969 30.668 229.042C30.6826 229.115 30.6826 229.174 30.6971 229.232C30.7409 229.496 30.77 229.73 30.8138 229.965C30.8575 230.199 30.8867 230.419 30.9304 230.624C30.9742 230.829 31.0033 231.019 31.0471 231.195C31.0908 231.371 31.12 231.532 31.1491 231.678C31.1637 231.751 31.1783 231.825 31.1929 231.883C31.2074 231.942 31.222 232 31.2366 232.059C31.2658 232.176 31.2803 232.264 31.2949 232.337C31.3241 232.484 31.3241 232.572 31.3095 232.586C31.2949 232.586 31.2512 232.513 31.1929 232.381C31.1637 232.308 31.12 232.22 31.0762 232.118C31.0616 232.059 31.0325 232 31.0033 231.942C30.9742 231.883 30.9596 231.81 30.9304 231.737C30.8867 231.59 30.8284 231.444 30.7846 231.268C30.7263 231.092 30.6826 230.902 30.6242 230.697C30.5659 230.492 30.5222 230.272 30.4639 230.038C30.4055 229.804 30.3618 229.555 30.3181 229.291C30.3035 229.232 30.2889 229.159 30.2743 229.086C30.2597 229.013 30.2598 228.954 30.2452 228.881C30.2306 228.749 30.2014 228.603 30.1869 228.456C30.1577 228.31 30.1431 228.163 30.1285 228.017C30.114 227.87 30.0994 227.709 30.0848 227.563C30.0702 227.402 30.0556 227.255 30.0411 227.094C30.0411 227.006 30.0265 226.933 30.0265 226.845C30.0265 226.757 30.0265 226.684 30.0119 226.596C30.0119 226.435 29.9973 226.259 29.9973 226.083C29.9973 225.908 29.9973 225.732 29.9973 225.556C29.9973 225.38 29.9973 225.205 30.0119 225.029C30.0119 224.853 30.0265 224.663 30.0411 224.487C30.0556 224.296 30.0702 224.121 30.0848 223.93C30.0994 223.74 30.1285 223.55 30.1431 223.359C30.2306 222.598 30.3618 221.807 30.5368 221.016C30.7263 220.225 30.945 219.463 31.2074 218.746C31.2803 218.57 31.3387 218.394 31.397 218.204C31.4699 218.028 31.5428 217.852 31.6011 217.691C31.674 217.515 31.7469 217.354 31.8198 217.193C31.8927 217.032 31.9656 216.871 32.0385 216.71C32.1114 216.549 32.1989 216.402 32.2718 216.241C32.3447 216.095 32.4321 215.948 32.505 215.787C32.5488 215.714 32.5779 215.64 32.6217 215.567C32.6654 215.494 32.7092 215.421 32.7383 215.362C32.8258 215.216 32.8987 215.084 32.9862 214.952C33.0737 214.82 33.1465 214.688 33.234 214.557C33.3215 214.425 33.3944 214.308 33.4819 214.19C33.5694 214.073 33.6423 213.956 33.7297 213.839C33.7735 213.78 33.8026 213.722 33.8464 213.663C33.8901 213.605 33.9339 213.561 33.963 213.502C34.1234 213.282 34.2692 213.092 34.4296 212.902C34.5754 212.711 34.7212 212.535 34.867 212.389C35.0128 212.228 35.1294 212.081 35.2606 211.95C35.3918 211.818 35.4939 211.701 35.596 211.598C35.6543 211.54 35.698 211.496 35.7418 211.452C35.7855 211.408 35.8292 211.364 35.873 211.32C35.9604 211.247 36.0333 211.173 36.0917 211.129C36.2083 211.027 36.2666 210.968 36.2812 210.983Z" fill="url(#paint10_linear_17431_431123)"/>
<path d="M14.2073 212.711C14.2073 212.697 14.2948 212.697 14.4551 212.726C14.528 212.741 14.6301 212.755 14.7321 212.785C14.7905 212.799 14.8488 212.814 14.9071 212.828C14.9654 212.843 15.0383 212.858 15.1112 212.887C15.257 212.931 15.4174 212.975 15.5924 213.033C15.7673 213.092 15.9423 213.165 16.1464 213.239C16.1901 213.253 16.2484 213.282 16.2922 213.297C16.3505 213.312 16.3942 213.341 16.4526 213.356C16.5546 213.4 16.6567 213.444 16.7733 213.502C16.992 213.59 17.2253 213.707 17.4586 213.839C17.5169 213.868 17.5752 213.898 17.6335 213.927C17.6918 213.956 17.7502 214 17.8085 214.029C17.9251 214.103 18.0563 214.176 18.173 214.249C18.2021 214.264 18.2313 214.278 18.275 214.308C18.3042 214.322 18.3334 214.352 18.3625 214.366C18.4208 214.41 18.4937 214.44 18.5521 214.483C18.6104 214.527 18.6833 214.571 18.7416 214.601C18.7999 214.645 18.8728 214.689 18.9311 214.732C19.0623 214.82 19.1936 214.908 19.3248 215.011C19.3831 215.055 19.456 215.099 19.5289 215.157C19.5872 215.201 19.6601 215.26 19.7184 215.304C19.7913 215.362 19.8497 215.406 19.9226 215.465C19.9955 215.523 20.0538 215.567 20.1267 215.626C20.2579 215.743 20.3891 215.846 20.5203 215.963C20.5495 215.992 20.5932 216.021 20.6224 216.051C20.6515 216.08 20.6807 216.109 20.7244 216.139C20.7828 216.197 20.8557 216.256 20.9286 216.314C21.0598 216.431 21.191 216.563 21.3222 216.695C21.4534 216.827 21.5847 216.959 21.7159 217.091C21.8471 217.222 21.9783 217.369 22.1095 217.501C22.6198 218.072 23.1301 218.687 23.6112 219.346C24.0924 220.005 24.5152 220.664 24.9088 221.323C25.0109 221.484 25.0984 221.646 25.2004 221.807C25.2879 221.968 25.3754 222.129 25.4775 222.29C25.5649 222.451 25.6524 222.612 25.7399 222.773C25.8274 222.934 25.9149 223.081 25.9878 223.242C26.0607 223.403 26.1481 223.55 26.221 223.711C26.2939 223.857 26.3668 224.018 26.4397 224.165C26.5855 224.458 26.7167 224.751 26.848 225.044C27.1104 225.615 27.3291 226.142 27.5332 226.625C27.9414 227.607 28.2476 228.398 28.4372 228.954C28.6413 229.511 28.7288 229.818 28.6996 229.833C28.6704 229.848 28.5101 229.555 28.2476 229.027C27.9852 228.5 27.6353 227.724 27.1833 226.772C26.9646 226.288 26.7167 225.776 26.4397 225.219C26.2939 224.941 26.1627 224.663 26.0169 224.37C25.944 224.223 25.8711 224.077 25.7836 223.93C25.7107 223.784 25.6233 223.637 25.5358 223.476C25.4629 223.33 25.3754 223.169 25.2879 223.022C25.2004 222.861 25.113 222.715 25.0255 222.554C24.938 222.393 24.8505 222.231 24.7485 222.085C24.6464 221.924 24.5589 221.763 24.4569 221.602C24.0632 220.957 23.6404 220.313 23.1739 219.668C22.7073 219.024 22.2116 218.423 21.7159 217.867C21.5847 217.735 21.468 217.589 21.3368 217.457C21.2056 217.325 21.0889 217.193 20.9577 217.061C20.8411 216.929 20.7099 216.812 20.5786 216.695C20.5203 216.637 20.4474 216.578 20.3891 216.519C20.36 216.49 20.3308 216.461 20.3016 216.431C20.2725 216.402 20.2433 216.373 20.1996 216.344C20.0684 216.226 19.9517 216.124 19.8205 216.007C19.7622 215.948 19.6893 215.904 19.631 215.846C19.5726 215.787 19.4997 215.743 19.4414 215.684C19.3831 215.626 19.3102 215.582 19.2519 215.538C19.1936 215.479 19.1207 215.436 19.0623 215.392C18.9311 215.304 18.8145 215.201 18.6979 215.113C18.6395 215.069 18.5812 215.025 18.5083 214.981C18.45 214.938 18.3917 214.894 18.3188 214.85C18.2605 214.806 18.2021 214.762 18.1438 214.718C18.1147 214.703 18.0855 214.674 18.0563 214.659C18.0272 214.645 17.998 214.615 17.9689 214.601C17.8522 214.527 17.7356 214.454 17.6189 214.381C17.5606 214.352 17.5023 214.308 17.444 214.278C17.3857 214.249 17.3274 214.22 17.269 214.176C17.0358 214.044 16.8316 213.927 16.6275 213.824C16.5255 213.766 16.4234 213.722 16.3213 213.663C16.2776 213.634 16.2193 213.619 16.1755 213.59C16.1318 213.575 16.0735 213.546 16.0298 213.531C15.8402 213.444 15.6653 213.37 15.5049 213.297C15.3445 213.224 15.1841 213.165 15.0529 213.121C14.98 213.092 14.9217 213.063 14.8634 213.048C14.805 213.034 14.7467 213.004 14.6884 212.99C14.5864 212.946 14.4989 212.916 14.426 212.887C14.2802 212.77 14.2073 212.741 14.2073 212.711Z" fill="url(#paint11_linear_17431_431123)"/>
<path d="M323.075 237.922C323.009 222.731 326.65 207.54 333.9 194.195C335.671 190.932 337.672 187.736 338.787 184.177C339.903 180.618 340.034 176.565 338.164 173.336C336.294 170.106 332.063 168.162 328.684 169.711C326.847 170.535 325.535 172.215 323.928 173.435C322.32 174.687 320.024 175.478 318.351 174.324C316.482 173.039 316.58 170.271 316.908 168.03C318.45 157.156 319.959 146.315 321.5 135.441C322.189 130.63 322.845 125.72 322.091 120.942C321.304 116.131 318.843 111.386 314.645 109.013C310.708 106.805 305.755 107.036 301.589 108.815C297.456 110.595 294.045 113.758 291.224 117.284C288.009 121.271 285.319 126.049 285.352 131.19C285.385 140.548 293.815 147.304 298.637 155.278C300.835 158.936 302.213 164.01 299.326 167.174C295.718 171.095 289.059 168.558 284.171 170.634C279.94 172.446 277.873 177.653 278.628 182.2C279.415 186.747 282.465 190.636 286.008 193.568C289.551 196.501 293.651 198.676 297.456 201.279C309.855 209.715 319.27 223.39 323.075 237.922Z" fill="url(#paint12_linear_17431_431123)"/>
<path d="M299.817 119.36C299.817 119.36 299.916 119.393 300.08 119.492C300.244 119.591 300.441 119.756 300.736 119.986C301.293 120.448 302.081 121.172 302.999 122.227C303.458 122.754 303.95 123.347 304.443 124.039C304.935 124.731 305.427 125.489 305.951 126.346C306.936 128.059 307.92 130.07 308.707 132.442C309.1 133.628 309.494 134.848 309.822 136.166C310.15 137.484 310.413 138.868 310.642 140.318C310.741 141.043 310.839 141.768 310.937 142.526C311.036 143.283 311.069 144.041 311.134 144.799C311.233 146.348 311.298 147.93 311.331 149.577C311.364 151.225 311.331 152.873 311.298 154.586C311.265 156.3 311.2 158.013 311.134 159.792C311.069 161.572 311.003 163.351 310.97 165.164C310.905 166.976 310.937 168.821 310.937 170.7C311.003 174.423 311.167 178.081 311.462 181.574C311.561 182.464 311.626 183.32 311.725 184.177C311.757 184.408 311.757 184.606 311.79 184.836L311.823 185.166L311.856 185.495C311.921 185.924 311.954 186.352 312.02 186.747C312.085 187.176 312.118 187.571 312.184 188C312.217 188.197 312.25 188.428 312.25 188.626C312.282 188.823 312.315 189.021 312.348 189.252C312.479 190.076 312.578 190.866 312.709 191.69C312.742 191.888 312.774 192.086 312.807 192.283C312.84 192.481 312.873 192.679 312.906 192.877C312.971 193.272 313.037 193.667 313.102 194.063C313.168 194.458 313.234 194.821 313.299 195.216C313.332 195.414 313.365 195.612 313.398 195.776C313.43 195.974 313.463 196.139 313.496 196.337C313.66 197.094 313.791 197.819 313.922 198.544C313.955 198.742 313.988 198.907 314.021 199.104C314.054 199.269 314.086 199.467 314.119 199.632C314.185 199.994 314.283 200.357 314.349 200.686C314.513 201.378 314.644 202.07 314.808 202.762C314.972 203.421 315.136 204.113 315.3 204.739C315.366 205.069 315.464 205.398 315.53 205.695C315.595 206.024 315.694 206.321 315.759 206.651C315.923 207.277 316.087 207.87 316.251 208.463C316.317 208.759 316.415 209.056 316.481 209.353C316.547 209.649 316.645 209.913 316.711 210.209C316.875 210.77 317.039 211.297 317.203 211.824C317.367 212.351 317.498 212.879 317.662 213.373C317.826 213.867 317.99 214.361 318.121 214.823C318.285 215.284 318.416 215.745 318.548 216.174C318.613 216.404 318.679 216.602 318.744 216.8C318.81 216.998 318.876 217.195 318.941 217.393C319.204 218.184 319.466 218.909 319.696 219.535C319.925 220.194 320.122 220.754 320.286 221.248C320.45 221.743 320.614 222.171 320.713 222.501C320.942 223.193 321.041 223.555 321.008 223.555C320.975 223.555 320.778 223.226 320.483 222.566C320.319 222.237 320.155 221.842 319.925 221.347C319.728 220.853 319.466 220.293 319.204 219.667C318.941 219.041 318.679 218.316 318.351 217.525C318.285 217.327 318.187 217.129 318.121 216.932C318.056 216.734 317.957 216.503 317.892 216.306C317.728 215.877 317.564 215.449 317.399 214.987C317.235 214.526 317.071 214.065 316.875 213.571C316.711 213.076 316.547 212.549 316.383 212.022C316.219 211.495 316.022 210.967 315.858 210.407C315.759 210.143 315.694 209.847 315.595 209.55C315.497 209.254 315.431 208.957 315.333 208.661C315.169 208.068 314.972 207.474 314.808 206.848C314.71 206.552 314.644 206.222 314.546 205.893C314.447 205.563 314.382 205.267 314.283 204.937C314.119 204.278 313.922 203.619 313.758 202.96C313.594 202.268 313.43 201.576 313.266 200.884C313.168 200.521 313.102 200.192 313.004 199.829C312.971 199.665 312.906 199.467 312.873 199.302C312.84 199.104 312.807 198.94 312.742 198.742C312.578 198.017 312.414 197.259 312.282 196.501C312.25 196.304 312.217 196.139 312.151 195.941C312.118 195.743 312.085 195.546 312.053 195.381C311.987 194.985 311.921 194.623 311.823 194.228C311.757 193.832 311.692 193.437 311.593 193.041C311.561 192.844 311.528 192.646 311.495 192.448C311.462 192.25 311.429 192.053 311.397 191.855C311.265 191.064 311.134 190.24 311.003 189.417C310.97 189.219 310.937 188.988 310.905 188.79C310.872 188.593 310.839 188.362 310.839 188.164C310.773 187.736 310.741 187.341 310.675 186.912C310.609 186.484 310.577 186.055 310.511 185.627L310.478 185.298L310.445 184.968C310.413 184.737 310.413 184.54 310.38 184.309C310.281 183.452 310.183 182.562 310.117 181.673C309.822 178.147 309.625 174.456 309.56 170.7C309.56 168.821 309.56 166.943 309.593 165.131C309.625 163.285 309.724 161.506 309.789 159.727C309.855 157.947 309.921 156.234 309.986 154.52C310.052 152.84 310.052 151.159 310.052 149.544C310.052 147.93 309.986 146.348 309.888 144.832C309.822 144.074 309.789 143.316 309.724 142.591C309.658 141.866 309.56 141.142 309.494 140.417C309.297 139 309.068 137.649 308.772 136.363C308.477 135.078 308.149 133.826 307.756 132.673C307.001 130.366 306.115 128.356 305.197 126.643C304.738 125.786 304.279 125.028 303.819 124.336C303.36 123.644 302.934 123.018 302.507 122.491C301.687 121.403 300.965 120.645 300.441 120.118C300.211 119.854 300.014 119.657 299.883 119.525C299.883 119.459 299.817 119.393 299.817 119.36Z" fill="url(#paint13_linear_17431_431123)"/>
<path d="M333.212 173.962C333.244 173.995 333.146 174.16 332.949 174.423C332.851 174.555 332.72 174.72 332.556 174.918C332.49 175.016 332.392 175.115 332.293 175.247C332.195 175.346 332.096 175.478 331.998 175.61C331.801 175.873 331.571 176.17 331.309 176.466C331.079 176.796 330.817 177.125 330.522 177.488C330.227 177.85 329.964 178.279 329.636 178.707C329.308 179.135 329.013 179.597 328.685 180.091C328.586 180.223 328.521 180.322 328.422 180.454C328.324 180.585 328.258 180.717 328.193 180.849C328.029 181.113 327.865 181.376 327.701 181.64C327.537 181.903 327.373 182.2 327.209 182.464C327.045 182.76 326.881 183.024 326.684 183.353C326.52 183.65 326.356 183.946 326.192 184.276C326.093 184.441 326.028 184.573 325.929 184.737C325.864 184.902 325.765 185.067 325.667 185.232C325.503 185.561 325.339 185.891 325.175 186.22C325.011 186.55 324.847 186.912 324.683 187.242C324.519 187.604 324.355 187.967 324.224 188.329C324.06 188.692 323.896 189.054 323.764 189.449C323.6 189.812 323.469 190.207 323.305 190.603C323.174 190.998 323.043 191.394 322.879 191.789C322.321 193.371 321.829 195.051 321.436 196.798C321.042 198.544 320.747 200.258 320.55 201.938C320.517 202.367 320.451 202.762 320.419 203.191C320.386 203.586 320.353 204.014 320.32 204.41C320.287 204.805 320.287 205.201 320.255 205.596C320.222 205.991 320.222 206.387 320.222 206.782C320.222 207.178 320.222 207.54 320.189 207.936C320.189 208.298 320.189 208.694 320.189 209.056C320.189 209.254 320.189 209.418 320.189 209.616C320.189 209.781 320.189 209.979 320.222 210.143C320.255 210.506 320.255 210.835 320.255 211.198C320.287 211.527 320.32 211.89 320.32 212.219C320.353 212.549 320.353 212.878 320.419 213.208C320.451 213.538 320.484 213.834 320.517 214.131C320.55 214.295 320.55 214.427 320.583 214.592C320.615 214.757 320.615 214.889 320.648 215.02C320.747 215.614 320.812 216.141 320.911 216.668C321.009 217.195 321.075 217.69 321.173 218.151C321.271 218.612 321.337 219.041 321.436 219.436C321.534 219.831 321.6 220.194 321.665 220.523C321.698 220.688 321.731 220.853 321.764 220.985C321.796 221.117 321.829 221.248 321.862 221.38C321.928 221.644 321.96 221.841 321.993 222.006C322.059 222.336 322.059 222.533 322.026 222.566C321.993 222.566 321.895 222.402 321.764 222.105C321.698 221.94 321.6 221.743 321.501 221.512C321.468 221.38 321.403 221.248 321.337 221.117C321.271 220.985 321.239 220.82 321.173 220.655C321.075 220.326 320.943 219.996 320.845 219.601C320.714 219.205 320.615 218.777 320.484 218.316C320.353 217.854 320.255 217.36 320.123 216.833C319.992 216.306 319.894 215.745 319.795 215.152C319.763 215.02 319.73 214.856 319.697 214.691C319.664 214.526 319.664 214.394 319.631 214.23C319.599 213.933 319.533 213.603 319.5 213.274C319.435 212.944 319.402 212.615 319.369 212.285C319.336 211.956 319.303 211.593 319.271 211.264C319.238 210.901 319.205 210.572 319.172 210.209C319.172 210.012 319.139 209.847 319.139 209.649C319.139 209.451 319.139 209.287 319.107 209.089C319.107 208.727 319.074 208.331 319.074 207.936C319.074 207.54 319.074 207.145 319.074 206.749C319.074 206.354 319.074 205.959 319.107 205.563C319.107 205.168 319.139 204.739 319.172 204.344C319.205 203.915 319.238 203.52 319.271 203.092C319.303 202.663 319.369 202.235 319.402 201.807C319.599 200.093 319.894 198.314 320.287 196.534C320.714 194.755 321.206 193.041 321.796 191.427C321.96 191.031 322.092 190.636 322.223 190.207C322.387 189.812 322.551 189.417 322.682 189.054C322.846 188.659 323.01 188.296 323.174 187.934C323.338 187.571 323.502 187.209 323.666 186.846C323.83 186.484 324.027 186.154 324.191 185.792C324.355 185.462 324.552 185.133 324.716 184.77C324.814 184.605 324.88 184.441 324.978 184.276C325.077 184.111 325.175 183.946 325.241 183.815C325.437 183.485 325.601 183.189 325.798 182.892C325.995 182.595 326.159 182.299 326.356 182.002C326.553 181.706 326.717 181.442 326.914 181.178C327.11 180.915 327.274 180.651 327.471 180.388C327.57 180.256 327.635 180.124 327.734 179.992C327.832 179.86 327.93 179.762 327.996 179.63C328.357 179.135 328.685 178.707 329.046 178.279C329.374 177.85 329.702 177.455 330.03 177.125C330.358 176.763 330.62 176.433 330.915 176.137C331.211 175.84 331.44 175.577 331.67 175.346C331.801 175.214 331.899 175.115 331.998 175.016C332.096 174.918 332.195 174.819 332.293 174.72C332.49 174.555 332.654 174.39 332.785 174.291C333.048 174.061 333.179 173.929 333.212 173.962Z" fill="url(#paint14_linear_17431_431123)"/>
<path d="M283.548 177.85C283.548 177.817 283.745 177.817 284.105 177.883C284.27 177.916 284.499 177.949 284.729 178.015C284.86 178.048 284.991 178.081 285.122 178.114C285.254 178.147 285.418 178.18 285.582 178.246C285.91 178.345 286.27 178.444 286.664 178.575C287.058 178.707 287.451 178.872 287.911 179.037C288.009 179.07 288.14 179.136 288.239 179.168C288.37 179.201 288.468 179.267 288.599 179.3C288.829 179.399 289.059 179.498 289.321 179.63C289.813 179.828 290.338 180.091 290.863 180.388C290.994 180.454 291.125 180.52 291.256 180.585C291.388 180.651 291.519 180.75 291.65 180.816C291.912 180.981 292.208 181.146 292.47 181.31C292.536 181.343 292.601 181.376 292.7 181.442C292.765 181.475 292.831 181.541 292.897 181.574C293.028 181.673 293.192 181.739 293.323 181.838C293.454 181.936 293.618 182.035 293.749 182.101C293.881 182.2 294.045 182.299 294.176 182.398C294.471 182.596 294.766 182.793 295.062 183.024C295.193 183.123 295.357 183.222 295.521 183.353C295.652 183.452 295.816 183.584 295.947 183.683C296.111 183.815 296.242 183.914 296.406 184.045C296.57 184.177 296.702 184.276 296.866 184.408C297.161 184.671 297.456 184.902 297.751 185.166C297.817 185.232 297.915 185.298 297.981 185.363C298.047 185.429 298.112 185.495 298.211 185.561C298.342 185.693 298.506 185.825 298.67 185.957C298.965 186.22 299.26 186.517 299.555 186.813C299.851 187.11 300.146 187.407 300.441 187.703C300.736 188 301.032 188.329 301.327 188.626C302.475 189.911 303.623 191.295 304.705 192.778C305.788 194.261 306.739 195.743 307.625 197.226C307.854 197.589 308.051 197.951 308.281 198.314C308.478 198.676 308.675 199.039 308.904 199.401C309.101 199.764 309.298 200.126 309.495 200.489C309.691 200.851 309.888 201.181 310.052 201.543C310.216 201.906 310.413 202.235 310.577 202.598C310.741 202.927 310.905 203.29 311.069 203.619C311.397 204.278 311.692 204.937 311.988 205.596C312.578 206.881 313.07 208.068 313.529 209.155C314.448 211.363 315.137 213.142 315.563 214.394C316.022 215.647 316.219 216.339 316.153 216.372C316.088 216.404 315.727 215.745 315.137 214.559C314.546 213.373 313.759 211.626 312.742 209.485C312.25 208.397 311.692 207.244 311.069 205.992C310.741 205.365 310.446 204.739 310.118 204.08C309.954 203.751 309.79 203.421 309.593 203.092C309.429 202.762 309.232 202.433 309.035 202.07C308.871 201.741 308.675 201.378 308.478 201.049C308.281 200.686 308.084 200.357 307.887 199.994C307.69 199.632 307.494 199.269 307.264 198.94C307.034 198.577 306.838 198.215 306.608 197.852C305.722 196.402 304.771 194.953 303.721 193.503C302.672 192.053 301.556 190.702 300.441 189.45C300.146 189.153 299.883 188.823 299.588 188.527C299.293 188.23 299.031 187.934 298.735 187.637C298.473 187.341 298.178 187.077 297.883 186.813C297.751 186.682 297.587 186.55 297.456 186.418C297.39 186.352 297.325 186.286 297.259 186.22C297.194 186.154 297.128 186.088 297.03 186.023C296.734 185.759 296.472 185.528 296.177 185.265C296.046 185.133 295.882 185.034 295.75 184.902C295.619 184.77 295.455 184.671 295.324 184.54C295.193 184.408 295.029 184.309 294.898 184.21C294.766 184.078 294.602 183.979 294.471 183.881C294.176 183.683 293.913 183.452 293.651 183.255C293.52 183.156 293.389 183.057 293.225 182.958C293.093 182.859 292.962 182.76 292.798 182.661C292.667 182.563 292.536 182.464 292.405 182.365C292.339 182.332 292.273 182.266 292.208 182.233C292.142 182.2 292.076 182.134 292.011 182.101C291.748 181.936 291.486 181.772 291.224 181.607C291.092 181.541 290.961 181.442 290.83 181.376C290.699 181.31 290.568 181.244 290.436 181.146C289.912 180.849 289.452 180.585 288.993 180.355C288.763 180.223 288.534 180.124 288.304 179.992C288.206 179.926 288.075 179.893 287.976 179.828C287.878 179.795 287.747 179.729 287.648 179.696C287.222 179.498 286.828 179.333 286.467 179.168C286.106 179.004 285.746 178.872 285.45 178.773C285.286 178.707 285.155 178.641 285.024 178.608C284.893 178.575 284.762 178.509 284.63 178.476C284.401 178.378 284.204 178.312 284.04 178.246C283.712 177.982 283.548 177.916 283.548 177.85Z" fill="url(#paint15_linear_17431_431123)"/>
<path opacity="0.35" d="M358.165 238.741C357.555 238.741 356.868 238.779 356.181 238.779C353.969 238.817 351.298 238.856 348.17 238.894C347.14 238.894 346.072 238.932 344.966 238.932C344.775 238.932 344.546 238.932 344.318 238.932C344.203 238.932 344.127 238.932 344.012 238.932C343.822 238.932 343.631 238.932 343.44 238.932C342.982 238.932 342.486 238.932 341.991 238.932C341.228 238.932 340.426 238.932 339.625 238.971C339.129 238.971 338.595 238.971 338.061 238.971C337.947 238.971 337.832 238.971 337.718 238.971C336.65 238.971 335.505 239.009 334.361 239.009C331.881 239.047 329.287 239.047 326.541 239.086C322.764 239.124 318.721 239.124 314.486 239.162C309.031 239.201 303.195 239.239 297.015 239.277C272.524 239.392 242.693 239.469 210.001 239.507C200.846 239.507 191.423 239.507 181.886 239.507C180.208 239.507 178.568 239.507 176.927 239.507C131.875 239.507 90.9051 239.392 59.7388 239.239C50.5834 239.201 42.2673 239.124 34.943 239.086C33.5697 239.086 32.2346 239.047 30.9376 239.047C30.3654 239.047 29.7931 239.047 29.2209 239.047C28.8776 239.047 28.5343 239.047 28.191 239.047C26.894 239.047 25.6351 239.009 24.4525 239.009C24.2236 239.009 23.9948 239.009 23.804 239.009C23.27 239.009 22.7359 239.009 22.2018 239.009C21.973 239.009 21.7441 239.009 21.5152 239.009C21.2482 239.009 20.9811 239.009 20.7522 239.009C19.913 239.009 19.1119 239.009 18.349 238.971C17.8912 238.971 17.4334 238.971 17.0138 238.932C16.4797 238.932 15.9457 238.932 15.4116 238.894C15.1827 238.626 14.9539 238.319 14.725 238.013C8.35437 229.85 4.92112 219.312 5.60777 208.965C6.48516 195.284 14.4198 182.255 26.1692 175.28C37.7659 168.383 52.0712 167.386 63.9731 160.987C83.123 150.716 92.6599 128.758 98.9923 107.873C105.325 87.0261 110.437 64.6847 125.161 48.628C136.377 36.3651 152.742 29.0074 169.336 28.7775C185.93 28.5475 202.486 35.4071 214.083 47.325C226.252 59.8178 233.233 77.599 248.072 86.7578C263.293 96.1466 282.557 93.8856 300.41 94.0389C318.263 94.1539 339.015 99.0974 346.339 115.461C356.143 137.457 334.666 161.791 337.031 185.781C337.985 195.514 342.83 204.366 347.598 212.912C352.1 220.921 356.677 229.16 358.165 238.166C358.127 238.396 358.127 238.549 358.165 238.741Z" fill="url(#paint16_linear_17431_431123)"/>
<path d="M238.087 174.204L109.987 103.783C107.498 102.415 104.375 103.319 103.01 105.802L83.9451 140.482C82.5802 142.964 83.4912 146.086 85.9798 147.454L214.08 217.875C216.569 219.243 219.693 218.339 221.058 215.856L240.122 181.176C241.487 178.693 240.576 175.572 238.087 174.204Z" fill="white" stroke="url(#paint17_linear_17431_431123)" stroke-width="2"/>
<path d="M109.021 103.252L97.4343 96.8827L73.4271 140.554L85.0141 146.923L109.021 103.252Z" fill="#E1DBFF" stroke="url(#paint18_linear_17431_431123)" stroke-width="2"/>
<path d="M176.144 152.696L120.14 121.909C119.074 121.323 117.735 121.71 117.15 122.774L105.853 143.326C105.268 144.39 105.658 145.727 106.725 146.314L162.728 177.101C163.795 177.687 165.134 177.3 165.719 176.236L177.016 155.684C177.601 154.62 177.211 153.282 176.144 152.696Z" fill="#F0F3FD" stroke="url(#paint19_linear_17431_431123)" stroke-width="2"/>
<g clip-path="url(#clip0_17431_431123)">
<path d="M165.317 162.606L164.069 158.308C164.04 158.209 163.974 158.126 163.882 158.076C163.791 158.026 163.686 158.014 163.587 158.043L163.27 158.135C163.064 158.195 162.945 158.411 163.005 158.617L164.054 162.226L160.441 163.276C160.341 163.305 160.259 163.371 160.209 163.462C160.158 163.553 160.147 163.658 160.176 163.758L160.268 164.074C160.297 164.174 160.363 164.256 160.454 164.306C160.545 164.356 160.65 164.368 160.75 164.339L165.051 163.09C165.151 163.06 165.234 162.994 165.284 162.902C165.334 162.811 165.346 162.705 165.317 162.606Z" fill="#6A4BFF"/>
</g>
<g clip-path="url(#clip1_17431_431123)">
<path d="M117.788 136.477L122.085 135.229C122.185 135.2 122.29 135.211 122.381 135.262C122.472 135.312 122.539 135.394 122.567 135.494L122.659 135.81C122.719 136.016 122.6 136.233 122.394 136.292L118.785 137.341L119.835 140.954C119.864 141.053 119.852 141.158 119.802 141.25C119.752 141.341 119.67 141.407 119.57 141.436L119.254 141.528C119.154 141.557 119.049 141.545 118.958 141.495C118.867 141.445 118.8 141.362 118.772 141.263L117.522 136.961C117.493 136.861 117.505 136.756 117.555 136.665C117.605 136.573 117.688 136.506 117.788 136.477Z" fill="#6A4BFF"/>
</g>
<path d="M185.008 52.6085C185.053 48.9588 187.662 46.0406 190.836 46.0907L229.625 46.7031C232.799 46.7532 235.335 49.7525 235.29 53.4023L233.693 183.095C233.497 199.063 222.081 211.83 208.196 211.611C194.311 211.391 183.214 198.269 183.411 182.301L185.008 52.6085Z" fill="white"/>
<path d="M190.335 46.5149L229.998 47.141C232.838 47.1858 235.108 49.8223 235.068 53.0298L233.464 183.286C233.272 198.865 221.936 211.318 208.144 211.1C194.352 210.883 183.326 198.077 183.518 182.498L185.122 52.2413C185.162 49.0339 187.496 46.4701 190.335 46.5149Z" fill="url(#paint20_linear_17431_431123)" fill-opacity="0.4" stroke="url(#paint21_linear_17431_431123)" stroke-width="2"/>
<mask id="path-26-inside-1_17431_431123" fill="white">
<path d="M203.61 126.869L203.633 125.252L213.548 125.39L213.634 119.261L215.041 119.28L214.933 127.027L203.61 126.869ZM210.932 109.955C211.051 109.957 211.207 109.97 211.401 109.994L211.304 116.949C212.06 116.862 212.674 116.542 213.145 115.987C213.606 115.423 213.843 114.719 213.854 113.878C213.869 112.854 213.535 112.025 212.854 111.39L213.868 110.546C214.316 110.941 214.654 111.431 214.883 112.016C215.113 112.591 215.222 113.234 215.212 113.946C215.2 114.851 215.005 115.652 214.629 116.348C214.242 117.044 213.711 117.581 213.037 117.959C212.363 118.328 211.606 118.506 210.765 118.494C209.934 118.482 209.187 118.289 208.524 117.913C207.861 117.526 207.35 117.007 206.993 116.355C206.624 115.692 206.446 114.951 206.457 114.131C206.469 113.312 206.668 112.587 207.054 111.956C207.43 111.314 207.954 110.82 208.628 110.473C209.301 110.116 210.07 109.943 210.932 109.955ZM207.768 114.149C207.757 114.893 207.975 115.522 208.421 116.035C208.867 116.537 209.456 116.837 210.188 116.933L210.265 111.434C209.541 111.511 208.949 111.799 208.489 112.299C208.018 112.789 207.778 113.405 207.768 114.149ZM203.311 99.6052L215.313 99.7726L215.292 101.26L213.934 101.241C214.403 101.593 214.758 102.035 214.999 102.567C215.24 103.098 215.356 103.682 215.347 104.318C215.335 105.149 215.142 105.89 214.766 106.543C214.39 107.195 213.87 107.706 213.207 108.074C212.534 108.431 211.765 108.603 210.903 108.591C210.04 108.579 209.283 108.386 208.63 108.01C207.977 107.623 207.472 107.099 207.115 106.436C206.757 105.773 206.584 105.027 206.596 104.196C206.604 103.582 206.731 103.017 206.975 102.503C207.209 101.989 207.555 101.563 208.012 101.224L203.289 101.158L203.311 99.6052ZM213.99 104.17C213.997 103.631 213.88 103.139 213.638 102.693C213.386 102.248 213.035 101.898 212.585 101.643C212.125 101.389 211.598 101.257 211.005 101.249C210.412 101.241 209.887 101.358 209.431 101.599C208.964 101.841 208.603 102.181 208.349 102.619C208.095 103.058 207.964 103.547 207.956 104.086C207.949 104.636 208.066 105.134 208.308 105.579C208.55 106.014 208.901 106.364 209.361 106.629C209.81 106.883 210.331 107.014 210.925 107.023C211.518 107.031 212.048 106.915 212.515 106.673C212.972 106.42 213.332 106.081 213.597 105.653C213.851 105.214 213.982 104.72 213.99 104.17ZM206.895 88.5161L214.304 88.6194C215.803 88.6403 216.903 89.0277 217.604 89.7816C218.316 90.5356 218.662 91.651 218.641 93.1284C218.63 93.937 218.506 94.706 218.269 95.4363C218.044 96.1663 217.722 96.7551 217.306 97.2022L216.12 96.4416C216.47 96.0473 216.747 95.5606 216.949 94.9811C217.162 94.3909 217.273 93.783 217.282 93.1579C217.296 92.1553 217.069 91.4133 216.601 90.9322C216.134 90.4404 215.414 90.1878 214.444 90.1743L213.764 90.1648C214.201 90.5375 214.529 90.995 214.748 91.5374C214.956 92.0684 215.056 92.6469 215.048 93.2724C215.036 94.0915 214.853 94.833 214.499 95.4969C214.134 96.1494 213.636 96.6601 213.005 97.029C212.364 97.3973 211.639 97.5761 210.83 97.5648C210.021 97.5535 209.307 97.3547 208.687 96.9688C208.056 96.5823 207.572 96.0579 207.236 95.3957C206.901 94.7221 206.738 93.9758 206.75 93.1567C206.759 92.5098 206.886 91.913 207.131 91.3663C207.376 90.809 207.732 90.3557 208.201 90.0063L206.875 89.9878L206.895 88.5161ZM213.691 93.0755C213.699 92.5147 213.588 92.0118 213.357 91.5665C213.126 91.1102 212.802 90.7553 212.385 90.5014C211.957 90.2366 211.473 90.1005 210.934 90.093C210.104 90.0814 209.431 90.347 208.917 90.8898C208.392 91.4326 208.123 92.1349 208.111 92.9977C208.099 93.871 208.348 94.5862 208.858 95.1433C209.357 95.7002 210.022 95.9845 210.852 95.9961C211.391 96.0036 211.878 95.8862 212.313 95.6444C212.737 95.3915 213.071 95.0455 213.314 94.6069C213.558 94.1574 213.683 93.6468 213.691 93.0755ZM211.38 77.8635C211.498 77.8651 211.655 77.8781 211.848 77.9024L211.751 84.8565C212.508 84.77 213.121 84.4497 213.593 83.8955C214.054 83.3304 214.29 82.6273 214.302 81.7864C214.316 80.7621 213.983 79.9325 213.301 79.2976L214.316 78.4544C214.763 78.8489 215.102 79.3388 215.331 79.9244C215.56 80.4991 215.67 81.1422 215.66 81.8538C215.647 82.7595 215.453 83.5602 215.076 84.2559C214.689 84.9514 214.158 85.4886 213.485 85.8674C212.811 86.2355 212.053 86.4136 211.212 86.4019C210.382 86.3903 209.635 86.1966 208.971 85.8206C208.308 85.434 207.798 84.9146 207.44 84.2626C207.072 83.5997 206.893 82.8585 206.905 82.0391C206.916 81.2197 207.115 80.4946 207.501 79.8637C207.877 79.2219 208.402 78.7278 209.075 78.3813C209.749 78.0241 210.517 77.8515 211.38 77.8635ZM208.215 82.0574C208.205 82.8013 208.422 83.4298 208.868 83.9428C209.314 84.4451 209.903 84.7445 210.635 84.841L210.712 79.3423C209.988 79.4185 209.396 79.7068 208.936 80.2072C208.466 80.6967 208.225 81.3134 208.215 82.0574ZM208.535 74.1794C208.043 73.903 207.671 73.4988 207.42 72.9669C207.168 72.435 207.048 71.7916 207.058 71.0369L208.563 71.0579C208.55 71.144 208.543 71.2625 208.541 71.4135C208.53 72.2544 208.774 72.921 209.274 73.4133C209.763 73.8946 210.472 74.1417 211.399 74.1546L215.669 74.2142L215.648 75.7667L207.075 75.6472L207.096 74.1593L208.535 74.1794Z"/>
</mask>
<path d="M203.61 126.869L203.633 125.252L213.548 125.39L213.634 119.261L215.041 119.28L214.933 127.027L203.61 126.869ZM210.932 109.955C211.051 109.957 211.207 109.97 211.401 109.994L211.304 116.949C212.06 116.862 212.674 116.542 213.145 115.987C213.606 115.423 213.843 114.719 213.854 113.878C213.869 112.854 213.535 112.025 212.854 111.39L213.868 110.546C214.316 110.941 214.654 111.431 214.883 112.016C215.113 112.591 215.222 113.234 215.212 113.946C215.2 114.851 215.005 115.652 214.629 116.348C214.242 117.044 213.711 117.581 213.037 117.959C212.363 118.328 211.606 118.506 210.765 118.494C209.934 118.482 209.187 118.289 208.524 117.913C207.861 117.526 207.35 117.007 206.993 116.355C206.624 115.692 206.446 114.951 206.457 114.131C206.469 113.312 206.668 112.587 207.054 111.956C207.43 111.314 207.954 110.82 208.628 110.473C209.301 110.116 210.07 109.943 210.932 109.955ZM207.768 114.149C207.757 114.893 207.975 115.522 208.421 116.035C208.867 116.537 209.456 116.837 210.188 116.933L210.265 111.434C209.541 111.511 208.949 111.799 208.489 112.299C208.018 112.789 207.778 113.405 207.768 114.149ZM203.311 99.6052L215.313 99.7726L215.292 101.26L213.934 101.241C214.403 101.593 214.758 102.035 214.999 102.567C215.24 103.098 215.356 103.682 215.347 104.318C215.335 105.149 215.142 105.89 214.766 106.543C214.39 107.195 213.87 107.706 213.207 108.074C212.534 108.431 211.765 108.603 210.903 108.591C210.04 108.579 209.283 108.386 208.63 108.01C207.977 107.623 207.472 107.099 207.115 106.436C206.757 105.773 206.584 105.027 206.596 104.196C206.604 103.582 206.731 103.017 206.975 102.503C207.209 101.989 207.555 101.563 208.012 101.224L203.289 101.158L203.311 99.6052ZM213.99 104.17C213.997 103.631 213.88 103.139 213.638 102.693C213.386 102.248 213.035 101.898 212.585 101.643C212.125 101.389 211.598 101.257 211.005 101.249C210.412 101.241 209.887 101.358 209.431 101.599C208.964 101.841 208.603 102.181 208.349 102.619C208.095 103.058 207.964 103.547 207.956 104.086C207.949 104.636 208.066 105.134 208.308 105.579C208.55 106.014 208.901 106.364 209.361 106.629C209.81 106.883 210.331 107.014 210.925 107.023C211.518 107.031 212.048 106.915 212.515 106.673C212.972 106.42 213.332 106.081 213.597 105.653C213.851 105.214 213.982 104.72 213.99 104.17ZM206.895 88.5161L214.304 88.6194C215.803 88.6403 216.903 89.0277 217.604 89.7816C218.316 90.5356 218.662 91.651 218.641 93.1284C218.63 93.937 218.506 94.706 218.269 95.4363C218.044 96.1663 217.722 96.7551 217.306 97.2022L216.12 96.4416C216.47 96.0473 216.747 95.5606 216.949 94.9811C217.162 94.3909 217.273 93.783 217.282 93.1579C217.296 92.1553 217.069 91.4133 216.601 90.9322C216.134 90.4404 215.414 90.1878 214.444 90.1743L213.764 90.1648C214.201 90.5375 214.529 90.995 214.748 91.5374C214.956 92.0684 215.056 92.6469 215.048 93.2724C215.036 94.0915 214.853 94.833 214.499 95.4969C214.134 96.1494 213.636 96.6601 213.005 97.029C212.364 97.3973 211.639 97.5761 210.83 97.5648C210.021 97.5535 209.307 97.3547 208.687 96.9688C208.056 96.5823 207.572 96.0579 207.236 95.3957C206.901 94.7221 206.738 93.9758 206.75 93.1567C206.759 92.5098 206.886 91.913 207.131 91.3663C207.376 90.809 207.732 90.3557 208.201 90.0063L206.875 89.9878L206.895 88.5161ZM213.691 93.0755C213.699 92.5147 213.588 92.0118 213.357 91.5665C213.126 91.1102 212.802 90.7553 212.385 90.5014C211.957 90.2366 211.473 90.1005 210.934 90.093C210.104 90.0814 209.431 90.347 208.917 90.8898C208.392 91.4326 208.123 92.1349 208.111 92.9977C208.099 93.871 208.348 94.5862 208.858 95.1433C209.357 95.7002 210.022 95.9845 210.852 95.9961C211.391 96.0036 211.878 95.8862 212.313 95.6444C212.737 95.3915 213.071 95.0455 213.314 94.6069C213.558 94.1574 213.683 93.6468 213.691 93.0755ZM211.38 77.8635C211.498 77.8651 211.655 77.8781 211.848 77.9024L211.751 84.8565C212.508 84.77 213.121 84.4497 213.593 83.8955C214.054 83.3304 214.29 82.6273 214.302 81.7864C214.316 80.7621 213.983 79.9325 213.301 79.2976L214.316 78.4544C214.763 78.8489 215.102 79.3388 215.331 79.9244C215.56 80.4991 215.67 81.1422 215.66 81.8538C215.647 82.7595 215.453 83.5602 215.076 84.2559C214.689 84.9514 214.158 85.4886 213.485 85.8674C212.811 86.2355 212.053 86.4136 211.212 86.4019C210.382 86.3903 209.635 86.1966 208.971 85.8206C208.308 85.434 207.798 84.9146 207.44 84.2626C207.072 83.5997 206.893 82.8585 206.905 82.0391C206.916 81.2197 207.115 80.4946 207.501 79.8637C207.877 79.2219 208.402 78.7278 209.075 78.3813C209.749 78.0241 210.517 77.8515 211.38 77.8635ZM208.215 82.0574C208.205 82.8013 208.422 83.4298 208.868 83.9428C209.314 84.4451 209.903 84.7445 210.635 84.841L210.712 79.3423C209.988 79.4185 209.396 79.7068 208.936 80.2072C208.466 80.6967 208.225 81.3134 208.215 82.0574ZM208.535 74.1794C208.043 73.903 207.671 73.4988 207.42 72.9669C207.168 72.435 207.048 71.7916 207.058 71.0369L208.563 71.0579C208.55 71.144 208.543 71.2625 208.541 71.4135C208.53 72.2544 208.774 72.921 209.274 73.4133C209.763 73.8946 210.472 74.1417 211.399 74.1546L215.669 74.2142L215.648 75.7667L207.075 75.6472L207.096 74.1593L208.535 74.1794Z" fill="url(#paint22_linear_17431_431123)" stroke="url(#paint23_linear_17431_431123)" stroke-width="2" mask="url(#path-26-inside-1_17431_431123)"/>
<path d="M208.287 200.947C215.994 201.055 222.329 194.908 222.437 187.219C222.544 179.529 216.383 173.209 208.675 173.101C200.968 172.994 194.633 179.14 194.525 186.83C194.418 194.519 200.579 200.84 208.287 200.947Z" fill="white" stroke="url(#paint24_linear_17431_431123)" stroke-width="2"/>
<path d="M201.346 148.032L201.357 147.265L204.208 147.305L204.168 150.147L203.398 150.136C202.243 150.12 201.33 149.181 201.346 148.032Z" fill="url(#paint25_linear_17431_431123)" stroke="url(#paint26_linear_17431_431123)"/>
<path d="M201.403 143.969L201.498 137.101C201.514 135.951 202.453 135.039 203.608 135.055L210.493 135.151L210.369 144.094L201.403 143.969Z" fill="url(#paint27_linear_17431_431123)" stroke="url(#paint28_linear_17431_431123)"/>
<path d="M210.32 150.232L207.47 150.193L207.509 147.351L210.36 147.391L210.32 150.232Z" fill="url(#paint29_linear_17431_431123)" stroke="url(#paint30_linear_17431_431123)"/>
<path d="M216.617 137.271L216.607 138.038L213.796 137.999L213.836 135.157L214.566 135.167C215.72 135.183 216.633 136.121 216.617 137.271Z" fill="url(#paint31_linear_17431_431123)" stroke="url(#paint32_linear_17431_431123)"/>
<path d="M216.562 144.18L213.711 144.14L213.75 141.298L216.601 141.338L216.562 144.18Z" fill="url(#paint33_linear_17431_431123)" stroke="url(#paint34_linear_17431_431123)"/>
<path d="M214.396 150.289L213.625 150.279L213.665 147.437L216.516 147.476L216.505 148.244C216.489 149.393 215.55 150.305 214.396 150.289Z" fill="url(#paint35_linear_17431_431123)" stroke="url(#paint36_linear_17431_431123)"/>
<defs>
<linearGradient id="paint0_linear_17431_431123" x1="297.592" y1="166.83" x2="358.248" y2="166.83" gradientUnits="userSpaceOnUse">
<stop stop-color="#A1C4FD"/>
<stop offset="1" stop-color="#C2E9FB"/>
</linearGradient>
<linearGradient id="paint1_linear_17431_431123" x1="324.331" y1="225.629" x2="347.921" y2="93.5356" gradientUnits="userSpaceOnUse">
<stop stop-color="#FBBAE2"/>
<stop offset="0.2603" stop-color="#FDD8EE"/>
<stop offset="0.5204" stop-color="#FEEDF8"/>
<stop offset="0.7707" stop-color="#FFFBFD"/>
<stop offset="1" stop-color="white"/>
</linearGradient>
<linearGradient id="paint2_linear_17431_431123" x1="333.421" y1="227.253" x2="357.011" y2="95.1594" gradientUnits="userSpaceOnUse">
<stop stop-color="#FBBAE2"/>
<stop offset="0.2603" stop-color="#FDD8EE"/>
<stop offset="0.5204" stop-color="#FEEDF8"/>
<stop offset="0.7707" stop-color="#FFFBFD"/>
<stop offset="1" stop-color="white"/>
</linearGradient>
<linearGradient id="paint3_linear_17431_431123" x1="306.747" y1="222.489" x2="330.337" y2="90.3953" gradientUnits="userSpaceOnUse">
<stop stop-color="#FBBAE2"/>
<stop offset="0.2603" stop-color="#FDD8EE"/>
<stop offset="0.5204" stop-color="#FEEDF8"/>
<stop offset="0.7707" stop-color="#FFFBFD"/>
<stop offset="1" stop-color="white"/>
</linearGradient>
<linearGradient id="paint4_linear_17431_431123" x1="23.5298" y1="187.5" x2="66.4208" y2="187.5" gradientUnits="userSpaceOnUse">
<stop stop-color="#A1C4FD"/>
<stop offset="1" stop-color="#C2E9FB"/>
</linearGradient>
<linearGradient id="paint5_linear_17431_431123" x1="42.4368" y1="229.078" x2="59.1182" y2="135.672" gradientUnits="userSpaceOnUse">
<stop stop-color="#FBBAE2"/>
<stop offset="0.2603" stop-color="#FDD8EE"/>
<stop offset="0.5204" stop-color="#FEEDF8"/>
<stop offset="0.7707" stop-color="#FFFBFD"/>
<stop offset="1" stop-color="white"/>
</linearGradient>
<linearGradient id="paint6_linear_17431_431123" x1="48.8646" y1="230.226" x2="65.546" y2="136.82" gradientUnits="userSpaceOnUse">
<stop stop-color="#FBBAE2"/>
<stop offset="0.2603" stop-color="#FDD8EE"/>
<stop offset="0.5204" stop-color="#FEEDF8"/>
<stop offset="0.7707" stop-color="#FFFBFD"/>
<stop offset="1" stop-color="white"/>
</linearGradient>
<linearGradient id="paint7_linear_17431_431123" x1="30.0031" y1="226.858" x2="46.6845" y2="133.451" gradientUnits="userSpaceOnUse">
<stop stop-color="#FBBAE2"/>
<stop offset="0.2603" stop-color="#FDD8EE"/>
<stop offset="0.5204" stop-color="#FEEDF8"/>
<stop offset="0.7707" stop-color="#FFFBFD"/>
<stop offset="1" stop-color="white"/>
</linearGradient>
<linearGradient id="paint8_linear_17431_431123" x1="11.9521" y1="210.409" x2="39.1219" y2="210.409" gradientUnits="userSpaceOnUse">
<stop stop-color="#A1C4FD"/>
<stop offset="1" stop-color="#C2E9FB"/>
</linearGradient>
<linearGradient id="paint9_linear_17431_431123" x1="31.4818" y1="232.633" x2="22.0488" y2="186.123" gradientUnits="userSpaceOnUse">
<stop stop-color="#FBBAE2"/>
<stop offset="0.0251564" stop-color="#FBC1E5"/>
<stop offset="0.1227" stop-color="#FDD8EF"/>
<stop offset="0.236" stop-color="#FEE9F6"/>
<stop offset="0.373" stop-color="#FEF6FB"/>
<stop offset="0.558" stop-color="#FFFDFE"/>
<stop offset="1" stop-color="white"/>
</linearGradient>
<linearGradient id="paint10_linear_17431_431123" x1="35.6457" y1="231.789" x2="26.2128" y2="185.279" gradientUnits="userSpaceOnUse">
<stop stop-color="#FBBAE2"/>
<stop offset="0.0251564" stop-color="#FBC1E5"/>
<stop offset="0.1227" stop-color="#FDD8EF"/>
<stop offset="0.236" stop-color="#FEE9F6"/>
<stop offset="0.373" stop-color="#FEF6FB"/>
<stop offset="0.558" stop-color="#FFFDFE"/>
<stop offset="1" stop-color="white"/>
</linearGradient>
<linearGradient id="paint11_linear_17431_431123" x1="24.0361" y1="234.143" x2="14.6032" y2="187.633" gradientUnits="userSpaceOnUse">
<stop stop-color="#FBBAE2"/>
<stop offset="0.0251564" stop-color="#FBC1E5"/>
<stop offset="0.1227" stop-color="#FDD8EF"/>
<stop offset="0.236" stop-color="#FEE9F6"/>
<stop offset="0.373" stop-color="#FEF6FB"/>
<stop offset="0.558" stop-color="#FFFDFE"/>
<stop offset="1" stop-color="white"/>
</linearGradient>
<linearGradient id="paint12_linear_17431_431123" x1="278.475" y1="172.671" x2="339.603" y2="172.671" gradientUnits="userSpaceOnUse">
<stop stop-color="#A1C4FD"/>
<stop offset="1" stop-color="#C2E9FB"/>
</linearGradient>
<linearGradient id="paint13_linear_17431_431123" x1="322.413" y1="222.671" x2="301.19" y2="118.03" gradientUnits="userSpaceOnUse">
<stop stop-color="#FBBAE2"/>
<stop offset="0.0251564" stop-color="#FBC1E5"/>
<stop offset="0.1227" stop-color="#FDD8EF"/>
<stop offset="0.236" stop-color="#FEE9F6"/>
<stop offset="0.373" stop-color="#FEF6FB"/>
<stop offset="0.558" stop-color="#FFFDFE"/>
<stop offset="1" stop-color="white"/>
</linearGradient>
<linearGradient id="paint14_linear_17431_431123" x1="331.782" y1="220.771" x2="310.559" y2="116.131" gradientUnits="userSpaceOnUse">
<stop stop-color="#FBBAE2"/>
<stop offset="0.0251564" stop-color="#FBC1E5"/>
<stop offset="0.1227" stop-color="#FDD8EF"/>
<stop offset="0.236" stop-color="#FEE9F6"/>
<stop offset="0.373" stop-color="#FEF6FB"/>
<stop offset="0.558" stop-color="#FFFDFE"/>
<stop offset="1" stop-color="white"/>
</linearGradient>
<linearGradient id="paint15_linear_17431_431123" x1="305.661" y1="226.069" x2="284.439" y2="121.428" gradientUnits="userSpaceOnUse">
<stop stop-color="#FBBAE2"/>
<stop offset="0.0251564" stop-color="#FBC1E5"/>
<stop offset="0.1227" stop-color="#FDD8EF"/>
<stop offset="0.236" stop-color="#FEE9F6"/>
<stop offset="0.373" stop-color="#FEF6FB"/>
<stop offset="0.558" stop-color="#FFFDFE"/>
<stop offset="1" stop-color="white"/>
</linearGradient>
<linearGradient id="paint16_linear_17431_431123" x1="5.52124" y1="134.14" x2="358.165" y2="134.14" gradientUnits="userSpaceOnUse">
<stop stop-color="#FBC2EB"/>
<stop offset="1" stop-color="#A6C1EE"/>
</linearGradient>
<linearGradient id="paint17_linear_17431_431123" x1="93.4774" y1="123.142" x2="230.59" y2="198.516" gradientUnits="userSpaceOnUse">
<stop stop-color="#4776E6"/>
<stop offset="1" stop-color="#8E54E9"/>
</linearGradient>
<linearGradient id="paint18_linear_17431_431123" x1="85.4307" y1="118.718" x2="97.0177" y2="125.088" gradientUnits="userSpaceOnUse">
<stop stop-color="#4776E6"/>
<stop offset="1" stop-color="#8E54E9"/>
</linearGradient>
<linearGradient id="paint19_linear_17431_431123" x1="111.501" y1="133.05" x2="171.367" y2="165.96" gradientUnits="userSpaceOnUse">
<stop stop-color="#4776E6"/>
<stop offset="1" stop-color="#8E54E9"/>
</linearGradient>
<linearGradient id="paint20_linear_17431_431123" x1="183.448" y1="128.558" x2="234.865" y2="129.192" gradientUnits="userSpaceOnUse">
<stop stop-color="#4776E6"/>
<stop offset="1" stop-color="#8E54E9"/>
</linearGradient>
<linearGradient id="paint21_linear_17431_431123" x1="184.182" y1="128.57" x2="234.13" y2="129.185" gradientUnits="userSpaceOnUse">
<stop stop-color="#4776E6"/>
<stop offset="1" stop-color="#8E54E9"/>
</linearGradient>
<linearGradient id="paint22_linear_17431_431123" x1="209.046" y1="128.643" x2="209.858" y2="70.4224" gradientUnits="userSpaceOnUse">
<stop stop-color="#4776E6"/>
<stop offset="1" stop-color="#8E54E9"/>
</linearGradient>
<linearGradient id="paint23_linear_17431_431123" x1="203.32" y1="98.9248" x2="218.558" y2="99.1373" gradientUnits="userSpaceOnUse">
<stop stop-color="#4776E6"/>
<stop offset="1" stop-color="#8E54E9"/>
</linearGradient>
<linearGradient id="paint24_linear_17431_431123" x1="194.525" y1="186.83" x2="222.437" y2="187.219" gradientUnits="userSpaceOnUse">
<stop stop-color="#4776E6"/>
<stop offset="1" stop-color="#8E54E9"/>
</linearGradient>
<linearGradient id="paint25_linear_17431_431123" x1="208.89" y1="150.713" x2="209.115" y2="134.591" gradientUnits="userSpaceOnUse">
<stop stop-color="#4776E6"/>
<stop offset="1" stop-color="#8E54E9"/>
</linearGradient>
<linearGradient id="paint26_linear_17431_431123" x1="200.837" y1="148.679" x2="204.688" y2="148.733" gradientUnits="userSpaceOnUse">
<stop stop-color="#4776E6"/>
<stop offset="1" stop-color="#8E54E9"/>
</linearGradient>
<linearGradient id="paint27_linear_17431_431123" x1="208.89" y1="150.712" x2="209.115" y2="134.591" gradientUnits="userSpaceOnUse">
<stop stop-color="#4776E6"/>
<stop offset="1" stop-color="#8E54E9"/>
</linearGradient>
<linearGradient id="paint28_linear_17431_431123" x1="200.965" y1="139.49" x2="210.931" y2="139.629" gradientUnits="userSpaceOnUse">
<stop stop-color="#4776E6"/>
<stop offset="1" stop-color="#8E54E9"/>
</linearGradient>
<linearGradient id="paint29_linear_17431_431123" x1="208.89" y1="150.712" x2="209.115" y2="134.591" gradientUnits="userSpaceOnUse">
<stop stop-color="#4776E6"/>
<stop offset="1" stop-color="#8E54E9"/>
</linearGradient>
<linearGradient id="paint30_linear_17431_431123" x1="206.99" y1="148.765" x2="210.84" y2="148.818" gradientUnits="userSpaceOnUse">
<stop stop-color="#4776E6"/>
<stop offset="1" stop-color="#8E54E9"/>
</linearGradient>
<linearGradient id="paint31_linear_17431_431123" x1="208.89" y1="150.713" x2="209.114" y2="134.591" gradientUnits="userSpaceOnUse">
<stop stop-color="#4776E6"/>
<stop offset="1" stop-color="#8E54E9"/>
</linearGradient>
<linearGradient id="paint32_linear_17431_431123" x1="213.316" y1="136.571" x2="217.126" y2="136.624" gradientUnits="userSpaceOnUse">
<stop stop-color="#4776E6"/>
<stop offset="1" stop-color="#8E54E9"/>
</linearGradient>
<linearGradient id="paint33_linear_17431_431123" x1="208.89" y1="150.712" x2="209.114" y2="134.591" gradientUnits="userSpaceOnUse">
<stop stop-color="#4776E6"/>
<stop offset="1" stop-color="#8E54E9"/>
</linearGradient>
<linearGradient id="paint34_linear_17431_431123" x1="213.231" y1="142.712" x2="217.082" y2="142.766" gradientUnits="userSpaceOnUse">
<stop stop-color="#4776E6"/>
<stop offset="1" stop-color="#8E54E9"/>
</linearGradient>
<linearGradient id="paint35_linear_17431_431123" x1="208.89" y1="150.713" x2="209.115" y2="134.591" gradientUnits="userSpaceOnUse">
<stop stop-color="#4776E6"/>
<stop offset="1" stop-color="#8E54E9"/>
</linearGradient>
<linearGradient id="paint36_linear_17431_431123" x1="213.145" y1="148.851" x2="216.996" y2="148.904" gradientUnits="userSpaceOnUse">
<stop stop-color="#4776E6"/>
<stop offset="1" stop-color="#8E54E9"/>
</linearGradient>
<clipPath id="clip0_17431_431123">
<rect width="7.11131" height="7.11131" fill="white" transform="translate(162.05 157.068) rotate(28.7988)"/>
</clipPath>
<clipPath id="clip1_17431_431123">
<rect width="7.11131" height="7.11131" fill="white" transform="matrix(-0.876316 -0.481736 -0.481736 0.876316 124.214 136.269)"/>
</clipPath>
</defs>
</svg>
