 <svg width="50" height="49" viewBox="0 0 50 49" fill="none" xmlns="http://www.w3.org/2000/svg">
<g clip-path="url(#clip0)">
<rect width="49.7914" height="48.3688" fill="white"/>
<path d="M42.2144 0H7.57698C3.39877 0 0 3.30166 0 7.3605V30.4934C0 34.5522 3.39877 37.8538 7.57698 37.8538H30.9422L41.4482 48.0617C41.656 48.2616 41.9331 48.3688 42.2145 48.3688C42.3531 48.3688 42.4938 48.3415 42.6281 48.2889C43.0329 48.1269 43.297 47.7421 43.297 47.3173V37.7802C46.9643 37.2671 49.7915 34.1946 49.7915 30.4933V7.3605C49.7914 3.30166 46.3926 0 42.2144 0ZM47.6265 30.4933C47.6265 33.3934 45.1976 35.7508 42.2144 35.7508C41.6169 35.7508 41.132 36.2219 41.132 36.8023V44.7789L32.1565 36.0578C31.9531 35.8623 31.6781 35.7508 31.3902 35.7508H7.57698C4.59386 35.7508 2.16491 33.3933 2.16491 30.4933V7.3605C2.16491 4.46044 4.59386 2.10306 7.57698 2.10306H42.2144C45.1976 2.10306 47.6265 4.46054 47.6265 7.3605V30.4933Z" fill="#8B9BC7"/>
<path d="M24.8957 25.2358C23.1053 25.2358 21.6484 26.6511 21.6484 28.3903C21.6484 30.1295 23.1053 31.5448 24.8957 31.5448C26.6861 31.5448 28.143 30.1295 28.143 28.3903C28.143 26.6511 26.6861 25.2358 24.8957 25.2358ZM24.8957 29.4419C24.2982 29.4419 23.8133 28.9687 23.8133 28.3903C23.8133 27.812 24.2982 27.3388 24.8957 27.3388C25.4932 27.3388 25.9782 27.812 25.9782 28.3903C25.9782 28.9687 25.4932 29.4419 24.8957 29.4419Z" fill="#8B9BC7"/>
<path d="M28.3553 7.31416C27.7426 6.67488 26.8766 6.30896 25.9783 6.30896H23.8134C22.9151 6.30896 22.0513 6.67488 21.4386 7.31416C20.826 7.95136 20.512 8.81569 20.5748 9.70319L21.4905 20.0646C21.6161 21.7849 23.1055 23.1328 24.8958 23.1328C26.6709 23.1328 28.1604 21.7848 28.2838 20.0813L29.2169 9.6884C29.2818 8.81786 28.9679 7.95353 28.3553 7.31416ZM27.0607 9.5223L26.1255 19.9174C26.08 20.542 25.5389 21.0299 24.8785 21.0299C24.2335 21.0299 23.6944 20.542 23.6467 19.9006L22.7331 9.53915C22.7115 9.24263 22.8132 8.9608 23.021 8.74629C23.2288 8.53179 23.5102 8.41192 23.8133 8.41192H25.9783C26.2814 8.41192 26.5628 8.53179 26.7706 8.74629C26.9784 8.9608 27.0802 9.24263 27.0607 9.5223Z" fill="#8B9BC7"/>
</g>
<defs>
<clipPath id="clip0">
<rect width="49.7914" height="48.3688" fill="white"/>
</clipPath>
</defs>
</svg>
