<svg width="78" height="130" viewBox="0 0 78 130" fill="none" xmlns="http://www.w3.org/2000/svg">
<path d="M56.75 75.4688H52.5625V62.9062C52.5625 62.351 52.3419 61.8184 51.9493 61.4257C51.5566 61.0331 51.024 60.8125 50.4688 60.8125H29.5312C28.976 60.8125 28.4434 61.0331 28.0507 61.4257C27.6581 61.8184 27.4375 62.351 27.4375 62.9062V75.4688H23.25C22.6947 75.4688 22.1621 75.6893 21.7695 76.082C21.3768 76.4746 21.1562 77.0072 21.1562 77.5625V122.578C21.1584 124.521 21.9312 126.384 23.305 127.758C24.6788 129.131 26.5415 129.904 28.4844 129.906H51.5156C53.4585 129.904 55.3212 129.131 56.695 127.758C58.0688 126.384 58.8416 124.521 58.8438 122.578V77.5625C58.8438 77.0072 58.6232 76.4746 58.2305 76.082C57.8379 75.6893 57.3053 75.4688 56.75 75.4688ZM31.625 65H48.375V75.4688H31.625V65ZM54.6562 122.578C54.6556 123.411 54.3244 124.209 53.7356 124.798C53.1468 125.387 52.3484 125.718 51.5156 125.719H28.4844C27.6516 125.718 26.8532 125.387 26.2644 124.798C25.6756 124.209 25.3444 123.411 25.3438 122.578V79.6562H54.6562V122.578Z" fill="#1A53F0"/>
<path d="M35.8125 67.0938C35.2572 67.0938 34.7246 67.3143 34.332 67.707C33.9393 68.0996 33.7188 68.6322 33.7188 69.1875V71.2812C33.7188 71.8365 33.9393 72.3691 34.332 72.7618C34.7246 73.1544 35.2572 73.375 35.8125 73.375C36.3678 73.375 36.9004 73.1544 37.293 72.7618C37.6857 72.3691 37.9062 71.8365 37.9062 71.2812V69.1875C37.9062 68.6322 37.6857 68.0996 37.293 67.707C36.9004 67.3143 36.3678 67.0938 35.8125 67.0938Z" fill="#1A53F0"/>
<path d="M44.1875 67.0938C43.6322 67.0938 43.0996 67.3143 42.707 67.707C42.3143 68.0996 42.0938 68.6322 42.0938 69.1875V71.2812C42.0938 71.8365 42.3143 72.3691 42.707 72.7618C43.0996 73.1544 43.6322 73.375 44.1875 73.375C44.7428 73.375 45.2754 73.1544 45.668 72.7618C46.0607 72.3691 46.2812 71.8365 46.2812 71.2812V69.1875C46.2812 68.6322 46.0607 68.0996 45.668 67.707C45.2754 67.3143 44.7428 67.0938 44.1875 67.0938Z" fill="#1A53F0"/>
<path d="M70.3622 22.9941C68.1335 21.7068 65.6049 21.0298 63.0312 21.0313H62.937C62.4466 15.6731 60.096 10.6557 56.2929 6.84952C52.4899 3.04334 47.4744 0.688571 42.1167 0.193772C36.759 -0.301027 31.3971 1.09536 26.9613 4.14067C22.5255 7.18598 19.2957 11.688 17.8323 16.8657C17.545 16.8511 17.2571 16.8438 16.9687 16.8438C13.1656 16.8444 9.47596 18.139 6.50627 20.5147C3.53658 22.8904 1.46363 26.2059 0.628207 29.9161C-0.207215 33.6263 0.244619 37.5103 1.90943 40.9296C3.57423 44.3489 6.35292 47.0999 9.78868 48.7305C12.0312 49.7987 14.4848 50.35 16.9687 50.3438H33.7187V56.625C33.7187 57.1803 33.9393 57.7129 34.3319 58.1055C34.7246 58.4982 35.2571 58.7188 35.8124 58.7188H44.1874C44.7427 58.7188 45.2753 58.4982 45.6679 58.1055C46.0606 57.7129 46.2812 57.1803 46.2812 56.625V50.3438H63.0312C66.2572 50.3431 69.3929 49.2783 71.9522 47.3143C74.5115 45.3503 76.3514 42.5968 77.1866 39.4808C78.0219 36.3647 77.8058 33.0602 76.572 30.0794C75.3381 27.0987 73.1554 24.6082 70.3622 22.9941ZM42.0937 54.5313H37.9062V41.9688C37.9062 41.4135 37.6856 40.8809 37.2929 40.4882C36.9003 40.0956 36.3677 39.875 35.8124 39.875H34.0013L39.9999 32.6777L45.9985 39.875H44.1874C43.6321 39.875 43.0996 40.0956 42.7069 40.4882C42.3143 40.8809 42.0937 41.4135 42.0937 41.9688V54.5313ZM68.2627 44.7582C66.672 45.6759 64.8676 46.1581 63.0312 46.1563H46.2812V44.0625H50.4687C50.8666 44.0625 51.2563 43.9491 51.5921 43.7356C51.9279 43.522 52.1959 43.2172 52.3647 42.8569C52.5335 42.4965 52.5961 42.0955 52.5452 41.7009C52.4943 41.3062 52.3319 40.9342 52.0772 40.6285L41.6084 28.066C41.4119 27.8302 41.166 27.6404 40.888 27.5102C40.6101 27.38 40.3069 27.3126 39.9999 27.3126C39.693 27.3126 39.3898 27.38 39.1118 27.5102C38.8338 27.6404 38.5879 27.8302 38.3914 28.066L27.9226 40.6285C27.6679 40.9342 27.5056 41.3062 27.4547 41.7009C27.4038 42.0955 27.4664 42.4965 27.6352 42.8569C27.804 43.2172 28.072 43.522 28.4077 43.7356C28.7435 43.9491 29.1332 44.0625 29.5312 44.0625H33.7187V46.1563H16.9687C15.1067 46.1614 13.2674 45.7487 11.5862 44.9484C9.00889 43.7258 6.92432 41.6627 5.67522 39.0981C4.42611 36.5336 4.08681 33.6204 4.71311 30.8374C5.33941 28.0545 6.89402 25.5674 9.12134 23.7853C11.3487 22.0031 14.1161 21.0319 16.9687 21.0313C17.6782 21.0306 18.3866 21.0904 19.086 21.21C19.6264 21.3033 20.1818 21.1809 20.6328 20.869C21.0839 20.5572 21.3946 20.0808 21.4982 19.5423C22.3874 14.9398 24.96 10.8339 28.7139 8.02637C32.4677 5.21882 37.1332 3.91121 41.7994 4.35885C46.4656 4.80649 50.7974 6.97725 53.949 10.4473C57.1007 13.9173 58.8458 18.4374 58.8437 23.125C58.8437 23.6803 59.0643 24.2129 59.4569 24.6055C59.8496 24.9982 60.3821 25.2188 60.9374 25.2188H63.0312C65.3361 25.2192 67.5765 25.9802 69.4048 27.3837C71.2332 28.7872 72.5473 30.7548 73.1435 32.9813C73.7396 35.2078 73.5844 37.5688 72.7019 39.6981C71.8195 41.8275 70.259 43.6061 68.2627 44.7582Z" fill="#1A53F0"/>
</svg>