<svg width="48" height="48" viewBox="0 0 48 48" fill="none" xmlns="http://www.w3.org/2000/svg">
<path d="M19.125 14.625H21.375C21.5813 14.625 21.75 14.4563 21.75 14.25V12C21.75 11.7937 21.5813 11.625 21.375 11.625H19.125C18.9187 11.625 18.75 11.7937 18.75 12V14.25C18.75 14.4563 18.9187 14.625 19.125 14.625ZM35.625 20.25V6.75C35.625 5.92031 34.9547 5.25 34.125 5.25H13.875C13.0453 5.25 12.375 5.92031 12.375 6.75V20.25C9.27188 20.25 6.75 22.6922 6.75 25.6875V42.375C6.75 42.5813 6.91875 42.75 7.125 42.75H40.875C41.0813 42.75 41.25 42.5813 41.25 42.375V25.6875C41.25 22.6922 38.7281 20.25 35.625 20.25ZM32.25 20.25H15.75V8.625H32.25V20.25ZM26.625 14.625H28.875C29.0813 14.625 29.25 14.4563 29.25 14.25V12C29.25 11.7937 29.0813 11.625 28.875 11.625H26.625C26.4187 11.625 26.25 11.7937 26.25 12V14.25C26.25 14.4563 26.4187 14.625 26.625 14.625Z" fill="#00A3FF"/>
</svg>
