<svg width="111" height="65" viewBox="0 0 111 65" fill="none" xmlns="http://www.w3.org/2000/svg">
    <path d="M7.6574 35.25H0.75V29.75H29.5H30V29.25V13.5H35.5V29.25V29.75H36H53.1576H53.518L53.632 29.4081L58.5301 14.7133C61.3641 6.21142 69.2885 0.5 78.25 0.5C87.2115 0.5 95.1359 6.21142 97.9699 14.7133L102.868 29.4081L102.982 29.75H103.342H110.25V35.25H81.5H81V35.75V51.5H75.5V35.75V35.25H75H57.8424H57.482L57.368 35.5919L52.4699 50.2867C49.6359 58.7886 41.7115 64.5 32.75 64.5C23.7885 64.5 15.8641 58.7886 13.0299 50.2867L8.13174 35.5919L8.01778 35.25H7.6574ZM14.5093 35.25H13.8156L14.0349 35.9081L18.248 48.5476C19.9687 53.7096 24.2433 57.4707 29.3905 58.6258L30 58.7626V58.138V35.75V35.25H29.5H14.5093ZM35.5 58.138V58.7626L36.1095 58.6258C41.2568 57.4707 45.5311 53.7096 47.252 48.5476L51.4653 35.9081L51.6847 35.25H50.9909H36H35.5V35.75V58.138ZM59.5347 29.0919L59.3153 29.75H60.0091H74.9998H75.4998V29.25V6.86205V6.2374L74.8903 6.37419C69.743 7.52935 65.4687 11.2904 63.7478 16.4524L64.2221 16.6105L63.7478 16.4524L59.5347 29.0919ZM81.6095 6.37419L81 6.2374V6.86205V29.25V29.75H81.5H96.491H97.1847L96.9653 29.0919L92.752 16.4524L92.2777 16.6105L92.752 16.4524C91.0311 11.2904 86.7568 7.52935 81.6095 6.37419Z" fill="#C3CEEB" stroke="white"/>
    <path d="M29.5 0H36V6.5H29.5V0Z" fill="#C3CEEB"/>
</svg>
