<svg width="89" height="89" viewBox="0 0 89 89" fill="none" xmlns="http://www.w3.org/2000/svg">
    <path d="M87.1386 46.2662H64.6776C63.7813 46.2662 63.0119 46.9067 62.8504 47.7886C62.3731 50.3779 61.3806 52.782 59.8983 54.9339C59.3885 55.6725 59.481 56.6684 60.1143 57.3018L75.9997 73.1872C76.3481 73.5373 76.8217 73.7315 77.3134 73.7315C77.3406 73.7315 77.3679 73.7315 77.3932 73.7298C77.914 73.708 78.4021 73.4668 78.7358 73.0693C84.6528 66.0238 88.1999 57.4525 88.9893 48.284C89.0346 47.7651 88.8586 47.2516 88.5085 46.8687C88.1563 46.484 87.6592 46.2662 87.1386 46.2662ZM77.1591 69.0919L63.7957 55.7285C64.8572 53.9341 65.6518 52.0107 66.1707 49.9821H85.0626C84.1175 56.9532 81.4122 63.4908 77.1591 69.0919Z" fill="#C3CEEB"/>
    <path d="M57.488 59.929C56.8529 59.2958 55.8567 59.2014 55.1201 59.713C52.0083 61.8559 48.3686 62.9881 44.5946 62.9881C34.3502 62.9881 26.0147 54.6526 26.0147 44.4082C26.0147 35.4484 32.4069 27.7717 41.2141 26.1512C42.096 25.9897 42.7365 25.2204 42.7365 24.324V1.86323C42.7365 1.34241 42.5188 0.845286 42.1342 0.493256C41.7513 0.139484 41.2324 -0.0528173 40.7189 0.0125025C17.8878 1.98133 0.00292969 21.4828 0.00292969 44.4082C0.00292969 68.9956 20.0072 88.9998 44.5946 88.9998C55.0548 88.9998 65.2339 85.2893 73.2555 78.5504C73.6528 78.2147 73.8942 77.7284 73.916 77.2077C73.9378 76.6888 73.7418 76.1827 73.3734 75.8143L57.488 59.929ZM44.5946 85.2839C22.0556 85.2839 3.71884 66.9471 3.71884 44.4082C3.71884 24.0737 19.0672 6.67878 39.0206 3.939V22.8309C29.2427 25.3402 22.2987 34.1784 22.2987 44.4082C22.2987 56.7027 32.3 66.704 44.5946 66.704C48.6045 66.704 52.4875 65.6388 55.9149 63.6122L69.2764 76.9736C62.1928 82.3464 53.5052 85.2839 44.5946 85.2839Z" fill="#C3CEEB"/>
    <path d="M47.9739 26.1514C55.4893 27.5341 61.4679 33.5125 62.8504 41.028C63.0119 41.9099 63.7812 42.5503 64.6776 42.5503H87.1403C87.6611 42.5503 88.1582 42.3326 88.5103 41.948C88.8623 41.5651 89.0365 41.0516 88.991 40.5327C87.1239 18.919 70.0828 1.8779 48.4693 0.0125459C47.9648 -0.0346586 47.4369 0.141443 47.054 0.493299C46.6694 0.845329 46.4517 1.34246 46.4517 1.86327V24.3242C46.4515 25.2206 47.092 25.99 47.9739 26.1514ZM50.1676 3.93905C68.3446 6.40674 82.5952 20.6555 85.0647 38.8343H66.169C64.1514 31.0358 57.9659 24.8504 50.1674 22.8327V3.93905H50.1676Z" fill="#C3CEEB"/>
</svg>
