<svg width="277" height="" viewBox="0 0 277 160" fill="none" xmlns="http://www.w3.org/2000/svg">
<path d="M87.3665 58.2963C86.7932 57.845 86.6441 57.0308 87.0377 56.4055C87.908 55.0406 88.8494 53.6886 89.8401 52.3896C90.3188 51.7629 91.2243 51.6351 91.8636 52.1164C91.8721 52.1191 91.878 52.1303 91.8866 52.133C92.506 52.6174 92.6139 53.5029 92.1437 54.1323C91.2028 55.3627 90.3111 56.6461 89.4794 57.9482C89.0526 58.6192 88.1626 58.8174 87.4875 58.3904C87.4501 58.3599 87.404 58.3268 87.3665 58.2963ZM95.2168 48.5634C95.1708 48.5302 95.1274 48.4885 95.0926 48.4495C94.5256 47.8879 94.5279 46.9808 95.0902 46.4178C96.2484 45.2742 97.464 44.158 98.7095 43.126C99.3211 42.6159 100.228 42.6944 100.742 43.3048C101.256 43.9153 101.18 44.818 100.568 45.3281C99.384 46.3139 98.2242 47.3727 97.1301 48.4615C96.6095 48.9815 95.7816 49.0119 95.2168 48.5634ZM105.035 40.8047C104.905 40.7079 104.795 40.5797 104.707 40.4398C104.288 39.7656 104.49 38.8835 105.16 38.4572C106.539 37.5983 107.979 36.7864 109.432 36.0534C110.137 35.6943 111.008 35.9769 111.37 36.6802C111.733 37.3836 111.452 38.2501 110.747 38.6091C109.37 39.3098 108 40.0781 106.691 40.8935C106.164 41.2243 105.502 41.1757 105.035 40.8047ZM116.354 35.4263C116.144 35.2573 115.978 35.0368 115.89 34.7754C115.626 34.028 116.025 33.2077 116.783 32.9495C118.322 32.4214 119.908 31.9547 121.492 31.5531C122.265 31.3653 123.043 31.8245 123.243 32.5984C123.434 33.3695 122.975 34.1428 122.198 34.3391C120.696 34.7197 119.192 35.1652 117.729 35.661C117.244 35.8271 116.732 35.7225 116.354 35.4263ZM128.602 32.6975C128.308 32.4649 128.105 32.1206 128.058 31.7314C127.966 30.9445 128.537 30.2344 129.336 30.1479C130.952 29.9718 132.604 29.8629 134.235 29.8222C135.032 29.8008 135.691 30.4286 135.715 31.2223C135.739 32.016 135.11 32.6705 134.313 32.692C132.759 32.7286 131.195 32.8276 129.655 32.9997C129.264 33.0456 128.887 32.9274 128.602 32.6975ZM141.155 32.7415C140.778 32.4453 140.553 31.9629 140.62 31.4504C140.707 30.6634 141.419 30.1007 142.21 30.1896C143.834 30.3807 145.467 30.631 147.068 30.9553C147.846 31.115 148.351 31.8725 148.202 32.6493C148.044 33.4233 147.284 33.9245 146.504 33.7734C144.983 33.4647 143.432 33.2215 141.888 33.0461C141.606 33.0139 141.357 32.9078 141.155 32.7415ZM184.732 62.779C184.573 62.6544 184.443 62.5011 184.342 62.3106C183.635 60.9375 182.857 59.5796 182.026 58.2707C181.607 57.5965 181.8 56.7117 182.475 56.2966C183.154 55.8729 184.04 56.0761 184.459 56.7503C185.334 58.1291 186.154 59.5654 186.896 61.0058C187.259 61.7092 186.986 62.5783 186.273 62.9347C185.767 63.1973 185.161 63.1196 184.732 62.779ZM153.388 35.5488C152.921 35.1777 152.716 34.5425 152.92 33.9513C153.184 33.201 154.002 32.8119 154.756 33.0765C156.299 33.6165 157.828 34.2274 159.32 34.9011C160.044 35.2312 160.37 36.0821 160.04 36.8024C159.711 37.5227 158.857 37.8446 158.133 37.5145C156.725 36.8762 155.261 36.2954 153.804 35.7822C153.652 35.7253 153.515 35.6541 153.388 35.5488ZM177.755 52.3637C177.68 52.3027 177.607 52.2333 177.544 52.1665C176.542 50.9818 175.481 49.8349 174.379 48.731C173.812 48.1694 173.814 47.2623 174.376 46.6993C174.939 46.1363 175.849 46.1412 176.416 46.7028C177.571 47.851 178.693 49.0733 179.744 50.3108C180.258 50.9213 180.181 51.8239 179.57 52.3341C179.042 52.7863 178.282 52.7818 177.755 52.3637ZM164.693 41.0133C164.119 40.5621 163.97 39.7478 164.364 39.1226C164.791 38.4515 165.681 38.2533 166.356 38.6803C167.738 39.5536 169.092 40.4838 170.399 41.4742C170.408 41.4769 170.414 41.4881 170.422 41.4907C171.033 41.9725 171.15 42.8607 170.682 43.4815C170.201 44.1167 169.298 44.236 168.667 43.7574C167.426 42.8253 166.138 41.9251 164.825 41.1016C164.776 41.077 164.73 41.0438 164.693 41.0133Z" fill="#91B3FA"/>
<path d="M188.533 72.1323C188.305 71.958 188.136 71.7177 188.051 71.4196C187.833 70.7054 187.603 69.997 187.354 69.2918C187.09 68.5444 187.488 67.7241 188.238 67.4632C188.988 67.2023 189.813 67.6014 190.077 68.3488C190.335 69.0849 190.585 69.8467 190.813 70.5918C191.046 71.3481 190.616 72.1492 189.857 72.3792C189.38 72.5198 188.887 72.4119 188.533 72.1323Z" fill="#91B3FA"/>
<path d="M183.866 115.622C183.324 115.19 183.153 114.415 183.499 113.794C183.861 113.149 184.22 112.485 184.55 111.821C184.914 111.112 185.774 110.829 186.487 111.193C187.201 111.558 187.487 112.415 187.124 113.124C186.774 113.82 186.393 114.524 186.012 115.2C185.625 115.893 184.75 116.133 184.053 115.746C183.987 115.716 183.927 115.669 183.866 115.622Z" fill="#91B3FA"/>
<path d="M100.108 132.057C99.5869 131.651 99.0708 131.227 98.5659 130.797C97.9572 130.278 97.883 129.375 98.3992 128.779C98.9181 128.174 99.8247 128.103 100.428 128.61C101.602 129.606 102.82 130.549 104.057 131.434C104.702 131.898 104.855 132.788 104.397 133.44C103.933 134.081 103.039 134.231 102.383 133.772C101.606 133.22 100.846 132.645 100.108 132.057ZM93.0952 125.506C93.0347 125.459 92.9683 125.4 92.9132 125.336C91.8375 124.147 90.8003 122.895 89.8279 121.617C89.3476 120.989 89.4719 120.083 90.1011 119.606C90.7389 119.132 91.6408 119.256 92.1211 119.884C93.0383 121.098 94.0289 122.289 95.0495 123.414C95.5801 124.001 95.5296 124.912 94.9411 125.439C94.4226 125.922 93.6396 125.929 93.0952 125.506ZM108.838 137.725C108.302 137.304 108.132 136.558 108.46 135.931C108.83 135.233 109.704 134.964 110.406 135.334C111.756 136.038 113.157 136.702 114.561 137.293C115.291 137.606 115.639 138.445 115.335 139.173C115.032 139.902 114.181 140.243 113.449 139.939C111.97 139.316 110.495 138.619 109.074 137.874C108.982 137.836 108.904 137.783 108.838 137.725ZM85.8902 115.487C85.7462 115.376 85.6214 115.234 85.5245 115.063C84.7399 113.666 83.9997 112.217 83.336 110.764C83.0071 110.043 83.3311 109.19 84.054 108.865C84.7769 108.539 85.6371 108.856 85.9634 109.585C86.5917 110.971 87.2906 112.342 88.0399 113.672C88.4335 114.366 88.1781 115.24 87.4932 115.625C86.9624 115.907 86.334 115.841 85.8902 115.487ZM120.343 142.223C119.905 141.879 119.692 141.298 119.843 140.728C120.046 139.958 120.838 139.505 121.608 139.718C123.074 140.112 124.587 140.447 126.091 140.722C126.874 140.864 127.393 141.608 127.261 142.39C127.12 143.169 126.375 143.684 125.589 143.55C124.003 143.268 122.422 142.912 120.87 142.491C120.673 142.429 120.493 142.345 120.343 142.223ZM132.557 144.098C132.211 143.821 131.99 143.386 132.007 142.914C132.039 142.12 132.711 141.507 133.501 141.539C135.023 141.605 136.575 141.605 138.098 141.549C138.889 141.516 139.562 142.13 139.603 142.929C139.638 143.717 139.024 144.385 138.221 144.424C136.62 144.492 134.994 144.488 133.389 144.415C133.077 144.392 132.782 144.281 132.557 144.098ZM144.873 143.281C144.611 143.068 144.412 142.771 144.348 142.405C144.208 141.622 144.724 140.876 145.51 140.739C147.015 140.471 148.521 140.138 149.997 139.75C150.768 139.542 151.554 140.004 151.765 140.772C151.975 141.54 151.514 142.322 150.743 142.53C149.193 142.942 147.608 143.287 146.025 143.567C145.606 143.642 145.19 143.53 144.873 143.281ZM156.717 139.799C156.536 139.657 156.381 139.459 156.283 139.232C155.977 138.499 156.315 137.66 157.05 137.357C158.457 136.769 159.858 136.113 161.206 135.413C161.914 135.046 162.779 135.317 163.15 136.023C163.521 136.729 163.252 137.59 162.544 137.957C161.125 138.701 159.649 139.389 158.168 140.001C157.67 140.21 157.115 140.12 156.717 139.799ZM167.503 133.813C167.396 133.733 167.306 133.63 167.228 133.521C166.761 132.878 166.911 131.98 167.555 131.517C168.792 130.633 170.008 129.694 171.172 128.712C171.775 128.199 172.69 128.28 173.207 128.882C173.724 129.484 173.656 130.389 173.042 130.908C171.822 131.948 170.542 132.941 169.237 133.861C168.703 134.245 167.993 134.2 167.503 133.813ZM176.685 125.621C176.662 125.604 176.639 125.588 176.619 125.563C176.024 125.03 175.978 124.126 176.503 123.533C177.253 122.701 177.985 121.836 178.675 120.957C178.924 120.642 179.176 120.319 179.417 120.001C179.898 119.366 180.801 119.247 181.432 119.725C182.082 120.201 182.193 121.106 181.715 121.732C181.457 122.073 181.203 122.405 180.928 122.74C180.197 123.662 179.423 124.57 178.64 125.448C178.149 126.024 177.282 126.089 176.685 125.621Z" fill="#91B3FA"/>
<path d="M81.0593 104.107C80.8318 103.933 80.6567 103.681 80.5688 103.391C80.3416 102.646 80.1395 101.881 79.946 101.118C79.7552 100.347 80.2168 99.5654 80.9906 99.3775C81.7644 99.1897 82.5422 99.6489 82.7416 100.423C82.9287 101.146 83.1243 101.872 83.3365 102.575C83.5669 103.34 83.131 104.13 82.3637 104.357C81.8954 104.5 81.4137 104.386 81.0593 104.107Z" fill="#91B3FA"/>
<path d="M92.943 92.279C92.9485 92.5615 93.1322 92.8156 93.4036 92.9101L101.199 95.4675C102.136 99.1682 103.667 102.746 105.79 106.052L102.318 113.433C102.199 113.695 102.253 114.002 102.464 114.199L109.53 121.03C109.741 121.227 110.046 121.276 110.302 121.15L117.605 117.479C120.987 119.504 124.623 120.925 128.365 121.743L131.158 129.423C131.254 129.687 131.516 129.872 131.799 129.868L141.631 129.741C141.915 129.737 142.17 129.554 142.264 129.284L144.809 121.528C148.523 120.606 152.111 119.092 155.427 116.978L162.849 120.457C163.112 120.577 163.42 120.524 163.618 120.315L170.456 113.297C170.654 113.087 170.702 112.784 170.575 112.529L166.868 105.245C168.891 101.884 170.308 98.266 171.118 94.5425L178.822 91.7832C179.087 91.6885 179.272 91.4283 179.267 91.1458L179.112 81.354C179.106 81.0715 178.922 80.8174 178.651 80.7229L170.855 78.1654C169.918 74.4647 168.388 70.8868 166.264 67.5813L169.736 60.2001C169.856 59.9382 169.802 59.6311 169.591 59.4339L162.524 52.6032C162.313 52.406 162.009 52.3573 161.753 52.4829L154.449 56.1541C151.068 54.1294 147.431 52.7079 143.69 51.8901L140.897 44.2098C140.801 43.9458 140.539 43.7607 140.255 43.7653L130.423 43.8917C130.14 43.8963 129.885 44.0785 129.791 44.3485L127.245 52.1045C123.532 53.0269 119.944 54.5407 116.628 56.6548L109.206 53.1757C108.942 53.0556 108.634 53.1087 108.437 53.3182L101.598 60.336C101.401 60.5455 101.353 60.8487 101.48 61.1037L105.187 68.3876C103.164 71.7494 101.747 75.367 100.936 79.0905L93.2323 81.8498C92.9674 81.9445 92.7823 82.2047 92.7878 82.4872L92.943 92.279Z" fill="#6A4BFF"/>
<path d="M129.904 94.5223C126.118 91.5378 124.993 86.1588 127.472 81.8825C130.188 77.1841 136.243 75.5735 140.966 78.2998C143.253 79.6161 144.891 81.7398 145.579 84.286C146.269 86.8236 145.918 89.4743 144.6 91.7564C141.884 96.4548 135.829 98.0654 131.106 95.3392C130.679 95.0833 130.282 94.8185 129.904 94.5223ZM140.747 80.9172C140.453 80.6846 140.143 80.4749 139.816 80.2881C136.189 78.2053 131.551 79.4366 129.472 83.0339C127.391 86.6397 128.641 91.2621 132.259 93.3423C135.886 95.4251 140.524 94.1938 142.603 90.5965C143.61 88.8535 143.88 86.823 143.354 84.8704C142.929 83.2864 142.015 81.9139 140.747 80.9172Z" fill="#91B3FA"/>
<path d="M121.218 105.78C120.57 105.268 119.943 104.716 119.336 104.133C119.148 103.952 118.963 103.763 118.778 103.574C117.874 102.645 117.043 101.635 116.302 100.579C116.288 100.565 116.282 100.554 116.27 100.532C116.244 100.495 116.212 100.448 116.186 100.411C116.127 100.328 116.077 100.246 116.025 100.174C115.885 99.9614 115.905 99.6869 116.049 99.4981C116.082 99.4523 116.132 99.412 116.18 99.3801C116.443 99.2006 116.805 99.2767 116.977 99.5366C117.886 100.898 118.946 102.166 120.138 103.317C126.033 109.022 134.197 110.975 141.64 109.228C145.781 108.262 149.701 106.141 152.867 102.885C153.424 102.311 153.949 101.717 154.433 101.102C157.727 96.9593 159.47 91.8528 159.383 86.4908C159.284 80.3293 156.78 74.5743 152.342 70.2808C143.17 61.4046 128.49 61.6016 119.604 70.71C119.061 71.2698 118.539 71.8548 118.054 72.4703C115.955 75.1156 114.465 78.1861 113.688 81.4711C113.67 81.559 113.629 81.6303 113.579 81.6989C113.441 81.8707 113.218 81.9506 112.999 81.9005C112.694 81.8236 112.498 81.5187 112.565 81.2124C113.375 77.7602 114.942 74.5358 117.147 71.7645C117.657 71.1288 118.198 70.5125 118.771 69.9153C128.091 60.3534 143.515 60.1557 153.135 69.4625C157.796 73.9757 160.424 80.0225 160.523 86.4835C160.612 92.1083 158.781 97.4677 155.327 101.822C154.814 102.466 154.262 103.088 153.677 103.691C149.159 108.32 143.095 110.92 136.607 111C130.979 111.069 125.592 109.23 121.218 105.78Z" fill="#91B3FA"/>
<path d="M248.819 144.895C248.99 145.22 248.935 145.634 248.654 145.901C248.13 146.401 247.589 146.896 247.037 147.369C246.677 147.677 246.136 147.629 245.834 147.272C245.524 146.913 245.57 146.375 245.928 146.075C246.453 145.632 246.968 145.157 247.467 144.677C247.804 144.352 248.346 144.363 248.673 144.7C248.728 144.764 248.784 144.828 248.819 144.895Z" fill="#91B3FA"/>
<path d="M243.697 148.988C243.898 149.37 243.785 149.849 243.418 150.089C242.376 150.773 241.29 151.416 240.186 151.996C239.95 152.118 239.717 152.232 239.481 152.355C239.059 152.56 238.547 152.362 238.333 151.967C238.126 151.546 238.295 151.038 238.719 150.824C238.944 150.708 239.166 150.6 239.391 150.483C240.447 149.934 241.485 149.324 242.471 148.669C242.863 148.409 243.393 148.519 243.656 148.91C243.665 148.941 243.686 148.966 243.697 148.988ZM235.755 152.927C235.773 152.961 235.788 153.003 235.805 153.037C235.967 153.48 235.73 153.967 235.284 154.127C233.858 154.625 232.382 155.042 230.916 155.368C230.453 155.466 229.999 155.174 229.896 154.721C229.797 154.259 230.089 153.808 230.543 153.707C231.948 153.399 233.353 152.997 234.714 152.526C235.12 152.372 235.561 152.557 235.755 152.927ZM227.092 154.815C227.145 154.916 227.178 155.02 227.189 155.135C227.229 155.607 226.885 156.013 226.418 156.063C224.908 156.198 223.38 156.243 221.869 156.2C221.395 156.182 221.027 155.795 221.044 155.323C221.06 154.851 221.448 154.486 221.922 154.503C223.364 154.553 224.827 154.507 226.261 154.376C226.606 154.325 226.93 154.521 227.092 154.815ZM218.217 154.53C218.299 154.687 218.337 154.867 218.306 155.054C218.236 155.519 217.796 155.839 217.332 155.759C215.835 155.524 214.339 155.195 212.881 154.775C212.425 154.641 212.166 154.176 212.291 153.719C212.424 153.265 212.89 153.009 213.349 153.134C214.73 153.53 216.163 153.848 217.589 154.071C217.865 154.12 218.093 154.295 218.217 154.53ZM209.677 152.095C209.798 152.31 209.808 152.576 209.711 152.826C209.529 153.256 209.023 153.462 208.591 153.28C207.195 152.692 205.828 152.011 204.514 151.252C204.106 151.021 203.96 150.498 204.202 150.087C204.432 149.682 204.957 149.538 205.37 149.78C206.622 150.5 207.931 151.154 209.261 151.712C209.438 151.777 209.58 151.924 209.677 152.095ZM201.979 147.668C202.126 147.948 202.107 148.307 201.908 148.582C201.621 148.96 201.091 149.027 200.709 148.748C199.499 147.835 198.334 146.843 197.249 145.801C196.911 145.47 196.901 144.933 197.232 144.597C197.563 144.261 198.102 144.253 198.44 144.583C199.473 145.581 200.586 146.529 201.735 147.395C201.847 147.458 201.92 147.556 201.979 147.668ZM195.606 141.504C195.794 141.863 195.712 142.305 195.388 142.559C195.022 142.856 194.479 142.788 194.188 142.426C193.24 141.249 192.359 140.008 191.56 138.719C191.319 138.316 191.437 137.791 191.832 137.55C192.23 137.301 192.763 137.43 193.007 137.825C193.768 139.056 194.611 140.237 195.509 141.362C195.55 141.412 195.582 141.459 195.606 141.504ZM189.322 129.837C189.346 129.882 189.369 129.927 189.382 129.977C189.762 131.164 190.211 132.343 190.724 133.496C190.801 133.67 190.878 133.844 190.958 134.01C191.153 134.436 190.967 134.939 190.537 135.141C190.11 135.335 189.584 135.151 189.4 134.719C189.317 134.534 189.231 134.357 189.156 134.175C188.622 132.968 188.153 131.735 187.754 130.487C187.612 130.04 187.858 129.556 188.307 129.416C188.71 129.299 189.134 129.478 189.322 129.837Z" fill="#91B3FA"/>
<path d="M255.377 101.943C255.595 102.358 255.437 102.86 255.028 103.088C254.609 103.312 254.093 103.159 253.866 102.742C253.184 101.498 252.428 100.279 251.603 99.1307C251.337 98.7479 251.42 98.2124 251.807 97.9405C252.193 97.6686 252.728 97.7616 253.003 98.1471C253.857 99.3511 254.662 100.624 255.377 101.943C255.371 101.932 255.377 101.943 255.377 101.943ZM257.233 105.894C257.244 105.917 257.262 105.95 257.271 105.981C257.817 107.36 258.29 108.791 258.67 110.22C258.789 110.679 258.523 111.138 258.063 111.256C257.602 111.373 257.143 111.098 257.021 110.648C256.66 109.281 256.211 107.923 255.686 106.598C255.513 106.16 255.724 105.665 256.164 105.494C256.572 105.331 257.032 105.513 257.233 105.894ZM250.311 94.8508C250.488 95.187 250.422 95.6063 250.132 95.871C249.79 96.1846 249.241 96.1625 248.928 95.8115C247.969 94.7619 246.936 93.7642 245.86 92.8464C245.505 92.5385 245.458 91.9996 245.766 91.647C246.074 91.2944 246.615 91.2488 246.97 91.5567C248.098 92.5189 249.18 93.5694 250.191 94.6635C250.238 94.7249 250.276 94.7836 250.311 94.8508ZM259.447 114.31C259.494 114.4 259.521 114.493 259.537 114.591C259.736 116.058 259.847 117.562 259.873 119.039C259.876 119.508 259.501 119.896 259.03 119.898C258.559 119.9 258.169 119.525 258.165 119.056C258.146 117.646 258.039 116.218 257.85 114.811C257.79 114.343 258.111 113.92 258.584 113.852C258.943 113.816 259.288 114.008 259.447 114.31ZM243.673 89.1746C243.814 89.4436 243.803 89.7772 243.627 90.04C243.362 90.4343 242.831 90.5391 242.443 90.2769C241.259 89.4937 240.019 88.7679 238.75 88.1358C238.326 87.928 238.159 87.4079 238.364 86.9948C238.58 86.5759 239.094 86.4093 239.509 86.6144C240.841 87.2851 242.138 88.0382 243.386 88.8599C243.518 88.9482 243.616 89.054 243.673 89.1746ZM235.873 85.2495C235.979 85.4512 236.004 85.7023 235.921 85.9382C235.762 86.3845 235.27 86.6044 234.83 86.4477C233.495 85.9636 232.108 85.5567 230.729 85.2458C230.264 85.1375 229.983 84.6843 230.082 84.2192C230.187 83.7654 230.644 83.4782 231.1 83.5838C232.548 83.9162 233.994 84.342 235.397 84.8475C235.617 84.9259 235.779 85.0702 235.873 85.2495ZM227.36 83.3C227.437 83.4457 227.471 83.6062 227.452 83.7874C227.399 84.2573 226.982 84.5947 226.519 84.5429C225.109 84.3907 223.669 84.3323 222.251 84.3554C221.777 84.3659 221.387 83.9908 221.375 83.5191C221.363 83.0474 221.738 82.6598 222.212 82.6492C223.695 82.6279 225.2 82.6881 226.685 82.8447C226.983 82.8823 227.231 83.0534 227.36 83.3Z" fill="#91B3FA"/>
<path d="M259.557 123.049C259.633 123.195 259.665 123.364 259.648 123.536C259.571 124.261 259.466 124.986 259.349 125.689C259.27 126.151 258.825 126.46 258.361 126.38C257.897 126.3 257.585 125.856 257.664 125.394C257.781 124.72 257.876 124.029 257.951 123.341C258.004 122.871 258.429 122.536 258.892 122.588C259.188 122.634 259.435 122.805 259.557 123.049Z" fill="#91B3FA"/>
<path d="M249.453 127.517C249.524 127.352 249.483 127.152 249.344 127.024L245.426 123.502C245.845 121.088 245.884 118.592 245.493 116.092L249.467 112.659C249.609 112.535 249.651 112.342 249.582 112.171L247.225 106.34C247.156 106.169 246.984 106.058 246.803 106.067L241.539 106.325C240.08 104.258 238.315 102.478 236.323 101.03L236.684 95.7991C236.695 95.6152 236.59 95.4418 236.424 95.371L230.607 92.8915C230.441 92.8207 230.241 92.8607 230.113 92.9985L226.587 96.8906C224.162 96.4667 221.655 96.4199 219.146 96.8028L215.687 92.8352C215.562 92.6931 215.368 92.6511 215.197 92.7188L209.337 95.0553C209.165 95.123 209.055 95.2944 209.064 95.4751L209.339 100.718C207.267 102.165 205.485 103.918 204.037 105.897L198.774 105.519C198.59 105.508 198.416 105.613 198.345 105.778L195.872 111.563C195.802 111.728 195.842 111.928 195.981 112.056L199.899 115.578C199.481 117.992 199.441 120.488 199.833 122.988L195.859 126.421C195.716 126.545 195.675 126.738 195.743 126.909L198.106 132.751C198.175 132.922 198.347 133.033 198.529 133.024L203.793 132.766C205.251 134.833 207.017 136.613 209.008 138.061L208.647 143.292C208.636 143.476 208.742 143.649 208.908 143.72L214.724 146.2C214.89 146.27 215.091 146.23 215.219 146.093L218.744 142.201C221.17 142.624 223.676 142.671 226.185 142.288L229.644 146.256C229.769 146.398 229.963 146.44 230.135 146.372L235.994 144.036C236.166 143.968 236.276 143.797 236.267 143.616L235.992 138.373C238.064 136.926 239.846 135.173 241.295 133.194L246.548 133.569C246.733 133.58 246.907 133.476 246.978 133.311L249.453 127.517Z" fill="#6A4BFF"/>
<path d="M228.403 116.563C229.045 117.784 229.282 119.159 229.065 120.542C228.797 122.236 227.884 123.737 226.487 124.741C223.613 126.825 219.552 126.187 217.451 123.32C215.352 120.443 215.978 116.409 218.852 114.325C220.251 113.313 221.96 112.904 223.662 113.175C225.364 113.447 226.874 114.361 227.885 115.754C228.086 116.014 228.256 116.282 228.403 116.563ZM218.467 121.729C218.573 121.931 218.699 122.129 218.836 122.322C220.384 124.436 223.369 124.904 225.487 123.369C226.511 122.624 227.185 121.525 227.38 120.275C227.574 119.026 227.272 117.771 226.52 116.749C225.768 115.727 224.663 115.052 223.407 114.855C222.152 114.658 220.893 114.956 219.869 115.701C217.943 117.1 217.386 119.687 218.467 121.729Z" fill="#91B3FA"/>
<path d="M236.789 112.051C237.042 112.533 237.273 113.027 237.481 113.532C237.887 114.549 238.196 115.6 238.396 116.674C238.408 116.724 238.412 116.772 238.424 116.823C238.486 117.198 238.299 117.551 237.982 117.723C237.903 117.764 237.819 117.794 237.728 117.812C237.262 117.89 236.824 117.575 236.742 117.119C236.566 116.119 236.283 115.131 235.905 114.18C235.884 114.126 235.863 114.073 235.839 114.028C234.911 111.799 233.455 109.873 231.616 108.389C230.619 107.58 229.505 106.903 228.294 106.383C228.286 106.38 228.277 106.377 228.26 106.372C228.226 106.361 228.203 106.345 228.169 106.334C224.624 104.829 220.716 104.783 217.148 106.2C216.686 106.383 216.236 106.588 215.807 106.818C212.882 108.344 210.598 110.8 209.287 113.87C207.786 117.396 207.75 121.288 209.184 124.845C210.629 128.396 213.364 131.191 216.909 132.696C220.453 134.201 224.361 134.247 227.929 132.83C228.382 132.645 228.821 132.445 229.259 132.218C231.125 131.249 232.749 129.878 234.028 128.201C234.108 128.095 234.206 128.023 234.31 127.962C234.591 127.816 234.951 127.835 235.225 128.043C235.597 128.328 235.675 128.858 235.396 129.238C233.971 131.112 232.156 132.64 230.066 133.725C229.583 133.976 229.088 134.204 228.581 134.41C224.591 136.004 220.215 135.951 216.255 134.269C212.296 132.588 209.228 129.473 207.619 125.486C206.007 121.508 206.047 117.15 207.725 113.212C209.185 109.786 211.742 107.031 215.015 105.325C215.498 105.074 216.004 104.84 216.519 104.636C224.242 101.518 232.989 104.851 236.789 112.051Z" fill="#91B3FA"/>
<path d="M12.726 123.069C12.3925 122.842 12.2253 122.416 12.3536 122.007C12.5915 121.248 12.8663 120.492 13.147 119.747C13.3363 119.264 13.8821 119.023 14.3595 119.21C14.8456 119.4 15.0888 119.944 14.9022 120.419C14.6322 121.13 14.3766 121.855 14.1409 122.577C13.9859 123.071 13.4577 123.345 12.9637 123.181C12.8754 123.162 12.7951 123.118 12.726 123.069Z" fill="#91B3FA"/>
<path d="M15.5406 116.436C15.1439 116.171 15.0088 115.642 15.2361 115.217C15.8881 114.008 16.6058 112.83 17.367 111.693C17.5269 111.453 17.6954 111.215 17.8639 110.978C18.1651 110.558 18.7596 110.491 19.1761 110.753C19.5991 111.054 19.6983 111.638 19.4057 112.061C19.2399 112.289 19.0853 112.512 18.928 112.744C18.1942 113.824 17.5096 114.957 16.8961 116.103C16.6496 116.559 16.0797 116.727 15.6209 116.48C15.5952 116.472 15.5636 116.452 15.5406 116.436ZM21.1614 108.502C21.1212 108.481 21.0837 108.45 21.0548 108.422C20.6651 108.075 20.645 107.479 20.9896 107.101C22.1092 105.87 23.3125 104.703 24.5714 103.629C24.9678 103.295 25.556 103.339 25.8955 103.726C26.2323 104.122 26.1897 104.707 25.8018 105.044C24.6044 106.073 23.4542 107.191 22.3816 108.361C22.0675 108.702 21.5495 108.765 21.1614 108.502ZM28.5639 102.176C28.4633 102.107 28.3765 102.024 28.3064 101.918C28.0172 101.49 28.1363 100.9 28.5735 100.616C29.9603 99.7035 31.4195 98.8602 32.9092 98.1295C33.3758 97.9015 33.9384 98.0873 34.1687 98.5526C34.399 99.018 34.2141 99.5777 33.7474 99.8057C32.3225 100.51 30.9334 101.31 29.6166 102.179C29.286 102.393 28.8685 102.375 28.5639 102.176ZM37.2961 97.8489C37.1323 97.7413 37.0043 97.5795 36.9352 97.38C36.7584 96.894 37.0204 96.3585 37.5079 96.1838C39.0807 95.6382 40.7005 95.1823 42.3253 94.8308C42.831 94.718 43.331 95.0433 43.4457 95.5473C43.5604 96.0512 43.2352 96.5482 42.7295 96.661C41.184 96.9999 39.6374 97.432 38.138 97.9538C37.8507 98.0602 37.5376 98.0088 37.2961 97.8489ZM46.8438 95.7801C46.6195 95.6255 46.4615 95.3794 46.4303 95.0889C46.3836 94.5782 46.7634 94.117 47.2761 94.0719C48.933 93.9178 50.6205 93.8761 52.2812 93.9197C52.8036 93.9338 53.2121 94.3708 53.1909 94.8883C53.1697 95.4057 52.7406 95.814 52.2209 95.7914C50.6367 95.7437 49.0317 95.7925 47.4454 95.9314C47.2303 95.9575 47.0135 95.8989 46.8438 95.7801ZM56.5963 96.0874C56.3002 95.8916 56.1374 95.541 56.1897 95.1643C56.265 94.6545 56.7519 94.3018 57.2614 94.3867C58.9121 94.6424 60.5504 94.9972 62.1567 95.4542C62.6561 95.6015 62.947 96.1139 62.8091 96.6135C62.6712 97.1131 62.1489 97.3985 61.6469 97.2597C60.1176 96.8269 58.5504 96.4851 56.9822 96.2365C56.8372 96.2191 56.7141 96.1618 56.5963 96.0874ZM65.9917 98.7629C65.6266 98.5174 65.4754 98.0394 65.6546 97.6183C65.861 97.1402 66.41 96.9193 66.8907 97.1262C68.4184 97.7739 69.9312 98.5291 71.3744 99.3562C71.8166 99.6259 71.9779 100.191 71.7169 100.634C71.4559 101.076 70.8801 101.232 70.4352 100.971C69.0578 100.174 67.6168 99.4598 66.1549 98.8422C66.095 98.8234 66.0377 98.7961 65.9917 98.7629ZM78.1668 106.821C78.1208 106.788 78.0747 106.755 78.0399 106.716C77.051 105.76 76.0006 104.85 74.9058 103.992C74.7388 103.865 74.5717 103.738 74.4133 103.613C73.9957 103.295 73.9136 102.717 74.2233 102.299C74.533 101.882 75.1356 101.79 75.542 102.114C75.7176 102.244 75.8905 102.382 76.0661 102.512C77.2069 103.404 78.3178 104.361 79.3501 105.358C79.7259 105.719 79.7374 106.313 79.3758 106.686C79.0505 107.033 78.5405 107.07 78.1668 106.821Z" fill="#91B3FA"/>
<path d="M28.8432 168.163C28.4149 167.879 28.3045 167.301 28.5799 166.873C28.8666 166.439 29.4489 166.322 29.8857 166.609C31.1962 167.469 32.5677 168.255 33.96 168.944C34.4241 169.174 34.6138 169.739 34.3844 170.201C34.155 170.662 33.5883 170.849 33.1241 170.62C31.6574 169.897 30.2228 169.073 28.8491 168.174C28.8518 168.166 28.8518 168.166 28.8432 168.163ZM24.9828 165.296C24.9512 165.276 24.9282 165.26 24.8993 165.232C23.6502 164.176 22.4451 163.04 21.3239 161.846C20.9732 161.464 20.9901 160.87 21.3721 160.522C21.7541 160.174 22.3503 160.193 22.701 160.574C23.7643 161.713 24.909 162.802 26.1088 163.805C26.5039 164.135 26.5609 164.733 26.2222 165.123C25.9173 165.495 25.3795 165.56 24.9828 165.296ZM37.4578 172.428C37.1072 172.196 36.9539 171.755 37.0935 171.34C37.2656 170.852 37.797 170.597 38.2883 170.77C39.7625 171.288 41.2831 171.719 42.8134 172.058C43.3235 172.171 43.6453 172.675 43.5358 173.174C43.4236 173.682 42.9191 174.001 42.4175 173.89C40.8246 173.54 39.2269 173.086 37.6757 172.543C37.5927 172.508 37.521 172.467 37.4578 172.428ZM18.4372 158.273C18.3511 158.218 18.2729 158.137 18.1974 158.048C17.2298 156.724 16.3403 155.331 15.5465 153.903C15.2938 153.449 15.4616 152.884 15.9164 152.634C16.3712 152.384 16.9391 152.552 17.1919 153.006C17.9503 154.367 18.8018 155.701 19.7143 156.961C20.0147 157.382 19.9266 157.963 19.5012 158.27C19.1877 158.489 18.7563 158.485 18.4372 158.273ZM46.8412 174.482C46.5623 174.292 46.4 173.969 46.4271 173.613C46.4767 173.095 46.932 172.723 47.4522 172.774C49.0044 172.924 50.5859 172.98 52.1513 172.937C52.6732 172.923 53.1009 173.329 53.1167 173.849C53.1324 174.368 52.7263 174.793 52.2045 174.807C50.5652 174.845 48.9072 174.793 47.2838 174.63C47.1163 174.625 46.9734 174.57 46.8412 174.482ZM56.4441 174.246C56.2343 174.106 56.0795 173.879 56.043 173.606C55.9679 173.096 56.3161 172.615 56.8368 172.544C58.3846 172.319 59.9333 172 61.4349 171.591C61.9374 171.458 62.4567 171.752 62.5939 172.244C62.7284 172.745 62.4348 173.261 61.9408 173.397C60.3659 173.829 58.7465 174.164 57.1196 174.402C56.8649 174.435 56.631 174.371 56.4441 174.246ZM65.7107 171.724C65.564 171.622 65.4392 171.48 65.3621 171.306C65.1655 170.823 65.3933 170.277 65.8775 170.083C67.3218 169.497 68.75 168.812 70.1059 168.058C70.5607 167.808 71.1313 167.968 71.3841 168.422C71.6369 168.876 71.4776 169.443 71.0228 169.694C69.5968 170.491 68.1039 171.202 66.5922 171.823C66.2909 171.944 65.958 171.896 65.7107 171.724Z" fill="#91B3FA"/>
<path d="M13.7606 149.852C13.6139 149.75 13.4892 149.608 13.4147 149.425C13.111 148.684 12.8324 147.923 12.5768 147.178C12.4112 146.686 12.6792 146.162 13.164 145.996C13.6574 145.832 14.1846 146.101 14.3529 146.584C14.5908 147.295 14.863 148.017 15.1463 148.733C15.343 149.216 15.1066 149.759 14.6223 149.954C14.335 150.06 14.0106 150.014 13.7606 149.852Z" fill="#91B3FA"/>
<path d="M21.1965 140.27C21.2175 140.473 21.3626 140.64 21.5537 140.691L27.1845 142.082C28.037 144.643 29.3128 147.083 30.9958 149.305L28.9465 154.699C28.8764 154.892 28.9316 155.106 29.0901 155.231L34.4395 159.679C34.5953 159.812 34.8169 159.826 34.9908 159.721L39.9413 156.744C42.4369 157.995 45.0714 158.802 47.7572 159.177L50.1404 164.445C50.2234 164.63 50.4156 164.737 50.6168 164.725L57.5452 164.109C57.7491 164.089 57.9166 163.945 57.9668 163.755L59.3481 158.151C61.9168 157.31 64.3637 156.046 66.59 154.377L72.0124 156.433C72.2067 156.503 72.4213 156.449 72.5459 156.291L76.9973 150.977C77.1305 150.822 77.1432 150.602 77.0377 150.428L74.0339 145.489C75.2826 143.008 76.086 140.386 76.4542 137.713L81.7373 135.355C81.923 135.273 82.03 135.082 82.0176 134.881L81.3705 127.977C81.3495 127.774 81.2044 127.607 81.0134 127.556L75.3825 126.164C74.53 123.604 73.2542 121.163 71.5712 118.941L73.6206 113.547C73.6906 113.354 73.6354 113.14 73.4769 113.016L68.1275 108.567C67.9717 108.434 67.7501 108.421 67.5762 108.526L62.6257 111.503C60.1301 110.252 57.4956 109.444 54.8098 109.07L52.4267 103.802C52.3436 103.617 52.1514 103.51 51.9502 103.521L45.0218 104.137C44.8179 104.158 44.6504 104.302 44.6002 104.492L43.2189 110.095C40.6503 110.937 38.2033 112.2 35.977 113.87L30.5546 111.814C30.3603 111.743 30.1457 111.798 30.0211 111.955L25.5698 117.27C25.4366 117.424 25.4238 117.645 25.5293 117.818L28.5332 122.757C27.2844 125.239 26.4811 127.86 26.1128 130.534L20.8297 132.892C20.644 132.974 20.5371 133.165 20.5495 133.365L21.1965 140.27Z" fill="#6A4BFF"/>
<path d="M47.2953 139.985C46.0361 139.141 45.0846 137.916 44.5713 136.464C43.938 134.674 44.0427 132.751 44.8668 131.053C46.5636 127.533 50.8195 126.05 54.3594 127.75C57.8966 129.459 59.4001 133.693 57.7032 137.213C56.8851 138.922 55.44 140.2 53.6532 140.828C51.8579 141.454 49.9263 141.344 48.2192 140.519C47.8954 140.352 47.5827 140.179 47.2953 139.985ZM54.2119 129.81C54.0021 129.669 53.7783 129.543 53.5406 129.431C50.9402 128.185 47.8059 129.27 46.5594 131.865C45.9594 133.118 45.8818 134.535 46.3442 135.85C46.8066 137.165 47.7634 138.223 49.0235 138.824C50.2836 139.425 51.7067 139.507 53.0258 139.05C54.3449 138.593 55.4047 137.643 56.0047 136.39C57.1395 134.032 56.3335 131.234 54.2119 129.81Z" fill="#91B3FA"/>
<path d="M41.5366 148.718C41.0393 148.384 40.5586 148.028 40.0971 147.639C39.1714 146.872 38.3148 146.004 37.5646 145.067C37.5298 145.028 37.4976 144.98 37.4628 144.941C37.2069 144.618 37.1982 144.166 37.4217 143.843C37.4742 143.766 37.5437 143.694 37.6218 143.625C38.0327 143.304 38.6188 143.385 38.9444 143.787C39.6367 144.669 40.427 145.478 41.2921 146.199C41.3355 146.24 41.3901 146.276 41.4335 146.318C43.5005 148.005 45.9083 149.116 48.4657 149.6C49.8498 149.865 51.2842 149.941 52.7206 149.83C52.7291 149.833 52.7404 149.827 52.7575 149.832C52.7971 149.826 52.8255 149.825 52.8651 149.819C57.0743 149.445 60.8863 147.459 63.5931 144.227C63.9397 143.812 64.2746 143.374 64.5725 142.934C66.603 139.939 67.527 136.364 67.1867 132.71C66.7992 128.517 64.7934 124.715 61.5405 122.01C58.2876 119.305 54.1741 118.024 49.9649 118.398C45.7557 118.772 41.9437 120.758 39.2369 123.99C38.8929 124.397 38.5693 124.829 38.2714 125.269C36.9748 127.183 36.1145 129.356 35.7584 131.631C35.7328 131.773 35.6841 131.898 35.6098 132.015C35.414 132.309 35.0598 132.479 34.684 132.417C34.1745 132.332 33.8163 131.855 33.9001 131.348C34.2962 128.795 35.2565 126.364 36.7076 124.226C37.0414 123.732 37.3982 123.254 37.7866 122.796C40.8122 119.177 45.0737 116.957 49.7956 116.539C54.5089 116.117 59.1106 117.551 62.75 120.583C66.3922 123.607 68.6336 127.857 69.0594 132.558C69.4334 136.643 68.4042 140.645 66.1309 143.994C65.7971 144.488 65.4291 144.971 65.0354 145.447C59.1975 152.423 48.9854 153.731 41.5366 148.718Z" fill="#91B3FA"/>
</svg>
