<svg width="24" height="24" viewBox="0 0 24 24" fill="none" xmlns="http://www.w3.org/2000/svg">
<path d="M12 5.00003C10.2407 4.99253 8.51244 5.46331 7 6.36203C7 6.36203 5.07 7.66803 4 8.92103C2.93 10.174 2.309 11.354 2.09 11.806C2.06066 11.8661 2.04541 11.9321 2.04541 11.999C2.04541 12.0659 2.06066 12.1319 2.09 12.192C2.633 13.317 5.693 19 12 19C12.5 19.0001 14 18.8 14 18.8C14 18.8 14.8236 18.8 17.5 17.324C20.1764 15.848 21.558 12.921 21.91 12.193C21.97 12.069 21.97 11.931 21.91 11.808C21.367 10.683 18.307 5.00003 12 5.00003Z" stroke="#6B93C0" stroke-width="2" stroke-linecap="round" stroke-linejoin="round"/>
<circle cx="12" cy="12" r="3" stroke="#6B93C0" stroke-width="2"/>
</svg>
