<svg width="87" height="87" viewBox="0 0 87 87" fill="none" xmlns="http://www.w3.org/2000/svg">
    <path d="M19.9739 39.8751H1.84881C0.848312 39.8751 0.0362549 40.6871 0.0362549 41.6876V85.1876C0.0362549 86.188 0.848312 87 1.84881 87H19.9739C20.9779 87 21.7864 86.188 21.7864 85.1875V41.6874C21.7863 40.6869 20.9744 39.8751 19.9739 39.8751ZM18.1613 83.3751H3.66137V43.5H18.1613V83.3751Z" fill="#C3CEEB"/>
    <path d="M52.5264 0H34.4013C33.4008 0 32.5887 0.812057 32.5887 1.81256V85.1876C32.5887 86.1881 33.4008 87.0002 34.4013 87.0002H52.5264C53.5269 87.0002 54.3389 86.1881 54.3389 85.1876V1.81256C54.3389 0.812057 53.5269 0 52.5264 0ZM50.7138 83.3751H36.2139V3.62494H50.7138V83.3751Z" fill="#C3CEEB"/>
    <path d="M85.1512 18.1251H67.0262C66.0257 18.1251 65.2136 18.9371 65.2136 19.9376V85.1876C65.2136 86.1881 66.0257 87.0002 67.0262 87.0002H85.1512C86.1517 87.0002 86.9638 86.1881 86.9638 85.1876V19.9376C86.9638 18.9369 86.1517 18.1251 85.1512 18.1251ZM83.3387 83.3751H68.8387V21.75H83.3387V83.3751Z" fill="#C3CEEB"/>
</svg>
