<svg width="24" height="24" viewBox="0 0 24 24" fill="none" xmlns="http://www.w3.org/2000/svg">
<path d="M7 6.362C8.51244 5.46328 10.2407 4.99251 12 5C18.307 5 21.367 10.683 21.91 11.808C21.97 11.931 21.97 12.069 21.91 12.193C21.558 12.921 20.154 15.555 17.5 17.324M14 18.8C13.3418 18.9341 12.6717 19.0012 12 19C5.693 19 2.633 13.317 2.09 12.192C2.06066 12.1319 2.04541 12.0659 2.04541 11.999C2.04541 11.9321 2.06066 11.8661 2.09 11.806C2.309 11.354 2.93 10.174 4 8.921M10 9.764C10.5715 9.2531 11.317 8.98037 12.0833 9.00182C12.8496 9.02326 13.5786 9.33725 14.1207 9.87932C14.6627 10.4214 14.9767 11.1504 14.9982 11.9167C15.0196 12.683 14.7469 13.4285 14.236 14M3 3L21 21" stroke="#6B93C0" stroke-width="2" stroke-linecap="round" stroke-linejoin="round"/>
</svg>
