<svg width="18" height="22" viewBox="0 0 18 22" fill="none" xmlns="http://www.w3.org/2000/svg">
<path d="M13.2337 0C13.2849 0 13.3361 0 13.3902 0C13.5158 1.55149 12.9236 2.71075 12.2039 3.55026C11.4977 4.38396 10.5307 5.19255 8.96667 5.06986C8.86233 3.5406 9.45549 2.46731 10.1742 1.62974C10.8408 0.849163 12.0629 0.154569 13.2337 0Z" fill="none"/>
<path d="M17.9684 16.1482C17.9684 16.1636 17.9684 16.1772 17.9684 16.1917C17.5288 17.5229 16.9019 18.6638 16.1367 19.7226C15.4383 20.6838 14.5824 21.9774 13.0541 21.9774C11.7335 21.9774 10.8563 21.1282 9.50284 21.105C8.07115 21.0818 7.28381 21.8151 5.9748 21.9996C5.82507 21.9996 5.67533 21.9996 5.52849 21.9996C4.56726 21.8605 3.79152 21.0992 3.22637 20.4133C1.55993 18.3865 0.272175 15.7685 0.0325928 12.4182C0.0325928 12.0898 0.0325928 11.7623 0.0325928 11.4338C0.134029 9.03608 1.29909 7.08658 2.84768 6.14178C3.66496 5.63943 4.78849 5.21147 6.03953 5.40274C6.57569 5.48583 7.12345 5.66938 7.60357 5.85099C8.05859 6.02585 8.62759 6.33595 9.16665 6.31953C9.53182 6.30891 9.89506 6.11859 10.2631 5.98431C11.3412 5.59499 12.3981 5.14867 13.7912 5.35831C15.4653 5.61141 16.6536 6.35528 17.3878 7.50295C15.9716 8.40428 14.8519 9.76256 15.0432 12.0821C15.2132 14.189 16.4382 15.4217 17.9684 16.1482Z" fill="none"/>
</svg>
