<svg width="" height="195" viewBox="0 0 500 195" fill="none" xmlns="http://www.w3.org/2000/svg">
<path fill-rule="evenodd" clip-rule="evenodd" d="M500 193.378C500 192.612 498.934 192 497.642 192H2.35824C1.04811 192 0 192.622 0 193.378V193.622C0 194.388 1.06558 195 2.35824 195H497.642C498.952 195 500 194.378 500 193.622V193.378Z" fill="#CDDAF2"/>
<path fill-rule="evenodd" clip-rule="evenodd" d="M140.152 192.067H357.892C357.892 192.067 382.499 166.958 348.863 130.685C328.286 108.489 347.561 88.5291 353.686 69.9044C358.209 56.1528 354.17 39.1802 343.848 27.7901C335.42 18.4861 322.812 12.9037 307.258 15.8493C293.122 18.5195 281.323 32.1042 268.256 27.7901C253.127 22.8002 246.185 7.94709 233.026 2.72349C205.773 -8.09922 159.828 14.3973 168.69 51.3547C172.295 66.3914 190.127 100.12 155.289 124.118C118.941 149.168 140.152 192.067 140.152 192.067Z" fill="#F0F2FC"/>
<path d="M217.021 134.832H182.484V117.793C182.484 111.584 183.276 106.92 184.87 103.816C186.464 100.712 189.835 96.5059 194.984 91.2072L210.437 75.3027C212.707 72.5741 213.842 69.0528 213.842 64.7387C213.842 60.4247 212.632 56.8199 210.204 53.9494C207.784 51.0706 204.596 49.6353 200.658 49.6353C196.719 49.6353 193.423 51.3376 190.77 54.7505C188.116 58.1633 186.489 62.6693 185.888 68.2684H149.757C151.426 53.1233 156.95 41.2325 166.346 32.596C175.741 23.9596 187.515 19.6455 201.676 19.6455C215.836 19.6455 227.352 23.509 236.213 31.2359C245.083 38.9461 249.514 49.627 249.514 63.2534C249.514 69.3115 248.755 73.8175 247.245 76.7714C245.726 79.7253 244.666 81.8448 244.065 83.1298C243.456 84.4149 242.054 86.3508 239.86 88.9208C237.665 91.4993 236.188 93.1598 235.429 93.9191C231.791 97.5573 228.345 100.962 225.09 104.141C221.836 107.32 219.675 109.932 218.615 111.976C217.555 114.021 217.021 117.092 217.021 121.18V134.832ZM186.005 178.123C182.142 174.259 180.214 169.528 180.214 163.92C180.214 158.313 182.142 153.582 186.005 149.718C189.868 145.855 194.6 143.927 200.207 143.927C205.815 143.927 210.546 145.855 214.409 149.718C218.273 153.582 220.2 158.313 220.2 163.92C220.2 169.528 218.273 174.259 214.409 178.123C210.546 181.986 205.815 183.914 200.207 183.914C194.6 183.914 189.868 181.978 186.005 178.123Z" fill="#7D61ED"/>
<path d="M208.426 134.832H173.889V117.793C173.889 111.584 174.682 106.92 176.275 103.816C177.869 100.712 181.24 96.5059 186.389 91.2072L201.843 75.3027C204.112 72.5741 205.247 69.0528 205.247 64.7387C205.247 60.4247 204.037 56.8199 201.609 53.9494C199.189 51.0706 196.002 49.6353 192.063 49.6353C188.124 49.6353 184.828 51.3376 182.175 54.7505C179.521 58.1633 177.894 62.6693 177.293 68.2684H141.162C142.831 53.1233 148.355 41.2325 157.751 32.596C167.147 23.9596 178.921 19.6455 193.081 19.6455C207.242 19.6455 218.757 23.509 227.619 31.2359C236.489 38.9461 240.92 49.627 240.92 63.2534C240.92 69.3115 240.16 73.8175 238.65 76.7714C237.131 79.7253 236.071 81.8448 235.471 83.1298C234.862 84.4149 233.46 86.3508 231.265 88.9208C229.071 91.4993 227.594 93.1598 226.834 93.9191C223.196 97.5573 219.75 100.962 216.495 104.141C213.241 107.32 211.08 109.932 210.02 111.976C208.96 114.021 208.426 117.092 208.426 121.18V134.832ZM177.41 178.123C173.547 174.259 171.619 169.528 171.619 163.92C171.619 158.313 173.547 153.582 177.41 149.718C181.274 145.855 186.005 143.927 191.612 143.927C197.22 143.927 201.951 145.855 205.815 149.718C209.678 153.582 211.606 158.313 211.606 163.92C211.606 169.528 209.678 174.259 205.815 178.123C201.951 181.986 197.22 183.914 191.612 183.914C186.005 183.914 181.274 181.978 177.41 178.123Z" fill="#B5A3F7"/>
<path fill-rule="evenodd" clip-rule="evenodd" d="M264.426 79.5584L265.211 100.578C270.351 105.251 279.079 103.891 290.361 98.2165L287.215 68.4854L264.426 79.5584Z" fill="#FFC4CD"/>
<path fill-rule="evenodd" clip-rule="evenodd" d="M288.291 78.5659L287.223 68.4775L264.435 79.5506L264.869 91.0408C270.109 90.1146 283.193 87.0188 288.291 78.5659Z" fill="#D8738A"/>
<path fill-rule="evenodd" clip-rule="evenodd" d="M319.174 174.342V192.14H246.202V175.76L319.174 174.342Z" fill="#5030A0"/>
<path fill-rule="evenodd" clip-rule="evenodd" d="M319.174 181.218C311.38 186.658 285.462 187.334 285.462 187.334L284.828 180.65L265.602 180.525L265.177 184.589C260.512 184.589 249.172 181.543 246.193 180.725V175.76L319.165 174.342V181.218H319.174Z" fill="#6D8000"/>
<path fill-rule="evenodd" clip-rule="evenodd" d="M296.727 56.1784C291.47 55.3189 286.338 52.3817 286.338 50.4291C286.338 48.0926 288.649 48.5933 290.669 49.1107C287.907 47.8089 286.338 47.7922 286.338 44.7966C286.338 40.9415 289 34.9502 292.488 34.9502C298.571 34.9502 303.97 40.7162 305.038 41.9345C309.552 45.1137 341.353 63.4631 343.347 79.2173C344.173 85.7593 333.267 96.9158 333.267 96.9158L312.081 80.7193L315.518 76.8225C315.527 76.8141 296.735 56.2034 296.727 56.1784Z" fill="#FFC4CD"/>
<path fill-rule="evenodd" clip-rule="evenodd" d="M337.232 95.0961L315.561 76.8135L311.673 81.3862L337.232 95.0961Z" fill="#EB9FB1"/>
<path fill-rule="evenodd" clip-rule="evenodd" d="M241.838 176.655C242.639 181.436 242.698 186.251 241.045 187.01C239.101 187.895 238.55 186.401 238.217 184.532C237.691 187.035 238.167 188.203 235.663 189.347C232.451 190.815 225.375 190.006 224.056 187.102C221.469 181.428 224.957 175.37 224.957 175.37L226.184 138.546L247.32 140.173L241.838 176.655Z" fill="#FFC4CD"/>
<path fill-rule="evenodd" clip-rule="evenodd" d="M247.32 140.147L233.368 139.079L226.109 140.631L225.95 145.329C229.305 145.446 240.169 145.78 244.166 145.296C244.166 145.296 244.525 150.728 245.176 154.399L247.32 140.147Z" fill="#EB9FB1"/>
<path fill-rule="evenodd" clip-rule="evenodd" d="M291.102 72.875L287.94 79.3252L287.022 72.875H291.102Z" fill="#7B4217"/>
<path fill-rule="evenodd" clip-rule="evenodd" d="M249.423 53.2236C249.064 54.4503 248.388 59.2817 250.349 61.3845C251.959 63.1034 250.849 67.4592 253.528 67.9181L254.196 54.275C254.187 54.275 250.591 53.8077 249.423 53.2236Z" fill="#64370D"/>
<path fill-rule="evenodd" clip-rule="evenodd" d="M254.629 53.2236C251.85 61.7016 251.642 77.1304 257.149 81.6364C263.749 87.0352 278.402 84.7071 282.683 80.2095C286.046 76.6798 287.189 72.8413 287.189 72.8413C290.418 74.6354 293.956 71.8984 293.322 68.0266C292.604 63.6708 287.105 61.3344 285.103 68.7609V53.2236H254.629Z" fill="#FFC4CD"/>
<path fill-rule="evenodd" clip-rule="evenodd" d="M253.345 58.6892C254.947 59.1064 257.567 59.6071 259.787 59.1398C263.258 58.4139 266.771 58.0551 268.699 59.1398C270.626 60.2246 276.075 61.3427 278.637 61.0757C278.637 61.0757 279.722 71.2225 281.232 73.584C282.4 75.4114 283.143 77.7145 282.634 80.2595C282.642 80.2512 282.659 80.2345 282.667 80.2262C286.03 76.6965 287.173 72.858 287.173 72.858C290.402 74.6521 293.94 71.9151 293.306 68.0433C292.589 63.6875 287.09 61.3511 285.087 68.7776V53.2236H254.622C254.096 54.8341 253.662 56.6949 253.345 58.6892Z" fill="#EB9FB1"/>
<path fill-rule="evenodd" clip-rule="evenodd" d="M257.049 64.8234C257.049 64.8234 257.458 63.4549 258.76 62.6538C259.653 62.1114 260.955 61.8528 262.815 62.4285C263.074 62.512 263.349 62.3618 263.433 62.1031C263.516 61.8444 263.366 61.569 263.107 61.4856C260.871 60.8014 259.319 61.1602 258.251 61.811C256.615 62.8124 256.115 64.5397 256.115 64.5397C256.04 64.7983 256.19 65.0737 256.449 65.1488C256.699 65.2322 256.974 65.082 257.049 64.8234Z" fill="#DB820D"/>
<path fill-rule="evenodd" clip-rule="evenodd" d="M275.933 65.0062C275.933 65.0062 275.399 63.1788 273.688 62.1525C272.57 61.4766 270.943 61.1261 268.623 61.9188C268.364 62.0023 268.231 62.286 268.314 62.5446C268.398 62.8033 268.681 62.9368 268.94 62.8534C270.884 62.1942 272.253 62.4362 273.187 62.9952C274.564 63.8213 274.998 65.2899 274.998 65.2899C275.073 65.5486 275.349 65.6988 275.607 65.6237C275.858 65.5403 276.008 65.2649 275.933 65.0062Z" fill="#DB820D"/>
<path d="M260.404 67.9188C260.81 67.9188 261.138 67.2986 261.138 66.5336C261.138 65.7686 260.81 65.1484 260.404 65.1484C259.998 65.1484 259.67 65.7686 259.67 66.5336C259.67 67.2986 259.998 67.9188 260.404 67.9188Z" fill="#041A69"/>
<path d="M271.819 68.2362C272.224 68.2362 272.553 67.616 272.553 66.851C272.553 66.086 272.224 65.4658 271.819 65.4658C271.413 65.4658 271.084 66.086 271.084 66.851C271.084 67.616 271.413 68.2362 271.819 68.2362Z" fill="#041A69"/>
<path fill-rule="evenodd" clip-rule="evenodd" d="M265.251 68.1184C265.251 68.1184 263.382 73.5506 263.382 74.6688C263.382 75.0025 263.608 75.2946 263.975 75.4949C264.567 75.8286 265.56 75.9371 265.56 75.9371C265.76 75.9621 265.944 75.8119 265.969 75.6117C265.994 75.4114 265.844 75.2278 265.644 75.2028C265.644 75.2028 265.035 75.136 264.542 74.9441C264.434 74.9024 264.325 74.8523 264.242 74.7856C264.183 74.7439 264.125 74.7188 264.125 74.6604C264.125 73.584 265.952 68.352 265.952 68.352C266.019 68.1601 265.919 67.9515 265.727 67.8847C265.527 67.8263 265.318 67.9265 265.251 68.1184Z" fill="#E2738D"/>
<path fill-rule="evenodd" clip-rule="evenodd" d="M267.246 80.3933C267.246 80.3933 267.513 79.7174 268.306 79.4003C268.89 79.1667 269.733 79.125 270.934 79.5839C271.143 79.6673 271.385 79.5589 271.46 79.3502C271.544 79.1416 271.435 78.8997 271.227 78.8246C269.758 78.2655 268.715 78.3573 267.997 78.6493C266.846 79.1166 266.479 80.1096 266.479 80.1096C266.395 80.3182 266.504 80.5602 266.721 80.6353C266.929 80.7104 267.171 80.6103 267.246 80.3933Z" fill="#FA5878"/>
<path fill-rule="evenodd" clip-rule="evenodd" d="M288.266 70.0887C288.324 69.5797 288.6 68.7953 289.226 68.4949C289.643 68.2947 290.193 68.3364 290.928 68.7786C291.086 68.8704 291.287 68.8204 291.378 68.6702C291.47 68.52 291.42 68.3114 291.27 68.2196C290.269 67.6188 289.509 67.6355 288.95 67.9025C288.116 68.303 287.707 69.3377 287.623 70.0136C287.598 70.1972 287.732 70.3557 287.907 70.3724C288.091 70.3975 288.249 70.2639 288.266 70.0887Z" fill="#CA5873"/>
<path fill-rule="evenodd" clip-rule="evenodd" d="M285.095 68.7699C285.095 68.7699 284.144 73.4929 282.583 72.8003C281.023 72.1077 280.339 64.8898 280.072 59.7496C280.072 59.7496 275.132 60.6425 267.689 57.6468C263.174 55.8277 259.419 59.5577 253.562 57.6468C247.704 55.7359 245.743 48.226 245.476 45.3305C245.476 45.3305 245.559 45.3722 247.804 46.4653C247.804 46.4653 246.786 43.0524 247.804 31.9043C247.804 31.9043 258.084 38.3712 266.103 39.6646C273.847 40.9079 279.471 34.683 287.123 43.0441C287.123 43.0441 290.686 41.8091 294.441 47.7003C297.336 52.248 294.366 65.1568 293.306 68.1024C291.796 62.8537 287.023 62.328 285.095 68.7699Z" fill="#814711"/>
<path fill-rule="evenodd" clip-rule="evenodd" d="M246.861 50.6621C248.588 52.2642 252.343 55.4435 255.13 55.5686C258.86 55.7355 263.808 53.7746 267.188 54.6674C270.567 55.5603 275.716 58.2806 281.557 57.4211C284.427 57.0039 284.135 60.9424 286.346 61.8186C289.409 63.0369 292.446 63.1704 294.707 62.4695C294.215 65.0062 293.648 67.109 293.297 68.0936C291.787 62.8366 287.014 62.3109 285.078 68.7528C285.078 68.7528 284.127 73.4757 282.566 72.7832C281.006 72.0906 280.322 64.8726 280.055 59.7325C280.055 59.7325 275.115 60.6253 267.672 57.6297C263.157 55.8106 259.402 59.5406 253.544 57.6297C250.157 56.5449 248.071 53.5493 246.861 50.6621Z" fill="#713B0F"/>
<path fill-rule="evenodd" clip-rule="evenodd" d="M264.91 92.3593C264.91 92.3593 266.988 100.529 272.987 100.579C280.739 100.645 289.501 90.8907 289.501 90.8907C289.501 90.8907 299.431 87.0272 306.807 82.4128C310.471 80.1181 341.528 92.3593 333.71 103.399C326.041 114.23 318.89 118.586 318.89 129.484C318.89 137.503 323.513 168.586 320.117 174.343C316.72 180.101 253.879 180.385 246.869 176.129C246.869 176.129 252.836 156.011 248.104 142.618C241.871 124.994 225.107 112.277 231.658 105.201C240.745 95.38 264.91 92.3593 264.91 92.3593Z" fill="#EEF5FD"/>
<path d="M274.75 120.147C277.612 120.288 279.95 122.191 280.726 124.7C280.808 125.01 281.064 125.258 281.403 125.274C281.743 125.291 282.089 125.167 282.109 124.768L282.309 120.708C282.336 120.168 281.896 119.723 281.362 119.697L268.214 119.049C267.681 119.023 267.198 119.446 267.172 119.962L266.565 132.284C266.539 132.824 266.979 133.269 267.513 133.295L280.636 133.942C281.194 133.969 281.652 133.545 281.678 133.028L281.878 128.968C281.896 128.593 281.643 128.298 281.255 128.279C280.867 128.26 280.611 128.529 280.471 128.899C279.499 131.345 276.986 133.009 274.123 132.868C270.485 132.689 267.689 129.704 267.863 126.184C268.036 122.663 271.111 119.968 274.75 120.147Z" fill="#5030A0"/>
<path fill-rule="evenodd" clip-rule="evenodd" d="M289.125 91.292L302.601 97.1331L289.751 178.875C287.214 178.95 284.636 179 282.066 179.017C280.314 159.249 284.845 114.606 285.495 108.048C286.021 102.741 287.289 95.6811 287.89 92.527C288.424 92.0096 288.85 91.584 289.125 91.292ZM264.417 92.4268L264.968 92.577C265.118 93.0944 265.561 94.4545 266.387 95.9231C265.853 102.307 264.634 117.569 264.534 124.603C264.417 132.947 265.177 168.853 267.33 178.8C262.765 178.625 258.593 178.341 255.188 177.949C254.746 169.654 256.04 99.4278 257.875 93.595C261.013 92.9358 263.424 92.5687 264.417 92.4268Z" fill="#D7E7F9"/>
<path fill-rule="evenodd" clip-rule="evenodd" d="M263.283 94.1447C263.283 94.1447 266.012 101.237 272.887 101.797C276.325 102.08 279.88 100.553 282.892 98.5672C287.206 95.7134 290.386 91.9584 290.386 91.9584C290.82 91.4411 290.761 90.6651 290.244 90.2311C289.726 89.7972 288.95 89.8557 288.517 90.373L281.541 96.5228C278.987 98.2084 276.008 99.5936 273.096 99.3516C267.689 98.9093 265.586 93.2685 265.586 93.2685C265.344 92.6343 264.635 92.3173 264.001 92.5592C263.358 92.8012 263.041 93.5105 263.283 94.1447Z" fill="#5030A0"/>
<path fill-rule="evenodd" clip-rule="evenodd" d="M264.868 92.7096C261.606 121.364 261.047 154.583 264.426 183.238C255.706 182.796 244.675 177.948 244.675 177.948L245.476 142.968C238.016 144.153 230.556 144.587 223.096 143.736C223.989 127.664 228.044 109.223 233.435 103.399C242.53 93.5774 264.902 92.3591 264.902 92.3591L264.868 92.7096ZM289.443 89.5721C290.068 89.3468 305.472 85.1162 313.717 76.8135L338.758 95.1962C330.414 109.582 318.873 118.586 318.873 129.475C318.873 137.494 322.562 172.19 319.165 177.939C317.613 180.568 301.609 184.598 286.247 185.032C283.526 156.144 286.781 119.303 289.443 89.5721Z" fill="#B8D700"/>
<path fill-rule="evenodd" clip-rule="evenodd" d="M337.932 94.5869L338.758 95.1961C330.414 109.582 318.873 118.585 318.873 129.475C318.873 137.494 322.562 172.19 319.165 177.939C318.706 178.715 316.979 179.616 314.384 180.509C318.615 164.471 314.668 130.326 316.345 122.733C317.939 115.54 334.068 99.5018 337.932 94.5869ZM247.445 179.066C245.734 178.415 244.675 177.948 244.675 177.948L245.476 142.968C244.716 143.093 243.957 143.201 243.189 143.31L248.321 122.741L247.445 179.066Z" fill="#8EA600"/>
<path fill-rule="evenodd" clip-rule="evenodd" d="M255.681 114.472L262.599 121.632L265.052 92.71L255.681 114.472ZM295.676 114.472L287.006 119.587L289.443 89.7061L295.676 114.472Z" fill="#8EA600"/>
</svg>
