<svg width="43" height="40" viewBox="0 0 43 40" fill="none" xmlns="http://www.w3.org/2000/svg">
<g clip-path="url(#clip0_30814_473365)">
<path d="M40.1212 1.33301L24.1212 13.0906L27.0303 6.18149L40.1212 1.33301Z" fill="#E17726" stroke="#E17726" stroke-width="0.25" stroke-linecap="round" stroke-linejoin="round"/>
<path d="M3.39392 1.33301L19.1515 13.2118L16.3636 6.18149L3.39392 1.33301Z" fill="#E27625" stroke="#E27625" stroke-width="0.25" stroke-linecap="round" stroke-linejoin="round"/>
<path d="M34.4242 28.7275L30.1818 35.1518L39.2727 37.6972L41.8182 28.8487L34.4242 28.7275Z" fill="#E27625" stroke="#E27625" stroke-width="0.25" stroke-linecap="round" stroke-linejoin="round"/>
<path d="M1.69696 28.8487L4.24241 37.6972L13.3333 35.1518L9.0909 28.7275L1.69696 28.8487Z" fill="#E27625" stroke="#E27625" stroke-width="0.25" stroke-linecap="round" stroke-linejoin="round"/>
<path d="M12.8485 17.6969L10.303 21.4544L19.2727 21.8181L19.0303 12.1211L12.8485 17.6969Z" fill="#E27625" stroke="#E27625" stroke-width="0.25" stroke-linecap="round" stroke-linejoin="round"/>
<path d="M30.6667 17.6969L24.3636 12.1211L24.1212 21.9393L33.0909 21.5756L30.6667 17.6969Z" fill="#E27625" stroke="#E27625" stroke-width="0.25" stroke-linecap="round" stroke-linejoin="round"/>
<path d="M13.3333 35.1517L18.7879 32.485L14.0606 28.8486L13.3333 35.1517Z" fill="#E27625" stroke="#E27625" stroke-width="0.25" stroke-linecap="round" stroke-linejoin="round"/>
<path d="M24.7273 32.485L30.1818 35.1517L29.4546 28.8486L24.7273 32.485Z" fill="#E27625" stroke="#E27625" stroke-width="0.25" stroke-linecap="round" stroke-linejoin="round"/>
<path d="M30.1818 35.151L24.7273 32.4844L25.2121 35.9995V37.4541L30.1818 35.151Z" fill="#D5BFB2" stroke="#D5BFB2" stroke-width="0.25" stroke-linecap="round" stroke-linejoin="round"/>
<path d="M13.3333 35.1519L18.4242 37.5761V36.1216L18.9091 32.6064L13.3333 35.1519Z" fill="#D5BFB2" stroke="#D5BFB2" stroke-width="0.25" stroke-linecap="round" stroke-linejoin="round"/>
<path d="M18.4242 26.5457L13.9394 25.2124L17.0909 23.7578L18.4242 26.5457Z" fill="#233447" stroke="#233447" stroke-width="0.25" stroke-linecap="round" stroke-linejoin="round"/>
<path d="M24.9697 26.5457L26.3031 23.7578L29.4546 25.2124L24.9697 26.5457Z" fill="#233447" stroke="#233447" stroke-width="0.25" stroke-linecap="round" stroke-linejoin="round"/>
<path d="M13.3333 35.1518L14.0606 28.7275L9.09088 28.8487L13.3333 35.1518Z" fill="#CC6228" stroke="#CC6228" stroke-width="0.25" stroke-linecap="round" stroke-linejoin="round"/>
<path d="M29.3333 28.7275L30.0606 35.1518L34.303 28.8487L29.3333 28.7275Z" fill="#CC6228" stroke="#CC6228" stroke-width="0.25" stroke-linecap="round" stroke-linejoin="round"/>
<path d="M33.2121 21.5762L24.2424 21.9398L25.0909 26.5459L26.4242 23.758L29.5758 25.2125L33.2121 21.5762Z" fill="#CC6228" stroke="#CC6228" stroke-width="0.25" stroke-linecap="round" stroke-linejoin="round"/>
<path d="M13.9394 25.2125L17.0909 23.758L18.4243 26.5459L19.2727 21.9398L10.303 21.5762L13.9394 25.2125Z" fill="#CC6228" stroke="#CC6228" stroke-width="0.25" stroke-linecap="round" stroke-linejoin="round"/>
<path d="M10.303 21.5762L14.0606 28.9701L13.9394 25.3337L10.303 21.5762Z" fill="#E27525" stroke="#E27525" stroke-width="0.25" stroke-linecap="round" stroke-linejoin="round"/>
<path d="M29.5757 25.2117L29.4545 28.848L33.2121 21.4541L29.5757 25.2117Z" fill="#E27525" stroke="#E27525" stroke-width="0.25" stroke-linecap="round" stroke-linejoin="round"/>
<path d="M19.2727 21.9395L18.4243 26.5455L19.5152 32.0001L19.7576 24.8485L19.2727 21.9395Z" fill="#E27525" stroke="#E27525" stroke-width="0.25" stroke-linecap="round" stroke-linejoin="round"/>
<path d="M24.1212 21.9395L23.6364 24.8485L23.8788 32.0001L24.9697 26.5455L24.1212 21.9395Z" fill="#E27525" stroke="#E27525" stroke-width="0.25" stroke-linecap="round" stroke-linejoin="round"/>
<path d="M24.9697 26.5452L23.8788 31.9998L24.6061 32.4846L29.3333 28.8483L29.4545 25.2119L24.9697 26.5452Z" fill="#F5841F" stroke="#F5841F" stroke-width="0.25" stroke-linecap="round" stroke-linejoin="round"/>
<path d="M13.9394 25.2119L14.0606 28.8483L18.7879 32.4846L19.5152 31.9998L18.4242 26.5452L13.9394 25.2119Z" fill="#F5841F" stroke="#F5841F" stroke-width="0.25" stroke-linecap="round" stroke-linejoin="round"/>
<path d="M25.0909 37.5756V36.1211L24.7273 35.7574H18.6666L18.303 36.1211V37.5756L13.3333 35.1514L15.1515 36.6059L18.6666 39.0302H24.8485L28.4848 36.6059L30.1818 35.1514L25.0909 37.5756Z" fill="#C0AC9D" stroke="#C0AC9D" stroke-width="0.25" stroke-linecap="round" stroke-linejoin="round"/>
<path d="M24.7273 32.4848L24 32H19.5152L18.7879 32.4848L18.303 36L18.6667 35.6364H24.7273L25.0909 36L24.7273 32.4848Z" fill="#161616" stroke="#161616" stroke-width="0.25" stroke-linecap="round" stroke-linejoin="round"/>
<path d="M40.7273 13.9391L42.0606 7.39361L40 1.33301L24.7273 12.7269L30.6667 17.6966L39.0303 20.1209L40.8485 17.9391L40 17.4542L41.3334 16.2421L40.3637 15.5148L41.697 14.5451L40.7273 13.9391Z" fill="#763E1A" stroke="#763E1A" stroke-width="0.25" stroke-linecap="round" stroke-linejoin="round"/>
<path d="M1.33331 7.39361L2.66665 13.9391L1.81816 14.5451L3.15149 15.5148L2.1818 16.2421L3.51513 17.4542L2.66665 18.0603L4.48483 20.2421L12.8485 17.8179L18.7879 12.8482L3.39392 1.33301L1.33331 7.39361Z" fill="#763E1A" stroke="#763E1A" stroke-width="0.25" stroke-linecap="round" stroke-linejoin="round"/>
<path d="M39.0303 20.1215L30.6667 17.6973L33.2121 21.4548L29.4545 28.8488L34.4242 28.7276H41.8182L39.0303 20.1215Z" fill="#F5841F" stroke="#F5841F" stroke-width="0.25" stroke-linecap="round" stroke-linejoin="round"/>
<path d="M12.8485 17.6973L4.48484 20.1215L1.69696 28.7276H9.0909L14.0606 28.8488L10.303 21.4548L12.8485 17.6973Z" fill="#F5841F" stroke="#F5841F" stroke-width="0.25" stroke-linecap="round" stroke-linejoin="round"/>
<path d="M24.1212 21.9392L24.6061 12.7271L27.0303 6.18164H16.2424L18.6667 12.7271L19.1515 21.9392L19.3939 24.8483V31.9998H23.8788V24.8483L24.1212 21.9392Z" fill="#F5841F" stroke="#F5841F" stroke-width="0.25" stroke-linecap="round" stroke-linejoin="round"/>
</g>
<defs>
<clipPath id="clip0_30814_473365">
<rect width="42.4242" height="40" fill="white"/>
</clipPath>
</defs>
</svg>
