<svg width="32" height="32" viewBox="0 0 32 32" fill="none" xmlns="http://www.w3.org/2000/svg">
<path d="M30.7467 4.46857L28.5981 6.14857C25.6686 2.40381 21.1124 0 15.9962 0C7.16192 0 0.0114422 7.14286 1.36516e-05 15.981C-0.0114149 24.8267 7.1543 32 15.9962 32C22.9029 32 28.7886 27.619 31.0286 21.4819C31.0857 21.3219 31.0019 21.1429 30.8419 21.0895L28.6819 20.3467C28.6066 20.3209 28.5242 20.3255 28.4523 20.3597C28.3804 20.3939 28.3247 20.4548 28.2972 20.5295C28.2286 20.72 28.1524 20.9105 28.0724 21.0971C27.4133 22.659 26.4686 24.061 25.2648 25.2648C24.0707 26.4611 22.6569 27.4157 21.101 28.0762C19.4895 28.7581 17.7714 29.1048 16.0038 29.1048C14.2324 29.1048 12.5181 28.7581 10.9067 28.0762C9.34925 27.4185 7.93495 26.4636 6.74287 25.2648C5.54554 24.0708 4.59195 22.6553 3.93525 21.0971C3.25335 19.4819 2.90668 17.7676 2.90668 15.9962C2.90668 14.2248 3.25335 12.5105 3.93525 10.8952C4.5943 9.33333 5.53906 7.93143 6.74287 6.72762C7.94668 5.52381 9.34859 4.57905 10.9067 3.91619C12.5181 3.23429 14.2362 2.88762 16.0038 2.88762C17.7753 2.88762 19.4895 3.23429 21.101 3.91619C22.6584 4.57389 24.0727 5.52883 25.2648 6.72762C25.6419 7.10476 25.9962 7.50476 26.3238 7.92381L24.0305 9.71429C23.9851 9.74939 23.9506 9.79658 23.9308 9.85045C23.9111 9.90431 23.9069 9.96265 23.9189 10.0188C23.9308 10.0749 23.9583 10.1265 23.9983 10.1676C24.0383 10.2088 24.089 10.2378 24.1448 10.2514L30.8343 11.8895C31.0248 11.9352 31.2114 11.7905 31.2114 11.5962L31.2419 4.70476C31.2381 4.45333 30.9448 4.31238 30.7467 4.46857Z" fill="#8B9BC7"/>
</svg>
