<svg width="39" height="36" viewBox="0 0 39 36" fill="none" xmlns="http://www.w3.org/2000/svg">
<path d="M12.4639 0C12.5058 0 12.5477 0 12.592 0C12.6947 1.2694 12.2102 2.21789 11.6213 2.90476C11.0435 3.58688 10.2523 4.24845 8.97267 4.14807C8.88731 2.89685 9.37262 2.01871 9.96068 1.33342C10.5061 0.69477 11.5059 0.126466 12.4639 0Z" fill="#1A53F0"/>
<path d="M16.3378 13.2128C16.3378 13.2254 16.3378 13.2365 16.3378 13.2483C15.9782 14.3375 15.4652 15.271 14.8392 16.1373C14.2677 16.9237 13.5674 17.9821 12.317 17.9821C11.2365 17.9821 10.5188 17.2873 9.41147 17.2684C8.24008 17.2494 7.5959 17.8493 6.5249 18.0003C6.40238 18.0003 6.27987 18.0003 6.15973 18.0003C5.37327 17.8865 4.73857 17.2636 4.27618 16.7024C2.91272 15.0442 1.85911 12.9021 1.66309 10.161C1.66309 9.89226 1.66309 9.62432 1.66309 9.35558C1.74608 7.39378 2.69931 5.79873 3.96634 5.02571C4.63503 4.6147 5.55427 4.26455 6.57785 4.42105C7.01653 4.48902 7.46469 4.6392 7.85753 4.7878C8.22981 4.93086 8.69536 5.18458 9.13641 5.17115C9.43518 5.16245 9.73238 5.00674 10.0335 4.89688C10.9156 4.57834 11.7803 4.21317 12.9201 4.38469C14.2899 4.59178 15.2621 5.20039 15.8628 6.1394C14.7041 6.87685 13.788 7.98817 13.9445 9.88594C14.0836 11.6098 15.0858 12.6184 16.3378 13.2128Z" fill="#1A53F0"/>
<path d="M27.25 27.1875C27.25 26.7812 27.1875 26.3438 27.125 25.875H19.75V28.5625H24.1562C24.0625 29.0312 23.875 29.5 23.625 29.9375C23.25 30.5 22.7812 30.9688 22.2188 31.2812C21.5 31.7188 20.6875 31.9062 19.75 31.9062C18.875 31.9062 18.0625 31.6875 17.3438 31.25C16.5938 30.8125 16.0312 30.2188 15.5938 29.4688C15.1562 28.7188 14.9375 27.9062 14.9375 27C14.9375 25.9688 15.2188 25.0312 15.7812 24.2188C16.2812 23.4688 16.9688 22.9062 17.8438 22.5312C18.6875 22.1562 19.5625 22.0312 20.4375 22.1562C21.375 22.2812 22.1562 22.6875 22.8438 23.3125L24.9375 21.2812C23.5 19.9375 21.75 19.25 19.75 19.25C18.3438 19.25 17.0625 19.625 15.875 20.3125C14.6875 21 13.7188 21.9375 13.0312 23.125C12.3438 24.3125 12 25.625 12 27C12 28.4062 12.3438 29.6875 13.0312 30.875C13.7188 32.0625 14.6875 33.0312 15.875 33.7188C17.0625 34.4062 18.3438 34.75 19.75 34.75C21.2188 34.75 22.5312 34.4375 23.6562 33.7812C24.7812 33.1562 25.6875 32.25 26.3125 31.0938C26.9375 29.9688 27.25 28.6562 27.25 27.1875Z" fill="#1A53F0"/>
<path d="M28.125 18V8.65625H25.2188V18H28.125ZM26.6875 7.375C27.125 7.375 27.5312 7.21875 27.875 6.875C28.1875 6.5625 28.375 6.15625 28.375 5.6875C28.375 5.25 28.1875 4.84375 27.875 4.5C27.5312 4.1875 27.125 4 26.6875 4C26.2188 4 25.8125 4.1875 25.5 4.5C25.1562 4.84375 25 5.25 25 5.6875C25 6.15625 25.1562 6.5625 25.5 6.875C25.8125 7.21875 26.2188 7.375 26.6875 7.375ZM39 18V12.875C39 11.4375 38.7812 10.375 38.375 9.6875C37.8125 8.84375 36.875 8.40625 35.5312 8.40625C34.8438 8.40625 34.2812 8.59375 33.7812 8.90625C33.3125 9.1875 32.9688 9.53125 32.7812 9.9375H32.75V8.65625H29.9688V18H32.8438V13.375C32.8438 12.6562 32.9375 12.0938 33.1562 11.7188C33.4062 11.2188 33.875 10.9688 34.5625 10.9688C35.2188 10.9688 35.6562 11.25 35.9062 11.8125C36.0312 12.1562 36.0938 12.6875 36.0938 13.4375V18H39Z" fill="#1A53F0"/>
</svg>
