<svg width="40" height="40" viewBox="0 0 40 40" fill="none" xmlns="http://www.w3.org/2000/svg">
<path d="M20 0C8.94508 0 0 8.94586 0 20C0 31.0549 8.94586 40 20 40C31.0549 40 40 31.0541 40 20C40 8.94508 31.0541 0 20 0ZM20 36.875C10.6724 36.875 3.125 29.327 3.125 20C3.125 10.6724 10.673 3.125 20 3.125C29.3276 3.125 36.875 10.673 36.875 20C36.875 29.3276 29.327 36.875 20 36.875Z" fill="#00A3FF"/>
<path d="M20 10.0693C19.137 10.0693 18.4375 10.7689 18.4375 11.6318V21.6938C18.4375 22.5567 19.137 23.2563 20 23.2563C20.863 23.2563 21.5625 22.5567 21.5625 21.6938V11.6318C21.5625 10.7689 20.863 10.0693 20 10.0693Z" fill="#00A3FF"/>
<path d="M20 29.3867C21.165 29.3867 22.1094 28.4423 22.1094 27.2773C22.1094 26.1124 21.165 25.168 20 25.168C18.835 25.168 17.8906 26.1124 17.8906 27.2773C17.8906 28.4423 18.835 29.3867 20 29.3867Z" fill="#00A3FF"/>
</svg>
