<svg width="88" height="62" viewBox="0 0 88 62" fill="none" xmlns="http://www.w3.org/2000/svg">
<path d="M78.2 0H48.8C43.3876 0 39 4.38763 39 9.8V39.2C39 44.6126 43.3876 49 48.8 49H78.2C83.6126 49 88 44.6126 88 39.2V9.8C88 4.38763 83.6126 0 78.2 0Z" fill="url(#paint0_radial_33417_472997)"/>
<path d="M78.2 0H48.8C43.3876 0 39 4.38763 39 9.8V39.2C39 44.6126 43.3876 49 48.8 49H78.2C83.6126 49 88 44.6126 88 39.2V9.8C88 4.38763 83.6126 0 78.2 0Z" fill="url(#paint1_radial_33417_472997)" fill-opacity="0.68"/>
<path style="mix-blend-mode:overlay" d="M78.2 0H48.8C43.3876 0 39 4.38763 39 9.8V39.2C39 44.6126 43.3876 49 48.8 49H78.2C83.6126 49 88 44.6126 88 39.2V9.8C88 4.38763 83.6126 0 78.2 0Z" fill="url(#paint2_radial_33417_472997)" fill-opacity="0.2"/>
<path d="M78.2 0H48.8C43.3876 0 39 4.38763 39 9.8V39.2C39 44.6126 43.3876 49 48.8 49H78.2C83.6126 49 88 44.6126 88 39.2V9.8C88 4.38763 83.6126 0 78.2 0Z" fill="url(#paint3_linear_33417_472997)" fill-opacity="0.03"/>
<path d="M56.248 41.6496V26.4596L70.605 41.6496H78.592V41.2576L62.079 23.9606L77.318 7.54561V7.34961H69.282L56.248 21.8536V7.34961H49.78V41.6496H56.248Z" fill="white"/>
<path d="M78.2 0H48.8C43.3876 0 39 4.38763 39 9.8V39.2C39 44.6126 43.3876 49 48.8 49H78.2C83.6126 49 88 44.6126 88 39.2V9.8C88 4.38763 83.6126 0 78.2 0Z" fill="url(#paint4_radial_33417_472997)"/>
<path d="M78.2 0H48.8C43.3876 0 39 4.38763 39 9.8V39.2C39 44.6126 43.3876 49 48.8 49H78.2C83.6126 49 88 44.6126 88 39.2V9.8C88 4.38763 83.6126 0 78.2 0Z" fill="url(#paint5_radial_33417_472997)" fill-opacity="0.57"/>
<path d="M78.2 0H48.8C43.3876 0 39 4.38763 39 9.8V39.2C39 44.6126 43.3876 49 48.8 49H78.2C83.6126 49 88 44.6126 88 39.2V9.8C88 4.38763 83.6126 0 78.2 0Z" fill="url(#paint6_radial_33417_472997)" fill-opacity="0.68"/>
<path d="M78.2 0H48.8C43.3876 0 39 4.38763 39 9.8V39.2C39 44.6126 43.3876 49 48.8 49H78.2C83.6126 49 88 44.6126 88 39.2V9.8C88 4.38763 83.6126 0 78.2 0Z" fill="url(#paint7_radial_33417_472997)" fill-opacity="0.08"/>
<path d="M78.2 0H48.8C43.3876 0 39 4.38763 39 9.8V39.2C39 44.6126 43.3876 49 48.8 49H78.2C83.6126 49 88 44.6126 88 39.2V9.8C88 4.38763 83.6126 0 78.2 0Z" fill="url(#paint8_linear_33417_472997)" fill-opacity="0.03"/>
<path d="M56.248 41.6496V26.4596L70.605 41.6496H78.592V41.2576L62.079 23.9606L77.318 7.54561V7.34961H69.282L56.248 21.8536V7.34961H49.78V41.6496H56.248Z" fill="white"/>
<path d="M48.2314 14.6338L28.9971 29.0368L32.4942 20.5732L48.2314 14.6338Z" fill="#E17726" stroke="#E17726" stroke-width="0.25" stroke-linecap="round" stroke-linejoin="round"/>
<path d="M4.08008 14.6338L23.0229 29.1853L19.6715 20.5732L4.08008 14.6338Z" fill="#E27625" stroke="#E27625" stroke-width="0.25" stroke-linecap="round" stroke-linejoin="round"/>
<path d="M41.383 48.1904L36.283 56.0601L47.2115 59.1783L50.2715 48.3389L41.383 48.1904Z" fill="#E27625" stroke="#E27625" stroke-width="0.25" stroke-linecap="round" stroke-linejoin="round"/>
<path d="M2.04004 48.3389L5.10004 59.1783L16.0286 56.0601L10.9286 48.1904L2.04004 48.3389Z" fill="#E27625" stroke="#E27625" stroke-width="0.25" stroke-linecap="round" stroke-linejoin="round"/>
<path d="M15.4457 34.6789L12.3857 39.282L23.1686 39.7274L22.8772 27.8486L15.4457 34.6789Z" fill="#E27625" stroke="#E27625" stroke-width="0.25" stroke-linecap="round" stroke-linejoin="round"/>
<path d="M36.8656 34.6789L29.2885 27.8486L28.9971 39.8759L39.7799 39.4305L36.8656 34.6789Z" fill="#E27625" stroke="#E27625" stroke-width="0.25" stroke-linecap="round" stroke-linejoin="round"/>
<path d="M16.0286 56.0611L22.5857 52.7944L16.9029 48.3398L16.0286 56.0611Z" fill="#E27625" stroke="#E27625" stroke-width="0.25" stroke-linecap="round" stroke-linejoin="round"/>
<path d="M29.7258 52.7944L36.283 56.0611L35.4087 48.3398L29.7258 52.7944Z" fill="#E27625" stroke="#E27625" stroke-width="0.25" stroke-linecap="round" stroke-linejoin="round"/>
<path d="M36.283 56.0606L29.7258 52.7939L30.3087 57.1V58.8818L36.283 56.0606Z" fill="#D5BFB2" stroke="#D5BFB2" stroke-width="0.25" stroke-linecap="round" stroke-linejoin="round"/>
<path d="M16.0286 56.0606L22.1486 59.0303V57.2484L22.7314 52.9424L16.0286 56.0606Z" fill="#D5BFB2" stroke="#D5BFB2" stroke-width="0.25" stroke-linecap="round" stroke-linejoin="round"/>
<path d="M22.1485 45.5187L16.7571 43.8853L20.5457 42.1035L22.1485 45.5187Z" fill="#233447" stroke="#233447" stroke-width="0.25" stroke-linecap="round" stroke-linejoin="round"/>
<path d="M30.0171 45.5187L31.6199 42.1035L35.4085 43.8853L30.0171 45.5187Z" fill="#233447" stroke="#233447" stroke-width="0.25" stroke-linecap="round" stroke-linejoin="round"/>
<path d="M16.0285 56.0601L16.9028 48.1904L10.9285 48.3389L16.0285 56.0601Z" fill="#CC6228" stroke="#CC6228" stroke-width="0.25" stroke-linecap="round" stroke-linejoin="round"/>
<path d="M35.2629 48.1904L36.1372 56.0601L41.2372 48.3389L35.2629 48.1904Z" fill="#CC6228" stroke="#CC6228" stroke-width="0.25" stroke-linecap="round" stroke-linejoin="round"/>
<path d="M39.9257 39.4307L29.1428 39.8761L30.1628 45.5185L31.7657 42.1034L35.5543 43.8852L39.9257 39.4307Z" fill="#CC6228" stroke="#CC6228" stroke-width="0.25" stroke-linecap="round" stroke-linejoin="round"/>
<path d="M16.7572 43.8852L20.5457 42.1034L22.1486 45.5185L23.1686 39.8761L12.3857 39.4307L16.7572 43.8852Z" fill="#CC6228" stroke="#CC6228" stroke-width="0.25" stroke-linecap="round" stroke-linejoin="round"/>
<path d="M12.3857 39.4307L16.9029 48.4882L16.7572 44.0337L12.3857 39.4307Z" fill="#E27525" stroke="#E27525" stroke-width="0.25" stroke-linecap="round" stroke-linejoin="round"/>
<path d="M35.5544 43.8853L35.4087 48.3398L39.9258 39.2822L35.5544 43.8853Z" fill="#E27525" stroke="#E27525" stroke-width="0.25" stroke-linecap="round" stroke-linejoin="round"/>
<path d="M23.1687 39.876L22.1487 45.5184L23.4601 52.2002L23.7515 43.4396L23.1687 39.876Z" fill="#E27525" stroke="#E27525" stroke-width="0.25" stroke-linecap="round" stroke-linejoin="round"/>
<path d="M28.9972 39.876L28.4143 43.4396L28.7057 52.2002L30.0172 45.5184L28.9972 39.876Z" fill="#E27525" stroke="#E27525" stroke-width="0.25" stroke-linecap="round" stroke-linejoin="round"/>
<path d="M30.0172 45.5181L28.7058 52.1999L29.5801 52.7939L35.263 48.3393L35.4087 43.8848L30.0172 45.5181Z" fill="#F5841F" stroke="#F5841F" stroke-width="0.25" stroke-linecap="round" stroke-linejoin="round"/>
<path d="M16.7571 43.8848L16.9028 48.3393L22.5857 52.7939L23.4599 52.1999L22.1485 45.5181L16.7571 43.8848Z" fill="#F5841F" stroke="#F5841F" stroke-width="0.25" stroke-linecap="round" stroke-linejoin="round"/>
<path d="M30.1628 59.0302V57.2484L29.7257 56.803H22.44L22.0029 57.2484V59.0302L16.0286 56.0605L18.2143 57.8424L22.44 60.8121H29.8714L34.2428 57.8424L36.2828 56.0605L30.1628 59.0302Z" fill="#C0AC9D" stroke="#C0AC9D" stroke-width="0.25" stroke-linecap="round" stroke-linejoin="round"/>
<path d="M29.7258 52.7941L28.8515 52.2002H23.4601L22.5858 52.7941L22.0029 57.1002L22.4401 56.6547H29.7258L30.1629 57.1002L29.7258 52.7941Z" fill="#161616" stroke="#161616" stroke-width="0.25" stroke-linecap="round" stroke-linejoin="round"/>
<path d="M48.9601 30.0762L50.563 22.058L48.0858 14.6338L29.7258 28.5914L36.8658 34.6792L46.9201 37.6489L49.1058 34.9762L48.0858 34.3823L49.6887 32.8974L48.523 32.0065L50.1258 30.8186L48.9601 30.0762Z" fill="#763E1A" stroke="#763E1A" stroke-width="0.25" stroke-linecap="round" stroke-linejoin="round"/>
<path d="M1.60278 22.058L3.20564 30.0762L2.18564 30.8186L3.7885 32.0065L2.62278 32.8974L4.22564 34.3823L3.20564 35.1247L5.39135 37.7974L15.4456 34.8277L22.5856 28.7399L4.07993 14.6338L1.60278 22.058Z" fill="#763E1A" stroke="#763E1A" stroke-width="0.25" stroke-linecap="round" stroke-linejoin="round"/>
<path d="M46.9201 37.6484L36.8658 34.6787L39.9258 39.2817L35.4087 48.3393L41.383 48.1908H50.2716L46.9201 37.6484Z" fill="#F5841F" stroke="#F5841F" stroke-width="0.25" stroke-linecap="round" stroke-linejoin="round"/>
<path d="M15.4458 34.6787L5.39147 37.6484L2.04004 48.1908H10.9286L16.9029 48.3393L12.3858 39.2817L15.4458 34.6787Z" fill="#F5841F" stroke="#F5841F" stroke-width="0.25" stroke-linecap="round" stroke-linejoin="round"/>
<path d="M28.9971 39.8753L29.5799 28.5904L32.4942 20.5723H19.5256L22.4399 28.5904L23.0228 39.8753L23.3142 43.4389V52.1995H28.7056V43.4389L28.9971 39.8753Z" fill="#F5841F" stroke="#F5841F" stroke-width="0.25" stroke-linecap="round" stroke-linejoin="round"/>
<defs>
<radialGradient id="paint0_radial_33417_472997" cx="0" cy="0" r="1" gradientUnits="userSpaceOnUse" gradientTransform="translate(1.69178 23.3141) rotate(140.172) scale(84.2515 101.669)">
<stop stop-color="#1973C8"/>
<stop offset="1" stop-color="#0D25D1"/>
</radialGradient>
<radialGradient id="paint1_radial_33417_472997" cx="0" cy="0" r="1" gradientUnits="userSpaceOnUse" gradientTransform="translate(-8.02424 -22.7911) rotate(178.314) scale(52.6886 38.8046)">
<stop stop-color="#5CA6EB"/>
<stop offset="1" stop-color="#5CA6EB" stop-opacity="0.0841893"/>
</radialGradient>
<radialGradient id="paint2_radial_33417_472997" cx="0" cy="0" r="1" gradientUnits="userSpaceOnUse" gradientTransform="translate(-4.19925 3.17032) rotate(119.938) scale(28.151 42.2037)">
<stop stop-color="white"/>
<stop offset="0.999604" stop-color="white" stop-opacity="0.329873"/>
</radialGradient>
<linearGradient id="paint3_linear_33417_472997" x1="85.1763" y1="28.8934" x2="39" y2="0" gradientUnits="userSpaceOnUse">
<stop stop-color="white" stop-opacity="0.184878"/>
<stop offset="1" stop-color="white"/>
</linearGradient>
<radialGradient id="paint4_radial_33417_472997" cx="0" cy="0" r="1" gradientUnits="userSpaceOnUse" gradientTransform="translate(83.5248 5.36967) scale(84.2804)">
<stop stop-color="#2F80F2"/>
<stop offset="0.999657" stop-color="#A942B5"/>
</radialGradient>
<radialGradient id="paint5_radial_33417_472997" cx="0" cy="0" r="1" gradientUnits="userSpaceOnUse" gradientTransform="translate(39 1.05258) scale(77.9628)">
<stop stop-color="#45F9DE"/>
<stop offset="1" stop-color="#A942B5" stop-opacity="0"/>
</radialGradient>
<radialGradient id="paint6_radial_33417_472997" cx="0" cy="0" r="1" gradientUnits="userSpaceOnUse" gradientTransform="translate(88 49) scale(47.0613)">
<stop stop-color="#E957C5"/>
<stop offset="1" stop-color="#A942B5" stop-opacity="0"/>
</radialGradient>
<radialGradient id="paint7_radial_33417_472997" cx="0" cy="0" r="1" gradientUnits="userSpaceOnUse" gradientTransform="translate(63.5 24.5) scale(28.2494)">
<stop stop-opacity="0.184878"/>
<stop offset="1" stop-color="#101010"/>
</radialGradient>
<linearGradient id="paint8_linear_33417_472997" x1="85.1763" y1="28.8934" x2="39" y2="0" gradientUnits="userSpaceOnUse">
<stop stop-color="white" stop-opacity="0.184878"/>
<stop offset="1" stop-color="white"/>
</linearGradient>
</defs>
</svg>
