<svg width="18" height="22" viewBox="0 0 18 22" fill="#1A53F0" xmlns="http://www.w3.org/2000/svg">
<path d="M13.2336 0C13.2848 0 13.336 0 13.3901 0C13.5157 1.55149 12.9235 2.71075 12.2038 3.55026C11.4976 4.38396 10.5306 5.19255 8.96655 5.06986C8.86221 3.5406 9.45537 2.46731 10.1741 1.62974C10.8407 0.849163 12.0628 0.154569 13.2336 0Z" />
<path d="M17.9683 16.1487C17.9683 16.1641 17.9683 16.1777 17.9683 16.1921C17.5287 17.5234 16.9017 18.6643 16.1366 19.7231C15.4382 20.6843 14.5822 21.9779 13.0539 21.9779C11.7333 21.9779 10.8562 21.1287 9.50272 21.1055C8.07102 21.0823 7.28369 21.8156 5.97468 22.0001C5.82494 22.0001 5.6752 22.0001 5.52836 22.0001C4.56714 21.861 3.79139 21.0997 3.22625 20.4138C1.55981 18.387 0.272053 15.769 0.0324707 12.4187C0.0324707 12.0903 0.0324707 11.7628 0.0324707 11.4343C0.133907 9.03657 1.29897 7.08707 2.84756 6.14227C3.66484 5.63992 4.78836 5.21195 6.03941 5.40323C6.57557 5.48631 7.12332 5.66986 7.60345 5.85148C8.05847 6.02634 8.62747 6.33644 9.16653 6.32002C9.5317 6.30939 9.89494 6.11908 10.263 5.9848C11.3411 5.59548 12.398 5.14916 13.791 5.35879C15.4652 5.6119 16.6535 6.35576 17.3877 7.50344C15.9714 8.40477 14.8518 9.76304 15.0431 12.0825C15.2131 14.1895 16.438 15.4222 17.9683 16.1487Z" />
</svg>
