<svg width="12" height="21" viewBox="0 0 12 21" fill="#1A53F0" xmlns="http://www.w3.org/2000/svg">
<path d="M10.8984 11.75H7.96875V20.5H4.0625V11.75H0.898438V8.11719H4.0625V5.38281C4.0625 4.34115 4.25781 3.45573 4.64844 2.72656C5.03906 1.9974 5.58594 1.45052 6.28906 1.08594C7.01823 0.695312 7.85156 0.5 8.78906 0.5C9.20573 0.5 9.64844 0.526042 10.1172 0.578125C10.5859 0.604167 10.9505 0.643229 11.2109 0.695312L11.6016 0.734375V3.82031H10.0391C9.3099 3.82031 8.77604 4.01562 8.4375 4.40625C8.125 4.77083 7.96875 5.22656 7.96875 5.77344V8.11719H11.4453L10.8984 11.75Z" />
</svg>
