<svg width="20" height="21" viewBox="0 0 20 21" fill="#1A53F0" xmlns="http://www.w3.org/2000/svg">
<path d="M19.0625 10.7344C19.0625 13.4948 18.1901 15.7604 16.4453 17.5312C14.7266 19.3021 12.474 20.1875 9.6875 20.1875C7.00521 20.1875 4.71354 19.25 2.8125 17.375C0.9375 15.474 0 13.1823 0 10.5C0 7.81771 0.9375 5.53906 2.8125 3.66406C4.71354 1.76302 7.00521 0.8125 9.6875 0.8125C12.2135 0.8125 14.375 1.65885 16.1719 3.35156L13.5547 5.89062C12.7214 5.08333 11.7188 4.61458 10.5469 4.48438C9.40104 4.32812 8.32031 4.47135 7.30469 4.91406C6.3151 5.33073 5.45573 6.04688 4.72656 7.0625C4.02344 8.05208 3.67188 9.19792 3.67188 10.5C3.67188 12.1927 4.25781 13.638 5.42969 14.8359C6.60156 16.0339 8.02083 16.6328 9.6875 16.6328C10.599 16.6328 11.4062 16.4896 12.1094 16.2031C12.8385 15.8906 13.3984 15.513 13.7891 15.0703C14.2057 14.6016 14.5182 14.1458 14.7266 13.7031C14.9609 13.2604 15.1172 12.8438 15.1953 12.4531H9.6875V9.09375H18.9062C19.0104 9.66667 19.0625 10.2135 19.0625 10.7344Z" />
</svg>
