<svg width="18" height="18" viewBox="0 0 18 18" fill="#1A53F0" xmlns="http://www.w3.org/2000/svg">
<path d="M3.90625 18H0.273438V6.32031H3.90625V18ZM2.10938 4.71875C1.53646 4.71875 1.04167 4.51042 0.625 4.09375C0.208333 3.67708 0 3.18229 0 2.60938C0 2.03646 0.208333 1.54167 0.625 1.125C1.04167 0.708333 1.53646 0.5 2.10938 0.5C2.47396 0.5 2.8125 0.591146 3.125 0.773438C3.46354 0.955729 3.72396 1.21615 3.90625 1.55469C4.11458 1.86719 4.21875 2.21875 4.21875 2.60938C4.21875 2.97396 4.11458 3.32552 3.90625 3.66406C3.72396 3.97656 3.46354 4.23698 3.125 4.44531C2.8125 4.6276 2.47396 4.71875 2.10938 4.71875ZM17.5 18H13.8672V12.2969C13.8672 11.8542 13.8542 11.5026 13.8281 11.2422C13.8021 10.9557 13.737 10.6432 13.6328 10.3047C13.5286 9.9401 13.3333 9.66667 13.0469 9.48438C12.7865 9.30208 12.4349 9.21094 11.9922 9.21094C11.1328 9.21094 10.5469 9.48438 10.2344 10.0312C9.94792 10.5781 9.80469 11.3073 9.80469 12.2188V18H6.17188V6.32031H9.6875V7.92188H9.72656C9.98698 7.40104 10.4167 6.95833 11.0156 6.59375C11.6146 6.20312 12.3307 6.00781 13.1641 6.00781C14.0495 6.00781 14.7786 6.15104 15.3516 6.4375C15.9505 6.69792 16.3932 7.10156 16.6797 7.64844C16.9922 8.16927 17.2005 8.74219 17.3047 9.36719C17.4349 9.99219 17.5 10.7344 17.5 11.5938V18Z" />
</svg>
